<svg width="108" height="80" viewBox="0 0 108 80" fill="none" xmlns="http://www.w3.org/2000/svg">
<path d="M107.351 70.2812H0V70.3349H107.351V70.2812Z" fill="#EBEBEB"/>
<path d="M50.8837 60.7177H9.42907C9.10393 60.7177 8.79211 60.5885 8.5622 60.3586C8.33229 60.1287 8.20313 59.8169 8.20312 59.4917V1.21521C8.20596 0.891934 8.33637 0.582861 8.56597 0.355268C8.79557 0.127675 9.10578 -1.23939e-05 9.42907 9.02294e-10H50.8837C51.2088 9.02297e-10 51.5207 0.129162 51.7506 0.359072C51.9805 0.588981 52.1096 0.900806 52.1096 1.22595V59.4917C52.1096 59.8169 51.9805 60.1287 51.7506 60.3586C51.5207 60.5885 51.2088 60.7177 50.8837 60.7177ZM9.42907 0.0429405C9.11834 0.0435081 8.8205 0.167197 8.60078 0.386918C8.38106 0.606638 8.25737 0.904481 8.2568 1.21521V59.4917C8.25737 59.8024 8.38106 60.1003 8.60078 60.32C8.8205 60.5397 9.11834 60.6634 9.42907 60.664H50.8837C51.1944 60.6634 51.4923 60.5397 51.712 60.32C51.9317 60.1003 52.0554 59.8024 52.056 59.4917V1.21521C52.0554 0.904481 51.9317 0.606638 51.712 0.386918C51.4923 0.167197 51.1944 0.0435081 50.8837 0.0429405H9.42907Z" fill="#EBEBEB"/>
<path d="M97.3255 60.7177H55.8666C55.5416 60.7171 55.2301 60.5877 55.0003 60.358C54.7705 60.1282 54.6412 59.8167 54.6406 59.4917V1.21521C54.644 0.89211 54.7746 0.583361 55.0041 0.355888C55.2336 0.128415 55.5435 0.000547122 55.8666 0H97.3255C97.648 0.00111741 97.9571 0.129304 98.1858 0.356776C98.4145 0.584248 98.5443 0.892677 98.5471 1.21521V59.4917C98.5471 59.8161 98.4186 60.1273 98.1896 60.3571C97.9606 60.5869 97.6499 60.7165 97.3255 60.7177ZM55.8666 0.0429405C55.5558 0.0435081 55.258 0.167197 55.0383 0.386918C54.8186 0.606638 54.6949 0.904481 54.6943 1.21521V59.4917C54.6949 59.8024 54.8186 60.1003 55.0383 60.32C55.258 60.5397 55.5558 60.6634 55.8666 60.664H97.3255C97.6362 60.6634 97.9341 60.5397 98.1538 60.32C98.3735 60.1003 98.4972 59.8024 98.4977 59.4917V1.21521C98.4972 0.904481 98.3735 0.606638 98.1538 0.386918C97.9341 0.167197 97.6362 0.0435081 97.3255 0.0429405H55.8666Z" fill="#EBEBEB"/>
<path d="M96.5906 72.3281H89.8125V72.3818H96.5906V72.3281Z" fill="#EBEBEB"/>
<path d="M71.9935 71.7656H64.8203V71.8193H71.9935V71.7656Z" fill="#EBEBEB"/>
<path d="M98.5523 74.3281H85.1484V74.3818H98.5523V74.3281Z" fill="#EBEBEB"/>
<path d="M15.3943 73.9844H11.2656V74.0381H15.3943V73.9844Z" fill="#EBEBEB"/>
<path d="M23.8158 73.9844H17.3125V74.0381H23.8158V73.9844Z" fill="#EBEBEB"/>
<path d="M52.4173 73.0625H40.7031V73.1162H52.4173V73.0625Z" fill="#EBEBEB"/>
<path d="M75.2021 46.7263H19.6974C19.4027 46.729 19.1105 46.6709 18.8392 46.5557C18.5678 46.4405 18.3231 46.2706 18.1203 46.0567C17.9175 45.8428 17.7609 45.5894 17.6602 45.3123C17.5596 45.0353 17.5171 44.7404 17.5354 44.4462L19.5128 6.57282C19.5536 5.96272 19.8221 5.3902 20.2651 4.9687C20.7081 4.5472 21.2932 4.30746 21.9046 4.29698H77.4179C77.713 4.29403 78.0056 4.35197 78.2773 4.46718C78.5491 4.58238 78.7941 4.75238 78.9972 4.96656C79.2003 5.18074 79.3571 5.43449 79.4577 5.71197C79.5583 5.98945 79.6007 6.28469 79.5821 6.57926L77.6046 44.4462C77.5642 45.0587 77.2945 45.6335 76.8493 46.0561C76.404 46.4786 75.8159 46.718 75.2021 46.7263Z" fill="#E0E0E0"/>
<path d="M75.0303 46.7263H19.5277C19.2328 46.7293 18.9404 46.6714 18.6688 46.5563C18.3972 46.4412 18.1522 46.2714 17.9491 46.0575C17.7461 45.8436 17.5893 45.5901 17.4885 45.3128C17.3878 45.0356 17.3452 44.7406 17.3635 44.4462L19.3345 6.57067C19.3761 5.95804 19.6472 5.38363 20.0938 4.96215C20.5403 4.54067 21.1294 4.30314 21.7434 4.29698H77.246C77.5411 4.29403 77.8337 4.35197 78.1055 4.46718C78.3772 4.58238 78.6223 4.75238 78.8254 4.96656C79.0285 5.18074 79.1852 5.43449 79.2858 5.71197C79.3865 5.98945 79.4288 6.28469 79.4102 6.57926L77.4328 44.4462C77.3928 45.0589 77.1233 45.634 76.6779 46.0566C76.2326 46.4793 75.6442 46.7185 75.0303 46.7263Z" fill="#F0F0F0"/>
<path d="M77.1864 5.42969H21.6817C21.6195 5.42969 21.555 5.42969 21.4949 5.42969C20.0607 5.54777 20.0822 7.70553 21.5143 7.70553H77.122C78.5541 7.70553 78.801 5.55851 77.3797 5.42969C77.3024 5.43183 77.2487 5.42969 77.1864 5.42969Z" fill="#E0E0E0"/>
<path d="M22.9742 6.58501C22.964 6.72405 22.9022 6.85425 22.8009 6.95C22.6996 7.04576 22.5661 7.10014 22.4267 7.10245C22.359 7.10318 22.2918 7.08992 22.2295 7.06348C22.1671 7.03705 22.1109 6.99801 22.0643 6.94883C22.0177 6.89964 21.9818 6.84136 21.9589 6.77765C21.9359 6.71394 21.9263 6.64616 21.9307 6.57857C21.9394 6.43803 22.0008 6.30594 22.1028 6.20879C22.2047 6.11164 22.3396 6.0566 22.4804 6.0547C22.5485 6.05419 22.616 6.06785 22.6786 6.09481C22.7412 6.12176 22.7974 6.16143 22.8439 6.2113C22.8903 6.26116 22.9259 6.32013 22.9483 6.38446C22.9707 6.4488 22.9796 6.51709 22.9742 6.58501Z" fill="#FAFAFA"/>
<path d="M24.7654 6.57857C24.7552 6.71797 24.6931 6.84847 24.5913 6.94427C24.4895 7.04008 24.3555 7.09422 24.2158 7.096C24.148 7.09674 24.0809 7.08347 24.0185 7.05704C23.9562 7.0306 23.8999 6.99157 23.8534 6.94238C23.8068 6.8932 23.7709 6.83492 23.7479 6.7712C23.7249 6.70749 23.7154 6.63972 23.7198 6.57213C23.73 6.43236 23.7925 6.30156 23.8947 6.2057C23.9969 6.10984 24.1315 6.05594 24.2716 6.0547C24.3391 6.05426 24.4061 6.06774 24.4682 6.09431C24.5303 6.12087 24.5862 6.15995 24.6326 6.20911C24.6789 6.25826 24.7146 6.31644 24.7375 6.38C24.7603 6.44357 24.7698 6.51116 24.7654 6.57857Z" fill="#FAFAFA"/>
<path d="M26.5375 6.58515C26.5272 6.72565 26.4641 6.85706 26.361 6.95303C26.2579 7.049 26.1223 7.10242 25.9814 7.10258C25.9137 7.10332 25.8465 7.09006 25.7842 7.06362C25.7218 7.03719 25.6656 6.99815 25.619 6.94897C25.5724 6.89978 25.5365 6.8415 25.5135 6.77779C25.4906 6.71407 25.481 6.6463 25.4854 6.57871C25.4941 6.43817 25.5555 6.30608 25.6575 6.20893C25.7594 6.11178 25.8943 6.05674 26.0351 6.05484C26.1039 6.05312 26.1724 6.06589 26.236 6.09231C26.2996 6.11873 26.3569 6.15822 26.4043 6.20821C26.4516 6.25821 26.488 6.3176 26.5109 6.38253C26.5339 6.44747 26.5429 6.5165 26.5375 6.58515Z" fill="#FAFAFA"/>
<path d="M74.0168 42.9506H20.9104C20.8033 42.9517 20.6971 42.9307 20.5985 42.8889C20.4999 42.847 20.4111 42.7853 20.3375 42.7074C20.2639 42.6296 20.2072 42.5374 20.1709 42.4367C20.1347 42.3359 20.1196 42.2287 20.1267 42.1219L21.752 10.9772C21.7656 10.7545 21.863 10.5451 22.0248 10.3913C22.1865 10.2376 22.4005 10.1508 22.6237 10.1485H75.728C75.8352 10.1474 75.9415 10.1684 76.0401 10.2102C76.1388 10.252 76.2278 10.3138 76.3016 10.3916C76.3753 10.4693 76.4322 10.5615 76.4688 10.6623C76.5053 10.763 76.5206 10.8703 76.5138 10.9772L74.8864 42.1262C74.8723 42.348 74.7748 42.5562 74.6136 42.7092C74.4523 42.8621 74.2391 42.9483 74.0168 42.9506Z" fill="white"/>
<path d="M91.8988 18.4533H39.0822C38.5043 18.4607 37.9504 18.6859 37.5313 19.084C37.1122 19.482 36.8587 20.0235 36.8214 20.6003L34.9256 57.0781C34.9088 57.355 34.9491 57.6324 35.044 57.8931C35.1389 58.1537 35.2863 58.3921 35.4772 58.5935C35.668 58.7948 35.8982 58.9547 36.1535 59.0634C36.4087 59.1721 36.6836 59.2271 36.961 59.2251H89.7776C90.3552 59.2167 90.9085 58.9911 91.3274 58.5933C91.7463 58.1955 92.0002 57.6545 92.0384 57.0781L93.9428 20.6024C93.9599 20.3246 93.9196 20.0463 93.8243 19.7848C93.7291 19.5232 93.5809 19.2842 93.3891 19.0825C93.1973 18.8808 92.966 18.7208 92.7095 18.6126C92.4531 18.5043 92.1772 18.4501 91.8988 18.4533Z" fill="#EBEBEB"/>
<path d="M89.8168 58.4904C90.2017 58.4852 90.5704 58.3348 90.8491 58.0692C91.1278 57.8036 91.2959 57.4426 91.3197 57.0584L93.2241 20.5827C93.2359 20.3978 93.2095 20.2125 93.1465 20.0383C93.0835 19.864 92.9853 19.7047 92.858 19.5701C92.7306 19.4355 92.5769 19.3286 92.4065 19.2561C92.236 19.1836 92.0524 19.1469 91.8672 19.1485H39.0505C38.6654 19.1542 38.2967 19.3052 38.018 19.5711C37.7394 19.837 37.5714 20.1983 37.5476 20.5827L35.6432 57.0584C35.6317 57.2433 35.6584 57.4285 35.7217 57.6027C35.785 57.7768 35.8834 57.936 36.0109 58.0703C36.1385 58.2047 36.2923 58.3114 36.4629 58.3836C36.6334 58.4559 36.8171 58.4923 37.0023 58.4904H89.8168Z" fill="white"/>
<path opacity="0.4" d="M43.7236 47.0733H84.3259C84.9837 47.0665 85.6148 46.8115 86.0925 46.3592C86.5703 45.9069 86.8595 45.2908 86.9023 44.6343L87.7439 28.5037C87.7634 28.189 87.7178 27.8736 87.6102 27.5771C87.5026 27.2807 87.3351 27.0096 87.1182 26.7806C86.9014 26.5517 86.6397 26.3698 86.3496 26.2463C86.0594 26.1227 85.7469 26.0602 85.4316 26.0626H44.8207C44.1627 26.0698 43.5316 26.3254 43.0539 26.778C42.5762 27.2306 42.287 27.847 42.2443 28.5037L41.4027 44.6343C41.3835 44.9496 41.4295 45.2655 41.5378 45.5622C41.6461 45.859 41.8143 46.1303 42.0321 46.3591C42.2499 46.588 42.5125 46.7695 42.8035 46.8923C43.0945 47.0152 43.4077 47.0768 43.7236 47.0733Z" fill="#EBEBEB"/>
<path opacity="0.6" d="M70.1887 52.0815L69.8538 58.499H56.9609L57.2959 52.0815C57.33 51.5371 57.5686 51.0256 57.964 50.6497C58.3594 50.2738 58.8823 50.0613 59.4279 50.0548H68.2736C68.5353 50.0524 68.7947 50.1041 69.0355 50.2066C69.2763 50.3091 69.4934 50.4602 69.6732 50.6505C69.8529 50.8407 69.9915 51.066 70.0802 51.3122C70.1689 51.5585 70.2059 51.8204 70.1887 52.0815Z" fill="#F0F0F0"/>
<path opacity="0.6" d="M53.8932 52.0815L53.5583 58.4989H40.6719L41.0111 52.0815C41.0447 51.5368 41.2832 51.0251 41.6787 50.6491C42.0742 50.2731 42.5974 50.0607 43.1431 50.0547H51.9824C52.2436 50.0533 52.5024 50.1056 52.7426 50.2085C52.9827 50.3114 53.1992 50.4626 53.3784 50.6527C53.5576 50.8428 53.6958 51.0678 53.7844 51.3136C53.873 51.5594 53.91 51.8208 53.8932 52.0815Z" fill="#F0F0F0"/>
<path opacity="0.6" d="M86.4778 52.0816L86.1428 58.499H73.25L73.5849 52.0816C73.6185 51.5369 73.8571 51.0252 74.2526 50.6492C74.6481 50.2732 75.1713 50.0608 75.7169 50.0548H84.5562C84.8184 50.0519 85.0783 50.1032 85.3198 50.2054C85.5612 50.3076 85.7789 50.4586 85.9593 50.6488C86.1397 50.8391 86.2789 51.0646 86.3681 51.3111C86.4573 51.5576 86.4946 51.8199 86.4778 52.0816Z" fill="#F0F0F0"/>
<path opacity="0.9" d="M81.9786 35.3281H64.6372C63.7028 35.3281 62.9453 36.0856 62.9453 37.02C62.9453 37.9544 63.7028 38.7118 64.6372 38.7118H81.9786C82.913 38.7118 83.6705 37.9544 83.6705 37.02C83.6705 36.0856 82.913 35.3281 81.9786 35.3281Z" fill="#EBEBEB"/>
<path opacity="0.9" d="M70.1538 43.8546H81.6102C82.066 43.8485 82.5027 43.6707 82.8331 43.3567C83.1634 43.0426 83.3631 42.6155 83.3923 42.1606C83.4052 41.9423 83.3732 41.7237 83.2982 41.5183C83.2232 41.3128 83.1068 41.125 82.9562 40.9664C82.8057 40.8078 82.6241 40.6818 82.4229 40.5962C82.2217 40.5106 82.005 40.4672 81.7863 40.4688H70.3298C69.8746 40.4749 69.4385 40.6525 69.1085 40.9661C68.7786 41.2798 68.5791 41.7063 68.5499 42.1606C68.5364 42.379 68.5679 42.5978 68.6425 42.8035C68.7171 43.0092 68.8333 43.1973 68.9837 43.3562C69.1341 43.5151 69.3156 43.6413 69.5169 43.7271C69.7182 43.8128 69.935 43.8562 70.1538 43.8546Z" fill="#EBEBEB"/>
<path d="M46.7874 22.7771H43.0473C42.9803 22.7778 42.9139 22.7647 42.8522 22.7386C42.7905 22.7125 42.7349 22.674 42.6888 22.6254C42.6426 22.5769 42.607 22.5193 42.5841 22.4564C42.5612 22.3935 42.5515 22.3265 42.5556 22.2596C42.5648 22.1206 42.626 21.9901 42.7271 21.8942C42.8281 21.7983 42.9616 21.7441 43.101 21.7422H46.8411C46.9079 21.7418 46.974 21.7551 47.0355 21.7813C47.0969 21.8075 47.1523 21.8461 47.1982 21.8946C47.2441 21.9431 47.2795 22.0006 47.3023 22.0634C47.3251 22.1262 47.3347 22.193 47.3306 22.2596C47.3219 22.3985 47.2612 22.5289 47.1604 22.6249C47.0597 22.7208 46.9265 22.7752 46.7874 22.7771Z" fill="#EBEBEB"/>
<path d="M49.0094 22.2612C49.0026 22.3665 49.0176 22.472 49.0535 22.5713C49.0893 22.6705 49.1453 22.7612 49.2179 22.8378C49.2904 22.9144 49.378 22.9752 49.4751 23.0163C49.5723 23.0575 49.6768 23.0782 49.7823 23.0771C50.0029 23.0774 50.215 22.9928 50.3749 22.8409C50.5348 22.689 50.6301 22.4815 50.6411 22.2612C50.6479 22.1559 50.6329 22.0504 50.5971 21.9512C50.5612 21.852 50.5052 21.7612 50.4327 21.6847C50.3601 21.6081 50.2725 21.5473 50.1754 21.5061C50.0783 21.4649 49.9737 21.4442 49.8682 21.4454C49.6477 21.4451 49.4355 21.5296 49.2756 21.6815C49.1158 21.8334 49.0204 22.041 49.0094 22.2612Z" fill="#EBEBEB"/>
<path d="M85.9257 23.1001H87.6175C87.7242 23.0977 87.8261 23.0558 87.9035 22.9823C87.9809 22.9089 88.0282 22.8093 88.0362 22.7029L88.0813 21.8269C88.0848 21.7757 88.0777 21.7242 88.0604 21.6758C88.0431 21.6275 88.0159 21.5832 87.9806 21.5459C87.9452 21.5085 87.9026 21.4789 87.8552 21.4589C87.8079 21.439 87.7569 21.429 87.7055 21.4297H86.0115C85.9049 21.4321 85.8029 21.4741 85.7255 21.5475C85.6481 21.6209 85.6008 21.7205 85.5929 21.8269L85.5478 22.7029C85.5442 22.7544 85.5514 22.806 85.5688 22.8545C85.5863 22.903 85.6137 22.9474 85.6492 22.9848C85.6847 23.0221 85.7277 23.0517 85.7753 23.0715C85.8229 23.0914 85.8741 23.1011 85.9257 23.1001Z" fill="#EBEBEB"/>
<path d="M79.0733 22.5409H83.2579C83.3264 22.5383 83.3914 22.5102 83.4403 22.4622C83.4891 22.4141 83.5183 22.3495 83.522 22.2811C83.524 22.2478 83.5192 22.2145 83.5078 22.1831C83.4964 22.1518 83.4787 22.1231 83.4557 22.099C83.4327 22.0748 83.405 22.0556 83.3743 22.0426C83.3436 22.0296 83.3105 22.0231 83.2772 22.0235H79.1013C79.0316 22.0239 78.9647 22.0507 78.9141 22.0985C78.8635 22.1463 78.8329 22.2116 78.8286 22.2811C78.8265 22.3145 78.8313 22.3479 78.8427 22.3794C78.8541 22.4108 78.8718 22.4396 78.8947 22.464C78.9177 22.4883 78.9454 22.5077 78.9761 22.5209C79.0068 22.5342 79.0399 22.5409 79.0733 22.5409Z" fill="#F5F5F5"/>
<path d="M71.8079 22.5409H75.9946C76.0645 22.5404 76.1317 22.5133 76.1824 22.465C76.2331 22.4168 76.2634 22.351 76.2672 22.2811C76.2693 22.2478 76.2645 22.2145 76.2531 22.1831C76.2417 22.1518 76.2239 22.1231 76.201 22.099C76.178 22.0748 76.1503 22.0556 76.1196 22.0426C76.0889 22.0296 76.0558 22.0231 76.0225 22.0235H71.8358C71.7662 22.0239 71.6993 22.0507 71.6486 22.0985C71.598 22.1463 71.5675 22.2116 71.5631 22.2811C71.5607 22.3145 71.5653 22.3481 71.5766 22.3797C71.5878 22.4113 71.6055 22.4402 71.6285 22.4647C71.6515 22.4891 71.6793 22.5084 71.7102 22.5216C71.7411 22.5347 71.7743 22.5413 71.8079 22.5409Z" fill="#F5F5F5"/>
<path d="M64.5579 22.5409H68.7403C68.8101 22.5399 68.877 22.5126 68.9276 22.4645C68.9781 22.4163 69.0086 22.3508 69.0129 22.2811C69.0147 22.2479 69.0096 22.2147 68.9981 22.1835C68.9866 22.1523 68.9689 22.1237 68.946 22.0996C68.9231 22.0755 68.8955 22.0563 68.8649 22.0432C68.8343 22.0301 68.8014 22.0234 68.7682 22.0234H64.5836C64.5144 22.0244 64.448 22.0515 64.3979 22.0992C64.3477 22.147 64.3174 22.2119 64.3131 22.2811C64.3107 22.3145 64.3153 22.3481 64.3266 22.3797C64.3378 22.4113 64.3555 22.4402 64.3785 22.4646C64.4015 22.4891 64.4293 22.5084 64.4602 22.5216C64.4911 22.5347 64.5243 22.5413 64.5579 22.5409Z" fill="#F5F5F5"/>
<path d="M57.3233 22.5409H61.5079C61.5777 22.5399 61.6446 22.5126 61.6952 22.4645C61.7457 22.4163 61.7762 22.3508 61.7806 22.2811C61.7823 22.2477 61.7772 22.2143 61.7656 22.183C61.7539 22.1516 61.736 22.123 61.7129 22.0988C61.6897 22.0747 61.6619 22.0556 61.6311 22.0426C61.6002 22.0296 61.5671 22.0231 61.5336 22.0235H57.3513C57.2818 22.0244 57.2152 22.0514 57.1647 22.0991C57.1142 22.1468 57.0834 22.2118 57.0786 22.2811C57.0765 22.3145 57.0813 22.3479 57.0927 22.3794C57.1041 22.4108 57.1218 22.4396 57.1447 22.464C57.1677 22.4883 57.1954 22.5077 57.2261 22.5209C57.2568 22.5342 57.2899 22.5409 57.3233 22.5409Z" fill="#F5F5F5"/>
<path d="M53.6676 80.0015C76.6584 80.0015 95.2961 78.9133 95.2961 77.571C95.2961 76.2288 76.6584 75.1406 53.6676 75.1406C30.6768 75.1406 12.0391 76.2288 12.0391 77.571C12.0391 78.9133 30.6768 80.0015 53.6676 80.0015Z" fill="#F5F5F5"/>
<path d="M24.4803 27.2529C24.4234 27.2529 24.3688 27.2303 24.3285 27.19C24.2882 27.1498 24.2656 27.0952 24.2656 27.0382C24.2656 26.9813 24.2882 26.9267 24.3285 26.8864C24.3688 26.8461 24.4234 26.8235 24.4803 26.8235C24.5094 26.8235 24.5383 26.8294 24.565 26.8408C24.5918 26.8523 24.616 26.8691 24.6361 26.8901C24.6562 26.9112 24.6717 26.9362 24.6819 26.9635C24.692 26.9908 24.6965 27.0199 24.695 27.0489C24.6923 27.104 24.6684 27.1559 24.6285 27.1939C24.5885 27.2318 24.5355 27.253 24.4803 27.2529ZM84.5539 27.1928C84.4988 27.19 84.4469 27.1662 84.409 27.1262C84.371 27.0863 84.3499 27.0332 84.3499 26.9781C84.3499 26.9211 84.3725 26.8665 84.4128 26.8263C84.4531 26.786 84.5077 26.7634 84.5646 26.7634C84.6216 26.7634 84.6762 26.786 84.7164 26.8263C84.7567 26.8665 84.7793 26.9211 84.7793 26.9781C84.7793 27.035 84.7567 27.0896 84.7164 27.1299C84.6762 27.1702 84.6216 27.1928 84.5646 27.1928H84.5539ZM24.5404 25.9668C24.5113 25.9669 24.4825 25.961 24.4557 25.9495C24.4289 25.9381 24.4048 25.9213 24.3847 25.9002C24.3646 25.8791 24.349 25.8542 24.3389 25.8269C24.3288 25.7996 24.3243 25.7705 24.3257 25.7414C24.3271 25.7132 24.334 25.6855 24.3461 25.66C24.3582 25.6345 24.3752 25.6116 24.3961 25.5927C24.4171 25.5737 24.4416 25.5591 24.4682 25.5496C24.4948 25.5401 24.523 25.536 24.5512 25.5374C24.6062 25.5402 24.6581 25.564 24.6961 25.604C24.7341 25.644 24.7552 25.697 24.7551 25.7521C24.7551 25.8091 24.7325 25.8637 24.6923 25.904C24.652 25.9442 24.5974 25.9668 24.5404 25.9668ZM84.614 25.9067C84.5571 25.9067 84.5024 25.8841 84.4622 25.8438C84.4219 25.8036 84.3993 25.749 84.3993 25.692C84.3993 25.6629 84.4052 25.6341 84.4166 25.6073C84.4281 25.5805 84.4448 25.5564 84.4659 25.5363C84.487 25.5162 84.512 25.5006 84.5393 25.4905C84.5666 25.4803 84.5957 25.4759 84.6247 25.4773C84.6798 25.4801 84.7317 25.5039 84.7697 25.5439C84.8076 25.5839 84.8288 25.6369 84.8287 25.692C84.8287 25.749 84.8061 25.8036 84.7658 25.8438C84.7256 25.8841 84.6709 25.9067 84.614 25.9067ZM24.5963 24.6786C24.5393 24.6786 24.4847 24.656 24.4444 24.6158C24.4042 24.5755 24.3816 24.5209 24.3816 24.4639C24.3816 24.407 24.4042 24.3524 24.4444 24.3121C24.4847 24.2719 24.5393 24.2492 24.5963 24.2492C24.6532 24.2492 24.7078 24.2719 24.7481 24.3121C24.7883 24.3524 24.811 24.407 24.811 24.4639C24.811 24.5209 24.7883 24.5755 24.7481 24.6158C24.7078 24.656 24.6532 24.6786 24.5963 24.6786ZM84.6698 24.6207C84.6148 24.6179 84.5629 24.5941 84.5249 24.5541C84.4869 24.5141 84.4658 24.4611 84.4659 24.406C84.4659 24.349 84.4885 24.2944 84.5287 24.2541C84.569 24.2139 84.6236 24.1913 84.6806 24.1913C84.7375 24.1913 84.7921 24.2139 84.8324 24.2541C84.8726 24.2944 84.8953 24.349 84.8953 24.406C84.8953 24.4629 84.8726 24.5175 84.8324 24.5578C84.7921 24.598 84.7375 24.6207 84.6806 24.6207H84.6698ZM83.3945 24.1913C83.3945 24.1343 83.4171 24.0797 83.4574 24.0394C83.4976 23.9992 83.5523 23.9766 83.6092 23.9766C83.6661 23.9766 83.7208 23.9992 83.761 24.0394C83.8013 24.0797 83.8239 24.1343 83.8239 24.1913C83.8239 24.2482 83.8013 24.3028 83.761 24.3431C83.7208 24.3833 83.6661 24.406 83.6092 24.406C83.5534 24.406 83.4997 24.3843 83.4596 24.3454C83.4195 24.3065 83.3962 24.2535 83.3945 24.1977V24.1913ZM82.1063 24.1913C82.1063 24.1343 82.1289 24.0797 82.1692 24.0394C82.2094 23.9992 82.264 23.9766 82.321 23.9766C82.3779 23.9766 82.4325 23.9992 82.4728 24.0394C82.5131 24.0797 82.5357 24.1343 82.5357 24.1913C82.5357 24.2482 82.5131 24.3028 82.4728 24.3431C82.4325 24.3833 82.3779 24.406 82.321 24.406C82.2651 24.406 82.2115 24.3843 82.1714 24.3454C82.1313 24.3065 82.108 24.2535 82.1063 24.1977V24.1913ZM80.8181 24.1913C80.8181 24.1343 80.8407 24.0797 80.881 24.0394C80.9212 23.9992 80.9758 23.9766 81.0328 23.9766C81.0897 23.9766 81.1443 23.9992 81.1846 24.0394C81.2249 24.0797 81.2475 24.1343 81.2475 24.1913C81.2475 24.2482 81.2249 24.3028 81.1846 24.3431C81.1443 24.3833 81.0897 24.406 81.0328 24.406C80.9769 24.406 80.9233 24.3843 80.8832 24.3454C80.8431 24.3065 80.8197 24.2535 80.8181 24.1977V24.1913ZM79.5299 24.1913C79.5299 24.1343 79.5525 24.0797 79.5928 24.0394C79.633 23.9992 79.6876 23.9766 79.7446 23.9766C79.8015 23.9766 79.8561 23.9992 79.8964 24.0394C79.9366 24.0797 79.9593 24.1343 79.9593 24.1913C79.9593 24.2482 79.9366 24.3028 79.8964 24.3431C79.8561 24.3833 79.8015 24.406 79.7446 24.406C79.6887 24.406 79.6351 24.3843 79.595 24.3454C79.5549 24.3065 79.5315 24.2535 79.5299 24.1977V24.1913ZM78.2417 24.1913C78.2417 24.1343 78.2643 24.0797 78.3045 24.0394C78.3448 23.9992 78.3994 23.9766 78.4564 23.9766C78.5133 23.9766 78.5679 23.9992 78.6082 24.0394C78.6484 24.0797 78.6711 24.1343 78.6711 24.1913C78.6711 24.2482 78.6484 24.3028 78.6082 24.3431C78.5679 24.3833 78.5133 24.406 78.4564 24.406C78.4005 24.406 78.3469 24.3843 78.3068 24.3454C78.2667 24.3065 78.2433 24.2535 78.2417 24.1977V24.1913ZM76.9534 24.1913C76.9534 24.1343 76.9761 24.0797 77.0163 24.0394C77.0566 23.9992 77.1112 23.9766 77.1681 23.9766C77.2251 23.9766 77.2797 23.9992 77.32 24.0394C77.3602 24.0797 77.3828 24.1343 77.3828 24.1913C77.3828 24.2482 77.3602 24.3028 77.32 24.3431C77.2797 24.3833 77.2251 24.406 77.1681 24.406C77.1123 24.406 77.0586 24.3843 77.0186 24.3454C76.9785 24.3065 76.9551 24.2535 76.9534 24.1977V24.1913ZM75.6652 24.1913C75.6652 24.1343 75.6879 24.0797 75.7281 24.0394C75.7684 23.9992 75.823 23.9766 75.8799 23.9766C75.9369 23.9766 75.9915 23.9992 76.0318 24.0394C76.072 24.0797 76.0946 24.1343 76.0946 24.1913C76.0946 24.2482 76.072 24.3028 76.0318 24.3431C75.9915 24.3833 75.9369 24.406 75.8799 24.406C75.8241 24.406 75.7704 24.3843 75.7303 24.3454C75.6903 24.3065 75.6669 24.2535 75.6652 24.1977V24.1913ZM74.377 24.1913C74.377 24.1343 74.3996 24.0797 74.4399 24.0394C74.4802 23.9992 74.5348 23.9766 74.5917 23.9766C74.6487 23.9766 74.7033 23.9992 74.7435 24.0394C74.7838 24.0797 74.8064 24.1343 74.8064 24.1913C74.8064 24.2482 74.7838 24.3028 74.7435 24.3431C74.7033 24.3833 74.6487 24.406 74.5917 24.406C74.5359 24.406 74.4822 24.3843 74.4421 24.3454C74.4021 24.3065 74.3787 24.2535 74.377 24.1977V24.1913ZM73.0888 24.1913C73.0888 24.1343 73.1114 24.0797 73.1517 24.0394C73.192 23.9992 73.2466 23.9766 73.3035 23.9766C73.3605 23.9766 73.4151 23.9992 73.4553 24.0394C73.4956 24.0797 73.5182 24.1343 73.5182 24.1913C73.5182 24.2482 73.4956 24.3028 73.4553 24.3431C73.4151 24.3833 73.3605 24.406 73.3035 24.406C73.2477 24.406 73.194 24.3843 73.1539 24.3454C73.1138 24.3065 73.0905 24.2535 73.0888 24.1977V24.1913ZM71.8006 24.1913C71.8006 24.1343 71.8232 24.0797 71.8635 24.0394C71.9038 23.9992 71.9584 23.9766 72.0153 23.9766C72.0722 23.9766 72.1269 23.9992 72.1671 24.0394C72.2074 24.0797 72.23 24.1343 72.23 24.1913C72.23 24.2482 72.2074 24.3028 72.1671 24.3431C72.1269 24.3833 72.0722 24.406 72.0153 24.406C71.9595 24.406 71.9058 24.3843 71.8657 24.3454C71.8256 24.3065 71.8023 24.2535 71.8006 24.1977V24.1913ZM70.5124 24.1913C70.5124 24.1343 70.535 24.0797 70.5753 24.0394C70.6155 23.9992 70.6701 23.9766 70.7271 23.9766C70.784 23.9766 70.8386 23.9992 70.8789 24.0394C70.9192 24.0797 70.9418 24.1343 70.9418 24.1913C70.9418 24.2482 70.9192 24.3028 70.8789 24.3431C70.8386 24.3833 70.784 24.406 70.7271 24.406C70.6712 24.406 70.6176 24.3843 70.5775 24.3454C70.5374 24.3065 70.5141 24.2535 70.5124 24.1977V24.1913ZM69.2242 24.1913C69.2242 24.1343 69.2468 24.0797 69.2871 24.0394C69.3273 23.9992 69.3819 23.9766 69.4389 23.9766C69.4958 23.9766 69.5504 23.9992 69.5907 24.0394C69.631 24.0797 69.6536 24.1343 69.6536 24.1913C69.6536 24.2482 69.631 24.3028 69.5907 24.3431C69.5504 24.3833 69.4958 24.406 69.4389 24.406C69.383 24.406 69.3294 24.3843 69.2893 24.3454C69.2492 24.3065 69.2259 24.2535 69.2242 24.1977V24.1913ZM67.936 24.1913C67.936 24.1343 67.9586 24.0797 67.9989 24.0394C68.0391 23.9992 68.0937 23.9766 68.1507 23.9766C68.2076 23.9766 68.2622 23.9992 68.3025 24.0394C68.3428 24.0797 68.3654 24.1343 68.3654 24.1913C68.3654 24.2482 68.3428 24.3028 68.3025 24.3431C68.2622 24.3833 68.2076 24.406 68.1507 24.406C68.0948 24.406 68.0412 24.3843 68.0011 24.3454C67.961 24.3065 67.9376 24.2535 67.936 24.1977V24.1913ZM66.6478 24.1913C66.6478 24.1343 66.6704 24.0797 66.7106 24.0394C66.7509 23.9992 66.8055 23.9766 66.8625 23.9766C66.9194 23.9766 66.974 23.9992 67.0143 24.0394C67.0545 24.0797 67.0772 24.1343 67.0772 24.1913C67.0772 24.2482 67.0545 24.3028 67.0143 24.3431C66.974 24.3833 66.9194 24.406 66.8625 24.406C66.8066 24.406 66.753 24.3843 66.7129 24.3454C66.6728 24.3065 66.6494 24.2535 66.6478 24.1977V24.1913ZM65.3595 24.1913C65.3595 24.1343 65.3822 24.0797 65.4224 24.0394C65.4627 23.9992 65.5173 23.9766 65.5742 23.9766C65.6312 23.9766 65.6858 23.9992 65.7261 24.0394C65.7663 24.0797 65.7889 24.1343 65.7889 24.1913C65.7889 24.2482 65.7663 24.3028 65.7261 24.3431C65.6858 24.3833 65.6312 24.406 65.5742 24.406C65.5184 24.406 65.4647 24.3843 65.4247 24.3454C65.3846 24.3065 65.3612 24.2535 65.3595 24.1977V24.1913ZM64.0713 24.1913C64.0713 24.1343 64.094 24.0797 64.1342 24.0394C64.1745 23.9992 64.2291 23.9766 64.286 23.9766C64.343 23.9766 64.3976 23.9992 64.4379 24.0394C64.4781 24.0797 64.5007 24.1343 64.5007 24.1913C64.5007 24.2482 64.4781 24.3028 64.4379 24.3431C64.3976 24.3833 64.343 24.406 64.286 24.406C64.2302 24.406 64.1765 24.3843 64.1365 24.3454C64.0964 24.3065 64.073 24.2535 64.0713 24.1977V24.1913ZM62.7831 24.1913C62.7831 24.1343 62.8057 24.0797 62.846 24.0394C62.8863 23.9992 62.9409 23.9766 62.9978 23.9766C63.0548 23.9766 63.1094 23.9992 63.1496 24.0394C63.1899 24.0797 63.2125 24.1343 63.2125 24.1913C63.2125 24.2482 63.1899 24.3028 63.1496 24.3431C63.1094 24.3833 63.0548 24.406 62.9978 24.406C62.942 24.406 62.8883 24.3843 62.8482 24.3454C62.8082 24.3065 62.7848 24.2535 62.7831 24.1977V24.1913ZM61.4949 24.1913C61.4949 24.1343 61.5175 24.0797 61.5578 24.0394C61.5981 23.9992 61.6527 23.9766 61.7096 23.9766C61.7666 23.9766 61.8212 23.9992 61.8614 24.0394C61.9017 24.0797 61.9243 24.1343 61.9243 24.1913C61.9243 24.2482 61.9017 24.3028 61.8614 24.3431C61.8212 24.3833 61.7666 24.406 61.7096 24.406C61.6538 24.406 61.6001 24.3843 61.56 24.3454C61.5199 24.3065 61.4966 24.2535 61.4949 24.1977V24.1913ZM60.2067 24.1913C60.2067 24.1343 60.2293 24.0797 60.2696 24.0394C60.3099 23.9992 60.3645 23.9766 60.4214 23.9766C60.4783 23.9766 60.533 23.9992 60.5732 24.0394C60.6135 24.0797 60.6361 24.1343 60.6361 24.1913C60.6361 24.2482 60.6135 24.3028 60.5732 24.3431C60.533 24.3833 60.4783 24.406 60.4214 24.406C60.3656 24.406 60.3119 24.3843 60.2718 24.3454C60.2317 24.3065 60.2084 24.2535 60.2067 24.1977V24.1913ZM58.9185 24.1913C58.9185 24.1343 58.9411 24.0797 58.9814 24.0394C59.0216 23.9992 59.0763 23.9766 59.1332 23.9766C59.1901 23.9766 59.2448 23.9992 59.285 24.0394C59.3253 24.0797 59.3479 24.1343 59.3479 24.1913C59.3479 24.2482 59.3253 24.3028 59.285 24.3431C59.2448 24.3833 59.1901 24.406 59.1332 24.406C59.0774 24.406 59.0237 24.3843 58.9836 24.3454C58.9435 24.3065 58.9202 24.2535 58.9185 24.1977V24.1913ZM57.6303 24.1913C57.6303 24.1343 57.6529 24.0797 57.6932 24.0394C57.7334 23.9992 57.788 23.9766 57.845 23.9766C57.9019 23.9766 57.9565 23.9992 57.9968 24.0394C58.0371 24.0797 58.0597 24.1343 58.0597 24.1913C58.0597 24.2482 58.0371 24.3028 57.9968 24.3431C57.9565 24.3833 57.9019 24.406 57.845 24.406C57.7891 24.406 57.7355 24.3843 57.6954 24.3454C57.6553 24.3065 57.632 24.2535 57.6303 24.1977V24.1913ZM56.3421 24.1913C56.3421 24.1343 56.3647 24.0797 56.405 24.0394C56.4452 23.9992 56.4998 23.9766 56.5568 23.9766C56.6137 23.9766 56.6683 23.9992 56.7086 24.0394C56.7489 24.0797 56.7715 24.1343 56.7715 24.1913C56.7715 24.2482 56.7489 24.3028 56.7086 24.3431C56.6683 24.3833 56.6137 24.406 56.5568 24.406C56.5009 24.406 56.4473 24.3843 56.4072 24.3454C56.3671 24.3065 56.3437 24.2535 56.3421 24.1977V24.1913ZM55.0539 24.1913C55.0539 24.1343 55.0765 24.0797 55.1167 24.0394C55.157 23.9992 55.2116 23.9766 55.2686 23.9766C55.3255 23.9766 55.3801 23.9992 55.4204 24.0394C55.4606 24.0797 55.4833 24.1343 55.4833 24.1913C55.4833 24.2482 55.4606 24.3028 55.4204 24.3431C55.3801 24.3833 55.3255 24.406 55.2686 24.406C55.2127 24.406 55.1591 24.3843 55.119 24.3454C55.0789 24.3065 55.0555 24.2535 55.0539 24.1977V24.1913ZM53.7656 24.1913C53.7656 24.1343 53.7883 24.0797 53.8285 24.0394C53.8688 23.9992 53.9234 23.9766 53.9804 23.9766C54.0373 23.9766 54.0919 23.9992 54.1322 24.0394C54.1724 24.0797 54.1951 24.1343 54.1951 24.1913C54.1951 24.2482 54.1724 24.3028 54.1322 24.3431C54.0919 24.3833 54.0373 24.406 53.9804 24.406C53.9245 24.406 53.8709 24.3843 53.8308 24.3454C53.7907 24.3065 53.7673 24.2535 53.7656 24.1977V24.1913ZM52.4774 24.1913C52.4774 24.1343 52.5001 24.0797 52.5403 24.0394C52.5806 23.9992 52.6352 23.9766 52.6921 23.9766C52.7491 23.9766 52.8037 23.9992 52.844 24.0394C52.8842 24.0797 52.9068 24.1343 52.9068 24.1913C52.9068 24.2482 52.8842 24.3028 52.844 24.3431C52.8037 24.3833 52.7491 24.406 52.6921 24.406C52.6363 24.406 52.5826 24.3843 52.5426 24.3454C52.5025 24.3065 52.4791 24.2535 52.4774 24.1977V24.1913ZM51.1892 24.1913C51.1892 24.1343 51.2118 24.0797 51.2521 24.0394C51.2924 23.9992 51.347 23.9766 51.4039 23.9766C51.4609 23.9766 51.5155 23.9992 51.5557 24.0394C51.596 24.0797 51.6186 24.1343 51.6186 24.1913C51.6186 24.2482 51.596 24.3028 51.5557 24.3431C51.5155 24.3833 51.4609 24.406 51.4039 24.406C51.3481 24.406 51.2944 24.3843 51.2543 24.3454C51.2143 24.3065 51.1909 24.2535 51.1892 24.1977V24.1913ZM49.901 24.1913C49.901 24.1343 49.9236 24.0797 49.9639 24.0394C50.0042 23.9992 50.0588 23.9766 50.1157 23.9766C50.1727 23.9766 50.2273 23.9992 50.2675 24.0394C50.3078 24.0797 50.3304 24.1343 50.3304 24.1913C50.3304 24.2482 50.3078 24.3028 50.2675 24.3431C50.2273 24.3833 50.1727 24.406 50.1157 24.406C50.0599 24.406 50.0062 24.3843 49.9661 24.3454C49.9261 24.3065 49.9027 24.2535 49.901 24.1977V24.1913ZM48.6128 24.1913C48.6128 24.1343 48.6354 24.0797 48.6757 24.0394C48.716 23.9992 48.7706 23.9766 48.8275 23.9766C48.8845 23.9766 48.9391 23.9992 48.9793 24.0394C49.0196 24.0797 49.0422 24.1343 49.0422 24.1913C49.0422 24.2482 49.0196 24.3028 48.9793 24.3431C48.9391 24.3833 48.8845 24.406 48.8275 24.406C48.7717 24.406 48.718 24.3843 48.6779 24.3454C48.6378 24.3065 48.6145 24.2535 48.6128 24.1977V24.1913ZM47.3246 24.1913C47.3246 24.1343 47.3472 24.0797 47.3875 24.0394C47.4277 23.9992 47.4824 23.9766 47.5393 23.9766C47.5962 23.9766 47.6509 23.9992 47.6911 24.0394C47.7314 24.0797 47.754 24.1343 47.754 24.1913C47.754 24.2482 47.7314 24.3028 47.6911 24.3431C47.6509 24.3833 47.5962 24.406 47.5393 24.406C47.4835 24.406 47.4298 24.3843 47.3897 24.3454C47.3496 24.3065 47.3263 24.2535 47.3246 24.1977V24.1913ZM46.0364 24.1913C46.0364 24.1343 46.059 24.0797 46.0993 24.0394C46.1395 23.9992 46.1941 23.9766 46.2511 23.9766C46.308 23.9766 46.3626 23.9992 46.4029 24.0394C46.4432 24.0797 46.4658 24.1343 46.4658 24.1913C46.4658 24.2482 46.4432 24.3028 46.4029 24.3431C46.3626 24.3833 46.308 24.406 46.2511 24.406C46.1952 24.406 46.1416 24.3843 46.1015 24.3454C46.0614 24.3065 46.0381 24.2535 46.0364 24.1977V24.1913ZM44.7482 24.1913C44.7482 24.1343 44.7708 24.0797 44.8111 24.0394C44.8513 23.9992 44.9059 23.9766 44.9629 23.9766C45.0198 23.9766 45.0744 23.9992 45.1147 24.0394C45.155 24.0797 45.1776 24.1343 45.1776 24.1913C45.1776 24.2482 45.155 24.3028 45.1147 24.3431C45.0744 24.3833 45.0198 24.406 44.9629 24.406C44.907 24.406 44.8534 24.3843 44.8133 24.3454C44.7732 24.3065 44.7498 24.2535 44.7482 24.1977V24.1913ZM43.46 24.1913C43.46 24.1343 43.4826 24.0797 43.5228 24.0394C43.5631 23.9992 43.6177 23.9766 43.6747 23.9766C43.7316 23.9766 43.7862 23.9992 43.8265 24.0394C43.8667 24.0797 43.8894 24.1343 43.8894 24.1913C43.8894 24.2482 43.8667 24.3028 43.8265 24.3431C43.7862 24.3833 43.7316 24.406 43.6747 24.406C43.6188 24.406 43.5652 24.3843 43.5251 24.3454C43.485 24.3065 43.4616 24.2535 43.46 24.1977V24.1913ZM42.1718 24.1913C42.1718 24.1343 42.1944 24.0797 42.2346 24.0394C42.2749 23.9992 42.3295 23.9766 42.3865 23.9766C42.4434 23.9766 42.498 23.9992 42.5383 24.0394C42.5785 24.0797 42.6012 24.1343 42.6012 24.1913C42.6012 24.2482 42.5785 24.3028 42.5383 24.3431C42.498 24.3833 42.4434 24.406 42.3865 24.406C42.3306 24.406 42.277 24.3843 42.2369 24.3454C42.1968 24.3065 42.1734 24.2535 42.1718 24.1977V24.1913ZM40.8835 24.1913C40.8835 24.1343 40.9062 24.0797 40.9464 24.0394C40.9867 23.9992 41.0413 23.9766 41.0982 23.9766C41.1552 23.9766 41.2098 23.9992 41.2501 24.0394C41.2903 24.0797 41.3129 24.1343 41.3129 24.1913C41.3129 24.2482 41.2903 24.3028 41.2501 24.3431C41.2098 24.3833 41.1552 24.406 41.0982 24.406C41.0424 24.406 40.9887 24.3843 40.9487 24.3454C40.9086 24.3065 40.8852 24.2535 40.8835 24.1977V24.1913ZM39.5953 24.1913C39.5953 24.1343 39.618 24.0797 39.6582 24.0394C39.6985 23.9992 39.7531 23.9766 39.81 23.9766C39.867 23.9766 39.9216 23.9992 39.9619 24.0394C40.0021 24.0797 40.0247 24.1343 40.0247 24.1913C40.0247 24.2482 40.0021 24.3028 39.9619 24.3431C39.9216 24.3833 39.867 24.406 39.81 24.406C39.7542 24.406 39.7005 24.3843 39.6604 24.3454C39.6204 24.3065 39.597 24.2535 39.5953 24.1977V24.1913ZM38.3071 24.1913C38.3071 24.1343 38.3297 24.0797 38.37 24.0394C38.4103 23.9992 38.4649 23.9766 38.5218 23.9766C38.5788 23.9766 38.6334 23.9992 38.6736 24.0394C38.7139 24.0797 38.7365 24.1343 38.7365 24.1913C38.7365 24.2482 38.7139 24.3028 38.6736 24.3431C38.6334 24.3833 38.5788 24.406 38.5218 24.406C38.466 24.406 38.4123 24.3843 38.3722 24.3454C38.3322 24.3065 38.3088 24.2535 38.3071 24.1977V24.1913ZM37.0189 24.1913C37.0189 24.1343 37.0415 24.0797 37.0818 24.0394C37.1221 23.9992 37.1767 23.9766 37.2336 23.9766C37.2906 23.9766 37.3452 23.9992 37.3854 24.0394C37.4257 24.0797 37.4483 24.1343 37.4483 24.1913C37.4483 24.2482 37.4257 24.3028 37.3854 24.3431C37.3452 24.3833 37.2906 24.406 37.2336 24.406C37.1778 24.406 37.1241 24.3843 37.084 24.3454C37.0439 24.3065 37.0206 24.2535 37.0189 24.1977V24.1913ZM35.7307 24.1913C35.7307 24.1343 35.7533 24.0797 35.7936 24.0394C35.8338 23.9992 35.8885 23.9766 35.9454 23.9766C36.0023 23.9766 36.057 23.9992 36.0972 24.0394C36.1375 24.0797 36.1601 24.1343 36.1601 24.1913C36.1601 24.2482 36.1375 24.3028 36.0972 24.3431C36.057 24.3833 36.0023 24.406 35.9454 24.406C35.8896 24.406 35.8359 24.3843 35.7958 24.3454C35.7557 24.3065 35.7324 24.2535 35.7307 24.1977V24.1913ZM34.4425 24.1913C34.4425 24.1343 34.4651 24.0797 34.5054 24.0394C34.5456 23.9992 34.6002 23.9766 34.6572 23.9766C34.7141 23.9766 34.7687 23.9992 34.809 24.0394C34.8493 24.0797 34.8719 24.1343 34.8719 24.1913C34.8719 24.2482 34.8493 24.3028 34.809 24.3431C34.7687 24.3833 34.7141 24.406 34.6572 24.406C34.6013 24.406 34.5477 24.3843 34.5076 24.3454C34.4675 24.3065 34.4442 24.2535 34.4425 24.1977V24.1913ZM33.1543 24.1913C33.1543 24.1343 33.1769 24.0797 33.2172 24.0394C33.2574 23.9992 33.312 23.9766 33.369 23.9766C33.4259 23.9766 33.4805 23.9992 33.5208 24.0394C33.5611 24.0797 33.5837 24.1343 33.5837 24.1913C33.5837 24.2482 33.5611 24.3028 33.5208 24.3431C33.4805 24.3833 33.4259 24.406 33.369 24.406C33.3131 24.406 33.2595 24.3843 33.2194 24.3454C33.1793 24.3065 33.156 24.2535 33.1543 24.1977V24.1913ZM31.8661 24.1913C31.8661 24.1343 31.8887 24.0797 31.929 24.0394C31.9692 23.9992 32.0238 23.9766 32.0808 23.9766C32.1377 23.9766 32.1923 23.9992 32.2326 24.0394C32.2729 24.0797 32.2955 24.1343 32.2955 24.1913C32.2955 24.2482 32.2729 24.3028 32.2326 24.3431C32.1923 24.3833 32.1377 24.406 32.0808 24.406C32.0249 24.406 31.9713 24.3843 31.9312 24.3454C31.8911 24.3065 31.8677 24.2535 31.8661 24.1977V24.1913ZM30.5779 24.1913C30.5779 24.1343 30.6005 24.0797 30.6407 24.0394C30.681 23.9992 30.7356 23.9766 30.7926 23.9766C30.8495 23.9766 30.9041 23.9992 30.9444 24.0394C30.9846 24.0797 31.0073 24.1343 31.0073 24.1913C31.0073 24.2482 30.9846 24.3028 30.9444 24.3431C30.9041 24.3833 30.8495 24.406 30.7926 24.406C30.7367 24.406 30.6831 24.3843 30.643 24.3454C30.6029 24.3065 30.5795 24.2535 30.5779 24.1977V24.1913ZM29.2896 24.1913C29.2896 24.1343 29.3123 24.0797 29.3525 24.0394C29.3928 23.9992 29.4474 23.9766 29.5043 23.9766C29.5613 23.9766 29.6159 23.9992 29.6562 24.0394C29.6964 24.0797 29.719 24.1343 29.719 24.1913C29.719 24.2482 29.6964 24.3028 29.6562 24.3431C29.6159 24.3833 29.5613 24.406 29.5043 24.406C29.4485 24.406 29.3948 24.3843 29.3548 24.3454C29.3147 24.3065 29.2913 24.2535 29.2896 24.1977V24.1913ZM28.0014 24.1913C28.0014 24.1343 28.0241 24.0797 28.0643 24.0394C28.1046 23.9992 28.1592 23.9766 28.2161 23.9766C28.2731 23.9766 28.3277 23.9992 28.368 24.0394C28.4082 24.0797 28.4308 24.1343 28.4308 24.1913C28.4308 24.2482 28.4082 24.3028 28.368 24.3431C28.3277 24.3833 28.2731 24.406 28.2161 24.406C28.1603 24.406 28.1066 24.3843 28.0666 24.3454C28.0265 24.3065 28.0031 24.2535 28.0014 24.1977V24.1913ZM26.7132 24.1913C26.7132 24.1343 26.7358 24.0797 26.7761 24.0394C26.8164 23.9992 26.871 23.9766 26.9279 23.9766C26.9849 23.9766 27.0395 23.9992 27.0797 24.0394C27.12 24.0797 27.1426 24.1343 27.1426 24.1913C27.1426 24.2482 27.12 24.3028 27.0797 24.3431C27.0395 24.3833 26.9849 24.406 26.9279 24.406C26.8721 24.406 26.8184 24.3843 26.7783 24.3454C26.7383 24.3065 26.7149 24.2535 26.7132 24.1977V24.1913ZM25.425 24.1913C25.425 24.1343 25.4476 24.0797 25.4879 24.0394C25.5282 23.9992 25.5828 23.9766 25.6397 23.9766C25.6967 23.9766 25.7513 23.9992 25.7915 24.0394C25.8318 24.0797 25.8544 24.1343 25.8544 24.1913C25.8544 24.2482 25.8318 24.3028 25.7915 24.3431C25.7513 24.3833 25.6967 24.406 25.6397 24.406C25.5839 24.406 25.5302 24.3843 25.4901 24.3454C25.45 24.3065 25.4267 24.2535 25.425 24.1977V24.1913Z" fill="#0C9787"/>
<path d="M54.7147 36.1104C54.6578 36.1104 54.6031 36.0877 54.5629 36.0475C54.5226 36.0072 54.5 35.9526 54.5 35.8957C54.5 35.8387 54.5226 35.7841 54.5629 35.7438C54.6031 35.7036 54.6578 35.681 54.7147 35.681C54.7716 35.681 54.8263 35.7036 54.8665 35.7438C54.9068 35.7841 54.9294 35.8387 54.9294 35.8957C54.9294 35.9526 54.9068 36.0072 54.8665 36.0475C54.8263 36.0877 54.7716 36.1104 54.7147 36.1104ZM54.7727 34.8221C54.7157 34.8221 54.6611 34.7995 54.6209 34.7593C54.5806 34.719 54.558 34.6644 54.558 34.6074C54.558 34.5505 54.5806 34.4959 54.6209 34.4556C54.6611 34.4154 54.7157 34.3927 54.7727 34.3927C54.8009 34.3941 54.8285 34.401 54.8541 34.4131C54.8796 34.4252 54.9025 34.4422 54.9214 34.4631C54.9404 34.4841 54.955 34.5086 54.9645 34.5352C54.974 34.5618 54.9781 34.59 54.9766 34.6182C54.9739 34.6732 54.9501 34.7251 54.9101 34.7631C54.8701 34.8011 54.8171 34.8222 54.7619 34.8221H54.7727ZM54.8285 33.5339C54.7994 33.534 54.7705 33.5281 54.7438 33.5166C54.717 33.5052 54.6928 33.4884 54.6728 33.4673C54.6527 33.4462 54.6371 33.4213 54.6269 33.394C54.6168 33.3667 54.6123 33.3376 54.6138 33.3085C54.6165 33.2534 54.6404 33.2015 54.6804 33.1636C54.7203 33.1256 54.7734 33.1045 54.8285 33.1045C54.8854 33.1045 54.94 33.1272 54.9803 33.1674C55.0206 33.2077 55.0432 33.2623 55.0432 33.3192C55.0432 33.3762 55.0206 33.4308 54.9803 33.4711C54.94 33.5113 54.8854 33.5339 54.8285 33.5339ZM54.8865 32.2457C54.8295 32.2457 54.7749 32.2231 54.7346 32.1828C54.6944 32.1426 54.6718 32.088 54.6718 32.031C54.6718 31.9741 54.6944 31.9195 54.7346 31.8792C54.7749 31.8389 54.8295 31.8163 54.8865 31.8163C54.9147 31.8163 54.9426 31.8219 54.9686 31.8327C54.9947 31.8435 55.0183 31.8593 55.0383 31.8792C55.0582 31.8991 55.074 31.9228 55.0848 31.9489C55.0956 31.9749 55.1012 32.0028 55.1012 32.031C55.1012 32.088 55.0785 32.1426 55.0383 32.1828C54.998 32.2231 54.9434 32.2457 54.8865 32.2457ZM54.9423 30.9575C54.8853 30.9575 54.8307 30.9349 54.7905 30.8946C54.7502 30.8544 54.7276 30.7998 54.7276 30.7428C54.7276 30.7137 54.7334 30.6849 54.7449 30.6581C54.7563 30.6313 54.7731 30.6072 54.7942 30.5871C54.8153 30.567 54.8403 30.5514 54.8676 30.5413C54.8949 30.5311 54.9239 30.5267 54.953 30.5281C55.0081 30.5309 55.06 30.5547 55.0979 30.5947C55.1359 30.6346 55.1571 30.6877 55.157 30.7428C55.157 30.7998 55.1344 30.8544 55.0941 30.8946C55.0538 30.9349 54.9992 30.9575 54.9423 30.9575ZM54.9981 29.6693C54.9412 29.6693 54.8866 29.6467 54.8463 29.6064C54.806 29.5662 54.7834 29.5115 54.7834 29.4546C54.7834 29.3977 54.806 29.343 54.8463 29.3028C54.8866 29.2625 54.9412 29.2399 54.9981 29.2399C55.0551 29.2399 55.1097 29.2625 55.1499 29.3028C55.1902 29.343 55.2128 29.3977 55.2128 29.4546C55.2101 29.5097 55.1862 29.5616 55.1463 29.5995C55.1063 29.6375 55.0532 29.6586 54.9981 29.6586V29.6693ZM55.0561 28.3811C54.9991 28.3811 54.9445 28.3585 54.9043 28.3182C54.864 28.2779 54.8414 28.2233 54.8414 28.1664C54.8414 28.1094 54.864 28.0548 54.9043 28.0146C54.9445 27.9743 54.9991 27.9517 55.0561 27.9517C55.0843 27.9531 55.1119 27.96 55.1375 27.9721C55.163 27.9842 55.1859 28.0011 55.2048 28.0221C55.2238 28.043 55.2384 28.0675 55.2479 28.0941C55.2574 28.1207 55.2615 28.1489 55.26 28.1771C55.2573 28.2322 55.2335 28.2841 55.1935 28.322C55.1535 28.36 55.1005 28.3812 55.0453 28.3811H55.0561ZM55.1119 27.0929C55.0837 27.0915 55.056 27.0846 55.0305 27.0725C55.005 27.0604 54.9821 27.0434 54.9631 27.0225C54.9442 27.0015 54.9296 26.9771 54.9201 26.9505C54.9106 26.9239 54.9065 26.8956 54.9079 26.8674C54.9107 26.8124 54.9345 26.7605 54.9745 26.7225C55.0145 26.6845 55.0675 26.6634 55.1226 26.6635C55.1796 26.6635 55.2342 26.6861 55.2745 26.7264C55.3147 26.7666 55.3373 26.8212 55.3373 26.8782C55.3373 26.9351 55.3147 26.9897 55.2745 27.03C55.2342 27.0703 55.1796 27.0929 55.1226 27.0929H55.1119ZM55.1699 25.8047C55.1129 25.8047 55.0583 25.7821 55.0181 25.7418C54.9778 25.7015 54.9552 25.6469 54.9552 25.59C54.9551 25.5608 54.961 25.532 54.9725 25.5052C54.9839 25.4785 55.0007 25.4543 55.0218 25.4342C55.0429 25.4141 55.0678 25.3986 55.0951 25.3884C55.1224 25.3783 55.1515 25.3738 55.1806 25.3753C55.2357 25.378 55.2876 25.4019 55.3255 25.4418C55.3635 25.4818 55.3846 25.5348 55.3846 25.59C55.3846 25.6469 55.362 25.7015 55.3217 25.7418C55.2814 25.7821 55.2268 25.8047 55.1699 25.8047Z" fill="#0C9787"/>
<path d="M64.0357 12.7889C64.0014 12.2045 63.8311 11.6361 63.5385 11.1289C63.2459 10.6218 62.839 10.1899 62.3501 9.86765C61.8613 9.54538 61.304 9.34159 60.7226 9.2725C60.1412 9.20341 59.5517 9.27092 59.001 9.46966C58.4554 8.62021 57.6708 7.95106 56.7459 7.54639C55.821 7.14172 54.7971 7.01959 53.803 7.19538C52.8089 7.37117 51.8889 7.83701 51.1589 8.53432C50.4288 9.23162 49.9213 10.1292 49.7001 11.1143H49.5219C48.8337 11.1003 48.1496 11.2237 47.5096 11.4774C46.8697 11.7311 46.2868 12.1099 45.7952 12.5916C45.3035 13.0734 44.9129 13.6484 44.6462 14.2831C44.3795 14.9177 44.2422 15.5991 44.2422 16.2875C44.2422 16.9759 44.3795 17.6573 44.6462 18.292C44.9129 18.9266 45.3035 19.5016 45.7952 19.9834C46.2868 20.4651 46.8697 20.844 47.5096 21.0976C48.1496 21.3513 48.8337 21.4748 49.5219 21.4608H62.1764C63.214 21.4616 64.2205 21.1065 65.0278 20.4546C65.835 19.8027 66.3942 18.8936 66.6118 17.879C66.8294 16.8645 66.6924 15.806 66.2235 14.8804C65.7547 13.9548 64.9824 13.218 64.0357 12.7932V12.7889Z" fill="#263238"/>
<path d="M50.0487 8.20214L49.8984 8.0497C50.1827 7.77098 50.4941 7.5214 50.8281 7.30469L50.944 7.48504C50.6225 7.69364 50.3225 7.93387 50.0487 8.20214Z" fill="#0C9787"/>
<path d="M46.6675 10.9866L46.5859 10.7869C47.1749 10.5448 47.7992 10.3997 48.4345 10.3575C48.6331 9.77444 48.923 9.22657 49.2933 8.73438L49.4651 8.8632C49.0935 9.35845 48.8069 9.91206 48.617 10.5014L48.5934 10.5722H48.5204C47.8838 10.605 47.2574 10.7451 46.6675 10.9866Z" fill="#0C9787"/>
<path d="M63.3406 12.7889C63.3062 12.2045 63.1359 11.6361 62.8433 11.1289C62.5507 10.6218 62.1438 10.1899 61.655 9.86765C61.1661 9.54538 60.6089 9.34159 60.0275 9.2725C59.4461 9.20341 58.8566 9.27092 58.3058 9.46966C57.7603 8.62021 56.9757 7.95106 56.0508 7.54639C55.1259 7.14172 54.102 7.01959 53.1078 7.19538C52.1137 7.37117 51.1937 7.83701 50.4637 8.53432C49.7336 9.23162 49.2261 10.1292 49.0049 11.1143H48.8267C47.4729 11.1419 46.1839 11.699 45.2363 12.6662C44.2886 13.6333 43.7578 14.9335 43.7578 16.2875C43.7578 17.6416 44.2886 18.9417 45.2363 19.9089C46.1839 20.876 47.4729 21.4332 48.8267 21.4608H61.4813C62.5189 21.4616 63.5253 21.1065 64.3326 20.4546C65.1399 19.8027 65.699 18.8936 65.9167 17.879C66.1343 16.8645 65.9972 15.806 65.5284 14.8804C65.0595 13.9548 64.2872 13.218 63.3406 12.7932V12.7889Z" fill="#0C9787"/>
<path d="M55.0201 14.6469L53.002 12.6308C52.9856 12.6141 52.966 12.6009 52.9445 12.5918C52.9229 12.5828 52.8997 12.5781 52.8764 12.5781C52.853 12.5781 52.8298 12.5828 52.8083 12.5918C52.7867 12.6009 52.7671 12.6141 52.7508 12.6308L50.7326 14.6469C50.7074 14.6718 50.6902 14.7037 50.6832 14.7384C50.6762 14.7731 50.6797 14.8092 50.6933 14.8419C50.7069 14.8746 50.73 14.9026 50.7595 14.9221C50.7891 14.9417 50.8238 14.952 50.8592 14.9517H51.718C51.7655 14.9523 51.8108 14.9716 51.8442 15.0053C51.8775 15.0391 51.8962 15.0846 51.8962 15.1321V17.9468C51.8962 17.9941 51.915 18.0394 51.9484 18.0728C51.9819 18.1063 52.0272 18.125 52.0744 18.125H53.6911C53.7384 18.125 53.7837 18.1063 53.8172 18.0728C53.8506 18.0394 53.8694 17.9941 53.8694 17.9468V15.1321C53.8693 15.0846 53.8881 15.0391 53.9214 15.0053C53.9548 14.9716 54.0001 14.9523 54.0476 14.9517H54.9064C54.9407 14.9496 54.9737 14.9375 55.0013 14.917C55.029 14.8965 55.0501 14.8684 55.0621 14.8362C55.0742 14.804 55.0766 14.7689 55.0691 14.7353C55.0617 14.7017 55.0447 14.671 55.0201 14.6469Z" fill="white"/>
<path d="M54.647 16.0563L56.6652 18.0745C56.6992 18.1073 56.7446 18.1256 56.7918 18.1256C56.8391 18.1256 56.8845 18.1073 56.9185 18.0745L58.9346 16.0563C58.9596 16.0315 58.9768 15.9998 58.9838 15.9653C58.9909 15.9307 58.9875 15.8949 58.9742 15.8622C58.9609 15.8296 58.9382 15.8016 58.9089 15.7819C58.8797 15.7622 58.8453 15.7516 58.81 15.7514H57.9512C57.9038 15.7514 57.8582 15.7327 57.8245 15.6994C57.7907 15.666 57.7715 15.6207 57.7709 15.5732V12.7563C57.7709 12.7091 57.7521 12.6637 57.7187 12.6303C57.6853 12.5969 57.6399 12.5781 57.5927 12.5781H55.9781C55.9307 12.5781 55.8851 12.5968 55.8514 12.6302C55.8176 12.6635 55.7983 12.7089 55.7978 12.7563V15.5732C55.7978 15.6205 55.779 15.6658 55.7456 15.6992C55.7122 15.7326 55.6668 15.7514 55.6196 15.7514H54.7608C54.7264 15.7536 54.6934 15.7656 54.6658 15.7861C54.6381 15.8066 54.617 15.8347 54.605 15.867C54.593 15.8992 54.5905 15.9342 54.598 15.9678C54.6054 16.0014 54.6224 16.0322 54.647 16.0563Z" fill="white"/>
<path d="M88.7537 50.012H79.4378C79.3478 50.0124 79.2586 49.9944 79.1758 49.9592C79.093 49.924 79.0183 49.8722 78.9562 49.8071C78.8941 49.7419 78.8459 49.6648 78.8146 49.5804C78.7834 49.4961 78.7697 49.4062 78.7743 49.3163L79.5966 30.6544C79.607 30.4683 79.6877 30.2931 79.8225 30.1643C79.9572 30.0356 80.1359 29.9628 80.3223 29.961H89.6382C89.7282 29.9603 89.8174 29.9779 89.9003 30.0129C89.9832 30.0479 90.0581 30.0994 90.1204 30.1643C90.1827 30.2292 90.2311 30.3062 90.2627 30.3905C90.2942 30.4747 90.3082 30.5646 90.3038 30.6544L89.4794 49.3163C89.469 49.5026 89.3884 49.6781 89.2537 49.8072C89.119 49.9363 88.9403 50.0095 88.7537 50.012Z" fill="#263238"/>
<path d="M88.4276 50.012H79.1117C79.0216 50.0124 78.9324 49.9944 78.8495 49.9592C78.7665 49.924 78.6917 49.8723 78.6294 49.8072C78.5671 49.7421 78.5187 49.665 78.4872 49.5806C78.4557 49.4962 78.4417 49.4063 78.4461 49.3163L79.2684 30.6544C79.2787 30.4683 79.3595 30.2931 79.4942 30.1643C79.629 30.0356 79.8077 29.9629 79.9941 29.961H89.3122C89.402 29.9603 89.4911 29.9779 89.5739 30.0129C89.6567 30.0479 89.7315 30.0995 89.7936 30.1644C89.8558 30.2294 89.904 30.3064 89.9353 30.3906C89.9665 30.4749 89.9803 30.5647 89.9756 30.6544L89.1533 49.3163C89.143 49.5026 89.0623 49.6781 88.9276 49.8072C88.7929 49.9363 88.6142 50.0095 88.4276 50.012Z" fill="#0C9787"/>
<path opacity="0.3" d="M84.4274 49.6228H83.1392C83.1182 49.6229 83.0973 49.6186 83.078 49.6103C83.0587 49.602 83.0412 49.5898 83.0267 49.5746C83.0123 49.5593 83.0011 49.5412 82.9938 49.5215C82.9866 49.5017 82.9834 49.4807 82.9846 49.4597V49.4189C82.9873 49.3756 83.0063 49.3349 83.0378 49.305C83.0692 49.2751 83.1108 49.2583 83.1542 49.2578H84.4424C84.4634 49.2575 84.4842 49.2615 84.5035 49.2696C84.5228 49.2776 84.5403 49.2896 84.5548 49.3047C84.5693 49.3198 84.5805 49.3377 84.5878 49.3574C84.5951 49.377 84.5982 49.3979 84.597 49.4189V49.4597C84.5954 49.5035 84.5767 49.545 84.5451 49.5754C84.5135 49.6059 84.4713 49.6229 84.4274 49.6228Z" fill="black"/>
<path opacity="0.9" d="M79.4101 48.8266C79.364 48.827 79.3183 48.8179 79.2758 48.7999C79.2333 48.7819 79.195 48.7553 79.1632 48.7219C79.1314 48.6885 79.1068 48.649 79.0909 48.6057C79.0751 48.5624 79.0682 48.5163 79.0709 48.4702L79.8438 30.9012C79.8492 30.806 79.8906 30.7165 79.9596 30.6507C80.0286 30.585 80.1199 30.5478 80.2152 30.5469H89.0523C89.0984 30.5462 89.144 30.5551 89.1865 30.5728C89.2289 30.5906 89.2673 30.6169 89.2991 30.6502C89.3309 30.6834 89.3556 30.7228 89.3715 30.766C89.3874 30.8092 89.3942 30.8552 89.3916 30.9012L88.6187 48.4702C88.6137 48.5657 88.5726 48.6558 88.5036 48.722C88.4345 48.7882 88.3429 48.8257 88.2472 48.8266H79.4101Z" fill="white"/>
<path d="M83.2013 42.4516H81.8187C81.7845 42.4516 81.7506 42.4448 81.7192 42.4314C81.6877 42.418 81.6593 42.3983 81.6356 42.3737C81.6119 42.349 81.5935 42.3198 81.5814 42.2878C81.5694 42.2558 81.5639 42.2217 81.5653 42.1875L81.6705 39.7936C81.6725 39.7889 81.6736 39.7837 81.6736 39.7786C81.6736 39.7734 81.6725 39.7683 81.6705 39.7636C81.6626 39.757 81.6528 39.7533 81.6426 39.7528H80.9169C80.8666 39.7537 80.8172 39.7391 80.7754 39.7111C80.7335 39.6831 80.7013 39.643 80.6829 39.5961C80.6632 39.5473 80.6588 39.4936 80.6703 39.4422C80.6818 39.3908 80.7087 39.3442 80.7473 39.3084L82.5379 37.5908C82.5903 37.5432 82.6583 37.5165 82.729 37.5156C82.7622 37.5165 82.7948 37.5239 82.825 37.5376C82.8553 37.5512 82.8825 37.5708 82.9051 37.5951L84.5454 39.3127C84.5801 39.3488 84.6033 39.3944 84.6121 39.4437C84.6208 39.493 84.6148 39.5438 84.5948 39.5896C84.5743 39.6377 84.5402 39.6788 84.4967 39.7078C84.4532 39.7367 84.4023 39.7524 84.35 39.7528H83.6243C83.6113 39.7537 83.599 39.7592 83.5896 39.7682C83.5802 39.7772 83.5743 39.7892 83.5728 39.8022L83.4676 42.1983C83.4633 42.2663 83.4334 42.3301 83.3841 42.3771C83.3347 42.4241 83.2695 42.4507 83.2013 42.4516ZM82.7226 37.7282C82.7089 37.7284 82.6959 37.7337 82.6861 37.7432L80.8955 39.4608C80.8879 39.4673 80.8827 39.476 80.8804 39.4856C80.878 39.4952 80.8788 39.5053 80.8826 39.5145C80.885 39.5215 80.8897 39.5274 80.8959 39.5313C80.9022 39.5352 80.9096 39.5369 80.9169 39.536H81.6426C81.6767 39.5359 81.7104 39.5427 81.7417 39.556C81.7731 39.5693 81.8014 39.5888 81.8251 39.6133C81.8489 39.6379 81.8673 39.6673 81.8791 39.6994C81.8909 39.7316 81.896 39.7659 81.8938 39.8001L81.7886 42.1961C81.7891 42.2063 81.7928 42.2161 81.7993 42.224C81.8083 42.2275 81.8183 42.2275 81.8273 42.224H83.2013C83.2144 42.2231 83.2266 42.2177 83.236 42.2087C83.2454 42.1996 83.2514 42.1876 83.2529 42.1747L83.3581 39.7807C83.3619 39.7124 83.3915 39.648 83.4409 39.6005C83.4903 39.5531 83.5558 39.5262 83.6243 39.5252H84.35C84.36 39.5246 84.3697 39.5213 84.3781 39.5156C84.3864 39.51 84.393 39.5022 84.3972 39.493C84.4017 39.4863 84.404 39.4785 84.404 39.4705C84.404 39.4625 84.4017 39.4546 84.3972 39.4479L82.7569 37.7303C82.7515 37.7278 82.7455 37.7267 82.7395 37.7271C82.7335 37.7275 82.7277 37.7293 82.7226 37.7325V37.7282Z" fill="#0C9787"/>
<path d="M85.8556 42.4516C85.8226 42.4512 85.79 42.4441 85.7597 42.4308C85.7295 42.4175 85.7022 42.3983 85.6795 42.3743L84.0392 40.6567C84.0046 40.6201 83.9815 40.5742 83.9727 40.5246C83.9639 40.475 83.9699 40.4239 83.9898 40.3776C84.0103 40.3295 84.0444 40.2885 84.0879 40.2595C84.1313 40.2305 84.1823 40.2149 84.2346 40.2144H84.9603C84.9734 40.2139 84.9859 40.2087 84.9954 40.1996C85.0049 40.1904 85.0108 40.1782 85.0118 40.1651L85.117 37.7711C85.1208 37.7028 85.1504 37.6384 85.1998 37.5909C85.2492 37.5435 85.3148 37.5166 85.3832 37.5156H86.7573C86.7914 37.5153 86.8252 37.5221 86.8566 37.5353C86.888 37.5486 86.9163 37.5682 86.9398 37.5929C86.9636 37.6177 86.9821 37.647 86.9943 37.6791C87.0064 37.7112 87.012 37.7454 87.0107 37.7797L86.9055 40.1758C86.9035 40.1802 86.9025 40.1849 86.9025 40.1897C86.9025 40.1946 86.9035 40.1993 86.9055 40.2037C86.9146 40.2065 86.9243 40.2065 86.9334 40.2037H87.6591C87.7097 40.203 87.7593 40.2179 87.8011 40.2463C87.843 40.2747 87.8751 40.3153 87.8931 40.3626C87.9129 40.411 87.9174 40.4644 87.9059 40.5155C87.8943 40.5666 87.8674 40.6129 87.8287 40.6481L86.0381 42.3657C85.9906 42.4168 85.9252 42.4476 85.8556 42.4516ZM84.1874 40.5193L85.8277 42.2369C85.8277 42.2369 85.8384 42.2369 85.8556 42.2369C85.8692 42.2367 85.8823 42.2314 85.8921 42.2219L87.6827 40.5043C87.69 40.4982 87.6952 40.4899 87.6975 40.4806C87.6999 40.4714 87.6992 40.4616 87.6956 40.4528C87.6932 40.4456 87.6886 40.4394 87.6824 40.4351C87.6762 40.4309 87.6688 40.4288 87.6612 40.4291H86.9355C86.9021 40.4283 86.8691 40.4209 86.8385 40.4073C86.8079 40.3936 86.7803 40.3741 86.7573 40.3497C86.7336 40.325 86.7152 40.2957 86.7033 40.2635C86.6915 40.2314 86.6865 40.1971 86.6886 40.1629L86.7938 37.769C86.7973 37.76 86.7973 37.7501 86.7938 37.7411C86.7906 37.7368 86.7864 37.7333 86.7815 37.7311C86.7766 37.7288 86.7713 37.7278 86.7659 37.7282H85.3918C85.3788 37.7291 85.3666 37.7345 85.3572 37.7436C85.3477 37.7526 85.3418 37.7646 85.3403 37.7776L85.2351 40.1736C85.2308 40.2416 85.201 40.3055 85.1516 40.3525C85.1023 40.3994 85.037 40.426 84.9689 40.427H84.2432C84.2331 40.4276 84.2234 40.4309 84.2151 40.4366C84.2068 40.4423 84.2002 40.4501 84.1959 40.4592C84.1916 40.4663 84.1893 40.4745 84.1893 40.4828C84.1893 40.4911 84.1916 40.4993 84.1959 40.5064L84.1874 40.5193Z" fill="#0C9787"/>
<path opacity="0.2" d="M84.9629 29.9609H82.8524L79.1016 50.0119H81.2121L84.9629 29.9609Z" fill="white"/>
<path opacity="0.3" d="M87.3784 29.9609H86.8503L83.1016 50.0119H83.6297L87.3784 29.9609Z" fill="white"/>
<path opacity="0.3" d="M84.7676 30.2275C84.7655 30.2592 84.7515 30.2889 84.7284 30.3108C84.7053 30.3327 84.6749 30.3451 84.6431 30.3455C84.6279 30.3456 84.6128 30.3425 84.5988 30.3365C84.5848 30.3305 84.5722 30.3217 84.5618 30.3106C84.5513 30.2995 84.5432 30.2865 84.538 30.2722C84.5328 30.2579 84.5306 30.2427 84.5314 30.2275C84.5331 30.1959 84.5466 30.1662 84.5693 30.1443C84.592 30.1224 84.6222 30.1099 84.6538 30.1094C84.6691 30.1094 84.6843 30.1124 84.6984 30.1184C84.7125 30.1244 84.7252 30.1332 84.7358 30.1442C84.7465 30.1552 84.7548 30.1683 84.7602 30.1826C84.7657 30.1969 84.7682 30.2122 84.7676 30.2275Z" fill="black"/>
<path d="M73.6511 62.9823H38.1244C38.0128 62.9833 37.9022 62.9616 37.7993 62.9183C37.6965 62.8751 37.6035 62.8114 37.5261 62.731C37.4487 62.6506 37.3886 62.5552 37.3493 62.4508C37.3101 62.3464 37.2925 62.235 37.2978 62.1235L38.3198 38.9057C38.3344 38.6749 38.4356 38.4582 38.6032 38.299C38.7709 38.1397 38.9925 38.0497 39.2237 38.0469H74.7525C74.8639 38.0465 74.9742 38.0687 75.0768 38.1121C75.1794 38.1556 75.2721 38.2193 75.3494 38.2996C75.4266 38.3799 75.4868 38.4749 75.5263 38.5791C75.5658 38.6833 75.5838 38.7944 75.5791 38.9057L74.555 62.1235C74.5409 62.3545 74.4398 62.5715 74.272 62.7308C74.1043 62.8902 73.8824 62.9801 73.6511 62.9823Z" fill="#263238"/>
<path d="M73.2548 62.9824H37.726C37.6144 62.9834 37.5038 62.9616 37.4009 62.9184C37.298 62.8751 37.2051 62.8114 37.1277 62.731C37.0503 62.6506 36.9901 62.5553 36.9509 62.4508C36.9116 62.3464 36.8941 62.235 36.8994 62.1235L37.9235 38.9057C37.9381 38.6753 38.039 38.4589 38.2062 38.2997C38.3733 38.1405 38.5944 38.0502 38.8252 38.0469H74.3541C74.4656 38.0462 74.576 38.0682 74.6788 38.1115C74.7815 38.1548 74.8743 38.2186 74.9516 38.2989C75.029 38.3793 75.0891 38.4745 75.1285 38.5788C75.1679 38.6831 75.1856 38.7943 75.1807 38.9057L74.1566 62.1235C74.1425 62.3541 74.0417 62.5708 73.8744 62.7301C73.7071 62.8894 73.4858 62.9795 73.2548 62.9824Z" fill="#0C9787"/>
<path d="M73.642 63.3594H38.1132C37.9265 63.359 37.7441 63.4158 37.5905 63.5221C37.437 63.6284 37.3197 63.7792 37.2544 63.9541C37.2432 63.9846 37.2396 64.0173 37.244 64.0495C37.2483 64.0816 37.2604 64.1122 37.2792 64.1387C37.298 64.1651 37.323 64.1865 37.352 64.2012C37.3809 64.2158 37.413 64.2231 37.4455 64.2225H74.2217C74.2551 64.2236 74.2882 64.2168 74.3185 64.2029C74.3488 64.1889 74.3754 64.1681 74.3962 64.142C74.4171 64.116 74.4316 64.0854 74.4385 64.0528C74.4455 64.0202 74.4448 63.9864 74.4364 63.9541C74.3872 63.7818 74.2829 63.6304 74.1394 63.523C73.9959 63.4156 73.8213 63.3581 73.642 63.3594Z" fill="#263238"/>
<path d="M67.3934 63.3595H31.871C31.6843 63.3591 31.5019 63.4158 31.3483 63.5222C31.1948 63.6285 31.0775 63.7792 31.0122 63.9542C31.0011 63.9845 30.9975 64.017 31.0017 64.049C31.0059 64.081 31.0178 64.1115 31.0364 64.1378C31.055 64.1642 31.0797 64.1857 31.1083 64.2005C31.137 64.2152 31.1689 64.2228 31.2011 64.2226H67.9795C68.0129 64.2236 68.046 64.2169 68.0763 64.2029C68.1066 64.189 68.1332 64.1682 68.154 64.1421C68.1749 64.1161 68.1894 64.0855 68.1963 64.0529C68.2033 64.0203 68.2026 63.9865 68.1943 63.9542C68.1447 63.7808 68.0394 63.6286 67.8946 63.5211C67.7499 63.4136 67.5737 63.3568 67.3934 63.3595Z" fill="#0C9787"/>
<path opacity="0.8" d="M52.8199 63.8359H46.3939C46.303 63.8513 46.2199 63.897 46.1583 63.9657C46.0967 64.0343 46.0602 64.1218 46.0547 64.2138H53.127C53.1313 64.1241 53.1023 64.0359 53.0457 63.9662C52.989 63.8965 52.9086 63.8501 52.8199 63.8359Z" fill="white"/>
<path opacity="0.9" d="M38.6315 61.6158C38.5873 61.6161 38.5434 61.6074 38.5027 61.5902C38.4619 61.573 38.4251 61.5476 38.3945 61.5156C38.364 61.4836 38.3403 61.4457 38.3249 61.4043C38.3095 61.3628 38.3028 61.3186 38.3051 61.2744L39.2541 39.7398C39.2595 39.6485 39.2993 39.5625 39.3654 39.4992C39.4314 39.4359 39.519 39.3999 39.6105 39.3984H73.4454C73.4895 39.3984 73.5332 39.4073 73.5738 39.4246C73.6144 39.442 73.6511 39.4674 73.6816 39.4993C73.7121 39.5312 73.7358 39.569 73.7513 39.6103C73.7668 39.6517 73.7738 39.6957 73.7717 39.7398L72.8227 61.2744C72.8173 61.3658 72.7776 61.4517 72.7115 61.515C72.6454 61.5783 72.5578 61.6143 72.4663 61.6158H38.6315Z" fill="white"/>
<path d="M54.2054 54.5642H51.9017C51.854 54.5648 51.8066 54.5557 51.7626 54.5372C51.7186 54.5188 51.6789 54.4916 51.6458 54.4571C51.6128 54.4227 51.5872 54.3818 51.5707 54.3371C51.5541 54.2923 51.5469 54.2447 51.5496 54.197L51.7278 50.1799C51.7286 50.1614 51.7256 50.1428 51.719 50.1255C51.7123 50.1081 51.7022 50.0923 51.6891 50.079C51.6763 50.0659 51.6609 50.0555 51.6439 50.0485C51.627 50.0415 51.6087 50.038 51.5904 50.0382H50.3752C50.3055 50.0395 50.237 50.0197 50.1787 49.9814C50.1205 49.9431 50.0752 49.8881 50.0488 49.8235C50.022 49.7553 50.0163 49.6805 50.0324 49.609C50.0484 49.5374 50.0856 49.4723 50.139 49.422L53.1448 46.5429C53.2131 46.4754 53.3053 46.4375 53.4014 46.4375C53.4974 46.4375 53.5896 46.4754 53.6579 46.5429L56.4083 49.422C56.4567 49.4724 56.4889 49.5362 56.5008 49.6051C56.5126 49.674 56.5036 49.7448 56.4748 49.8085C56.4468 49.8765 56.3991 49.9347 56.338 49.9756C56.2768 50.0165 56.2049 50.0383 56.1313 50.0382H54.9161C54.8752 50.0387 54.836 50.0547 54.8065 50.0831C54.777 50.1114 54.7594 50.1498 54.7572 50.1907L54.579 54.2077C54.5736 54.3035 54.532 54.3935 54.4626 54.4597C54.3932 54.5259 54.3013 54.5632 54.2054 54.5642ZM53.4025 46.6502C53.3615 46.6508 53.3224 46.6669 53.293 46.6953L50.2871 49.5723C50.2648 49.5933 50.2493 49.6204 50.2424 49.6502C50.2355 49.68 50.2376 49.7112 50.2485 49.7398C50.2583 49.7652 50.2757 49.7869 50.2984 49.8019C50.3211 49.8169 50.348 49.8245 50.3752 49.8235H51.5904C51.638 49.8232 51.6852 49.8326 51.7291 49.851C51.773 49.8695 51.8128 49.8966 51.8459 49.9309C51.8789 49.9653 51.9045 50.0061 51.9212 50.0507C51.9378 50.0954 51.945 50.1431 51.9425 50.1907L51.7643 54.2077C51.7631 54.2263 51.7658 54.2449 51.7722 54.2624C51.7786 54.2798 51.7886 54.2957 51.8015 54.3091C51.8145 54.3224 51.8301 54.3329 51.8473 54.3399C51.8646 54.3468 51.8831 54.3501 51.9017 54.3495H54.2054C54.2463 54.349 54.2855 54.3329 54.315 54.3046C54.3445 54.2763 54.3621 54.2378 54.3643 54.197L54.5425 50.1799C54.5475 50.084 54.5889 49.9937 54.6584 49.9274C54.7279 49.8611 54.8201 49.824 54.9161 49.8235H56.1313C56.1627 49.8236 56.1935 49.8142 56.2195 49.7966C56.2455 49.779 56.2657 49.754 56.2773 49.7248C56.2896 49.6997 56.2939 49.6714 56.2896 49.6438C56.2854 49.6162 56.2729 49.5905 56.2537 49.5702L53.5012 46.691C53.4885 46.6778 53.4731 46.6673 53.4561 46.6603C53.4391 46.6533 53.4208 46.6499 53.4025 46.6502Z" fill="#0C9787"/>
<path d="M58.6509 54.5661C58.6033 54.5664 58.5561 54.5571 58.5122 54.5386C58.4683 54.5202 58.4286 54.493 58.3954 54.4588L55.6451 51.5796C55.5968 51.5291 55.5646 51.4655 55.5523 51.3968C55.5401 51.328 55.5485 51.2572 55.5764 51.1932C55.6051 51.1251 55.6532 51.0671 55.7146 51.0262C55.7761 50.9854 55.8483 50.9635 55.9221 50.9634H57.1373C57.1782 50.9629 57.2173 50.9469 57.2469 50.9186C57.2764 50.8903 57.294 50.8518 57.2962 50.811L57.4744 46.7939C57.4793 46.6984 57.5205 46.6083 57.5895 46.5421C57.6585 46.4759 57.7502 46.4385 57.8458 46.4375H60.1517C60.1993 46.4372 60.2465 46.4465 60.2905 46.465C60.3344 46.4834 60.3741 46.5106 60.4072 46.5449C60.4403 46.5792 60.4659 46.62 60.4825 46.6647C60.4991 46.7094 60.5064 46.757 60.5038 46.8047L60.3256 50.8217C60.3244 50.8402 60.327 50.8586 60.3332 50.876C60.3395 50.8934 60.3494 50.9093 60.3621 50.9226C60.3891 50.9489 60.4253 50.9636 60.463 50.9634H61.6782C61.7479 50.9621 61.8164 50.9819 61.8746 51.0203C61.9329 51.0586 61.9782 51.1136 62.0046 51.1781C62.0314 51.2464 62.0371 51.3211 62.021 51.3927C62.005 51.4643 61.9678 51.5294 61.9144 51.5796L58.9086 54.4566C58.8404 54.5255 58.7479 54.5648 58.6509 54.5661ZM55.7976 51.4315L58.55 54.3106C58.5786 54.3389 58.6172 54.3548 58.6574 54.3548C58.6976 54.3548 58.7362 54.3389 58.7647 54.3106L61.7706 51.4336C61.7935 51.4131 61.8096 51.3861 61.8169 51.3562C61.8242 51.3263 61.8222 51.2949 61.8114 51.2662C61.8016 51.2408 61.7841 51.2191 61.7614 51.2041C61.7387 51.189 61.7119 51.1815 61.6847 51.1824H60.4695C60.4218 51.1827 60.3746 51.1734 60.3307 51.1549C60.2868 51.1365 60.2471 51.1093 60.214 51.0751C60.1809 51.0407 60.1553 50.9999 60.1387 50.9552C60.122 50.9105 60.1148 50.8629 60.1174 50.8153L60.2956 46.7982C60.2963 46.7608 60.2824 46.7246 60.2569 46.6973C60.2441 46.6842 60.2287 46.6737 60.2117 46.6667C60.1947 46.6597 60.1765 46.6562 60.1581 46.6565H57.8458C57.8051 46.657 57.7662 46.6731 57.737 46.7015C57.7079 46.7298 57.6907 46.7683 57.6891 46.8089L57.5152 50.8217C57.5097 50.9174 57.4681 51.0075 57.3987 51.0737C57.3294 51.1399 57.2375 51.1772 57.1416 51.1781H55.9264C55.8948 51.1785 55.8639 51.188 55.8376 51.2055C55.8113 51.2231 55.7907 51.2478 55.7782 51.2769C55.7668 51.3023 55.7632 51.3306 55.7678 51.3581C55.7724 51.3856 55.785 51.4111 55.804 51.4315H55.7976Z" fill="#0C9787"/>
<path opacity="0.2" d="M50.7932 38.0312H45.2045L40.5391 62.9796H46.1278L50.7932 38.0312Z" fill="white"/>
<path opacity="0.2" d="M52.8771 38.0312H52.2202L47.5547 62.9796H48.2117L52.8771 38.0312Z" fill="white"/>
<path opacity="0.3" d="M71.6694 38.0312H69.0952L64.4297 62.9796H67.0061L71.6694 38.0312Z" fill="white"/>
<path opacity="0.3" d="M56.8096 38.7534C56.8058 38.821 56.7763 38.8846 56.7273 38.9312C56.6782 38.9779 56.6132 39.0041 56.5455 39.0046C56.5129 39.0049 56.4806 38.9985 56.4506 38.9859C56.4205 38.9733 56.3934 38.9546 56.3708 38.931C56.3483 38.9075 56.3308 38.8796 56.3195 38.849C56.3082 38.8185 56.3033 38.7859 56.305 38.7534C56.3088 38.6855 56.3382 38.6217 56.3872 38.5747C56.4362 38.5277 56.5012 38.501 56.5691 38.5C56.6018 38.5 56.6342 38.5066 56.6642 38.5195C56.6943 38.5323 56.7214 38.5512 56.7439 38.5749C56.7664 38.5986 56.7838 38.6267 56.7951 38.6574C56.8064 38.688 56.8113 38.7207 56.8096 38.7534Z" fill="black"/>
<path d="M32.3479 54.9028H15.0773C14.9659 54.9032 14.8556 54.881 14.753 54.8376C14.6504 54.7942 14.5577 54.7304 14.4804 54.6501C14.4032 54.5699 14.343 54.4748 14.3035 54.3706C14.264 54.2664 14.2461 54.1553 14.2507 54.044L15.2748 30.8197C15.289 30.5888 15.3901 30.3718 15.5578 30.2125C15.7255 30.0531 15.9474 29.9632 16.1787 29.9609H33.4493C33.5607 29.9606 33.6711 29.9827 33.7737 30.0262C33.8762 30.0696 33.969 30.1334 34.0462 30.2137C34.1235 30.2939 34.1837 30.389 34.2231 30.4932C34.2626 30.5973 34.2806 30.7084 34.276 30.8197L33.2518 54.0376C33.2393 54.2697 33.1389 54.4883 32.971 54.649C32.8031 54.8097 32.5803 54.9005 32.3479 54.9028Z" fill="#263238"/>
<path d="M31.9418 54.9029H14.6712C14.5597 54.9035 14.4492 54.8816 14.3465 54.8382C14.2438 54.7949 14.1509 54.7311 14.0736 54.6508C13.9963 54.5705 13.9361 54.4753 13.8967 54.371C13.8574 54.2667 13.8396 54.1554 13.8446 54.044L14.8687 30.8198C14.8823 30.589 14.9829 30.372 15.1503 30.2126C15.3177 30.0532 15.5393 29.9633 15.7704 29.961H33.041C33.1525 29.9603 33.263 29.9822 33.3657 30.0256C33.4685 30.0689 33.5613 30.1327 33.6386 30.213C33.7159 30.2933 33.7761 30.3885 33.8155 30.4928C33.8548 30.5972 33.8726 30.7084 33.8676 30.8198L32.8435 54.0376C32.831 54.2693 32.7309 54.4876 32.5635 54.6483C32.396 54.8089 32.1738 54.8999 31.9418 54.9029Z" fill="#0C9787"/>
<path opacity="0.3" d="M24.1319 54.4005H22.5217C22.4955 54.4008 22.4695 54.3958 22.4453 54.3856C22.4211 54.3755 22.3993 54.3605 22.3812 54.3416C22.3631 54.3226 22.349 54.3002 22.34 54.2756C22.3309 54.251 22.327 54.2248 22.3284 54.1987V54.1471C22.3317 54.0924 22.3558 54.0411 22.3957 54.0036C22.4356 53.9661 22.4884 53.9452 22.5431 53.9453H24.1534C24.1794 53.9453 24.2052 53.9505 24.2291 53.9608C24.253 53.9711 24.2746 53.9861 24.2925 54.005C24.3103 54.0239 24.3242 54.0463 24.3331 54.0707C24.3421 54.0951 24.3459 54.1211 24.3445 54.1471V54.1987C24.3412 54.253 24.3175 54.304 24.278 54.3415C24.2385 54.3789 24.1863 54.4 24.1319 54.4005Z" fill="black"/>
<path opacity="0.9" d="M15.0468 53.44C14.9893 53.4401 14.9324 53.4285 14.8794 53.4062C14.8265 53.3838 14.7785 53.351 14.7385 53.3097C14.6985 53.2685 14.6671 53.2196 14.6463 53.166C14.6255 53.1124 14.6157 53.0552 14.6174 52.9978L15.5814 31.1325C15.591 31.0163 15.6437 30.9079 15.7291 30.8284C15.8144 30.749 15.9264 30.7043 16.043 30.7031H32.7167C32.7742 30.7031 32.8311 30.7146 32.8841 30.737C32.9371 30.7594 32.985 30.7922 33.025 30.8334C33.0651 30.8747 33.0964 30.9235 33.1172 30.9771C33.138 31.0307 33.1479 31.0879 33.1461 31.1454L32.1821 53.0063C32.1756 53.1249 32.1243 53.2365 32.0386 53.3186C31.9529 53.4007 31.8392 53.4472 31.7205 53.4486L15.0468 53.44Z" fill="white"/>
<path d="M22.2682 45.6268H20.2521C20.209 45.6268 20.1663 45.6181 20.1267 45.6012C20.087 45.5844 20.0511 45.5596 20.0213 45.5285C19.9914 45.4975 19.9681 45.4607 19.9528 45.4204C19.9375 45.38 19.9305 45.3371 19.9322 45.294L20.0868 41.7814C20.0878 41.767 20.0858 41.7525 20.081 41.7389C20.0762 41.7252 20.0687 41.7127 20.0589 41.702C20.0382 41.6818 20.0105 41.6703 19.9816 41.6698H18.9081C18.8439 41.6711 18.7808 41.6526 18.7275 41.6169C18.6741 41.5812 18.633 41.53 18.6097 41.4701C18.5848 41.4082 18.5793 41.3401 18.5939 41.275C18.6085 41.2098 18.6424 41.1506 18.6913 41.1051L21.3192 38.5888C21.3841 38.5257 21.4713 38.491 21.5618 38.4922C21.6431 38.4976 21.7196 38.5327 21.7765 38.591L24.1812 41.1073C24.2251 41.1537 24.2545 41.2121 24.2655 41.2751C24.2766 41.338 24.2689 41.4029 24.2434 41.4615C24.2181 41.5242 24.1749 41.578 24.1191 41.6162C24.0633 41.6544 23.9976 41.6753 23.93 41.6762H22.8565C22.8243 41.6772 22.7935 41.69 22.7702 41.7122C22.7468 41.7343 22.7324 41.7644 22.7298 41.7965L22.6074 45.294C22.6041 45.3823 22.5672 45.466 22.5041 45.5279C22.441 45.5898 22.3566 45.6252 22.2682 45.6268ZM21.564 38.7048C21.5317 38.7053 21.5009 38.7184 21.4781 38.7413L18.8501 41.2576C18.8327 41.2739 18.8205 41.2951 18.8151 41.3185C18.8098 41.3418 18.8115 41.3662 18.8201 41.3885C18.8274 41.4085 18.841 41.4255 18.8588 41.4371C18.8766 41.4487 18.8976 41.4543 18.9188 41.453H19.9924C20.0357 41.4526 20.0787 41.4612 20.1186 41.4782C20.1585 41.4952 20.1944 41.5202 20.2242 41.5517C20.254 41.5831 20.2772 41.6203 20.2923 41.6608C20.3074 41.7014 20.3142 41.7446 20.3123 41.7879L20.1469 45.294C20.146 45.3084 20.148 45.3229 20.1528 45.3365C20.1576 45.3502 20.1651 45.3627 20.1748 45.3734C20.1953 45.394 20.2231 45.4055 20.2521 45.4056H22.2682C22.3002 45.4046 22.3306 45.3918 22.3537 45.3695C22.3767 45.3473 22.3906 45.3173 22.3927 45.2854L22.5473 41.7729C22.5522 41.6853 22.5902 41.6029 22.6536 41.5423C22.717 41.4817 22.801 41.4475 22.8887 41.4465H23.9622C23.9869 41.4461 24.011 41.4386 24.0315 41.4249C24.0521 41.4112 24.0682 41.3919 24.0781 41.3692C24.0872 41.3495 24.0902 41.3276 24.0867 41.3062C24.0833 41.2848 24.0736 41.2649 24.0588 41.249L21.652 38.7305C21.6326 38.711 21.6065 38.6995 21.579 38.6983L21.564 38.7048Z" fill="#0C9787"/>
<path d="M26.1774 45.6197C26.0961 45.6143 26.0196 45.5792 25.9627 45.5209L23.558 43.0046C23.5141 42.9582 23.4847 42.8998 23.4737 42.8368C23.4626 42.7739 23.4703 42.709 23.4958 42.6504C23.5211 42.5877 23.5643 42.5339 23.6201 42.4957C23.6759 42.4575 23.7416 42.4366 23.8092 42.4357H24.8827C24.9151 42.4352 24.9461 42.4226 24.9696 42.4003C24.993 42.378 25.0073 42.3477 25.0094 42.3154L25.164 38.8029C25.1689 38.7157 25.2065 38.6336 25.2695 38.5731C25.3324 38.5125 25.4159 38.4781 25.5032 38.4766H27.4999C27.5433 38.4765 27.5862 38.4852 27.626 38.5021C27.6659 38.5191 27.7019 38.544 27.7318 38.5753C27.7622 38.6068 27.7857 38.6442 27.8009 38.6852C27.816 38.7263 27.8225 38.77 27.8199 38.8136L27.6653 42.324C27.6643 42.3385 27.6663 42.3529 27.6711 42.3666C27.6759 42.3802 27.6834 42.3928 27.6932 42.4035C27.7137 42.424 27.7415 42.4356 27.7705 42.4357H28.844C28.9079 42.4345 28.9706 42.453 29.0236 42.4888C29.0766 42.5245 29.1174 42.5757 29.1403 42.6353C29.1651 42.6973 29.1706 42.7653 29.156 42.8305C29.1415 42.8956 29.1075 42.9548 29.0587 43.0003L26.4114 45.5231C26.3489 45.5845 26.265 45.6191 26.1774 45.6197ZM23.7899 42.6568C23.7652 42.6572 23.7411 42.6647 23.7206 42.6784C23.7 42.6921 23.6838 42.7115 23.674 42.7341C23.665 42.7542 23.6621 42.7764 23.6655 42.7982C23.6689 42.8199 23.6786 42.8401 23.6933 42.8565L26.1001 45.3728C26.1197 45.392 26.1457 45.4034 26.1731 45.405C26.2063 45.403 26.238 45.3902 26.2633 45.3685L28.8912 42.8522C28.9087 42.8358 28.9209 42.8146 28.9262 42.7913C28.9316 42.768 28.9299 42.7436 28.9213 42.7212C28.914 42.7017 28.9008 42.6849 28.8834 42.6733C28.8661 42.6617 28.8455 42.656 28.8247 42.6568H27.7511C27.7078 42.657 27.6649 42.6484 27.625 42.6314C27.5851 42.6144 27.5491 42.5894 27.5193 42.558C27.4895 42.5266 27.4663 42.4895 27.4512 42.4489C27.4361 42.4083 27.4293 42.3651 27.4312 42.3219L27.5858 38.8094C27.5868 38.7949 27.5848 38.7804 27.58 38.7668C27.5752 38.7531 27.5677 38.7406 27.5579 38.7299C27.5374 38.7094 27.5096 38.6978 27.4806 38.6977H25.4646C25.4322 38.6987 25.4015 38.7119 25.3784 38.7346C25.3553 38.7573 25.3416 38.7878 25.34 38.8201L25.1855 42.3305C25.1806 42.418 25.1426 42.5004 25.0792 42.561C25.0158 42.6216 24.9318 42.6559 24.8441 42.6568H23.7899Z" fill="#0C9787"/>
<path opacity="0.2" d="M27.7463 29.9609H22.1555L17.4922 54.9071H23.0809L27.7463 29.9609Z" fill="white"/>
<path opacity="0.3" d="M29.8225 29.9609H29.1633L24.5 54.9071H25.157L29.8225 29.9609Z" fill="white"/>
<path opacity="0.3" d="M24.5423 30.2788C24.5406 30.3183 24.5239 30.3557 24.4955 30.3833C24.4672 30.4108 24.4294 30.4265 24.3898 30.427C24.3707 30.427 24.3519 30.4231 24.3344 30.4156C24.3168 30.408 24.3011 30.397 24.288 30.3831C24.2749 30.3692 24.2648 30.3528 24.2583 30.3349C24.2518 30.3169 24.2491 30.2979 24.2503 30.2788C24.2529 30.2399 24.27 30.2033 24.2982 30.1763C24.3264 30.1493 24.3637 30.1338 24.4027 30.1328C24.4217 30.1325 24.4405 30.1361 24.458 30.1434C24.4755 30.1507 24.4913 30.1616 24.5044 30.1753C24.5176 30.189 24.5277 30.2053 24.5342 30.2231C24.5407 30.2409 24.5434 30.2599 24.5423 30.2788Z" fill="black"/>
</svg>
