<svg width="258" height="256" viewBox="0 0 258 256" fill="none" xmlns="http://www.w3.org/2000/svg">
<path d="M129 238C200.209 238 257.934 206.432 257.934 167.491C257.934 128.55 200.209 96.9824 129 96.9824C57.7921 96.9824 0.0664062 128.55 0.0664062 167.491C0.0664062 206.432 57.7921 238 129 238Z" fill="#F5F5F5"/>
<path d="M43.4766 202.252C58.5696 202.252 70.8048 195.189 70.8048 186.476C70.8048 177.763 58.5696 170.699 43.4766 170.699C28.3837 170.699 16.1484 177.763 16.1484 186.476C16.1484 195.189 28.3837 202.252 43.4766 202.252Z" fill="#E0E0E0"/>
<path d="M9.96484 50.7576C12.3021 49.5247 15.4749 49.7643 18.9691 51.786C20.6412 52.7737 22.1739 53.9803 23.5267 55.3737C28.4641 60.352 31.97 67.8721 31.97 74.3112C31.97 82.6142 37.8131 92.6994 44.9826 96.8538L57.9951 104.362L113.452 72.3537L100.457 64.8395C93.2758 60.6967 87.4444 50.5998 87.4444 42.3026C87.4444 34.0054 81.6013 23.9203 74.4318 19.7717C70.9259 17.7324 67.6888 17.5162 65.3458 18.8017L65.0302 18.977L46.7355 29.5472L43.8139 31.2124L9.96484 50.7576Z" fill="#E6E6E6"/>
<path d="M174.358 95.3986C174.294 95.3561 174.219 95.3335 174.142 95.3335C174.065 95.3335 173.99 95.3561 173.926 95.3986L172.33 96.3277C172.16 96.4431 172.018 96.5966 171.917 96.776C171.815 96.9555 171.757 97.156 171.746 97.3619V116.101L238.942 154.227L241.589 134.191L174.358 95.3986Z" fill="#263238"/>
<path d="M241.558 134.168C241.491 134.144 241.419 134.137 241.349 134.147C241.279 134.157 241.212 134.184 241.155 134.226L239.525 135.132C239.347 135.237 239.201 135.388 239.104 135.57L171.891 96.7659C171.993 96.5878 172.138 96.4373 172.311 96.3277L173.918 95.4045C173.982 95.362 174.057 95.3394 174.134 95.3394C174.211 95.3394 174.286 95.362 174.351 95.4045L241.558 134.168Z" fill="#455A64"/>
<path d="M241.156 134.221L239.526 135.132C239.354 135.247 239.212 135.401 239.111 135.58C239.009 135.76 238.951 135.961 238.941 136.167V154.21L241.746 155.811V134.548C241.752 134.186 241.483 134.034 241.156 134.221Z" fill="#37474F"/>
<path d="M238.944 154.227V155.46L234.742 157.33L167.512 118.508L171.713 116.101L238.944 154.227Z" fill="black"/>
<path d="M236.145 159.761L241.152 156.839C241.324 156.725 241.466 156.572 241.568 156.392C241.669 156.212 241.727 156.011 241.736 155.805L238.932 154.204C238.923 154.41 238.865 154.612 238.764 154.791C238.662 154.971 238.519 155.124 238.347 155.238L236.741 156.167C236.413 156.354 236.156 156.202 236.156 155.823L236.145 159.761Z" fill="#37474F"/>
<path d="M251.61 157.809C251.921 157.595 252.179 157.312 252.361 156.981C252.544 156.65 252.647 156.282 252.661 155.904V95.2702C252.641 94.8804 252.529 94.501 252.334 94.1628C252.139 93.8247 251.867 93.5374 251.539 93.3244L173.756 48.4143C173.431 48.21 173.057 48.0981 172.673 48.0907C172.29 48.0834 171.911 48.1808 171.579 48.3725C171.246 48.5643 170.973 48.8431 170.787 49.1789C170.601 49.5147 170.511 49.8948 170.525 50.2783V110.912C170.547 111.302 170.66 111.682 170.856 112.02C171.052 112.358 171.325 112.645 171.653 112.858L249.453 157.768C249.785 157.941 250.153 158.035 250.527 158.042C250.901 158.049 251.272 157.969 251.61 157.809Z" fill="#0C9787"/>
<path d="M250.556 96.4854V157.119C250.556 157.832 250.054 158.124 249.435 157.768L171.651 112.858C171.323 112.645 171.05 112.358 170.854 112.02C170.658 111.682 170.545 111.302 170.523 110.912V50.2781C170.523 49.5653 171.032 49.2731 171.651 49.6296L249.452 94.5396C249.776 94.7546 250.045 95.0427 250.236 95.3807C250.428 95.7188 250.538 96.0972 250.556 96.4854Z" fill="#0C9787"/>
<path opacity="0.2" d="M252.662 95.2708V155.905C252.647 156.282 252.544 156.651 252.361 156.982C252.179 157.312 251.921 157.596 251.61 157.81C251.31 157.955 250.983 158.036 250.65 158.047C250.316 158.058 249.985 157.999 249.676 157.874C250.178 158.037 250.558 157.745 250.558 157.12V96.4804C250.543 96.0907 250.43 95.7111 250.231 95.376L252.329 94.1606C252.533 94.4959 252.648 94.8783 252.662 95.2708Z" fill="black"/>
<path d="M244.238 112.291V121.856C244.238 122.575 243.736 122.861 243.116 122.505L230.618 115.265C230.292 115.053 230.02 114.766 229.825 114.429C229.63 114.092 229.518 113.714 229.496 113.325V103.778C229.496 103.065 229.999 102.773 230.618 103.129L243.116 110.345C243.443 110.558 243.716 110.846 243.91 111.184C244.105 111.522 244.218 111.901 244.238 112.291Z" fill="#455A64"/>
<mask id="mask0_951_112420" style="mask-type:luminance" maskUnits="userSpaceOnUse" x="229" y="102" width="16" height="21">
<path d="M244.223 112.292V121.857C244.223 122.575 243.72 122.862 243.101 122.505L230.602 115.266C230.276 115.053 230.004 114.767 229.81 114.43C229.615 114.093 229.502 113.715 229.48 113.326V103.778C229.48 103.065 229.983 102.773 230.602 103.13L243.101 110.346C243.428 110.559 243.7 110.846 243.895 111.184C244.09 111.522 244.202 111.902 244.223 112.292Z" fill="white"/>
</mask>
<g mask="url(#mask0_951_112420)">
<path d="M227.504 104.684L227.25 105.124L246.202 116.075L246.456 115.635L227.504 104.684Z" fill="white"/>
<path d="M240.27 112.208H239.762V117.082H240.27V112.208Z" fill="white"/>
<path d="M233.954 108.581H233.445V113.448H233.954V108.581Z" fill="white"/>
<path d="M227.504 109.571L227.25 110.011L246.202 120.961L246.456 120.521L227.504 109.571Z" fill="white"/>
</g>
<path d="M244.238 130.534V132.795C244.238 133.514 243.736 133.8 243.116 133.444L230.618 126.227C230.292 126.015 230.02 125.729 229.825 125.392C229.63 125.055 229.518 124.676 229.496 124.288V122.015C229.496 121.296 229.999 121.01 230.618 121.366L243.116 128.582C243.444 128.796 243.717 129.084 243.912 129.423C244.107 129.762 244.219 130.143 244.238 130.534Z" fill="#FAFAFA"/>
<path d="M226.664 120.396V122.669C226.664 123.382 226.162 123.674 225.542 123.318L213.044 116.102C212.717 115.889 212.445 115.601 212.25 115.263C212.055 114.925 211.942 114.546 211.922 114.156V111.889C211.922 111.17 212.424 110.878 213.044 111.24L225.542 118.456C225.868 118.669 226.14 118.955 226.335 119.292C226.53 119.629 226.643 120.007 226.664 120.396Z" fill="#FAFAFA"/>
<path d="M209.133 110.263V112.536C209.133 113.249 208.63 113.541 208.011 113.185L195.513 105.969C195.185 105.756 194.913 105.468 194.718 105.13C194.523 104.792 194.411 104.413 194.391 104.023V101.75C194.391 101.037 194.893 100.745 195.513 101.101L208.011 108.317C208.337 108.531 208.609 108.819 208.804 109.157C208.999 109.495 209.111 109.874 209.133 110.263Z" fill="#FAFAFA"/>
<path d="M191.605 100.131V102.41C191.605 103.129 191.103 103.421 190.484 103.059L177.985 95.8484C177.659 95.6344 177.388 95.3468 177.193 95.0089C176.998 94.671 176.885 94.2921 176.863 93.9027V91.6297C176.863 90.9168 177.366 90.6247 177.985 90.9811L190.484 98.1973C190.809 98.4092 191.08 98.6947 191.275 99.0306C191.47 99.3666 191.583 99.7437 191.605 100.131Z" fill="#FAFAFA"/>
<path opacity="0.15" d="M183.836 102.872L186.705 104.526C186.9 104.655 187.063 104.828 187.179 105.031C187.296 105.233 187.364 105.461 187.377 105.695V106.571C187.377 106.998 187.073 107.155 186.705 106.957L183.836 105.332C183.64 105.204 183.478 105.031 183.361 104.828C183.244 104.625 183.177 104.397 183.164 104.164V103.287C183.164 102.831 183.468 102.656 183.836 102.872Z" fill="black"/>
<path opacity="0.15" d="M177.524 99.2259L180.387 100.879C180.584 101.007 180.748 101.179 180.866 101.383C180.983 101.586 181.052 101.814 181.064 102.048V102.925C181.064 103.357 180.761 103.509 180.387 103.316L177.524 101.662C177.327 101.535 177.164 101.362 177.047 101.159C176.93 100.956 176.863 100.728 176.852 100.494V99.6174C176.852 99.185 177.15 99.0097 177.524 99.2259Z" fill="black"/>
<path opacity="0.15" d="M213.691 126.186L178.048 105.594C177.428 105.238 176.926 105.524 176.926 106.243V107.295C176.946 107.685 177.059 108.064 177.254 108.402C177.449 108.74 177.721 109.028 178.048 109.241L213.691 129.832C214.31 130.188 214.812 129.902 214.812 129.183V128.12C214.79 127.732 214.677 127.355 214.482 127.019C214.287 126.683 214.016 126.397 213.691 126.186Z" fill="black"/>
<path d="M177.823 66.7964C177.318 65.8268 177.065 64.7458 177.087 63.6528C177.087 62.4842 177.327 61.7012 177.806 61.3506C178.285 61.0001 178.975 61.0936 179.874 61.6077C180.24 61.8186 180.583 62.0673 180.897 62.3498C181.192 62.6082 181.453 62.9027 181.674 63.2263C181.72 63.287 181.747 63.3604 181.75 63.4366C181.752 63.4893 181.736 63.5411 181.703 63.5827L181.435 64.056C181.399 64.1086 181.364 64.1261 181.329 64.1028C181.276 64.0676 181.23 64.0219 181.195 63.9684C180.881 63.5436 180.483 63.1876 180.026 62.9224C179.495 62.6186 179.08 62.5835 178.788 62.8231C178.495 63.0627 178.349 63.5827 178.349 64.3891C178.33 65.111 178.487 65.8268 178.805 66.475C179.086 67.0312 179.523 67.4939 180.061 67.8073C180.418 68.0556 180.849 68.1732 181.283 68.1403C181.326 68.1272 181.373 68.1272 181.417 68.1403C181.452 68.1403 181.487 68.1988 181.522 68.3156L181.826 69.1804C181.842 69.2257 181.852 69.2728 181.855 69.3206C181.855 69.3615 181.826 69.3966 181.762 69.42C181.359 69.5719 180.739 69.42 179.898 68.9233C179.021 68.4223 178.302 67.6854 177.823 66.7964Z" fill="white"/>
<path d="M182.559 70.2093C182.499 70.092 182.471 69.9611 182.477 69.8295V63.7177C182.477 63.5716 182.477 63.4722 182.559 63.4255C182.641 63.3788 182.699 63.3963 182.822 63.4664L184.78 64.5941C185.394 64.9237 185.904 65.4195 186.25 66.025C186.596 66.6306 186.765 67.3213 186.737 68.0182C186.76 68.4 186.681 68.7811 186.509 69.1225C186.439 69.2423 186.338 69.341 186.217 69.4079C186.096 69.4747 185.958 69.5074 185.82 69.5023L186.632 72.3421C186.639 72.3944 186.639 72.4475 186.632 72.4998C186.632 72.6225 186.579 72.6518 186.468 72.5875L185.609 72.0967C185.55 72.0628 185.497 72.0194 185.452 71.9681C185.403 71.9046 185.371 71.8304 185.358 71.7519L184.669 69.105L183.751 68.5733V70.595C183.764 70.6967 183.737 70.7995 183.675 70.8813C183.623 70.928 183.529 70.8813 183.401 70.8346L182.816 70.5015C182.702 70.4336 182.612 70.3314 182.559 70.2093ZM184.593 67.8078C184.885 67.9773 185.107 68.0182 185.253 67.9422C185.399 67.8663 185.475 67.6384 185.475 67.282C185.485 66.9713 185.414 66.6634 185.27 66.388C185.134 66.1428 184.931 65.9404 184.686 65.8036L183.769 65.2719V67.3287L184.593 67.8078Z" fill="white"/>
<path d="M187.454 73.038C187.394 72.9206 187.366 72.7897 187.372 72.6582V66.5463C187.372 66.3943 187.372 66.3009 187.454 66.2541C187.536 66.2074 187.594 66.2249 187.717 66.295L190.925 68.1473C191.033 68.2019 191.122 68.2873 191.182 68.3927C191.233 68.5103 191.257 68.6383 191.252 68.7667V69.1465C191.265 69.2529 191.24 69.3606 191.182 69.4503C191.135 69.4912 191.047 69.4503 190.925 69.4035L188.646 68.0888V69.6899L190.235 70.6131C190.343 70.6647 190.433 70.7483 190.492 70.8526C190.544 70.9723 190.568 71.1022 190.562 71.2324V71.5889C190.576 71.6953 190.551 71.803 190.492 71.8927C190.445 71.9336 190.364 71.8927 190.235 71.846L188.646 70.9286V72.6114L190.919 73.9261C191.026 73.9802 191.113 74.0659 191.17 74.1715C191.221 74.2914 191.245 74.4211 191.24 74.5513V74.9253C191.24 75.083 191.24 75.1824 191.17 75.2174C191.1 75.2525 191.041 75.2174 190.919 75.1707L187.717 73.3243C187.601 73.2589 187.509 73.1587 187.454 73.038Z" fill="white"/>
<path d="M191.895 75.5965C191.835 75.4792 191.807 75.3483 191.813 75.2168V69.1049C191.813 68.9588 191.813 68.8595 191.895 68.8127C191.977 68.766 192.035 68.7835 192.158 68.8536L193.782 69.7943C194.625 70.2638 195.321 70.9576 195.792 71.7985C196.275 72.7409 196.51 73.7904 196.476 74.8486C196.476 76.0173 196.248 76.7944 195.781 77.0982C195.313 77.4021 194.653 77.2969 193.782 76.7944L192.158 75.8595C192.046 75.8002 191.954 75.7086 191.895 75.5965ZM193.841 75.5965C194.302 75.8595 194.641 75.8887 194.869 75.6784C195.097 75.468 195.208 74.9538 195.208 74.1299C195.239 73.4681 195.124 72.8076 194.869 72.1959C194.648 71.7324 194.289 71.3487 193.841 71.0974L193.087 70.6591V75.1583L193.841 75.5965Z" fill="white"/>
<path d="M197.196 78.6586C197.136 78.5391 197.108 78.4063 197.114 78.2729V72.1669C197.114 72.015 197.114 71.9215 197.196 71.8747C197.278 71.828 197.336 71.8455 197.459 71.9156L198.043 72.2487C198.157 72.3094 198.252 72.4004 198.318 72.5116C198.37 72.6353 198.396 72.7687 198.394 72.9031V79.0384C198.407 79.1419 198.379 79.2464 198.318 79.3305C198.265 79.3714 198.172 79.3597 198.043 79.2838L197.459 78.9507C197.344 78.882 197.252 78.7802 197.196 78.6586Z" fill="white"/>
<path d="M200.536 80.5862C200.479 80.4681 200.45 80.3377 200.454 80.2064V74.9008L199.204 74.1705C199.097 74.1164 199.009 74.0307 198.953 73.9251C198.901 73.8075 198.877 73.6795 198.883 73.5511V73.1947C198.869 73.0883 198.894 72.9805 198.953 72.8908C198.999 72.8499 199.081 72.8908 199.204 72.9376L203.019 75.1404C203.128 75.1989 203.219 75.2857 203.282 75.3917C203.333 75.5136 203.357 75.6452 203.353 75.7773V76.1162C203.353 76.2681 203.353 76.3616 203.282 76.4025C203.212 76.4434 203.142 76.4025 203.019 76.3558L201.751 75.6254V80.9309C201.751 81.0829 201.751 81.1763 201.676 81.2172C201.6 81.2581 201.529 81.2172 201.401 81.1647L200.817 80.8374C200.701 80.7819 200.604 80.6947 200.536 80.5862Z" fill="white"/>
<path d="M207.179 83.7419C206.675 82.7741 206.421 81.6952 206.443 80.6041C206.443 79.4355 206.682 78.6467 207.161 78.302C207.64 77.9572 208.33 78.039 209.23 78.559C209.596 78.7679 209.938 79.0147 210.252 79.2953C210.544 79.5566 210.805 79.8507 211.029 80.1717C211.075 80.2328 211.101 80.306 211.105 80.3821C211.109 80.4349 211.092 80.4871 211.059 80.5282L210.79 81.0015C210.755 81.0599 210.72 81.0774 210.679 81.0541C210.629 81.014 210.586 80.9667 210.55 80.9138C210.235 80.4914 209.838 80.1375 209.382 79.8737C208.856 79.5641 208.441 79.5348 208.149 79.7744C207.857 80.014 207.705 80.534 207.705 81.3345C207.687 82.0589 207.845 82.7767 208.166 83.4264C208.451 83.9802 208.886 84.4421 209.423 84.7586C209.781 85.0022 210.211 85.1194 210.644 85.0916C210.685 85.0754 210.731 85.0754 210.772 85.0916C210.825 85.1384 210.864 85.1992 210.883 85.2669L211.181 86.1317C211.201 86.176 211.213 86.2235 211.216 86.2719C211.216 86.3129 211.181 86.3479 211.123 86.3771C210.72 86.529 210.1 86.3771 209.259 85.8746C208.378 85.3744 207.657 84.635 207.179 83.7419Z" fill="white"/>
<path d="M211.473 86.8446C211.467 86.7961 211.467 86.7471 211.473 86.6985L213.477 81.4982C213.512 81.3989 213.553 81.3404 213.594 81.3229C213.627 81.3156 213.661 81.3155 213.694 81.3226C213.728 81.3296 213.759 81.3437 213.786 81.3638L214.371 81.691C214.447 81.7321 214.512 81.7925 214.558 81.8663C214.609 81.9643 214.649 82.0683 214.675 82.176L216.673 89.6844C216.681 89.7445 216.681 89.8054 216.673 89.8655C216.673 89.9824 216.626 90.0116 216.533 89.959L215.598 89.4156C215.537 89.3817 215.483 89.336 215.44 89.2812C215.398 89.213 215.368 89.1378 215.352 89.0592L214.996 87.6393L213.12 86.5525L212.77 87.5692C212.77 87.6393 212.717 87.6743 212.682 87.686C212.654 87.6901 212.626 87.6885 212.599 87.6815C212.572 87.6745 212.547 87.6621 212.524 87.6451L211.589 87.1017C211.548 87.0739 211.515 87.0352 211.495 86.9898C211.474 86.9444 211.466 86.8941 211.473 86.8446ZM214.727 86.2603L214.102 83.7127L213.453 85.565L214.727 86.2603Z" fill="white"/>
<path d="M217.442 90.3447C217.382 90.2275 217.354 90.0964 217.36 89.9648V83.8588C217.36 83.7069 217.36 83.6076 217.442 83.5667C217.524 83.5258 217.582 83.5316 217.705 83.6076L219.663 84.7353C220.279 85.0614 220.791 85.5556 221.138 86.1605C221.486 86.7655 221.655 87.4565 221.626 88.1535C221.647 88.5358 221.567 88.917 221.392 89.2578C221.322 89.3776 221.221 89.4763 221.1 89.5432C220.978 89.61 220.841 89.6427 220.703 89.6376L221.515 92.4774C221.522 92.5297 221.522 92.5828 221.515 92.6351C221.515 92.7579 221.462 92.7871 221.351 92.7286L220.492 92.232C220.432 92.1999 220.378 92.1562 220.334 92.1034C220.29 92.0402 220.258 91.9687 220.241 91.8931L219.528 89.2169L218.611 88.6852V90.7245C218.623 90.8279 218.596 90.9322 218.535 91.0166C218.482 91.0575 218.389 91.0166 218.26 90.964L217.676 90.631C217.571 90.561 217.49 90.4613 217.442 90.3447ZM219.476 87.9431C219.768 88.1126 219.99 88.1593 220.136 88.0775C220.282 87.9957 220.358 87.7795 220.358 87.4231C220.369 87.1105 220.298 86.8005 220.153 86.5233C220.017 86.2781 219.814 86.0757 219.569 85.9389L218.652 85.4072V87.4698L219.476 87.9431Z" fill="white"/>
<path d="M222.339 93.1726C222.281 93.0545 222.253 92.9241 222.257 92.7928V86.6868C222.25 86.6341 222.254 86.5808 222.268 86.5296C222.282 86.4785 222.306 86.4306 222.339 86.3888C222.391 86.3479 222.479 86.3595 222.602 86.4297L224.226 87.3704C225.069 87.8399 225.764 88.5336 226.236 89.3746C226.719 90.3169 226.954 91.3665 226.92 92.4247C226.92 93.6225 226.692 94.3704 226.225 94.6743C225.757 94.9781 225.097 94.8729 224.226 94.3704L222.602 93.4355C222.49 93.3763 222.398 93.2847 222.339 93.1726ZM224.29 93.1726C224.746 93.4355 225.091 93.4648 225.313 93.2544C225.535 93.0441 225.658 92.5299 225.658 91.706C225.687 91.0437 225.57 90.3831 225.313 89.7719C225.094 89.3088 224.737 88.9251 224.29 88.6734L223.531 88.2352V92.7344L224.29 93.1726Z" fill="white"/>
<path opacity="0.5" d="M252.335 94.1599L250.237 95.3987C250.046 95.0581 249.773 94.7709 249.442 94.5631L171.653 49.6296C171.069 49.3083 170.625 49.5186 170.543 50.0971C170.558 49.7293 170.671 49.372 170.868 49.0612C171.065 48.7504 171.341 48.4971 171.667 48.3265C171.993 48.156 172.359 48.0743 172.727 48.0897C173.094 48.1051 173.452 48.2171 173.763 48.4143L251.546 93.3244C251.877 93.529 252.149 93.8172 252.335 94.1599Z" fill="#FAFAFA"/>
<path d="M235.974 137.429L229.324 141.045C229.213 141.298 229.153 141.57 229.149 141.846V163.109C229.145 163.173 229.154 163.236 229.175 163.297C229.196 163.357 229.229 163.412 229.272 163.46L162.076 124.679C162.015 124.637 161.967 124.58 161.936 124.513C161.905 124.446 161.893 124.372 161.901 124.299V103.03C161.911 102.824 161.97 102.624 162.071 102.444C162.173 102.265 162.314 102.111 162.485 101.996L168.299 98.6303C168.36 98.5827 168.433 98.5544 168.511 98.5492C168.588 98.544 168.665 98.5621 168.731 98.6011L235.974 137.429Z" fill="#263238"/>
<path opacity="0.5" d="M235.978 137.423L174.526 101.932L171.721 100.313L168.759 98.6011C168.692 98.5621 168.615 98.544 168.538 98.5492C168.461 98.5544 168.387 98.5827 168.326 98.6303L162.513 101.996C162.338 102.105 162.194 102.258 162.098 102.44L229.328 141.04L235.978 137.423Z" fill="#37474F"/>
<path d="M229.322 141.046C229.209 141.302 229.148 141.578 229.141 141.858V163.121C229.141 163.501 229.409 163.653 229.725 163.466L236.152 159.761V137.814C236.161 137.74 236.149 137.665 236.119 137.597C236.088 137.529 236.039 137.471 235.977 137.429L229.322 141.046Z" fill="#37474F"/>
<path d="M229.801 163.407L230.029 163.296L231.016 162.712C231.972 161.525 232.493 160.047 232.494 158.522V140.555C232.49 140.161 232.441 139.769 232.348 139.386L231.817 139.678C231.876 139.963 231.907 140.253 231.91 140.543V158.522C231.803 160.348 231.056 162.077 229.801 163.407Z" fill="#263238"/>
<path d="M154.413 78.15C152.146 76.3152 148.021 73.9371 145.485 72.4763C141.22 70.0047 125.274 60.7901 118.607 56.9395C117.682 56.4699 116.659 56.2251 115.621 56.2251C114.583 56.2251 113.561 56.4699 112.635 56.9395L58.2944 88.3286C57.4264 88.8964 56.704 89.6602 56.1854 90.5585C55.6667 91.4567 55.3664 92.4642 55.3086 93.4998V126.367C55.3669 127.403 55.6674 128.412 56.1859 129.311C56.7045 130.21 57.4266 130.975 58.2944 131.544L168.641 195.316C169.567 195.783 170.59 196.026 171.627 196.026C172.664 196.026 173.687 195.783 174.613 195.316L228.954 163.938C229.823 163.365 230.544 162.596 231.061 161.693C231.578 160.789 231.875 159.777 231.928 158.738V140.215C231.932 139.311 231.726 138.418 231.327 137.607C230.927 136.796 230.345 136.089 229.626 135.541C217.157 126.069 158.036 81.0773 154.413 78.15Z" fill="#455A64"/>
<path d="M231.932 158.738V140.759C231.932 140.397 231.889 140.036 231.804 139.684L171.48 174.456C171.57 174.829 171.619 175.211 171.626 175.595V193.563C171.626 195.316 170.516 196.081 169.078 195.497H169.119C169.253 195.555 169.388 195.608 169.528 195.655L169.797 195.736C169.943 195.777 170.089 195.812 170.241 195.842C170.393 195.871 170.44 195.877 170.539 195.894L170.989 195.953H171.328H171.754H172.134L172.52 195.923C172.66 195.923 172.8 195.877 172.94 195.847L173.268 195.789C173.42 195.748 173.571 195.696 173.718 195.649C173.864 195.602 173.893 195.602 173.975 195.567C174.166 195.492 174.351 195.405 174.53 195.304C174.559 195.294 174.586 195.28 174.612 195.263L228.952 163.886L229.735 163.442C231.025 162.2 231.808 160.524 231.932 158.738Z" fill="#37474F"/>
<path d="M94.1028 112.981C104.293 121.208 157.512 161.479 169.304 170.395C170.029 170.939 170.618 171.645 171.024 172.456C171.43 173.268 171.641 174.162 171.641 175.07V193.563C171.641 195.462 170.297 196.239 168.655 195.316L58.2671 131.568C57.3993 130.998 56.6771 130.233 56.1586 129.334C55.64 128.435 55.3395 127.427 55.2812 126.391V93.4999C55.2812 91.6009 56.6252 90.8238 58.2671 91.7762L85.1453 107.295C87.6988 108.762 91.824 111.14 94.1028 112.981Z" fill="#263238"/>
<path d="M93.7708 102.329C96.3067 103.79 100.432 106.168 102.717 108.014C104.922 109.832 107.014 111.783 108.98 113.857C109.41 114.275 109.96 114.547 110.553 114.633C111.146 114.719 111.751 114.615 112.282 114.336L151.711 91.5482C151.944 91.4344 152.145 91.2654 152.297 91.0561C152.45 90.8467 152.548 90.6033 152.585 90.347C152.622 90.0907 152.596 89.8292 152.509 89.5854C152.421 89.3416 152.276 89.1228 152.085 88.948C150.112 86.8743 148.014 84.923 145.804 83.1049C143.531 81.2702 139.405 78.8979 136.869 77.4313C132.043 74.6383 126.627 71.5122 121.748 68.7017C121.177 68.415 120.548 68.2656 119.91 68.2656C119.272 68.2656 118.642 68.415 118.072 68.7017L78.6605 91.4781C77.6496 92.0624 77.6496 93.0148 78.6605 93.5991L93.7708 102.329Z" fill="#E0E0E0"/>
<path d="M118.077 70.583C118.647 70.2963 119.277 70.147 119.915 70.147C120.553 70.147 121.182 70.2963 121.753 70.583C126.632 73.3936 132.048 76.5196 136.874 79.3126C139.41 80.7792 143.536 83.1574 145.809 84.9921C148.019 86.81 150.117 88.7613 152.09 90.8352C152.161 90.9095 152.225 90.9897 152.283 91.0748C152.124 91.2787 151.925 91.4478 151.698 91.5715L112.269 114.36C111.739 114.638 111.134 114.742 110.541 114.656C109.948 114.57 109.397 114.298 108.968 113.88C107.001 111.806 104.91 109.855 102.704 108.037C100.419 106.191 96.2766 103.813 93.7582 102.352L78.6655 93.599C78.5954 93.5581 78.5428 93.5114 78.4844 93.4705C78.5413 93.423 78.6019 93.38 78.6655 93.3419L118.077 70.583Z" fill="white"/>
<path d="M118.723 100.629L106.926 100.447V95.7379L115.375 97.2688L115.264 78.5534L122.609 78.4365L118.723 100.629Z" fill="#0C9787"/>
<path d="M152.886 101.137L153.278 99.5125L154.914 99.3781L160.26 96.293C162.796 94.8322 166.156 95.1244 167.792 96.9416C168.139 97.3202 168.393 97.7743 168.534 98.2679L168.996 98.227L168.581 99.9507C168.398 100.562 168.094 101.13 167.687 101.622C167.281 102.113 166.78 102.519 166.214 102.814L159.705 106.565C159.176 106.848 158.571 106.955 157.977 106.87C157.383 106.785 156.832 106.512 156.404 106.092C155.376 104.993 154.347 103.854 153.319 102.697C153.123 102.493 152.981 102.244 152.906 101.972C152.83 101.699 152.824 101.412 152.886 101.137Z" fill="#0C9787"/>
<path opacity="0.1" d="M152.886 101.137L153.278 99.5125L154.914 99.3781L160.26 96.293C162.796 94.8322 166.156 95.1244 167.792 96.9416C168.139 97.3202 168.393 97.7743 168.534 98.2679L168.996 98.227L168.581 99.9507C168.398 100.562 168.094 101.13 167.687 101.622C167.281 102.113 166.78 102.519 166.214 102.814L159.705 106.565C159.176 106.848 158.571 106.955 157.977 106.87C157.383 106.785 156.832 106.512 156.404 106.092C155.376 104.993 154.347 103.854 153.319 102.697C153.123 102.493 152.981 102.244 152.906 101.972C152.83 101.699 152.824 101.412 152.886 101.137Z" fill="black"/>
<path d="M160.054 104.947L166.564 101.189C169.105 99.7228 169.783 97.0993 168.147 95.3113C166.511 93.5233 163.151 93.2019 160.615 94.6627L154.106 98.4198C153.872 98.5379 153.67 98.7095 153.515 98.9206C153.359 99.1318 153.256 99.3765 153.214 99.635C153.171 99.8934 153.19 100.158 153.269 100.408C153.348 100.658 153.484 100.886 153.668 101.073C154.696 102.241 155.727 103.373 156.759 104.467C157.185 104.888 157.735 105.161 158.328 105.248C158.921 105.334 159.526 105.228 160.054 104.947Z" fill="#0C9787"/>
<path d="M119.596 121.389L119.994 119.741L120.455 119.7C120.897 119.17 121.432 118.725 122.033 118.386L128.542 114.628C129.067 114.349 129.669 114.249 130.255 114.344C130.842 114.438 131.382 114.723 131.791 115.154C132.802 116.294 133.813 117.416 134.824 118.502L135.741 118.426L135.326 120.138C135.195 120.567 134.901 120.928 134.508 121.143L127.999 124.901C125.457 126.367 122.027 126.133 120.403 124.316C120.037 123.933 119.771 123.465 119.631 122.954C119.49 122.443 119.478 121.905 119.596 121.389Z" fill="#0C9787"/>
<path opacity="0.1" d="M119.596 121.389L119.994 119.741L120.455 119.7C120.897 119.17 121.432 118.725 122.033 118.386L128.542 114.628C129.067 114.349 129.669 114.249 130.255 114.344C130.842 114.438 131.382 114.723 131.791 115.154C132.802 116.294 133.813 117.416 134.824 118.502L135.741 118.426L135.326 120.138C135.195 120.567 134.901 120.928 134.508 121.143L127.999 124.901C125.457 126.367 122.027 126.133 120.403 124.316C120.037 123.933 119.771 123.465 119.631 122.954C119.49 122.443 119.478 121.905 119.596 121.389Z" fill="black"/>
<path d="M128.367 123.265L134.877 119.508C135.108 119.393 135.308 119.223 135.46 119.014C135.611 118.805 135.71 118.562 135.746 118.306C135.783 118.05 135.757 117.789 135.671 117.545C135.585 117.302 135.44 117.083 135.25 116.908C134.222 115.803 133.2 114.67 132.171 113.513C131.762 113.081 131.223 112.795 130.636 112.699C130.05 112.603 129.447 112.702 128.922 112.981L122.413 116.738C119.877 118.205 119.112 120.881 120.754 122.686C122.396 124.492 125.831 124.726 128.367 123.265Z" fill="#0C9787"/>
<path d="M135.885 111.105L136.271 109.498L137.521 109.416L145.31 104.917C145.966 104.568 146.718 104.444 147.452 104.563C148.185 104.682 148.859 105.038 149.371 105.577C150.15 106.465 150.939 107.336 151.737 108.189C151.814 108.275 151.885 108.367 151.948 108.464L152.725 108.417L152.322 110.094C152.251 110.377 152.121 110.642 151.942 110.872C151.763 111.103 151.538 111.293 151.282 111.432L142.932 116.247C142.273 116.602 141.517 116.737 140.776 116.632C140.035 116.526 139.347 116.187 138.813 115.662C138.024 114.809 137.229 113.939 136.44 113.05C136.194 112.797 136.015 112.487 135.918 112.147C135.821 111.808 135.81 111.45 135.885 111.105Z" fill="#0C9787"/>
<path opacity="0.1" d="M135.885 111.105L136.271 109.498L137.521 109.416L145.31 104.917C145.966 104.568 146.718 104.444 147.452 104.563C148.185 104.682 148.859 105.038 149.371 105.577C150.15 106.465 150.939 107.336 151.737 108.189C151.814 108.275 151.885 108.367 151.948 108.464L152.725 108.417L152.322 110.094C152.251 110.377 152.121 110.642 151.942 110.872C151.763 111.103 151.538 111.293 151.282 111.432L142.932 116.247C142.273 116.602 141.517 116.737 140.776 116.632C140.035 116.526 139.347 116.187 138.813 115.662C138.024 114.809 137.229 113.939 136.44 113.05C136.194 112.797 136.015 112.487 135.918 112.147C135.821 111.808 135.81 111.45 135.885 111.105Z" fill="black"/>
<path d="M136.811 111.421C137.6 112.309 138.394 113.174 139.183 114.033C139.717 114.557 140.406 114.897 141.147 115.002C141.888 115.107 142.644 114.972 143.303 114.617L151.652 109.802C151.941 109.659 152.191 109.447 152.38 109.186C152.569 108.924 152.692 108.621 152.739 108.302C152.785 107.983 152.754 107.657 152.647 107.352C152.54 107.048 152.361 106.774 152.126 106.554C151.337 105.701 150.548 104.801 149.759 103.936C149.247 103.397 148.573 103.042 147.839 102.924C147.106 102.805 146.354 102.931 145.698 103.281L137.354 108.096C137.061 108.244 136.806 108.459 136.611 108.723C136.416 108.988 136.287 109.295 136.234 109.62C136.181 109.944 136.206 110.277 136.306 110.59C136.406 110.903 136.579 111.188 136.811 111.421Z" fill="#0C9787"/>
<g opacity="0.75">
<path d="M160.054 104.946L166.564 101.189C169.105 99.7224 169.783 97.0988 168.147 95.3108C166.511 93.5228 163.151 93.2014 160.615 94.6622L154.106 98.4193C153.872 98.5374 153.67 98.709 153.515 98.9201C153.359 99.1313 153.256 99.376 153.214 99.6345C153.171 99.8929 153.19 100.158 153.269 100.408C153.348 100.657 153.484 100.885 153.668 101.072C154.696 102.241 155.727 103.372 156.759 104.467C157.185 104.888 157.735 105.161 158.328 105.247C158.921 105.333 159.526 105.228 160.054 104.946Z" fill="white"/>
<path d="M128.367 123.264L134.877 119.507C135.108 119.392 135.308 119.222 135.46 119.013C135.611 118.804 135.71 118.561 135.746 118.305C135.783 118.049 135.757 117.788 135.671 117.545C135.585 117.301 135.44 117.082 135.25 116.907C134.222 115.802 133.2 114.669 132.171 113.512C131.762 113.08 131.223 112.794 130.636 112.698C130.05 112.602 129.447 112.701 128.922 112.98L122.413 116.737C119.877 118.204 119.112 120.88 120.754 122.685C122.396 124.491 125.831 124.725 128.367 123.264Z" fill="white"/>
<path d="M136.807 111.421C137.596 112.309 138.39 113.174 139.179 114.033C139.714 114.557 140.402 114.897 141.143 115.002C141.884 115.107 142.64 114.972 143.299 114.617L151.648 109.802C151.937 109.659 152.187 109.447 152.376 109.186C152.565 108.924 152.688 108.621 152.735 108.302C152.781 107.983 152.75 107.657 152.643 107.352C152.536 107.048 152.357 106.774 152.122 106.554C151.333 105.701 150.544 104.801 149.755 103.936C149.243 103.397 148.569 103.042 147.835 102.924C147.102 102.805 146.35 102.931 145.694 103.281L137.35 108.096C137.057 108.244 136.802 108.459 136.607 108.723C136.413 108.988 136.283 109.295 136.23 109.62C136.177 109.944 136.202 110.277 136.302 110.59C136.402 110.903 136.575 111.188 136.807 111.421Z" fill="white"/>
</g>
<path d="M149.482 129.453L147.764 129.494L142.955 125.824C142.531 125.531 142.035 125.359 141.52 125.326C141.006 125.293 140.492 125.401 140.034 125.637L132.683 129.873L130.375 129.932V131.813C130.385 132.002 130.439 132.186 130.532 132.35C130.626 132.514 130.756 132.654 130.913 132.76L136.896 137.329C137.321 137.621 137.817 137.792 138.331 137.825C138.845 137.858 139.359 137.751 139.817 137.516L148.81 132.328C149 132.237 149.162 132.097 149.28 131.923C149.397 131.748 149.465 131.544 149.476 131.334L149.482 129.453Z" fill="#0C9787"/>
<path opacity="0.1" d="M149.482 129.453L147.764 129.494L142.955 125.824C142.531 125.531 142.035 125.359 141.52 125.326C141.006 125.293 140.492 125.401 140.034 125.637L132.683 129.873L130.375 129.932V131.813C130.385 132.002 130.439 132.186 130.532 132.35C130.626 132.514 130.756 132.654 130.913 132.76L136.896 137.329C137.321 137.621 137.817 137.792 138.331 137.825C138.845 137.858 139.359 137.751 139.817 137.516L148.81 132.328C149 132.237 149.162 132.097 149.28 131.923C149.397 131.748 149.465 131.544 149.476 131.334L149.482 129.453Z" fill="black"/>
<path d="M131.035 128.938L140.034 123.755C140.492 123.519 141.006 123.411 141.521 123.444C142.035 123.477 142.531 123.649 142.955 123.942L148.956 128.512C149.133 128.611 149.277 128.759 149.374 128.937C149.47 129.115 149.514 129.317 149.5 129.519C149.487 129.721 149.417 129.915 149.298 130.079C149.179 130.243 149.016 130.37 148.828 130.446L139.835 135.634C139.377 135.87 138.863 135.976 138.349 135.943C137.834 135.911 137.339 135.739 136.914 135.447L130.93 130.878C130.755 130.778 130.612 130.631 130.515 130.454C130.419 130.277 130.373 130.077 130.384 129.876C130.395 129.674 130.462 129.48 130.577 129.315C130.692 129.149 130.851 129.019 131.035 128.938Z" fill="#0C9787"/>
<path opacity="0.75" d="M131.035 128.938L140.034 123.755C140.492 123.519 141.006 123.411 141.521 123.444C142.035 123.477 142.531 123.649 142.955 123.942L148.956 128.512C149.133 128.611 149.277 128.759 149.374 128.937C149.47 129.115 149.514 129.317 149.5 129.519C149.487 129.721 149.417 129.915 149.298 130.079C149.179 130.243 149.016 130.37 148.828 130.446L139.835 135.634C139.377 135.87 138.863 135.976 138.349 135.943C137.834 135.911 137.339 135.739 136.914 135.447L130.93 130.878C130.755 130.778 130.612 130.631 130.515 130.454C130.419 130.277 130.373 130.077 130.384 129.876C130.395 129.674 130.462 129.48 130.577 129.315C130.692 129.149 130.851 129.019 131.035 128.938Z" fill="white"/>
<path d="M184.601 156.232L182.883 156.278L178.074 152.603C177.649 152.311 177.154 152.14 176.639 152.107C176.125 152.074 175.611 152.181 175.153 152.416L167.796 156.658L165.488 156.711V158.592C165.497 158.781 165.551 158.965 165.644 159.13C165.737 159.294 165.868 159.434 166.026 159.539L172.009 164.108C172.434 164.401 172.929 164.573 173.444 164.606C173.959 164.639 174.473 164.531 174.931 164.295L183.9 159.089C184.09 158.997 184.252 158.856 184.368 158.68C184.484 158.504 184.55 158.3 184.56 158.09L184.601 156.232Z" fill="#0C9787"/>
<path opacity="0.1" d="M184.601 156.232L182.883 156.278L178.074 152.603C177.649 152.311 177.154 152.14 176.639 152.107C176.125 152.074 175.611 152.181 175.153 152.416L167.796 156.658L165.488 156.711V158.592C165.497 158.781 165.551 158.965 165.644 159.13C165.737 159.294 165.868 159.434 166.026 159.539L172.009 164.108C172.434 164.401 172.929 164.573 173.444 164.606C173.959 164.639 174.473 164.531 174.931 164.295L183.9 159.089C184.09 158.997 184.252 158.856 184.368 158.68C184.484 158.504 184.55 158.3 184.56 158.09L184.601 156.232Z" fill="black"/>
<path d="M166.126 155.718L175.124 150.535C175.583 150.299 176.096 150.193 176.611 150.226C177.125 150.258 177.621 150.43 178.046 150.722L184.011 155.291C184.187 155.391 184.332 155.54 184.428 155.718C184.524 155.897 184.567 156.099 184.554 156.301C184.541 156.503 184.47 156.698 184.352 156.862C184.233 157.027 184.071 157.154 183.883 157.231L174.884 162.414C174.426 162.65 173.912 162.758 173.398 162.725C172.883 162.692 172.387 162.52 171.963 162.227L165.98 157.657C165.806 157.554 165.665 157.404 165.572 157.225C165.478 157.045 165.437 156.844 165.452 156.642C165.467 156.441 165.539 156.247 165.657 156.084C165.776 155.921 165.939 155.794 166.126 155.718Z" fill="#0C9787"/>
<path opacity="0.75" d="M166.126 155.718L175.124 150.535C175.583 150.299 176.096 150.193 176.611 150.226C177.125 150.258 177.621 150.43 178.046 150.722L184.011 155.291C184.187 155.391 184.332 155.54 184.428 155.718C184.524 155.897 184.567 156.099 184.554 156.301C184.541 156.503 184.47 156.698 184.352 156.862C184.233 157.027 184.071 157.154 183.883 157.231L174.884 162.414C174.426 162.65 173.912 162.758 173.398 162.725C172.883 162.692 172.387 162.52 171.963 162.227L165.98 157.657C165.806 157.554 165.665 157.404 165.572 157.225C165.478 157.045 165.437 156.844 165.452 156.642C165.467 156.441 165.539 156.247 165.657 156.084C165.776 155.921 165.939 155.794 166.126 155.718Z" fill="white"/>
<path d="M161.173 138.381L159.455 138.422L154.647 134.752C154.222 134.46 153.727 134.287 153.212 134.253C152.698 134.219 152.184 134.325 151.725 134.56L144.368 138.802L142.031 138.86V140.742C142.042 140.93 142.097 141.113 142.19 141.277C142.283 141.441 142.413 141.582 142.569 141.688L148.593 146.234C149.017 146.527 149.513 146.699 150.027 146.733C150.542 146.767 151.056 146.661 151.515 146.427L160.507 141.238C160.697 141.148 160.86 141.008 160.977 140.833C161.094 140.658 161.162 140.455 161.173 140.245V138.381Z" fill="#0C9787"/>
<path opacity="0.1" d="M161.173 138.381L159.455 138.422L154.647 134.752C154.222 134.46 153.727 134.287 153.212 134.253C152.698 134.219 152.184 134.325 151.725 134.56L144.368 138.802L142.031 138.86V140.742C142.042 140.93 142.097 141.113 142.19 141.277C142.283 141.441 142.413 141.582 142.569 141.688L148.593 146.234C149.017 146.527 149.513 146.699 150.027 146.733C150.542 146.767 151.056 146.661 151.515 146.427L160.507 141.238C160.697 141.148 160.86 141.008 160.977 140.833C161.094 140.658 161.162 140.455 161.173 140.245V138.381Z" fill="black"/>
<path d="M142.729 137.866L151.728 132.678C152.187 132.443 152.701 132.337 153.215 132.371C153.729 132.405 154.225 132.578 154.649 132.871L160.638 137.434C160.814 137.535 160.959 137.683 161.054 137.861C161.15 138.04 161.194 138.242 161.181 138.444C161.167 138.646 161.097 138.841 160.979 139.005C160.86 139.17 160.697 139.297 160.51 139.374L151.517 144.563C151.058 144.797 150.544 144.903 150.03 144.869C149.515 144.835 149.02 144.662 148.596 144.37L142.606 139.806C142.432 139.705 142.289 139.557 142.194 139.379C142.099 139.201 142.056 139 142.069 138.798C142.081 138.597 142.15 138.403 142.267 138.239C142.383 138.074 142.543 137.945 142.729 137.866Z" fill="#0C9787"/>
<path opacity="0.75" d="M142.729 137.866L151.728 132.678C152.187 132.443 152.701 132.337 153.215 132.371C153.729 132.405 154.225 132.578 154.649 132.871L160.638 137.434C160.814 137.535 160.959 137.683 161.054 137.861C161.15 138.04 161.194 138.242 161.181 138.444C161.167 138.646 161.097 138.841 160.979 139.005C160.86 139.17 160.697 139.297 160.51 139.374L151.517 144.563C151.058 144.797 150.544 144.903 150.03 144.869C149.515 144.835 149.02 144.662 148.596 144.37L142.606 139.806C142.432 139.705 142.289 139.557 142.194 139.379C142.099 139.201 142.056 139 142.069 138.798C142.081 138.597 142.15 138.403 142.267 138.239C142.383 138.074 142.543 137.945 142.729 137.866Z" fill="white"/>
<path d="M172.871 147.304L171.153 147.351L166.344 143.675C165.919 143.384 165.423 143.212 164.909 143.179C164.395 143.146 163.881 143.253 163.422 143.488L156.066 147.73L153.758 147.789V149.67C153.768 149.858 153.821 150.041 153.915 150.205C154.008 150.368 154.138 150.507 154.295 150.611L160.279 155.18C160.703 155.473 161.199 155.645 161.714 155.678C162.228 155.711 162.742 155.604 163.2 155.367L172.193 150.184C172.383 150.093 172.544 149.952 172.661 149.776C172.777 149.6 172.843 149.396 172.853 149.185L172.871 147.304Z" fill="#0C9787"/>
<path opacity="0.1" d="M172.871 147.304L171.153 147.351L166.344 143.675C165.919 143.384 165.423 143.212 164.909 143.179C164.395 143.146 163.881 143.253 163.422 143.488L156.066 147.73L153.758 147.789V149.67C153.768 149.858 153.821 150.041 153.915 150.205C154.008 150.368 154.138 150.507 154.295 150.611L160.279 155.18C160.703 155.473 161.199 155.645 161.714 155.678C162.228 155.711 162.742 155.604 163.2 155.367L172.193 150.184C172.383 150.093 172.544 149.952 172.661 149.776C172.777 149.6 172.843 149.396 172.853 149.185L172.871 147.304Z" fill="black"/>
<path d="M154.43 146.819L163.428 141.63C163.887 141.395 164.4 141.288 164.915 141.321C165.429 141.354 165.925 141.525 166.35 141.817L172.327 146.363C172.503 146.463 172.648 146.611 172.744 146.79C172.839 146.969 172.883 147.171 172.87 147.373C172.856 147.575 172.786 147.77 172.668 147.934C172.549 148.099 172.387 148.226 172.199 148.303L163.206 153.486C162.748 153.722 162.234 153.829 161.72 153.797C161.205 153.764 160.709 153.591 160.285 153.299L154.301 148.729C154.133 148.626 153.996 148.479 153.906 148.304C153.815 148.129 153.774 147.932 153.788 147.735C153.801 147.538 153.868 147.349 153.981 147.187C154.094 147.026 154.249 146.898 154.43 146.819Z" fill="#0C9787"/>
<path opacity="0.75" d="M154.43 146.819L163.428 141.63C163.887 141.395 164.4 141.288 164.915 141.321C165.429 141.354 165.925 141.525 166.35 141.817L172.327 146.363C172.503 146.463 172.648 146.611 172.744 146.79C172.839 146.969 172.883 147.171 172.87 147.373C172.856 147.575 172.786 147.77 172.668 147.934C172.549 148.099 172.387 148.226 172.199 148.303L163.206 153.486C162.748 153.722 162.234 153.829 161.72 153.797C161.205 153.764 160.709 153.591 160.285 153.299L154.301 148.729C154.133 148.626 153.996 148.479 153.906 148.304C153.815 148.129 153.774 147.932 153.788 147.735C153.801 147.538 153.868 147.349 153.981 147.187C154.094 147.026 154.249 146.898 154.43 146.819Z" fill="white"/>
<path d="M167.527 119.046L165.809 119.093L161 115.417C160.575 115.126 160.079 114.954 159.565 114.921C159.051 114.888 158.537 114.995 158.078 115.23L150.704 119.473L148.367 119.531V121.412C148.378 121.6 148.433 121.783 148.526 121.946C148.619 122.109 148.749 122.248 148.905 122.353L154.947 126.952C155.371 127.245 155.867 127.417 156.381 127.45C156.896 127.483 157.41 127.375 157.868 127.139L166.866 121.956C167.056 121.864 167.218 121.723 167.334 121.547C167.451 121.371 167.517 121.167 167.527 120.957V119.046Z" fill="#0C9787"/>
<path opacity="0.1" d="M167.527 119.046L165.809 119.093L161 115.417C160.575 115.126 160.079 114.954 159.565 114.921C159.051 114.888 158.537 114.995 158.078 115.23L150.704 119.473L148.367 119.531V121.412C148.378 121.6 148.433 121.783 148.526 121.946C148.619 122.109 148.749 122.248 148.905 122.353L154.947 126.952C155.371 127.245 155.867 127.417 156.381 127.45C156.896 127.483 157.41 127.375 157.868 127.139L166.866 121.956C167.056 121.864 167.218 121.723 167.334 121.547C167.451 121.371 167.517 121.167 167.527 120.957V119.046Z" fill="black"/>
<path d="M149.085 118.537L158.083 113.349C158.542 113.113 159.056 113.007 159.57 113.04C160.084 113.072 160.58 113.244 161.005 113.536L166.988 118.105C167.163 118.206 167.305 118.354 167.4 118.532C167.495 118.71 167.539 118.911 167.526 119.113C167.513 119.314 167.445 119.508 167.328 119.673C167.212 119.837 167.051 119.966 166.866 120.045L157.867 125.228C157.409 125.464 156.895 125.572 156.381 125.539C155.866 125.506 155.37 125.334 154.946 125.041L148.951 120.471C148.776 120.37 148.634 120.221 148.54 120.043C148.445 119.865 148.403 119.664 148.417 119.463C148.431 119.261 148.501 119.068 148.619 118.905C148.737 118.741 148.898 118.614 149.085 118.537Z" fill="#0C9787"/>
<path opacity="0.75" d="M149.085 118.537L158.083 113.349C158.542 113.113 159.056 113.007 159.57 113.04C160.084 113.072 160.58 113.244 161.005 113.536L166.988 118.105C167.163 118.206 167.305 118.354 167.4 118.532C167.495 118.71 167.539 118.911 167.526 119.113C167.513 119.314 167.445 119.508 167.328 119.673C167.212 119.837 167.051 119.966 166.866 120.045L157.867 125.228C157.409 125.464 156.895 125.572 156.381 125.539C155.866 125.506 155.37 125.334 154.946 125.041L148.951 120.471C148.776 120.37 148.634 120.221 148.54 120.043C148.445 119.865 148.403 119.664 148.417 119.463C148.431 119.261 148.501 119.068 148.619 118.905C148.737 118.741 148.898 118.614 149.085 118.537Z" fill="white"/>
<path d="M202.621 145.83L200.903 145.871L196.094 142.196C195.668 141.905 195.173 141.735 194.659 141.702C194.145 141.669 193.631 141.775 193.172 142.009L185.822 146.233L183.484 146.292V148.173C183.495 148.362 183.549 148.546 183.642 148.71C183.735 148.874 183.865 149.014 184.022 149.12L190.005 153.683C190.43 153.976 190.925 154.148 191.439 154.182C191.954 154.216 192.468 154.111 192.927 153.876L201.919 148.688C202.109 148.596 202.271 148.455 202.387 148.279C202.503 148.103 202.57 147.899 202.58 147.688L202.621 145.83Z" fill="#0C9787"/>
<path opacity="0.1" d="M202.621 145.83L200.903 145.871L196.094 142.196C195.668 141.905 195.173 141.735 194.659 141.702C194.145 141.669 193.631 141.775 193.172 142.009L185.822 146.233L183.484 146.292V148.173C183.495 148.362 183.549 148.546 183.642 148.71C183.735 148.874 183.865 149.014 184.022 149.12L190.005 153.683C190.43 153.976 190.925 154.148 191.439 154.182C191.954 154.216 192.468 154.111 192.927 153.876L201.919 148.688C202.109 148.596 202.271 148.455 202.387 148.279C202.503 148.103 202.57 147.899 202.58 147.688L202.621 145.83Z" fill="black"/>
<path d="M184.186 145.317L193.185 140.128C193.644 139.894 194.158 139.788 194.672 139.822C195.186 139.856 195.682 140.029 196.106 140.321L202.089 144.885C202.265 144.985 202.41 145.133 202.506 145.312C202.602 145.49 202.645 145.693 202.632 145.895C202.619 146.097 202.549 146.292 202.43 146.456C202.311 146.62 202.149 146.748 201.961 146.825L192.968 152.013C192.509 152.248 191.995 152.353 191.481 152.319C190.967 152.286 190.471 152.113 190.047 151.82L184.063 147.257C183.889 147.155 183.746 147.007 183.651 146.829C183.556 146.651 183.513 146.45 183.526 146.249C183.538 146.048 183.607 145.854 183.724 145.689C183.84 145.525 184 145.396 184.186 145.317Z" fill="#0C9787"/>
<path opacity="0.75" d="M184.186 145.317L193.185 140.128C193.644 139.894 194.158 139.788 194.672 139.822C195.186 139.856 195.682 140.029 196.106 140.321L202.089 144.885C202.265 144.985 202.41 145.133 202.506 145.312C202.602 145.49 202.645 145.693 202.632 145.895C202.619 146.097 202.549 146.292 202.43 146.456C202.311 146.62 202.149 146.748 201.961 146.825L192.968 152.013C192.509 152.248 191.995 152.353 191.481 152.319C190.967 152.286 190.471 152.113 190.047 151.82L184.063 147.257C183.889 147.155 183.746 147.007 183.651 146.829C183.556 146.651 183.513 146.45 183.526 146.249C183.538 146.048 183.607 145.854 183.724 145.689C183.84 145.525 184 145.396 184.186 145.317Z" fill="white"/>
<path d="M179.23 127.974L177.512 128.021L172.703 124.346C172.279 124.053 171.783 123.881 171.268 123.848C170.754 123.815 170.24 123.922 169.782 124.159L162.425 128.395L160.117 128.453V130.335C160.127 130.523 160.181 130.707 160.275 130.871C160.368 131.036 160.498 131.176 160.655 131.281L166.638 135.851C167.063 136.142 167.559 136.314 168.073 136.347C168.587 136.38 169.101 136.273 169.56 136.038L178.558 130.855C178.747 130.766 178.908 130.627 179.025 130.455C179.142 130.282 179.211 130.081 179.224 129.873L179.23 127.974Z" fill="#0C9787"/>
<path opacity="0.1" d="M179.23 127.974L177.512 128.021L172.703 124.346C172.279 124.053 171.783 123.881 171.268 123.848C170.754 123.815 170.24 123.922 169.782 124.159L162.425 128.395L160.117 128.453V130.335C160.127 130.523 160.181 130.707 160.275 130.871C160.368 131.036 160.498 131.176 160.655 131.281L166.638 135.851C167.063 136.142 167.559 136.314 168.073 136.347C168.587 136.38 169.101 136.273 169.56 136.038L178.558 130.855C178.747 130.766 178.908 130.627 179.025 130.455C179.142 130.282 179.211 130.081 179.224 129.873L179.23 127.974Z" fill="black"/>
<path d="M160.79 127.461L169.788 122.278C170.247 122.043 170.76 121.936 171.275 121.969C171.789 122.002 172.285 122.173 172.71 122.465L178.693 127.034C178.867 127.136 179.01 127.284 179.105 127.462C179.2 127.64 179.244 127.841 179.231 128.042C179.218 128.243 179.15 128.437 179.033 128.602C178.916 128.766 178.756 128.895 178.57 128.974L169.572 134.157C169.113 134.392 168.6 134.499 168.085 134.466C167.571 134.433 167.075 134.262 166.65 133.97L160.644 129.401C160.47 129.297 160.329 129.147 160.236 128.968C160.142 128.789 160.101 128.587 160.116 128.385C160.132 128.184 160.203 127.991 160.322 127.827C160.44 127.664 160.603 127.537 160.79 127.461Z" fill="#0C9787"/>
<path opacity="0.75" d="M160.79 127.461L169.788 122.278C170.247 122.043 170.76 121.936 171.275 121.969C171.789 122.002 172.285 122.173 172.71 122.465L178.693 127.034C178.867 127.136 179.01 127.284 179.105 127.462C179.2 127.64 179.244 127.841 179.231 128.042C179.218 128.243 179.15 128.437 179.033 128.602C178.916 128.766 178.756 128.895 178.57 128.974L169.572 134.157C169.113 134.392 168.6 134.499 168.085 134.466C167.571 134.433 167.075 134.262 166.65 133.97L160.644 129.401C160.47 129.297 160.329 129.147 160.236 128.968C160.142 128.789 160.101 128.587 160.116 128.385C160.132 128.184 160.203 127.991 160.322 127.827C160.44 127.664 160.603 127.537 160.79 127.461Z" fill="white"/>
<path d="M190.921 136.885L189.204 136.926L184.395 133.257C183.97 132.964 183.474 132.792 182.96 132.759C182.445 132.726 181.931 132.833 181.473 133.07L174.117 137.306L171.809 137.364V139.246C171.819 139.435 171.873 139.618 171.966 139.782C172.059 139.947 172.189 140.087 172.346 140.193L178.329 144.762C178.755 145.052 179.251 145.223 179.765 145.256C180.279 145.289 180.792 145.183 181.251 144.949L190.249 139.807C190.44 139.717 190.602 139.577 190.719 139.402C190.836 139.227 190.904 139.024 190.916 138.814L190.921 136.885Z" fill="#0C9787"/>
<path opacity="0.1" d="M190.921 136.885L189.204 136.926L184.395 133.257C183.97 132.964 183.474 132.792 182.96 132.759C182.445 132.726 181.931 132.833 181.473 133.07L174.117 137.306L171.809 137.364V139.246C171.819 139.435 171.873 139.618 171.966 139.782C172.059 139.947 172.189 140.087 172.346 140.193L178.329 144.762C178.755 145.052 179.251 145.223 179.765 145.256C180.279 145.289 180.792 145.183 181.251 144.949L190.249 139.807C190.44 139.717 190.602 139.577 190.719 139.402C190.836 139.227 190.904 139.024 190.916 138.814L190.921 136.885Z" fill="black"/>
<path d="M172.487 136.388L181.485 131.206C181.944 130.969 182.457 130.862 182.972 130.894C183.487 130.927 183.983 131.1 184.407 131.393L190.39 135.962C190.567 136.061 190.711 136.209 190.808 136.387C190.904 136.565 190.948 136.767 190.934 136.969C190.921 137.171 190.851 137.366 190.732 137.53C190.613 137.693 190.45 137.82 190.262 137.896L181.269 143.085C180.811 143.32 180.297 143.427 179.783 143.394C179.268 143.361 178.772 143.189 178.348 142.898L172.364 138.328C172.19 138.227 172.047 138.079 171.952 137.901C171.857 137.723 171.814 137.522 171.826 137.32C171.839 137.119 171.908 136.925 172.024 136.761C172.141 136.596 172.301 136.467 172.487 136.388Z" fill="#0C9787"/>
<path opacity="0.75" d="M172.487 136.388L181.485 131.206C181.944 130.969 182.457 130.862 182.972 130.894C183.487 130.927 183.983 131.1 184.407 131.393L190.39 135.962C190.567 136.061 190.711 136.209 190.808 136.387C190.904 136.565 190.948 136.767 190.934 136.969C190.921 137.171 190.851 137.366 190.732 137.53C190.613 137.693 190.45 137.82 190.262 137.896L181.269 143.085C180.811 143.32 180.297 143.427 179.783 143.394C179.268 143.361 178.772 143.189 178.348 142.898L172.364 138.328C172.19 138.227 172.047 138.079 171.952 137.901C171.857 137.723 171.814 137.522 171.826 137.32C171.839 137.119 171.908 136.925 172.024 136.761C172.141 136.596 172.301 136.467 172.487 136.388Z" fill="white"/>
<path d="M185.574 108.639L183.856 108.68L179.047 105.011C178.623 104.718 178.127 104.546 177.612 104.513C177.098 104.48 176.584 104.587 176.125 104.824L168.769 109.06L166.461 109.118V111C166.471 111.188 166.525 111.372 166.618 111.536C166.712 111.701 166.842 111.841 166.999 111.946L172.982 116.516C173.407 116.807 173.903 116.979 174.417 117.012C174.931 117.045 175.445 116.938 175.903 116.703L184.896 111.514C185.086 111.424 185.248 111.284 185.366 111.109C185.483 110.934 185.551 110.731 185.562 110.521L185.574 108.639Z" fill="#0C9787"/>
<path opacity="0.1" d="M185.574 108.639L183.856 108.68L179.047 105.011C178.623 104.718 178.127 104.546 177.612 104.513C177.098 104.48 176.584 104.587 176.125 104.824L168.769 109.06L166.461 109.118V111C166.471 111.188 166.525 111.372 166.618 111.536C166.712 111.701 166.842 111.841 166.999 111.946L172.982 116.516C173.407 116.807 173.903 116.979 174.417 117.012C174.931 117.045 175.445 116.938 175.903 116.703L184.896 111.514C185.086 111.424 185.248 111.284 185.366 111.109C185.483 110.934 185.551 110.731 185.562 110.521L185.574 108.639Z" fill="black"/>
<path d="M167.139 108.125L176.138 102.942C176.596 102.706 177.11 102.598 177.624 102.631C178.139 102.664 178.635 102.836 179.059 103.129L185.043 107.699C185.219 107.798 185.364 107.946 185.46 108.124C185.556 108.302 185.6 108.504 185.587 108.706C185.573 108.908 185.503 109.102 185.384 109.266C185.265 109.43 185.102 109.557 184.914 109.633L175.921 114.821C175.463 115.057 174.949 115.163 174.435 115.13C173.921 115.098 173.425 114.926 173 114.634L167.017 110.065C166.842 109.964 166.7 109.816 166.605 109.638C166.51 109.46 166.466 109.259 166.479 109.057C166.491 108.856 166.56 108.662 166.677 108.497C166.793 108.333 166.954 108.204 167.139 108.125Z" fill="#0C9787"/>
<path opacity="0.75" d="M167.139 108.125L176.138 102.942C176.596 102.706 177.11 102.598 177.624 102.631C178.139 102.664 178.635 102.836 179.059 103.129L185.043 107.699C185.219 107.798 185.364 107.946 185.46 108.124C185.556 108.302 185.6 108.504 185.587 108.706C185.573 108.908 185.503 109.102 185.384 109.266C185.265 109.43 185.102 109.557 184.914 109.633L175.921 114.821C175.463 115.057 174.949 115.163 174.435 115.13C173.921 115.098 173.425 114.926 173 114.634L167.017 110.065C166.842 109.964 166.7 109.816 166.605 109.638C166.51 109.46 166.466 109.259 166.479 109.057C166.491 108.856 166.56 108.662 166.677 108.497C166.793 108.333 166.954 108.204 167.139 108.125Z" fill="white"/>
<path d="M220.671 135.418L218.954 135.464L214.145 131.789C213.72 131.496 213.224 131.324 212.71 131.291C212.195 131.258 211.681 131.366 211.223 131.602L203.878 135.838L201.57 135.897V137.778C201.579 137.967 201.633 138.151 201.726 138.316C201.819 138.48 201.95 138.62 202.108 138.725L208.091 143.312C208.516 143.605 209.012 143.777 209.526 143.81C210.041 143.843 210.555 143.735 211.013 143.499L220.011 138.316C220.201 138.224 220.363 138.083 220.479 137.907C220.595 137.731 220.662 137.527 220.671 137.317V135.418Z" fill="#0C9787"/>
<path opacity="0.1" d="M220.671 135.418L218.954 135.464L214.145 131.789C213.72 131.496 213.224 131.324 212.71 131.291C212.195 131.258 211.681 131.366 211.223 131.602L203.878 135.838L201.57 135.897V137.778C201.579 137.967 201.633 138.151 201.726 138.316C201.819 138.48 201.95 138.62 202.108 138.725L208.091 143.312C208.516 143.605 209.012 143.777 209.526 143.81C210.041 143.843 210.555 143.735 211.013 143.499L220.011 138.316C220.201 138.224 220.363 138.083 220.479 137.907C220.595 137.731 220.662 137.527 220.671 137.317V135.418Z" fill="black"/>
<path d="M202.231 134.904L211.229 129.722C211.688 129.486 212.201 129.38 212.716 129.413C213.23 129.445 213.726 129.617 214.151 129.909L220.134 134.478C220.31 134.579 220.454 134.727 220.55 134.905C220.646 135.084 220.69 135.286 220.677 135.488C220.663 135.69 220.593 135.885 220.475 136.049C220.356 136.214 220.193 136.341 220.006 136.418L211.007 141.601C210.549 141.837 210.035 141.945 209.52 141.912C209.006 141.879 208.51 141.707 208.086 141.414L202.126 136.844C201.951 136.744 201.807 136.598 201.71 136.421C201.614 136.244 201.569 136.043 201.58 135.842C201.591 135.641 201.657 135.446 201.772 135.281C201.887 135.115 202.046 134.985 202.231 134.904Z" fill="#0C9787"/>
<path opacity="0.75" d="M202.231 134.904L211.229 129.722C211.688 129.486 212.201 129.38 212.716 129.413C213.23 129.445 213.726 129.617 214.151 129.909L220.134 134.478C220.31 134.579 220.454 134.727 220.55 134.905C220.646 135.084 220.69 135.286 220.677 135.488C220.663 135.69 220.593 135.885 220.475 136.049C220.356 136.214 220.193 136.341 220.006 136.418L211.007 141.601C210.549 141.837 210.035 141.945 209.52 141.912C209.006 141.879 208.51 141.707 208.086 141.414L202.126 136.844C201.951 136.744 201.807 136.598 201.71 136.421C201.614 136.244 201.569 136.043 201.58 135.842C201.591 135.641 201.657 135.446 201.772 135.281C201.887 135.115 202.046 134.985 202.231 134.904Z" fill="white"/>
<path d="M208.978 126.49L207.26 126.537L202.451 122.862C202.026 122.57 201.531 122.399 201.016 122.366C200.502 122.333 199.988 122.44 199.53 122.675L192.197 126.917L189.859 126.975V128.857C189.869 129.045 189.923 129.228 190.016 129.391C190.11 129.554 190.24 129.694 190.397 129.798L196.38 134.367C196.804 134.661 197.3 134.834 197.815 134.867C198.33 134.9 198.844 134.792 199.302 134.554L208.3 129.371C208.49 129.28 208.652 129.138 208.768 128.962C208.884 128.787 208.951 128.582 208.96 128.372L208.978 126.49Z" fill="#0C9787"/>
<path opacity="0.1" d="M208.978 126.49L207.26 126.537L202.451 122.862C202.026 122.57 201.531 122.399 201.016 122.366C200.502 122.333 199.988 122.44 199.53 122.675L192.197 126.917L189.859 126.975V128.857C189.869 129.045 189.923 129.228 190.016 129.391C190.11 129.554 190.24 129.694 190.397 129.798L196.38 134.367C196.804 134.661 197.3 134.834 197.815 134.867C198.33 134.9 198.844 134.792 199.302 134.554L208.3 129.371C208.49 129.28 208.652 129.138 208.768 128.962C208.884 128.787 208.951 128.582 208.96 128.372L208.978 126.49Z" fill="black"/>
<path d="M190.538 125.982L199.536 120.793C199.995 120.558 200.509 120.451 201.023 120.484C201.537 120.517 202.033 120.688 202.458 120.98L208.441 125.549C208.617 125.65 208.762 125.798 208.858 125.976C208.954 126.155 208.997 126.357 208.984 126.559C208.971 126.762 208.9 126.956 208.782 127.121C208.663 127.285 208.501 127.413 208.313 127.489L199.314 132.672C198.857 132.91 198.342 133.018 197.828 132.985C197.313 132.952 196.817 132.779 196.393 132.485L190.445 127.916C190.269 127.818 190.124 127.672 190.026 127.496C189.929 127.32 189.882 127.121 189.892 126.92C189.902 126.719 189.967 126.524 190.081 126.359C190.196 126.193 190.354 126.062 190.538 125.982Z" fill="#0C9787"/>
<path opacity="0.75" d="M190.538 125.982L199.536 120.793C199.995 120.558 200.509 120.451 201.023 120.484C201.537 120.517 202.033 120.688 202.458 120.98L208.441 125.549C208.617 125.65 208.762 125.798 208.858 125.976C208.954 126.155 208.997 126.357 208.984 126.559C208.971 126.762 208.9 126.956 208.782 127.121C208.663 127.285 208.501 127.413 208.313 127.489L199.314 132.672C198.857 132.91 198.342 133.018 197.828 132.985C197.313 132.952 196.817 132.779 196.393 132.485L190.445 127.916C190.269 127.818 190.124 127.672 190.026 127.496C189.929 127.32 189.882 127.121 189.892 126.92C189.902 126.719 189.967 126.524 190.081 126.359C190.196 126.193 190.354 126.062 190.538 125.982Z" fill="white"/>
<path d="M197.273 117.568L195.555 117.609L190.746 113.939C190.322 113.647 189.826 113.474 189.312 113.44C188.798 113.406 188.284 113.512 187.825 113.747L180.503 117.989L178.195 118.047V119.94C178.205 120.129 178.259 120.313 178.352 120.477C178.446 120.641 178.576 120.782 178.733 120.887L184.716 125.45C185.141 125.743 185.636 125.915 186.15 125.949C186.665 125.983 187.179 125.877 187.638 125.643L196.63 120.454C196.819 120.363 196.981 120.223 197.097 120.048C197.213 119.874 197.28 119.671 197.291 119.461L197.273 117.568Z" fill="#0C9787"/>
<path opacity="0.1" d="M197.273 117.568L195.555 117.609L190.746 113.939C190.322 113.647 189.826 113.474 189.312 113.44C188.798 113.406 188.284 113.512 187.825 113.747L180.503 117.989L178.195 118.047V119.94C178.205 120.129 178.259 120.313 178.352 120.477C178.446 120.641 178.576 120.782 178.733 120.887L184.716 125.45C185.141 125.743 185.636 125.915 186.15 125.949C186.665 125.983 187.179 125.877 187.638 125.643L196.63 120.454C196.819 120.363 196.981 120.223 197.097 120.048C197.213 119.874 197.28 119.671 197.291 119.461L197.273 117.568Z" fill="black"/>
<path d="M178.831 117.054L187.829 111.865C188.288 111.631 188.802 111.525 189.316 111.559C189.831 111.593 190.326 111.765 190.751 112.058L196.734 116.621C196.91 116.722 197.054 116.87 197.15 117.049C197.246 117.227 197.29 117.429 197.277 117.632C197.263 117.834 197.193 118.028 197.074 118.193C196.956 118.357 196.793 118.485 196.605 118.561L187.613 123.75C187.154 123.984 186.64 124.09 186.126 124.056C185.611 124.022 185.116 123.85 184.691 123.557L178.708 118.994C178.534 118.892 178.391 118.744 178.296 118.566C178.201 118.388 178.157 118.187 178.17 117.986C178.183 117.785 178.251 117.591 178.368 117.426C178.485 117.261 178.645 117.133 178.831 117.054Z" fill="#0C9787"/>
<path opacity="0.75" d="M178.831 117.054L187.829 111.865C188.288 111.631 188.802 111.525 189.316 111.559C189.831 111.593 190.326 111.765 190.751 112.058L196.734 116.621C196.91 116.722 197.054 116.87 197.15 117.049C197.246 117.227 197.29 117.429 197.277 117.632C197.263 117.834 197.193 118.028 197.074 118.193C196.956 118.357 196.793 118.485 196.605 118.561L187.613 123.75C187.154 123.984 186.64 124.09 186.126 124.056C185.611 124.022 185.116 123.85 184.691 123.557L178.708 118.994C178.534 118.892 178.391 118.744 178.296 118.566C178.201 118.388 178.157 118.187 178.17 117.986C178.183 117.785 178.251 117.591 178.368 117.426C178.485 117.261 178.645 117.133 178.831 117.054Z" fill="white"/>
<path d="M52.3483 62.3499V55.8699C52.3421 54.2638 51.6998 52.7256 50.5619 51.5921C49.4241 50.4587 47.8834 49.8223 46.2773 49.8223V56.3023C46.2835 57.9083 46.9259 59.4465 48.0637 60.58C49.2016 61.7135 50.7422 62.3499 52.3483 62.3499Z" fill="#263238"/>
<path d="M72.0964 115.546L52.6914 105.688L54.4443 138.293L73.8493 148.15L72.0964 115.546Z" fill="#0C9787"/>
<path opacity="0.5" d="M72.0964 115.546L52.6914 105.688L54.4443 138.293L73.8493 148.15L72.0964 115.546Z" fill="white"/>
<path d="M73.8467 148.151L82.9678 142.214L75.7457 113.174L72.0938 115.546L73.8467 148.151Z" fill="#0C9787"/>
<path d="M82.9726 142.214L76.779 141.746L73.8516 148.15L82.9726 142.214Z" fill="#0C9787"/>
<path opacity="0.3" d="M82.9726 142.214L76.779 141.746L73.8516 148.15L82.9726 142.214Z" fill="black"/>
<path d="M76.7816 141.747L71.9844 113.373L72.1012 115.546L73.8542 148.151L76.7816 141.747Z" fill="#0C9787"/>
<path opacity="0.1" d="M76.7816 141.747L71.9844 113.373L72.1012 115.546L73.8542 148.151L76.7816 141.747Z" fill="black"/>
<path d="M52.6914 105.688L56.4544 105.49L56.3375 103.316L75.7483 113.173L71.9795 113.372L72.0964 115.546L52.6914 105.688Z" fill="#0C9787"/>
<path d="M65.9447 114.412C65.9447 114.687 65.7694 114.815 65.5182 114.687C65.3863 114.61 65.2743 114.503 65.1911 114.376C65.1079 114.248 65.0558 114.102 65.0391 113.951C65.0391 113.67 65.2144 113.547 65.4656 113.67C65.5976 113.748 65.7096 113.856 65.7928 113.985C65.8759 114.113 65.928 114.26 65.9447 114.412Z" fill="#455A64"/>
<path d="M60.144 111.514C60.144 111.795 59.9687 111.923 59.7174 111.795C59.5865 111.717 59.4751 111.61 59.392 111.482C59.309 111.355 59.2564 111.21 59.2383 111.058C59.2383 110.778 59.4136 110.655 59.6648 110.778C59.797 110.854 59.9093 110.961 59.9925 111.089C60.0758 111.217 60.1277 111.362 60.144 111.514Z" fill="#455A64"/>
<path d="M69.4916 112.104C69.4916 112.385 69.3163 112.507 69.0651 112.379C68.9326 112.303 68.8201 112.196 68.7368 112.068C68.6535 111.94 68.6018 111.794 68.5859 111.643C68.5859 111.362 68.7612 111.239 69.0125 111.368C69.1449 111.444 69.2575 111.55 69.3408 111.678C69.4241 111.806 69.4758 111.952 69.4916 112.104Z" fill="#455A64"/>
<path d="M63.7299 109.177C63.7299 109.457 63.5546 109.58 63.3033 109.457C63.1704 109.38 63.0577 109.273 62.9744 109.144C62.8911 109.015 62.8396 108.868 62.8242 108.715C62.8242 108.435 62.9995 108.312 63.2508 108.441C63.3826 108.517 63.4946 108.624 63.5779 108.752C63.6611 108.88 63.7131 109.025 63.7299 109.177Z" fill="#455A64"/>
<path d="M75.7532 113.174L71.9844 113.372L76.7816 141.747L82.9753 142.214L75.7532 113.174Z" fill="#0C9787"/>
<path opacity="0.2" d="M75.7532 113.174L71.9844 113.372L76.7816 141.747L82.9753 142.214L75.7532 113.174Z" fill="black"/>
<path d="M56.3398 103.316L56.4567 105.49L56.5736 107.663L57.5611 108.16L56.3398 103.316Z" fill="#0C9787"/>
<path opacity="0.2" d="M56.3398 103.316L56.4567 105.49L56.5736 107.663L57.5611 108.16L56.3398 103.316Z" fill="black"/>
<path d="M47.6172 55.1395C50.2349 54.9993 55.5346 55.2213 57.4745 62.7355C59.1106 69.0461 63.5338 82.8592 64.6849 88.9944C65.5614 93.6689 66.765 96.9411 66.9403 100.202C66.6131 101.878 65.275 103.707 61.5939 104.292C58.088 103.363 58.7016 102.784 58.4561 99.6756C58.2107 96.5671 59.8117 95.6789 59.3034 91.9919C58.2399 84.2498 51.31 68.117 51.31 68.117L47.6172 55.1395Z" fill="#FFBDA7"/>
<path d="M69.0368 112.15C68.9743 112.149 68.9139 112.128 68.8653 112.088C68.8166 112.049 68.7823 111.995 68.768 111.934C68.768 111.893 67.9033 108.101 66.9391 105.226C66.1795 102.965 64.5084 102.457 63.0418 102.007C62.7146 101.907 62.4049 101.814 62.1244 101.709C62.0566 101.68 62.0024 101.627 61.973 101.559C61.9437 101.492 61.9414 101.416 61.9667 101.346C61.9796 101.312 61.9993 101.28 62.0246 101.253C62.0498 101.226 62.0801 101.205 62.1138 101.189C62.1475 101.174 62.1838 101.166 62.2207 101.165C62.2576 101.164 62.2944 101.17 62.3289 101.183C62.5977 101.288 62.9132 101.376 63.2054 101.475C64.7246 101.937 66.6178 102.515 67.4709 105.051C68.4408 107.973 69.3056 111.771 69.3114 111.811C69.32 111.847 69.3214 111.884 69.3154 111.92C69.3094 111.957 69.2963 111.991 69.2766 112.022C69.257 112.053 69.2314 112.08 69.2012 112.101C69.1711 112.122 69.137 112.137 69.1011 112.145L69.0368 112.15Z" fill="#263238"/>
<path d="M64.4894 96.9407C63.9133 98.0266 63.4831 99.1838 63.2098 100.382C63.1163 101.031 62.0412 100.523 61.825 99.6811C61.6523 98.3386 61.5781 96.9852 61.6029 95.6318C61.6029 95.6318 61.1004 98.2203 61.3751 99.4532C61.6497 100.686 61.9594 100.932 62.8592 101.206C63.759 101.481 63.6188 100.686 63.8292 99.6577C64.0395 98.6293 64.4894 96.9407 64.4894 96.9407Z" fill="#9A4A4D"/>
<path d="M65.1621 114.032L64.759 106.5C64.6772 104.841 64.5778 102.954 61.779 101.516C60.7973 101.014 60.0728 100.868 59.7281 101.113C59.3833 101.359 59.471 101.966 59.471 101.972L59.9676 111.216C59.9579 111.283 59.9245 111.343 59.8736 111.388C59.8226 111.432 59.7575 111.456 59.6901 111.456C59.6227 111.456 59.5575 111.432 59.5066 111.388C59.4556 111.343 59.4222 111.283 59.4125 111.216L58.9159 102.001C58.8779 101.751 58.9022 101.495 58.9868 101.257C59.0715 101.018 59.2137 100.804 59.4008 100.634C59.9442 100.243 60.809 100.359 62.0361 100.99C65.1212 102.58 65.2323 104.718 65.3141 106.442L65.7231 113.962C65.7263 114.037 65.6999 114.11 65.6496 114.166C65.5994 114.222 65.5292 114.256 65.4543 114.26C65.3862 114.264 65.319 114.243 65.2652 114.201C65.2115 114.159 65.1748 114.099 65.1621 114.032Z" fill="#263238"/>
<path d="M63.2696 109.141C63.2071 109.14 63.1467 109.119 63.098 109.079C63.0493 109.04 63.0151 108.986 63.0008 108.925L61.7562 103.292C61.7485 103.256 61.748 103.219 61.7547 103.183C61.7614 103.146 61.7751 103.112 61.7952 103.081C61.8153 103.05 61.8413 103.023 61.8717 103.002C61.9021 102.982 61.9363 102.967 61.9724 102.959C62.0451 102.945 62.1204 102.96 62.1825 103C62.2446 103.041 62.2887 103.103 62.3055 103.175L63.5442 108.802C63.5528 108.838 63.5542 108.875 63.5482 108.911C63.5422 108.948 63.529 108.982 63.5094 109.013C63.4898 109.044 63.4641 109.071 63.434 109.092C63.4038 109.113 63.3698 109.128 63.3338 109.135L63.2696 109.141Z" fill="#263238"/>
<path d="M61.381 101.329C60.3234 100.686 58.2667 99.7455 57.7875 100.318C57.3084 100.891 56.6949 103.24 59.0788 104.069C60.6675 104.512 62.3624 104.367 63.8527 103.66L61.381 101.329Z" fill="#F0997A"/>
<path d="M43.7873 51.2833H41.5026C38.4032 51.2833 35.4308 50.0521 33.2392 47.8605C31.0476 45.6689 29.8164 42.6965 29.8164 39.5971C29.8164 36.2885 31.1307 33.1154 33.4703 30.7759C35.8098 28.4364 38.9829 27.1221 42.2914 27.1221H43.0218C46.3243 27.1283 49.4896 28.4437 51.8238 30.78C54.1579 33.1164 55.4704 36.2829 55.4735 39.5854C55.475 41.121 55.1739 42.6419 54.5873 44.0611C54.0007 45.4803 53.1401 46.77 52.0548 47.8564C50.9695 48.9428 49.6807 49.8046 48.2621 50.3926C46.8435 50.9806 45.3229 51.2833 43.7873 51.2833Z" fill="#263238"/>
<path d="M31.4281 30.4064C31.8647 30.4939 32.2489 30.7509 32.4964 31.121C32.7439 31.4912 32.8346 31.9444 32.7486 32.3814L29.4531 31.7094C29.5446 31.276 29.8032 30.8961 30.1729 30.6522C30.5427 30.4083 30.9937 30.3199 31.4281 30.4064Z" fill="#263238"/>
<path d="M33.584 29.6926C33.6524 29.902 33.6788 30.1229 33.6618 30.3426C33.6448 30.5623 33.5846 30.7765 33.4848 30.973C33.3849 31.1694 33.2473 31.3443 33.0799 31.4875C32.9124 31.6307 32.7184 31.7396 32.5088 31.8078L31.4688 28.6116C31.6786 28.5433 31.8999 28.5171 32.1199 28.5345C32.3398 28.5519 32.5542 28.6126 32.7507 28.713C32.9472 28.8134 33.122 28.9516 33.265 29.1197C33.408 29.2878 33.5164 29.4825 33.584 29.6926Z" fill="#263238"/>
<path d="M50.0662 183.629C49.3008 183.045 48.436 182.496 47.7641 181.876C46.2741 180.515 45.8183 177.067 45.7073 175.905C45.5933 174.915 45.5835 173.916 45.6781 172.925C45.9761 170.587 47.694 165.451 47.694 165.451C47.694 165.451 42.1605 161.811 42.0787 161.858C41.9969 161.905 41.0796 168.548 40.1739 169.635C39.0754 170.599 38.1346 170.868 37.5153 172.142C36.9719 173.714 37.1939 174.561 38.0295 176.197C38.6471 177.614 39.1057 179.096 39.3967 180.614C39.87 182.531 39.6714 185.669 44.4335 186.627C46.9577 187.135 48.7048 186.796 49.9085 186.259C51.2641 185.657 51.2524 184.523 50.0662 183.629Z" fill="#FFBDA7"/>
<path d="M37.5153 172.148C36.9719 173.72 37.1939 174.567 38.0295 176.203C38.6471 177.621 39.1057 179.102 39.3967 180.621C39.87 182.537 39.6714 185.675 44.4335 186.633C46.9577 187.142 48.7048 186.803 49.9085 186.265C51.2641 185.681 51.2524 184.512 50.0662 183.63C49.4819 183.174 48.8041 182.736 48.2257 182.268C48.8567 183.402 45.8242 183.671 44.0771 182.625C42.33 181.579 40.1505 174.211 39.9343 172.563C39.8033 171.583 39.885 170.587 40.1739 169.641C40.2382 169.554 40.32 169.425 40.32 169.425C40.32 169.425 40.133 169.349 39.9343 169.501C38.9251 170.174 38.0949 171.083 37.5153 172.148Z" fill="#263238"/>
<path d="M55.9066 87.9077C56.7597 97.2567 59.3424 129.324 58.647 135.365C58.3373 138.106 46.7213 168.607 46.7213 168.607C46.7213 168.607 43.8874 169.477 41.2171 166.451C42.596 153.339 43.9166 139.292 46.7797 134.939C46.2363 130.428 40.6094 107.955 40.6094 107.955L55.9066 87.9077Z" fill="#37474F"/>
<path d="M34.9393 179.049V178.225C35.2665 179.189 36.7799 183.361 39.0704 185.447C40.8876 187.112 43.3709 189.029 44.002 190.881C44.633 192.733 40.5487 193.452 38.8483 193.148C36.8675 192.803 34.3141 191.682 32.9234 189.97C31.9418 188.766 31.3166 187.34 30.6213 186.394C29.9259 185.447 28.284 184.395 27.9334 183.303C27.7231 182.718 27.9743 181.38 28.2606 180.27C28.547 179.16 28.845 178.126 29.1722 178.225V178.85C29.587 179.318 30.7498 179.779 32.0528 179.826C32.9001 179.861 34.951 179.692 34.9393 179.049Z" fill="#263238"/>
<path d="M40.7218 186.907C40.1374 186.405 39.5882 185.914 39.074 185.441C37.473 183.986 36.2518 181.508 35.5681 179.82C35.1766 178.855 34.9781 177.823 34.9838 176.781V173.492H29.1758V178.844V178.984C29.4504 180.182 32.0973 183.372 33.6049 185.453C34.6157 186.849 36.5264 188.619 38.8227 188.929C41.0197 189.239 42.1299 188.555 40.7218 186.907Z" fill="#FFBDA7"/>
<path d="M30.3407 89.3393C25.8648 99.1148 30.5043 133.542 30.5043 133.542C30.3699 135.132 28.5527 138.252 27.8807 145.229C27.0802 153.473 29.1311 174.187 29.1311 174.187C30.0122 174.7 31.0056 174.989 32.0243 175.028C33.043 175.068 34.0559 174.857 34.9742 174.415C34.9742 174.415 40.4784 143.224 41.5127 135.026C42.4125 127.869 44.89 105.852 44.89 105.852L55.9334 87.9019L30.3407 89.3393Z" fill="#37474F"/>
<path d="M39.8593 55.2565L33.8468 55.5428C33.0229 55.7999 30.8083 57.88 29.9377 61.0645C29.3143 63.6861 29.4542 66.4314 30.3409 68.9761L34.3376 80.5396C34.3376 80.5396 32.4678 85.068 30.2942 89.3393C40.3268 94.9428 52.8544 91.9979 55.8753 87.9077C55.998 87.0429 55.8285 83.1339 56.0681 78.6931C56.331 73.9485 56.9796 68.5963 56.2375 65.6689C54.8527 60.2289 52.2584 55.1221 47.0989 55.1221L39.8593 55.2565Z" fill="#0C9787"/>
<path d="M51.2409 32.293C52.5965 33.0935 54.2735 36.5058 54.1099 43.6578C53.9697 49.7171 52.0005 51.2129 51.0189 51.6453C50.0372 52.0777 48.1266 51.8148 46.2801 51.5051V55.1453C46.2801 55.1453 48.8336 58.1136 48.6758 59.7789C48.518 61.4442 44.983 61.8415 42.5931 60.2113C41.0417 59.1036 39.7101 57.7165 38.6666 56.1211V48.0693C38.1238 48.2629 37.543 48.3256 36.9714 48.2525C36.3998 48.1794 35.8535 47.9725 35.3769 47.6486C33.3201 46.3164 33.2675 42.9216 34.4362 41.7179C35.6048 40.5142 38.1816 40.894 38.6607 42.5593C38.6607 42.5593 41.6115 42.6645 45.5381 40.5084C47.068 39.6843 48.3818 38.5107 49.3727 37.0832C50.3637 35.6557 51.0038 34.0145 51.2409 32.293Z" fill="#FFBDA7"/>
<path d="M47.6011 42.2268C47.6033 42.3771 47.5611 42.5248 47.4798 42.6513C47.3986 42.7778 47.2819 42.8776 47.1443 42.9382C47.0067 42.9988 46.8543 43.0175 46.7061 42.992C46.5579 42.9666 46.4205 42.898 46.311 42.7949C46.2016 42.6919 46.1249 42.5588 46.0905 42.4124C46.0562 42.2661 46.0657 42.1128 46.118 41.9718C46.1702 41.8308 46.2628 41.7083 46.3842 41.6196C46.5056 41.5309 46.6504 41.4799 46.8006 41.473C46.9027 41.4699 47.0044 41.4869 47.0999 41.5231C47.1953 41.5593 47.2827 41.614 47.3571 41.684C47.4314 41.754 47.4912 41.838 47.5331 41.9311C47.575 42.0242 47.5981 42.1247 47.6011 42.2268Z" fill="#263238"/>
<path d="M47.5379 47.2871L49.2908 47.8714C49.2596 47.9922 49.2038 48.1053 49.1271 48.2036C49.0503 48.302 48.9542 48.3836 48.8446 48.4433C48.7351 48.503 48.6144 48.5396 48.4902 48.5507C48.3659 48.5619 48.2407 48.5475 48.1222 48.5083C47.8858 48.4199 47.6928 48.2432 47.5839 48.0155C47.4749 47.7878 47.4584 47.5267 47.5379 47.2871Z" fill="#F0997A"/>
<path d="M53.5855 39.8073L52.043 38.7205C52.1075 38.6166 52.1925 38.527 52.2927 38.4571C52.393 38.3872 52.5065 38.3384 52.6262 38.3138C52.746 38.2892 52.8695 38.2893 52.9892 38.314C53.1089 38.3387 53.2224 38.3875 53.3226 38.4575C53.5333 38.6042 53.6785 38.8272 53.7276 39.0791C53.7767 39.3311 53.7258 39.5923 53.5855 39.8073Z" fill="#263238"/>
<path d="M53.3668 42.0982C53.3689 42.2486 53.3267 42.3962 53.2455 42.5227C53.1642 42.6492 53.0475 42.749 52.9099 42.8096C52.7723 42.8702 52.6199 42.8889 52.4717 42.8635C52.3235 42.838 52.1861 42.7694 52.0766 42.6664C51.9672 42.5633 51.8905 42.4303 51.8562 42.2839C51.8218 42.1375 51.8314 41.9842 51.8836 41.8432C51.9358 41.7022 52.0284 41.5797 52.1498 41.491C52.2712 41.4023 52.416 41.3513 52.5662 41.3444C52.772 41.3397 52.9713 41.4161 53.1211 41.5572C53.2709 41.6982 53.3591 41.8926 53.3668 42.0982Z" fill="#263238"/>
<path d="M49.6406 41.1572L49.7633 45.7499L52.1765 45.002L49.6406 41.1572Z" fill="#F0997A"/>
<path d="M46.2766 51.5171C44.325 51.2658 40.3166 50.1089 39.6914 48.5254C39.9419 49.328 40.4336 50.034 41.0996 50.5471C42.2682 51.5755 46.2766 52.7324 46.2766 52.7324V51.5171Z" fill="#F0997A"/>
<path d="M45.0577 126.519L43.3398 119.168L44.8532 105.858C44.8532 105.858 49.6153 104.064 52.1396 100.377C51.0151 103.064 49.1382 105.369 46.7347 107.015L44.1404 119.133L45.0577 126.519Z" fill="#263238"/>
<path d="M40.4771 112.21L19.588 100.149L15.4102 135.325L36.2992 147.385L40.4771 112.21Z" fill="#0C9787"/>
<path opacity="0.5" d="M40.4771 112.21L19.588 100.149L15.4102 135.325L36.2992 147.385L40.4771 112.21Z" fill="white"/>
<path d="M46.7463 141.355L40.4825 140.145L36.3047 147.385L46.7463 141.355Z" fill="#0C9787"/>
<path opacity="0.3" d="M46.7463 141.355L40.4825 140.145L36.3047 147.385L46.7463 141.355Z" fill="black"/>
<path d="M40.4825 140.145L42.5685 108.592L40.4825 112.209L36.3047 147.385L40.4825 140.145Z" fill="#0C9787"/>
<path opacity="0.1" d="M40.4825 140.145L42.5685 108.592L40.4825 112.209L36.3047 147.385L40.4825 140.145Z" fill="black"/>
<path d="M19.5898 100.149L25.8536 98.9454V96.5322L46.7427 108.592H42.5649L40.4789 112.209L19.5898 100.149Z" fill="#0C9787"/>
<path d="M32.8117 111.865C32.8117 112.174 32.5897 112.297 32.3209 112.145C32.1796 112.051 32.0621 111.926 31.9779 111.779C31.8937 111.632 31.8451 111.467 31.8359 111.298C31.8359 110.988 32.0521 110.86 32.3209 111.017C32.4636 111.11 32.5825 111.235 32.6678 111.382C32.753 111.529 32.8024 111.695 32.8117 111.865Z" fill="#455A64"/>
<path d="M26.6789 107.973C26.6789 108.288 26.4627 108.411 26.1881 108.259C26.0468 108.166 25.9293 108.04 25.8451 107.893C25.7609 107.746 25.7123 107.581 25.7031 107.412C25.7031 107.102 25.9193 106.974 26.1881 107.132C26.3314 107.222 26.4507 107.346 26.5362 107.492C26.6216 107.639 26.6705 107.804 26.6789 107.973Z" fill="#455A64"/>
<path d="M39.2922 107.669C39.2922 107.979 39.076 108.108 38.8072 107.95C38.665 107.858 38.5463 107.734 38.4611 107.588C38.3758 107.442 38.3262 107.277 38.3164 107.109C38.3164 106.793 38.5384 106.67 38.8072 106.822C38.9485 106.916 39.066 107.041 39.1502 107.188C39.2344 107.335 39.283 107.5 39.2922 107.669Z" fill="#455A64"/>
<path d="M33.1008 104.21C33.1008 104.52 32.8788 104.648 32.61 104.491C32.4685 104.399 32.3507 104.275 32.2665 104.128C32.1822 103.982 32.1337 103.818 32.125 103.649C32.125 103.34 32.3412 103.211 32.61 103.369C32.7522 103.461 32.8709 103.585 32.9561 103.731C33.0414 103.877 33.091 104.041 33.1008 104.21Z" fill="#455A64"/>
<path d="M46.7482 108.592H42.5704L40.4844 140.145L46.7482 141.355V108.592Z" fill="#0C9787"/>
<path d="M25.8536 98.9458V103.766L19.5898 100.149L25.8536 98.9458Z" fill="#0C9787"/>
<path opacity="0.2" d="M46.7482 108.592H42.5704L40.4844 140.145L46.7482 141.355V108.592Z" fill="black"/>
<path opacity="0.2" d="M25.8536 98.9458V103.766L19.5898 100.149L25.8536 98.9458Z" fill="black"/>
<path d="M26.1992 107.879C26.1626 107.888 26.1247 107.888 26.0882 107.879C26.0177 107.847 25.9621 107.79 25.9328 107.718C25.9035 107.646 25.9026 107.566 25.9304 107.494L31.2476 94.9136C31.2786 94.8421 31.3362 94.7856 31.4083 94.7561C31.4804 94.7266 31.5611 94.7265 31.6333 94.7558C31.7038 94.7879 31.7594 94.8456 31.7887 94.9173C31.818 94.989 31.8188 95.0692 31.791 95.1414L26.4738 107.722C26.447 107.771 26.4071 107.811 26.3587 107.839C26.3102 107.867 26.255 107.881 26.1992 107.879Z" fill="#263238"/>
<path d="M32.6164 104.163C32.5389 104.163 32.4646 104.132 32.4098 104.078C32.355 104.023 32.3242 103.948 32.3242 103.871V95.1647C32.3242 95.0872 32.355 95.0129 32.4098 94.9581C32.4646 94.9033 32.5389 94.8726 32.6164 94.8726C32.6939 94.8726 32.7682 94.9033 32.823 94.9581C32.8777 95.0129 32.9085 95.0872 32.9085 95.1647V103.877C32.907 103.953 32.8755 104.026 32.8209 104.08C32.7663 104.133 32.6929 104.163 32.6164 104.163Z" fill="#263238"/>
<path d="M22.7481 81.6563L30.8524 70.3148C32.1432 69.0096 33.115 67.4238 33.6922 65.6812C35.1062 61.1996 35.3283 58.5702 33.8441 55.5435C30.5486 55.5435 28.6204 55.8765 24.8749 62.2163C21.819 67.3874 17.2789 76.2047 16.1687 78.1095C14.7839 80.4468 14.3807 81.0953 15.5844 83.4092C16.7881 85.7231 21.3223 91.6655 25.1379 96.1355C28.9534 100.605 31.1855 102.113 34.0369 102.773C36.8884 103.434 38.1622 102.878 39.769 101.4C41.3759 99.9218 40.2423 98.6071 38.7465 98.2624C37.3276 97.9558 35.9744 97.3999 34.7498 96.6205C33.8441 95.966 33.5812 95.4518 34.405 95.4168C35.4919 95.37 36.5086 95.1539 36.789 94.3942C37.1396 93.4418 36.2398 93.6989 34.9952 93.3133C33.3873 92.8249 31.7323 92.5076 30.0578 92.3667C28.0069 92.4777 22.7481 81.6563 22.7481 81.6563Z" fill="#FFBDA7"/>
<path d="M37.8693 49.7349H38.6698V57.3309C38.6698 58.8016 38.0856 60.212 37.0457 61.2519C36.0058 62.2918 34.5954 62.876 33.1247 62.876H32.3242V55.28C32.3242 53.8093 32.9084 52.3989 33.9483 51.359C34.9883 50.3191 36.3987 49.7349 37.8693 49.7349Z" fill="#263238"/>
<path d="M38.5218 107.307V100.71C38.5218 99.7462 38.2355 98.2094 37.4467 97.9231C37.4096 97.9109 37.3753 97.8913 37.3459 97.8656C37.3165 97.8399 37.2926 97.8085 37.2755 97.7734C37.2584 97.7383 37.2486 97.7001 37.2465 97.6611C37.2444 97.6221 37.2502 97.583 37.2635 97.5463C37.2768 97.5096 37.2973 97.4759 37.3238 97.4472C37.3504 97.4185 37.3824 97.3955 37.418 97.3794C37.4536 97.3633 37.4921 97.3546 37.5311 97.3536C37.5702 97.3526 37.609 97.3595 37.6454 97.3739C39.0652 97.8939 39.1061 100.424 39.1061 100.71V107.307C39.1061 107.385 39.0753 107.459 39.0206 107.514C38.9658 107.569 38.8915 107.599 38.814 107.599C38.7365 107.599 38.6622 107.569 38.6074 107.514C38.5526 107.459 38.5218 107.385 38.5218 107.307Z" fill="#263238"/>
<path d="M32.394 111.835C32.3573 111.84 32.3198 111.84 32.283 111.835C32.2471 111.82 32.2145 111.798 32.1871 111.771C32.1597 111.743 32.138 111.711 32.1233 111.675C32.1086 111.639 32.1012 111.601 32.1016 111.562C32.1019 111.523 32.11 111.485 32.1253 111.449C32.1253 111.414 33.5568 108.048 35.2455 103.222C36.8874 98.5475 36.3089 97.6126 35.9817 97.4373C35.9479 97.419 35.918 97.3941 35.8938 97.3642C35.8696 97.3343 35.8516 97.2999 35.8407 97.263C35.8299 97.226 35.8264 97.1873 35.8305 97.1491C35.8347 97.1108 35.8463 97.0737 35.8648 97.04C35.903 96.9728 35.9658 96.9231 36.0399 96.9013C36.114 96.8795 36.1937 96.8873 36.2622 96.9231C37.2964 97.5075 37.1503 99.5467 35.8006 103.415C34.1061 108.253 32.6804 111.624 32.6804 111.659C32.6572 111.715 32.617 111.762 32.5656 111.793C32.5142 111.825 32.4542 111.839 32.394 111.835Z" fill="#263238"/>
</svg>
