<svg width="193" height="156" viewBox="0 0 193 156" fill="none" xmlns="http://www.w3.org/2000/svg">
<path d="M192.666 138.127H0.335938V138.224H192.666V138.127Z" fill="#EBEBEB"/>
<path d="M173.396 144.318H160.656V144.414H173.396V144.318Z" fill="#EBEBEB"/>
<path d="M127.741 145.363H124.398V145.459H127.741V145.363Z" fill="#EBEBEB"/>
<path d="M160.272 140.749H152.891V140.845H160.272V140.749Z" fill="#EBEBEB"/>
<path d="M37.1291 141.391H20.5156V141.487H37.1291V141.391Z" fill="#EBEBEB"/>
<path d="M42.9896 141.391H40.5547V141.487H42.9896V141.391Z" fill="#EBEBEB"/>
<path d="M86.9412 143.017H50.9062V143.113H86.9412V143.017Z" fill="#EBEBEB"/>
<path d="M91.4979 120.971H17.2238C16.642 120.97 16.0843 120.738 15.6732 120.326C15.2621 119.914 15.0312 119.356 15.0313 118.774V14.3659C15.0363 13.7874 15.2694 13.2342 15.68 12.8266C16.0905 12.4189 16.6453 12.1897 17.2238 12.1887H91.4979C92.0805 12.1887 92.6391 12.4201 93.051 12.832C93.463 13.2439 93.6944 13.8026 93.6944 14.3851V118.774C93.6944 119.357 93.463 119.916 93.051 120.327C92.6391 120.739 92.0805 120.971 91.4979 120.971ZM17.2238 12.2657C16.6675 12.2667 16.1342 12.4884 15.7412 12.8822C15.3482 13.2759 15.1274 13.8095 15.1274 14.3659V118.774C15.1274 119.331 15.3482 119.864 15.7412 120.258C16.1342 120.652 16.6675 120.874 17.2238 120.875H91.4979C92.0547 120.874 92.5883 120.652 92.9819 120.258C93.3756 119.865 93.5972 119.331 93.5982 118.774V14.3659C93.5972 13.8092 93.3756 13.2756 92.9819 12.8819C92.5883 12.4883 92.0547 12.2667 91.4979 12.2657H17.2238Z" fill="#EBEBEB"/>
<path d="M174.709 120.971H100.431C99.8486 120.97 99.2905 120.738 98.8788 120.326C98.4671 119.915 98.2354 119.357 98.2344 118.774V14.3659C98.2404 13.787 98.4744 13.2339 98.8856 12.8263C99.2967 12.4188 99.8519 12.1897 100.431 12.1887H174.709C175.287 12.1907 175.84 12.4204 176.25 12.8279C176.66 13.2355 176.892 13.788 176.897 14.3659V118.774C176.897 119.356 176.667 119.913 176.257 120.325C175.847 120.736 175.29 120.969 174.709 120.971ZM100.431 12.2657C99.8741 12.2667 99.3405 12.4883 98.9468 12.8819C98.5532 13.2756 98.3316 13.8092 98.3305 14.3659V118.774C98.3316 119.331 98.5532 119.865 98.9468 120.258C99.3405 120.652 99.8741 120.874 100.431 120.875H174.709C175.265 120.874 175.799 120.652 176.193 120.258C176.586 119.865 176.808 119.331 176.809 118.774V14.3659C176.808 13.8092 176.586 13.2756 176.193 12.8819C175.799 12.4883 175.265 12.2667 174.709 12.2657H100.431Z" fill="#EBEBEB"/>
<path d="M153.555 28.2607H104.68V138.128H153.555V28.2607Z" fill="#F0F0F0"/>
<path d="M153.547 28.2607H105.703V138.128H153.547V28.2607Z" fill="#F5F5F5"/>
<path d="M150.633 135.631V30.7493L108.62 30.7493V135.631H150.633Z" fill="#F0F0F0"/>
<path d="M112.75 50.268C112.748 48.7634 113.043 47.2732 113.618 45.8825C114.192 44.4919 115.035 43.2281 116.098 42.1632C117.161 41.0984 118.424 40.2534 119.813 39.6766C121.203 39.0997 122.693 38.8023 124.198 38.8013H135.045C136.551 38.7998 138.043 39.0953 139.434 39.6711C140.826 40.2469 142.09 41.0915 143.155 42.1566C144.22 43.2218 145.064 44.4865 145.639 45.8784C146.215 47.2702 146.51 48.7619 146.508 50.268H112.75Z" fill="#FAFAFA"/>
<path d="M146.508 129.113V104.056H112.754V129.113H146.508Z" fill="#F5F5F5"/>
<path d="M112.743 100.829H127.633V57.3273H112.743V100.829Z" fill="#F5F5F5"/>
<path d="M131.618 100.829H146.508V57.3273H131.618V100.829Z" fill="#F5F5F5"/>
<path d="M141.118 78.8791H147.215C147.466 78.8791 147.707 78.7794 147.884 78.6019C148.062 78.4245 148.161 78.1838 148.161 77.9328C148.16 77.6822 148.06 77.4421 147.883 77.2648C147.706 77.0876 147.466 76.9876 147.215 76.9866H141.118C140.867 76.9866 140.626 77.0863 140.449 77.2637C140.272 77.4412 140.172 77.6819 140.172 77.9328C140.172 78.1838 140.272 78.4245 140.449 78.6019C140.626 78.7794 140.867 78.8791 141.118 78.8791Z" fill="#E0E0E0"/>
<path d="M150.633 135.631V30.7493H149.875V135.631H150.633Z" fill="#F0F0F0"/>
<path d="M27.4141 95.4409H73.9157V29.6216C73.9157 24.3787 27.4141 24.3787 27.4141 29.6216V95.4409Z" fill="#E0E0E0"/>
<path d="M28.4844 95.4409H74.9822V29.6216C74.9822 24.3787 28.4805 24.3787 28.4844 29.6216V95.4409Z" fill="#EBEBEB"/>
<path d="M72.6709 92.1456V30.9268C72.6718 30.7216 72.609 30.5211 72.4912 30.353C72.3734 30.1849 72.2064 30.0575 72.0132 29.9883C69.4321 29.0612 62.3966 28.0034 51.73 28.0034C41.0634 28.0034 34.0356 29.0612 31.4468 29.9883C31.2536 30.0575 31.0866 30.1849 30.9688 30.353C30.851 30.5211 30.7882 30.7216 30.7891 30.9268V92.1456C30.7891 92.4088 30.8936 92.6612 31.0797 92.8474C31.2659 93.0335 31.5183 93.138 31.7815 93.138H71.6785C71.9417 93.138 72.1941 93.0335 72.3803 92.8474C72.5664 92.6612 72.6709 92.4088 72.6709 92.1456Z" fill="#FAFAFA"/>
<path d="M62.8427 28.4458L70.0936 93.138H59.5039L52.1953 28.0034C56.3189 28.015 59.8808 28.1881 62.8427 28.4458Z" fill="white"/>
<path d="M49.1557 28.0239L56.4643 93.1354H50.6059L43.3281 28.2432C45.1014 28.1355 47.0478 28.0585 49.1557 28.0239Z" fill="white"/>
<path d="M44.7969 93.9916L44.7969 27.0068H42.7659L42.7659 93.9916H44.7969Z" fill="#EBEBEB"/>
<path d="M61.1641 93.9916L61.1641 27.0068H59.1331L59.1331 93.9916H61.1641Z" fill="#EBEBEB"/>
<path d="M59.1328 93.988L59.1328 27.0032H58.7674L58.7674 93.988H59.1328Z" fill="#E0E0E0"/>
<path d="M42.7734 93.988L42.7734 27.0032H42.408L42.408 93.988H42.7734Z" fill="#E0E0E0"/>
<path d="M30.0393 43.7878L73.8906 43.7878V41.7568L30.0393 41.7568V43.7878Z" fill="#EBEBEB"/>
<path d="M29.6536 97.0713H77.0938V94.8287H29.6536V97.0713Z" fill="#F5F5F5"/>
<path d="M29.6605 94.8223H27.4141V97.0648H29.6605V94.8223Z" fill="#E0E0E0"/>
<path d="M160.746 19.989H172.344V16.7117H160.746V19.989Z" fill="#F0F0F0"/>
<path d="M154.942 23.2693H166.539V19.992H154.942V23.2693Z" fill="#E6E6E6"/>
<path d="M79.1915 68.2078H90.7891V64.9305H79.1915V68.2078Z" fill="#F5F5F5"/>
<path d="M61.9806 109.46H73.5781V106.183H61.9806V109.46Z" fill="#F5F5F5"/>
<path d="M172.348 109.853H160.75V113.13H172.348V109.853Z" fill="#E6E6E6"/>
<path d="M73.3947 9.73193L84.9922 9.73193V6.45462L73.3947 6.45462V9.73193Z" fill="#F0F0F0"/>
<path d="M30.7853 129.367H42.3828V126.09H30.7853V129.367Z" fill="#F5F5F5"/>
<path d="M21.6212 105.571H33.2188V102.294H21.6212V105.571Z" fill="#F5F5F5"/>
<path d="M36.59 132.643H48.1875V129.366H36.59V132.643Z" fill="#F0F0F0"/>
<path d="M40.0819 17.1858H28.4844V20.4631H40.0819V17.1858Z" fill="#F0F0F0"/>
<path d="M96.5037 155.5C137.694 155.5 171.086 153.55 171.086 151.146C171.086 148.741 137.694 146.791 96.5037 146.791C55.3133 146.791 21.9219 148.741 21.9219 151.146C21.9219 153.55 55.3133 155.5 96.5037 155.5Z" fill="#F5F5F5"/>
<path d="M51.16 40.0161C48.8829 40.52 46.2364 43.7127 48.8521 46.9707C51.4678 50.2288 47.0865 48.8056 46.4056 54.5062C45.7248 60.2069 50.9216 59.2491 49.2906 62.988C47.6596 66.7269 58.9802 72.6507 66.0426 68.1617C73.1049 63.6727 73.7666 54.0062 71.5586 50.5904C69.3506 47.1746 66.1272 46.9592 67.5889 43.3011C69.0506 39.6429 67.3273 35.8386 62.7691 35.804C59.3302 35.7771 61.392 33.373 56.6607 33.3922C52.7141 33.4114 49.2252 36.181 51.16 40.0161Z" fill="#263238"/>
<path d="M63.8263 44.7825C63.6042 44.7825 63.387 44.8484 63.2023 44.9718C63.0176 45.0952 62.8736 45.2706 62.7886 45.4759C62.7036 45.6811 62.6814 45.9069 62.7247 46.1248C62.768 46.3427 62.875 46.5428 63.0321 46.6999C63.1892 46.857 63.3893 46.964 63.6072 47.0073C63.8251 47.0507 64.0509 47.0284 64.2562 46.9434C64.4614 46.8584 64.6368 46.7144 64.7602 46.5297C64.8837 46.345 64.9495 46.1278 64.9495 45.9057C64.9501 45.758 64.9213 45.6118 64.8651 45.4752C64.8088 45.3387 64.7261 45.2147 64.6217 45.1103C64.5173 45.0059 64.3933 44.9232 64.2568 44.8669C64.1203 44.8107 63.974 44.782 63.8263 44.7825ZM63.8263 46.7635C63.6558 46.7635 63.489 46.7128 63.3472 46.618C63.2055 46.5231 63.095 46.3883 63.0299 46.2307C62.9648 46.073 62.948 45.8996 62.9815 45.7323C63.0151 45.5651 63.0975 45.4116 63.2184 45.2912C63.3393 45.1709 63.4932 45.0891 63.6606 45.0563C63.828 45.0235 64.0014 45.0411 64.1587 45.1069C64.3161 45.1727 64.4504 45.2837 64.5446 45.4259C64.6388 45.5681 64.6887 45.7351 64.688 45.9057C64.688 46.0187 64.6657 46.1305 64.6223 46.2348C64.579 46.3392 64.5154 46.4339 64.4354 46.5136C64.3553 46.5933 64.2603 46.6564 64.1558 46.6993C64.0513 46.7422 63.9393 46.764 63.8263 46.7635Z" fill="white"/>
<path d="M73.2839 55.7269C73.2713 55.7251 73.2593 55.7207 73.2484 55.714C73.2376 55.7073 73.2283 55.6985 73.2211 55.688C73.2139 55.6775 73.2089 55.6657 73.2065 55.6532C73.204 55.6407 73.2042 55.6278 73.207 55.6154C73.5532 53.8229 72.1569 52.0881 70.6798 50.2301C68.9527 48.0876 66.9986 45.6565 67.6871 42.76C68.2757 40.2905 68.0141 38.2287 66.9486 36.9517C66.0792 35.9092 64.7214 35.413 62.9173 35.5207C61.2633 35.6053 60.7748 35.1361 60.2555 34.6822C59.7362 34.2283 59.0476 33.5859 56.6743 33.6013C56.6494 33.6013 56.6255 33.5917 56.6076 33.5745C56.5897 33.5573 56.5791 33.5338 56.5781 33.5089C56.5781 33.4831 56.5881 33.4582 56.606 33.4396C56.624 33.4209 56.6484 33.4099 56.6743 33.4089H56.7551C59.1477 33.4089 59.8054 34.009 60.3863 34.5398C60.894 35.0053 61.3364 35.4092 62.9096 35.3284C64.7752 35.2322 66.1869 35.7361 67.0986 36.8286C68.2026 38.1556 68.4757 40.2905 67.8679 42.8062C67.2024 45.6104 69.0411 47.8991 70.8221 50.1147C72.3261 51.988 73.7494 53.7575 73.3878 55.6346C73.3873 55.6476 73.3842 55.6603 73.3787 55.6721C73.3731 55.6838 73.3653 55.6943 73.3556 55.703C73.3459 55.7116 73.3345 55.7182 73.3222 55.7223C73.3099 55.7264 73.2969 55.728 73.2839 55.7269Z" fill="#263238"/>
<path d="M82.3268 48.3707L81.8114 49.3785C81.7146 49.5651 81.6641 49.7722 81.6641 49.9824C81.6641 50.1926 81.7146 50.3998 81.8114 50.5863L82.723 52.3558C82.9028 52.7048 83.1635 53.0056 83.4834 53.2332C83.8033 53.4607 84.173 53.6083 84.5617 53.6636L85.0464 53.7329C86.0234 52.1211 85.8888 49.6593 85.8888 49.6593L85.9272 48.9554C85.9398 48.8107 85.9236 48.665 85.8794 48.5266C85.8353 48.3883 85.764 48.2601 85.6699 48.1496C85.5758 48.039 85.4606 47.9482 85.3312 47.8825C85.2017 47.8168 85.0604 47.7774 84.9156 47.7668L83.5193 47.6706C83.2742 47.66 83.0312 47.7205 82.8197 47.8447C82.6082 47.9689 82.437 48.1515 82.3268 48.3707Z" fill="#FFC3BD"/>
<path d="M70.8802 55.1095C70.8802 55.1095 70.9033 55.1519 70.9226 55.1788L71.0033 55.298L71.188 55.5442C71.3188 55.7135 71.4611 55.8789 71.6073 56.0443C71.8996 56.3751 72.2112 56.6982 72.5343 57.0098C73.189 57.6279 73.8984 58.1853 74.6538 58.6753C76.1338 59.6594 77.8074 60.3152 79.562 60.5987L79.889 60.6448L80.0544 60.6679C80.0403 60.6665 80.0261 60.6665 80.0121 60.6679C79.9289 60.6747 79.8492 60.704 79.7813 60.7525C79.7082 60.8218 79.8851 60.7217 80.0544 60.4679C80.4865 59.7664 80.807 59.0021 81.0045 58.2022C81.2547 57.2708 81.4424 56.3237 81.5661 55.3673C81.6392 54.8826 81.6815 54.3864 81.7238 53.894C81.7661 53.4017 81.7969 52.8862 81.7969 52.4438L86.2282 52.6554C86.1705 53.2593 86.1128 53.7786 86.0513 54.3364C85.9897 54.8941 85.9012 55.4327 85.8243 55.9789C85.6551 57.079 85.4589 58.1791 85.1704 59.31C85.0295 59.8924 84.8561 60.4665 84.6511 61.0295C84.4262 61.6647 84.1402 62.2766 83.7971 62.8566C83.3358 63.6553 82.6725 64.3186 81.8738 64.7799C81.3377 65.0686 80.7435 65.2329 80.1352 65.2607C79.9929 65.2607 79.8159 65.2607 79.7005 65.2607H79.4736L79.0197 65.23C77.809 65.1165 76.6123 64.8859 75.4462 64.5414C74.2917 64.1893 73.1695 63.7388 72.0919 63.1951C71.0253 62.6499 70.0028 62.0223 69.0339 61.318C68.5454 60.9679 68.0722 60.5948 67.6068 60.2025C67.376 60.0063 67.149 59.7986 66.9182 59.587L66.572 59.26L66.3913 59.0792C66.3259 59.01 66.2835 58.9677 66.1797 58.8523L70.8802 55.1095Z" fill="#1BAB8E"/>
<path opacity="0.5" d="M70.8802 55.1095C70.8802 55.1095 70.9033 55.1519 70.9226 55.1788L71.0033 55.298L71.188 55.5442C71.3188 55.7135 71.4611 55.8789 71.6073 56.0443C71.8996 56.3751 72.2112 56.6982 72.5343 57.0098C73.189 57.6279 73.8984 58.1853 74.6538 58.6753C76.1338 59.6594 77.8074 60.3152 79.562 60.5987L79.889 60.6448L80.0544 60.6679C80.0403 60.6665 80.0261 60.6665 80.0121 60.6679C79.9289 60.6747 79.8492 60.704 79.7813 60.7525C79.7082 60.8218 79.8851 60.7217 80.0544 60.4679C80.4865 59.7664 80.807 59.0021 81.0045 58.2022C81.2547 57.2708 81.4424 56.3237 81.5661 55.3673C81.6392 54.8826 81.6815 54.3864 81.7238 53.894C81.7661 53.4017 81.7969 52.8862 81.7969 52.4438L86.2282 52.6554C86.1705 53.2593 86.1128 53.7786 86.0513 54.3364C85.9897 54.8941 85.9012 55.4327 85.8243 55.9789C85.6551 57.079 85.4589 58.1791 85.1704 59.31C85.0295 59.8924 84.8561 60.4665 84.6511 61.0295C84.4262 61.6647 84.1402 62.2766 83.7971 62.8566C83.3358 63.6553 82.6725 64.3186 81.8738 64.7799C81.3377 65.0686 80.7435 65.2329 80.1352 65.2607C79.9929 65.2607 79.8159 65.2607 79.7005 65.2607H79.4736L79.0197 65.23C77.809 65.1165 76.6123 64.8859 75.4462 64.5414C74.2917 64.1893 73.1695 63.7388 72.0919 63.1951C71.0253 62.6499 70.0028 62.0223 69.0339 61.318C68.5454 60.9679 68.0722 60.5948 67.6068 60.2025C67.376 60.0063 67.149 59.7986 66.9182 59.587L66.572 59.26L66.3913 59.0792C66.3259 59.01 66.2835 58.9677 66.1797 58.8523L70.8802 55.1095Z" fill="white"/>
<path d="M61.6425 148.079C61.0809 146.825 61.4694 141.54 61.5463 140.682C60.5731 140.17 57.2266 140.797 57.2266 140.797C57.2266 140.797 58.1613 146.348 57.6112 148.079C58.8921 148.794 61.6425 148.079 61.6425 148.079Z" fill="#FFC3BD"/>
<path d="M102.944 143.015C101.89 142.134 99.674 137.314 99.3624 136.502C98.2623 136.475 95.7812 138.426 95.7812 138.426C95.7812 138.426 99.0586 142.999 99.3163 144.803C100.79 144.865 102.944 143.015 102.944 143.015Z" fill="#FFC3BD"/>
<path d="M65.0721 151.145C62.2602 151.145 61.7794 151.103 60.1984 151.049C58.8444 150.999 58.5213 151.168 57.4327 151.145C56.5249 151.126 56.5595 150.256 56.8365 149.252C56.9365 148.898 57.075 148.483 57.2212 147.983C57.2755 147.793 57.3901 147.627 57.5476 147.508C57.7052 147.389 57.8971 147.325 58.0943 147.325H61.1716C61.3112 147.327 61.4485 147.361 61.5736 147.422C61.6987 147.484 61.8084 147.573 61.8948 147.683C62.641 148.61 64.2528 149.287 65.6606 149.475C67.1839 149.679 66.1953 151.145 65.0721 151.145Z" fill="#1BAB8E"/>
<path d="M108.499 145.171C105.472 146.541 103.883 145.844 102.364 146.19C101.06 146.483 101.102 146.729 99.806 147.102C98.9443 147.344 98.502 146.425 98.5789 145.617C98.642 145.03 98.6716 144.439 98.6674 143.848C98.664 143.734 98.6944 143.622 98.7546 143.526C98.8149 143.429 98.9023 143.352 99.0059 143.306L102.014 141.94C102.111 141.896 102.218 141.88 102.324 141.893C102.43 141.906 102.53 141.947 102.614 142.013C103.814 142.975 106.461 144.179 108.295 143.552C109.726 143.079 109.507 144.713 108.499 145.171Z" fill="#1BAB8E"/>
<path d="M75.1153 76.5613C75.1153 76.5613 82.2199 92.8747 86.1166 104.895C90.8902 115.774 100.453 138.596 100.453 138.596C100.641 139.176 97.6179 140.242 96.964 140.134C96.964 140.134 84.3394 124.994 79.2004 107.796C65.8334 91.0245 61.8906 77.5614 61.8906 77.5614L75.1153 76.5613Z" fill="#263238"/>
<path opacity="0.2" d="M69.4096 85.4941C71.3713 87.6444 72.7523 95.1107 73.4562 99.9843C71.0457 96.4454 68.8405 92.771 66.8516 88.9792C67.0477 87.1559 67.8478 85.8134 69.4096 85.4941Z" fill="black"/>
<path d="M71.1443 76.8655C71.1443 76.8655 71.6482 99.5258 69.6788 110.689C67.6093 122.409 61.2162 136.549 61.6586 144.243C60.997 144.627 58.6813 144.65 57.385 144.243C57.385 144.243 55.1694 121.398 61.8278 110.246C60.3854 99.0912 56.5465 84.6241 59.9546 77.7156L71.1443 76.8655Z" fill="#263238"/>
<path d="M61.9906 142.644C62.0012 143.173 62.0501 143.7 62.1368 144.221C62.1456 144.264 62.1454 144.309 62.1363 144.352C62.1272 144.396 62.1092 144.437 62.0836 144.473C62.058 144.509 62.0253 144.539 61.9875 144.562C61.9496 144.585 61.9075 144.6 61.8637 144.606C60.2981 144.856 58.0171 144.494 57.317 144.367C57.25 144.355 57.1885 144.322 57.141 144.273C57.0935 144.224 57.0623 144.162 57.0516 144.094L56.8169 142.617C56.809 142.569 56.8117 142.521 56.8248 142.474C56.8378 142.427 56.861 142.384 56.8925 142.348C56.924 142.311 56.9632 142.282 57.0073 142.262C57.0514 142.242 57.0994 142.232 57.1477 142.232L61.6675 142.317C61.7532 142.319 61.8348 142.354 61.8951 142.415C61.9554 142.476 61.9896 142.558 61.9906 142.644Z" fill="#263238"/>
<path opacity="0.1" d="M61.9906 142.644C62.0012 143.173 62.0501 143.7 62.1368 144.221C62.1456 144.264 62.1454 144.309 62.1363 144.352C62.1272 144.396 62.1092 144.437 62.0836 144.473C62.058 144.509 62.0253 144.539 61.9875 144.562C61.9496 144.585 61.9075 144.6 61.8637 144.606C60.2981 144.856 58.0171 144.494 57.317 144.367C57.25 144.355 57.1885 144.322 57.141 144.273C57.0935 144.224 57.0623 144.162 57.0516 144.094L56.8169 142.617C56.809 142.569 56.8117 142.521 56.8248 142.474C56.8378 142.427 56.861 142.384 56.8925 142.348C56.924 142.311 56.9632 142.282 57.0073 142.262C57.0514 142.242 57.0994 142.232 57.1477 142.232L61.6675 142.317C61.7532 142.319 61.8348 142.354 61.8951 142.415C61.9554 142.476 61.9896 142.558 61.9906 142.644Z" fill="white"/>
<path d="M100.115 136.929C100.308 137.313 100.658 137.94 100.935 138.413C100.977 138.488 100.989 138.577 100.968 138.66C100.946 138.743 100.893 138.815 100.819 138.86C99.5816 139.528 98.2849 140.08 96.9458 140.51C96.8784 140.537 96.804 140.54 96.7344 140.52C96.6648 140.5 96.6038 140.457 96.5611 140.398L95.6457 139.187C95.6162 139.148 95.5956 139.103 95.5855 139.056C95.5753 139.008 95.5757 138.959 95.5867 138.911C95.5977 138.864 95.6191 138.82 95.6492 138.781C95.6793 138.743 95.7175 138.712 95.7611 138.69L99.6615 136.79C99.7 136.768 99.7427 136.753 99.787 136.748C99.8313 136.743 99.8761 136.747 99.9187 136.76C99.9614 136.773 100.001 136.795 100.035 136.824C100.069 136.853 100.096 136.889 100.115 136.929Z" fill="#263238"/>
<path opacity="0.1" d="M100.115 136.929C100.308 137.313 100.658 137.94 100.935 138.413C100.977 138.488 100.989 138.577 100.968 138.66C100.946 138.743 100.893 138.815 100.819 138.86C99.5816 139.528 98.2849 140.08 96.9458 140.51C96.8784 140.537 96.804 140.54 96.7344 140.52C96.6648 140.5 96.6038 140.457 96.5611 140.398L95.6457 139.187C95.6162 139.148 95.5956 139.103 95.5855 139.056C95.5753 139.008 95.5757 138.959 95.5867 138.911C95.5977 138.864 95.6191 138.82 95.6492 138.781C95.6793 138.743 95.7175 138.712 95.7611 138.69L99.6615 136.79C99.7 136.768 99.7427 136.753 99.787 136.748C99.8313 136.743 99.8761 136.747 99.9187 136.76C99.9614 136.773 100.001 136.795 100.035 136.824C100.069 136.853 100.096 136.889 100.115 136.929Z" fill="white"/>
<path d="M72.0862 57.3618C72.4708 58.8082 73.0709 60.3968 73.8018 63.9011C74.4749 66.8437 74.9557 72.0174 75.1096 76.5718C73.1325 78.3335 66.5586 78.0335 59.9617 77.7258C59.9424 73.4368 58.1807 69.4786 53.3917 60.6968C53.1229 60.2423 52.9591 59.7334 52.9124 59.2074C52.8656 58.6814 52.937 58.1516 53.1214 57.6568C53.3057 57.1619 53.5984 56.7146 53.9779 56.3474C54.3575 55.9802 54.8143 55.7026 55.315 55.5347C55.8881 55.3424 56.4997 55.15 57.1344 54.9731C59.3369 54.3034 61.5837 53.7893 63.8583 53.4344C64.6045 53.3344 65.3969 53.2575 66.1278 53.1921C67.4504 53.0883 68.768 53.4474 69.855 54.2081C70.9419 54.9688 71.7307 56.0836 72.0862 57.3618Z" fill="#1BAB8E"/>
<path opacity="0.5" d="M72.0862 57.3618C72.4708 58.8082 73.0709 60.3968 73.8018 63.9011C74.4749 66.8437 74.9557 72.0174 75.1096 76.5718C73.1325 78.3335 66.5586 78.0335 59.9617 77.7258C59.9424 73.4368 58.1807 69.4786 53.3917 60.6968C53.1229 60.2423 52.9591 59.7334 52.9124 59.2074C52.8656 58.6814 52.937 58.1516 53.1214 57.6568C53.3057 57.1619 53.5984 56.7146 53.9779 56.3474C54.3575 55.9802 54.8143 55.7026 55.315 55.5347C55.8881 55.3424 56.4997 55.15 57.1344 54.9731C59.3369 54.3034 61.5837 53.7893 63.8583 53.4344C64.6045 53.3344 65.3969 53.2575 66.1278 53.1921C67.4504 53.0883 68.768 53.4474 69.855 54.2081C70.9419 54.9688 71.7307 56.0836 72.0862 57.3618Z" fill="white"/>
<path d="M64.3049 53.428L57.5156 54.8897C57.5156 54.8897 63.0086 57.1977 67.4129 60.7135C68.6131 54.6666 64.3049 53.428 64.3049 53.428Z" fill="white"/>
<path d="M55.8906 47.2881C56.9677 49.3191 58.5832 53.1195 57.51 54.8851C57.51 54.8851 63.6377 56.6546 66.9073 59.4664C67.3458 54.9198 64.2993 53.4311 64.2993 53.4311C61.7144 53.4311 61.1682 51.5617 61.0835 49.8153L55.8906 47.2881Z" fill="#FFC3BD"/>
<path d="M61.6516 55.4666C60.2518 55.4375 58.8581 55.2739 57.4896 54.9781C57.4772 54.9754 57.4654 54.9702 57.455 54.9629C57.4446 54.9556 57.4358 54.9464 57.429 54.9356C57.4222 54.9249 57.4176 54.9129 57.4154 54.9004C57.4133 54.8879 57.4137 54.8751 57.4165 54.8627C57.4229 54.8382 57.4383 54.817 57.4598 54.8034C57.4812 54.7898 57.507 54.7849 57.5319 54.7896C57.5704 54.7896 61.1977 55.6013 63.3018 55.1204C63.975 54.9666 64.3712 54.7358 64.4558 54.3857C64.4784 54.2183 64.4628 54.0479 64.4101 53.8874C64.3575 53.7268 64.2692 53.5803 64.1519 53.4587C64.1426 53.4497 64.1352 53.439 64.1301 53.4271C64.1251 53.4152 64.1225 53.4024 64.1225 53.3895C64.1225 53.3765 64.1251 53.3637 64.1301 53.3518C64.1352 53.3399 64.1426 53.3292 64.1519 53.3202C64.1699 53.3026 64.194 53.2927 64.2192 53.2927C64.2444 53.2927 64.2686 53.3026 64.2865 53.3202C64.4282 53.4657 64.5336 53.6425 64.5945 53.8363C64.6553 54.03 64.6697 54.2354 64.6366 54.4357C64.5135 54.8204 64.0711 55.132 63.3249 55.3012C62.7746 55.416 62.2137 55.4715 61.6516 55.4666Z" fill="white"/>
<path d="M64.3862 55.5164C64.3065 55.5722 64.2085 55.5956 64.1122 55.5821C64.0158 55.5685 63.9282 55.5189 63.8669 55.4433L63.6554 55.1663C63.5996 55.0866 63.5761 54.9887 63.5897 54.8923C63.6033 54.796 63.6528 54.7083 63.7284 54.6471C63.8082 54.5913 63.9061 54.5678 64.0025 54.5814C64.0988 54.595 64.1865 54.6445 64.2477 54.7201L64.4593 55.0009C64.5139 55.0804 64.5367 55.1774 64.5232 55.2729C64.5097 55.3684 64.4608 55.4553 64.3862 55.5164Z" fill="#1BAB8E"/>
<path opacity="0.2" d="M58 48.3164L61.0773 49.8127C61.0913 50.223 61.1428 50.6312 61.2311 51.0321C60.2695 51.109 58.6962 50.4051 58.3077 49.4935C58.1345 49.1231 58.0302 48.7242 58 48.3164Z" fill="black"/>
<path d="M52.7868 44.2101C54.3716 47.4951 54.9678 48.9145 57.4027 50.0416C61.0455 51.7379 64.769 49.3184 64.2074 45.6872C63.7035 42.4176 61.2032 37.6093 57.3297 37.4132C56.4979 37.3427 55.6625 37.4964 54.9103 37.8584C54.1582 38.2204 53.5168 38.7774 53.053 39.4714C52.5891 40.1654 52.3198 40.971 52.273 41.8044C52.2262 42.6378 52.4036 43.4685 52.7868 44.2101Z" fill="#FFC3BD"/>
<path d="M54.1859 39.4359C55.9054 41.8785 55.8169 45.8866 53.8013 46.429C50.724 45.952 50.0547 45.1558 50.0547 45.1558C50.0547 45.1558 51.0394 37.6203 54.1859 39.4359Z" fill="#263238"/>
<path d="M51.7656 40.4395C56.3123 41.0204 59.932 39.1202 60.6128 38.0546C56.497 35.2735 52.2157 37.6392 51.7656 40.4395Z" fill="#263238"/>
<path d="M61.2578 42.3091C61.7855 42.8641 62.3813 43.3501 63.0311 43.7554C62.808 44.2285 62.1079 44.2939 62.1079 44.2939L61.2578 42.3091Z" fill="#ED847E"/>
<path d="M61.0277 45.8124C61.1935 45.7845 61.3569 45.7434 61.5162 45.6893C61.527 45.6856 61.5368 45.6796 61.5451 45.6718C61.5534 45.6639 61.5599 45.6544 61.5643 45.6439C61.5687 45.6334 61.5707 45.622 61.5704 45.6106C61.5701 45.5992 61.5673 45.588 61.5623 45.5778C61.5529 45.5554 61.5354 45.5374 61.5133 45.5274C61.4912 45.5174 61.4661 45.5162 61.4431 45.5239C61.0837 45.6507 60.7004 45.6951 60.3216 45.6538C59.9427 45.6126 59.578 45.4867 59.2544 45.2854C59.2379 45.2694 59.2158 45.2605 59.1928 45.2605C59.1699 45.2605 59.1478 45.2694 59.1313 45.2854C59.119 45.3051 59.1145 45.3287 59.1188 45.3515C59.123 45.3743 59.1358 45.3946 59.1544 45.4085C59.7073 45.7703 60.3748 45.9143 61.0277 45.8124Z" fill="#263238"/>
<path d="M52.9918 47.5832C53.291 47.7617 53.6243 47.8755 53.9701 47.9172C54.316 47.959 54.6667 47.9277 54.9998 47.8256C55.8152 47.5409 55.5768 46.5485 54.8074 45.9023C54.1189 45.333 52.8611 44.7983 52.3071 45.4253C51.7532 46.0523 52.1687 47.1255 52.9918 47.5832Z" fill="#FFC3BD"/>
<path d="M54.4513 47.783C54.2292 47.783 54.012 47.8488 53.8273 47.9723C53.6426 48.0957 53.4986 48.2711 53.4136 48.4763C53.3286 48.6816 53.3064 48.9074 53.3497 49.1253C53.393 49.3432 53.5 49.5433 53.6571 49.7004C53.8142 49.8575 54.0143 49.9645 54.2322 50.0078C54.4501 50.0511 54.6759 50.0289 54.8812 49.9439C55.0864 49.8589 55.2618 49.7149 55.3853 49.5302C55.5087 49.3455 55.5745 49.1283 55.5745 48.9062C55.5751 48.7585 55.5463 48.6122 55.4901 48.4757C55.4338 48.3392 55.3511 48.2152 55.2467 48.1108C55.1423 48.0064 55.0183 47.9237 54.8818 47.8674C54.7453 47.8112 54.599 47.7825 54.4513 47.783ZM54.4513 49.764C54.2808 49.764 54.114 49.7133 53.9722 49.6185C53.8305 49.5236 53.72 49.3888 53.6549 49.2312C53.5898 49.0735 53.573 48.9001 53.6065 48.7328C53.6401 48.5656 53.7226 48.412 53.8434 48.2917C53.9643 48.1713 54.1182 48.0896 54.2856 48.0568C54.453 48.024 54.6264 48.0416 54.7837 48.1074C54.9411 48.1732 55.0754 48.2842 55.1696 48.4264C55.2639 48.5686 55.3137 48.7356 55.313 48.9062C55.313 49.0191 55.2907 49.131 55.2473 49.2353C55.204 49.3397 55.1404 49.4344 55.0604 49.5141C54.9803 49.5938 54.8853 49.6569 54.7808 49.6998C54.6763 49.7427 54.5643 49.7645 54.4513 49.764Z" fill="white"/>
<path d="M56.9452 42.0499C56.9652 42.0382 56.9822 42.0221 56.9949 42.0027C57.0075 41.9834 57.0156 41.9613 57.0183 41.9384C57.0444 41.7227 57.1239 41.5169 57.2495 41.3396C57.375 41.1623 57.5428 41.0191 57.7376 40.9229C57.7586 40.9142 57.7776 40.9012 57.7934 40.8849C57.8092 40.8685 57.8214 40.8491 57.8294 40.8278C57.8373 40.8065 57.8408 40.7838 57.8396 40.7611C57.8383 40.7384 57.8324 40.7162 57.8223 40.6959C57.8007 40.6531 57.7636 40.6202 57.7186 40.6037C57.6736 40.5873 57.624 40.5886 57.5799 40.6074C57.3311 40.7234 57.1158 40.9008 56.9543 41.1228C56.7928 41.3449 56.6904 41.6043 56.6567 41.8768C56.6542 41.9116 56.6614 41.9464 56.6775 41.9773C56.6935 42.0083 56.7179 42.0341 56.7478 42.0521C56.7777 42.07 56.8119 42.0793 56.8468 42.0789C56.8817 42.0786 56.9157 42.0685 56.9452 42.0499Z" fill="#263238"/>
<path d="M62.4022 40.0158C62.4248 40.015 62.4469 40.009 62.4669 39.9983C62.4869 39.9876 62.5042 39.9726 62.5176 39.9543C62.5445 39.916 62.5552 39.8686 62.5473 39.8225C62.5393 39.7763 62.5134 39.7352 62.4753 39.7081C62.2535 39.523 61.9918 39.3919 61.7108 39.3252C61.4298 39.2584 61.1371 39.2578 60.8558 39.3234C60.8341 39.3302 60.8141 39.3414 60.797 39.3565C60.7799 39.3715 60.7662 39.39 60.7568 39.4107C60.7473 39.4314 60.7424 39.4538 60.7422 39.4766C60.742 39.4993 60.7467 39.5219 60.7558 39.5427C60.7731 39.5871 60.8064 39.6235 60.849 39.6448C60.8916 39.6662 60.9407 39.6709 60.9866 39.6581C61.2091 39.6071 61.4404 39.6081 61.6625 39.6607C61.8846 39.7134 62.0916 39.8165 62.2675 39.962C62.2842 39.9808 62.3051 39.9955 62.3285 40.0049C62.3519 40.0142 62.3771 40.018 62.4022 40.0158Z" fill="#263238"/>
<path d="M62.3507 41.3156C62.4469 41.6003 62.3776 41.8811 62.1891 41.9465C62.0007 42.0119 61.7699 41.8272 61.6698 41.5426C61.5698 41.2579 61.6429 40.9733 61.8314 40.9118C62.0199 40.8502 62.2545 41.0464 62.3507 41.3156Z" fill="#263238"/>
<path d="M59.0226 42.6872C59.1226 42.9718 59.0495 43.2526 58.861 43.318C58.6725 43.3834 58.4417 43.1988 58.3417 42.9334C58.2417 42.6679 58.3148 42.3641 58.5033 42.3025C58.6918 42.241 58.9226 42.3987 59.0226 42.6872Z" fill="#263238"/>
<path d="M58.3438 42.446L58.6592 41.769C58.6592 41.769 58.84 42.4153 58.3438 42.446Z" fill="#263238"/>
<path d="M61.6562 41.1189L61.9717 40.4419C61.9717 40.4419 62.1525 41.0843 61.6562 41.1189Z" fill="#263238"/>
<path opacity="0.5" d="M57.6514 61.1052L54.3125 62.3592C55.6857 64.9057 56.7743 67.0136 57.609 68.8446C57.4056 66.2682 57.4198 63.6792 57.6514 61.1052Z" fill="#1BAB8E"/>
<path d="M78.5407 151.146H82.9297L82.9297 87.9034H78.5407L78.5407 151.146Z" fill="#1BAB8E"/>
<path opacity="0.2" d="M78.5469 87.9067H82.9359V98.5426L78.5469 97.4117V87.9067Z" fill="black"/>
<path d="M104.203 95.7803H65.0524V88.4486C65.0524 85.7839 66.1109 83.2283 67.9952 81.3441C69.8794 79.4599 72.435 78.4013 75.0997 78.4013H94.1558C96.8205 78.4013 99.3761 79.4599 101.26 81.3441C103.145 83.2283 104.203 85.7839 104.203 88.4486V95.7803Z" fill="#1BAB8E"/>
<path d="M67.9497 83.7607L67.2997 82.8337C67.1788 82.6619 67.0188 82.5214 66.8328 82.4237C66.6469 82.3261 66.4403 82.2741 66.2303 82.2721H64.2378C63.8458 82.2686 63.4586 82.359 63.1087 82.5357C62.7587 82.7123 62.456 82.9701 62.226 83.2876L61.9375 83.6722C62.9107 85.2878 65.1494 86.311 65.1494 86.311L65.7572 86.6764C65.8793 86.7547 66.0158 86.8079 66.1587 86.8329C66.3016 86.8579 66.448 86.8541 66.5895 86.8219C66.7309 86.7897 66.8645 86.7296 66.9825 86.6452C67.1005 86.5608 67.2004 86.4537 67.2766 86.3302L68.0113 85.1416C68.1356 84.9301 68.1959 84.6871 68.185 84.4421C68.174 84.197 68.0923 83.9603 67.9497 83.7607Z" fill="#FFC3BD"/>
<path d="M58.8713 60.1564C58.7713 60.368 58.6405 60.6757 58.529 60.9257L58.1866 61.7797C57.9635 62.3528 57.752 62.9337 57.5596 63.5145C57.1764 64.6674 56.8592 65.8413 56.6095 67.0303C56.4941 67.615 56.398 68.1843 56.3249 68.769C56.2636 69.3247 56.2302 69.8832 56.2249 70.4423C56.1949 71.3868 56.3613 72.3272 56.7134 73.2041L56.8596 73.5118C56.8702 73.5369 56.8792 73.5626 56.8865 73.5888C57.1323 74.3543 57.5113 75.0705 58.0058 75.7044C58.5797 76.4743 59.2097 77.2008 59.8907 77.8777C60.5985 78.5701 61.3562 79.2433 62.1409 79.8895C62.5256 80.2126 62.941 80.5242 63.3488 80.8281C63.7565 81.132 64.1873 81.4397 64.5682 81.6897L62.3871 85.1517C61.864 84.8247 61.4216 84.5247 60.9485 84.2054C60.4754 83.8861 60.0292 83.5592 59.5753 83.2245C58.6675 82.5629 57.7789 81.859 56.9134 81.0973C56.0145 80.3255 55.1737 79.4886 54.3977 78.5932C53.9776 78.1079 53.592 77.5938 53.2437 77.0546C52.8553 76.4655 52.5292 75.8377 52.2705 75.1813L52.4436 75.5659C51.6219 74.0641 51.1462 72.3977 51.0512 70.6884C50.954 69.1902 50.9952 67.6862 51.1743 66.1956C51.3426 64.7727 51.5891 63.3601 51.9128 61.9643C52.0667 61.2745 52.2385 60.5872 52.4283 59.9026C52.5206 59.5602 52.6167 59.2217 52.7206 58.8794C52.8245 58.537 52.9245 58.2139 53.0668 57.8062L58.8713 60.1564Z" fill="#1BAB8E"/>
<path opacity="0.5" d="M58.8713 60.1564C58.7713 60.368 58.6405 60.6757 58.529 60.9257L58.1866 61.7797C57.9635 62.3528 57.752 62.9337 57.5596 63.5145C57.1764 64.6674 56.8592 65.8413 56.6095 67.0303C56.4941 67.615 56.398 68.1843 56.3249 68.769C56.2636 69.3247 56.2302 69.8832 56.2249 70.4423C56.1949 71.3868 56.3613 72.3272 56.7134 73.2041L56.8596 73.5118C56.8702 73.5369 56.8792 73.5626 56.8865 73.5888C57.1323 74.3543 57.5113 75.0705 58.0058 75.7044C58.5797 76.4743 59.2097 77.2008 59.8907 77.8777C60.5985 78.5701 61.3562 79.2433 62.1409 79.8895C62.5256 80.2126 62.941 80.5242 63.3488 80.8281C63.7565 81.132 64.1873 81.4397 64.5682 81.6897L62.3871 85.1517C61.864 84.8247 61.4216 84.5247 60.9485 84.2054C60.4754 83.8861 60.0292 83.5592 59.5753 83.2245C58.6675 82.5629 57.7789 81.859 56.9134 81.0973C56.0145 80.3255 55.1737 79.4886 54.3977 78.5932C53.9776 78.1079 53.592 77.5938 53.2437 77.0546C52.8553 76.4655 52.5292 75.8377 52.2705 75.1813L52.4436 75.5659C51.6219 74.0641 51.1462 72.3977 51.0512 70.6884C50.954 69.1902 50.9952 67.6862 51.1743 66.1956C51.3426 64.7727 51.5891 63.3601 51.9128 61.9643C52.0667 61.2745 52.2385 60.5872 52.4283 59.9026C52.5206 59.5602 52.6167 59.2217 52.7206 58.8794C52.8245 58.537 52.9245 58.2139 53.0668 57.8062L58.8713 60.1564Z" fill="white"/>
<path opacity="0.1" d="M65.0611 93.6079H84.1172V88.765H65.0611V93.6079Z" fill="white"/>
<path opacity="0.2" d="M84.1172 95.7808V88.4492C84.1172 85.7845 85.1757 83.2289 87.06 81.3447C88.9442 79.4604 91.4998 78.4019 94.1645 78.4019C96.8292 78.4019 99.3848 79.4604 101.269 81.3447C103.153 83.2289 104.212 85.7845 104.212 88.4492V95.7808" fill="black"/>
<path d="M84.1138 97.0686H111.609V95.78H84.1138V97.0686Z" fill="#1BAB8E"/>
<path opacity="0.2" d="M91.5147 97.0686H111.609V95.78H91.5147V97.0686Z" fill="black"/>
<path d="M80.7493 90.5203H81.4609V73.5452H80.7493V90.5203Z" fill="#E0E0E0"/>
<path d="M76.6953 76.84H81.6728V74.4012C81.6728 74.3155 81.6388 74.2334 81.5782 74.1728C81.5176 74.1122 81.4354 74.0781 81.3497 74.0781H76.6953L77.5108 75.4591L76.6953 76.84Z" fill="#1BAB8E"/>
<path d="M126.73 25.0169C126.686 25.0162 126.645 25.0011 126.611 24.9739C126.578 24.9467 126.554 24.909 126.545 24.8669C126.539 24.8424 126.537 24.8168 126.541 24.7918C126.545 24.7668 126.554 24.7428 126.567 24.7213C126.58 24.6997 126.598 24.6811 126.619 24.6665C126.639 24.6518 126.663 24.6415 126.687 24.6361C127.114 24.5386 127.533 24.4101 127.941 24.2514C127.965 24.2421 127.99 24.2375 128.015 24.2378C128.04 24.2382 128.065 24.2435 128.089 24.2535C128.112 24.2635 128.133 24.278 128.15 24.2961C128.168 24.3142 128.182 24.3356 128.191 24.3591C128.201 24.3826 128.205 24.4077 128.205 24.433C128.205 24.4583 128.199 24.4832 128.189 24.5065C128.179 24.5297 128.165 24.5507 128.147 24.5683C128.128 24.5859 128.107 24.5998 128.084 24.6092C127.659 24.7791 127.221 24.9167 126.776 25.0208L126.73 25.0169Z" fill="#1BAB8E"/>
<path d="M112.264 91.4632C112.215 91.4624 112.167 91.4429 112.132 91.4086C112.096 91.3744 112.075 91.328 112.072 91.2786C112.071 91.2533 112.075 91.2281 112.083 91.2044C112.092 91.1807 112.105 91.1589 112.122 91.1403C112.14 91.1217 112.16 91.1067 112.183 91.0961C112.206 91.0855 112.231 91.0796 112.256 91.0786C113.145 91.0324 114.053 90.9516 114.949 90.8324C114.999 90.8269 115.05 90.841 115.09 90.8718C115.13 90.9026 115.157 90.9478 115.164 90.9978C115.168 91.0229 115.167 91.0485 115.16 91.073C115.154 91.0976 115.143 91.1206 115.127 91.1407C115.112 91.1608 115.093 91.1776 115.071 91.1901C115.048 91.2025 115.024 91.2104 114.999 91.2132C114.091 91.3363 113.172 91.4171 112.272 91.4594L112.264 91.4632ZM117.649 90.7516C117.598 90.7572 117.547 90.7423 117.507 90.7103C117.467 90.6781 117.441 90.6315 117.436 90.5805C117.43 90.5294 117.445 90.4783 117.477 90.4383C117.509 90.3982 117.556 90.3726 117.607 90.367C118.511 90.1708 119.392 89.94 120.223 89.6784C120.247 89.6682 120.274 89.6632 120.3 89.6638C120.327 89.6644 120.353 89.6705 120.377 89.6818C120.402 89.6931 120.423 89.7092 120.441 89.7293C120.458 89.7493 120.472 89.7728 120.48 89.7982C120.488 89.8236 120.49 89.8504 120.487 89.877C120.485 89.9035 120.476 89.9291 120.463 89.9522C120.45 89.9753 120.432 89.9953 120.41 90.0111C120.389 90.0269 120.364 90.0381 120.338 90.0439C119.496 90.3093 118.607 90.5439 117.688 90.7439L117.649 90.7516ZM122.823 89.0899C122.786 89.0901 122.751 89.0797 122.72 89.0598C122.689 89.04 122.665 89.0117 122.65 88.9783C122.639 88.9554 122.632 88.9305 122.631 88.905C122.63 88.8796 122.634 88.8542 122.642 88.8302C122.651 88.8062 122.664 88.7842 122.681 88.7654C122.698 88.7466 122.719 88.7313 122.742 88.7206C123.394 88.4293 124.023 88.0885 124.623 87.7013L125.081 87.3935C125.123 87.3657 125.175 87.3557 125.225 87.3658C125.274 87.3759 125.318 87.4052 125.346 87.4474C125.361 87.468 125.371 87.4913 125.376 87.5159C125.382 87.5405 125.382 87.5659 125.377 87.5907C125.373 87.6154 125.363 87.6389 125.349 87.6599C125.335 87.6809 125.317 87.6989 125.296 87.7128L124.835 88.0205C124.221 88.4192 123.578 88.7703 122.911 89.0707C122.887 89.0819 122.861 89.0885 122.834 89.0899H122.823ZM127.35 86.0934C127.323 86.0931 127.296 86.0872 127.27 86.076C127.245 86.0647 127.223 86.0484 127.204 86.028C127.171 85.9889 127.155 85.9385 127.158 85.8875C127.162 85.8365 127.185 85.7889 127.223 85.7549C127.905 85.1669 128.537 84.5236 129.112 83.8316C129.146 83.7928 129.193 83.7687 129.244 83.7644C129.295 83.7601 129.346 83.7759 129.385 83.8085C129.405 83.8245 129.421 83.8442 129.433 83.8665C129.444 83.8887 129.451 83.9132 129.454 83.9383C129.456 83.9634 129.453 83.9886 129.445 84.0126C129.437 84.0366 129.425 84.0587 129.408 84.0778C128.821 84.7808 128.177 85.4355 127.485 86.0357C127.453 86.0696 127.409 86.0901 127.362 86.0934H127.35ZM130.77 81.9006C130.739 81.9008 130.708 81.8928 130.682 81.8775C130.636 81.8544 130.602 81.8144 130.586 81.7661C130.57 81.7178 130.574 81.6652 130.597 81.6198C130.723 81.3787 130.838 81.1325 130.943 80.8812C131.181 80.3072 131.374 79.7156 131.52 79.1118C131.526 79.0865 131.537 79.0627 131.552 79.0417C131.568 79.0207 131.587 79.0029 131.609 78.9893C131.631 78.9757 131.656 78.9667 131.681 78.9626C131.707 78.9585 131.733 78.9596 131.759 78.9656C131.784 78.9717 131.808 78.9827 131.829 78.9979C131.85 79.0132 131.867 79.0325 131.881 79.0546C131.895 79.0767 131.904 79.1013 131.908 79.127C131.912 79.1526 131.911 79.1789 131.905 79.2041C131.755 79.828 131.555 80.439 131.309 81.0313C131.201 81.289 131.082 81.5429 130.951 81.8006C130.935 81.8312 130.91 81.8567 130.88 81.8744C130.85 81.892 130.816 81.9011 130.782 81.9006H130.77ZM132.105 76.6615C132.079 76.6601 132.054 76.6535 132.031 76.6422C132.008 76.6309 131.987 76.6151 131.971 76.5958C131.954 76.5764 131.941 76.5539 131.933 76.5295C131.925 76.5051 131.922 76.4794 131.924 76.4538C131.959 75.9306 131.978 75.3767 131.978 74.7651C131.978 74.4266 131.978 74.092 131.978 73.7535C131.977 73.7279 131.981 73.7024 131.99 73.6784C131.999 73.6544 132.012 73.6325 132.03 73.6138C132.048 73.5952 132.069 73.5803 132.092 73.5699C132.115 73.5595 132.141 73.5539 132.166 73.5534C132.192 73.5524 132.217 73.5565 132.241 73.5655C132.265 73.5745 132.286 73.5882 132.305 73.6059C132.323 73.6235 132.338 73.6446 132.347 73.668C132.357 73.6914 132.363 73.7165 132.363 73.7419C132.363 74.0843 132.363 74.4228 132.363 74.7651C132.363 75.3883 132.343 75.9499 132.309 76.4807C132.306 76.5297 132.284 76.5757 132.248 76.6093C132.213 76.6429 132.165 76.6616 132.116 76.6615H132.105ZM132.032 71.2186C131.983 71.2186 131.935 71.2 131.9 71.1664C131.864 71.1328 131.842 71.0867 131.839 71.0378C131.805 70.2684 131.77 69.4145 131.77 68.5759V68.3028C131.768 68.2773 131.772 68.2517 131.781 68.2277C131.79 68.2038 131.805 68.1821 131.823 68.1642C131.841 68.1463 131.863 68.1325 131.887 68.1239C131.911 68.1153 131.937 68.1121 131.962 68.1143C132.013 68.1143 132.062 68.1346 132.098 68.1707C132.135 68.2067 132.155 68.2557 132.155 68.3067V68.5759C132.155 69.4068 132.189 70.2415 132.224 71.0185C132.225 71.0438 132.221 71.069 132.212 71.0927C132.204 71.1165 132.19 71.1382 132.173 71.1568C132.156 71.1754 132.135 71.1904 132.112 71.201C132.089 71.2116 132.065 71.2176 132.039 71.2186H132.032ZM148.476 68.849C148.126 68.849 147.784 68.849 147.457 68.826C147.431 68.825 147.406 68.819 147.384 68.8084C147.361 68.7978 147.34 68.7828 147.323 68.7642C147.306 68.7457 147.292 68.7239 147.284 68.7002C147.275 68.6764 147.271 68.6512 147.272 68.6259C147.273 68.6007 147.279 68.5759 147.289 68.5529C147.3 68.5299 147.315 68.5093 147.334 68.4922C147.352 68.475 147.374 68.4617 147.398 68.453C147.421 68.4442 147.447 68.4403 147.472 68.4413C147.795 68.4413 148.134 68.4644 148.476 68.4644C149.04 68.4672 149.604 68.439 150.165 68.3798C150.216 68.3742 150.267 68.389 150.307 68.4211C150.347 68.4532 150.372 68.4999 150.378 68.5509C150.384 68.6019 150.369 68.6531 150.337 68.6931C150.305 68.7332 150.258 68.7588 150.207 68.7644C149.636 68.8232 149.062 68.8514 148.487 68.849H148.476ZM144.749 68.6529C143.848 68.5836 142.933 68.5028 142.033 68.4105C142.008 68.4081 141.983 68.4007 141.961 68.3888C141.938 68.3768 141.918 68.3605 141.902 68.3409C141.886 68.3212 141.874 68.2985 141.867 68.2742C141.86 68.2498 141.857 68.2243 141.86 68.199C141.862 68.1737 141.87 68.1491 141.882 68.1267C141.893 68.1042 141.91 68.0844 141.929 68.0683C141.949 68.0522 141.972 68.0402 141.996 68.0329C142.021 68.0256 142.046 68.0232 142.071 68.0259C142.968 68.1182 143.879 68.2028 144.764 68.2721C144.815 68.2721 144.864 68.2923 144.9 68.3284C144.936 68.3645 144.956 68.4134 144.956 68.4644C144.956 68.5154 144.936 68.5643 144.9 68.6004C144.864 68.6365 144.815 68.6567 144.764 68.6567L144.749 68.6529ZM152.826 68.1028C152.79 68.1024 152.753 68.0917 152.722 68.072C152.691 68.0523 152.666 68.0244 152.649 67.9913C152.629 67.9448 152.627 67.892 152.645 67.8445C152.663 67.7969 152.699 67.7584 152.746 67.7374C153.552 67.3956 154.235 66.8159 154.704 66.0756C154.716 66.0518 154.732 66.0308 154.753 66.0138C154.773 65.9968 154.797 65.9842 154.823 65.9769C154.848 65.9696 154.875 65.9677 154.901 65.9713C154.928 65.9748 154.953 65.9839 154.976 65.9978C154.999 66.0117 155.018 66.0301 155.033 66.052C155.049 66.0738 155.059 66.0986 155.064 66.1247C155.069 66.1508 155.069 66.1777 155.063 66.2037C155.057 66.2297 155.046 66.2542 155.031 66.2757C154.524 67.0821 153.783 67.7143 152.907 68.0874C152.882 68.0981 152.854 68.1033 152.826 68.1028ZM139.344 68.1028H139.321C138.425 67.9874 137.513 67.8566 136.628 67.7181C136.603 67.7144 136.579 67.7057 136.558 67.6927C136.536 67.6796 136.517 67.6624 136.502 67.642C136.487 67.6217 136.476 67.5985 136.47 67.574C136.464 67.5494 136.463 67.5239 136.467 67.4989C136.475 67.4488 136.503 67.404 136.544 67.3739C136.585 67.3437 136.636 67.3306 136.686 67.3373C137.578 67.4758 138.482 67.6066 139.379 67.722C139.43 67.7251 139.477 67.7483 139.511 67.7865C139.545 67.8247 139.563 67.8749 139.559 67.9259C139.556 67.9769 139.533 68.0246 139.495 68.0585C139.457 68.0924 139.407 68.1097 139.356 68.1067L139.344 68.1028ZM133.959 67.2681H133.924C133.036 67.1065 132.136 66.9296 131.251 66.745C131.2 66.7348 131.155 66.7047 131.126 66.6614C131.097 66.6181 131.087 66.5652 131.097 66.5142C131.107 66.4632 131.137 66.4183 131.181 66.3894C131.224 66.3606 131.277 66.3501 131.328 66.3603C132.212 66.5449 133.109 66.7219 133.993 66.8834C134.019 66.8876 134.042 66.8967 134.064 66.9102C134.086 66.9237 134.104 66.9414 134.119 66.9621C134.133 66.9829 134.144 67.0063 134.149 67.0311C134.155 67.0559 134.156 67.0815 134.151 67.1065C134.142 67.1496 134.118 67.1883 134.084 67.2162C134.049 67.2441 134.007 67.2597 133.963 67.2604L133.959 67.2681ZM128.631 66.1526H128.585C127.708 65.9449 126.816 65.7218 125.943 65.491C125.917 65.4846 125.893 65.4734 125.873 65.4579C125.852 65.4424 125.834 65.423 125.821 65.4006C125.807 65.3783 125.798 65.3536 125.795 65.3278C125.791 65.3021 125.792 65.2758 125.798 65.2505C125.805 65.2253 125.816 65.2015 125.831 65.1806C125.847 65.1597 125.866 65.142 125.889 65.1286C125.911 65.1152 125.936 65.1064 125.961 65.1025C125.987 65.0987 126.013 65.1 126.039 65.1063C126.912 65.3371 127.797 65.5602 128.674 65.7641C128.723 65.7768 128.767 65.8084 128.794 65.8521C128.821 65.8958 128.83 65.9483 128.82 65.9987C128.81 66.0401 128.786 66.0769 128.752 66.1034C128.719 66.1298 128.678 66.1444 128.635 66.1449L128.631 66.1526ZM132.162 65.791H132.132C132.082 65.7825 132.037 65.7549 132.007 65.714C131.977 65.6731 131.963 65.6221 131.97 65.5717C132.105 64.6571 132.333 63.7587 132.651 62.8907C132.668 62.8427 132.704 62.8036 132.75 62.782C132.796 62.7604 132.849 62.7579 132.897 62.7753C132.945 62.7926 132.984 62.8283 133.006 62.8745C133.027 62.9206 133.03 62.9735 133.013 63.0214C132.706 63.8635 132.487 64.7349 132.359 65.6217C132.351 65.6673 132.328 65.7086 132.293 65.7383C132.257 65.7679 132.212 65.7839 132.166 65.7833L132.162 65.791ZM123.365 64.764C123.348 64.7675 123.329 64.7675 123.311 64.764C122.446 64.5139 121.565 64.2447 120.703 63.9677C120.679 63.9603 120.657 63.9481 120.637 63.9318C120.618 63.9155 120.602 63.8954 120.59 63.8727C120.579 63.8501 120.572 63.8254 120.57 63.8001C120.569 63.7747 120.572 63.7493 120.58 63.7254C120.596 63.6769 120.631 63.6368 120.676 63.6137C120.721 63.5906 120.774 63.5865 120.823 63.6023C121.68 63.8754 122.554 64.1446 123.419 64.3947C123.468 64.409 123.509 64.4421 123.534 64.4868C123.558 64.5316 123.564 64.5842 123.55 64.6332C123.536 64.6699 123.512 64.7016 123.479 64.7236C123.447 64.7457 123.408 64.7571 123.369 64.7563L123.365 64.764ZM155.411 63.7754C155.367 63.7745 155.324 63.7584 155.289 63.7297C155.255 63.701 155.232 63.6615 155.223 63.6177C155.015 62.7697 154.537 62.0122 153.861 61.4597C153.843 61.4422 153.829 61.4212 153.819 61.3981C153.81 61.375 153.805 61.3502 153.805 61.3251C153.805 61.3 153.81 61.2752 153.819 61.2521C153.829 61.229 153.843 61.208 153.861 61.1905C153.879 61.1724 153.9 61.1581 153.924 61.1484C153.947 61.1386 153.972 61.1336 153.998 61.1336C154.023 61.1336 154.048 61.1386 154.072 61.1484C154.095 61.1581 154.116 61.1724 154.134 61.1905C154.874 61.7971 155.394 62.6294 155.615 63.56C155.62 63.5847 155.62 63.6102 155.616 63.635C155.611 63.6598 155.601 63.6834 155.587 63.7045C155.573 63.7256 155.555 63.7437 155.534 63.7579C155.513 63.772 155.49 63.7819 155.465 63.7869L155.411 63.7754ZM118.184 63.1022C118.162 63.1062 118.14 63.1062 118.119 63.1022C117.241 62.7906 116.384 62.4675 115.561 62.1444C115.514 62.1248 115.476 62.0877 115.456 62.0411C115.436 61.9945 115.435 61.9419 115.453 61.8944C115.462 61.8709 115.476 61.8494 115.494 61.8313C115.511 61.8132 115.532 61.7987 115.556 61.7887C115.579 61.7787 115.604 61.7733 115.629 61.773C115.654 61.7727 115.679 61.7773 115.703 61.7867C116.518 62.1098 117.376 62.4291 118.245 62.7406C118.293 62.7573 118.332 62.792 118.355 62.8374C118.377 62.8827 118.381 62.935 118.365 62.983C118.349 63.0167 118.324 63.0451 118.293 63.0649C118.261 63.0847 118.225 63.095 118.188 63.0945L118.184 63.1022ZM113.122 61.0904C113.096 61.0961 113.07 61.0961 113.045 61.0904C112.199 60.7058 111.368 60.3211 110.579 59.9172C110.555 59.9071 110.533 59.892 110.514 59.8729C110.496 59.8538 110.482 59.8312 110.473 59.8064C110.464 59.7815 110.46 59.7551 110.461 59.7287C110.463 59.7023 110.47 59.6765 110.481 59.6529C110.493 59.6293 110.51 59.6084 110.53 59.5915C110.551 59.5747 110.574 59.5622 110.6 59.5549C110.625 59.5475 110.652 59.5455 110.678 59.549C110.704 59.5524 110.73 59.5612 110.752 59.5749C111.522 59.9595 112.36 60.3442 113.203 60.7289C113.254 60.7396 113.298 60.7701 113.327 60.8138C113.355 60.8574 113.365 60.9106 113.354 60.9616C113.344 61.0126 113.313 61.0573 113.27 61.0858C113.226 61.1142 113.173 61.1242 113.122 61.1135V61.0904ZM134.093 60.7558C134.052 60.7557 134.012 60.7436 133.978 60.7212C133.937 60.6906 133.91 60.645 133.903 60.5945C133.896 60.544 133.909 60.4927 133.94 60.4519C134.443 59.7616 135.061 59.163 135.767 58.6825L135.967 58.5555C135.988 58.5421 136.012 58.5331 136.037 58.529C136.062 58.5248 136.088 58.5256 136.112 58.5313C136.137 58.537 136.16 58.5476 136.181 58.5623C136.201 58.577 136.219 58.5956 136.232 58.6171C136.246 58.6385 136.255 58.6624 136.259 58.6874C136.263 58.7124 136.262 58.7379 136.256 58.7625C136.251 58.7872 136.24 58.8105 136.225 58.831C136.211 58.8516 136.192 58.8691 136.171 58.8825L135.982 59.0017C135.312 59.4575 134.726 60.0248 134.247 60.6789C134.229 60.7006 134.206 60.7181 134.18 60.73C134.154 60.742 134.126 60.7482 134.097 60.7481L134.093 60.7558ZM151.738 59.9865C151.706 59.9862 151.674 59.9783 151.646 59.9634C151.322 59.7903 151.007 59.6287 150.707 59.4787C150.218 59.2402 149.715 59.0171 149.207 58.8171C149.181 58.8094 149.158 58.7966 149.138 58.7794C149.118 58.7622 149.101 58.7411 149.09 58.7173C149.078 58.6935 149.072 58.6676 149.071 58.6411C149.069 58.6147 149.074 58.5883 149.083 58.5637C149.093 58.539 149.107 58.5165 149.126 58.4977C149.145 58.4789 149.167 58.4642 149.192 58.4544C149.216 58.4446 149.242 58.44 149.269 58.4408C149.295 58.4417 149.321 58.448 149.345 58.4594C149.865 58.6594 150.38 58.8902 150.884 59.1364C151.184 59.2864 151.507 59.4479 151.834 59.6249C151.878 59.65 151.911 59.6913 151.925 59.7401C151.94 59.7889 151.935 59.8414 151.911 59.8865C151.894 59.9157 151.869 59.9396 151.839 59.9559C151.809 59.9721 151.776 59.98 151.742 59.9788L151.738 59.9865ZM108.271 58.6209C108.237 58.6216 108.204 58.6122 108.175 58.594C107.371 58.1286 106.59 57.6439 105.867 57.1477C105.83 57.1176 105.805 57.0747 105.798 57.0273C105.79 56.98 105.801 56.9316 105.827 56.8916C105.854 56.8517 105.894 56.8231 105.941 56.8114C105.987 56.7997 106.036 56.8057 106.079 56.8284C106.81 57.3169 107.583 57.8016 108.387 58.2632C108.423 58.2846 108.451 58.3172 108.467 58.3561C108.482 58.395 108.485 58.438 108.474 58.4785C108.463 58.5191 108.439 58.5549 108.406 58.5806C108.373 58.6063 108.332 58.6205 108.29 58.6209H108.271ZM146.68 58.017H146.633C145.759 57.8096 144.87 57.663 143.975 57.5785C143.925 57.5736 143.879 57.5491 143.846 57.5102C143.814 57.4713 143.798 57.4212 143.802 57.3708C143.808 57.3201 143.833 57.2736 143.873 57.2413C143.912 57.209 143.963 57.1933 144.014 57.1977C144.921 57.2836 145.82 57.4327 146.707 57.6439C146.758 57.6495 146.804 57.6751 146.836 57.7152C146.868 57.7552 146.883 57.8064 146.878 57.8574C146.872 57.9084 146.846 57.9551 146.806 57.9872C146.766 58.0193 146.715 58.0342 146.664 58.0285L146.68 58.017ZM138.582 57.8939C138.539 57.8934 138.497 57.8784 138.462 57.8512C138.428 57.8241 138.404 57.7863 138.394 57.7439C138.382 57.6944 138.391 57.6424 138.418 57.5991C138.444 57.5559 138.487 57.525 138.536 57.5131C139.212 57.3534 139.899 57.2441 140.59 57.1861C140.814 57.1861 141.04 57.1515 141.264 57.14C141.289 57.1373 141.315 57.14 141.339 57.1478C141.364 57.1556 141.386 57.1685 141.405 57.1855C141.424 57.2025 141.44 57.2233 141.451 57.2466C141.461 57.2699 141.467 57.2951 141.467 57.3208C141.47 57.3712 141.452 57.4204 141.418 57.4578C141.384 57.4952 141.337 57.5178 141.287 57.5208C141.064 57.5208 140.844 57.5516 140.625 57.5708C139.953 57.6265 139.285 57.7319 138.629 57.8862L138.582 57.8939ZM103.759 55.5859C103.716 55.5868 103.674 55.5733 103.64 55.5475C102.909 54.9743 102.209 54.3743 101.559 53.7703C101.541 53.7525 101.527 53.7312 101.517 53.7078C101.507 53.6843 101.502 53.6592 101.502 53.6338C101.502 53.6084 101.507 53.5833 101.517 53.5598C101.527 53.5364 101.541 53.5151 101.559 53.4972C101.595 53.4618 101.644 53.4419 101.695 53.4419C101.746 53.4419 101.795 53.4618 101.832 53.4972C102.474 54.0973 103.167 54.6897 103.89 55.2551C103.93 55.2869 103.955 55.333 103.961 55.3834C103.967 55.4339 103.952 55.4845 103.921 55.5244C103.9 55.5444 103.875 55.5594 103.848 55.5681C103.82 55.5767 103.791 55.5789 103.763 55.5744L103.759 55.5859ZM99.7894 51.874C99.7619 51.8737 99.7347 51.8678 99.7095 51.8565C99.6844 51.8453 99.6618 51.829 99.6433 51.8086C99.0389 51.1214 98.475 50.3996 97.9546 49.6468C97.9258 49.6047 97.9145 49.5531 97.9231 49.5028C97.9317 49.4525 97.9596 49.4076 98.0008 49.3775C98.0436 49.3501 98.0953 49.3399 98.1453 49.3492C98.1953 49.3585 98.2399 49.3865 98.27 49.4275C98.7893 50.1654 99.3519 50.8719 99.9548 51.5432C99.9901 51.5791 100.01 51.6275 100.01 51.6778C100.01 51.7281 99.9901 51.7765 99.9548 51.8124C99.9335 51.8325 99.9079 51.8475 99.8799 51.8561C99.8519 51.8648 99.8222 51.867 99.7933 51.8624L99.7894 51.874ZM96.7122 47.4004C96.6767 47.4002 96.6419 47.39 96.612 47.3709C96.5821 47.3519 96.5581 47.3247 96.5429 47.2927C96.1212 46.4795 95.7574 45.6376 95.4543 44.7731C95.4382 44.7247 95.4417 44.6718 95.464 44.6258C95.4862 44.5799 95.5255 44.5444 95.5736 44.527C95.6215 44.511 95.6738 44.5146 95.7192 44.5369C95.7645 44.5592 95.7993 44.5985 95.8159 44.6462C96.1133 45.4949 96.4707 46.3215 96.8853 47.1196C96.9081 47.165 96.912 47.2176 96.8961 47.2659C96.8803 47.3142 96.8459 47.3542 96.8006 47.3773C96.7726 47.3886 96.7421 47.3926 96.7122 47.3888V47.4004ZM94.9543 42.2613C94.9086 42.2618 94.8643 42.2457 94.8297 42.2159C94.795 42.1862 94.7723 42.1449 94.7658 42.0997C94.7273 41.8959 94.6965 41.692 94.6658 41.4843C94.5718 40.8062 94.5242 40.1225 94.5234 39.4379V39.3571C94.5234 39.3061 94.5437 39.2572 94.5798 39.2211C94.6158 39.1851 94.6648 39.1648 94.7158 39.1648C94.7668 39.1648 94.8157 39.1851 94.8518 39.2211C94.8878 39.2572 94.9081 39.3061 94.9081 39.3571V39.434C94.9075 40.1007 94.9538 40.7665 95.0466 41.4266C95.0773 41.6305 95.1081 41.8305 95.1427 42.0305C95.1517 42.0805 95.1406 42.132 95.1118 42.1738C95.083 42.2156 95.0388 42.2443 94.9889 42.2536L94.9543 42.2613ZM94.9735 36.8453H94.9389C94.889 36.8359 94.8448 36.8072 94.816 36.7654C94.7871 36.7236 94.776 36.6721 94.785 36.6222C94.9522 35.7186 95.1954 34.8307 95.512 33.968C95.531 33.9204 95.5675 33.8819 95.614 33.8604C95.6605 33.839 95.7135 33.8362 95.762 33.8526C95.8093 33.8707 95.8475 33.9067 95.8684 33.9528C95.8892 33.9989 95.8911 34.0513 95.8736 34.0988C95.5626 34.9411 95.3246 35.8084 95.162 36.6914C95.1535 36.7387 95.1273 36.781 95.0886 36.8096C95.05 36.8382 95.002 36.8509 94.9543 36.8453H94.9735ZM96.8506 31.7639C96.817 31.7622 96.7841 31.753 96.7545 31.737C96.7105 31.7106 96.6787 31.668 96.6658 31.6184C96.6528 31.5688 96.6598 31.5161 96.6852 31.4716C97.1477 30.6769 97.6821 29.9262 98.2816 29.229C98.3164 29.1976 98.3616 29.18 98.4085 29.1795C98.4554 29.179 98.5009 29.1957 98.5364 29.2265C98.5718 29.2572 98.5948 29.2999 98.601 29.3464C98.6072 29.3929 98.5962 29.4401 98.5701 29.479C97.9937 30.1619 97.4788 30.8943 97.0314 31.6677C97.0126 31.7011 96.9842 31.7281 96.95 31.7452C96.9157 31.7624 96.8771 31.7689 96.8391 31.7639H96.8506ZM100.393 27.6673C100.354 27.6671 100.315 27.6545 100.283 27.6314C100.25 27.6083 100.226 27.5757 100.213 27.5382C100.2 27.5007 100.199 27.46 100.21 27.4218C100.221 27.3837 100.243 27.3498 100.274 27.3249C101.001 26.7606 101.78 26.2673 102.601 25.8517C102.647 25.8287 102.7 25.825 102.749 25.8412C102.798 25.8574 102.838 25.8923 102.861 25.9382C102.884 25.9841 102.888 26.0373 102.871 26.086C102.855 26.1347 102.82 26.1749 102.774 26.1979C101.976 26.6025 101.217 27.0816 100.509 27.6288C100.473 27.6566 100.427 27.6703 100.382 27.6673H100.393ZM124.019 25.2708C123.103 25.2507 122.19 25.1698 121.284 25.0285C121.233 25.0214 121.187 24.9943 121.156 24.9531C121.125 24.912 121.112 24.8603 121.119 24.8093C121.126 24.7582 121.153 24.7122 121.194 24.6811C121.235 24.6501 121.287 24.6367 121.338 24.6438C122.229 24.784 123.129 24.8636 124.031 24.8823C124.082 24.8823 124.131 24.9026 124.167 24.9387C124.203 24.9747 124.223 25.0237 124.223 25.0747C124.223 25.1257 124.203 25.1746 124.167 25.2107C124.131 25.2467 124.082 25.267 124.031 25.267L124.019 25.2708ZM105.194 25.1708C105.169 25.1749 105.143 25.1739 105.118 25.168C105.093 25.162 105.07 25.1513 105.049 25.1363C105.028 25.1213 105.011 25.1023 104.997 25.0805C104.984 25.0587 104.975 25.0345 104.971 25.0093C104.967 24.984 104.968 24.9582 104.974 24.9333C104.98 24.9084 104.99 24.885 105.005 24.8643C105.02 24.8435 105.039 24.826 105.061 24.8126C105.083 24.7992 105.107 24.7902 105.132 24.7862C106.003 24.5036 106.889 24.2724 107.787 24.0938C107.812 24.0888 107.837 24.0888 107.862 24.0938C107.887 24.0989 107.911 24.1089 107.932 24.1232C107.953 24.1375 107.971 24.1559 107.985 24.1772C107.999 24.1986 108.009 24.2225 108.013 24.2476C108.019 24.2722 108.02 24.2976 108.015 24.3224C108.01 24.3472 108.001 24.3707 107.987 24.3916C107.973 24.4125 107.954 24.4303 107.933 24.4439C107.912 24.4575 107.888 24.4667 107.863 24.4707C106.981 24.6474 106.108 24.8747 105.252 25.1516L105.194 25.1708ZM118.626 24.5669H118.592C117.765 24.4131 116.83 24.24 115.899 24.1092C115.849 24.1016 115.804 24.0747 115.774 24.0345C115.744 23.9942 115.731 23.9437 115.737 23.8938C115.74 23.8686 115.748 23.8442 115.761 23.8221C115.773 23.8 115.79 23.7807 115.81 23.7652C115.83 23.7498 115.853 23.7386 115.878 23.7322C115.902 23.7259 115.928 23.7246 115.953 23.7284C116.876 23.8591 117.815 24.0361 118.646 24.1899C118.695 24.1993 118.74 24.228 118.768 24.2698C118.797 24.3116 118.808 24.3631 118.799 24.413C118.793 24.4559 118.772 24.4953 118.741 24.5252C118.71 24.5551 118.669 24.5739 118.626 24.5785V24.5669ZM110.518 24.0707C110.467 24.0738 110.416 24.0564 110.378 24.0225C110.34 23.9886 110.317 23.9409 110.314 23.8899C110.311 23.8389 110.328 23.7888 110.362 23.7505C110.396 23.7123 110.444 23.6891 110.495 23.686C110.983 23.6322 111.506 23.5822 112.033 23.5399C112.372 23.5129 112.729 23.4976 113.095 23.4976H113.222C113.247 23.4981 113.272 23.5035 113.295 23.5137C113.318 23.5238 113.339 23.5384 113.357 23.5566C113.374 23.5748 113.388 23.5963 113.397 23.6198C113.406 23.6434 113.411 23.6685 113.41 23.6937C113.407 23.7435 113.386 23.7903 113.351 23.8252C113.315 23.8601 113.268 23.8804 113.218 23.8822H113.095C112.741 23.8822 112.395 23.8822 112.06 23.9207C111.529 23.963 111.014 24.013 110.521 24.0707H110.518Z" fill="#1BAB8E"/>
<path d="M109.516 91.4768C109.059 91.4575 108.605 91.4229 108.166 91.3806C108.141 91.3787 108.117 91.3717 108.094 91.3602C108.072 91.3486 108.052 91.3327 108.036 91.3133C108.02 91.294 108.008 91.2715 108 91.2474C107.993 91.2233 107.991 91.1979 107.993 91.1729C107.995 91.1475 108.001 91.1228 108.013 91.1001C108.024 91.0774 108.04 91.0573 108.059 91.0411C108.079 91.0249 108.102 91.0128 108.126 91.0057C108.15 90.9986 108.176 90.9966 108.201 90.9998C108.636 91.0421 109.082 91.0729 109.536 91.0921C109.587 91.0921 109.636 91.1124 109.672 91.1484C109.708 91.1845 109.728 91.2334 109.728 91.2844C109.728 91.3354 109.708 91.3844 109.672 91.4204C109.636 91.4565 109.587 91.4768 109.536 91.4768H109.516Z" fill="#1BAB8E"/>
<g opacity="0.6">
<path d="M126.722 25.014C126.679 25.0133 126.637 24.9981 126.603 24.9709C126.57 24.9437 126.547 24.9061 126.537 24.864C126.531 24.8394 126.53 24.8139 126.533 24.7889C126.537 24.7639 126.546 24.7399 126.559 24.7184C126.573 24.6968 126.59 24.6782 126.611 24.6635C126.631 24.6489 126.655 24.6386 126.679 24.6332C127.106 24.5357 127.525 24.4071 127.933 24.2485C127.957 24.2392 127.982 24.2345 128.007 24.2349C128.033 24.2352 128.058 24.2406 128.081 24.2506C128.104 24.2606 128.125 24.275 128.143 24.2932C128.16 24.3113 128.174 24.3327 128.183 24.3562C128.193 24.3797 128.197 24.4048 128.197 24.4301C128.197 24.4553 128.191 24.4803 128.181 24.5035C128.171 24.5267 128.157 24.5478 128.139 24.5654C128.121 24.583 128.099 24.5969 128.076 24.6062C127.651 24.7762 127.214 24.9138 126.768 25.0178L126.722 25.014Z" fill="white"/>
<path d="M112.264 91.4632C112.215 91.4624 112.167 91.4429 112.132 91.4086C112.096 91.3744 112.075 91.328 112.072 91.2786C112.071 91.2533 112.075 91.2281 112.083 91.2044C112.092 91.1807 112.105 91.1589 112.122 91.1403C112.14 91.1217 112.16 91.1067 112.183 91.0961C112.206 91.0855 112.231 91.0796 112.256 91.0786C113.145 91.0324 114.053 90.9516 114.949 90.8324C114.999 90.8269 115.05 90.841 115.09 90.8718C115.13 90.9026 115.157 90.9478 115.164 90.9978C115.168 91.0229 115.167 91.0485 115.16 91.073C115.154 91.0976 115.143 91.1206 115.127 91.1407C115.112 91.1608 115.093 91.1776 115.071 91.1901C115.048 91.2025 115.024 91.2104 114.999 91.2132C114.091 91.3363 113.172 91.4171 112.272 91.4594L112.264 91.4632ZM117.649 90.7516C117.598 90.7572 117.547 90.7423 117.507 90.7103C117.467 90.6781 117.441 90.6315 117.436 90.5805C117.43 90.5294 117.445 90.4783 117.477 90.4383C117.509 90.3982 117.556 90.3726 117.607 90.367C118.511 90.1708 119.392 89.94 120.223 89.6784C120.247 89.6682 120.274 89.6632 120.3 89.6638C120.327 89.6644 120.353 89.6705 120.377 89.6818C120.402 89.6931 120.423 89.7092 120.441 89.7293C120.458 89.7493 120.472 89.7728 120.48 89.7982C120.488 89.8236 120.49 89.8504 120.487 89.877C120.485 89.9035 120.476 89.9291 120.463 89.9522C120.45 89.9753 120.432 89.9953 120.41 90.0111C120.389 90.0269 120.364 90.0381 120.338 90.0439C119.496 90.3093 118.607 90.5439 117.688 90.7439L117.649 90.7516ZM122.823 89.0899C122.786 89.0901 122.751 89.0797 122.72 89.0598C122.689 89.04 122.665 89.0117 122.65 88.9783C122.639 88.9554 122.632 88.9305 122.631 88.905C122.63 88.8796 122.634 88.8542 122.642 88.8302C122.651 88.8062 122.664 88.7842 122.681 88.7654C122.698 88.7466 122.719 88.7313 122.742 88.7206C123.394 88.4293 124.023 88.0885 124.623 87.7013L125.081 87.3935C125.123 87.3657 125.175 87.3557 125.225 87.3658C125.274 87.3759 125.318 87.4052 125.346 87.4474C125.361 87.468 125.371 87.4913 125.376 87.5159C125.382 87.5405 125.382 87.5659 125.377 87.5907C125.373 87.6154 125.363 87.6389 125.349 87.6599C125.335 87.6809 125.317 87.6989 125.296 87.7128L124.835 88.0205C124.221 88.4192 123.578 88.7703 122.911 89.0707C122.887 89.0819 122.861 89.0885 122.834 89.0899H122.823ZM127.35 86.0934C127.323 86.0931 127.296 86.0872 127.27 86.076C127.245 86.0647 127.223 86.0484 127.204 86.028C127.171 85.9889 127.155 85.9385 127.158 85.8875C127.162 85.8365 127.185 85.7889 127.223 85.7549C127.905 85.1669 128.537 84.5236 129.112 83.8316C129.146 83.7928 129.193 83.7687 129.244 83.7644C129.295 83.7601 129.346 83.7759 129.385 83.8085C129.405 83.8245 129.421 83.8442 129.433 83.8665C129.444 83.8887 129.451 83.9132 129.454 83.9383C129.456 83.9634 129.453 83.9886 129.445 84.0126C129.437 84.0366 129.425 84.0587 129.408 84.0778C128.821 84.7808 128.177 85.4355 127.485 86.0357C127.453 86.0696 127.409 86.0901 127.362 86.0934H127.35ZM130.77 81.9006C130.739 81.9008 130.708 81.8928 130.682 81.8775C130.636 81.8544 130.602 81.8144 130.586 81.7661C130.57 81.7178 130.574 81.6652 130.597 81.6198C130.723 81.3787 130.838 81.1325 130.943 80.8812C131.181 80.3072 131.374 79.7156 131.52 79.1118C131.526 79.0865 131.537 79.0627 131.552 79.0417C131.568 79.0207 131.587 79.0029 131.609 78.9893C131.631 78.9757 131.656 78.9667 131.681 78.9626C131.707 78.9585 131.733 78.9596 131.759 78.9656C131.784 78.9717 131.808 78.9827 131.829 78.9979C131.85 79.0132 131.867 79.0325 131.881 79.0546C131.895 79.0767 131.904 79.1013 131.908 79.127C131.912 79.1526 131.911 79.1789 131.905 79.2041C131.755 79.828 131.555 80.439 131.309 81.0313C131.201 81.289 131.082 81.5429 130.951 81.8006C130.935 81.8312 130.91 81.8567 130.88 81.8744C130.85 81.892 130.816 81.9011 130.782 81.9006H130.77ZM132.105 76.6615C132.079 76.6601 132.054 76.6535 132.031 76.6422C132.008 76.6309 131.987 76.6151 131.971 76.5958C131.954 76.5764 131.941 76.5539 131.933 76.5295C131.925 76.5051 131.922 76.4794 131.924 76.4538C131.959 75.9306 131.978 75.3767 131.978 74.7651C131.978 74.4266 131.978 74.092 131.978 73.7535C131.977 73.7279 131.981 73.7024 131.99 73.6784C131.999 73.6544 132.012 73.6325 132.03 73.6138C132.048 73.5952 132.069 73.5803 132.092 73.5699C132.115 73.5595 132.141 73.5539 132.166 73.5534C132.192 73.5524 132.217 73.5565 132.241 73.5655C132.265 73.5745 132.286 73.5882 132.305 73.6059C132.323 73.6235 132.338 73.6446 132.347 73.668C132.357 73.6914 132.363 73.7165 132.363 73.7419C132.363 74.0843 132.363 74.4228 132.363 74.7651C132.363 75.3883 132.343 75.9499 132.309 76.4807C132.306 76.5297 132.284 76.5757 132.248 76.6093C132.213 76.6429 132.165 76.6616 132.116 76.6615H132.105ZM132.032 71.2186C131.983 71.2186 131.935 71.2 131.9 71.1664C131.864 71.1328 131.842 71.0867 131.839 71.0378C131.805 70.2684 131.77 69.4145 131.77 68.5759V68.3028C131.768 68.2773 131.772 68.2517 131.781 68.2277C131.79 68.2038 131.805 68.1821 131.823 68.1642C131.841 68.1463 131.863 68.1325 131.887 68.1239C131.911 68.1153 131.937 68.1121 131.962 68.1143C132.013 68.1143 132.062 68.1346 132.098 68.1707C132.135 68.2067 132.155 68.2557 132.155 68.3067V68.5759C132.155 69.4068 132.189 70.2415 132.224 71.0185C132.225 71.0438 132.221 71.069 132.212 71.0927C132.204 71.1165 132.19 71.1382 132.173 71.1568C132.156 71.1754 132.135 71.1904 132.112 71.201C132.089 71.2116 132.065 71.2176 132.039 71.2186H132.032ZM148.476 68.849C148.126 68.849 147.784 68.849 147.457 68.826C147.431 68.825 147.406 68.819 147.384 68.8084C147.361 68.7978 147.34 68.7828 147.323 68.7642C147.306 68.7457 147.292 68.7239 147.284 68.7002C147.275 68.6764 147.271 68.6512 147.272 68.6259C147.273 68.6007 147.279 68.5759 147.289 68.5529C147.3 68.5299 147.315 68.5093 147.334 68.4922C147.352 68.475 147.374 68.4617 147.398 68.453C147.421 68.4442 147.447 68.4403 147.472 68.4413C147.795 68.4413 148.134 68.4644 148.476 68.4644C149.04 68.4672 149.604 68.439 150.165 68.3798C150.216 68.3742 150.267 68.389 150.307 68.4211C150.347 68.4532 150.372 68.4999 150.378 68.5509C150.384 68.6019 150.369 68.6531 150.337 68.6931C150.305 68.7332 150.258 68.7588 150.207 68.7644C149.636 68.8232 149.062 68.8514 148.487 68.849H148.476ZM144.749 68.6529C143.848 68.5836 142.933 68.5028 142.033 68.4105C142.008 68.4081 141.983 68.4007 141.961 68.3888C141.938 68.3768 141.918 68.3605 141.902 68.3409C141.886 68.3212 141.874 68.2985 141.867 68.2742C141.86 68.2498 141.857 68.2243 141.86 68.199C141.862 68.1737 141.87 68.1491 141.882 68.1267C141.893 68.1042 141.91 68.0844 141.929 68.0683C141.949 68.0522 141.972 68.0402 141.996 68.0329C142.021 68.0256 142.046 68.0232 142.071 68.0259C142.968 68.1182 143.879 68.2028 144.764 68.2721C144.815 68.2721 144.864 68.2923 144.9 68.3284C144.936 68.3645 144.956 68.4134 144.956 68.4644C144.956 68.5154 144.936 68.5643 144.9 68.6004C144.864 68.6365 144.815 68.6567 144.764 68.6567L144.749 68.6529ZM152.826 68.1028C152.79 68.1024 152.753 68.0917 152.722 68.072C152.691 68.0523 152.666 68.0244 152.649 67.9913C152.629 67.9448 152.627 67.892 152.645 67.8445C152.663 67.7969 152.699 67.7584 152.746 67.7374C153.552 67.3956 154.235 66.8159 154.704 66.0756C154.716 66.0518 154.732 66.0308 154.753 66.0138C154.773 65.9968 154.797 65.9842 154.823 65.9769C154.848 65.9696 154.875 65.9677 154.901 65.9713C154.928 65.9748 154.953 65.9839 154.976 65.9978C154.999 66.0117 155.018 66.0301 155.033 66.052C155.049 66.0738 155.059 66.0986 155.064 66.1247C155.069 66.1508 155.069 66.1777 155.063 66.2037C155.057 66.2297 155.046 66.2542 155.031 66.2757C154.524 67.0821 153.783 67.7143 152.907 68.0874C152.882 68.0981 152.854 68.1033 152.826 68.1028ZM139.344 68.1028H139.321C138.425 67.9874 137.513 67.8566 136.628 67.7181C136.603 67.7144 136.579 67.7057 136.558 67.6927C136.536 67.6796 136.517 67.6624 136.502 67.642C136.487 67.6217 136.476 67.5985 136.47 67.574C136.464 67.5494 136.463 67.5239 136.467 67.4989C136.475 67.4488 136.503 67.404 136.544 67.3739C136.585 67.3437 136.636 67.3306 136.686 67.3373C137.578 67.4758 138.482 67.6066 139.379 67.722C139.43 67.7251 139.477 67.7483 139.511 67.7865C139.545 67.8247 139.563 67.8749 139.559 67.9259C139.556 67.9769 139.533 68.0246 139.495 68.0585C139.457 68.0924 139.407 68.1097 139.356 68.1067L139.344 68.1028ZM133.959 67.2681H133.924C133.036 67.1065 132.136 66.9296 131.251 66.745C131.2 66.7348 131.155 66.7047 131.126 66.6614C131.097 66.6181 131.087 66.5652 131.097 66.5142C131.107 66.4632 131.137 66.4183 131.181 66.3894C131.224 66.3606 131.277 66.3501 131.328 66.3603C132.212 66.5449 133.109 66.7219 133.993 66.8834C134.019 66.8876 134.042 66.8967 134.064 66.9102C134.086 66.9237 134.104 66.9414 134.119 66.9621C134.133 66.9829 134.144 67.0063 134.149 67.0311C134.155 67.0559 134.156 67.0815 134.151 67.1065C134.142 67.1496 134.118 67.1883 134.084 67.2162C134.049 67.2441 134.007 67.2597 133.963 67.2604L133.959 67.2681ZM128.631 66.1526H128.585C127.708 65.9449 126.816 65.7218 125.943 65.491C125.917 65.4846 125.893 65.4734 125.873 65.4579C125.852 65.4424 125.834 65.423 125.821 65.4006C125.807 65.3783 125.798 65.3536 125.795 65.3278C125.791 65.3021 125.792 65.2758 125.798 65.2505C125.805 65.2253 125.816 65.2015 125.831 65.1806C125.847 65.1597 125.866 65.142 125.889 65.1286C125.911 65.1152 125.936 65.1064 125.961 65.1025C125.987 65.0987 126.013 65.1 126.039 65.1063C126.912 65.3371 127.797 65.5602 128.674 65.7641C128.723 65.7768 128.767 65.8084 128.794 65.8521C128.821 65.8958 128.83 65.9483 128.82 65.9987C128.81 66.0401 128.786 66.0769 128.752 66.1034C128.719 66.1298 128.678 66.1444 128.635 66.1449L128.631 66.1526ZM132.162 65.791H132.132C132.082 65.7825 132.037 65.7549 132.007 65.714C131.977 65.6731 131.963 65.6221 131.97 65.5717C132.105 64.6571 132.333 63.7587 132.651 62.8907C132.668 62.8427 132.704 62.8036 132.75 62.782C132.796 62.7604 132.849 62.7579 132.897 62.7753C132.945 62.7926 132.984 62.8283 133.006 62.8745C133.027 62.9206 133.03 62.9735 133.013 63.0214C132.706 63.8635 132.487 64.7349 132.359 65.6217C132.351 65.6673 132.328 65.7086 132.293 65.7383C132.257 65.7679 132.212 65.7839 132.166 65.7833L132.162 65.791ZM123.365 64.764C123.348 64.7675 123.329 64.7675 123.311 64.764C122.446 64.5139 121.565 64.2447 120.703 63.9677C120.679 63.9603 120.657 63.9481 120.637 63.9318C120.618 63.9155 120.602 63.8954 120.59 63.8727C120.579 63.8501 120.572 63.8254 120.57 63.8001C120.569 63.7747 120.572 63.7493 120.58 63.7254C120.596 63.6769 120.631 63.6368 120.676 63.6137C120.721 63.5906 120.774 63.5865 120.823 63.6023C121.68 63.8754 122.554 64.1446 123.419 64.3947C123.468 64.409 123.509 64.4421 123.534 64.4868C123.558 64.5316 123.564 64.5842 123.55 64.6332C123.536 64.6699 123.512 64.7016 123.479 64.7236C123.447 64.7457 123.408 64.7571 123.369 64.7563L123.365 64.764ZM155.411 63.7754C155.367 63.7745 155.324 63.7584 155.289 63.7297C155.255 63.701 155.232 63.6615 155.223 63.6177C155.015 62.7697 154.537 62.0122 153.861 61.4597C153.843 61.4422 153.829 61.4212 153.819 61.3981C153.81 61.375 153.805 61.3502 153.805 61.3251C153.805 61.3 153.81 61.2752 153.819 61.2521C153.829 61.229 153.843 61.208 153.861 61.1905C153.879 61.1724 153.9 61.1581 153.924 61.1484C153.947 61.1386 153.972 61.1336 153.998 61.1336C154.023 61.1336 154.048 61.1386 154.072 61.1484C154.095 61.1581 154.116 61.1724 154.134 61.1905C154.874 61.7971 155.394 62.6294 155.615 63.56C155.62 63.5847 155.62 63.6102 155.616 63.635C155.611 63.6598 155.601 63.6834 155.587 63.7045C155.573 63.7256 155.555 63.7437 155.534 63.7579C155.513 63.772 155.49 63.7819 155.465 63.7869L155.411 63.7754ZM118.184 63.1022C118.162 63.1062 118.14 63.1062 118.119 63.1022C117.241 62.7906 116.384 62.4675 115.561 62.1444C115.514 62.1248 115.476 62.0877 115.456 62.0411C115.436 61.9945 115.435 61.9419 115.453 61.8944C115.462 61.8709 115.476 61.8494 115.494 61.8313C115.511 61.8132 115.532 61.7987 115.556 61.7887C115.579 61.7787 115.604 61.7733 115.629 61.773C115.654 61.7727 115.679 61.7773 115.703 61.7867C116.518 62.1098 117.376 62.4291 118.245 62.7406C118.293 62.7573 118.332 62.792 118.355 62.8374C118.377 62.8827 118.381 62.935 118.365 62.983C118.349 63.0167 118.324 63.0451 118.293 63.0649C118.261 63.0847 118.225 63.095 118.188 63.0945L118.184 63.1022ZM113.122 61.0904C113.096 61.0961 113.07 61.0961 113.045 61.0904C112.199 60.7058 111.368 60.3211 110.579 59.9172C110.555 59.9071 110.533 59.892 110.514 59.8729C110.496 59.8538 110.482 59.8312 110.473 59.8064C110.464 59.7815 110.46 59.7551 110.461 59.7287C110.463 59.7023 110.47 59.6765 110.481 59.6529C110.493 59.6293 110.51 59.6084 110.53 59.5915C110.551 59.5747 110.574 59.5622 110.6 59.5549C110.625 59.5475 110.652 59.5455 110.678 59.549C110.704 59.5524 110.73 59.5612 110.752 59.5749C111.522 59.9595 112.36 60.3442 113.203 60.7289C113.254 60.7396 113.298 60.7701 113.327 60.8138C113.355 60.8574 113.365 60.9106 113.354 60.9616C113.344 61.0126 113.313 61.0573 113.27 61.0858C113.226 61.1142 113.173 61.1242 113.122 61.1135V61.0904ZM134.093 60.7558C134.052 60.7557 134.012 60.7436 133.978 60.7212C133.937 60.6906 133.91 60.645 133.903 60.5945C133.896 60.544 133.909 60.4927 133.94 60.4519C134.443 59.7616 135.061 59.163 135.767 58.6825L135.967 58.5555C135.988 58.5421 136.012 58.5331 136.037 58.529C136.062 58.5248 136.088 58.5256 136.112 58.5313C136.137 58.537 136.16 58.5476 136.181 58.5623C136.201 58.577 136.219 58.5956 136.232 58.6171C136.246 58.6385 136.255 58.6624 136.259 58.6874C136.263 58.7124 136.262 58.7379 136.256 58.7625C136.251 58.7872 136.24 58.8105 136.225 58.831C136.211 58.8516 136.192 58.8691 136.171 58.8825L135.982 59.0017C135.312 59.4575 134.726 60.0248 134.247 60.6789C134.229 60.7006 134.206 60.7181 134.18 60.73C134.154 60.742 134.126 60.7482 134.097 60.7481L134.093 60.7558ZM151.738 59.9865C151.706 59.9862 151.674 59.9783 151.646 59.9634C151.322 59.7903 151.007 59.6287 150.707 59.4787C150.218 59.2402 149.715 59.0171 149.207 58.8171C149.181 58.8094 149.158 58.7966 149.138 58.7794C149.118 58.7622 149.101 58.7411 149.09 58.7173C149.078 58.6935 149.072 58.6676 149.071 58.6411C149.069 58.6147 149.074 58.5883 149.083 58.5637C149.093 58.539 149.107 58.5165 149.126 58.4977C149.145 58.4789 149.167 58.4642 149.192 58.4544C149.216 58.4446 149.242 58.44 149.269 58.4408C149.295 58.4417 149.321 58.448 149.345 58.4594C149.865 58.6594 150.38 58.8902 150.884 59.1364C151.184 59.2864 151.507 59.4479 151.834 59.6249C151.878 59.65 151.911 59.6913 151.925 59.7401C151.94 59.7889 151.935 59.8414 151.911 59.8865C151.894 59.9157 151.869 59.9396 151.839 59.9559C151.809 59.9721 151.776 59.98 151.742 59.9788L151.738 59.9865ZM108.271 58.6209C108.237 58.6216 108.204 58.6122 108.175 58.594C107.371 58.1286 106.59 57.6439 105.867 57.1477C105.83 57.1176 105.805 57.0747 105.798 57.0273C105.79 56.98 105.801 56.9316 105.827 56.8916C105.854 56.8517 105.894 56.8231 105.941 56.8114C105.987 56.7997 106.036 56.8057 106.079 56.8284C106.81 57.3169 107.583 57.8016 108.387 58.2632C108.423 58.2846 108.451 58.3172 108.467 58.3561C108.482 58.395 108.485 58.438 108.474 58.4785C108.463 58.5191 108.439 58.5549 108.406 58.5806C108.373 58.6063 108.332 58.6205 108.29 58.6209H108.271ZM146.68 58.017H146.633C145.759 57.8096 144.87 57.663 143.975 57.5785C143.925 57.5736 143.879 57.5491 143.846 57.5102C143.814 57.4713 143.798 57.4212 143.802 57.3708C143.808 57.3201 143.833 57.2736 143.873 57.2413C143.912 57.209 143.963 57.1933 144.014 57.1977C144.921 57.2836 145.82 57.4327 146.707 57.6439C146.758 57.6495 146.804 57.6751 146.836 57.7152C146.868 57.7552 146.883 57.8064 146.878 57.8574C146.872 57.9084 146.846 57.9551 146.806 57.9872C146.766 58.0193 146.715 58.0342 146.664 58.0285L146.68 58.017ZM138.582 57.8939C138.539 57.8934 138.497 57.8784 138.462 57.8512C138.428 57.8241 138.404 57.7863 138.394 57.7439C138.382 57.6944 138.391 57.6424 138.418 57.5991C138.444 57.5559 138.487 57.525 138.536 57.5131C139.212 57.3534 139.899 57.2441 140.59 57.1861C140.814 57.1861 141.04 57.1515 141.264 57.14C141.289 57.1373 141.315 57.14 141.339 57.1478C141.364 57.1556 141.386 57.1685 141.405 57.1855C141.424 57.2025 141.44 57.2233 141.451 57.2466C141.461 57.2699 141.467 57.2951 141.467 57.3208C141.47 57.3712 141.452 57.4204 141.418 57.4578C141.384 57.4952 141.337 57.5178 141.287 57.5208C141.064 57.5208 140.844 57.5516 140.625 57.5708C139.953 57.6265 139.285 57.7319 138.629 57.8862L138.582 57.8939ZM103.759 55.5859C103.716 55.5868 103.674 55.5733 103.64 55.5475C102.909 54.9743 102.209 54.3743 101.559 53.7703C101.541 53.7525 101.527 53.7312 101.517 53.7078C101.507 53.6843 101.502 53.6592 101.502 53.6338C101.502 53.6084 101.507 53.5833 101.517 53.5598C101.527 53.5364 101.541 53.5151 101.559 53.4972C101.595 53.4618 101.644 53.4419 101.695 53.4419C101.746 53.4419 101.795 53.4618 101.832 53.4972C102.474 54.0973 103.167 54.6897 103.89 55.2551C103.93 55.2869 103.955 55.333 103.961 55.3834C103.967 55.4339 103.952 55.4845 103.921 55.5244C103.9 55.5444 103.875 55.5594 103.848 55.5681C103.82 55.5767 103.791 55.5789 103.763 55.5744L103.759 55.5859ZM99.7894 51.874C99.7619 51.8737 99.7347 51.8678 99.7095 51.8565C99.6844 51.8453 99.6618 51.829 99.6433 51.8086C99.0389 51.1214 98.475 50.3996 97.9546 49.6468C97.9258 49.6047 97.9145 49.5531 97.9231 49.5028C97.9317 49.4525 97.9596 49.4076 98.0008 49.3775C98.0436 49.3501 98.0953 49.3399 98.1453 49.3492C98.1953 49.3585 98.2399 49.3865 98.27 49.4275C98.7893 50.1654 99.3519 50.8719 99.9548 51.5432C99.9901 51.5791 100.01 51.6275 100.01 51.6778C100.01 51.7281 99.9901 51.7765 99.9548 51.8124C99.9335 51.8325 99.9079 51.8475 99.8799 51.8561C99.8519 51.8648 99.8222 51.867 99.7933 51.8624L99.7894 51.874ZM96.7122 47.4004C96.6767 47.4002 96.6419 47.39 96.612 47.3709C96.5821 47.3519 96.5581 47.3247 96.5429 47.2927C96.1212 46.4795 95.7574 45.6376 95.4543 44.7731C95.4382 44.7247 95.4417 44.6718 95.464 44.6258C95.4862 44.5799 95.5255 44.5444 95.5736 44.527C95.6215 44.511 95.6738 44.5146 95.7192 44.5369C95.7645 44.5592 95.7993 44.5985 95.8159 44.6462C96.1133 45.4949 96.4707 46.3215 96.8853 47.1196C96.9081 47.165 96.912 47.2176 96.8961 47.2659C96.8803 47.3142 96.8459 47.3542 96.8006 47.3773C96.7726 47.3886 96.7421 47.3926 96.7122 47.3888V47.4004ZM94.9543 42.2613C94.9086 42.2618 94.8643 42.2457 94.8297 42.2159C94.795 42.1862 94.7723 42.1449 94.7658 42.0997C94.7273 41.8959 94.6965 41.692 94.6658 41.4843C94.5718 40.8062 94.5242 40.1225 94.5234 39.4379V39.3571C94.5234 39.3061 94.5437 39.2572 94.5798 39.2211C94.6158 39.1851 94.6648 39.1648 94.7158 39.1648C94.7668 39.1648 94.8157 39.1851 94.8518 39.2211C94.8878 39.2572 94.9081 39.3061 94.9081 39.3571V39.434C94.9075 40.1007 94.9538 40.7665 95.0466 41.4266C95.0773 41.6305 95.1081 41.8305 95.1427 42.0305C95.1517 42.0805 95.1406 42.132 95.1118 42.1738C95.083 42.2156 95.0388 42.2443 94.9889 42.2536L94.9543 42.2613ZM94.9735 36.8453H94.9389C94.889 36.8359 94.8448 36.8072 94.816 36.7654C94.7871 36.7236 94.776 36.6721 94.785 36.6222C94.9522 35.7186 95.1954 34.8307 95.512 33.968C95.531 33.9204 95.5675 33.8819 95.614 33.8604C95.6605 33.839 95.7135 33.8362 95.762 33.8526C95.8093 33.8707 95.8475 33.9067 95.8684 33.9528C95.8892 33.9989 95.8911 34.0513 95.8736 34.0988C95.5626 34.9411 95.3246 35.8084 95.162 36.6914C95.1535 36.7387 95.1273 36.781 95.0886 36.8096C95.05 36.8382 95.002 36.8509 94.9543 36.8453H94.9735ZM96.8506 31.7639C96.817 31.7622 96.7841 31.753 96.7545 31.737C96.7105 31.7106 96.6787 31.668 96.6658 31.6184C96.6528 31.5688 96.6598 31.5161 96.6852 31.4716C97.1477 30.6769 97.6821 29.9262 98.2816 29.229C98.3164 29.1976 98.3616 29.18 98.4085 29.1795C98.4554 29.179 98.5009 29.1957 98.5364 29.2265C98.5718 29.2572 98.5948 29.2999 98.601 29.3464C98.6072 29.3929 98.5962 29.4401 98.5701 29.479C97.9937 30.1619 97.4788 30.8943 97.0314 31.6677C97.0126 31.7011 96.9842 31.7281 96.95 31.7452C96.9157 31.7624 96.8771 31.7689 96.8391 31.7639H96.8506ZM100.393 27.6673C100.354 27.6671 100.315 27.6545 100.283 27.6314C100.25 27.6083 100.226 27.5757 100.213 27.5382C100.2 27.5007 100.199 27.46 100.21 27.4218C100.221 27.3837 100.243 27.3498 100.274 27.3249C101.001 26.7606 101.78 26.2673 102.601 25.8517C102.647 25.8287 102.7 25.825 102.749 25.8412C102.798 25.8574 102.838 25.8923 102.861 25.9382C102.884 25.9841 102.888 26.0373 102.871 26.086C102.855 26.1347 102.82 26.1749 102.774 26.1979C101.976 26.6025 101.217 27.0816 100.509 27.6288C100.473 27.6566 100.427 27.6703 100.382 27.6673H100.393ZM124.019 25.2708C123.103 25.2507 122.19 25.1698 121.284 25.0285C121.233 25.0214 121.187 24.9943 121.156 24.9531C121.125 24.912 121.112 24.8603 121.119 24.8093C121.126 24.7582 121.153 24.7122 121.194 24.6811C121.235 24.6501 121.287 24.6367 121.338 24.6438C122.229 24.784 123.129 24.8636 124.031 24.8823C124.082 24.8823 124.131 24.9026 124.167 24.9387C124.203 24.9747 124.223 25.0237 124.223 25.0747C124.223 25.1257 124.203 25.1746 124.167 25.2107C124.131 25.2467 124.082 25.267 124.031 25.267L124.019 25.2708ZM105.194 25.1708C105.169 25.1749 105.143 25.1739 105.118 25.168C105.093 25.162 105.07 25.1513 105.049 25.1363C105.028 25.1213 105.011 25.1023 104.997 25.0805C104.984 25.0587 104.975 25.0345 104.971 25.0093C104.967 24.984 104.968 24.9582 104.974 24.9333C104.98 24.9084 104.99 24.885 105.005 24.8643C105.02 24.8435 105.039 24.826 105.061 24.8126C105.083 24.7992 105.107 24.7902 105.132 24.7862C106.003 24.5036 106.889 24.2724 107.787 24.0938C107.812 24.0888 107.837 24.0888 107.862 24.0938C107.887 24.0989 107.911 24.1089 107.932 24.1232C107.953 24.1375 107.971 24.1559 107.985 24.1772C107.999 24.1986 108.009 24.2225 108.013 24.2476C108.019 24.2722 108.02 24.2976 108.015 24.3224C108.01 24.3472 108.001 24.3707 107.987 24.3916C107.973 24.4125 107.954 24.4303 107.933 24.4439C107.912 24.4575 107.888 24.4667 107.863 24.4707C106.981 24.6474 106.108 24.8747 105.252 25.1516L105.194 25.1708ZM118.626 24.5669H118.592C117.765 24.4131 116.83 24.24 115.899 24.1092C115.849 24.1016 115.804 24.0747 115.774 24.0345C115.744 23.9942 115.731 23.9437 115.737 23.8938C115.74 23.8686 115.748 23.8442 115.761 23.8221C115.773 23.8 115.79 23.7807 115.81 23.7652C115.83 23.7498 115.853 23.7386 115.878 23.7322C115.902 23.7259 115.928 23.7246 115.953 23.7284C116.876 23.8591 117.815 24.0361 118.646 24.1899C118.695 24.1993 118.74 24.228 118.768 24.2698C118.797 24.3116 118.808 24.3631 118.799 24.413C118.793 24.4559 118.772 24.4953 118.741 24.5252C118.71 24.5551 118.669 24.5739 118.626 24.5785V24.5669ZM110.518 24.0707C110.467 24.0738 110.416 24.0564 110.378 24.0225C110.34 23.9886 110.317 23.9409 110.314 23.8899C110.311 23.8389 110.328 23.7888 110.362 23.7505C110.396 23.7123 110.444 23.6891 110.495 23.686C110.983 23.6322 111.506 23.5822 112.033 23.5399C112.372 23.5129 112.729 23.4976 113.095 23.4976H113.222C113.247 23.4981 113.272 23.5035 113.295 23.5137C113.318 23.5238 113.339 23.5384 113.357 23.5566C113.374 23.5748 113.388 23.5963 113.397 23.6198C113.406 23.6434 113.411 23.6685 113.41 23.6937C113.407 23.7435 113.386 23.7903 113.351 23.8252C113.315 23.8601 113.268 23.8804 113.218 23.8822H113.095C112.741 23.8822 112.395 23.8822 112.06 23.9207C111.529 23.963 111.014 24.013 110.521 24.0707H110.518Z" fill="white"/>
<path d="M109.493 91.4709C109.035 91.4517 108.581 91.417 108.143 91.3747C108.118 91.3728 108.093 91.3659 108.071 91.3543C108.048 91.3428 108.029 91.3268 108.012 91.3075C107.996 91.2881 107.984 91.2657 107.977 91.2416C107.97 91.2174 107.967 91.1921 107.97 91.167C107.971 91.1417 107.978 91.1169 107.989 91.0942C108.001 91.0716 108.016 91.0515 108.036 91.0352C108.055 91.019 108.078 91.0069 108.102 90.9998C108.127 90.9927 108.152 90.9907 108.178 90.9939C108.612 91.0362 109.058 91.067 109.512 91.0862C109.563 91.0862 109.612 91.1065 109.648 91.1426C109.684 91.1786 109.705 91.2276 109.705 91.2786C109.705 91.3296 109.684 91.3785 109.648 91.4146C109.612 91.4506 109.563 91.4709 109.512 91.4709H109.493Z" fill="white"/>
</g>
<path d="M145.281 10.7403L131.699 10.1829C131.015 10.1548 130.438 10.6862 130.41 11.3696L130.158 17.519C130.13 18.2025 130.661 18.7793 131.345 18.8074L144.927 19.3648C145.611 19.3928 146.187 18.8615 146.215 18.178L146.468 12.0286C146.496 11.3451 145.964 10.7683 145.281 10.7403Z" fill="#1BAB8E"/>
<path opacity="0.8" d="M145.281 10.7403L131.699 10.1829C131.015 10.1548 130.438 10.6862 130.41 11.3696L130.158 17.519C130.13 18.2025 130.661 18.7793 131.345 18.8074L144.927 19.3648C145.611 19.3928 146.187 18.8615 146.215 18.178L146.468 12.0286C146.496 11.3451 145.964 10.7683 145.281 10.7403Z" fill="white"/>
<path opacity="0.4" d="M138.267 16.4203C138.227 16.4201 138.188 16.4081 138.155 16.3857L131.124 11.5467C131.103 11.5324 131.084 11.514 131.07 11.4927C131.057 11.4714 131.047 11.4475 131.042 11.4225C131.038 11.3974 131.038 11.3717 131.043 11.3468C131.049 11.3219 131.059 11.2983 131.074 11.2774C131.103 11.2366 131.147 11.2087 131.196 11.1994C131.246 11.1901 131.297 11.2001 131.339 11.2274L138.263 16.0049L145.571 11.8121C145.616 11.7871 145.668 11.7809 145.717 11.7946C145.766 11.8083 145.808 11.8408 145.833 11.8852C145.858 11.9291 145.865 11.9812 145.852 12.0302C145.839 12.0791 145.807 12.121 145.764 12.1467L138.371 16.378C138.341 16.4027 138.305 16.4176 138.267 16.4203Z" fill="#1BAB8E"/>
<path opacity="0.4" d="M145.403 18.3024C145.365 18.3027 145.327 18.2906 145.296 18.2678L141.272 15.4713C141.251 15.457 141.233 15.4387 141.219 15.4174C141.205 15.3961 141.195 15.3722 141.191 15.3471C141.186 15.3221 141.186 15.2964 141.192 15.2715C141.197 15.2466 141.207 15.223 141.222 15.2021C141.252 15.1609 141.297 15.133 141.347 15.1244C141.398 15.1158 141.449 15.1271 141.491 15.1559L145.515 17.9601C145.536 17.9743 145.553 17.9925 145.567 18.0136C145.58 18.0347 145.589 18.0584 145.594 18.0831C145.598 18.1078 145.597 18.1331 145.592 18.1576C145.586 18.182 145.576 18.2051 145.561 18.2255C145.543 18.2499 145.519 18.2696 145.491 18.283C145.464 18.2964 145.434 18.303 145.403 18.3024Z" fill="#1BAB8E"/>
<path opacity="0.4" d="M130.998 17.7092C130.955 17.7113 130.912 17.6985 130.876 17.6729C130.841 17.6473 130.815 17.6105 130.804 17.5684C130.792 17.5264 130.795 17.4816 130.812 17.4415C130.83 17.4014 130.86 17.3683 130.898 17.3477L135.13 14.8935C135.173 14.8739 135.222 14.8711 135.267 14.8856C135.313 14.9001 135.351 14.931 135.375 14.9721C135.399 15.0133 135.407 15.0619 135.397 15.1085C135.387 15.155 135.36 15.1963 135.322 15.2243L131.091 17.6823C131.063 17.6995 131.031 17.7088 130.998 17.7092Z" fill="#1BAB8E"/>
<path d="M158.905 14.0371L131.837 20.2109L128.367 22.3535L158.905 14.0371Z" fill="#1BAB8E"/>
<path opacity="0.2" d="M131.837 20.2109L128.367 22.3535L158.905 14.0371" fill="black"/>
<path d="M158.912 14.0374L131.844 20.2112L134.39 22.0845L158.912 14.0374Z" fill="#1BAB8E"/>
<path d="M158.905 14.0374L135.698 18.7841L134.383 22.0845L158.905 14.0374Z" fill="#1BAB8E"/>
<path opacity="0.2" d="M158.905 14.0374L135.698 18.7841L134.383 22.0845L158.905 14.0374Z" fill="black"/>
<path d="M158.91 14.0374L135.703 18.7841L143.012 21.4344L158.91 14.0374Z" fill="#1BAB8E"/>
</svg>
