<svg width="198" height="204" viewBox="0 0 198 204" fill="none" xmlns="http://www.w3.org/2000/svg">
<g id="update/pana">
<g id="background-complete">
<path id="Vector" d="M171.235 95.396C171.235 96.2498 170.982 97.0844 170.508 97.7943C170.033 98.5042 169.359 99.0575 168.57 99.3842C167.782 99.711 166.914 99.7965 166.076 99.6299C165.239 99.4633 164.47 99.0522 163.866 98.4485C163.262 97.8447 162.851 97.0756 162.685 96.2382C162.518 95.4008 162.603 94.5328 162.93 93.744C163.257 92.9552 163.81 92.281 164.52 91.8066C165.23 91.3323 166.065 91.0791 166.918 91.0791C168.063 91.0791 169.161 91.5339 169.971 92.3435C170.781 93.1531 171.235 94.2511 171.235 95.396Z" fill="#EBEBEB"/>
<path id="Vector_2" d="M157.353 98.648C159.149 96.8514 159.149 93.9386 157.353 92.1421C155.556 90.3455 152.643 90.3455 150.847 92.142C149.05 93.9386 149.05 96.8514 150.847 98.648C152.643 100.445 155.556 100.445 157.353 98.648Z" fill="#EBEBEB"/>
<path id="Vector_3" d="M144.247 92.14C146.941 92.14 149.126 89.9555 149.126 87.2607C149.126 84.5659 146.941 82.3813 144.247 82.3813C141.552 82.3813 139.367 84.5659 139.367 87.2607C139.367 89.9555 141.552 92.14 144.247 92.14Z" fill="#EBEBEB"/>
<path id="Vector_4" d="M147.274 75.6622C147.772 72.8905 145.929 70.2401 143.157 69.7424C140.385 69.2447 137.735 71.0881 137.237 73.8598C136.739 76.6315 138.583 79.2819 141.355 79.7796C144.126 80.2773 146.777 78.4339 147.274 75.6622Z" fill="#EBEBEB"/>
<path id="Vector_5" d="M148.487 69.0742C151.396 69.0742 153.755 66.7156 153.755 63.8061C153.755 60.8967 151.396 58.5381 148.487 58.5381C145.577 58.5381 143.219 60.8967 143.219 63.8061C143.219 66.7156 145.577 69.0742 148.487 69.0742Z" fill="#EBEBEB"/>
<path id="Vector_6" d="M162.698 64.7916C165.624 63.5685 167.006 60.2043 165.782 57.2774C164.559 54.3506 161.195 52.9694 158.268 54.1926C155.341 55.4157 153.96 58.7799 155.183 61.7067C156.407 64.6336 159.771 66.0147 162.698 64.7916Z" fill="#EBEBEB"/>
<path id="Vector_7" d="M180.504 88.1133C181.031 85.8711 179.641 83.6261 177.398 83.0989C175.156 82.5718 172.911 83.9621 172.384 86.2043C171.857 88.4465 173.247 90.6915 175.49 91.2186C177.732 91.7458 179.977 90.3555 180.504 88.1133Z" fill="#EBEBEB"/>
<path id="Vector_8" d="M180.052 78.2097C182.048 77.4454 183.046 75.2083 182.281 73.2131C181.517 71.2178 179.28 70.2199 177.285 70.9843C175.289 71.7486 174.291 73.9856 175.056 75.9809C175.82 77.9762 178.057 78.974 180.052 78.2097Z" fill="#EBEBEB"/>
<path id="Vector_9" d="M175.739 64.2366C176.051 62.3094 174.742 60.4941 172.815 60.182C170.888 59.8699 169.073 61.1791 168.76 63.1063C168.448 65.0334 169.758 66.8487 171.685 67.1609C173.612 67.473 175.427 66.1638 175.739 64.2366Z" fill="#EBEBEB"/>
<path id="Vector_10" fill-rule="evenodd" clip-rule="evenodd" d="M47.3277 42.8897C48.3794 44.0148 49.2774 45.2742 49.9983 46.635H54.2603L55.8472 53.4945L52.0059 55.3465C51.9549 56.8856 51.6997 58.4111 51.2468 59.8829L54.2741 62.8873L50.5288 68.8688L46.5046 67.4649C45.3823 68.5186 44.1224 69.4154 42.7593 70.1309V74.3975L35.8999 75.9797L34.0707 72.1384C32.5313 72.0912 31.0053 71.8358 29.5343 71.3793L26.5345 74.4066L20.553 70.6659L21.9569 66.6417C20.9053 65.5167 20.0073 64.2573 19.2863 62.8965H15.0243L13.4375 56.037L17.2788 54.185C17.3301 52.6459 17.5854 51.1205 18.0379 49.6486L15.0152 46.6442L18.7559 40.6627L22.7801 42.0666C23.9044 41.0154 25.1639 40.1188 26.5253 39.4006V35.134L33.3848 33.5518L35.2139 37.393C36.7532 37.4422 38.2789 37.6975 39.7503 38.1522L42.7502 35.1249L48.7362 38.8655L47.3277 42.8897ZM38.9135 48.5191C37.6442 47.7258 36.1683 47.3266 34.6722 47.3721C33.1761 47.4176 31.7271 47.9057 30.5084 48.7746C29.2897 49.6436 28.356 50.8544 27.8255 52.254C27.2949 53.6535 27.1912 55.179 27.5275 56.6375C27.8638 58.096 28.6251 59.422 29.715 60.4479C30.8049 61.4737 32.1745 62.1534 33.6507 62.4009C35.1268 62.6484 36.6432 62.4527 38.0081 61.8385C39.373 61.2242 40.5252 60.219 41.3188 58.95C41.8466 58.1074 42.203 57.169 42.3677 56.1885C42.5324 55.208 42.5022 54.2046 42.2788 53.2358C42.0554 52.267 41.6431 51.3518 41.0657 50.5424C40.4882 49.7331 39.7569 49.0455 38.9135 48.5191Z" fill="#E0E0E0"/>
<path id="Vector_11" fill-rule="evenodd" clip-rule="evenodd" d="M51.4778 13.9746C52.0588 14.5991 52.5554 15.2971 52.9549 16.0507H55.3145L56.1925 19.8554L54.0615 20.8706C54.0347 21.724 53.8931 22.57 53.6408 23.3857L55.3145 25.0457L53.243 28.3565L51.0159 27.5791C50.3926 28.1615 49.6944 28.6583 48.9398 29.0562V31.4204L45.1351 32.2939L44.1108 30.1674C43.2588 30.1405 42.4144 29.999 41.6002 29.7467L39.9356 31.425L36.6248 29.3535L37.4022 27.1264C36.8198 26.5031 36.3231 25.8049 35.9252 25.0503H33.5655L32.6875 21.2456L34.8276 20.2395C34.8549 19.3876 34.9964 18.5432 35.2484 17.729L33.5747 16.069L35.6416 12.7536L37.8732 13.5356C38.4941 12.9522 39.1909 12.4554 39.9448 12.0585V9.69428L43.7403 8.80713L44.7693 10.9381C45.6208 10.9657 46.4649 11.1056 47.2798 11.3543L48.9444 9.68056L52.2552 11.7521L51.4778 13.9791V13.9746ZM46.818 17.0933C46.1155 16.6539 45.2985 16.4327 44.4704 16.4576C43.6422 16.4826 42.84 16.7525 42.1653 17.2334C41.4905 17.7143 40.9736 18.3845 40.6798 19.1592C40.386 19.9339 40.3285 20.7784 40.5147 21.5857C40.7009 22.3931 41.1223 23.1271 41.7257 23.695C42.329 24.2628 43.0873 24.639 43.9044 24.7758C44.7216 24.9127 45.561 24.8042 46.3165 24.4639C47.072 24.1237 47.7096 23.5671 48.1487 22.8644C48.7373 21.9226 48.9277 20.7856 48.6781 19.7034C48.4286 18.6212 47.7595 17.6823 46.818 17.0933Z" fill="#E0E0E0"/>
<path id="Vector_12" d="M18.3592 21.0121C18.3592 21.0121 18.4278 21.0395 18.5513 21.1173C18.7273 21.2295 18.8899 21.3614 19.036 21.5105C19.5025 21.9818 19.8227 22.5779 19.9582 23.2269C20.0937 23.876 20.0387 24.5504 19.7997 25.1689C19.5749 25.7481 19.1991 26.2565 18.7113 26.6414C18.167 27.0694 17.5084 27.3271 16.8181 27.3822C16.0752 27.4421 15.3328 27.2609 14.701 26.8655C14.0692 26.4701 13.5816 25.8815 13.3107 25.1872C13.176 24.8626 13.0956 24.5181 13.0729 24.1674C13.0462 23.8303 13.0709 23.4911 13.1461 23.1614C13.2797 22.5527 13.5733 21.9907 13.9966 21.5334C14.3664 21.1387 14.8238 20.8364 15.3319 20.6508C16.0711 20.3859 16.8793 20.3859 17.6184 20.6508C17.8172 20.7146 18.0076 20.8021 18.1855 20.9115C18.3044 20.9892 18.3684 21.0304 18.3638 21.0395C18.3592 21.0487 18.1031 20.8886 17.591 20.7286C16.8687 20.5109 16.0943 20.5415 15.3914 20.8155C14.8833 21.0153 14.4323 21.3373 14.0782 21.7528C13.7241 22.1683 13.4778 22.6647 13.361 23.198C13.2264 23.8363 13.2853 24.5002 13.5302 25.1049C13.7891 25.7542 14.247 26.3048 14.8381 26.678C15.4337 27.045 16.1294 27.2161 16.8273 27.1673C17.1571 27.1459 17.4813 27.0717 17.7876 26.9478C18.0845 26.84 18.3624 26.6856 18.6107 26.4905C19.0482 26.1531 19.3938 25.7113 19.616 25.2055C19.8381 24.6997 19.9296 24.1462 19.882 23.5958C19.8215 22.8438 19.5108 22.1338 18.9994 21.5791C18.6107 21.1813 18.3455 21.0304 18.3592 21.0121Z" fill="#E0E0E0"/>
<path id="Vector_13" d="M22.1359 18.4879C22.1359 18.4879 22.1359 18.4467 22.1679 18.3735C22.1999 18.3004 22.232 18.1723 22.2823 18.026L22.7396 16.6541V16.6953L20.0461 15.0353H20.1147L18.7748 16.4072L18.7474 16.4346H18.7108C18.0549 16.2345 17.375 16.1237 16.6895 16.1053H16.6575V16.0688L15.8207 14.3493L15.9075 14.3905L12.8254 15.1084L12.8894 15.0261C12.8894 15.616 12.8894 16.27 12.8894 16.9376V16.9925H12.8391C12.2372 17.3139 11.6805 17.7137 11.1837 18.1815L11.1425 18.2181H11.0876L9.28133 17.5916L9.39565 17.5504L7.71738 20.2393V20.1158L9.08926 21.4877L9.13499 21.5289V21.5883C8.93623 22.24 8.82399 22.9149 8.80117 23.5959V23.6599L8.74172 23.6873L6.96284 24.4784L7.02228 24.3595C7.24636 25.3336 7.47958 26.3808 7.73567 27.4417L7.63049 27.3594H9.54199H9.60601L9.63802 27.4189C9.9552 28.0211 10.352 28.5779 10.8178 29.0743C10.8178 29.1246 10.8178 28.9691 10.8407 29.184V29.2115V29.2709L10.7996 29.3852L10.7218 29.6093L10.5618 30.0666L10.2462 30.9812L10.2051 30.8532L12.8848 32.5314H12.7522L14.1241 31.1595L14.1698 31.1138H14.2293C14.8802 31.3162 15.5555 31.43 16.2368 31.4522H16.3008L16.3283 31.5071C16.6072 32.0879 16.8862 32.664 17.156 33.2311L17.0416 33.1762L20.1284 32.4674L20.0507 32.5634C20.0507 31.9141 20.0507 31.2784 20.0507 30.6519V30.5925L20.101 30.5651C20.706 30.2479 21.2659 29.8511 21.7655 29.3852L21.8067 29.3486H21.857L23.6862 29.9797L23.581 30.0209C24.1709 29.0743 24.7334 28.1917 25.2638 27.3411V27.4417L23.8919 26.0698L23.8554 26.0332V25.9921C24.0603 25.3384 24.1756 24.66 24.1983 23.9754V23.9343H24.2349L25.9635 23.1066L25.9269 23.1797C25.6571 21.9862 25.4285 20.9664 25.2318 20.093L25.2776 20.1296H23.3112C23.0679 19.6831 22.7831 19.2605 22.4606 18.8674C22.3554 18.7439 22.2777 18.6433 22.2182 18.5702C22.189 18.5397 22.1615 18.5077 22.1359 18.4741C22.1359 18.4741 22.1725 18.5016 22.232 18.561C22.2914 18.6205 22.3783 18.7165 22.488 18.8446C22.8239 19.245 23.1181 19.6786 23.3661 20.1387H23.334H25.2455H25.2867V20.1753C25.4879 21.0487 25.744 22.0639 26.0092 23.2575V23.3078H25.9635L24.2441 24.1492L24.2806 24.0852C24.2611 24.7829 24.1488 25.4749 23.9468 26.143V26.0653L25.3187 27.4051L25.3644 27.4554L25.3324 27.5103L23.6587 30.1946L23.6221 30.2587L23.5535 30.2312L21.7244 29.6047H21.8158C21.3073 30.083 20.7366 30.4906 20.1192 30.8166L20.1696 30.7343C20.1696 31.3608 20.1696 31.9964 20.1696 32.6458V32.7235H20.0918L17.0234 33.4277H16.9456L16.909 33.35C16.6347 32.7875 16.3603 32.2113 16.0768 31.6306L16.1682 31.69C15.4683 31.667 14.7746 31.5501 14.1058 31.3425H14.211L12.8665 32.7143L12.8025 32.7738L12.7339 32.7281L10.0496 31.0498L9.97642 31.0041L10.0039 30.9217L10.3194 30.0072L10.4749 29.5499L10.5572 29.3212L10.5938 29.2069V29.152V29.1246C10.6395 29.3395 10.5938 29.184 10.6166 29.2298C10.1362 28.7213 9.72838 28.1488 9.4048 27.5286L9.49626 27.5835H7.58476H7.49787V27.5012C7.2555 26.4402 7.01314 25.393 6.78906 24.4144V24.3321L6.86223 24.2955L8.59996 23.4404L8.54508 23.5318C8.56841 22.8323 8.68372 22.1389 8.88805 21.4694L8.91549 21.57L7.5436 20.1982L7.48415 20.1433L7.52531 20.0747L9.24932 17.4361L9.29047 17.3721H9.36364L11.1654 18.0077H11.0739C11.5851 17.5319 12.1572 17.1259 12.7751 16.8004L12.7293 16.8782C12.7293 16.2105 12.7293 15.5566 12.7293 14.9667V14.8981H12.7934L15.8801 14.1938H15.9396L15.967 14.2487C16.2551 14.8569 16.534 15.4377 16.7947 15.9727L16.7307 15.9361C17.4277 15.9616 18.1183 16.08 18.7839 16.2883H18.7199L20.0918 14.9164L20.1238 14.8844H20.1604L22.831 16.5764H22.8539L22.3691 17.9117C22.3143 18.0534 22.2731 18.1678 22.2411 18.2546C22.2091 18.3415 22.1405 18.4833 22.1359 18.4879Z" fill="#E0E0E0"/>
</g>
<g id="Screen">
<path id="Vector_14" d="M131.606 1.34327L118.162 1.27925C117.723 1.28816 117.29 1.38349 116.888 1.55977C116.485 1.73605 116.122 1.98984 115.818 2.30664C115.514 2.62344 115.275 2.99704 115.115 3.4061C114.956 3.81516 114.878 4.25167 114.887 4.69068V7.12807C114.895 7.56647 114.817 8.00214 114.656 8.41017C114.496 8.81821 114.256 9.19062 113.952 9.50614C113.647 9.82166 113.284 10.0741 112.882 10.2491C112.48 10.424 112.047 10.518 111.609 10.5258L85.401 10.4069C84.5151 10.3829 83.675 10.0082 83.0653 9.36509C82.4556 8.72196 82.1262 7.86305 82.1496 6.97716V4.53977C82.173 3.65388 81.8436 2.79497 81.2339 2.15184C80.6242 1.50871 79.7841 1.13399 78.8982 1.11005H74.1698L62.399 1.03231C59.5969 1.02136 56.9049 2.12276 54.9141 4.09472C52.9233 6.06668 51.7963 8.74803 51.7806 11.5501L51.0626 181.244C51.0504 184.047 52.1512 186.741 54.1231 188.733C56.0951 190.726 58.7771 191.854 61.5804 191.871L130.788 192.187C133.591 192.199 136.285 191.097 138.277 189.124C140.269 187.151 141.396 184.468 141.411 181.664L142.129 11.9708C142.136 10.582 141.869 9.20539 141.344 7.91959C140.819 6.63379 140.046 5.46401 139.069 4.47709C138.092 3.49017 136.93 2.70543 135.649 2.16772C134.369 1.63001 132.995 1.34986 131.606 1.34327Z" fill="white"/>
<path id="Vector_15" d="M131.602 1.34329C131.602 1.34329 131.725 1.34329 131.963 1.34329C132.323 1.34665 132.682 1.37569 133.038 1.43017C134.44 1.60031 135.791 2.06804 136.998 2.80206C137.894 3.32874 138.704 3.99045 139.399 4.76387C140.254 5.70193 140.934 6.78621 141.406 7.96494C141.948 9.33034 142.211 10.7904 142.179 12.259C142.179 13.8183 142.179 15.46 142.179 17.2435C142.129 31.3419 142.056 51.7374 141.964 76.9344C141.873 102.131 141.749 132.144 141.617 165.467C141.598 169.634 141.582 173.849 141.566 178.111C141.566 179.181 141.566 180.247 141.566 181.312C141.579 182.394 141.439 183.471 141.15 184.513C140.847 185.567 140.385 186.568 139.778 187.481C139.164 188.392 138.421 189.21 137.574 189.909C135.834 191.309 133.699 192.128 131.469 192.251C130.911 192.287 130.363 192.278 129.809 192.274H128.145H124.816L111.344 192.21L83.6909 192.086L69.5467 192.022L62.4037 191.986C59.968 192.114 57.5576 191.437 55.5443 190.06C53.5428 188.657 52.0772 186.616 51.3875 184.271C51.0577 183.109 50.9141 181.902 50.9622 180.695V177.128C50.9805 172.381 51.0003 167.667 51.0216 162.984C51.0613 153.618 51.1009 144.398 51.1405 135.322C51.2183 117.19 51.296 99.6986 51.3692 83.0347C51.4423 66.3708 51.5155 50.5392 51.5795 35.7228C51.6131 28.3146 51.6451 21.1671 51.6756 14.2802C51.6756 13.4205 51.6756 12.5653 51.6756 11.7148C51.6756 11.2895 51.7167 10.8596 51.7396 10.4343C51.7624 10.0091 51.8493 9.58377 51.9591 9.17678C52.3378 7.55117 53.0935 6.0374 54.1651 4.75767C55.2367 3.47795 56.5942 2.46812 58.128 1.80973C59.6107 1.17886 61.2142 0.882216 62.8244 0.940867L72.0481 0.986598L76.4702 1.03233H78.6423C79.3788 0.996739 80.1066 1.20399 80.7139 1.62224C81.3064 2.03919 81.754 2.6307 81.9943 3.31424C82.1899 3.99088 82.2581 4.69795 82.1955 5.39951C82.1955 5.74248 82.1955 6.08545 82.1955 6.42842C82.183 6.76563 82.1937 7.1033 82.2275 7.43905C82.3081 8.0981 82.5817 8.71861 83.0141 9.2225C83.4345 9.7237 84.0028 10.0791 84.6375 10.2377C84.9499 10.315 85.2715 10.3488 85.5932 10.3383H86.5673H90.3857L104.338 10.416L110.488 10.4481C110.973 10.4481 111.467 10.4755 111.929 10.4481C112.392 10.3954 112.838 10.2391 113.232 9.99076C113.611 9.75304 113.938 9.44208 114.195 9.07614C114.452 8.7102 114.633 8.29665 114.728 7.85976C114.804 7.43447 114.834 7.00194 114.814 6.57019C114.814 6.1449 114.814 5.71961 114.814 5.30805C114.798 4.89553 114.817 4.48233 114.874 4.07335C114.944 3.6769 115.08 3.29504 115.276 2.94383C115.652 2.27086 116.248 1.74769 116.964 1.46218C117.659 1.16494 118.395 1.26098 119.063 1.24726L125.922 1.29299L130.143 1.32042C131.094 1.32042 131.579 1.32042 131.579 1.32042H130.143H125.922H119.063C118.366 1.2511 117.663 1.32423 116.996 1.53535C116.295 1.81162 115.712 2.32445 115.349 2.98498C115.157 3.32729 115.024 3.7 114.956 4.08707C114.903 4.49176 114.885 4.90023 114.901 5.30805C114.901 5.72419 114.901 6.1449 114.901 6.57019C114.92 7.008 114.891 7.44653 114.814 7.87805C114.718 8.32785 114.532 8.75374 114.268 9.13069C114.004 9.50764 113.667 9.82805 113.278 10.0731C112.871 10.3236 112.413 10.4799 111.938 10.5304C111.449 10.5715 110.973 10.5304 110.484 10.5304L104.365 10.5349L90.4131 10.4801H86.5947H85.6161C85.2823 10.492 84.9484 10.4581 84.6238 10.3795C83.9617 10.2133 83.3684 9.84391 82.9272 9.32311C82.4763 8.79681 82.1901 8.14959 82.1041 7.46191C82.0729 7.11989 82.0622 6.7763 82.072 6.433C82.072 6.09003 82.072 5.74705 82.072 5.40408C82.1339 4.71943 82.0672 4.02925 81.8754 3.36911C81.6435 2.71606 81.2155 2.15065 80.6498 1.75028C80.0679 1.35054 79.3702 1.1544 78.6652 1.19238H76.493H72.0527L62.8336 1.15122C61.2276 1.08385 59.6275 1.38465 58.1557 2.03062C56.6838 2.67658 55.3792 3.6506 54.3416 4.87819C53.276 6.15107 52.5242 7.65633 52.1466 9.27281C52.0368 9.67523 52.0048 10.0959 51.9271 10.5075C51.8493 10.9191 51.8722 11.3444 51.8676 11.7696C51.8676 12.6202 51.8676 13.4754 51.8676 14.3351C51.8432 21.2128 51.8158 28.3604 51.7853 35.7777C51.7259 50.5941 51.6618 66.4166 51.5978 83.0942C51.5338 99.7718 51.4561 117.245 51.3829 135.381C51.3463 144.445 51.3082 153.664 51.2686 163.039C51.2503 167.721 51.2305 172.438 51.2091 177.187C51.2091 178.37 51.2091 179.559 51.2091 180.754C51.1637 181.937 51.3041 183.119 51.6253 184.257C52.2972 186.536 53.7163 188.522 55.654 189.896C57.6311 191.243 59.9963 191.904 62.3854 191.775L69.5284 191.812L83.668 191.876L111.321 192.004L124.797 192.068H128.126H129.782C130.335 192.068 130.888 192.068 131.428 192.045C133.609 191.927 135.698 191.127 137.4 189.759C138.233 189.075 138.961 188.274 139.563 187.381C140.154 186.487 140.603 185.508 140.894 184.477C141.182 183.45 141.32 182.387 141.306 181.321V178.12C141.324 173.852 141.342 169.638 141.361 165.476C141.511 132.153 141.649 102.145 141.758 76.9435C141.868 51.7419 141.982 31.3511 142.051 17.2526C142.051 15.492 142.051 13.8275 142.078 12.2681C142.114 10.8079 141.856 9.35544 141.319 7.99695C140.851 6.83861 140.183 5.77199 139.344 4.84618C137.692 3.03136 135.462 1.84521 133.033 1.48962C132.679 1.43447 132.321 1.40087 131.963 1.38902L131.602 1.34329Z" fill="#263238"/>
<path id="Vector_16" d="M119.176 54.7692L118.138 53.5391L121.229 51.8791L106.865 47.0181L111.726 60.9382L113.496 58.6197C113.496 58.6197 122.788 74.9726 113.496 84.9142C104.268 94.7872 93.375 92.6471 93.375 92.6471L95.474 99.5065C95.474 99.5065 112.595 100.723 121.782 85.248C130.969 69.7731 119.176 54.7692 119.176 54.7692Z" fill="#41B4A6"/>
<path id="Vector_17" d="M76.1051 89.085L77.1432 90.3151L74.0473 91.9751L88.4109 96.8361L83.5499 82.916L81.7847 85.2345C81.7847 85.2345 72.4879 68.8816 81.7847 58.94C91.013 49.067 101.906 51.2071 101.906 51.2071L99.8068 44.3477C99.8068 44.3477 82.681 43.1313 73.5122 58.597C64.3434 74.0628 76.1051 89.085 76.1051 89.085Z" fill="#41B4A6"/>
<path id="Vector_18" d="M119.176 54.7692L118.138 53.5391L121.229 51.8791L106.865 47.0181L111.726 60.9382L113.496 58.6197C113.496 58.6197 122.788 74.9726 113.496 84.9142C104.268 94.7872 93.375 92.6471 93.375 92.6471L95.474 99.5065C95.474 99.5065 112.595 100.723 121.782 85.248C130.969 69.7731 119.176 54.7692 119.176 54.7692Z" fill="#41B4A6"/>
<path id="Vector_19" d="M76.1051 89.085L77.1432 90.3151L74.0473 91.9751L88.4109 96.8361L83.5499 82.916L81.7847 85.2345C81.7847 85.2345 72.4879 68.8816 81.7847 58.94C91.013 49.067 101.906 51.2071 101.906 51.2071L99.8068 44.3477C99.8068 44.3477 82.681 43.1313 73.5122 58.597C64.3434 74.0628 76.1051 89.085 76.1051 89.085Z" fill="#41B4A6"/>
<g id="Group" opacity="0.8">
<path id="Vector_20" d="M119.183 54.7692L118.145 53.5391L121.237 51.8791L106.873 47.0181L111.734 60.9382L113.504 58.6197C113.504 58.6197 122.796 74.9726 113.504 84.9142C104.276 94.7872 93.3828 92.6471 93.3828 92.6471L95.4818 99.5065C95.4818 99.5065 112.603 100.723 121.79 85.248C130.977 69.7731 119.183 54.7692 119.183 54.7692Z" fill="white"/>
</g>
<g id="Group_2" opacity="0.8">
<path id="Vector_21" d="M76.1129 89.085L77.151 90.3151L74.0551 91.9751L88.4188 96.8361L83.5577 82.916L81.7925 85.2345C81.7925 85.2345 72.4957 68.8816 81.7925 58.94C91.0208 49.067 101.914 51.2071 101.914 51.2071L99.8146 44.3477C99.8146 44.3477 82.6888 43.1313 73.52 58.597C64.3513 74.0628 76.1129 89.085 76.1129 89.085Z" fill="white"/>
</g>
<path id="Vector_22" fill-rule="evenodd" clip-rule="evenodd" d="M105.829 63.8054C106.51 64.5342 107.089 65.3508 107.553 66.2336H110.297L111.321 70.6831L108.838 71.8858C108.805 72.882 108.639 73.8693 108.344 74.8216L110.306 76.7651L107.882 80.6339L105.276 79.7193C104.55 80.4025 103.734 80.984 102.852 81.4478V84.1916L98.4163 85.2251L97.2181 82.7374C96.2283 82.7039 95.2472 82.5394 94.3006 82.2481L92.3571 84.2053L88.4838 81.7862L89.3984 79.1797C88.7176 78.4528 88.1377 77.6376 87.6744 76.756H84.9306L83.9062 72.3065L86.3894 71.1084C86.4224 70.1121 86.5885 69.1248 86.8832 68.1725L84.926 66.229L87.3451 62.3557L89.9517 63.2703C90.6788 62.5885 91.4939 62.0071 92.3754 61.5417V58.798L96.8249 57.769L98.023 60.2567C99.0194 60.2879 100.007 60.4541 100.959 60.7506L102.902 58.7888L106.776 61.2125L105.861 63.8145L105.829 63.8054ZM100.383 67.4637C99.5615 66.9484 98.6059 66.6883 97.6368 66.7165C96.6678 66.7447 95.7289 67.0598 94.9391 67.622C94.1493 68.1842 93.5441 68.9681 93.2001 69.8745C92.8562 70.7809 92.789 71.769 93.007 72.7136C93.225 73.6582 93.7185 74.5169 94.4249 75.1808C95.1313 75.8448 96.0189 76.2842 96.9752 76.4433C97.9315 76.6024 98.9135 76.4742 99.7969 76.0748C100.68 75.6754 101.425 75.0228 101.937 74.1997C102.279 73.6544 102.509 73.0473 102.615 72.413C102.722 71.7787 102.702 71.1296 102.558 70.5028C102.414 69.8761 102.147 69.2839 101.774 68.7601C101.401 68.2363 100.928 67.7911 100.383 67.45V67.4637Z" fill="#41B4A6"/>
<g id="Group_3" opacity="0.6">
<path id="Vector_23" fill-rule="evenodd" clip-rule="evenodd" d="M100.386 67.45C99.5643 66.9363 98.6092 66.6777 97.641 66.7068C96.6728 66.7359 95.735 67.0515 94.9461 67.6136C94.1572 68.1757 93.5528 68.9592 93.2092 69.8648C92.8655 70.7705 92.7982 71.7577 93.0156 72.7016C93.2331 73.6456 93.7255 74.5038 94.4307 75.1679C95.1359 75.8319 96.0222 76.2719 96.9775 76.4323C97.9328 76.5927 98.9142 76.4661 99.7976 76.0687C100.681 75.6713 101.427 75.0209 101.94 74.1997C102.282 73.6544 102.512 73.0473 102.618 72.413C102.725 71.7787 102.705 71.1296 102.561 70.5028C102.417 69.8761 102.15 69.2839 101.777 68.7601C101.404 68.2363 100.931 67.7911 100.386 67.45Z" fill="white"/>
</g>
<path id="Vector_24" d="M82.7266 117.089V114.158H83.2662V117.067C83.2662 118.283 83.8378 118.836 84.8301 118.836C85.8225 118.836 86.4032 118.283 86.4032 117.067V114.158H86.9291V117.089C86.9291 118.562 86.1426 119.321 84.8301 119.321C83.5177 119.321 82.7266 118.557 82.7266 117.089Z" fill="#263238"/>
<path id="Vector_25" d="M92.5684 115.914C92.5684 117.003 91.7819 117.661 90.4786 117.661H89.1067V119.275H88.5625V114.158H90.4786C91.7819 114.158 92.5684 114.817 92.5684 115.914ZM92.0288 115.914C92.0288 115.096 91.4892 114.625 90.4649 114.625H89.093V117.186H90.4649C91.4892 117.186 92.0197 116.728 92.0197 115.914H92.0288Z" fill="#263238"/>
<path id="Vector_26" d="M93.7422 114.158H95.8229C97.46 114.158 98.5667 115.21 98.5667 116.719C98.5667 118.228 97.46 119.275 95.8229 119.275H93.7422V114.158ZM95.7955 118.809C97.1673 118.809 98.0316 117.945 98.0316 116.719C98.0316 115.494 97.1536 114.625 95.7955 114.625H94.2818V118.809H95.7955Z" fill="#263238"/>
<path id="Vector_27" d="M102.904 117.908H100.055L99.4375 119.28H98.875L101.216 114.163H101.751L104.088 119.28H103.521L102.904 117.908ZM102.707 117.451L101.482 114.707L100.251 117.451H102.707Z" fill="#263238"/>
<path id="Vector_28" d="M105.685 114.625H103.883V114.167H108.03V114.625H106.233V119.275H105.694L105.685 114.625Z" fill="#263238"/>
<path id="Vector_29" d="M112.5 118.809V119.266H108.883V114.158H112.39V114.615H109.422V116.445H112.07V116.902H109.422V118.804L112.5 118.809Z" fill="#263238"/>
<path id="Vector_30" d="M135.614 17.8063C135.614 17.852 133.762 17.9069 131.475 17.9251C129.189 17.9434 127.359 17.9251 127.359 17.8748C127.359 17.8245 129.189 17.7697 131.475 17.7514C133.762 17.7331 135.614 17.7559 135.614 17.8063Z" fill="#263238"/>
<path id="Vector_31" d="M135.629 19.9228C135.629 19.9731 133.777 20.028 131.49 20.0463C129.204 20.0646 127.352 20.0463 127.352 19.9914C127.352 19.9365 129.204 19.8908 131.49 19.8725C133.777 19.8542 135.629 19.8771 135.629 19.9228Z" fill="#263238"/>
<path id="Vector_32" d="M135.649 22.041C135.649 22.0913 133.797 22.1462 131.51 22.1645C129.224 22.1828 127.367 22.1645 127.367 22.1096C127.367 22.0547 129.219 22.009 131.51 21.9907C133.801 21.9724 135.649 21.9953 135.649 22.041Z" fill="#263238"/>
<path id="Vector_33" d="M60.3119 24.4597H60.4811H60.9384L62.7082 24.4185L62.6579 24.4688C62.6579 24.0755 62.6579 23.6502 62.6579 23.1884C62.6579 22.946 62.6579 22.7311 62.6579 22.4476C62.6862 22.3054 62.7591 22.176 62.866 22.0781C62.9729 21.9803 63.1083 21.9191 63.2524 21.9034C63.5359 21.9034 63.7874 21.9034 64.0984 21.9034C64.2595 21.9304 64.4058 22.0137 64.5113 22.1385C64.6168 22.2632 64.6746 22.4214 64.6746 22.5847C64.6746 23.1838 64.6746 23.8103 64.6974 24.4551L64.6151 24.3773H66.8467L66.7598 24.4597C66.7598 23.5451 66.7598 22.6305 66.7598 21.6839C66.7598 21.4461 66.7598 21.2266 66.7598 20.9751C66.7505 20.8698 66.7177 20.7679 66.6639 20.6769C66.6101 20.5859 66.5366 20.5081 66.4489 20.4492L65.4748 19.4888L64.5328 18.5743L64.0755 18.117C63.92 17.9661 63.7965 17.8106 63.6182 17.774C63.531 17.7514 63.4399 17.7483 63.3514 17.7648C63.2629 17.7814 63.1791 17.8174 63.106 17.87C62.9688 17.9843 62.8271 18.149 62.6899 18.2816L61.8439 19.0224C61.3409 19.5437 60.815 20.0239 60.4354 20.4766C60.3241 20.739 60.2846 21.0262 60.3211 21.3089V22.0954C60.3211 22.5527 60.3211 23.01 60.3211 23.3576C60.3211 23.7051 60.3211 23.9475 60.3211 24.167C60.3211 24.3865 60.3211 24.4551 60.3211 24.4597C60.3157 24.3713 60.3157 24.2828 60.3211 24.1944C60.3211 23.9749 60.3211 23.7143 60.3211 23.3942C60.3211 23.0741 60.3211 22.603 60.2891 22.1183C60.2891 21.8668 60.2891 21.6016 60.2891 21.318C60.2891 21.1763 60.2891 21.0299 60.2891 20.8607C60.288 20.7005 60.329 20.5428 60.408 20.4034C60.8241 19.8958 61.3226 19.4523 61.821 18.9127L62.6167 18.0987C62.7585 17.9569 62.8774 17.8197 63.0466 17.6734C63.1374 17.6048 63.2426 17.5576 63.3543 17.5354C63.466 17.5133 63.5812 17.5167 63.6914 17.5453C63.9036 17.6203 64.0906 17.7534 64.231 17.9295L64.6883 18.3868L65.6303 19.3014L66.6089 20.2617C66.7 20.3431 66.7828 20.4335 66.8559 20.5315C66.9292 20.6432 66.9703 20.7729 66.9748 20.9065C66.9748 21.1397 66.9748 21.3638 66.9748 21.6153C66.9748 22.571 66.9748 23.4993 66.9748 24.3956V24.4825H66.8741H64.6425H64.5648V24.4048C64.5648 23.7554 64.5648 23.1289 64.5648 22.5344C64.5674 22.4037 64.5225 22.2765 64.4384 22.1764C64.3543 22.0763 64.2367 22.0102 64.1075 21.9903C63.8514 21.9903 63.545 21.9903 63.2981 21.9903C63.1825 22.0007 63.0733 22.0482 62.9868 22.1256C62.9003 22.2031 62.8411 22.3063 62.8179 22.4201C62.8179 22.6442 62.8179 22.9094 62.8179 23.1335V24.4917H62.7676H60.9705H60.5132C60.4451 24.4885 60.3776 24.4778 60.3119 24.4597Z" fill="#263238"/>
<path id="Vector_34" d="M115.112 22.6531C115.112 22.7171 108.143 22.772 99.5637 22.772C90.9848 22.772 84.0156 22.7171 84.0156 22.6531C84.0156 22.5891 90.9848 22.5342 99.5637 22.5342C108.143 22.5342 115.112 22.5891 115.112 22.6531Z" fill="#263238"/>
<path id="Vector_35" d="M114.303 167.182H81.6294C79.6254 167.182 77.7034 166.386 76.2859 164.97C74.8685 163.553 74.0715 161.631 74.0703 159.627C74.0703 157.623 74.8667 155.7 76.2843 154.282C77.7019 152.865 79.6246 152.068 81.6294 152.068H114.303C116.308 152.068 118.231 152.865 119.648 154.282C121.066 155.7 121.862 157.623 121.862 159.627C121.861 161.631 121.064 163.553 119.647 164.97C118.229 166.386 116.307 167.182 114.303 167.182Z" fill="#41B4A6"/>
<path id="Vector_36" d="M91.7266 160.73L92.0009 160.126C92.3367 160.359 92.7353 160.485 93.1442 160.487C93.6015 160.487 93.8164 160.332 93.8164 160.117C93.8164 159.467 91.7952 159.911 91.7952 158.621C91.7952 158.031 92.2525 157.542 93.2585 157.542C93.6814 157.532 94.0989 157.638 94.4658 157.849L94.2188 158.457C93.9256 158.286 93.5934 158.193 93.2539 158.187C92.7966 158.187 92.5954 158.365 92.5954 158.585C92.5954 159.225 94.6121 158.781 94.6121 160.057C94.6121 160.638 94.1319 161.132 93.1396 161.132C92.6388 161.144 92.1461 161.003 91.7266 160.73Z" fill="white"/>
<path id="Vector_37" d="M96.8383 160.944C96.6497 161.063 96.4298 161.122 96.2072 161.114C96.0778 161.13 95.9465 161.117 95.8228 161.076C95.699 161.035 95.5859 160.966 95.4918 160.876C95.3976 160.786 95.3248 160.676 95.2785 160.554C95.2321 160.432 95.2136 160.302 95.2241 160.172V159.074H94.8125V158.475H95.2241V157.826H95.9969V158.475H96.6645V159.074H95.9969V160.158C95.9906 160.204 95.9947 160.251 96.009 160.295C96.0232 160.34 96.0473 160.38 96.0793 160.414C96.1114 160.448 96.1506 160.474 96.1941 160.491C96.2376 160.507 96.2843 160.514 96.3307 160.51C96.4421 160.513 96.5512 160.479 96.6417 160.414L96.8383 160.944Z" fill="white"/>
<path id="Vector_38" d="M99.6239 159.55V161.086H98.8968V160.757C98.8071 160.886 98.6841 160.989 98.5408 161.054C98.3975 161.119 98.2393 161.145 98.0828 161.127C97.4563 161.127 97.0859 160.78 97.0859 160.318C97.0859 159.856 97.4198 159.518 98.2337 159.518H98.8694C98.8694 159.188 98.6728 158.992 98.2566 158.992C97.9799 158.989 97.7101 159.078 97.4884 159.243L97.2094 158.699C97.5536 158.481 97.9545 158.37 98.3618 158.379C99.1483 158.365 99.6239 158.74 99.6239 159.55ZM98.8465 160.231V159.957H98.3161C97.9548 159.957 97.8588 160.089 97.8588 160.268C97.8588 160.446 98.0234 160.592 98.2932 160.592C98.4154 160.602 98.5376 160.573 98.6415 160.508C98.7453 160.442 98.8253 160.345 98.8694 160.231H98.8465Z" fill="white"/>
<path id="Vector_39" d="M101.984 158.365V159.078H101.814C101.716 159.069 101.616 159.082 101.523 159.117C101.43 159.152 101.346 159.207 101.278 159.279C101.209 159.35 101.157 159.437 101.127 159.531C101.096 159.625 101.087 159.725 101.101 159.824V161.086H100.328V158.42H101.069V158.772C101.176 158.634 101.316 158.525 101.475 158.454C101.635 158.383 101.809 158.353 101.984 158.365Z" fill="white"/>
<path id="Vector_40" d="M104.266 160.944C104.077 161.063 103.858 161.122 103.635 161.114C103.504 161.131 103.37 161.119 103.243 161.078C103.117 161.037 103.002 160.968 102.906 160.876C102.81 160.784 102.737 160.672 102.69 160.548C102.644 160.423 102.626 160.29 102.638 160.158V159.06H102.227V158.461H102.638V157.812H103.416V158.461H104.079V159.06H103.416V160.144C103.409 160.19 103.413 160.237 103.427 160.28C103.441 160.324 103.465 160.365 103.497 160.398C103.528 160.432 103.567 160.458 103.61 160.475C103.653 160.492 103.699 160.499 103.745 160.496C103.857 160.498 103.968 160.465 104.06 160.4L104.266 160.944Z" fill="white"/>
<path id="Vector_41" d="M129.02 131.33C129.02 131.394 114.972 131.449 97.6453 131.449C80.3183 131.449 66.2656 131.394 66.2656 131.33C66.2656 131.266 80.3138 131.211 97.6453 131.211C114.977 131.211 129.02 131.261 129.02 131.33Z" fill="#263238"/>
<path id="Vector_42" d="M116.515 135.176C116.515 135.24 108.065 135.294 97.6428 135.294C87.221 135.294 78.7656 135.24 78.7656 135.176C78.7656 135.112 87.2165 135.057 97.6428 135.057C108.069 135.057 116.515 135.107 116.515 135.176Z" fill="#263238"/>
</g>
<g id="Character">
<path id="Vector_43" d="M29.6866 191.835L26.9062 202.11L35.9379 202.934L37.8356 193.152L29.6866 191.835Z" fill="#41B4A6"/>
<path id="Vector_44" d="M36.1993 202.097C35.7583 202.125 35.3157 202.11 34.8777 202.051C34.0637 201.987 32.9433 201.864 31.7086 201.704L28.5533 201.278C28.1128 201.245 27.6764 201.17 27.25 201.054C27.6911 201.027 28.1339 201.044 28.5716 201.105C29.3856 201.169 30.5059 201.297 31.7406 201.452L34.896 201.873C35.3361 201.91 35.7722 201.985 36.1993 202.097Z" fill="#263238"/>
<g id="Group_4" opacity="0.6">
<path id="Vector_45" d="M26.9141 202.111L35.9457 202.934L36.092 202.179L27.1747 201.045L26.9232 202.006" fill="white"/>
</g>
<path id="Vector_46" d="M31.3906 201.654C31.6097 200.328 31.8966 199.013 32.2503 197.717C32.5355 196.403 32.8912 195.105 33.3158 193.83C33.0968 195.156 32.8099 196.47 32.4561 197.767C32.1684 199.08 31.8128 200.378 31.3906 201.654Z" fill="#263238"/>
<path id="Vector_47" d="M35.6973 202.028C35.8402 201.401 35.8402 200.749 35.6973 200.122C35.5394 199.446 35.1975 198.827 34.7095 198.334C34.1019 197.742 33.3091 197.377 32.4642 197.3C31.6193 197.21 30.7684 197.403 30.0451 197.849C29.4602 198.223 28.9777 198.737 28.6412 199.344C28.3406 199.914 28.1469 200.534 28.0696 201.173C28.0696 201.173 28.0696 201.123 28.0696 201.036C28.0601 200.905 28.0601 200.774 28.0696 200.643C28.1301 200.164 28.2757 199.699 28.4994 199.271C28.8373 198.619 29.3403 198.067 29.9582 197.67C30.7147 197.192 31.6105 196.982 32.5008 197.076C33.3121 197.139 34.0803 197.467 34.6875 198.009C35.2946 198.551 35.7072 199.277 35.8619 200.076C35.9593 200.551 35.9593 201.041 35.8619 201.516C35.8346 201.644 35.7979 201.769 35.7521 201.891C35.7247 201.987 35.7018 202.033 35.6973 202.028Z" fill="#263238"/>
<path id="Vector_48" d="M66.9632 189.078L66.3596 198.224C66.3596 198.224 75.4415 201.237 75.5055 202.939L57.7578 203.067L58.1145 188.808L66.9632 189.078Z" fill="#41B4A6"/>
<g id="Group_5" opacity="0.6">
<path id="Vector_49" d="M60.9252 197.273C60.7532 197.319 60.6043 197.427 60.5073 197.577C60.4102 197.726 60.3718 197.906 60.3993 198.082C60.4389 198.256 60.5441 198.409 60.6932 198.508C60.8422 198.606 61.0236 198.644 61.1996 198.613C61.3824 198.563 61.5401 198.447 61.6416 198.287C61.7431 198.127 61.7812 197.935 61.7483 197.748C61.6877 197.572 61.5609 197.425 61.3946 197.34C61.2284 197.255 61.0355 197.237 60.8566 197.291" fill="white"/>
</g>
<g id="Group_6" opacity="0.6">
<path id="Vector_50" d="M57.75 203.048L57.7866 201.608L74.926 202.065C75.108 202.158 75.264 202.295 75.3797 202.464C75.4955 202.632 75.5675 202.827 75.5891 203.03L57.75 203.048Z" fill="white"/>
</g>
<path id="Vector_51" d="M66.6556 198.128C66.6556 198.215 66.1983 198.242 65.7776 198.507C65.3568 198.773 65.1053 199.129 65.0276 199.093C64.9498 199.056 65.0916 198.562 65.6266 198.247C66.1617 197.931 66.6739 198.046 66.6556 198.128Z" fill="#263238"/>
<path id="Vector_52" d="M68.4898 198.951C68.4898 199.033 68.1286 199.17 67.8222 199.527C67.5158 199.883 67.4198 200.272 67.3374 200.263C67.2551 200.254 67.2094 199.765 67.5981 199.348C67.9868 198.932 68.4898 198.868 68.4898 198.951Z" fill="#263238"/>
<path id="Vector_53" d="M69.4786 201.21C69.3962 201.21 69.2911 200.789 69.5289 200.323C69.7667 199.856 70.1736 199.678 70.2102 199.751C70.2468 199.824 69.9862 200.071 69.7987 200.455C69.6112 200.84 69.5654 201.205 69.4786 201.21Z" fill="#263238"/>
<path id="Vector_54" d="M66.5588 196.029C66.5222 196.106 66.129 195.978 65.6442 195.997C65.1595 196.015 64.7708 196.157 64.7296 196.079C64.6885 196.001 65.0635 195.709 65.6442 195.695C66.225 195.681 66.6046 195.965 66.5588 196.029Z" fill="#263238"/>
<path id="Vector_55" d="M66.6422 194.186C66.349 194.255 66.0424 194.244 65.755 194.154C65.4386 194.088 65.1314 193.983 64.8404 193.843C64.6675 193.756 64.4996 193.66 64.3374 193.554C64.2404 193.496 64.1526 193.424 64.0767 193.34C64.0223 193.277 63.99 193.198 63.985 193.116C63.9801 193.033 64.0027 192.951 64.0493 192.882C64.0936 192.821 64.1523 192.772 64.2201 192.74C64.2879 192.707 64.3628 192.692 64.438 192.695C64.5498 192.697 64.6607 192.715 64.7672 192.75C64.956 192.802 65.1397 192.87 65.316 192.955C65.6104 193.1 65.8804 193.29 66.1163 193.518C66.5187 193.911 66.6467 194.24 66.6193 194.254C66.5919 194.268 66.3861 194.007 65.9745 193.678C65.7355 193.494 65.4744 193.34 65.1971 193.221C65.0351 193.149 64.8667 193.092 64.6941 193.051C64.5066 192.997 64.3465 192.987 64.2962 193.051C64.2459 193.115 64.2962 193.097 64.2962 193.152C64.3543 193.214 64.4205 193.268 64.4929 193.312C64.639 193.415 64.7918 193.508 64.9502 193.591C65.2216 193.737 65.5064 193.856 65.8007 193.948C66.0867 194.006 66.368 194.086 66.6422 194.186Z" fill="#263238"/>
<path id="Vector_56" d="M66.5268 194.309C66.3675 194.049 66.2939 193.745 66.3165 193.441C66.3071 192.914 66.4432 192.395 66.7098 191.941C66.7614 191.825 66.8421 191.725 66.9438 191.65C67.0455 191.574 67.1649 191.526 67.2905 191.511C67.3698 191.513 67.4467 191.539 67.5117 191.584C67.5767 191.63 67.627 191.693 67.6564 191.767C67.6983 191.872 67.726 191.983 67.7387 192.096C67.7665 192.295 67.7665 192.496 67.7387 192.695C67.6796 193.029 67.5399 193.343 67.3317 193.61C66.9704 194.067 66.6046 194.154 66.6 194.122C66.5954 194.09 66.879 193.921 67.1579 193.486C67.3179 193.235 67.4224 192.953 67.4643 192.659C67.4872 192.489 67.4872 192.316 67.4643 192.146C67.4414 191.959 67.3728 191.803 67.3042 191.822C67.2356 191.84 67.0619 191.954 66.9841 192.101C66.892 192.245 66.8139 192.398 66.7509 192.558C66.6424 192.841 66.5746 193.138 66.5497 193.441C66.4903 193.966 66.5726 194.296 66.5268 194.309Z" fill="#263238"/>
<path id="Vector_57" d="M66.9643 109.792L39.9243 109.591L26.8594 195.416L38.0814 196.838L52.4634 126.268L56.7666 197.09L56.7803 197.3L68.9169 197.09L66.9643 109.792Z" fill="#263238"/>
<path id="Vector_58" d="M54.6723 116.729C54.8574 116.706 55.0436 116.694 55.2302 116.692L56.8581 116.633L62.7024 116.468H62.8121V116.583C62.8121 118.279 62.8121 120.172 62.8121 122.189V122.239L62.771 122.276L61.7558 123.191L58.7559 125.934L58.6736 126.007L58.5959 125.939L54.5945 122.372L54.5625 122.345V122.299C54.5625 120.598 54.5991 119.194 54.6128 118.183C54.6128 117.726 54.6128 117.355 54.6357 117.076C54.6328 116.951 54.6404 116.826 54.6585 116.701C54.6656 116.839 54.6656 116.976 54.6585 117.113C54.6585 117.397 54.6585 117.776 54.686 118.243C54.686 119.235 54.7134 120.616 54.7363 122.294L54.7043 122.226L58.733 125.756H58.573L61.5683 123.012L62.5881 122.098L62.5469 122.189C62.5469 120.172 62.5469 118.279 62.5469 116.583L62.6612 116.692L56.881 116.747H54.7866C54.748 116.744 54.7098 116.738 54.6723 116.729Z" fill="#455A64"/>
<path id="Vector_59" d="M41.9388 116.377C42.1048 116.366 42.2713 116.366 42.4373 116.377L43.8915 116.496L49.1504 116.953H49.2601V117.063C49.0635 118.723 48.8348 120.611 48.597 122.628V122.678L48.5604 122.71L47.3943 123.625L44.518 125.911L44.4219 125.985L44.3488 125.893L41.2071 121.915L41.1797 121.883V121.842C41.4083 120.159 41.5958 118.773 41.7284 117.772C41.797 117.314 41.8473 116.953 41.8885 116.67C41.8977 116.545 41.9207 116.423 41.9571 116.304C41.9543 116.441 41.9436 116.579 41.9251 116.715C41.8976 117.002 41.8611 117.377 41.8153 117.84L41.358 121.869V121.796C42.2726 122.944 43.361 124.284 44.5362 125.742H44.367L47.2389 123.456L48.405 122.541L48.3592 122.619C48.6108 120.607 48.8485 118.718 49.0543 117.058L49.1504 117.177L43.9692 116.601L42.4967 116.423C42.31 116.419 42.1236 116.404 41.9388 116.377Z" fill="#455A64"/>
<path id="Vector_60" d="M58.4855 129.401C58.0603 129.239 57.6502 129.04 57.26 128.806C56.5146 128.418 55.4857 127.892 54.3378 127.311C53.19 126.73 52.1474 126.241 51.3883 125.88C50.9666 125.706 50.5597 125.498 50.1719 125.258C50.6146 125.366 51.0451 125.52 51.4569 125.715C52.2389 126.035 53.2861 126.511 54.4522 127.087C55.6183 127.663 56.6197 128.226 57.3423 128.656C57.7459 128.867 58.1287 129.117 58.4855 129.401Z" fill="#455A64"/>
<path id="Vector_61" d="M58.1356 131.486C57.8122 131.426 57.5023 131.309 57.2211 131.138C55.7927 130.406 54.6229 129.254 53.8691 127.836C53.6939 127.556 53.5715 127.246 53.5078 126.922C54.0522 127.881 54.7093 128.771 55.465 129.574C56.2784 130.312 57.1746 130.954 58.1356 131.486Z" fill="#455A64"/>
<path id="Vector_62" d="M65.7692 156.285C65.7524 156.443 65.7108 156.597 65.6457 156.742C65.4985 157.14 65.31 157.522 65.0832 157.881C64.3342 159.083 63.2314 160.023 61.9262 160.574C60.621 161.124 59.1775 161.257 57.7939 160.954C57.3792 160.866 56.9746 160.736 56.5867 160.565C56.4406 160.511 56.3034 160.435 56.1797 160.341C56.7204 160.521 57.2699 160.673 57.826 160.798C59.1742 161.047 60.566 160.897 61.8296 160.364C63.0931 159.832 64.1733 158.942 64.9369 157.803C65.5268 156.906 65.7235 156.266 65.7692 156.285Z" fill="#455A64"/>
<path id="Vector_63" d="M63.9861 155.554C63.6712 155.766 63.3213 155.92 62.9526 156.011C62.0814 156.285 61.1767 156.439 60.2637 156.468C59.3553 156.502 58.4456 156.448 57.5474 156.308C57.171 156.271 56.8007 156.186 56.4453 156.057C56.4453 155.97 58.1556 156.299 60.2546 156.221C61.1492 156.194 62.0383 156.071 62.9069 155.855C63.57 155.677 63.9724 155.517 63.9861 155.554Z" fill="#455A64"/>
<path id="Vector_64" d="M43.8865 156.056C43.615 156.383 43.2977 156.67 42.9444 156.907C42.1201 157.519 41.2133 158.012 40.2509 158.37C39.2881 158.728 38.2799 158.95 37.2557 159.029C36.8326 159.08 36.4043 159.069 35.9844 158.997C35.9844 158.955 36.4691 158.951 37.2374 158.855C39.2434 158.604 41.1633 157.889 42.8438 156.765C43.1787 156.511 43.5267 156.274 43.8865 156.056Z" fill="#455A64"/>
<path id="Vector_65" d="M41.5148 155.96C40.7122 156.202 39.8678 156.272 39.0363 156.166C38.1977 156.136 37.3743 155.933 36.6172 155.571C36.6172 155.498 37.7056 155.814 39.0546 155.919C40.4036 156.024 41.5057 155.887 41.5148 155.96Z" fill="#455A64"/>
<path id="Vector_66" d="M52.2999 126.863C51.9178 127.094 51.5094 127.278 51.0835 127.412C50.0719 127.78 49.0276 128.051 47.9647 128.221C46.9068 128.392 45.8348 128.461 44.7637 128.427C44.3175 128.432 43.8723 128.385 43.4375 128.285C43.8783 128.245 44.3214 128.234 44.7637 128.253C46.8958 128.224 49.0124 127.885 51.0469 127.247C51.4558 127.092 51.8743 126.963 52.2999 126.863Z" fill="#455A64"/>
<path id="Vector_67" d="M51.5599 124.091C51.6285 124.091 51.688 124.302 51.6925 124.549C51.6971 124.796 51.6422 125.006 51.5737 125.006C51.5051 125.006 51.4502 124.796 51.4456 124.549C51.441 124.302 51.4913 124.091 51.5599 124.091Z" fill="#455A64"/>
<path id="Vector_68" d="M51.5655 122.189C51.6341 122.189 51.689 122.404 51.6844 122.646C51.6799 122.889 51.6296 123.104 51.561 123.104C51.4924 123.104 51.4375 122.889 51.4375 122.646C51.4375 122.404 51.4969 122.189 51.5655 122.189Z" fill="#455A64"/>
<path id="Vector_69" d="M51.6024 120.291C51.671 120.291 51.7213 120.506 51.7168 120.748C51.7122 120.991 51.6482 121.206 51.5796 121.206C51.511 121.206 51.4607 120.991 51.4698 120.748C51.479 120.506 51.5384 120.287 51.6024 120.291Z" fill="#455A64"/>
<path id="Vector_70" d="M51.6866 118.389C51.7552 118.389 51.8009 118.608 51.7872 118.869C51.7734 119.13 51.714 119.326 51.6454 119.326C51.5768 119.326 51.5311 119.107 51.5402 118.869C51.5494 118.631 51.618 118.384 51.6866 118.389Z" fill="#455A64"/>
<path id="Vector_71" d="M51.7926 116.491C51.8612 116.491 51.9024 116.711 51.8841 116.976C51.8658 117.241 51.7972 117.433 51.7286 117.433C51.66 117.433 51.6189 117.209 51.6372 116.949C51.6555 116.688 51.724 116.487 51.7926 116.491Z" fill="#455A64"/>
<path id="Vector_72" d="M51.9403 114.598C52.0089 114.598 52.0455 114.817 52.0272 115.078C52.0089 115.339 51.9311 115.535 51.8626 115.535C51.794 115.535 51.7574 115.311 51.7802 115.051C51.8031 114.79 51.8763 114.589 51.9403 114.598Z" fill="#455A64"/>
<path id="Vector_73" d="M52.0928 113.043C52.1613 113.043 52.2025 113.194 52.1842 113.359C52.1659 113.523 52.1019 113.656 52.0333 113.651C51.9647 113.647 51.9236 113.5 51.9418 113.336C51.9601 113.171 52.0242 113.039 52.0928 113.043Z" fill="#455A64"/>
<path id="Vector_74" d="M36.8093 194.954C36.8779 194.954 36.8917 195.188 36.8368 195.448C36.7819 195.709 36.6905 195.906 36.6219 195.906C36.5533 195.906 36.5441 195.672 36.5944 195.416C36.6447 195.16 36.7453 194.927 36.8093 194.954Z" fill="#455A64"/>
<path id="Vector_75" d="M37.1765 193.098C37.2406 193.098 37.2543 193.331 37.204 193.587C37.1537 193.843 37.0576 194.044 36.989 194.044C36.9205 194.044 36.9113 193.811 36.9616 193.55C37.0119 193.29 37.1079 193.098 37.1765 193.098Z" fill="#455A64"/>
<path id="Vector_76" d="M37.5485 191.227C37.6171 191.227 37.6308 191.46 37.576 191.716C37.5211 191.973 37.4296 192.174 37.3656 192.174C37.3016 192.174 37.2833 191.941 37.3336 191.684C37.3839 191.428 37.4845 191.213 37.5485 191.227Z" fill="#455A64"/>
<path id="Vector_77" d="M37.9265 189.361C37.9951 189.361 38.0043 189.594 37.954 189.855C37.9037 190.116 37.8076 190.312 37.739 190.312C37.6705 190.312 37.6613 190.079 37.7116 189.823C37.7619 189.567 37.8579 189.352 37.9265 189.361Z" fill="#455A64"/>
<path id="Vector_78" d="M38.2975 187.501C38.3661 187.501 38.3798 187.734 38.3295 187.99C38.2792 188.246 38.1786 188.447 38.1146 188.447C38.0506 188.447 38.0323 188.214 38.0872 187.953C38.1421 187.693 38.2335 187.487 38.2975 187.501Z" fill="#455A64"/>
<path id="Vector_79" d="M38.6687 185.634C38.7373 185.634 38.7465 185.868 38.6962 186.124C38.6459 186.38 38.5498 186.581 38.4812 186.581C38.4126 186.581 38.4035 186.348 38.4538 186.092C38.5041 185.836 38.6001 185.621 38.6687 185.634Z" fill="#455A64"/>
<path id="Vector_80" d="M39.0443 183.773C39.1083 183.773 39.122 184.002 39.0717 184.262C39.0214 184.523 38.9208 184.72 38.8568 184.72C38.7928 184.72 38.7745 184.486 38.8294 184.23C38.8842 183.974 38.9666 183.759 39.0443 183.773Z" fill="#455A64"/>
<path id="Vector_81" d="M39.4265 181.907C39.4951 181.907 39.5043 182.141 39.454 182.397C39.4037 182.653 39.3076 182.854 39.239 182.854C39.1705 182.854 39.1613 182.621 39.2116 182.36C39.2619 182.099 39.3488 181.894 39.4265 181.907Z" fill="#455A64"/>
<path id="Vector_82" d="M39.7879 180.042C39.8519 180.042 39.8656 180.275 39.8153 180.531C39.765 180.787 39.669 180.988 39.6004 180.988C39.5318 180.988 39.518 180.755 39.5729 180.499C39.6278 180.243 39.7193 180.028 39.7879 180.042Z" fill="#455A64"/>
<path id="Vector_83" d="M40.1609 178.18C40.2295 178.18 40.2432 178.409 40.1884 178.67C40.1335 178.93 40.042 179.127 39.9734 179.127C39.9048 179.127 39.8957 178.894 39.946 178.638C39.9963 178.382 40.0969 178.167 40.1609 178.18Z" fill="#455A64"/>
<path id="Vector_84" d="M40.5359 176.315C40.5999 176.315 40.6137 176.548 40.5634 176.804C40.513 177.06 40.417 177.261 40.3484 177.261C40.2798 177.261 40.2707 177.028 40.321 176.767C40.3713 176.507 40.4673 176.301 40.5359 176.315Z" fill="#455A64"/>
<path id="Vector_85" d="M40.9079 174.449C40.9765 174.449 40.9902 174.682 40.9353 174.938C40.8805 175.194 40.789 175.395 40.725 175.395C40.661 175.395 40.6427 175.162 40.693 174.906C40.7433 174.65 40.8439 174.435 40.9079 174.449Z" fill="#455A64"/>
<path id="Vector_86" d="M41.2859 172.588C41.3499 172.588 41.3637 172.821 41.3134 173.077C41.263 173.333 41.167 173.534 41.0984 173.534C41.0298 173.534 41.0207 173.301 41.071 173.045C41.1213 172.789 41.2173 172.574 41.2859 172.588Z" fill="#455A64"/>
<path id="Vector_87" d="M41.6579 170.722C41.7265 170.722 41.7402 170.955 41.6899 171.211C41.6396 171.467 41.539 171.668 41.475 171.668C41.411 171.668 41.3927 171.435 41.443 171.179C41.4933 170.923 41.5939 170.69 41.6579 170.722Z" fill="#455A64"/>
<path id="Vector_88" d="M42.0281 168.86C42.0967 168.86 42.1058 169.094 42.0555 169.354C42.0052 169.615 41.9092 169.812 41.8406 169.812C41.772 169.812 41.7629 169.578 41.8132 169.322C41.8635 169.066 41.9595 168.86 42.0281 168.86Z" fill="#455A64"/>
<path id="Vector_89" d="M42.3913 166.995C42.4599 166.995 42.4736 167.228 42.4233 167.484C42.373 167.74 42.2724 167.941 42.2084 167.941C42.1444 167.941 42.1261 167.713 42.1809 167.452C42.2358 167.191 42.3273 166.981 42.3913 166.995Z" fill="#455A64"/>
<path id="Vector_90" d="M42.7703 165.13C42.8389 165.13 42.848 165.363 42.7977 165.619C42.7474 165.875 42.6514 166.076 42.5828 166.076C42.5142 166.076 42.5051 165.843 42.5554 165.587C42.6057 165.331 42.7017 165.116 42.7703 165.13Z" fill="#455A64"/>
<path id="Vector_91" d="M43.1459 163.263C43.2099 163.263 43.2236 163.497 43.1733 163.757C43.123 164.018 43.0224 164.214 42.9584 164.214C42.8943 164.214 42.8761 163.981 42.9309 163.725C42.9858 163.469 43.0818 163.25 43.1459 163.263Z" fill="#455A64"/>
<path id="Vector_92" d="M43.5437 161.402C43.6123 161.402 43.626 161.635 43.5712 161.891C43.5163 162.147 43.4248 162.349 43.3562 162.349C43.2876 162.349 43.2785 162.115 43.3288 161.855C43.3791 161.594 43.4523 161.388 43.5437 161.402Z" fill="#455A64"/>
<path id="Vector_93" d="M43.8972 159.536C43.9612 159.536 43.975 159.769 43.9247 160.026C43.8744 160.282 43.7783 160.483 43.7097 160.483C43.6411 160.483 43.6274 160.25 43.6823 159.994C43.7372 159.737 43.8286 159.523 43.8972 159.536Z" fill="#455A64"/>
<path id="Vector_94" d="M44.2703 157.671C44.3389 157.671 44.3526 157.904 44.2977 158.164C44.2429 158.425 44.1514 158.622 44.0828 158.622C44.0142 158.622 44.0051 158.388 44.0554 158.132C44.1057 157.876 44.2063 157.657 44.2703 157.671Z" fill="#455A64"/>
<path id="Vector_95" d="M44.6453 155.809C44.7093 155.809 44.723 156.042 44.6727 156.299C44.6224 156.555 44.5264 156.756 44.4578 156.756C44.3892 156.756 44.3801 156.523 44.4304 156.262C44.4807 156.001 44.5767 155.796 44.6453 155.809Z" fill="#455A64"/>
<path id="Vector_96" d="M45.0173 153.944C45.0859 153.944 45.0996 154.177 45.0447 154.433C44.9898 154.689 44.8984 154.891 44.8344 154.891C44.7703 154.891 44.752 154.657 44.8024 154.401C44.8527 154.145 44.9533 153.93 45.0173 153.944Z" fill="#455A64"/>
<path id="Vector_97" d="M45.3719 152.078C45.4404 152.078 45.4496 152.311 45.3993 152.572C45.349 152.832 45.253 153.029 45.1844 153.029C45.1158 153.029 45.1066 152.796 45.1569 152.54C45.2072 152.284 45.317 152.064 45.3719 152.078Z" fill="#455A64"/>
<path id="Vector_98" d="M45.7517 150.216C45.8202 150.216 45.834 150.45 45.7837 150.706C45.7334 150.962 45.6328 151.163 45.5687 151.163C45.5047 151.163 45.4864 150.93 45.5367 150.669C45.587 150.409 45.6876 150.203 45.7517 150.216Z" fill="#455A64"/>
<path id="Vector_99" d="M46.1297 148.351C46.1983 148.351 46.2074 148.584 46.1571 148.84C46.1068 149.096 46.0108 149.297 45.9422 149.297C45.8736 149.297 45.8644 149.064 45.9147 148.808C45.965 148.552 46.0611 148.337 46.1297 148.351Z" fill="#455A64"/>
<path id="Vector_100" d="M46.5052 146.485C46.5693 146.485 46.583 146.718 46.5327 146.979C46.4824 147.24 46.3818 147.436 46.3177 147.436C46.2537 147.436 46.2354 147.203 46.2903 146.947C46.3452 146.691 46.4366 146.476 46.5052 146.485Z" fill="#455A64"/>
<path id="Vector_101" d="M46.8718 144.624C46.9404 144.624 46.9496 144.857 46.8993 145.113C46.849 145.369 46.753 145.571 46.6844 145.571C46.6158 145.571 46.6066 145.337 46.6569 145.077C46.7072 144.816 46.8033 144.624 46.8718 144.624Z" fill="#455A64"/>
<path id="Vector_102" d="M47.2474 142.758C47.3114 142.758 47.3252 142.992 47.2749 143.248C47.2246 143.504 47.124 143.705 47.0599 143.705C46.9959 143.705 46.9776 143.472 47.0325 143.216C47.0874 142.96 47.1971 142.745 47.2474 142.758Z" fill="#455A64"/>
<path id="Vector_103" d="M47.6219 140.897C47.6904 140.897 47.7042 141.126 47.6493 141.386C47.5944 141.647 47.503 141.844 47.4344 141.844C47.3658 141.844 47.3566 141.61 47.4069 141.354C47.4572 141.098 47.5578 140.883 47.6219 140.897Z" fill="#455A64"/>
<path id="Vector_104" d="M47.989 139.031C48.0531 139.031 48.0668 139.265 48.0165 139.521C47.9662 139.777 47.8701 139.978 47.8015 139.978C47.733 139.978 47.7238 139.745 47.7741 139.484C47.8244 139.223 47.9204 139.018 47.989 139.031Z" fill="#455A64"/>
<path id="Vector_105" d="M48.364 137.165C48.4326 137.165 48.4464 137.398 48.3915 137.654C48.3366 137.911 48.2451 138.112 48.1765 138.112C48.108 138.112 48.0988 137.879 48.1491 137.622C48.1994 137.366 48.3 137.151 48.364 137.165Z" fill="#455A64"/>
<path id="Vector_106" d="M48.739 135.304C48.8031 135.304 48.8168 135.538 48.7665 135.794C48.7162 136.05 48.6201 136.251 48.5516 136.251C48.483 136.251 48.4738 136.018 48.5241 135.762C48.5744 135.506 48.6704 135.291 48.739 135.304Z" fill="#455A64"/>
<path id="Vector_107" d="M49.111 133.439C49.1796 133.439 49.1933 133.672 49.143 133.928C49.0927 134.184 48.9921 134.385 48.9281 134.385C48.8641 134.385 48.8458 134.152 48.8961 133.896C48.9464 133.64 49.0287 133.425 49.111 133.439Z" fill="#455A64"/>
<path id="Vector_108" d="M49.489 131.573C49.5576 131.573 49.5668 131.806 49.5165 132.062C49.4662 132.318 49.3701 132.519 49.3015 132.519C49.233 132.519 49.2238 132.286 49.2741 132.03C49.3244 131.774 49.4204 131.559 49.489 131.573Z" fill="#455A64"/>
<path id="Vector_109" d="M49.86 129.712C49.9286 129.712 49.9423 129.945 49.892 130.201C49.8417 130.457 49.7411 130.658 49.6771 130.658C49.6131 130.658 49.5948 130.43 49.6497 130.169C49.7046 129.908 49.796 129.698 49.86 129.712Z" fill="#455A64"/>
<path id="Vector_110" d="M50.2312 127.846C50.2998 127.846 50.309 128.079 50.2587 128.335C50.2084 128.591 50.1123 128.792 50.0437 128.792C49.9751 128.792 49.966 128.559 50.0163 128.303C50.0666 128.047 50.1626 127.832 50.2312 127.846Z" fill="#455A64"/>
<path id="Vector_111" d="M87.5078 70.3543C87.5078 70.3543 90.6723 65.6122 90.7592 65.571C90.7592 65.571 93.6127 60.7603 94.5639 60.7603C95.5151 60.7603 95.1721 61.7343 94.1889 63.4583C93.7178 64.2081 93.3964 65.042 93.2423 65.914L95.5882 67.327C95.5882 67.327 97.1568 66.7234 97.2208 68.1822C97.198 68.8511 97.1076 69.5161 96.951 70.1668C96.8549 70.6882 96.6217 71.2415 96.1278 71.0449C96.0053 71.0041 95.899 70.9254 95.8242 70.8202C95.7493 70.7149 95.71 70.5886 95.7117 70.4595C95.6797 69.5952 95.8398 69.2751 95.7117 69.2751C95.5837 69.2751 94.0243 73.8069 94.0243 73.8069L87.5078 70.3543Z" fill="#FFBE9D"/>
<path id="Vector_112" d="M93.8906 66.6324C94.1265 66.4556 94.3793 66.3024 94.6452 66.1751C94.9117 66.0501 95.2084 66.0041 95.5003 66.0424C95.6103 66.0523 95.7163 66.0883 95.8094 66.1475C95.9026 66.2067 95.9802 66.2874 96.0357 66.3828C96.0913 66.4782 96.1231 66.5856 96.1286 66.6958C96.1341 66.8061 96.1131 66.916 96.0674 67.0165C95.9736 67.251 95.8423 67.4688 95.6787 67.6613" fill="#FFBE9D"/>
<path id="Vector_113" d="M92.8281 65.6758C93.0524 65.5124 93.2912 65.37 93.5415 65.2505C93.7941 65.1332 94.0749 65.0903 94.3509 65.127C94.5278 65.1461 94.691 65.231 94.8082 65.3648C94.8773 65.4617 94.9214 65.5742 94.9366 65.6923C94.9517 65.8104 94.9375 65.9304 94.8951 66.0416C94.682 66.3784 94.437 66.6939 94.1634 66.9836" fill="#FFBE9D"/>
<path id="Vector_114" d="M88.612 67.6792L84.0391 77.4562L89.0693 82.6099L91.6942 75.3206C91.6942 75.3206 93.1027 75.5996 93.6789 74.6667C94.3191 73.6241 95.1605 70.615 95.1605 70.615L88.612 67.6792Z" fill="#FFBE9D"/>
<path id="Vector_115" d="M91.8828 67.4093C91.9197 66.9079 92.1078 66.4295 92.4224 66.0374C92.6307 65.751 92.8992 65.5138 93.209 65.3423C93.4422 65.2188 93.6023 65.1731 93.616 65.2006C93.6297 65.228 93.0672 65.5664 92.6236 66.1837C92.1801 66.8011 91.9606 67.4413 91.8828 67.4093Z" fill="#EB996E"/>
<path id="Vector_116" d="M96.9465 67.4508C96.9465 67.4828 96.7681 67.3959 96.4892 67.3501C96.1489 67.2879 95.7975 67.3427 95.4923 67.5056C95.1952 67.699 94.9439 67.9549 94.756 68.2556C94.596 68.4842 94.4862 68.626 94.4542 68.6077C94.4222 68.5894 94.4771 68.4248 94.6097 68.1504C94.7771 67.7929 95.0459 67.4924 95.3825 67.2861C95.5589 67.1909 95.7529 67.1325 95.9525 67.1144C96.1522 67.0964 96.3534 67.119 96.5441 67.1809C96.8367 67.2815 96.9648 67.4279 96.9465 67.4508Z" fill="#EB996E"/>
<path id="Vector_117" d="M95.2507 66.0697C94.8732 66.2454 94.5134 66.4567 94.176 66.7007C93.6639 67.158 93.4123 67.6839 93.3438 67.6519C93.409 67.201 93.6488 66.7937 94.0114 66.5178C94.2491 66.2973 94.5385 66.14 94.8528 66.0605C95.0952 66.0239 95.2461 66.0422 95.2507 66.0697Z" fill="#EB996E"/>
<path id="Vector_118" d="M96.3748 68.1821C96.4389 68.1593 96.5578 68.5388 96.3154 68.9138C96.073 69.2888 95.6843 69.3711 95.6797 69.2842C95.6752 69.1973 95.9267 69.083 96.1096 68.7858C96.2925 68.4885 96.3017 68.1913 96.3748 68.1821Z" fill="#EB996E"/>
<path id="Vector_119" d="M87.5234 70.1667C87.5234 70.1667 87.3634 67.2492 88.0676 66.5861C88.7719 65.923 90.8114 66.6135 90.8114 66.6135" fill="#FFBE9D"/>
<path id="Vector_120" d="M91.1036 65.2236C90.8249 65.8184 90.4731 66.376 90.0563 66.8836C89.7055 67.4388 89.2878 67.9487 88.8125 68.4018C89.4366 67.2496 90.2049 66.1816 91.099 65.2236H91.1036Z" fill="#EB996E"/>
<path id="Vector_121" d="M50.5998 43.1039L50.5312 65.8727L60.2991 66.33L60.5826 60.7921C60.5826 60.7921 64.0535 61.4826 64.9452 58.2587C65.5214 56.2008 65.3751 40.2915 65.3751 40.2915L50.5998 43.1039Z" fill="#FFBE9D"/>
<path id="Vector_122" d="M66.6634 41.8973C65.1269 42.3546 64.7931 44.856 64.7931 44.856L62.3785 50.1835C61.1484 49.2232 59.4976 49.2689 59.1775 51.441C58.9488 53.0004 60.8923 53.316 60.8923 53.316C59.7628 55.2412 58.9945 56.796 57.3483 58.6252C55.5694 60.6053 54.5725 60.8019 52.6381 60.8339H50.5117C50.5117 60.8339 49.4691 57.4499 47.5393 48.9899C45.3945 39.6016 56.4977 40.8089 58.5555 38.4127C61.9167 34.5119 71.5153 40.5117 66.6634 41.8973Z" fill="#263238"/>
<path id="Vector_123" d="M47.7359 49.8722C45.9342 48.6649 45.7741 45.2992 46.8213 43.2551C47.3596 42.2432 48.1557 41.3914 49.1289 40.7859C50.1022 40.1804 51.2181 39.8428 52.3637 39.8071C52.6721 39.8276 52.9818 39.7935 53.2783 39.7065C53.6783 39.4949 54.0133 39.1788 54.2478 38.7919C55.8575 36.7021 57.4489 34.6488 60.435 34.6488C61.0941 34.6158 61.7485 34.7747 62.3191 35.1061C62.8511 35.4685 63.2495 35.9954 63.4532 36.606C64.0021 36.3092 64.5925 36.0964 65.2046 35.975C65.5114 35.9147 65.8276 35.9215 66.1315 35.9949C66.4354 36.0683 66.7198 36.2066 66.9652 36.4002C67.2026 36.604 67.3604 36.8851 67.4106 37.1938C67.4608 37.5026 67.4002 37.8192 67.2396 38.0877C67.7469 38.0805 68.24 38.2549 68.63 38.5794C69.0199 38.904 69.281 39.3573 69.366 39.8574C69.5261 40.8589 68.0947 41.5631 67.9438 41.6409C67.9438 41.6409 68.7304 43.2871 66.8555 44.2749C66.1009 44.6682 65.1177 44.1926 65.0263 44.1331" fill="#263238"/>
<path id="Vector_124" d="M54.8721 52.0625C55.0041 52.6337 54.9852 53.2294 54.8173 53.7911C54.7257 54.3701 54.4881 54.9163 54.1268 55.3779C54.0582 55.3459 54.3737 54.6462 54.5841 53.7362C54.7944 52.8262 54.799 52.0625 54.8721 52.0625Z" fill="#455A64"/>
<path id="Vector_125" d="M56.0568 50.9468C56.1422 51.502 56.1111 52.0689 55.9653 52.6113C55.8997 53.1686 55.7257 53.7077 55.4531 54.1982C55.4906 53.6466 55.581 53.0999 55.7229 52.5656C55.7856 52.0171 55.8973 51.4753 56.0568 50.9468Z" fill="#455A64"/>
<path id="Vector_126" d="M59.4365 47.188C59.4365 47.22 59.1849 47.4212 58.8328 47.8328C58.3796 48.3775 58.0238 48.9963 57.781 49.662C57.5375 50.3285 57.3418 51.0116 57.1957 51.7061C57.1538 52.0037 57.0722 52.2943 56.9533 52.5704C56.9314 52.2638 56.9545 51.9557 57.0219 51.6558C57.1205 50.9376 57.2969 50.2323 57.5478 49.5522C57.8042 48.8697 58.198 48.2472 58.7048 47.723C58.8999 47.4861 59.1515 47.3021 59.4365 47.188Z" fill="#455A64"/>
<path id="Vector_127" d="M60.8075 44.627C60.9198 44.8145 60.9856 45.0262 60.9996 45.2443C61.1418 46.2926 60.8748 47.3554 60.2542 48.2122C60.0164 48.5323 59.7969 48.6695 59.7969 48.6695C60.1685 48.0668 60.4635 47.42 60.6749 46.7442C60.8078 46.0468 60.8523 45.3355 60.8075 44.627Z" fill="#455A64"/>
<path id="Vector_128" d="M49.1576 50.3159C49.121 50.3753 48.8237 50.2702 48.4853 50.0827C48.1469 49.8952 47.9046 49.6985 47.9412 49.6254C47.9777 49.5522 48.2704 49.6665 48.6088 49.854C48.9472 50.0415 49.1896 50.2565 49.1576 50.3159Z" fill="#455A64"/>
<path id="Vector_129" d="M53.8765 47.8831C53.916 48.2376 53.8159 48.5935 53.5975 48.8755C53.2957 49.3785 52.8887 49.6346 52.8475 49.5843C52.8064 49.534 53.1082 49.2093 53.3826 48.7474C53.657 48.2856 53.8033 47.8694 53.8765 47.8831Z" fill="#455A64"/>
<path id="Vector_130" d="M55.3178 47.106C55.3073 47.5378 55.1546 47.9542 54.8833 48.2904C54.4901 48.8848 54.0008 49.2049 53.9688 49.1501C54.1886 48.8042 54.4283 48.4713 54.6867 48.1532C54.8752 47.7914 55.0859 47.4416 55.3178 47.106Z" fill="#455A64"/>
<path id="Vector_131" d="M62.5394 37.5708C62.5394 37.5708 62.3519 37.4291 61.9998 37.2279C61.4944 36.9618 60.9338 36.8177 60.3627 36.8072C59.5169 36.7855 58.683 37.0095 57.9619 37.4519C57.0923 38.0222 56.3874 38.8106 55.9178 39.7384C55.5628 40.4176 55.2837 41.1338 55.0855 41.874L55.0489 42.0158L54.9163 41.9472C54.2441 41.5941 53.4987 41.403 52.7396 41.3893C52.1369 41.3747 51.5364 41.4661 50.9653 41.6591C50.4575 41.8472 49.9715 42.0894 49.5156 42.3816C49.6095 42.2705 49.7188 42.1735 49.8403 42.0935C50.1712 41.8543 50.5326 41.6605 50.915 41.5173C51.4992 41.296 52.1193 41.1844 52.7441 41.1881C53.5391 41.1867 54.3229 41.3748 55.0306 41.7368L54.8568 41.8146C55.0524 41.0531 55.3348 40.3166 55.6983 39.6195C56.1925 38.6573 56.9345 37.8444 57.8476 37.2645C58.6081 36.8097 59.4869 36.5916 60.3718 36.638C60.9659 36.6659 61.5432 36.8437 62.0501 37.1547C62.1845 37.2414 62.3101 37.3409 62.4251 37.4519C62.5074 37.5205 62.544 37.5617 62.5394 37.5708Z" fill="#455A64"/>
<path id="Vector_132" d="M67.6742 38.8104C67.6742 38.8104 67.944 38.7372 68.2367 39.0619C68.4011 39.2616 68.4814 39.5174 68.4608 39.7753C68.4351 39.9448 68.3705 40.1061 68.2722 40.2465C68.1738 40.3869 68.0443 40.5027 67.8937 40.5847C67.5333 40.7903 67.1075 40.8493 66.7047 40.7493C66.2601 40.6363 65.8432 40.434 65.4792 40.1548C65.0967 39.858 64.6966 39.5847 64.2811 39.3363C63.8307 39.0922 63.3445 38.9208 62.8406 38.8287C61.8572 38.654 60.846 38.7231 59.8956 39.0299C59.118 39.286 58.384 39.6592 57.7189 40.1365C57.1121 40.5957 56.5305 41.0873 55.9766 41.609C56.0853 41.4318 56.2159 41.2689 56.3653 41.1243C56.7472 40.7117 57.165 40.3337 57.6137 39.9948C58.2811 39.4843 59.0271 39.0858 59.8224 38.815C60.8078 38.4802 61.8621 38.4015 62.8863 38.5863C63.416 38.6835 63.9269 38.8641 64.4 39.1213C64.8221 39.378 65.2269 39.6621 65.6118 39.9719C65.9504 40.236 66.3371 40.4317 66.7505 40.5481C67.1042 40.6474 67.4825 40.6065 67.8068 40.4338C67.9388 40.3677 68.0539 40.2724 68.1435 40.1552C68.233 40.0379 68.2946 39.9017 68.3236 39.757C68.3525 39.5318 68.2935 39.3042 68.1589 39.1213C68.0384 38.9645 67.867 38.8545 67.6742 38.8104Z" fill="#455A64"/>
<path id="Vector_133" d="M40.1948 68.2559L31.4695 82.8893C30.4909 84.5996 29.5901 86.4197 28.7258 88.3083C28.3969 89.2561 28.3083 90.2707 28.4679 91.2611C28.6275 92.2515 29.0304 93.1869 29.6404 93.9834L29.3934 93.6267C29.8716 94.2176 30.4757 94.6942 31.1616 95.0218C31.8476 95.3493 32.598 95.5195 33.3582 95.5199H33.5868C34.5789 95.5192 35.5492 95.229 36.3786 94.6847C37.208 94.1404 37.8604 93.3658 38.2558 92.456L41.0591 88.2031L40.1948 68.2559Z" fill="#41B4A6"/>
<path id="Vector_134" d="M66.526 65.4566C64.1846 64.2585 61.8707 63.9887 59.3464 63.9155C56.4106 63.8287 52.2675 63.4171 49.0984 63.7555C49.0984 63.7555 40.0805 64.4231 39.454 70.6149L40.6842 99.6533L38.6172 111.955L67.532 112.828L67.3217 98.3042C67.6784 90.7543 66.9192 80.0581 66.9192 80.0581C67.3765 75.9973 69.5853 74.1727 69.9008 71.5295C70.1798 69.1973 68.6158 66.5221 66.526 65.4566Z" fill="#41B4A6"/>
<path id="Vector_135" d="M58.377 100.061C58.2529 100.212 58.11 100.348 57.9518 100.463C57.5397 100.805 57.0991 101.111 56.6347 101.378C55.0946 102.263 53.3554 102.743 51.5794 102.774C49.8034 102.806 48.0485 102.386 46.4782 101.556C46.0052 101.31 45.554 101.024 45.1292 100.701C44.9617 100.59 44.8081 100.46 44.6719 100.312C44.6993 100.271 45.3395 100.815 46.5376 101.401C48.0964 102.171 49.8169 102.557 51.5553 102.526C53.2936 102.495 54.9993 102.048 56.5296 101.222C57.7185 100.587 58.345 100.024 58.377 100.061Z" fill="#263238"/>
<path id="Vector_136" d="M39.4221 70.9351C39.443 71.0281 39.4538 71.1232 39.4541 71.2186C39.4541 71.4335 39.4861 71.6987 39.5044 72.0326C39.5364 72.7688 39.5867 73.7794 39.6416 75.0141C39.7514 77.5659 39.8931 81.0367 40.0532 84.8689C40.2132 88.701 40.387 92.1856 40.5105 94.719C40.5745 95.9537 40.6248 96.9644 40.6614 97.7006C40.6614 98.0344 40.6888 98.2997 40.698 98.5146C40.7088 98.6088 40.7088 98.7039 40.698 98.7981C40.6724 98.7071 40.6571 98.6136 40.6522 98.5192C40.6294 98.3042 40.6019 98.039 40.5699 97.7098C40.5013 97.0055 40.4282 95.9858 40.3413 94.7282C40.1675 92.2085 39.9846 88.7285 39.82 84.878C39.6553 81.0276 39.5456 77.5613 39.4816 75.0233C39.4816 73.784 39.4358 72.7734 39.4221 72.0326C39.4221 71.7033 39.4221 71.4335 39.4221 71.2232C39.4114 71.1274 39.4114 71.0308 39.4221 70.9351Z" fill="#263238"/>
<path id="Vector_137" d="M37.596 72.4761C37.5739 72.5554 37.54 72.631 37.4954 72.7002L37.1707 73.3267C36.878 73.8663 36.4436 74.6391 35.8857 75.5812C34.7882 77.4789 33.1419 80.0215 31.4728 82.8979C30.6359 84.343 29.9317 85.7697 29.3189 87.073C28.7408 88.2043 28.4517 89.4612 28.4775 90.7314C28.5214 91.5875 28.7507 92.4238 29.1497 93.1825C29.4332 93.7175 29.671 93.9645 29.6482 93.9828C29.5844 93.931 29.5261 93.8728 29.4744 93.809C29.3219 93.6267 29.1843 93.4325 29.0628 93.2282C28.6209 92.4688 28.3611 91.6173 28.3037 90.7405C28.2488 89.4366 28.5257 88.1401 29.1086 86.9724C29.7168 85.6508 30.4164 84.2286 31.2578 82.7653C32.9316 79.866 34.6007 77.3463 35.7348 75.4485C36.2927 74.5339 36.75 73.7931 37.0838 73.2352C37.2347 72.9974 37.3536 72.7779 37.4542 72.6362C37.5548 72.4944 37.596 72.4715 37.596 72.4761Z" fill="#263238"/>
<path id="Vector_138" d="M90.7813 80.4469L84.091 76.0706L79.8656 83.3874C79.8656 83.3874 74.0122 75.2521 71.3553 70.487C68.9042 66.097 65.7397 64.9172 64.2124 64.597C64.1075 64.5753 63.9989 64.5788 63.8956 64.6073C63.7924 64.6357 63.6973 64.6882 63.6183 64.7606C63.5393 64.8329 63.4786 64.9229 63.4411 65.0233C63.4037 65.1236 63.3906 65.2315 63.403 65.3379L65.6894 81.1603C65.9821 81.9835 70.8112 88.9847 73.5092 92.5058C78.0136 98.3867 84.6489 94.6231 86.469 90.5075C87.9369 87.2378 90.1868 82.2761 90.7813 80.4469Z" fill="#41B4A6"/>
<path id="Vector_139" d="M81.7889 89.9867C81.7056 89.6454 81.6626 89.2954 81.6609 88.9441C81.6053 88.1073 81.4968 87.2749 81.3362 86.4518C81.1712 85.634 80.8828 84.8461 80.481 84.115C80.1701 83.5617 79.9003 83.2599 79.9323 83.2324C80.2194 83.443 80.458 83.7128 80.6319 84.0235C81.09 84.7518 81.4108 85.5577 81.5785 86.4015C81.7454 87.2357 81.8312 88.0842 81.8346 88.9349C81.8634 89.286 81.848 89.6394 81.7889 89.9867Z" fill="#263238"/>
<path id="Vector_140" d="M83.7471 86.7165C83.7059 86.7165 83.6739 86.3781 83.5093 85.8613C83.2913 85.1912 82.9256 84.5786 82.4392 84.0687C81.9895 83.5323 81.3545 83.1847 80.6603 83.0947C80.3722 83.0966 80.0864 83.146 79.8143 83.241C79.7869 83.241 80.0658 82.9392 80.6649 82.9209C81.0397 82.9411 81.4064 83.0379 81.7422 83.2055C82.0781 83.373 82.376 83.6077 82.6176 83.8949C83.1331 84.4295 83.499 85.0903 83.6785 85.811C83.7729 86.1031 83.7964 86.4135 83.7471 86.7165Z" fill="#263238"/>
<path id="Vector_141" d="M63.7841 66.5499C63.7367 66.6172 63.6815 66.6786 63.6195 66.7328L63.4137 66.9432C63.3405 67.0392 63.2536 67.1398 63.1576 67.2541C62.6294 67.9217 62.2364 68.686 62.0006 69.504C61.6488 70.7152 61.563 71.9881 61.7491 73.2355C61.8428 73.9714 62.035 74.6912 62.3207 75.3757C62.6453 76.11 63.0071 76.8274 63.4045 77.525C65.0417 80.4014 66.7291 82.8891 67.9455 84.6862C68.5491 85.5551 69.0476 86.2685 69.418 86.7944C69.6078 87.046 69.7848 87.307 69.9484 87.5764C69.9484 87.5764 69.8844 87.5215 69.7792 87.398C69.6741 87.2745 69.5232 87.0962 69.322 86.8538C68.9424 86.3965 68.4074 85.6694 67.7854 84.7868C66.143 82.4836 64.6167 80.0996 63.2125 77.6439C62.8092 76.9401 62.4443 76.215 62.1195 75.4717C61.8231 74.7731 61.6217 74.038 61.5205 73.2859C61.3431 72.0053 61.4509 70.7015 61.836 69.4674C62.0907 68.6359 62.5159 67.8665 63.0844 67.2084L63.3634 66.9111L63.5875 66.7145C63.7109 66.591 63.7749 66.5407 63.7841 66.5499Z" fill="#263238"/>
<path id="Vector_142" d="M63.7866 108.584C63.7242 108.623 63.6564 108.653 63.5854 108.671L62.9817 108.882C62.7211 108.973 62.401 109.074 62.0214 109.174C61.6419 109.275 61.212 109.412 60.7318 109.513C59.6051 109.782 58.4649 109.991 57.3158 110.139C54.4978 110.508 51.6442 110.517 48.8238 110.167C47.6756 110.022 46.5355 109.819 45.4078 109.559C44.9231 109.458 44.4932 109.33 44.1137 109.225C43.7341 109.12 43.414 109.028 43.1488 108.937L42.5497 108.731C42.4125 108.685 42.3394 108.653 42.344 108.644C42.4182 108.651 42.4917 108.665 42.5635 108.685L43.1762 108.845C43.4415 108.918 43.7661 109.005 44.1503 109.092C44.5344 109.179 44.9597 109.298 45.4444 109.385C46.4047 109.595 47.5617 109.783 48.8513 109.938C50.253 110.092 51.662 110.17 53.0721 110.171C54.4811 110.161 55.8885 110.075 57.2884 109.915C58.578 109.755 59.7304 109.559 60.6907 109.344C61.1754 109.252 61.6053 109.133 61.9848 109.042C62.3644 108.95 62.6891 108.863 62.9543 108.79L63.5671 108.626C63.6374 108.6 63.7116 108.586 63.7866 108.584Z" fill="#263238"/>
<g id="Group_7" opacity="0.3">
<path id="Vector_143" d="M38.8906 91.537L40.1939 89.5112L39.5125 73.5562L38.8906 91.537Z" fill="black"/>
</g>
<g id="Group_8" opacity="0.3">
<path id="Vector_144" d="M61.4375 72.4761C61.4375 72.4761 61.4787 78.2883 62.8094 80.5931C64.1401 82.8979 67.3229 87.8732 67.3229 87.576C67.3229 87.2788 67.1446 83.4603 67.1446 83.4603C67.1446 83.4603 61.4649 75.7275 61.4375 72.4761Z" fill="black"/>
</g>
<path id="Vector_145" d="M37.7279 92.0348C37.6003 92.1068 37.458 92.149 37.3118 92.1583C36.9117 92.2018 36.5071 92.1485 36.132 92.0028C35.5776 91.7918 35.0787 91.4571 34.6732 91.0242C34.1931 90.4916 33.7828 89.8999 33.4522 89.2636C33.1297 88.6327 32.7693 88.0218 32.373 87.4344C32.0445 86.9715 31.6411 86.5665 31.1794 86.2363C30.7426 85.9476 30.2505 85.7529 29.7344 85.6647C29.8853 85.6339 30.0408 85.6339 30.1917 85.6647C30.5858 85.7291 30.9625 85.8739 31.2983 86.09C31.7901 86.4158 32.2217 86.8242 32.5742 87.2972C32.9836 87.8815 33.3533 88.4926 33.6808 89.1264C34.0026 89.7462 34.3955 90.3263 34.8515 90.855C35.2346 91.2733 35.7022 91.6053 36.2234 91.8291C36.6985 92.0272 37.2171 92.0981 37.7279 92.0348Z" fill="white"/>
<path id="Vector_146" d="M39.5011 82.0016C39.46 82.0016 39.3593 81.6541 39.0804 81.1419C38.7152 80.4744 38.2124 79.8921 37.6054 79.4333C36.9985 78.9745 36.301 78.6497 35.5592 78.4804C34.9876 78.3524 34.6172 78.3524 34.6172 78.3112C34.9366 78.242 35.2672 78.242 35.5867 78.3112C36.3723 78.4402 37.1152 78.757 37.7522 79.2347C38.3891 79.7124 38.9013 80.3369 39.245 81.055C39.3978 81.3483 39.4852 81.6713 39.5011 82.0016Z" fill="white"/>
<path id="Vector_147" d="M61.5457 73.4371C61.5457 73.4371 61.2302 73.3777 60.6631 73.3319C59.8611 73.2766 59.0553 73.3491 58.2761 73.5469C57.1187 73.8496 56.0035 74.2951 54.9561 74.873C53.758 75.4995 52.4913 76.2952 51.0553 76.9537C49.7051 77.5839 48.2485 77.9546 46.7613 78.0466C45.5487 78.1171 44.3324 78.0046 43.1533 77.7128C42.3615 77.5206 41.5943 77.2383 40.8668 76.8714C40.6061 76.7479 40.4095 76.6245 40.286 76.5513C40.1625 76.4781 40.0894 76.4278 40.094 76.4187C40.0985 76.4095 40.3866 76.5559 40.9079 76.7845C41.6426 77.1151 42.4086 77.3709 43.1944 77.5482C44.3592 77.812 45.556 77.906 46.7476 77.8271C48.2058 77.7225 49.6329 77.3537 50.9593 76.7388C52.3724 76.0894 53.6436 75.3029 54.8555 74.6809C55.9189 74.1001 57.0555 73.6649 58.2349 73.3868C59.0326 73.1962 59.8575 73.1467 60.6723 73.2405C60.8929 73.2661 61.1114 73.3073 61.3262 73.3639C61.4026 73.3773 61.4766 73.402 61.5457 73.4371Z" fill="white"/>
<path id="Vector_148" d="M67.1628 89.2589C67.0799 89.2987 66.9924 89.3279 66.9022 89.3458C66.647 89.425 66.3875 89.4891 66.1248 89.5379C65.1634 89.7308 64.1825 89.8091 63.2027 89.7711C61.7505 89.7105 60.3078 89.5084 58.8949 89.1675C57.2944 88.8016 55.575 88.2757 53.7686 87.7453C52.0775 87.233 50.3501 86.8493 48.6012 86.5975C47.1763 86.3931 45.7304 86.3823 44.3026 86.5655C43.3399 86.6898 42.3995 86.9484 41.5085 87.3337C40.882 87.6081 40.5482 87.791 40.5391 87.791C40.6082 87.7295 40.6851 87.6773 40.7677 87.6355C40.9323 87.5532 41.1518 87.3932 41.4719 87.256C42.361 86.836 43.3071 86.5494 44.2797 86.4054C45.7224 86.2047 47.1859 86.2047 48.6286 86.4054C50.3909 86.6457 52.1311 87.0265 53.8327 87.5441C55.6618 88.0745 57.3584 88.605 58.9452 88.98C60.3421 89.3313 61.7692 89.5487 63.2072 89.6293C64.178 89.6811 65.1514 89.629 66.1111 89.4739C66.7879 89.3321 67.1583 89.2361 67.1628 89.2589Z" fill="white"/>
<path id="Vector_149" d="M67.3199 98.3047C66.1137 97.7643 64.8296 97.4186 63.5152 97.2804C62.0875 97.1659 60.6514 97.215 59.2349 97.4267C57.6298 97.6462 55.8829 98.012 54.04 98.3413C52.1971 98.6705 50.4319 98.9906 48.8039 99.1324C47.3651 99.2785 45.9148 99.2693 44.4779 99.105C43.5079 98.9899 42.5547 98.7612 41.6381 98.4236C41.3134 98.3138 41.0756 98.1812 40.911 98.1126C40.8238 98.08 40.7409 98.037 40.6641 97.9846C40.6641 97.9617 41.0208 98.1172 41.6701 98.3367C42.5886 98.6347 43.5358 98.8355 44.4962 98.9358C45.9222 99.084 47.3597 99.084 48.7856 98.9358C50.3953 98.7849 52.1559 98.4785 53.9988 98.1309C55.8417 97.7834 57.5886 97.4221 59.2074 97.2163C60.6401 97.0084 62.0927 96.9746 63.5335 97.1157C64.5056 97.2208 65.4583 97.4609 66.3641 97.8291C66.6102 97.9286 66.85 98.0432 67.0821 98.1721C67.1658 98.2077 67.2456 98.2521 67.3199 98.3047Z" fill="white"/>
<path id="Vector_150" d="M52.4617 109.965C52.2988 109.887 52.1454 109.79 52.0044 109.677C51.7209 109.476 51.3093 109.193 50.7926 108.854C49.4526 107.967 48.0564 107.169 46.6129 106.463C45.1644 105.758 43.6721 105.147 42.1451 104.633C41.5598 104.437 41.0842 104.29 40.7732 104.176C40.5969 104.137 40.4263 104.076 40.2656 103.993C40.4451 104.005 40.6229 104.036 40.7961 104.085C41.1391 104.158 41.6238 104.286 42.2183 104.46C45.3249 105.389 48.2595 106.817 50.9069 108.69C51.4145 109.046 51.8215 109.353 52.0776 109.577C52.2207 109.69 52.3497 109.821 52.4617 109.965Z" fill="white"/>
<path id="Vector_151" d="M66.533 109.81C66.2447 110.027 65.9193 110.189 65.5727 110.29C63.9123 110.88 62.0907 110.824 60.4693 110.134C60.1358 110.008 59.8264 109.826 59.5547 109.595C59.8917 109.706 60.2229 109.834 60.547 109.979C61.347 110.255 62.1841 110.409 63.0301 110.436C63.8772 110.459 64.7227 110.349 65.5361 110.111C66.1443 109.947 66.5147 109.773 66.533 109.81Z" fill="white"/>
<path id="Vector_152" d="M76.5486 79.6191C76.5581 79.7571 76.5395 79.8956 76.4938 80.0261C76.3849 80.3871 76.2027 80.7218 75.9587 81.0093C75.5969 81.4316 75.1615 81.7849 74.6737 82.052C74.0833 82.3673 73.4721 82.6423 72.8445 82.8751C72.2293 83.106 71.6455 83.4133 71.1068 83.7897C70.6779 84.1039 70.3248 84.5102 70.0733 84.9787C69.848 85.4156 69.7468 85.9059 69.7807 86.3963C69.7153 86.2742 69.6837 86.1368 69.6892 85.9984C69.6746 85.6189 69.7547 85.2417 69.9224 84.9009C70.1657 84.3963 70.5245 83.9561 70.9696 83.6159C71.5177 83.2174 72.1178 82.8959 72.7531 82.6602C73.3769 82.4286 73.9875 82.1629 74.5823 81.8645C75.0525 81.6153 75.4789 81.2909 75.8444 80.9041C76.1649 80.5287 76.4046 80.0913 76.5486 79.6191Z" fill="white"/>
<path id="Vector_153" d="M70.9263 69.9158C70.9216 70.0576 70.8954 70.1979 70.8486 70.3319C70.8133 70.4878 70.7659 70.6407 70.7068 70.7892C70.6411 70.9978 70.5632 71.2024 70.4736 71.402C70.2467 71.9266 69.9711 72.4288 69.6504 72.9019C69.2479 73.4772 68.7882 74.0103 68.2786 74.4933C67.7656 74.9705 67.2047 75.3935 66.6049 75.7554C66.1139 76.0477 65.5964 76.2927 65.0592 76.4871C64.8541 76.5641 64.645 76.6297 64.4327 76.6837C64.2831 76.7312 64.1303 76.7679 63.9754 76.7935C63.8382 76.8305 63.6967 76.8489 63.5547 76.8484C63.5547 76.8026 64.1355 76.6883 65.0226 76.3271C65.5346 76.1159 66.0286 75.8636 66.4997 75.5725C67.6653 74.8483 68.6744 73.8983 69.4675 72.7784C69.792 72.3237 70.0766 71.8417 70.3181 71.338C70.7342 70.4828 70.8806 69.902 70.9263 69.9158Z" fill="white"/>
<path id="Vector_154" d="M62.1299 63.9155C61.917 64.0319 61.6953 64.1313 61.4668 64.2128C61.037 64.3957 60.3967 64.6243 59.5965 64.8759C58.7962 65.1274 57.8313 65.3743 56.7429 65.5984C54.3805 66.0685 51.9691 66.2451 49.5634 66.1243C48.5818 66.0757 47.6034 65.9765 46.6321 65.827C45.8044 65.6944 45.1413 65.5618 44.684 65.4429C44.4453 65.3989 44.2111 65.3331 43.9844 65.2463C44.2278 65.263 44.4695 65.2997 44.7069 65.356C45.1642 65.4429 45.8319 65.5527 46.655 65.6578C47.4781 65.763 48.4842 65.859 49.5725 65.9048C50.7663 65.9476 51.9615 65.9278 53.1532 65.8453C54.3431 65.7542 55.5276 65.6016 56.7018 65.388C57.781 65.1777 58.7505 64.9307 59.5507 64.7158C60.351 64.5009 60.9958 64.2859 61.4348 64.1305C61.6602 64.0399 61.8927 63.968 62.1299 63.9155Z" fill="white"/>
<path id="Vector_155" d="M80.0824 83.8037C80.1609 83.9466 80.2164 84.1009 80.247 84.261C80.3564 84.6939 80.4223 85.1366 80.4436 85.5826C80.4601 87.0541 80.3066 88.5226 79.9863 89.9589C79.8613 90.7619 79.6529 91.5497 79.3644 92.3094C79.1221 92.9346 78.7619 93.5075 78.3035 93.9968C77.9951 94.3282 77.6255 94.5969 77.2151 94.788C77.0735 94.8658 76.9183 94.9155 76.7578 94.9343C77.2975 94.6779 77.7833 94.321 78.1892 93.8825C78.6145 93.3948 78.9476 92.8339 79.1723 92.2271C79.4415 91.4761 79.639 90.7014 79.7623 89.9132C80.0737 88.4928 80.2468 87.0455 80.279 85.5917C80.2476 84.9925 80.1819 84.3955 80.0824 83.8037Z" fill="white"/>
<path id="Vector_156" d="M89.2743 84.9923C89.2331 84.9923 89.0182 84.535 88.5426 83.8308C87.9116 82.9283 87.1286 82.1423 86.2287 81.5077C85.3244 80.8794 84.3168 80.4151 83.2517 80.1358C82.4331 79.9254 81.8798 79.8889 81.9072 79.8477C82.0311 79.8242 82.1583 79.8242 82.2822 79.8477C82.6209 79.8647 82.9574 79.9105 83.2883 79.9849C83.7849 80.091 84.2703 80.2441 84.7379 80.4422C85.8875 80.9175 86.9192 81.6386 87.7606 82.5549C88.1012 82.9274 88.4073 83.3299 88.6752 83.7576C88.8546 84.0482 89.0076 84.3543 89.1325 84.6722C89.1957 84.7711 89.2435 84.879 89.2743 84.9923Z" fill="white"/>
<g id="Group_9" opacity="0.3">
<path id="Vector_157" d="M62.3873 108.955C62.4967 108.901 62.5933 108.824 62.6703 108.73C62.7472 108.635 62.8028 108.525 62.8333 108.407C62.8637 108.289 62.8681 108.165 62.8464 108.045C62.8247 107.925 62.7773 107.811 62.7074 107.711C62.5367 107.54 62.3296 107.41 62.1014 107.331C61.8733 107.252 61.6302 107.226 61.3903 107.254C59.0261 107.3 56.9637 108.882 54.6407 109.307C52.8755 109.627 51.0509 109.266 49.3314 108.745C47.612 108.223 45.9337 107.542 44.1686 107.208C43.8035 107.115 43.422 107.105 43.0528 107.181C42.8683 107.221 42.6996 107.315 42.5673 107.45C42.4349 107.584 42.3446 107.755 42.3074 107.94C42.2616 108.31 42.3485 108.589 42.9064 108.777C42.9064 108.777 48.7552 110.405 52.9669 110.341C56.1473 110.214 59.3052 109.75 62.3873 108.955Z" fill="black"/>
</g>
</g>
<g id="Plant">
<path id="Vector_158" d="M184.253 176.073H152.352V180.458H184.253V176.073Z" fill="#263238"/>
<path id="Vector_159" d="M184.308 180.513H152.297V176.018H184.308V180.513ZM152.407 180.403H184.198V176.127H152.407V180.403Z" fill="#263238"/>
<path id="Vector_160" d="M155.312 179L159.904 201.649H176.897L181.333 180.458L155.312 179Z" fill="#263238"/>
<path id="Vector_161" d="M155.312 199.509L157.764 202.875H178.415L181.333 199.509H155.312Z" fill="#455A64"/>
<path id="Vector_162" d="M167.107 179.658C167.048 179.658 166.965 169.163 166.929 156.221C166.892 143.28 166.929 132.78 166.979 132.78C167.03 132.78 167.121 143.271 167.158 156.221C167.194 169.172 167.171 179.658 167.107 179.658Z" fill="#263238"/>
<path id="Vector_163" d="M174.205 153.395C174.188 153.479 174.16 153.56 174.123 153.637C174.045 153.816 173.954 154.044 173.835 154.319L173.629 154.808C173.56 154.991 173.492 155.192 173.414 155.403C173.336 155.613 173.259 155.86 173.172 156.089C173.085 156.317 173.016 156.592 172.934 156.866C172.555 158.148 172.257 159.452 172.042 160.771C171.793 162.391 171.628 164.023 171.548 165.66C171.43 168.636 171.514 171.617 171.8 174.582C171.9 175.72 172.006 176.644 172.083 177.28C172.115 177.577 172.143 177.819 172.161 178.011C172.173 178.096 172.173 178.182 172.161 178.267C172.13 178.187 172.11 178.102 172.102 178.016L171.978 177.289C171.878 176.658 171.75 175.739 171.626 174.6C171.292 171.629 171.185 168.637 171.306 165.651C171.385 164.007 171.558 162.368 171.823 160.744C172.046 159.417 172.361 158.108 172.765 156.825C172.856 156.55 172.929 156.285 173.021 156.043L173.281 155.361L173.515 154.771C173.592 154.593 173.675 154.433 173.743 154.287L174.068 153.624C174.104 153.542 174.15 153.465 174.205 153.395Z" fill="#263238"/>
<path id="Vector_164" d="M173.418 144.908C173.396 145.027 173.362 145.143 173.317 145.255C173.235 145.498 173.125 145.822 172.984 146.229L172.741 146.934C172.659 147.194 172.577 147.478 172.485 147.78C172.298 148.388 172.083 149.078 171.891 149.856C171.785 150.24 171.68 150.647 171.571 151.067C171.461 151.488 171.374 151.936 171.269 152.394C171.045 153.308 170.885 154.301 170.679 155.339C170.327 157.419 170.02 159.724 169.805 162.157C169.59 164.59 169.517 166.913 169.485 169.016C169.453 171.12 169.485 173.036 169.595 174.637C169.622 175.437 169.673 176.159 169.714 176.79C169.755 177.421 169.792 177.97 169.828 178.418C169.865 178.867 169.888 179.191 169.911 179.447C169.922 179.566 169.922 179.685 169.911 179.804C169.88 179.689 169.862 179.571 169.856 179.452C169.824 179.196 169.783 178.853 169.732 178.428C169.682 178.002 169.627 177.435 169.577 176.8C169.526 176.164 169.462 175.428 169.421 174.646C169.316 173.045 169.27 171.138 169.266 169.016C169.261 166.895 169.366 164.567 169.572 162.129C169.778 159.692 170.103 157.378 170.464 155.293C170.679 154.25 170.843 153.258 171.077 152.343C171.186 151.886 171.287 151.429 171.388 151.017C171.488 150.606 171.616 150.189 171.726 149.801C171.927 149.028 172.156 148.337 172.353 147.734C172.453 147.432 172.545 147.148 172.627 146.888C172.709 146.627 172.81 146.403 172.892 146.193L173.263 145.228C173.305 145.117 173.357 145.01 173.418 144.908Z" fill="#263238"/>
<path id="Vector_165" d="M165.09 181.514C165.086 181.473 165.086 181.432 165.09 181.391C165.09 181.299 165.09 181.181 165.063 181.03L164.967 179.658C164.889 178.432 164.784 176.69 164.647 174.545C164.372 170.228 163.97 164.265 163.243 157.708C162.873 154.433 162.443 151.305 161.995 148.498C161.757 147.085 161.537 145.754 161.295 144.496C161.053 143.239 160.838 142.091 160.609 141.03C160.38 139.969 160.152 139.022 159.978 138.186C159.804 137.349 159.612 136.626 159.466 136.041L159.132 134.669C159.1 134.527 159.072 134.408 159.054 134.317C159.041 134.277 159.033 134.235 159.031 134.193C159.05 134.231 159.064 134.271 159.072 134.312C159.1 134.404 159.136 134.518 159.178 134.66C159.264 134.98 159.393 135.433 159.548 136C159.703 136.567 159.905 137.298 160.101 138.135C160.298 138.972 160.559 139.919 160.764 140.98C160.97 142.041 161.249 143.193 161.482 144.446C161.716 145.699 161.94 147.034 162.2 148.443C162.658 151.269 163.115 154.388 163.472 157.666C164.199 164.229 164.574 170.196 164.807 174.518C164.926 176.676 165.008 178.423 165.054 179.635C165.054 180.225 165.095 180.691 165.109 181.007C165.109 181.153 165.109 181.272 165.109 181.368C165.11 181.417 165.104 181.467 165.09 181.514Z" fill="#263238"/>
<path id="Vector_166" d="M166.842 137.824C166.705 136.338 165.205 135.217 163.71 135.204C162.215 135.19 160.824 136.082 159.914 137.262C159.054 138.488 158.434 139.866 158.085 141.322C157.079 144.825 156.53 148.507 156.96 152.124C157.39 155.741 158.858 159.303 161.451 161.864C161.876 162.28 162.42 162.692 163.001 162.568C163.314 162.477 163.596 162.303 163.82 162.065C166.361 159.737 168.376 156.892 169.729 153.722C171.081 150.551 171.74 147.128 171.662 143.682C171.621 142.31 171.443 140.874 170.679 139.731C169.915 138.588 168.141 137.367 166.842 137.824Z" fill="#41B4A6"/>
<path id="Vector_167" d="M155.693 125.916L153.59 129.725C153.544 129.812 153.475 129.913 153.375 129.922C153.274 129.931 153.183 129.826 153.123 129.734L147.562 121.201L148.843 120.474L155.693 125.916Z" fill="#41B4A6"/>
<g id="Group_10" opacity="0.2">
<path id="Vector_168" d="M155.693 125.916L153.59 129.726C153.544 129.813 153.475 129.913 153.375 129.922C153.274 129.932 153.183 129.826 153.123 129.735L147.562 121.202L148.843 120.475L155.693 125.916Z" fill="black"/>
</g>
<path id="Vector_169" d="M166.975 132.78L148.007 121.59C147.804 121.499 147.641 121.336 147.549 121.133C147.538 120.988 147.564 120.842 147.623 120.708C147.682 120.575 147.773 120.459 147.888 120.369C149.192 119.017 150.772 117.961 152.521 117.275C154.269 116.588 156.146 116.287 158.021 116.391C159.894 116.528 161.704 117.118 163.298 118.111C164.891 119.104 166.219 120.469 167.167 122.089C168.997 125.358 169.061 129.684 166.962 132.789" fill="#41B4A6"/>
<path id="Vector_170" d="M150.742 118.014C150.823 117.996 150.906 117.987 150.989 117.987C151.154 117.987 151.396 117.946 151.707 117.95C152.588 117.94 153.468 118.01 154.337 118.161C155.63 118.378 156.89 118.761 158.086 119.299C160.154 120.23 161.991 121.607 163.466 123.33C164.94 125.053 166.015 127.081 166.615 129.268C166.846 130.118 166.999 130.988 167.072 131.866C167.104 132.177 167.1 132.419 167.109 132.584C167.122 132.665 167.122 132.749 167.109 132.831C167.109 132.831 167.068 132.488 166.99 131.875C166.615 128.551 165.179 125.437 162.893 122.994C160.608 120.551 157.596 118.911 154.305 118.316C153.446 118.154 152.576 118.061 151.703 118.037C151.085 118.023 150.742 118.037 150.742 118.014Z" fill="#263238"/>
<path id="Vector_171" d="M164.406 125.057C164.105 125.246 163.782 125.4 163.445 125.514C162.842 125.752 162 126.058 161.054 126.355C160.107 126.653 159.224 126.895 158.612 127.05C158.276 127.155 157.929 127.221 157.578 127.247C157.896 127.095 158.228 126.977 158.57 126.895L160.985 126.14L163.395 125.363C163.72 125.224 164.058 125.121 164.406 125.057Z" fill="#263238"/>
<path id="Vector_172" d="M161.42 117.031C161.587 117.724 161.663 118.435 161.644 119.148C161.698 119.859 161.66 120.574 161.529 121.274C161.432 120.572 161.394 119.862 161.415 119.153C161.36 118.446 161.362 117.737 161.42 117.031Z" fill="#263238"/>
<path id="Vector_173" d="M147.844 121.375C148.287 121.175 148.746 121.013 149.216 120.89C150.08 120.625 151.278 120.287 152.613 119.976C153.949 119.665 155.174 119.404 156.061 119.249C156.538 119.141 157.023 119.077 157.511 119.057C157.047 119.206 156.573 119.324 156.093 119.409C155.215 119.605 154.004 119.866 152.668 120.195C151.333 120.525 150.13 120.831 149.261 121.055C148.797 121.195 148.323 121.302 147.844 121.375Z" fill="#263238"/>
<path id="Vector_174" d="M158.228 134.307C156.596 133.068 154.872 132.826 152.827 132.908C150.773 133.041 148.761 133.558 146.896 134.431C143.695 135.835 140.691 137.897 138.784 140.833C136.877 143.769 136.205 147.624 137.636 150.807C137.747 151.141 137.979 151.421 138.285 151.593C138.64 151.696 139.02 151.666 139.356 151.511C142.991 150.326 146.672 149.128 150.001 147.272C153.33 145.415 156.403 142.827 158.182 139.447C158.644 138.651 158.938 137.769 159.047 136.855C159.098 136.397 159.049 135.934 158.905 135.496C158.76 135.059 158.523 134.658 158.21 134.321" fill="#41B4A6"/>
<path id="Vector_175" d="M158.265 133.924C158.181 133.966 158.094 134.001 158.004 134.029L157.241 134.29L156.692 134.477C156.491 134.546 156.276 134.637 156.047 134.729C155.59 134.912 155.05 135.099 154.488 135.373L153.596 135.776C153.285 135.922 152.979 136.096 152.649 136.265C151.991 136.585 151.323 137.001 150.614 137.422C149.098 138.376 147.658 139.446 146.307 140.623C144.972 141.816 143.729 143.107 142.589 144.487C142.086 145.141 141.587 145.75 141.185 146.362C140.975 146.664 140.764 146.948 140.581 147.236L140.065 148.073C139.722 148.594 139.47 149.101 139.228 149.531L138.894 150.14L138.642 150.665L138.286 151.388C138.249 151.474 138.203 151.555 138.148 151.63C138.169 151.54 138.201 151.452 138.244 151.37L138.565 150.624C138.633 150.464 138.715 150.286 138.798 150.094C138.88 149.902 138.999 149.696 139.113 149.472C139.347 149.015 139.571 148.521 139.927 147.99L140.435 147.144C140.613 146.852 140.824 146.563 141.029 146.253C141.427 145.635 141.921 145.018 142.429 144.359C144.686 141.538 147.419 139.133 150.505 137.253C151.223 136.832 151.899 136.425 152.562 136.105C152.896 135.941 153.207 135.767 153.523 135.648L154.437 135.25C155.009 134.985 155.549 134.793 156.015 134.633L156.669 134.399L157.227 134.235L158.004 134.011C158.088 133.972 158.175 133.943 158.265 133.924Z" fill="#263238"/>
<path id="Vector_176" d="M145.522 140.824C144.224 141.321 142.9 141.747 141.557 142.1C140.233 142.528 138.887 142.882 137.523 143.161C138.823 142.665 140.148 142.239 141.493 141.885C142.815 141.458 144.16 141.104 145.522 140.824Z" fill="#263238"/>
<path id="Vector_177" d="M145.348 149.581C145.277 149.172 145.248 148.757 145.261 148.342C145.238 147.578 145.234 146.513 145.261 145.356C145.289 144.199 145.357 143.133 145.421 142.37C145.435 141.957 145.487 141.547 145.577 141.144C145.613 141.555 145.613 141.968 145.577 142.379C145.577 143.22 145.522 144.235 145.485 145.36C145.449 146.485 145.43 147.505 145.412 148.342C145.425 148.756 145.403 149.171 145.348 149.581Z" fill="#263238"/>
<path id="Vector_178" d="M152.838 145.758C152.774 145.758 152.578 143.613 152.381 140.961C152.184 138.309 152.097 136.155 152.161 136.15C152.225 136.146 152.422 138.295 152.619 140.947C152.815 143.6 152.916 145.754 152.838 145.758Z" fill="#263238"/>
<path id="Vector_179" d="M143.516 135.935C143.937 135.883 144.363 135.869 144.787 135.894C145.573 135.894 146.657 135.926 147.851 135.963C149.044 135.999 150.137 136.05 150.91 136.1C151.335 136.102 151.759 136.142 152.177 136.219C151.755 136.272 151.33 136.286 150.906 136.26C150.124 136.26 149.04 136.233 147.842 136.191C146.644 136.15 145.555 136.104 144.782 136.054C144.357 136.052 143.934 136.012 143.516 135.935Z" fill="#263238"/>
<path id="Vector_180" d="M162.263 162.884C162.248 162.798 162.239 162.711 162.236 162.624C162.236 162.432 162.236 162.166 162.204 161.878C162.176 161.234 162.167 160.296 162.204 159.135C162.24 157.973 162.3 156.601 162.437 155.074C162.574 153.546 162.798 151.873 163.105 150.135C163.411 148.397 163.795 146.746 164.184 145.265C164.573 143.783 164.989 142.466 165.368 141.373C165.748 140.28 166.073 139.398 166.324 138.799L166.612 138.113C166.642 138.031 166.681 137.953 166.726 137.879C166.713 137.966 166.69 138.05 166.658 138.131C166.589 138.314 166.507 138.547 166.406 138.831C166.182 139.439 165.876 140.321 165.519 141.423C165.163 142.526 164.774 143.843 164.385 145.32C163.996 146.797 163.64 148.438 163.329 150.172C163.018 151.905 162.803 153.574 162.647 155.092C162.492 156.61 162.405 157.987 162.364 159.144C162.323 160.301 162.3 161.234 162.3 161.887C162.3 162.189 162.3 162.436 162.3 162.633C162.298 162.718 162.285 162.802 162.263 162.884Z" fill="#263238"/>
<path id="Vector_181" d="M163.27 149.942C163.051 150.247 162.798 150.526 162.516 150.775C162.022 151.264 161.327 151.918 160.531 152.604C159.735 153.29 158.995 153.907 158.446 154.328C158.164 154.573 157.858 154.787 157.531 154.968C157.775 154.697 158.043 154.449 158.332 154.227L160.366 152.453L162.392 150.665C162.661 150.397 162.955 150.155 163.27 149.942Z" fill="#263238"/>
<path id="Vector_182" d="M169.274 154.781C168.978 154.429 168.709 154.056 168.469 153.665L166.594 150.921L164.678 148.214C164.394 147.853 164.139 147.471 163.914 147.071C164.249 147.392 164.555 147.742 164.829 148.118C165.355 148.786 166.059 149.728 166.8 150.793C167.54 151.859 168.171 152.846 168.629 153.574C168.881 153.955 169.096 154.359 169.274 154.781Z" fill="#263238"/>
<path id="Vector_183" d="M166.121 139.594C166.158 139.644 164.164 140.988 161.667 142.594C159.17 144.199 157.126 145.452 157.094 145.397C157.062 145.342 159.056 144.002 161.548 142.401C164.04 140.801 166.098 139.516 166.121 139.594Z" fill="#263238"/>
<path id="Vector_184" d="M171.751 145.639C170.694 144.767 169.687 143.838 168.733 142.854C167.727 141.922 166.773 140.936 165.875 139.9C166.93 140.775 167.937 141.707 168.893 142.689C169.9 143.619 170.854 144.604 171.751 145.639Z" fill="#263238"/>
<path id="Vector_185" d="M173.167 145.539L174.877 145.397C176.092 145.299 177.272 144.938 178.334 144.341C178.854 144.036 179.393 143.765 179.948 143.531C182.066 142.681 184.425 142.832 186.703 142.717C190.432 142.53 194.086 141.597 197.449 139.974C197.641 139.881 197.8 139.733 197.906 139.548C198.259 138.908 197.605 138.336 197.042 137.989C194.157 136.21 191.221 134.413 187.951 133.53C184.681 132.648 180.968 132.799 178.179 134.719C174.9 136.974 173.706 141.579 173.148 145.539" fill="#41B4A6"/>
<path id="Vector_186" d="M197.953 139.315C197.853 139.278 197.757 139.232 197.665 139.178L196.851 138.752C196.147 138.382 195.136 137.838 193.856 137.225C192.365 136.492 190.812 135.893 189.214 135.437C187.264 134.875 185.221 134.709 183.206 134.948C181.184 135.172 179.274 135.992 177.718 137.303C176.504 138.43 175.533 139.793 174.864 141.309C174.398 142.328 173.983 143.371 173.621 144.432C173.497 144.789 173.392 145.077 173.319 145.296C173.288 145.399 173.246 145.499 173.195 145.594C173.215 145.488 173.241 145.385 173.273 145.283L173.538 144.405C173.866 143.328 174.26 142.273 174.718 141.245C175.374 139.688 176.349 138.286 177.581 137.129C179.16 135.783 181.106 134.94 183.169 134.71C185.216 134.469 187.29 134.642 189.269 135.218C190.873 135.683 192.429 136.295 193.92 137.047C195.196 137.682 196.206 138.249 196.892 138.643L197.684 139.1C197.782 139.16 197.873 139.232 197.953 139.315Z" fill="#263238"/>
<path id="Vector_187" d="M193.842 141.523C193.806 141.574 191.556 140.124 188.844 138.286C186.132 136.447 183.933 134.915 183.969 134.865C184.006 134.815 186.256 136.237 188.967 138.098C191.679 139.959 193.879 141.468 193.842 141.523Z" fill="#263238"/>
<path id="Vector_188" d="M191.71 134.651C191.151 134.863 190.561 134.981 189.963 134.998C189.372 135.092 188.769 135.084 188.18 134.975C188.76 134.859 189.349 134.792 189.94 134.774C190.526 134.683 191.118 134.642 191.71 134.651Z" fill="#263238"/>
<path id="Vector_189" d="M181.651 132.849C181.47 133.37 181.223 133.865 180.915 134.322C180.674 134.818 180.366 135.28 180 135.694C180.181 135.173 180.428 134.678 180.736 134.221C180.979 133.725 181.286 133.264 181.651 132.849Z" fill="#263238"/>
<path id="Vector_190" d="M183.655 142.841C183.277 142.684 182.917 142.488 182.58 142.255C181.931 141.862 181.057 141.29 180.124 140.609C179.192 139.928 178.364 139.292 177.774 138.821C177.447 138.583 177.141 138.316 176.859 138.025C177.222 138.213 177.565 138.437 177.884 138.693L180.271 140.426C181.185 141.103 182.059 141.697 182.681 142.123C183.025 142.334 183.351 142.574 183.655 142.841Z" fill="#263238"/>
<path id="Vector_191" d="M175.705 152.792C174.072 152.362 172.128 153.949 171.79 155.604C171.452 157.259 172.074 158.951 172.801 160.474C174.347 163.893 176.649 166.917 179.532 169.318C182.454 171.651 186.117 173.141 189.853 173.118C189.163 169.917 190.036 166.565 189.652 163.309C189.315 160.439 188.013 157.767 185.959 155.734C183.905 153.7 181.222 152.424 178.348 152.115C177.305 152.001 176.098 151.836 175.682 152.801" fill="#41B4A6"/>
<path id="Vector_192" d="M189.851 173.109C189.771 173.085 189.694 173.049 189.623 173.004C189.407 172.885 189.202 172.747 189.01 172.592C188.325 171.998 187.774 171.263 187.396 170.439C187.135 169.931 186.847 169.382 186.563 168.774C186.28 168.166 185.992 167.516 185.685 166.831C185.367 166.119 185.007 165.427 184.606 164.759C184.163 164.048 183.666 163.372 183.12 162.738C182 161.425 180.801 160.287 179.763 159.203C178.822 158.255 177.965 157.227 177.202 156.13C176.691 155.387 176.27 154.586 175.949 153.743C175.866 153.513 175.794 153.28 175.735 153.043C175.71 152.961 175.692 152.877 175.68 152.792C175.703 152.792 175.794 153.125 176.032 153.706C176.382 154.526 176.818 155.307 177.335 156.034C178.11 157.108 178.971 158.117 179.91 159.052C180.957 160.127 182.164 161.261 183.294 162.587C183.846 163.23 184.347 163.915 184.794 164.635C185.198 165.314 185.559 166.018 185.873 166.744L186.733 168.692C187.007 169.295 187.29 169.849 187.542 170.356C187.898 171.173 188.416 171.909 189.065 172.519C189.545 172.935 189.879 173.091 189.851 173.109Z" fill="#263238"/>
<path id="Vector_193" d="M181.406 170.448C181.413 170.076 181.464 169.706 181.557 169.346C181.685 168.674 181.896 167.75 182.175 166.748C182.453 165.747 182.764 164.841 183.007 164.201C183.119 163.846 183.273 163.506 183.464 163.186C183.401 163.551 183.303 163.91 183.171 164.256C182.97 164.905 182.691 165.806 182.408 166.808C182.124 167.809 181.896 168.719 181.726 169.382C181.652 169.747 181.545 170.103 181.406 170.448Z" fill="#263238"/>
<path id="Vector_194" d="M189.548 162.578C189.157 162.523 188.771 162.434 188.395 162.313C187.691 162.13 186.722 161.878 185.652 161.631C184.581 161.384 183.585 161.201 182.871 161.064C182.48 161.014 182.095 160.93 181.719 160.813C182.114 160.801 182.51 160.831 182.899 160.904C183.621 161 184.618 161.165 185.702 161.412C186.786 161.659 187.76 161.933 188.446 162.157C188.828 162.255 189.197 162.396 189.548 162.578Z" fill="#263238"/>
<path id="Vector_195" d="M175.359 164.864C175.375 164.436 175.435 164.009 175.538 163.593C175.679 162.811 175.908 161.741 176.215 160.57C176.521 159.4 176.846 158.352 177.097 157.602C177.209 157.189 177.362 156.787 177.554 156.404C177.48 156.826 177.375 157.242 177.239 157.648C177.024 158.412 176.722 159.477 176.42 160.625C176.118 161.773 175.862 162.857 175.679 163.625C175.607 164.046 175.5 164.461 175.359 164.864Z" fill="#263238"/>
<path id="Vector_196" d="M185.803 155.718C185.803 155.782 183.755 155.613 181.23 155.348C179.712 155.226 178.201 155.028 176.703 154.753C176.703 154.694 178.747 154.859 181.253 155.124C182.779 155.245 184.298 155.443 185.803 155.718Z" fill="#263238"/>
<path id="Vector_197" d="M184.308 180.44C184.308 180.499 177.142 180.55 168.302 180.55C159.463 180.55 152.297 180.499 152.297 180.44C152.297 180.381 159.458 180.326 168.302 180.326C177.146 180.326 184.308 180.376 184.308 180.44Z" fill="#455A64"/>
<path id="Vector_198" d="M179.316 189.659C179.316 189.723 174.487 189.773 168.533 189.773C162.579 189.773 157.75 189.723 157.75 189.659C157.75 189.595 162.574 189.544 168.533 189.544C174.492 189.544 179.316 189.595 179.316 189.659Z" fill="#455A64"/>
<path id="Vector_199" d="M179.511 190.976C179.511 191.04 174.682 191.09 168.728 191.09C162.774 191.09 157.945 191.04 157.945 190.976C157.945 190.912 162.774 190.861 168.728 190.861C174.682 190.861 179.511 190.916 179.511 190.976Z" fill="#455A64"/>
<path id="Vector_200" d="M179.51 188.571C179.51 188.635 174.516 188.685 168.357 188.685C162.197 188.685 157.203 188.635 157.203 188.571C157.203 188.507 162.197 188.461 168.357 188.461C174.516 188.461 179.51 188.525 179.51 188.571Z" fill="#455A64"/>
</g>
<g id="Floor">
<path id="Vector_201" d="M193.189 202.874C193.189 202.943 149.938 202.993 96.5993 202.993C43.2602 202.993 0 202.943 0 202.874C0 202.806 43.2419 202.755 96.5993 202.755C149.957 202.755 193.189 202.81 193.189 202.874Z" fill="#263238"/>
</g>
</g>
</svg>
