<svg width="86" height="32" viewBox="0 0 86 32" fill="none" xmlns="http://www.w3.org/2000/svg">
<mask id="path-1-inside-1_7796_20592" fill="white">
<path fill-rule="evenodd" clip-rule="evenodd" d="M6.99532 9.36234C6.59927 5.84976 3.61843 3.11987 0 3.11987V17.4186C-1.80809e-05 17.4257 -2.71267e-05 17.4328 -2.71267e-05 17.4399C-2.71267e-05 17.447 -1.80809e-05 17.454 0 17.4611V17.5199H0.000357042C0.0432946 21.9897 3.68003 25.5999 8.15997 25.5999C12.6666 25.5999 16.32 21.9465 16.32 17.4399C16.32 12.9332 12.6666 9.27986 8.15997 9.27986C7.76456 9.27986 7.37571 9.30799 6.99532 9.36234Z"/>
</mask>
<path fill-rule="evenodd" clip-rule="evenodd" d="M6.99532 9.36234C6.59927 5.84976 3.61843 3.11987 0 3.11987V17.4186C-1.80809e-05 17.4257 -2.71267e-05 17.4328 -2.71267e-05 17.4399C-2.71267e-05 17.447 -1.80809e-05 17.454 0 17.4611V17.5199H0.000357042C0.0432946 21.9897 3.68003 25.5999 8.15997 25.5999C12.6666 25.5999 16.32 21.9465 16.32 17.4399C16.32 12.9332 12.6666 9.27986 8.15997 9.27986C7.76456 9.27986 7.37571 9.30799 6.99532 9.36234Z" fill="url(#paint0_linear_7796_20592)"/>
<path d="M0 3.11987V2.79987H-0.32V3.11987H0ZM6.99532 9.36234L6.67734 9.3982L6.71427 9.72576L7.04059 9.67913L6.99532 9.36234ZM0 17.4186L0.32 17.4194V17.4186H0ZM0 17.4611H0.320001L0.319999 17.4603L0 17.4611ZM0 17.5199H-0.32V17.8399H0V17.5199ZM0.000357042 17.5199L0.320342 17.5168L0.317298 17.1999H0.000357042V17.5199ZM0 3.43987C3.45374 3.43987 6.29932 6.04561 6.67734 9.3982L7.31331 9.32649C6.89921 5.6539 3.78312 2.79987 0 2.79987V3.43987ZM0.32 17.4186V3.11987H-0.32V17.4186H0.32ZM0.319973 17.4399C0.319973 17.433 0.319982 17.4262 0.319999 17.4194L-0.319999 17.4178C-0.320018 17.4251 -0.320027 17.4325 -0.320027 17.4399H0.319973ZM0.319999 17.4603C0.319982 17.4535 0.319973 17.4467 0.319973 17.4399H-0.320027C-0.320027 17.4472 -0.320018 17.4546 -0.319999 17.4619L0.319999 17.4603ZM0.32 17.5199V17.4611H-0.32V17.5199H0.32ZM0.000357042 17.1999H0V17.8399H0.000357042V17.1999ZM8.15997 25.2799C3.85573 25.2799 0.361595 21.8112 0.320342 17.5168L-0.319628 17.5229C-0.275006 22.1681 3.50433 25.9199 8.15997 25.9199V25.2799ZM16 17.4399C16 21.7698 12.4899 25.2799 8.15997 25.2799V25.9199C12.8433 25.9199 16.64 22.1232 16.64 17.4399H16ZM8.15997 9.59986C12.4899 9.59986 16 13.1099 16 17.4399H16.64C16.64 12.7565 12.8433 8.95986 8.15997 8.95986V9.59986ZM7.04059 9.67913C7.40603 9.6269 7.77975 9.59986 8.15997 9.59986V8.95986C7.74936 8.95986 7.34539 8.98907 6.95005 9.04556L7.04059 9.67913Z" fill="url(#paint1_linear_7796_20592)" fill-opacity="0.1" mask="url(#path-1-inside-1_7796_20592)"/>
<path d="M29.3869 12.1248C30.5816 12.1248 31.6482 12.432 32.5869 13.0464C33.5256 13.6437 34.268 14.4715 34.8141 15.5296C35.3773 16.5707 35.6589 17.7824 35.6589 19.1648C35.6589 20.5643 35.3773 21.7931 34.8141 22.8512C34.268 23.9093 33.5341 24.7456 32.6125 25.36C31.6909 25.9573 30.6498 26.256 29.4893 26.256C28.8237 26.256 28.1922 26.1536 27.5949 25.9488C27.0146 25.7269 26.4941 25.4453 26.0333 25.104C25.5896 24.7627 25.2312 24.4128 24.9581 24.0544C24.7021 23.696 24.5656 23.3803 24.5485 23.1072L25.2909 22.7744V24.7712C25.2909 25.1808 25.1544 25.5307 24.8813 25.8208C24.6082 26.0939 24.2669 26.2304 23.8573 26.2304C23.4477 26.2304 23.1064 26.0939 22.8333 25.8208C22.5602 25.5477 22.4237 25.1979 22.4237 24.7712V8.5152C22.4237 8.1056 22.5602 7.76427 22.8333 7.4912C23.1064 7.20107 23.4477 7.056 23.8573 7.056C24.2669 7.056 24.6082 7.20107 24.8813 7.4912C25.1544 7.76427 25.2909 8.1056 25.2909 8.5152V15.2992L24.8557 15.0688C24.8898 14.7957 25.0264 14.4971 25.2653 14.1728C25.5213 13.8485 25.8541 13.5328 26.2637 13.2256C26.6904 12.9013 27.1682 12.6368 27.6973 12.432C28.2434 12.2272 28.8066 12.1248 29.3869 12.1248ZM29.0541 14.7616C28.269 14.7616 27.5864 14.9579 27.0061 15.3504C26.4258 15.7259 25.9736 16.2464 25.6493 16.912C25.325 17.5776 25.1629 18.3285 25.1629 19.1648C25.1629 20.0011 25.325 20.7605 25.6493 21.4432C25.9736 22.1259 26.4258 22.6635 27.0061 23.056C27.5864 23.4315 28.269 23.6192 29.0541 23.6192C29.8221 23.6192 30.4877 23.4229 31.0509 23.0304C31.6312 22.6379 32.0834 22.1088 32.4077 21.4432C32.732 20.7605 32.8941 20.0011 32.8941 19.1648C32.8941 18.3285 32.732 17.5776 32.4077 16.912C32.0834 16.2464 31.6312 15.7259 31.0509 15.3504C30.4877 14.9579 29.8221 14.7616 29.0541 14.7616ZM44.2861 26.256C42.8525 26.256 41.6066 25.9573 40.5485 25.36C39.4904 24.7627 38.6712 23.9435 38.0909 22.9024C37.5277 21.8613 37.2461 20.6837 37.2461 19.3696C37.2461 17.8507 37.5533 16.5536 38.1677 15.4784C38.7821 14.3861 39.5842 13.5584 40.5741 12.9952C41.581 12.4149 42.6392 12.1248 43.7485 12.1248C44.6018 12.1248 45.4125 12.2955 46.1805 12.6368C46.9485 12.9781 47.6312 13.456 48.2285 14.0704C48.8258 14.6848 49.2952 15.4016 49.6365 16.2208C49.9778 17.0229 50.157 17.8848 50.1741 18.8064C50.157 19.1989 50.0034 19.5147 49.7133 19.7536C49.4232 19.9925 49.0904 20.112 48.7149 20.112H38.8589L38.1421 17.7056H47.6397L47.1021 18.192V17.5264C47.068 16.9973 46.8802 16.528 46.5389 16.1184C46.2146 15.6917 45.805 15.3589 45.3101 15.12C44.8152 14.8811 44.2946 14.7616 43.7485 14.7616C43.2365 14.7616 42.7501 14.8384 42.2893 14.992C41.8456 15.1285 41.453 15.3675 41.1117 15.7088C40.7704 16.0501 40.4973 16.5024 40.2925 17.0656C40.1048 17.6288 40.0109 18.3285 40.0109 19.1648C40.0109 20.1035 40.1986 20.9056 40.5741 21.5712C40.9666 22.2368 41.4786 22.7488 42.1101 23.1072C42.7416 23.4485 43.4242 23.6192 44.1581 23.6192C44.7725 23.6192 45.276 23.568 45.6685 23.4656C46.061 23.3461 46.3768 23.2096 46.6157 23.056C46.8717 22.8853 47.0936 22.7317 47.2813 22.5952C47.5714 22.4416 47.853 22.3648 48.1261 22.3648C48.4674 22.3648 48.749 22.4843 48.9709 22.7232C49.2098 22.9621 49.3293 23.2437 49.3293 23.568C49.3293 23.9947 49.116 24.3872 48.6893 24.7456C48.2285 25.1381 47.597 25.488 46.7949 25.7952C45.9928 26.1024 45.1565 26.256 44.2861 26.256ZM52.4503 12.6112H58.4919C58.8844 12.6112 59.2087 12.7392 59.4647 12.9952C59.7207 13.2512 59.8487 13.5755 59.8487 13.968C59.8487 14.3264 59.7207 14.6336 59.4647 14.8896C59.2087 15.1285 58.8844 15.248 58.4919 15.248H52.4503C52.0578 15.248 51.7335 15.12 51.4775 14.864C51.2215 14.608 51.0935 14.2923 51.0935 13.9168C51.0935 13.5413 51.2215 13.2341 51.4775 12.9952C51.7335 12.7392 52.0578 12.6112 52.4503 12.6112ZM55.1639 9.36C55.5906 9.36 55.9319 9.50507 56.1879 9.7952C56.4439 10.0683 56.5719 10.4096 56.5719 10.8192V22.3904C56.5719 22.6635 56.6231 22.8853 56.7255 23.056C56.8279 23.2267 56.9644 23.3461 57.1351 23.4144C57.3058 23.4827 57.485 23.5168 57.6727 23.5168C57.8604 23.5168 58.0311 23.4827 58.1847 23.4144C58.3554 23.3291 58.5516 23.2864 58.7735 23.2864C58.9954 23.2864 59.2002 23.3973 59.3879 23.6192C59.5756 23.824 59.6695 24.1056 59.6695 24.464C59.6695 24.9077 59.422 25.2747 58.9271 25.5648C58.4322 25.8549 57.9031 26 57.3399 26C57.0156 26 56.6402 25.9744 56.2135 25.9232C55.8039 25.872 55.4114 25.7355 55.0359 25.5136C54.6604 25.2917 54.3447 24.9504 54.0887 24.4896C53.8327 24.0117 53.7047 23.3547 53.7047 22.5184V10.8192C53.7047 10.4096 53.8412 10.0683 54.1143 9.7952C54.4044 9.50507 54.7543 9.36 55.1639 9.36ZM62.1883 12.6112H68.2299C68.6224 12.6112 68.9467 12.7392 69.2027 12.9952C69.4587 13.2512 69.5867 13.5755 69.5867 13.968C69.5867 14.3264 69.4587 14.6336 69.2027 14.8896C68.9467 15.1285 68.6224 15.248 68.2299 15.248H62.1883C61.7958 15.248 61.4715 15.12 61.2155 14.864C60.9595 14.608 60.8315 14.2923 60.8315 13.9168C60.8315 13.5413 60.9595 13.2341 61.2155 12.9952C61.4715 12.7392 61.7958 12.6112 62.1883 12.6112ZM64.9019 9.36C65.3286 9.36 65.6699 9.50507 65.9259 9.7952C66.1819 10.0683 66.3099 10.4096 66.3099 10.8192V22.3904C66.3099 22.6635 66.3611 22.8853 66.4635 23.056C66.5659 23.2267 66.7024 23.3461 66.8731 23.4144C67.0438 23.4827 67.223 23.5168 67.4107 23.5168C67.5984 23.5168 67.7691 23.4827 67.9227 23.4144C68.0934 23.3291 68.2896 23.2864 68.5115 23.2864C68.7334 23.2864 68.9382 23.3973 69.1259 23.6192C69.3136 23.824 69.4075 24.1056 69.4075 24.464C69.4075 24.9077 69.16 25.2747 68.6651 25.5648C68.1702 25.8549 67.6411 26 67.0779 26C66.7536 26 66.3782 25.9744 65.9515 25.9232C65.5419 25.872 65.1494 25.7355 64.7739 25.5136C64.3984 25.2917 64.0827 24.9504 63.8267 24.4896C63.5707 24.0117 63.4427 23.3547 63.4427 22.5184V10.8192C63.4427 10.4096 63.5792 10.0683 63.8523 9.7952C64.1424 9.50507 64.4923 9.36 64.9019 9.36ZM82.0127 12.3552C82.4223 12.3552 82.7636 12.5003 83.0367 12.7904C83.3098 13.0635 83.4463 13.4048 83.4463 13.8144V24.7456C83.4463 26.2987 83.1476 27.536 82.5503 28.4576C81.97 29.3963 81.185 30.0704 80.1951 30.48C79.2223 30.9067 78.13 31.12 76.9183 31.12C76.338 31.12 75.7407 31.0688 75.1263 30.9664C74.5119 30.8811 74.0084 30.7445 73.6159 30.5568C73.1551 30.352 72.8308 30.0875 72.6431 29.7632C72.4554 29.456 72.4212 29.1317 72.5407 28.7904C72.6772 28.3296 72.9076 28.0139 73.2319 27.8432C73.5562 27.6725 73.889 27.6555 74.2303 27.792C74.5204 27.8944 74.8874 28.0309 75.3311 28.2016C75.7919 28.3893 76.321 28.4832 76.9183 28.4832C77.7204 28.4832 78.3946 28.3637 78.9407 28.1248C79.4868 27.8859 79.8964 27.5019 80.1695 26.9728C80.4596 26.4437 80.6047 25.7355 80.6047 24.848V23.1072L81.0911 23.7216C80.801 24.2848 80.434 24.7541 79.9903 25.1296C79.5466 25.488 79.026 25.7696 78.4287 25.9744C77.8314 26.1621 77.1572 26.256 76.4063 26.256C75.4847 26.256 74.6826 26.0512 73.9999 25.6416C73.3343 25.2149 72.8138 24.6347 72.4383 23.9008C72.0799 23.1499 71.9007 22.2965 71.9007 21.3408V13.8144C71.9007 13.4048 72.0372 13.0635 72.3103 12.7904C72.5834 12.5003 72.9247 12.3552 73.3343 12.3552C73.7439 12.3552 74.0852 12.5003 74.3583 12.7904C74.6314 13.0635 74.7679 13.4048 74.7679 13.8144V20.496C74.7679 21.6224 75.0154 22.4245 75.5103 22.9024C76.0052 23.3803 76.705 23.6192 77.6095 23.6192C78.2239 23.6192 78.7444 23.4997 79.1711 23.2608C79.6148 23.0048 79.9562 22.6464 80.1951 22.1856C80.4511 21.7077 80.5791 21.1445 80.5791 20.496V13.8144C80.5791 13.4048 80.7071 13.0635 80.9631 12.7904C81.2362 12.5003 81.586 12.3552 82.0127 12.3552Z" fill="url(#paint2_linear_7796_20592)"/>
<defs>
<linearGradient id="paint0_linear_7796_20592" x1="6.85191" y1="-10.7947" x2="45.5322" y2="17.5833" gradientUnits="userSpaceOnUse">
<stop stop-color="#005B41"/>
<stop offset="1" stop-color="#008170"/>
<stop offset="1" stop-color="#008170"/>
</linearGradient>
<linearGradient id="paint1_linear_7796_20592" x1="8.16" y1="-3.04013" x2="8.16" y2="25.5999" gradientUnits="userSpaceOnUse">
<stop stop-color="white"/>
<stop offset="1" stop-color="white" stop-opacity="0"/>
</linearGradient>
<linearGradient id="paint2_linear_7796_20592" x1="47.9986" y1="-19.8072" x2="93.4519" y2="73.4959" gradientUnits="userSpaceOnUse">
<stop stop-color="#005B41"/>
<stop offset="1" stop-color="#008170"/>
<stop offset="1" stop-color="#008170"/>
</linearGradient>
</defs>
</svg>
