<svg width="369" height="130" viewBox="0 0 369 130" fill="none" xmlns="http://www.w3.org/2000/svg">
<path d="M131.968 46.2961C137.195 46.2961 141.861 47.6401 145.968 50.3281C150.075 52.9414 153.323 56.5628 155.712 61.1921C158.176 65.7468 159.408 71.0481 159.408 77.0961C159.408 83.2188 158.176 88.5948 155.712 93.2241C153.323 97.8535 150.112 101.512 146.08 104.2C142.048 106.813 137.493 108.12 132.416 108.12C129.504 108.12 126.741 107.672 124.128 106.776C121.589 105.805 119.312 104.573 117.296 103.08C115.355 101.587 113.787 100.056 112.592 98.4881C111.472 96.9201 110.875 95.5388 110.8 94.3441L114.048 92.8881V101.624C114.048 103.416 113.451 104.947 112.256 106.216C111.061 107.411 109.568 108.008 107.776 108.008C105.984 108.008 104.491 107.411 103.296 106.216C102.101 105.021 101.504 103.491 101.504 101.624V30.5041C101.504 28.7121 102.101 27.2188 103.296 26.0241C104.491 24.7548 105.984 24.1201 107.776 24.1201C109.568 24.1201 111.061 24.7548 112.256 26.0241C113.451 27.2188 114.048 28.7121 114.048 30.5041V60.1841L112.144 59.1761C112.293 57.9814 112.891 56.6748 113.936 55.2561C115.056 53.8374 116.512 52.4561 118.304 51.1121C120.171 49.6935 122.261 48.5361 124.576 47.6401C126.965 46.7441 129.429 46.2961 131.968 46.2961ZM130.512 57.8321C127.077 57.8321 124.091 58.6908 121.552 60.4081C119.013 62.0508 117.035 64.3281 115.616 67.2401C114.197 70.1521 113.488 73.4375 113.488 77.0961C113.488 80.7548 114.197 84.0774 115.616 87.0641C117.035 90.0508 119.013 92.4028 121.552 94.1201C124.091 95.7628 127.077 96.5841 130.512 96.5841C133.872 96.5841 136.784 95.7254 139.248 94.0081C141.787 92.2908 143.765 89.9761 145.184 87.0641C146.603 84.0774 147.312 80.7548 147.312 77.0961C147.312 73.4375 146.603 70.1521 145.184 67.2401C143.765 64.3281 141.787 62.0508 139.248 60.4081C136.784 58.6908 133.872 57.8321 130.512 57.8321Z" fill="white"/>
<path d="M197.152 108.12C190.88 108.12 185.429 106.813 180.8 104.2C176.171 101.587 172.587 98.0028 170.048 93.4481C167.584 88.8935 166.352 83.7415 166.352 77.9921C166.352 71.3468 167.696 65.6721 170.384 60.9681C173.072 56.1894 176.581 52.5681 180.912 50.1041C185.317 47.5654 189.947 46.2961 194.8 46.2961C198.533 46.2961 202.08 47.0428 205.44 48.5361C208.8 50.0294 211.787 52.1201 214.4 54.8081C217.013 57.4961 219.067 60.6321 220.56 64.2161C222.053 67.7254 222.837 71.4961 222.912 75.5281C222.837 77.2454 222.165 78.6268 220.896 79.6721C219.627 80.7174 218.171 81.2401 216.528 81.2401H173.408L170.272 70.7121H211.824L209.472 72.8401V69.9281C209.323 67.6134 208.501 65.5601 207.008 63.7681C205.589 61.9014 203.797 60.4454 201.632 59.4001C199.467 58.3548 197.189 57.8321 194.8 57.8321C192.56 57.8321 190.432 58.1681 188.416 58.8401C186.475 59.4375 184.757 60.4828 183.264 61.9761C181.771 63.4694 180.576 65.4481 179.68 67.9121C178.859 70.3761 178.448 73.4375 178.448 77.0961C178.448 81.2028 179.269 84.7121 180.912 87.6241C182.629 90.5361 184.869 92.7761 187.632 94.3441C190.395 95.8374 193.381 96.5841 196.592 96.5841C199.28 96.5841 201.483 96.3601 203.2 95.9121C204.917 95.3895 206.299 94.7921 207.344 94.1201C208.464 93.3735 209.435 92.7015 210.256 92.1041C211.525 91.4321 212.757 91.0961 213.952 91.0961C215.445 91.0961 216.677 91.6188 217.648 92.6641C218.693 93.7094 219.216 94.9415 219.216 96.3601C219.216 98.2268 218.283 99.9441 216.416 101.512C214.4 103.229 211.637 104.76 208.128 106.104C204.619 107.448 200.96 108.12 197.152 108.12Z" fill="white"/>
<path d="M232.87 48.4241H259.302C261.02 48.4241 262.438 48.9841 263.558 50.1041C264.678 51.2241 265.238 52.6428 265.238 54.3601C265.238 55.9281 264.678 57.2721 263.558 58.3921C262.438 59.4375 261.02 59.9601 259.302 59.9601H232.87C231.153 59.9601 229.734 59.4001 228.614 58.2801C227.494 57.1601 226.934 55.7788 226.934 54.1361C226.934 52.4934 227.494 51.1495 228.614 50.1041C229.734 48.9841 231.153 48.4241 232.87 48.4241ZM244.742 34.2001C246.609 34.2001 248.102 34.8348 249.222 36.1041C250.342 37.2988 250.902 38.7921 250.902 40.5841V91.2081C250.902 92.4028 251.126 93.3735 251.574 94.1201C252.022 94.8668 252.62 95.3895 253.366 95.6881C254.113 95.9868 254.897 96.1361 255.718 96.1361C256.54 96.1361 257.286 95.9868 257.958 95.6881C258.705 95.3148 259.564 95.1281 260.534 95.1281C261.505 95.1281 262.401 95.6135 263.222 96.5841C264.044 97.4801 264.454 98.7121 264.454 100.28C264.454 102.221 263.372 103.827 261.206 105.096C259.041 106.365 256.726 107 254.262 107C252.844 107 251.201 106.888 249.334 106.664C247.542 106.44 245.825 105.843 244.182 104.872C242.54 103.901 241.158 102.408 240.038 100.392C238.918 98.3015 238.358 95.4268 238.358 91.7681V40.5841C238.358 38.7921 238.956 37.2988 240.15 36.1041C241.42 34.8348 242.95 34.2001 244.742 34.2001Z" fill="white"/>
<path d="M275.474 48.4241H301.906C303.623 48.4241 305.042 48.9841 306.162 50.1041C307.282 51.2241 307.842 52.6428 307.842 54.3601C307.842 55.9281 307.282 57.2721 306.162 58.3921C305.042 59.4375 303.623 59.9601 301.906 59.9601H275.474C273.757 59.9601 272.338 59.4001 271.218 58.2801C270.098 57.1601 269.538 55.7788 269.538 54.1361C269.538 52.4934 270.098 51.1495 271.218 50.1041C272.338 48.9841 273.757 48.4241 275.474 48.4241ZM287.346 34.2001C289.213 34.2001 290.706 34.8348 291.826 36.1041C292.946 37.2988 293.506 38.7921 293.506 40.5841V91.2081C293.506 92.4028 293.73 93.3735 294.178 94.1201C294.626 94.8668 295.223 95.3895 295.97 95.6881C296.717 95.9868 297.501 96.1361 298.322 96.1361C299.143 96.1361 299.89 95.9868 300.562 95.6881C301.309 95.3148 302.167 95.1281 303.138 95.1281C304.109 95.1281 305.005 95.6135 305.826 96.5841C306.647 97.4801 307.058 98.7121 307.058 100.28C307.058 102.221 305.975 103.827 303.81 105.096C301.645 106.365 299.33 107 296.866 107C295.447 107 293.805 106.888 291.938 106.664C290.146 106.44 288.429 105.843 286.786 104.872C285.143 103.901 283.762 102.408 282.642 100.392C281.522 98.3015 280.962 95.4268 280.962 91.7681V40.5841C280.962 38.7921 281.559 37.2988 282.754 36.1041C284.023 34.8348 285.554 34.2001 287.346 34.2001Z" fill="white"/>
<path d="M362.206 47.3041C363.998 47.3041 365.491 47.9388 366.686 49.2081C367.88 50.4028 368.478 51.8961 368.478 53.6881V101.512C368.478 108.307 367.171 113.72 364.558 117.752C362.019 121.859 358.584 124.808 354.254 126.6C349.998 128.467 345.219 129.4 339.918 129.4C337.379 129.4 334.766 129.176 332.078 128.728C329.39 128.355 327.187 127.757 325.47 126.936C323.454 126.04 322.035 124.883 321.214 123.464C320.392 122.12 320.243 120.701 320.766 119.208C321.363 117.192 322.371 115.811 323.79 115.064C325.208 114.317 326.664 114.243 328.158 114.84C329.427 115.288 331.032 115.885 332.974 116.632C334.99 117.453 337.304 117.864 339.918 117.864C343.427 117.864 346.376 117.341 348.766 116.296C351.155 115.251 352.947 113.571 354.142 111.256C355.411 108.941 356.046 105.843 356.046 101.96V94.3441L358.174 97.0321C356.904 99.4961 355.299 101.549 353.358 103.192C351.416 104.76 349.139 105.992 346.526 106.888C343.912 107.709 340.963 108.12 337.678 108.12C333.646 108.12 330.136 107.224 327.15 105.432C324.238 103.565 321.96 101.027 320.318 97.8161C318.75 94.5308 317.966 90.7974 317.966 86.6161V53.6881C317.966 51.8961 318.563 50.4028 319.758 49.2081C320.952 47.9388 322.446 47.3041 324.238 47.3041C326.03 47.3041 327.523 47.9388 328.718 49.2081C329.912 50.4028 330.51 51.8961 330.51 53.6881V82.9201C330.51 87.8481 331.592 91.3575 333.758 93.4481C335.923 95.5388 338.984 96.5841 342.942 96.5841C345.63 96.5841 347.907 96.0615 349.774 95.0161C351.715 93.8961 353.208 92.3281 354.254 90.3121C355.374 88.2215 355.934 85.7575 355.934 82.9201V53.6881C355.934 51.8961 356.494 50.4028 357.614 49.2081C358.808 47.9388 360.339 47.3041 362.206 47.3041Z" fill="white"/>
<mask id="path-2-inside-1_21_8697" fill="white">
<path fill-rule="evenodd" clip-rule="evenodd" d="M30 30C30 13.4315 16.5685 0 0 0V65C0 84.33 15.67 100 35 100C54.33 100 70 84.33 70 65C70 45.67 54.33 30 35 30C33.3024 30 31.633 30.1209 30 30.3544V30Z"/>
</mask>
<path fill-rule="evenodd" clip-rule="evenodd" d="M30 30C30 13.4315 16.5685 0 0 0V65C0 84.33 15.67 100 35 100C54.33 100 70 84.33 70 65C70 45.67 54.33 30 35 30C33.3024 30 31.633 30.1209 30 30.3544V30Z" fill="white"/>
<path d="M0 0V-1.4H-1.4V0H0ZM30 30.3544H28.6V31.9689L30.1982 31.7403L30 30.3544ZM0 1.4C15.7953 1.4 28.6 14.2047 28.6 30H31.4C31.4 12.6583 17.3417 -1.4 0 -1.4V1.4ZM1.4 65V0H-1.4V65H1.4ZM35 98.6C16.4432 98.6 1.4 83.5568 1.4 65H-1.4C-1.4 85.1032 14.8968 101.4 35 101.4V98.6ZM68.6 65C68.6 83.5568 53.5568 98.6 35 98.6V101.4C55.1032 101.4 71.4 85.1032 71.4 65H68.6ZM35 31.4C53.5568 31.4 68.6 46.4432 68.6 65H71.4C71.4 44.8968 55.1032 28.6 35 28.6V31.4ZM30.1982 31.7403C31.7658 31.5161 33.3689 31.4 35 31.4V28.6C33.2359 28.6 31.5002 28.7256 29.8018 28.9685L30.1982 31.7403ZM28.6 30V30.3544H31.4V30H28.6Z" fill="url(#paint0_linear_21_8697)" fill-opacity="0.1" mask="url(#path-2-inside-1_21_8697)"/>
<defs>
<linearGradient id="paint0_linear_21_8697" x1="35" y1="-28.1173" x2="35" y2="102.61" gradientUnits="userSpaceOnUse">
<stop stop-color="white"/>
<stop offset="1" stop-color="white" stop-opacity="0"/>
</linearGradient>
</defs>
</svg>
