<svg width="16" height="16" viewBox="0 0 16 16" fill="none" xmlns="http://www.w3.org/2000/svg">
<g clip-path="url(#clip0_11421_167879)">
<path d="M12 2.40039H5.6C4.8646 2.40039 4.1364 2.54524 3.45697 2.82667C2.77755 3.10809 2.16021 3.52058 1.6402 4.04059C1.12019 4.5606 0.707701 5.17794 0.426275 5.85736C0.144848 6.53679 0 7.26499 0 8.00039C0 8.73579 0.144848 9.464 0.426275 10.1434C0.707701 10.8228 1.12019 11.4402 1.6402 11.9602C2.16021 12.4802 2.77755 12.8927 3.45697 13.1741C4.1364 13.4555 4.8646 13.6004 5.6 13.6004H12V12.0004H5.6C4.53913 12.0004 3.52172 11.579 2.77157 10.8288C2.02143 10.0787 1.6 9.06126 1.6 8.00039C1.6 6.93953 2.02143 5.92211 2.77157 5.17196C3.52172 4.42182 4.53913 4.00039 5.6 4.00039H12C12.6365 4.00039 13.247 4.25325 13.6971 4.70333C14.1471 5.15342 14.4 5.76387 14.4 6.40039C14.4 7.03691 14.1471 7.64736 13.6971 8.09745C13.247 8.54754 12.6365 8.80039 12 8.80039H5.6C5.38783 8.80039 5.18434 8.71611 5.03431 8.56608C4.88429 8.41605 4.8 8.21256 4.8 8.00039C4.8 7.78822 4.88429 7.58473 5.03431 7.43471C5.18434 7.28468 5.38783 7.20039 5.6 7.20039H12V5.60039H5.6C4.96348 5.60039 4.35303 5.85325 3.90294 6.30333C3.45286 6.75342 3.2 7.36387 3.2 8.00039C3.2 8.63691 3.45286 9.24736 3.90294 9.69745C4.35303 10.1475 4.96348 10.4004 5.6 10.4004H12C13.0609 10.4004 14.0783 9.97896 14.8284 9.22882C15.5786 8.47867 16 7.46126 16 6.40039C16 5.33952 15.5786 4.32211 14.8284 3.57196C14.0783 2.82182 13.0609 2.40039 12 2.40039Z" fill="#110D17"/>
</g>
<defs>
<clipPath id="clip0_11421_167879">
<rect width="16" height="16" fill="white"/>
</clipPath>
</defs>
</svg>
