<svg width="20" height="20" viewBox="0 0 20 20" fill="none" xmlns="http://www.w3.org/2000/svg">
<path opacity="0.4" d="M17.5 5.83073V14.1641C17.5 16.6641 16.25 18.3307 13.3333 18.3307H6.66667C3.75 18.3307 2.5 16.6641 2.5 14.1641V5.83073C2.5 3.33073 3.75 1.66406 6.66667 1.66406H13.3333C16.25 1.66406 17.5 3.33073 17.5 5.83073Z" fill="#777777"/>
<path d="M12.9193 1.66406V8.21405C12.9193 8.58072 12.4859 8.76407 12.2192 8.5224L10.286 6.73906C10.1276 6.58906 9.87758 6.58906 9.71925 6.73906L7.78596 8.5224C7.51929 8.7724 7.08594 8.58072 7.08594 8.21405V1.66406H12.9193Z" fill="#777777"/>
<path d="M14.5807 12.2891H11.0391C10.6974 12.2891 10.4141 12.0057 10.4141 11.6641C10.4141 11.3224 10.6974 11.0391 11.0391 11.0391H14.5807C14.9224 11.0391 15.2057 11.3224 15.2057 11.6641C15.2057 12.0057 14.9224 12.2891 14.5807 12.2891Z" fill="#777777"/>
<path d="M14.5833 15.625H7.5C7.15833 15.625 6.875 15.3417 6.875 15C6.875 14.6583 7.15833 14.375 7.5 14.375H14.5833C14.925 14.375 15.2083 14.6583 15.2083 15C15.2083 15.3417 14.925 15.625 14.5833 15.625Z" fill="#777777"/>
</svg>
