<svg width="16" height="16" viewBox="0 0 16 16" fill="none" xmlns="http://www.w3.org/2000/svg">
<path opacity="0.4" d="M10.7932 1.33325H5.21318C2.78651 1.33325 1.33984 2.77992 1.33984 5.20658V10.7866C1.33984 13.2133 2.78651 14.6599 5.21318 14.6599H10.7932C13.2198 14.6599 14.6665 13.2133 14.6665 10.7866V5.20658C14.6665 2.77992 13.2198 1.33325 10.7932 1.33325Z" fill="#5856D6"/>
<path d="M12.6654 9.99992H12.4987V9.66659V9.33325V7.33325V5.16659C12.4987 4.15325 11.6787 3.33325 10.6654 3.33325H5.33203C4.3187 3.33325 3.4987 4.15325 3.4987 5.16659V7.33325V9.33325V9.66659V9.99992H3.33203C3.0587 9.99992 2.83203 10.2266 2.83203 10.4999C2.83203 10.7733 3.0587 10.9999 3.33203 10.9999H3.9987H5.89205C6.11872 11.9533 6.9787 12.6666 7.9987 12.6666C9.0187 12.6666 9.87868 11.9533 10.1053 10.9999H11.9987H12.6654C12.9387 10.9999 13.1654 10.7733 13.1654 10.4999C13.1654 10.2266 12.9387 9.99992 12.6654 9.99992ZM11.192 7.91992C11.152 7.90658 11.112 7.89325 11.0653 7.87992C10.932 7.85325 10.7987 7.83325 10.6587 7.83325H5.32536C5.18536 7.83325 5.05203 7.85325 4.9187 7.87992C4.8787 7.88659 4.8387 7.90658 4.79203 7.91992C4.70537 7.94658 4.6187 7.97325 4.5387 8.01325C4.5187 8.01992 4.49869 8.02659 4.48535 8.03325V7.33325C4.48535 6.87325 4.85869 6.49992 5.31869 6.49992H10.652C11.112 6.49992 11.4854 6.87325 11.4854 7.33325V8.03325C11.4654 8.02659 11.452 8.01992 11.432 8.01325C11.3654 7.97325 11.2787 7.94658 11.192 7.91992ZM5.33203 4.33325H10.6654C11.1254 4.33325 11.4987 4.70659 11.4987 5.16659V5.70658C11.2454 5.57992 10.9654 5.49992 10.6654 5.49992H5.33203C5.03203 5.49992 4.75203 5.57992 4.4987 5.70658V5.16659C4.4987 4.70659 4.87203 4.33325 5.33203 4.33325ZM9.66536 9.99992C9.39203 9.99992 9.16536 10.2266 9.16536 10.4999C9.16536 11.1399 8.6387 11.6666 7.9987 11.6666C7.3587 11.6666 6.83203 11.1399 6.83203 10.4999C6.83203 10.2266 6.60536 9.99992 6.33203 9.99992H4.4987V9.66659C4.4987 9.20659 4.87203 8.83325 5.33203 8.83325H10.6654C11.1254 8.83325 11.4987 9.20659 11.4987 9.66659V9.99992H9.66536Z" fill="#5856D6"/>
</svg>
