<svg width="15" height="14" viewBox="0 0 15 14" fill="none" xmlns="http://www.w3.org/2000/svg">
<path d="M6.90355 3.61083L4.7394 1.44666C4.69857 1.40582 4.64606 1.37083 4.58773 1.3475C4.5819 1.3475 4.57605 1.34749 4.57021 1.34166C4.52355 1.32416 4.47104 1.3125 4.41854 1.3125C4.30188 1.3125 4.19106 1.35915 4.10939 1.44082L1.93937 3.61083C1.77021 3.78 1.77021 4.06 1.93937 4.22917C2.10854 4.39833 2.38858 4.39833 2.55774 4.22917L3.98688 2.79999V12.25C3.98688 12.4892 4.18521 12.6875 4.42438 12.6875C4.66355 12.6875 4.86188 12.4892 4.86188 12.25V2.80583L6.28522 4.22917C6.37272 4.31667 6.48357 4.35748 6.5944 4.35748C6.70523 4.35748 6.81605 4.31667 6.90355 4.22917C7.07271 4.06 7.07271 3.78583 6.90355 3.61083Z" fill="#FF3B2F"/>
<path d="M13.0598 9.77083C12.8906 9.60167 12.6106 9.60167 12.4414 9.77083L11.0123 11.2V1.75C11.0123 1.51083 10.814 1.3125 10.5748 1.3125C10.3356 1.3125 10.1373 1.51083 10.1373 1.75V11.1942L8.71396 9.77083C8.54479 9.60167 8.26479 9.60167 8.09562 9.77083C7.92646 9.94 7.92646 10.22 8.09562 10.3892L10.2598 12.5533C10.3006 12.5942 10.3531 12.6292 10.4114 12.6525C10.4173 12.6525 10.4231 12.6525 10.429 12.6583C10.4756 12.6758 10.5281 12.6875 10.5806 12.6875C10.6973 12.6875 10.8081 12.6409 10.8898 12.5592L13.0598 10.3892C13.229 10.2142 13.229 9.94 13.0598 9.77083Z" fill="#FF3B2F"/>
</svg>
