<svg width="17" height="17" viewBox="0 0 17 17" fill="none" xmlns="http://www.w3.org/2000/svg">
<path d="M14.6666 8.49992C14.6666 11.9057 11.9057 14.6666 8.49992 14.6666C5.09416 14.6666 2.33325 11.9057 2.33325 8.49992C2.33325 5.09416 5.09416 2.33325 8.49992 2.33325C11.9057 2.33325 14.6666 5.09416 14.6666 8.49992Z" stroke="white"/>
<mask id="path-2-inside-1_8253_32551" fill="white">
<path d="M7.65995 11.3534C7.53329 11.3534 7.40662 11.3068 7.30662 11.2068C7.11329 11.0134 7.11329 10.6934 7.30662 10.5001L9.30662 8.5001L7.30662 6.5001C7.11329 6.30677 7.11329 5.98677 7.30662 5.79344C7.49995 5.6001 7.81995 5.6001 8.01329 5.79344L10.3666 8.14677C10.56 8.3401 10.56 8.6601 10.3666 8.85344L8.01329 11.2068C7.91329 11.3068 7.78662 11.3534 7.65995 11.3534Z"/>
</mask>
<path d="M7.30662 10.5001L8.01373 11.2072L7.30662 10.5001ZM9.30662 8.5001L10.0137 9.20721L10.7208 8.5001L10.0137 7.793L9.30662 8.5001ZM7.30662 6.5001L8.01373 5.793L8.01373 5.793L7.30662 6.5001ZM8.01329 5.79344L8.72039 5.08633L8.72039 5.08633L8.01329 5.79344ZM10.3666 8.14677L9.65951 8.85388L9.65951 8.85388L10.3666 8.14677ZM10.3666 8.85344L11.0737 9.56054L11.0737 9.56054L10.3666 8.85344ZM8.01329 11.2068L7.30618 10.4997L7.30618 10.4997L8.01329 11.2068ZM7.65995 10.3534C7.7842 10.3534 7.91631 10.4022 8.01373 10.4997L6.59951 11.9139C6.89693 12.2113 7.28238 12.3534 7.65995 12.3534V10.3534ZM8.01373 10.4997C8.21092 10.6969 8.21092 11.01 8.01373 11.2072L6.59951 9.793C6.01566 10.3769 6.01566 11.33 6.59951 11.9139L8.01373 10.4997ZM8.01373 11.2072L10.0137 9.20721L8.59951 7.793L6.59951 9.793L8.01373 11.2072ZM10.0137 7.793L8.01373 5.793L6.59951 7.20721L8.59951 9.20721L10.0137 7.793ZM8.01373 5.793C8.21092 5.99019 8.21092 6.30335 8.01373 6.50054L6.59951 5.08633C6.01566 5.67019 6.01566 6.62335 6.59951 7.20721L8.01373 5.793ZM8.01373 6.50054C7.81654 6.69774 7.50337 6.69774 7.30618 6.50054L8.72039 5.08633C8.13654 4.50247 7.18337 4.50247 6.59951 5.08633L8.01373 6.50054ZM7.30618 6.50054L9.65951 8.85388L11.0737 7.43966L8.72039 5.08633L7.30618 6.50054ZM9.65951 8.85388C9.46232 8.65669 9.46232 8.34352 9.65951 8.14633L11.0737 9.56054C11.6576 8.97669 11.6576 8.02352 11.0737 7.43966L9.65951 8.85388ZM9.65952 8.14633L7.30618 10.4997L8.72039 11.9139L11.0737 9.56054L9.65952 8.14633ZM7.30618 10.4997C7.4036 10.4022 7.53571 10.3534 7.65995 10.3534V12.3534C8.03753 12.3534 8.42298 12.2113 8.72039 11.9139L7.30618 10.4997Z" fill="white" mask="url(#path-2-inside-1_8253_32551)"/>
</svg>
