<svg width="108" height="100" viewBox="0 0 108 100" fill="none" xmlns="http://www.w3.org/2000/svg">
<g id="empty/amico">
<g id="Floor">
<path id="floor" d="M53.9978 99.9979C83.3378 99.9979 107.123 86.2653 107.123 69.3251C107.123 52.385 83.3378 38.6523 53.9978 38.6523C24.6578 38.6523 0.873047 52.385 0.873047 69.3251C0.873047 86.2653 24.6578 99.9979 53.9978 99.9979Z" fill="#F5F5F5"/>
</g>
<g id="Shadow">
<path id="shadow" d="M89.0223 84.3683C97.3458 84.3683 104.093 80.4724 104.093 75.6666C104.093 70.8607 97.3458 66.9648 89.0223 66.9648C80.6987 66.9648 73.9512 70.8607 73.9512 75.6666C73.9512 80.4724 80.6987 84.3683 89.0223 84.3683Z" fill="#E0E0E0"/>
<path id="shadow_2" d="M50.8824 80.3608L33.8809 70.5415L53.3141 59.3223L70.3179 69.1394L50.8824 80.3608Z" fill="#E0E0E0"/>
<path id="shadow_3" d="M4.58984 77.3254L26.518 89.9851L44.9104 79.3687L22.9822 66.709L4.58984 77.3254Z" fill="#E0E0E0"/>
</g>
<g id="Shelf">
<g id="shelf">
<g id="shelf_2">
<path id="Vector" d="M37.0228 17.8194V16.5731C37.0134 16.5011 36.9857 16.4327 36.9422 16.3746C36.8986 16.3164 36.8409 16.2705 36.7744 16.2412L29.249 11.9242C29.0697 11.8341 28.8718 11.7871 28.671 11.7871C28.4703 11.7871 28.2724 11.8341 28.093 11.9242L6.46516 24.3423C6.39871 24.3716 6.34095 24.4176 6.29744 24.4757C6.25393 24.5339 6.22616 24.6022 6.2168 24.6742V25.9206C6.22595 25.9927 6.25364 26.0611 6.29717 26.1193C6.3407 26.1775 6.39859 26.2234 6.46516 26.2525L13.9883 30.5627C14.1676 30.6529 14.3656 30.6998 14.5663 30.6998C14.767 30.6998 14.965 30.6529 15.1443 30.5627L36.7722 18.1446C36.8387 18.1155 36.8966 18.0696 36.9402 18.0114C36.9837 17.9532 37.0114 17.8847 37.0205 17.8127L37.0228 17.8194Z" fill="#F0F0F0"/>
<path id="Vector_2" d="M6.46142 24.9994L13.9846 29.3164C14.1636 29.4076 14.3616 29.4551 14.5626 29.4551C14.7635 29.4551 14.9615 29.4076 15.1406 29.3164L36.7684 16.8982C37.0868 16.7154 37.0868 16.4196 36.7684 16.2344L29.2453 11.9242C29.066 11.8341 28.868 11.7871 28.6673 11.7871C28.4666 11.7871 28.2686 11.8341 28.0893 11.9242L6.46142 24.3423C6.14307 24.5207 6.14307 24.8165 6.46142 24.9994Z" fill="#FAFAFA"/>
<path id="Vector_3" d="M14.5663 29.4573V30.7013C14.3652 30.7043 14.1665 30.6569 13.9883 30.5636L6.46516 26.2579C6.39859 26.2288 6.3407 26.1829 6.29717 26.1247C6.25364 26.0665 6.22595 25.9981 6.2168 25.926V24.6774C6.22122 24.6269 6.23746 24.5782 6.26421 24.5352C6.17616 24.6955 6.24163 24.8806 6.46516 25.0093L13.9883 29.3195C14.166 29.4141 14.365 29.4616 14.5663 29.4573Z" fill="#E0E0E0"/>
</g>
<g id="Book">
<path id="Vector_4" d="M18.6094 18.9271L24.9833 22.5599L35.5116 16.5179L29.14 12.8828L18.6094 18.9271Z" fill="#E0E0E0"/>
<path id="Vector_5" d="M25.0511 22.2832L18.903 18.7542C19.0628 18.2329 19.0509 17.6742 18.8691 17.1602L24.9789 20.6508C24.9789 20.6508 25.0963 21.0369 25.0511 22.2832Z" fill="white"/>
<path id="Vector_6" d="M24.6663 20.1612C24.8378 20.272 24.9808 20.4218 25.0836 20.5984C25.1864 20.7749 25.2461 20.9732 25.2578 21.1772V22.3648C25.2578 22.7396 24.9914 22.8909 24.6663 22.7057L18.6152 19.2196V18.9261L24.594 22.3355C24.7904 22.4484 24.9485 22.3558 24.9485 22.1323V21.0304C24.9417 20.9081 24.906 20.789 24.8444 20.6831C24.7828 20.5771 24.697 20.4872 24.594 20.4208L18.6152 17.0002V16.666L24.6663 20.1612Z" fill="#EBEBEB"/>
<path id="Vector_7" d="M18.6152 16.6771L29.1368 10.6328L35.1946 14.1099C35.3666 14.2208 35.5099 14.371 35.6127 14.548C35.7155 14.725 35.7749 14.9238 35.7861 15.1282V16.3226C35.7941 16.3956 35.7822 16.4695 35.7516 16.5363C35.721 16.603 35.6728 16.6603 35.6123 16.7019L25.084 22.7461C25.1434 22.7036 25.1906 22.6461 25.2207 22.5795C25.2508 22.5129 25.2628 22.4396 25.2555 22.3668V21.1769C25.2446 20.9728 25.1852 20.7742 25.0823 20.5976C24.9795 20.4209 24.8361 20.2712 24.664 20.1609L18.6152 16.6771Z" fill="#FAFAFA"/>
<path id="Vector_8" d="M25.0879 20.5928C25.1952 20.767 25.2552 20.9662 25.2617 21.1708V22.3607C25.269 22.4334 25.257 22.5068 25.2269 22.5734C25.1968 22.64 25.1496 22.6974 25.0901 22.74L35.6185 16.6957C35.679 16.6541 35.7272 16.5969 35.7578 16.5301C35.7884 16.4633 35.8003 16.3895 35.7923 16.3164V15.1288C35.7857 14.9243 35.7258 14.725 35.6185 14.5508L25.0879 20.5928Z" fill="#F0F0F0"/>
</g>
<g id="book">
<path id="Vector_9" d="M12.1274 9.88477L12.0664 10.6886L19.1831 14.5066L19.3434 14.0369L12.1274 9.88477Z" fill="#EBEBEB"/>
<path id="Vector_10" d="M19.2464 14.2225L12.3532 10.2441L11.1543 10.935L18.183 15.0466L19.2464 14.2225Z" fill="white"/>
<path id="Vector_11" d="M16.8902 14.6211L16.2129 22.6093C16.2162 22.6995 16.2411 22.7876 16.2855 22.8662C16.3299 22.9447 16.3925 23.0115 16.468 23.0609L20.4667 25.3752C20.5305 25.4105 20.6016 25.4306 20.6744 25.4339L18.1908 15.3165C18.1183 15.3125 18.0475 15.2933 17.983 15.2601L17.6963 15.093L16.8902 14.6211Z" fill="#E0E0E0"/>
<path id="Vector_12" d="M18.4868 15.2502L19.2002 14.6383L19.7218 14.1867C19.776 14.1009 19.8392 14.0377 19.8053 13.9609L22.2573 24.0038C22.2912 24.0738 22.3002 24.2296 22.2032 24.2883L20.9681 25.345C20.8746 25.3945 20.7685 25.4149 20.6633 25.4037L18.1797 15.2863C18.2834 15.3042 18.39 15.2916 18.4868 15.2502Z" fill="#F0F0F0"/>
<path id="Vector_13" d="M19.7249 13.8961C19.8649 13.9774 19.831 14.0677 19.7249 14.1896L18.4876 15.2486C18.4088 15.2897 18.3213 15.3112 18.2325 15.3112C18.1436 15.3112 18.0561 15.2897 17.9773 15.2486L16.889 14.6209C16.7468 14.5396 16.722 14.4222 16.8326 14.359C16.9053 14.3295 16.9838 14.317 17.062 14.3225C17.1403 14.328 17.2163 14.3513 17.2842 14.3906L18.1421 14.8873C18.1684 14.9006 18.1974 14.9075 18.2268 14.9075C18.2562 14.9075 18.2852 14.9006 18.3115 14.8873L19.2146 14.1016C19.262 14.0745 19.262 14.0316 19.2146 14.0045L12.125 9.88393L12.4637 9.6875L19.7249 13.8961Z" fill="#FAFAFA"/>
</g>
<g id="book_2">
<path id="Vector_14" d="M10.0762 10.2715L16.8565 14.1866V27.0879L10.0762 23.1705V10.2715Z" fill="#EBEBEB"/>
<path id="Vector_15" d="M16.635 14.4008L10.0737 10.6348C9.67245 11.0602 9.14691 11.3479 8.57227 11.4566L15.0794 15.2069C15.0794 15.2069 15.4993 15.1076 16.635 14.4008Z" fill="white"/>
<path id="Vector_16" d="M14.4492 15.1957C14.6447 15.2936 14.8604 15.3446 15.0791 15.3446C15.2978 15.3446 15.5135 15.2936 15.7091 15.1957L16.8109 14.5499C17.1586 14.349 17.1586 14.0261 16.8109 13.8252L10.3467 10.1133L10.0735 10.2713L16.4338 13.9448C16.4807 13.9585 16.5219 13.987 16.5512 14.0261C16.5805 14.0652 16.5964 14.1127 16.5964 14.1616C16.5964 14.2104 16.5805 14.258 16.5512 14.2971C16.5219 14.3361 16.4807 14.3647 16.4338 14.3783L15.4065 14.9699C15.2892 15.0289 15.1597 15.0596 15.0283 15.0596C14.897 15.0596 14.7675 15.0289 14.6501 14.9699L8.29205 11.2941L7.98047 11.4725L14.4492 15.1957Z" fill="#FAFAFA"/>
<path id="Vector_17" d="M7.98047 11.4727V24.3717L14.4469 28.0836C14.6425 28.1815 14.8582 28.2325 15.0769 28.2325C15.2956 28.2325 15.5113 28.1815 15.7068 28.0836L16.8131 27.4492C16.8851 27.4174 16.9471 27.3669 16.9928 27.303C17.0385 27.239 17.0661 27.164 17.0728 27.0856V14.1866C17.0658 14.2651 17.0375 14.3403 16.9909 14.4039C16.9444 14.4676 16.8814 14.5173 16.8086 14.5478L15.7068 15.1958C15.5113 15.2938 15.2956 15.3448 15.0769 15.3448C14.8582 15.3448 14.6425 15.2938 14.4469 15.1958L7.98047 11.4727Z" fill="#EBEBEB"/>
<path id="Vector_18" d="M15.0748 15.3325C15.294 15.3368 15.5107 15.2856 15.7048 15.1835L16.8066 14.5468C16.8785 14.5157 16.9406 14.4656 16.9863 14.402C17.032 14.3384 17.0596 14.2636 17.0662 14.1855V27.0846C17.0596 27.1629 17.0319 27.238 16.9862 27.3019C16.9406 27.3659 16.8785 27.4164 16.8066 27.4481L15.7003 28.0826C15.5062 28.1846 15.2895 28.2359 15.0703 28.2316L15.0748 15.3325Z" fill="#F0F0F0"/>
</g>
</g>
</g>
<g id="Plants">
<g id="plants">
<path id="Vector_19" d="M69.5383 62.1583C69.5044 61.587 69.4276 60.9029 69.3351 60.1081C68.9896 57.0917 68.5177 52.9598 69.7686 49.0018C70.5295 46.5927 72.3628 43.7365 75.2258 42.944C75.8625 42.7679 77.4023 42.5083 77.9939 43.8743C78.077 44.0716 78.1266 44.2815 78.1407 44.4952C78.2016 45.3622 77.811 46.1276 77.3775 46.8253C76.8785 47.6358 76.3005 48.4057 75.7406 49.1553C75.2122 49.8643 74.6636 50.5958 74.1849 51.3545C73.6679 52.1788 73.215 53.0415 72.8302 53.9352L72.6473 53.8562C73.0314 52.9535 73.4843 52.0817 74.002 51.2484C74.4829 50.483 75.0339 49.7469 75.5667 49.0357C76.1221 48.2906 76.6956 47.5229 77.1924 46.7214C77.6078 46.044 77.9826 45.3193 77.9262 44.5087C77.9139 44.3175 77.8696 44.1298 77.7952 43.9533C77.2669 42.7318 75.8489 42.9756 75.2642 43.1359C72.478 43.9081 70.6875 46.7033 69.9424 49.0605C68.7051 52.9801 69.1748 57.0872 69.518 60.0856C69.6083 60.8826 69.6873 61.5712 69.7212 62.147L69.5383 62.1583Z" fill="#18CBB5"/>
<path id="Vector_20" d="M69.7425 65.4422C69.7275 65.4443 69.7123 65.4443 69.6973 65.4422C69.654 65.4338 69.6132 65.4153 69.5783 65.3882C69.5434 65.3611 69.5153 65.3263 69.4964 65.2864C69.4569 65.1746 69.4569 65.0527 69.4964 64.9409C69.5282 64.7246 69.5282 64.5048 69.4964 64.2884C69.4964 64.1665 69.476 64.0378 69.476 63.9227V62.5205C69.6564 60.0019 70.3944 57.5548 71.6368 55.3564C72.7386 53.4395 73.9579 52.1638 75.4751 51.3374C76.2931 50.888 77.19 50.6005 78.1168 50.4908C78.935 50.4004 79.7575 50.6177 80.4243 51.1004C81.113 51.6445 81.4223 52.577 81.1626 53.3153C80.9797 53.8324 80.562 54.2184 80.1353 54.5684C79.3744 55.1893 78.5435 55.7448 77.742 56.2821C77.0759 56.7337 76.3873 57.1853 75.7438 57.682C73.7751 59.2015 72.1236 61.0924 70.8827 63.2476C70.6795 63.5975 70.4876 63.9588 70.3114 64.32L70.2392 64.4623C70.1688 64.5913 70.1069 64.7248 70.0541 64.8619C70.0428 64.8913 70.0315 64.9522 70.0157 65.0222C70.0042 65.151 69.9633 65.2754 69.896 65.3857C69.8537 65.4231 69.7989 65.4432 69.7425 65.4422ZM78.4419 50.6781C78.3403 50.6781 78.2387 50.6781 78.1349 50.6917C77.2354 50.7966 76.365 51.0758 75.5722 51.5136C74.0911 52.3196 72.8967 53.5727 71.8129 55.4557C70.5872 57.6268 69.8585 60.0428 69.6792 62.5296V63.9181C69.6792 64.0265 69.6792 64.1439 69.6996 64.2681C69.7359 64.5045 69.7359 64.7451 69.6996 64.9816C69.6753 65.0549 69.6753 65.1341 69.6996 65.2074C69.7054 65.2188 69.7136 65.2288 69.7238 65.2366C69.734 65.2444 69.7457 65.2499 69.7583 65.2525C69.7986 65.1691 69.826 65.08 69.8396 64.9884C69.8503 64.9257 69.8654 64.8638 69.8847 64.8032C69.9398 64.6582 70.0046 64.5172 70.0789 64.381L70.1489 64.241C70.3295 63.8752 70.5237 63.5117 70.7269 63.1573C71.149 62.4267 71.6173 61.7238 72.129 61.0529C73.1406 59.7313 74.3209 58.5479 75.6399 57.533C76.2902 57.0362 76.9811 56.5734 77.6494 56.1263C78.4487 55.5912 79.2728 55.038 80.0292 54.4239C80.4311 54.0965 80.8262 53.7285 80.9933 53.2589C81.2191 52.5973 80.9414 51.7597 80.3159 51.2652C79.7759 50.8626 79.1151 50.6556 78.4419 50.6781Z" fill="#18CBB5"/>
<path id="Vector_21" d="M69.575 63.5115H69.5501C69.5374 63.5086 69.5254 63.5032 69.5148 63.4955C69.5043 63.4879 69.4953 63.4782 69.4886 63.467C69.4818 63.4559 69.4774 63.4435 69.4756 63.4305C69.4737 63.4176 69.4745 63.4045 69.4779 63.3919C71.3406 55.9636 76.4907 52.649 79.2408 51.861C79.2659 51.8541 79.2928 51.8572 79.3156 51.8699C79.3385 51.8826 79.3554 51.9037 79.3627 51.9288C79.3698 51.9542 79.3667 51.9814 79.354 52.0046C79.3414 52.0278 79.3202 52.0451 79.295 52.053C76.5856 52.8274 71.5122 56.099 69.6721 63.4393C69.6658 63.4601 69.6529 63.4784 69.6354 63.4914C69.618 63.5044 69.5968 63.5115 69.575 63.5115Z" fill="#18CBB5"/>
<path id="Vector_22" d="M69.5596 57.4177C69.5331 57.4154 69.5085 57.4027 69.4911 57.3824C69.4738 57.3622 69.4652 57.3359 69.467 57.3093C70.0609 49.2872 75.3081 44.8912 75.9042 44.4193C75.9142 44.4108 75.926 44.4044 75.9386 44.4006C75.9512 44.3968 75.9644 44.3956 75.9775 44.3971C75.9906 44.3986 76.0033 44.4027 76.0148 44.4092C76.0262 44.4158 76.0362 44.4246 76.0441 44.4351C76.0523 44.4453 76.0584 44.457 76.0621 44.4696C76.0657 44.4822 76.0668 44.4954 76.0653 44.5084C76.0639 44.5214 76.0598 44.534 76.0535 44.5454C76.0471 44.5569 76.0386 44.5669 76.0283 44.5751C75.439 45.0424 70.2528 49.3865 69.668 57.3251C69.6651 57.3514 69.6523 57.3757 69.6322 57.3929C69.612 57.4101 69.5861 57.419 69.5596 57.4177Z" fill="#18CBB5"/>
</g>
</g>
<g id="Bookshelf">
<g id="bookshelf">
<path id="Vector_23" d="M68.9403 29.435L56.3845 22.1896C56.2874 22.1199 56.1736 22.0771 56.0546 22.0656C55.9357 22.0541 55.8158 22.0743 55.7071 22.1241L54.804 22.6457C54.7047 22.7148 54.6257 22.8093 54.5753 22.9193C54.5249 23.0293 54.5048 23.1508 54.5173 23.2711V57.6377C54.5357 57.9726 54.6328 58.2984 54.8007 58.5887C54.9686 58.879 55.2026 59.1256 55.4836 59.3086L68.0372 66.5449C68.1341 66.615 68.2478 66.6582 68.3668 66.6701C68.4857 66.682 68.6057 66.6622 68.7146 66.6127L69.6177 66.0889C69.7158 66.0194 69.7937 65.925 69.8433 65.8155C69.8929 65.706 69.9124 65.5853 69.8999 65.4657V31.1058C69.8824 30.7716 69.7864 30.4461 69.6197 30.1558C69.453 29.8655 69.2203 29.6186 68.9403 29.435Z" fill="#263238"/>
<path id="Vector_24" d="M57.2195 58.2266L56.3164 58.7481V61.6066C56.321 61.6903 56.3452 61.7717 56.3872 61.8443C56.4292 61.9169 56.4877 61.9785 56.558 62.0243L56.9802 62.2681C57.0551 62.306 57.1379 62.3257 57.2218 62.3257C57.3057 62.3257 57.3885 62.306 57.4634 62.2681L57.8856 62.0243C58.0356 61.9274 58.1516 61.7861 58.2175 61.6201L59.0326 59.2719L57.2195 58.2266Z" fill="#263238"/>
<path id="Vector_25" d="M56.3164 61.6065C56.321 61.6902 56.3452 61.7717 56.3872 61.8442C56.4292 61.9168 56.4877 61.9785 56.558 62.0242L56.9802 62.268C57.0094 62.2857 57.0422 62.2965 57.0761 62.2997C57.1101 62.3028 57.1443 62.2983 57.1762 62.2863C57.2082 62.2744 57.237 62.2554 57.2605 62.2307C57.2841 62.206 57.3017 62.1763 57.3121 62.1438L58.1227 59.7934L56.3164 58.748V61.6065Z" fill="#37474F"/>
<path id="Vector_26" d="M66.2762 63.4395L65.373 63.9633V66.8194C65.3772 66.9033 65.401 66.985 65.4426 67.058C65.4842 67.1309 65.5423 67.1931 65.6124 67.2394L66.0369 67.4832C66.1114 67.5211 66.1937 67.5409 66.2773 67.5409C66.3609 67.5409 66.4433 67.5211 66.5178 67.4832L66.9422 67.2394C67.0922 67.1425 67.2083 67.0012 67.2742 66.8352L68.087 64.4848L66.2762 63.4395Z" fill="#263238"/>
<path id="Vector_27" d="M65.373 66.8191C65.3772 66.9029 65.401 66.9846 65.4426 67.0576C65.4842 67.1306 65.5423 67.1927 65.6124 67.239L66.0369 67.4829C66.066 67.5005 66.0988 67.5113 66.1328 67.5145C66.1667 67.5177 66.2009 67.5131 66.2329 67.5012C66.2648 67.4892 66.2936 67.4702 66.3172 67.4455C66.3407 67.4208 66.3583 67.3912 66.3688 67.3587L67.1838 65.0083L65.3776 63.9629L65.373 66.8191Z" fill="#37474F"/>
<path id="Vector_28" d="M55.5419 22.7368L68.0955 29.9619C68.3766 30.1453 68.6106 30.3924 68.7785 30.683C68.9464 30.9737 69.0435 31.2998 69.0619 31.6349V66.0016C69.0858 66.1223 69.0713 66.2474 69.0204 66.3595C68.9696 66.4715 68.8849 66.5648 68.7784 66.6264C68.6718 66.6879 68.5486 66.7145 68.4262 66.7024C68.3037 66.6904 68.1881 66.6403 68.0955 66.5593L55.5419 59.3206C55.2612 59.1375 55.0276 58.8908 54.8601 58.6005C54.6926 58.3102 54.5959 57.9845 54.5778 57.6498V23.2922C54.5537 23.1717 54.568 23.0467 54.6187 22.9347C54.6694 22.8228 54.7539 22.7296 54.8604 22.6682C54.9669 22.6069 55.0899 22.5805 55.2122 22.5928C55.3345 22.6051 55.4498 22.6555 55.5419 22.7368Z" fill="#37474F"/>
<g id="Bottom">
<path id="Vector_29" d="M37.3105 69.7121L50.8892 77.5513L69.9002 66.5759L68.9948 66.0521L55.4162 58.2129L37.3105 68.6667V69.7121Z" fill="#455A64"/>
<path id="Vector_30" d="M50.8906 77.552V76.5066L69.9017 65.5312V66.5766L50.8906 77.552Z" fill="#263238"/>
</g>
<path id="Vector_31" d="M50.9795 76.0299L50.8418 75.9373C53.2509 72.2909 53.2351 65.9915 53.0387 64.411C53.0229 64.3049 53.0116 64.2394 53.0093 64.2146L53.1741 64.1875C53.1741 64.2372 53.1922 64.2959 53.2012 64.3659C53.3774 65.4835 54.3731 71.5548 55.5517 73.3972L55.4117 73.4876C54.4792 72.0403 53.6822 68.1342 53.2825 65.8809C53.3074 68.439 52.9348 73.0879 50.9795 76.0299Z" fill="#FAFAFA"/>
<path id="Vector_32" d="M58.9013 70.4617C58.6958 70.4007 53.8957 68.9466 53.4531 66.8288L53.6179 66.7949C54.0379 68.8157 58.899 70.2878 58.9487 70.3036L58.9013 70.4617Z" fill="#FAFAFA"/>
<path id="Vector_33" d="M54.0614 69.6034L53.9394 69.0863C53.9227 68.9914 53.8744 68.9049 53.8022 68.8409C53.7301 68.7769 53.6384 68.7393 53.5421 68.7341C53.4626 68.7225 53.3814 68.7355 53.3095 68.7715C53.2377 68.8074 53.1786 68.8645 53.1402 68.9351L52.9844 68.8696C53.0366 68.7663 53.1196 68.6818 53.2219 68.6276C53.3242 68.5734 53.4408 68.5522 53.5556 68.567C53.6387 68.5723 53.7197 68.5951 53.7933 68.634C53.8668 68.673 53.9313 68.7271 53.9823 68.7928C54.0094 68.5787 54.1187 68.3836 54.2872 68.2487C54.351 68.2153 54.4224 68.199 54.4944 68.2014C54.5664 68.2038 54.6366 68.2247 54.6981 68.2622L54.6236 68.4113C54.5859 68.387 54.5427 68.3729 54.4981 68.3701C54.4534 68.3673 54.4088 68.3761 54.3684 68.3954C54.1765 68.5038 54.102 68.9215 54.0907 69.0728L54.0614 69.6034Z" fill="#FAFAFA"/>
<path id="Vector_34" d="M54.5333 71.3262L54.3843 70.8566C54.215 70.326 53.9327 70.0212 53.5986 70.0008C53.459 69.9981 53.3216 70.0362 53.2033 70.1104C53.085 70.1846 52.9909 70.2917 52.9325 70.4185L52.7812 70.3463C52.8527 70.1878 52.9696 70.054 53.1171 69.962C53.2646 69.8699 53.4361 69.8237 53.6099 69.8292C53.8108 69.8405 54.1563 69.9489 54.4137 70.4727C54.4701 70.0595 54.6395 69.3957 55.0752 69.118C55.2316 69.0323 55.4075 68.9883 55.5858 68.9903C55.7642 68.9923 55.939 69.0401 56.0935 69.1293L56.0235 69.2806C55.8942 69.2041 55.7474 69.1621 55.5972 69.1585C55.447 69.1549 55.2983 69.19 55.1655 69.2603C54.5853 69.6215 54.5469 70.8159 54.5469 70.8295L54.5333 71.3262Z" fill="#FAFAFA"/>
<path id="Vector_35" d="M52.4947 72.4746L52.3457 72.3978C52.6799 71.7543 53.4137 71.2915 54.0504 71.3231C54.1854 71.3247 54.3185 71.3565 54.4396 71.4163C54.5607 71.4761 54.6669 71.5623 54.7503 71.6685C54.8116 71.3437 54.938 71.0345 55.1219 70.7598C55.3059 70.4851 55.5435 70.2504 55.8205 70.07C56.1178 69.8725 56.4609 69.7549 56.8168 69.7284C57.1726 69.7019 57.5294 69.7674 57.8526 69.9187L57.7871 70.07C57.4894 69.9321 57.1614 69.8727 56.8342 69.8972C56.507 69.9217 56.1915 70.0293 55.9176 70.21C55.6248 70.3998 55.3804 70.6554 55.204 70.9565C55.0275 71.2576 54.924 71.5957 54.9016 71.944V72.3707L54.7435 71.9733C54.6912 71.8321 54.597 71.7102 54.4736 71.6238C54.3501 71.5375 54.2033 71.4909 54.0526 71.4902C53.4679 71.4608 52.8018 71.8853 52.4947 72.4746Z" fill="#FAFAFA"/>
<path id="Vector_36" d="M51.5745 74.9655L51.4277 74.8842C51.6309 74.514 52.7124 72.6535 53.9926 72.3171C54.1733 72.2653 54.3629 72.2524 54.549 72.2793C54.735 72.3061 54.9132 72.3721 55.0719 72.4729L54.9861 72.6151C54.8462 72.5267 54.6893 72.4688 54.5255 72.445C54.3617 72.4213 54.1948 72.4323 54.0355 72.4774C53.0963 72.7257 52.1254 73.9721 51.5745 74.9655Z" fill="#FAFAFA"/>
<path id="Vector_37" d="M68.0855 55.0775V56.1229L50.8853 66.0529L37.3066 58.2137V57.1683L54.5069 47.2383L68.0855 55.0775Z" fill="#263238"/>
<path id="Vector_38" d="M68.0855 55.0775L50.8853 65.0075L37.3066 57.1683L54.5069 47.2383L68.0855 55.0775Z" fill="#455A64"/>
<path id="Vector_39" d="M68.0855 43.5798V44.6229L50.8853 54.5551L37.3066 46.7137V45.6705L54.5069 35.7383L68.0855 43.5798Z" fill="#263238"/>
<path id="Vector_40" d="M68.0855 43.5798L50.8853 53.5098L37.3066 45.6705L54.5069 35.7383L68.0855 43.5798Z" fill="#455A64"/>
<g id="Side">
<path id="Vector_41" d="M50.8364 39.8707L38.2828 32.6344C38.1859 32.5643 38.0722 32.5211 37.9532 32.5092C37.8343 32.4973 37.7143 32.5171 37.6054 32.5666C37.4429 32.6592 36.8648 32.9956 36.7023 33.0882C36.6034 33.1576 36.5249 33.2522 36.4749 33.3622C36.4248 33.4721 36.4051 33.5935 36.4178 33.7136V68.0712C36.4362 68.4061 36.5333 68.7318 36.7012 69.0221C36.8691 69.3124 37.1031 69.559 37.3842 69.742L49.9378 76.9807C50.0346 77.0507 50.1483 77.0939 50.2673 77.1058C50.3863 77.1177 50.5063 77.0979 50.6151 77.0484C50.7777 76.9536 51.3602 76.6194 51.5182 76.5223C51.6176 76.4536 51.6968 76.3596 51.7476 76.2501C51.7984 76.1405 51.819 76.0193 51.8072 75.8991V41.5438C51.7886 41.2082 51.691 40.8817 51.5223 40.5909C51.3536 40.3002 51.1186 40.0534 50.8364 39.8707Z" fill="#263238"/>
<path id="Vector_42" opacity="0.2" d="M50.889 45.1466L51.7966 44.6228V41.4844L50.8867 42.0082L50.889 45.1466Z" fill="black"/>
<path id="Vector_43" opacity="0.2" d="M69.0003 34.6932L69.908 34.1716V31.0332L68.998 31.557L69.0003 34.6932Z" fill="black"/>
<path id="Vector_44" d="M39.1199 68.6641L38.2168 69.1856V72.0441C38.2214 72.1278 38.2456 72.2092 38.2876 72.2818C38.3296 72.3544 38.3881 72.416 38.4584 72.4618L38.8806 72.7056C38.9555 72.7435 39.0383 72.7632 39.1222 72.7632C39.2061 72.7632 39.2889 72.7435 39.3638 72.7056L39.786 72.4618C39.9354 72.3652 40.0514 72.2248 40.1179 72.0599L40.933 69.7094L39.1199 68.6641Z" fill="#263238"/>
<path id="Vector_45" d="M38.2168 72.044C38.2214 72.1277 38.2456 72.2092 38.2876 72.2817C38.3296 72.3543 38.3881 72.416 38.4584 72.4617L38.8806 72.7055C38.9098 72.7232 38.9426 72.734 38.9765 72.7372C39.0105 72.7403 39.0447 72.7358 39.0766 72.7238C39.1086 72.7119 39.1374 72.6929 39.1609 72.6682C39.1845 72.6435 39.2021 72.6138 39.2125 72.5813L40.0276 70.2309L38.2213 69.1855L38.2168 72.044Z" fill="#37474F"/>
<path id="Vector_46" d="M48.1766 73.8906L47.2734 74.4122V77.2706C47.2776 77.3542 47.3014 77.4356 47.343 77.5082C47.3846 77.5808 47.4428 77.6425 47.5128 77.6883L47.9372 77.9322C48.0117 77.97 48.0941 77.9898 48.1777 77.9898C48.2613 77.9898 48.3437 77.97 48.4182 77.9322L48.8426 77.6883C48.9915 77.5911 49.1072 77.451 49.1745 77.2864L49.9874 74.936L48.1766 73.8906Z" fill="#263238"/>
<path id="Vector_47" d="M47.2734 77.2588C47.2776 77.3424 47.3014 77.4238 47.343 77.4964C47.3846 77.569 47.4428 77.6307 47.5128 77.6765L47.9372 77.9204C47.9664 77.938 47.9992 77.9488 48.0332 77.952C48.0671 77.9552 48.1013 77.9506 48.1333 77.9387C48.1652 77.9267 48.194 77.9077 48.2176 77.883C48.2411 77.8583 48.2587 77.8287 48.2691 77.7962L49.082 75.4458L47.2757 74.4004L47.2734 77.2588Z" fill="#37474F"/>
<path id="Vector_48" d="M37.3701 33.1587L49.9259 40.395C50.2067 40.5786 50.4403 40.8257 50.6078 41.1164C50.7753 41.4071 50.872 41.7331 50.89 42.0681V77.5479C50.89 77.5479 50.1924 77.1347 49.9259 76.9811L37.3723 69.7425C37.0913 69.5595 36.8573 69.3129 36.6894 69.0226C36.5215 68.7323 36.4244 68.4065 36.406 68.0717V33.7141C36.3818 33.5936 36.3961 33.4686 36.4468 33.3566C36.4975 33.2447 36.582 33.1514 36.6885 33.0901C36.795 33.0287 36.9181 33.0024 37.0403 33.0147C37.1626 33.027 37.2779 33.0773 37.3701 33.1587Z" fill="#37474F"/>
<path id="Vector_49" opacity="0.2" d="M49.9259 40.395L37.3701 33.1587C37.2779 33.0773 37.1626 33.027 37.0403 33.0147C36.9181 33.0024 36.795 33.0287 36.6885 33.0901C36.582 33.1514 36.4975 33.2447 36.4468 33.3566C36.3961 33.4686 36.3818 33.5936 36.406 33.7141V36.7825L50.89 45.1365V42.0681C50.872 41.7331 50.7753 41.4071 50.6078 41.1164C50.4403 40.8257 50.2067 40.5786 49.9259 40.395Z" fill="black"/>
</g>
<path id="Vector_50" d="M67.1858 43.6626C67.1638 43.662 67.1429 43.653 67.1274 43.6375C67.1118 43.6219 67.1029 43.601 67.1023 43.579V33.2697L57.2694 38.9459C57.2602 38.9519 57.2498 38.9559 57.239 38.9577C57.2282 38.9594 57.2171 38.9589 57.2065 38.9561C57.1959 38.9534 57.1859 38.9484 57.1773 38.9416C57.1687 38.9348 57.1616 38.9263 57.1565 38.9166C57.1508 38.9071 57.147 38.8966 57.1454 38.8857C57.1438 38.8747 57.1444 38.8636 57.1471 38.8529C57.1498 38.8422 57.1547 38.8321 57.1613 38.8233C57.168 38.8144 57.1763 38.807 57.1858 38.8014L67.1565 33.053C67.169 33.0452 67.1835 33.041 67.1982 33.041C67.213 33.041 67.2275 33.0452 67.24 33.053C67.2525 33.0604 67.2628 33.071 67.2699 33.0837C67.2771 33.0964 67.2808 33.1107 67.2807 33.1252V43.579C67.2808 43.591 67.2783 43.6029 67.2734 43.6138C67.2685 43.6248 67.2613 43.6345 67.2523 43.6425C67.2433 43.6504 67.2327 43.6563 67.2213 43.6598C67.2098 43.6632 67.1977 43.6642 67.1858 43.6626Z" fill="#FAFAFA"/>
<path id="Vector_51" d="M65.3739 41.05H65.349C65.3275 41.0451 65.3088 41.032 65.2969 41.0133C65.2851 40.9947 65.2811 40.9722 65.2858 40.9506L66.9702 33.6555L63.6285 39.4424C63.6234 39.452 63.6163 39.4606 63.6078 39.4674C63.5992 39.4742 63.5894 39.4793 63.5788 39.4823C63.5683 39.4852 63.5573 39.486 63.5464 39.4846C63.5355 39.4832 63.5251 39.4796 63.5157 39.474C63.5059 39.4686 63.4974 39.4613 63.4905 39.4526C63.4836 39.4438 63.4786 39.4338 63.4756 39.4231C63.4727 39.4124 63.4719 39.4012 63.4734 39.3901C63.4748 39.3791 63.4784 39.3685 63.484 39.3589L67.0966 33.0866C67.1069 33.0693 67.123 33.0563 67.142 33.0497C67.161 33.0431 67.1817 33.0434 67.2005 33.0504C67.219 33.058 67.2342 33.0719 67.2433 33.0898C67.2524 33.1076 67.2549 33.1281 67.2501 33.1475L65.4439 40.989C65.4398 41.0051 65.4309 41.0196 65.4184 41.0305C65.4059 41.0414 65.3904 41.0482 65.3739 41.05Z" fill="#FAFAFA"/>
<path id="Vector_52" d="M61.753 38.4443C61.7415 38.4444 61.7302 38.442 61.7196 38.4373C61.7091 38.4327 61.6997 38.4258 61.6921 38.4172C61.6766 38.4016 61.668 38.3805 61.668 38.3585C61.668 38.3366 61.6766 38.3155 61.6921 38.2998L67.1244 33.0729C67.1401 33.0575 67.1612 33.0488 67.1831 33.0488C67.2051 33.0488 67.2262 33.0575 67.2419 33.0729C67.2574 33.0889 67.2662 33.1104 67.2662 33.1328C67.2662 33.1551 67.2574 33.1766 67.2419 33.1926L61.8095 38.4172C61.8023 38.4253 61.7937 38.4318 61.784 38.4364C61.7743 38.4411 61.7638 38.4438 61.753 38.4443Z" fill="#FAFAFA"/>
<path id="Vector_53" d="M67.1852 41.9948C67.1632 41.9942 67.1423 41.9852 67.1267 41.9697C67.1112 41.9541 67.1022 41.9332 67.1016 41.9112C67.1016 40.543 65.5753 40.4504 65.5098 40.4482C65.4975 40.4473 65.4855 40.4438 65.4746 40.438C65.4637 40.4321 65.4542 40.4241 65.4466 40.4143C65.4395 40.4047 65.4346 40.3936 65.4323 40.3819C65.4299 40.3702 65.4302 40.3581 65.4331 40.3466C65.4888 40.067 65.4699 39.7778 65.3783 39.5079C65.2868 39.238 65.1258 38.9969 64.9115 38.809C64.8332 38.7308 64.7391 38.6703 64.6355 38.6314C64.532 38.5924 64.4213 38.576 64.3109 38.5832C64.252 38.5932 64.1959 38.6157 64.1465 38.6492C64.097 38.6827 64.0553 38.7264 64.0242 38.7774C64.0148 38.7938 64 38.8066 63.9824 38.8136C63.9647 38.8206 63.9452 38.8213 63.9271 38.8157C63.909 38.8102 63.8934 38.7987 63.8828 38.7831C63.8721 38.7675 63.867 38.7488 63.8684 38.7299C63.8684 38.678 63.961 37.461 62.8907 37.3414C62.877 37.3397 62.8639 37.3347 62.8525 37.3268C62.841 37.319 62.8317 37.3085 62.8253 37.2962C62.8191 37.2843 62.8159 37.2712 62.8159 37.2578C62.8159 37.2445 62.8191 37.2313 62.8253 37.2194C62.8253 37.2194 63.2994 36.3321 63.1165 35.8964C63.0954 35.8452 63.0625 35.7997 63.0206 35.7636C62.9786 35.7275 62.9287 35.7018 62.8749 35.6886C62.8642 35.6858 62.8542 35.6808 62.8455 35.674C62.8368 35.6671 62.8296 35.6586 62.8243 35.6489C62.819 35.6391 62.8158 35.6284 62.8148 35.6174C62.8138 35.6064 62.815 35.5953 62.8185 35.5848C62.8253 35.5638 62.8398 35.5463 62.8591 35.5358C62.8785 35.5253 62.9011 35.5226 62.9223 35.5283C63.0001 35.5483 63.0721 35.5863 63.1325 35.6393C63.1929 35.6922 63.24 35.7586 63.2701 35.8331C63.4439 36.2463 63.1504 36.9304 63.024 37.1878C63.8548 37.3481 64.0084 38.1316 64.0309 38.52C64.1052 38.4672 64.1899 38.431 64.2793 38.4138C64.415 38.4007 64.5519 38.4184 64.6798 38.4658C64.8077 38.5131 64.9232 38.5887 65.0176 38.687C65.242 38.8849 65.4137 39.1353 65.5173 39.4159C65.621 39.6965 65.6533 39.9985 65.6114 40.2946C65.9772 40.342 67.2687 40.5972 67.2664 41.9158C67.2653 41.9367 67.2563 41.9565 67.2412 41.9712C67.2262 41.9858 67.2062 41.9942 67.1852 41.9948Z" fill="#FAFAFA"/>
<path id="Vector_54" d="M67.1828 39.7405C67.1618 39.7406 67.1415 39.7327 67.126 39.7185C67.1105 39.7043 67.101 39.6847 67.0993 39.6638C67.0631 39.1851 66.7854 38.5665 66.4354 38.4129C66.3661 38.3819 66.2892 38.3718 66.2142 38.3839C66.1393 38.3959 66.0694 38.4295 66.0132 38.4807C65.9994 38.4895 65.9834 38.4942 65.9669 38.4942C65.9505 38.4942 65.9345 38.4895 65.9207 38.4807C65.9063 38.4728 65.8947 38.4609 65.887 38.4464C65.8794 38.432 65.8762 38.4156 65.8778 38.3994C65.8778 38.3994 65.9523 37.5527 65.5707 37.2027C65.4879 37.1336 65.3898 37.0852 65.2846 37.0617C65.1793 37.0381 65.07 37.04 64.9656 37.0672C64.9512 37.0703 64.9363 37.0694 64.9223 37.0646C64.9084 37.0599 64.8961 37.0514 64.8866 37.0401C64.8769 37.0288 64.8704 37.0151 64.8676 37.0005C64.8648 36.9858 64.8659 36.9707 64.8708 36.9566C64.9475 36.7466 65.0965 36.1573 64.8956 35.9474C64.8008 35.8503 64.6269 35.8412 64.3763 35.9225C64.3592 35.9282 64.3407 35.9282 64.3236 35.9225C64.3065 35.9168 64.2918 35.9057 64.2815 35.8909C64.2712 35.8764 64.2656 35.859 64.2656 35.8412C64.2656 35.8234 64.2712 35.8061 64.2815 35.7916C64.4215 35.6155 64.7669 35.1007 64.6811 34.8546C64.667 34.8206 64.644 34.7909 64.6147 34.7687C64.5853 34.7465 64.5506 34.7325 64.514 34.7281C64.5033 34.7255 64.4933 34.7208 64.4844 34.7142C64.4756 34.7077 64.4681 34.6994 64.4624 34.69C64.4567 34.6806 64.453 34.6701 64.4514 34.6592C64.4498 34.6483 64.4504 34.6372 64.4531 34.6265C64.4551 34.6158 64.4594 34.6055 64.4657 34.5965C64.4719 34.5875 64.48 34.5799 64.4893 34.5742C64.4987 34.5684 64.5091 34.5647 64.52 34.5632C64.5308 34.5617 64.5419 34.5625 64.5524 34.5656C64.6158 34.5748 64.6756 34.6005 64.726 34.6401C64.7763 34.6798 64.8153 34.7319 64.8392 34.7913C64.9317 35.06 64.7059 35.4687 64.5479 35.6945C64.6293 35.6751 64.7142 35.6759 64.7953 35.6967C64.8763 35.7176 64.951 35.7579 65.013 35.8141C65.2614 36.0715 65.1417 36.6157 65.0672 36.8708C65.1773 36.8577 65.289 36.8679 65.3948 36.901C65.5007 36.9341 65.5983 36.9892 65.6813 37.0627C66.0177 37.3698 66.0539 37.9659 66.0494 38.2391C66.12 38.2058 66.1971 38.1886 66.2751 38.1886C66.3532 38.1886 66.4303 38.2058 66.5009 38.2391C66.9277 38.4265 67.2234 39.0925 67.2663 39.6322C67.2673 39.643 67.266 39.6539 67.2626 39.6643C67.2592 39.6747 67.2538 39.6842 67.2466 39.6924C67.2395 39.7007 67.2307 39.7074 67.2209 39.7121C67.2111 39.7169 67.2005 39.7196 67.1896 39.7202L67.1828 39.7405Z" fill="#FAFAFA"/>
<g id="Top">
<path id="Vector_55" d="M72.0462 29.4676C72.0355 29.3478 71.993 29.2329 71.9232 29.1349C71.8533 29.0369 71.7586 28.9592 71.6488 28.91L58.1898 21.1385C57.8906 20.9871 57.56 20.9082 57.2246 20.9082C56.8893 20.9082 56.5586 20.9871 56.2594 21.1385L35.5595 33.0915C35.4497 33.1408 35.355 33.2184 35.2851 33.3164C35.2153 33.4144 35.1728 33.5293 35.1621 33.6492V34.6946C35.1728 34.8144 35.2153 34.9293 35.2851 35.0273C35.355 35.1253 35.4497 35.203 35.5595 35.2522L49.0185 43.0215C49.3174 43.1739 49.6482 43.2534 49.9837 43.2534C50.3193 43.2534 50.65 43.1739 50.9489 43.0215L71.6488 31.0707C71.7586 31.0214 71.8533 30.9438 71.9232 30.8458C71.993 30.7478 72.0355 30.6329 72.0462 30.513V29.4676Z" fill="#37474F"/>
<path id="Vector_56" d="M49.0207 41.9761L35.5617 34.2069C35.0289 33.8975 35.0289 33.3986 35.5617 33.0915L56.2616 21.1385C56.5609 20.9871 56.8915 20.9082 57.2269 20.9082C57.5622 20.9082 57.8929 20.9871 58.1921 21.1385L71.6511 28.91C72.1862 29.2193 72.1862 29.716 71.6511 30.0253L50.9512 41.9761C50.6523 42.1285 50.3215 42.208 49.986 42.208C49.6504 42.208 49.3197 42.1285 49.0207 41.9761Z" fill="#455A64"/>
</g>
<g id="Shadows">
<path id="Vector_57" opacity="0.1" d="M68.9893 32.6035L62.6538 40.445L51.7913 46.7173L51.7891 42.5358L68.9893 32.6035Z" fill="black"/>
<path id="Vector_58" opacity="0.1" d="M68.0817 44.623L62.6515 51.9407L51.7891 58.2153V54.0315L68.0817 44.623Z" fill="black"/>
<path id="Vector_59" opacity="0.1" d="M68.0817 56.123L62.6515 63.4407L51.7891 69.7153V65.5315L68.0817 56.123Z" fill="black"/>
</g>
</g>
</g>
<g id="Box">
<g id="box">
<path id="Vector_60" d="M43.1653 78.9625L26.5114 88.5787L7.75781 77.7252L24.4117 68.1113L43.1653 78.9625Z" fill="#18CBB5"/>
<path id="Vector_61" opacity="0.5" d="M43.1653 78.9625L26.5114 88.5787L7.75781 77.7252L24.4117 68.1113L43.1653 78.9625Z" fill="black"/>
<path id="Vector_62" d="M24.4117 55.0762V68.1107L7.75781 77.7246V64.6923L24.4117 55.0762Z" fill="#18CBB5"/>
<path id="Vector_63" opacity="0.23" d="M24.4117 55.0762V68.1107L7.75781 77.7246V64.6923L24.4117 55.0762Z" fill="black"/>
<path id="Vector_64" d="M26.5114 75.5446V88.5791L7.75781 77.7256V64.6934L26.5114 75.5446Z" fill="#18CBB5"/>
<path id="Vector_65" opacity="0.38" d="M26.5114 75.5446V88.5791L7.75781 77.7256V64.6934L26.5114 75.5446Z" fill="black"/>
<path id="Vector_66" d="M43.1638 65.9274V78.9619L24.4102 68.1107V55.0762L43.1638 65.9274Z" fill="#18CBB5"/>
<path id="Vector_67" opacity="0.4" d="M43.1638 65.9274V78.9619L24.4102 68.1107V55.0762L43.1638 65.9274Z" fill="black"/>
<path id="Vector_68" d="M43.1675 78.9642V65.9297L26.5137 75.5458V88.5804L43.1675 78.9642Z" fill="#18CBB5"/>
<path id="Vector_69" opacity="0.23" d="M43.1675 78.9642V65.9297L26.5137 75.5458V88.5804L43.1675 78.9642Z" fill="black"/>
<path id="Vector_70" d="M24.4102 55.0774L24.4327 47.8613L43.1412 58.7261L43.1638 65.9286L24.4102 55.0774Z" fill="#18CBB5"/>
<path id="Vector_71" opacity="0.2" d="M24.4102 55.0774L24.4327 47.8613L43.1412 58.7261L43.1638 65.9286L24.4102 55.0774Z" fill="black"/>
<path id="Vector_72" d="M26.5137 75.5441L28.0761 69.2312L44.5787 59.7031L43.1675 65.928L26.5137 75.5441Z" fill="#18CBB5"/>
<path id="Vector_73" opacity="0.3" d="M26.5137 75.5441L28.0761 69.2312L44.5787 59.7031L43.1675 65.928L26.5137 75.5441Z" fill="black"/>
<path id="Vector_74" d="M7.75839 64.6929L5.77148 58.1451L22.4253 48.5312L24.4122 55.0767L7.75839 64.6929Z" fill="#18CBB5"/>
<path id="Vector_75" opacity="0.1" d="M7.75839 64.6929L5.77148 58.1451L22.4253 48.5312L24.4122 55.0767L7.75839 64.6929Z" fill="black"/>
<path id="Vector_76" d="M7.7575 64.6933L3.83789 59.2812L22.5938 70.1324L26.5111 75.5445L7.7575 64.6933Z" fill="#18CBB5"/>
<path id="Vector_77" opacity="0.45" d="M7.7575 64.6933L3.83789 59.2812L22.5938 70.1324L26.5111 75.5445L7.7575 64.6933Z" fill="black"/>
<g id="Group" opacity="0.7">
<path id="Vector_78" d="M31.4183 84.7006C31.3912 84.7006 31.3651 84.69 31.3457 84.671C31.3262 84.652 31.315 84.6262 31.3145 84.599V82.305C31.315 82.2777 31.3262 82.2516 31.3455 82.2322C31.3649 82.2129 31.391 82.2017 31.4183 82.2012C31.4455 82.2018 31.4713 82.213 31.4903 82.2324C31.5093 82.2518 31.5199 82.2779 31.5199 82.305V84.599C31.5199 84.6259 31.5092 84.6518 31.4902 84.6708C31.4711 84.6899 31.4453 84.7006 31.4183 84.7006Z" fill="white"/>
<path id="Vector_79" d="M31.1179 83.1007C31.1045 83.1028 31.0907 83.1028 31.0773 83.1007C31.0526 83.0893 31.0333 83.0689 31.0232 83.0437C31.0131 83.0186 31.0131 82.9905 31.0231 82.9652L31.3889 82.123L31.7953 82.5927C31.8098 82.6137 31.8161 82.6393 31.8129 82.6647C31.8097 82.6901 31.7973 82.7134 31.778 82.7301C31.7587 82.7469 31.7339 82.756 31.7084 82.7556C31.6828 82.7553 31.6583 82.7455 31.6395 82.7281L31.4476 82.5024L31.2218 83.0442C31.212 83.0629 31.1969 83.0782 31.1784 83.0883C31.16 83.0983 31.1389 83.1026 31.1179 83.1007Z" fill="white"/>
<path id="Vector_80" d="M32.3614 84.1612C32.3342 84.1606 32.3084 84.1494 32.2894 84.13C32.2704 84.1106 32.2598 84.0845 32.2598 84.0574V81.7657C32.2598 81.7387 32.2705 81.7129 32.2895 81.6938C32.3086 81.6748 32.3344 81.6641 32.3614 81.6641C32.3883 81.6641 32.4142 81.6748 32.4332 81.6938C32.4523 81.7129 32.463 81.7387 32.463 81.7657V84.0551C32.4633 84.0688 32.4609 84.0823 32.4559 84.095C32.451 84.1078 32.4436 84.1194 32.4342 84.1292C32.4247 84.1391 32.4134 84.147 32.4009 84.1525C32.3885 84.158 32.375 84.1609 32.3614 84.1612Z" fill="white"/>
<path id="Vector_81" d="M32.0608 82.5612C32.0473 82.5633 32.0336 82.5633 32.0201 82.5612C32.0077 82.5558 31.9965 82.548 31.9872 82.5383C31.9779 82.5285 31.9706 82.517 31.9657 82.5044C31.9609 82.4918 31.9586 82.4783 31.959 82.4648C31.9595 82.4513 31.9626 82.438 31.9682 82.4257L32.3317 81.5723L32.7381 82.0396C32.7569 82.059 32.7674 82.0849 32.7674 82.1119C32.7674 82.1389 32.7569 82.1648 32.7381 82.1841C32.7287 82.1937 32.7174 82.2013 32.705 82.2065C32.6926 82.2116 32.6793 82.2143 32.6659 82.2143C32.6524 82.2143 32.6391 82.2116 32.6267 82.2065C32.6143 82.2013 32.6031 82.1937 32.5936 82.1841L32.4017 81.9584L32.1759 82.5002C32.1666 82.522 32.15 82.5399 32.1291 82.551C32.1081 82.5621 32.084 82.5657 32.0608 82.5612Z" fill="white"/>
</g>
<g id="Group_2" opacity="0.7">
<path id="Vector_82" d="M28.6807 86.257C28.6421 86.2576 28.604 86.2482 28.5701 86.2299C28.5293 86.2037 28.4962 86.1671 28.4744 86.1238C28.4525 86.0805 28.4427 86.0322 28.4459 85.9838V85.7016C28.4465 85.6744 28.4577 85.6486 28.4771 85.6296C28.4965 85.6106 28.5226 85.5999 28.5498 85.6C28.5767 85.6 28.6026 85.6107 28.6216 85.6297C28.6407 85.6488 28.6514 85.6746 28.6514 85.7016V85.9838C28.6514 86.0244 28.6514 86.047 28.6717 86.0515C28.692 86.056 28.7033 86.0515 28.7372 86.0335C28.8007 85.9748 28.8508 85.903 28.8839 85.8231C28.917 85.7432 28.9325 85.657 28.9291 85.5706V84.3965C28.9291 84.3696 28.9398 84.3437 28.9588 84.3247C28.9779 84.3056 29.0037 84.2949 29.0307 84.2949C29.0576 84.2949 29.0835 84.3056 29.1025 84.3247C29.1216 84.3437 29.1323 84.3696 29.1323 84.3965V85.5706C29.1373 85.6925 29.1136 85.8139 29.063 85.9249C29.0124 86.0359 28.9364 86.1334 28.841 86.2096C28.7928 86.2394 28.7374 86.2557 28.6807 86.257Z" fill="white"/>
<path id="Vector_83" d="M27.6055 85.3106V85.1345C27.6323 84.6823 27.7645 84.2426 27.9915 83.8506C28.2185 83.4586 28.5339 83.1251 28.9128 82.8766C29.283 82.6644 29.6353 82.6328 29.9062 82.7908C30.0507 82.8899 30.1659 83.026 30.2398 83.1849C30.3137 83.3438 30.3435 83.5196 30.3262 83.694V83.7527L27.6055 85.3106ZM29.5269 82.8857C29.3461 82.894 29.1705 82.9484 29.0166 83.0437C28.692 83.2573 28.4171 83.5383 28.2107 83.8674C28.0042 84.1966 27.8709 84.5664 27.82 84.9516L30.1162 83.624C30.126 83.4932 30.1018 83.3622 30.0461 83.2435C29.9903 83.1248 29.9048 83.0225 29.7978 82.9466C29.7144 82.9029 29.621 82.8819 29.5269 82.8857Z" fill="white"/>
</g>
<path id="Vector_84" opacity="0.7" d="M3.83789 59.2812L22.5938 70.1324L26.5111 75.5445L22.3861 70.3244L3.83789 59.2812Z" fill="white"/>
<path id="Vector_85" opacity="0.7" d="M43.1675 65.9297L26.5137 75.5458V88.5804L26.8253 75.8077L43.1675 65.9297Z" fill="white"/>
</g>
</g>
<g id="Moth">
<g id="moth">
<path id="Vector_86" d="M18.738 60.7141C20.4562 60.4658 22.0254 59.3594 23.0279 57.9686C23.4954 57.3188 23.8398 56.5887 24.0439 55.8146C24.2607 55.0908 24.2964 54.3247 24.1478 53.5839C23.8385 52.3443 22.6915 51.6105 21.479 51.457C20.8638 51.376 20.2382 51.4371 19.6502 51.6354C19.0405 51.8446 18.5115 52.2393 18.1374 52.7643C17.9029 53.0439 17.7553 53.3862 17.7129 53.7487C17.7093 53.8907 17.7594 54.0288 17.8531 54.1355C17.9469 54.2423 18.0774 54.3097 18.2187 54.3244C18.5823 54.3551 18.9456 54.2629 19.2505 54.0625C19.6224 53.854 19.9499 53.5748 20.2146 53.2407C20.7825 52.5398 21.2075 51.7344 21.4655 50.8699C21.6465 50.1282 21.6465 49.3538 21.4655 48.6121C21.328 47.8362 20.9733 47.1152 20.4427 46.5326C19.8343 45.9794 19.0624 45.6394 18.2435 45.564C17.4286 45.4521 16.5989 45.5293 15.8186 45.7898C15.4759 45.8937 15.1584 46.0674 14.8861 46.3001C14.692 46.4807 14.4707 46.7787 14.5497 47.0723C14.6287 47.3658 15.0577 47.4967 15.349 47.4583C15.7801 47.3776 16.1749 47.1636 16.4779 46.8465C16.8156 46.514 17.1024 46.1336 17.3291 45.7176C17.4976 45.4185 17.5855 45.0809 17.5843 44.7376C17.5549 43.3062 15.9722 42.3805 14.7326 42.1185C14.398 42.0486 14.0552 42.0258 13.7143 42.0508C13.5992 42.0508 13.6692 42.2405 13.7617 42.2337C14.4288 42.2034 15.0917 42.3531 15.6809 42.6672C16.2622 42.9344 16.7505 43.3692 17.083 43.9158C17.2312 44.1853 17.3043 44.4896 17.2948 44.797C17.2853 45.1044 17.1934 45.4036 17.0288 45.6634C16.8077 46.0484 16.5325 46.3997 16.2115 46.7065C15.9428 46.9503 15.5341 47.2326 15.1571 47.2055C15.0948 47.2053 15.0339 47.1877 14.9812 47.1545C14.9285 47.1214 14.8861 47.0741 14.859 47.0181C14.8477 46.9439 14.8538 46.8682 14.8769 46.7968C14.9 46.7255 14.9395 46.6605 14.9922 46.6071C15.1916 46.3924 15.4382 46.227 15.7125 46.124C16.3899 45.8424 17.1233 45.7218 17.8552 45.7717C18.6094 45.7854 19.3429 46.021 19.964 46.4491C20.5051 46.8983 20.8894 47.508 21.0613 48.1899C21.2792 48.8826 21.3469 49.6139 21.26 50.3348C21.1259 51.0603 20.8472 51.7514 20.4404 52.3669C20.0227 53.0578 19.4989 53.7216 18.7132 53.9925C18.519 54.0625 18.1126 54.1641 18.0358 53.8819C17.9591 53.5997 18.1803 53.252 18.3226 53.033C18.6371 52.5379 19.0957 52.151 19.6366 51.9244C20.1586 51.7151 20.7221 51.6301 21.2826 51.676C22.346 51.755 23.4253 52.3104 23.7956 53.3671C23.9813 53.9986 24.0015 54.6673 23.8543 55.3089C23.7215 56.0121 23.4687 56.6873 23.1069 57.3048C22.3289 58.6169 21.1505 59.6449 19.745 60.2377C19.4108 60.3822 19.0677 60.5042 18.7177 60.6171C18.6816 60.6306 18.6974 60.7209 18.738 60.7141Z" fill="#E0E0E0"/>
<path id="Vector_87" d="M11.5646 41.111C10.6614 41.0456 9.41735 41.7568 9.85989 42.2761C10.3024 42.7954 11.4765 41.9555 11.4765 41.9555C11.4765 41.9555 11.3659 43.0054 11.7497 43.125C12.1335 43.2447 12.6528 42.2422 12.269 41.601C12.4541 41.674 12.6547 41.699 12.852 41.6737C13.0494 41.6485 13.2372 41.5737 13.3979 41.4565C13.9443 41.0546 13.3663 40.6753 12.5964 40.743C12.5964 40.743 13.1473 38.9367 12.0342 39.2822C11.4765 39.4515 11.2801 40.104 11.5646 41.111Z" fill="#18CBB5"/>
<path id="Vector_88" opacity="0.65" d="M11.5646 41.111C10.6614 41.0456 9.41735 41.7568 9.85989 42.2761C10.3024 42.7954 11.4765 41.9555 11.4765 41.9555C11.4765 41.9555 11.3659 43.0054 11.7497 43.125C12.1335 43.2447 12.6528 42.2422 12.269 41.601C12.4541 41.674 12.6547 41.699 12.852 41.6737C13.0494 41.6485 13.2372 41.5737 13.3979 41.4565C13.9443 41.0546 13.3663 40.6753 12.5964 40.743C12.5964 40.743 13.1473 38.9367 12.0342 39.2822C11.4765 39.4515 11.2801 40.104 11.5646 41.111Z" fill="white"/>
<path id="Vector_89" d="M12.4031 41.4948C12.3531 41.4459 12.3003 41.3999 12.245 41.3571C12.166 41.2961 12.0825 41.2374 12.0034 41.1787C11.9265 41.1228 11.8458 41.0722 11.7619 41.0274C11.7135 41.0006 11.6638 40.9765 11.6128 40.9552C11.5425 40.9222 11.4642 40.9096 11.3871 40.9191C11.3668 40.9196 11.3471 40.9256 11.33 40.9364C11.3129 40.9472 11.299 40.9624 11.2898 40.9804C11.2806 40.9984 11.2763 41.0186 11.2776 41.0387C11.2788 41.0589 11.2854 41.0784 11.2967 41.0952C11.3588 41.1624 11.4363 41.2136 11.5225 41.2442L11.6444 41.3097C11.728 41.3594 11.8025 41.4158 11.8702 41.4722C11.938 41.5287 12.0283 41.5829 12.096 41.6393C12.2125 41.7338 12.3427 41.8099 12.4821 41.8651C12.4884 41.8685 12.4953 41.8702 12.5024 41.8702C12.5095 41.8702 12.5165 41.8685 12.5227 41.8651C12.6379 41.7748 12.4686 41.5603 12.4031 41.4948Z" fill="#455A64"/>
</g>
</g>
<g id="Character">
<g id="character">
<path id="Vector_90" d="M84.3762 16.2723C83.3896 17.5999 82.0687 24.8996 81.5697 27.2409C79.1696 27.1709 75.959 27.0581 74.7443 26.9316C73.3896 26.7894 70.4973 26.5117 69.0771 26.7058C65.5526 27.1574 65.6903 29.4739 65.7761 30.079C65.8687 30.7699 66.3632 31.086 68.2598 30.6548C68.6841 30.5615 69.1168 30.5108 69.5512 30.5035C69.7341 30.5035 70.1202 30.4109 70.2647 30.5667C70.4905 30.7925 69.838 31.1718 69.6754 31.2757C69.4248 31.4383 69.1629 31.6437 69.111 31.9372C69.0961 31.9909 69.0969 32.0477 69.1133 32.101C69.1297 32.1542 69.161 32.2016 69.2035 32.2375C69.2954 32.2751 69.3984 32.2751 69.4903 32.2375C70.3559 32.0321 71.1909 31.714 71.9739 31.2915C72.2691 31.1135 72.5797 30.9624 72.9019 30.8399C73.3918 30.6819 73.8976 30.7745 74.3898 30.7745C75.4487 30.7745 81.0459 31.3299 83.5341 31.5828C85.2568 31.7566 85.4397 30.0565 86.0335 28.3337C86.7628 26.1978 88.49 14.965 88.49 14.965C86.747 14.7122 85.5503 14.6964 84.3762 16.2723Z" fill="#FFA8A7"/>
<path id="Vector_91" d="M88.5217 14.7917C87.6886 14.6382 85.8123 14.4056 84.7918 15.5459C83.7712 16.6861 83.5296 17.8827 83.0803 19.61C82.631 21.3372 81.834 24.4305 81.834 24.4305C81.834 24.4305 83.1503 26.3203 87.2709 25.7852L88.5217 14.7917Z" fill="#37474F"/>
<path id="Vector_92" d="M98.8647 74.4909L95.9679 74.4931L95.1348 68.205L98.7902 68.0605L98.8647 74.4909Z" fill="#FFA8A7"/>
<path id="Vector_93" d="M89.2451 71.3523C88.7529 72.2081 87.1701 72.1381 85.8583 71.8355L85.707 65.6535L89.5792 65.5L89.2451 71.3523Z" fill="#FFA8A7"/>
<path id="Vector_94" d="M98.666 34.7601C98.7698 37.4356 98.4154 53.2563 98.4154 53.2563C98.5124 54.024 99.3072 55.3629 99.472 58.1332C99.7136 62.1567 98.894 70.7365 98.894 70.7365C98.894 70.7365 97.2345 71.6035 95.4463 70.9397C95.4463 70.9397 93.6265 58.5216 92.9627 54.5523C92.3892 51.0978 91.6531 41.8316 91.6531 41.8316L90.2239 53.7079C90.4859 55.1136 90.5942 56.5437 90.5468 57.9729C90.4881 59.8198 89.4359 68.788 89.4359 68.788C88.2356 69.1807 86.9462 69.2113 85.7285 68.8761C85.7285 68.8761 84.866 54.9587 84.7667 53.2721C84.6538 51.3484 84.7306 34.3672 84.7306 34.3672L98.666 34.7601Z" fill="#18CBB5"/>
<path id="Vector_95" opacity="0.2" d="M91.6623 41.834C91.6623 41.834 89.1312 41.116 87.4062 39.5762C87.4062 39.5762 88.2146 40.9557 90.504 42.1795L90.3731 52.5452L91.6623 41.834Z" fill="black"/>
<path id="Vector_96" d="M92.6681 79.7381C92.5756 79.8329 92.6298 80.4583 92.7426 80.6209C92.8555 80.7835 93.5464 81.3344 94.7454 81.375C95.8901 81.4111 96.9016 81.217 97.5541 80.7654C98.2066 80.3138 98.5137 79.8329 98.5521 79.1849C98.5905 78.5369 98.4934 77.907 98.7779 77.3944C99.0465 76.9225 99.4823 76.3829 99.5704 76.1278C99.7668 75.5746 99.5275 74.8047 99.5275 74.8047L92.6681 79.7381Z" fill="#263238"/>
<path id="Vector_97" d="M95.5551 73.9405C95.5565 74.1874 95.5215 74.4331 95.4512 74.6698C95.2062 75.4398 94.8379 76.1649 94.3607 76.817C94.031 77.2392 93.6156 77.5937 93.2656 78.0024C92.8911 78.3899 92.6615 78.8946 92.6154 79.4316C92.6018 80.3347 93.5862 80.5944 94.3381 80.6982C95.1531 80.8057 95.9819 80.7286 96.763 80.4724C97.1745 80.3484 97.5413 80.1081 97.8193 79.7804C98.0973 79.4528 98.2747 79.0517 98.33 78.6255C98.3616 78.3749 98.33 78.122 98.3571 77.8714C98.4336 77.2958 98.6515 76.7481 98.9915 76.2774C99.1882 76.0049 99.3562 75.7129 99.4928 75.4058C99.7027 74.8414 99.4928 74.225 99.3212 73.6809C99.1744 73.209 99.0073 72.6739 98.8425 72.7258C98.8425 72.9764 98.8425 72.999 98.6822 73.1774C98.4564 73.4031 98.4677 73.717 98.2306 73.9134C98.2992 73.705 98.3461 73.4902 98.3706 73.2722C98.3817 73.1833 98.3601 73.0934 98.3097 73.0193C98.2281 72.953 98.1322 72.9067 98.0297 72.8838C97.6726 72.7783 97.3057 72.7095 96.9346 72.6784C96.5814 72.6319 96.223 72.6434 95.8734 72.7122C95.7701 72.7362 95.6778 72.7942 95.6115 72.8771C95.5534 72.9695 95.5243 73.0772 95.528 73.1864C95.528 73.3331 95.5528 73.7012 95.5551 73.9405Z" fill="#455A64"/>
<path id="Vector_98" d="M94.7031 76.3185C95.0282 76.0566 95.7733 76.0227 96.1842 76.052C96.6006 76.0709 97.0054 76.1952 97.3606 76.4133C97.4129 76.4483 97.476 76.4634 97.5385 76.4559C97.601 76.4485 97.6588 76.4189 97.7015 76.3727C97.7264 76.3463 97.7454 76.3149 97.757 76.2805C97.7686 76.2462 97.7726 76.2097 97.7687 76.1736C97.7649 76.1375 97.7532 76.1028 97.7346 76.0716C97.716 76.0405 97.6908 76.0138 97.6608 75.9933C97.2685 75.7274 96.8092 75.5771 96.3355 75.5598C95.3285 75.5305 95.0418 75.7134 95.0418 75.7134C95.0418 75.7134 94.5924 76.0249 94.7031 76.3185Z" fill="#F5F5F5"/>
<path id="Vector_99" d="M93.9688 77.2676C94.3774 77.0034 95.2015 77.0057 95.6102 77.0418C96.0198 77.0678 96.4153 77.2009 96.7572 77.4279C96.8092 77.4627 96.8719 77.4778 96.934 77.4703C96.9962 77.4628 97.0536 77.4334 97.0959 77.3873C97.1213 77.3613 97.1407 77.33 97.1527 77.2957C97.1647 77.2614 97.169 77.2248 97.1654 77.1886C97.1617 77.1525 97.1502 77.1175 97.1315 77.0863C97.1129 77.0551 97.0876 77.0283 97.0575 77.008C96.6585 76.7281 96.1893 76.5655 95.7028 76.5383C94.6935 76.5067 94.4406 76.7212 94.4406 76.7212C94.3259 76.7709 94.2239 76.8459 94.1422 76.9405C94.0605 77.0351 94.0012 77.1469 93.9688 77.2676Z" fill="#F5F5F5"/>
<path id="Vector_100" d="M96.6952 74.5854C96.269 74.5273 95.8351 74.5802 95.4353 74.739C95.2637 74.8451 95.1576 75.1296 95.2728 75.1906C95.6225 75.0335 96.0057 74.9652 96.3881 74.9919C96.766 75.014 97.1372 75.1011 97.4854 75.2493C97.5735 75.2831 97.6774 75.3328 97.7677 75.378C97.7966 75.3927 97.8282 75.4015 97.8606 75.4037C97.893 75.4059 97.9255 75.4014 97.9561 75.3907C97.9867 75.3799 98.0148 75.363 98.0387 75.341C98.0626 75.319 98.0818 75.2924 98.0951 75.2628C98.1164 75.2115 98.1181 75.1541 98.0998 75.1016C98.0815 75.0491 98.0444 75.0052 97.9957 74.9783C97.5955 74.7554 97.1519 74.6214 96.6952 74.5854Z" fill="#F5F5F5"/>
<path id="Vector_101" d="M79.241 75.2087C79.1384 75.4668 79.1384 75.7544 79.241 76.0125C79.3403 76.2541 80.537 77.0037 82.1988 76.9721C83.4345 76.942 84.6398 76.5819 85.6894 75.9289C86.3419 75.5406 87.0034 75.4932 87.8253 75.4774C88.6472 75.4616 89.7445 75.1116 89.9432 74.7368C90.1418 74.362 89.9657 73.6914 89.9657 73.6914L79.241 75.2087Z" fill="#263238"/>
<path id="Vector_102" d="M86.1707 70.3528L86.042 70.3189C85.9689 70.2968 85.8921 70.2898 85.8162 70.2986C85.7349 70.3181 85.6615 70.3623 85.6062 70.425C85.4353 70.6253 85.2841 70.8415 85.1547 71.0708C84.7821 71.6194 84.0257 72.0552 83.2129 72.4458C82.6575 72.71 82.1179 72.9109 81.5466 73.1344C80.9754 73.358 80.1919 73.4844 79.7403 73.7644C79.063 74.1731 78.9343 75.2681 79.6523 75.7377C80.2755 76.1442 81.9372 76.6296 83.7164 76.2141C84.6895 75.9884 85.8049 75.013 87.0693 74.9746C87.8753 74.9498 89.4017 74.7962 89.9458 74.2114C90.1513 73.9518 89.9458 73.0825 89.7629 72.3329C89.5733 71.5156 89.659 70.3009 89.2933 70.3009L89.2707 70.7095C89.2368 70.8315 88.9501 70.9511 88.8598 71.0459L88.5346 71.3891C88.4014 71.548 88.2389 71.6799 88.056 71.7775C87.7331 71.922 87.3561 71.8362 87.0106 71.7459C86.9971 71.7459 87.1845 71.1182 87.2048 71.0572C87.2251 71.0096 87.2314 70.9571 87.2228 70.906C87.2055 70.8559 87.1711 70.8136 87.1257 70.7863C86.8407 70.5774 86.5155 70.4298 86.1707 70.3528Z" fill="#455A64"/>
<path id="Vector_103" d="M83.9883 72.0453C84.0515 71.9378 84.1406 71.8478 84.2474 71.7835C84.3543 71.7192 84.4756 71.6827 84.6002 71.6773C84.9682 71.6276 85.5981 71.9257 85.9842 72.2756C86.0206 72.3084 86.0485 72.3496 86.0653 72.3957C86.0821 72.4417 86.0874 72.4911 86.0807 72.5397C86.074 72.5882 86.0556 72.6344 86.0269 72.6742C85.9983 72.7139 85.9604 72.7461 85.9165 72.7678C85.8614 72.7951 85.7992 72.8046 85.7385 72.7949C85.6778 72.7851 85.6216 72.7568 85.5778 72.7137C85.155 72.2927 84.5849 72.0529 83.9883 72.0453Z" fill="#F5F5F5"/>
<path id="Vector_104" d="M82.8223 72.6254C82.9069 72.5172 83.0163 72.431 83.1413 72.374C83.2662 72.317 83.4031 72.2909 83.5403 72.298C83.5403 72.298 84.4931 72.3703 85.0553 72.9483C85.09 72.9799 85.1165 73.0196 85.1326 73.0637C85.1487 73.1079 85.1538 73.1553 85.1476 73.2019C85.1414 73.2484 85.124 73.2928 85.0969 73.3312C85.0698 73.3696 85.0338 73.4009 84.992 73.4224C84.9387 73.4484 84.8787 73.4573 84.8202 73.448C84.7616 73.4388 84.7073 73.4117 84.6647 73.3705C84.4333 73.1158 84.1475 72.9166 83.8285 72.7876C83.5096 72.6586 83.1656 72.6032 82.8223 72.6254Z" fill="#F5F5F5"/>
<path id="Vector_105" d="M81.5469 73.1366C81.6428 73.0373 81.759 72.9599 81.8876 72.9096C82.0162 72.8593 82.1541 72.8374 82.292 72.8453C82.8318 72.9049 83.339 73.1332 83.7415 73.4978C83.7762 73.5298 83.8027 73.5696 83.8188 73.6139C83.8348 73.6582 83.84 73.7057 83.8338 73.7525C83.8276 73.7992 83.8102 73.8438 83.7831 73.8824C83.7561 73.921 83.7201 73.9525 83.6783 73.9742C83.6249 74.0006 83.5646 74.0096 83.5059 73.9998C83.4471 73.9901 83.3929 73.9622 83.3509 73.9201C83.1317 73.6583 82.8546 73.4512 82.5415 73.3152C82.2283 73.1792 81.8878 73.118 81.5469 73.1366Z" fill="#F5F5F5"/>
<path id="Vector_106" d="M93.3414 14.8401C94.4071 14.962 95.667 15.0275 96.6853 15.1607C97.9971 15.3323 99.0199 16.6892 99.3405 18.789C99.6927 21.101 98.2116 27.7301 98.2116 27.7301L98.6835 35.5467C96.762 36.9624 88.5796 37.7052 84.502 34.761C84.502 34.761 84.5968 21.4578 84.9151 19.4077C85.3532 16.5967 86.0441 14.8513 89.205 14.6504L93.3414 14.8401Z" fill="#455A64"/>
<path id="Vector_107" d="M100.634 31.7744C100.288 32.3524 99.9406 32.9304 99.5839 33.5017C99.4529 33.7139 99.3197 33.9239 99.182 34.1316C99.1073 34.2333 99.0201 34.3251 98.9224 34.4048C98.7508 34.5222 98.394 34.4477 98.1863 34.4545C97.1658 34.4891 96.1482 34.5643 95.1337 34.6802C95.0488 34.6776 94.9644 34.6936 94.8863 34.7272C94.8083 34.7607 94.7386 34.811 94.6821 34.8744C94.6404 34.9618 94.6321 35.0615 94.6587 35.1546C94.6853 35.2478 94.745 35.328 94.8266 35.3802C94.9928 35.4799 95.1816 35.5359 95.3753 35.5427L96.2558 35.6466C96.3815 35.6508 96.5034 35.6899 96.6081 35.7595C96.9287 36.0191 96.3168 36.3307 96.1339 36.4572C95.7661 36.7127 95.3735 36.9305 94.9621 37.1074C93.1265 37.8796 92.9029 38.4396 93.2416 39.0763C93.5351 39.6294 94.8041 41.6412 98.0283 39.9094C99.3265 39.2117 101.302 37.0081 102.203 35.9424C103.499 34.4048 105.691 30.9751 105.691 30.9751C106.938 29.2637 107.098 28.5615 107.127 27.8503C107.157 27.1391 103.289 21.6683 101.975 19.7469C100.661 17.8254 100.035 15.4886 96.6916 15.168C96.6916 15.168 95.4182 19.205 97.527 21.8173L102.397 28.6112C102.397 28.6112 101.108 30.9819 100.634 31.7744Z" fill="#FFA8A7"/>
<path id="Vector_108" d="M104.169 22.3528C103.543 21.4497 102.891 20.5194 102.261 19.5982C99.6079 15.726 99.8315 15.0171 96.0067 14.9629C95.668 15.4822 95.4671 17.7175 95.9773 19.9618C96.4041 21.8471 98.0094 23.1769 98.0094 23.1769L99.924 25.7712C99.924 25.7712 101.096 25.7351 102.5 24.7055C103.311 24.1373 103.901 23.3061 104.169 22.3528Z" fill="#37474F"/>
<path id="Vector_109" d="M95.8607 4.66502C95.6684 4.37852 95.402 4.14952 95.0899 4.00241C94.7778 3.8553 94.4316 3.79558 94.0883 3.82962L93.8896 8.67721L93.5645 10.4677L93.6209 12.4614C93.8096 12.4347 93.9885 12.3606 94.1409 12.2461C94.2933 12.1316 94.4142 11.9804 94.4924 11.8066C94.7905 11.2331 95.6213 8.46046 95.6213 8.46046C96.3664 6.18229 96.2084 5.15272 95.8607 4.66502Z" fill="#263238"/>
<path id="Vector_110" d="M93.6702 8.69959C93.754 8.40497 93.9154 8.13827 94.1376 7.92741C94.4153 7.62937 95.5216 7.3065 96.0251 8.24576C96.5286 9.18503 95.6797 10.4246 95.0249 10.8039C94.1873 11.2916 93.6951 10.6278 93.6951 10.6278L93.7154 15.0915C93.3248 15.9947 91.5614 16.7985 90.5115 16.672C89.6761 16.5659 88.9062 15.9089 89.6535 14.9516L89.5926 13.6781C89.5926 13.6781 88.4749 13.9039 87.9218 13.8475C87.0028 13.7526 86.3909 13.0595 86.0658 12.0841C85.542 10.5172 85.3094 9.24373 85.5307 6.10081C85.7745 2.6576 89.7551 2.42505 91.9746 3.67137C94.194 4.9177 93.6702 8.69959 93.6702 8.69959Z" fill="#FFA8A7"/>
<path id="Vector_111" d="M84.2685 2.52373C84.1669 1.77187 84.4266 0.965821 85.2146 0.699396C85.5037 0.578429 85.8212 0.541589 86.1303 0.593118C86.4395 0.644647 86.7279 0.782449 86.9621 0.990657C87.0609 0.725406 87.2317 0.492965 87.4554 0.319454C87.679 0.145944 87.9466 0.0382421 88.2281 0.0084524C88.5096 -0.0213373 88.7938 0.027966 89.0488 0.150822C89.3038 0.273677 89.5194 0.465216 89.6716 0.703911C89.8808 0.386002 90.2041 0.16052 90.5747 0.0739731C90.8032 0.0229477 91.0396 0.0182367 91.27 0.0601191C91.5003 0.102002 91.7199 0.189627 91.9159 0.31782C92.2365 0.554893 92.6135 0.995173 92.5187 1.56641C93.1532 1.31127 93.8147 1.52351 94.2866 2.08345C94.5674 2.42634 94.7263 2.85287 94.7382 3.29591C94.7545 3.52604 94.7214 3.757 94.6411 3.97327C94.5508 4.17873 94.3656 4.3142 94.3114 4.54676C94.2326 4.75137 94.192 4.96872 94.1918 5.18799C94.2437 5.5673 94.3272 5.94662 94.3769 6.31691C94.4303 6.68572 94.4613 7.05745 94.4695 7.43003C94.4577 7.51765 94.4272 7.60171 94.3801 7.67651C94.3329 7.75131 94.2702 7.81509 94.1963 7.86353C93.9855 8.04789 93.8221 8.28019 93.7199 8.54088C93.6408 8.70345 93.5641 9.10534 93.4083 9.21824C92.9274 9.55466 92.8732 8.46637 92.8506 8.2564C92.8197 7.77447 92.8197 7.29105 92.8506 6.80912C92.6081 6.80599 92.3689 6.75214 92.1484 6.65104C91.9279 6.54993 91.731 6.40382 91.5704 6.22208C91.4038 6.01785 91.294 5.77331 91.252 5.51312C91.226 5.36404 91.2139 5.21287 91.2159 5.06155C90.9021 5.58085 90.1728 5.79309 89.6535 5.7389C88.782 5.65988 88.4817 5.28733 88.3417 5.01413C88.2866 5.28342 88.1682 5.53573 87.9962 5.75019C87.7736 5.95939 87.5054 6.11399 87.2128 6.20176C86.9604 6.26911 86.6944 6.26644 86.4434 6.19404C86.1924 6.12165 85.9658 5.98225 85.7881 5.79083C85.4336 6.29885 84.535 6.07306 84.3363 5.93082C83.8847 5.60343 83.7379 5.21282 83.6883 4.65514C83.6386 4.09745 83.8644 3.46074 84.483 3.24173C84.3715 3.01622 84.299 2.77345 84.2685 2.52373Z" fill="#263238"/>
<path id="Vector_112" d="M89.5938 13.6715C89.5938 13.6715 91.6123 13.1612 92.3032 12.7458C92.7118 12.5065 93.0384 12.1491 93.2402 11.7207C93.153 12.1433 92.9817 12.5441 92.7367 12.8993C92.249 13.5925 89.6163 14.2156 89.6163 14.2156L89.5938 13.6715Z" fill="#F28F8F"/>
<path id="Vector_113" d="M89.7058 8.54917C89.7135 8.63469 89.7461 8.71609 89.7996 8.78324C89.8531 8.8504 89.9251 8.90034 90.0068 8.92687C90.0884 8.95341 90.1761 8.95535 90.2589 8.93247C90.3416 8.90959 90.4158 8.86289 90.4723 8.79817C90.5287 8.73346 90.5649 8.65359 90.5763 8.56848C90.5877 8.48338 90.5738 8.39681 90.5364 8.31951C90.499 8.24222 90.4397 8.17763 90.3659 8.13376C90.2921 8.08989 90.207 8.06868 90.1213 8.07276C90.0035 8.08202 89.894 8.13709 89.8163 8.22615C89.7386 8.31522 89.699 8.43119 89.7058 8.54917Z" fill="#263238"/>
<path id="Vector_114" d="M89.0286 11.8164C89.0389 11.9265 89.0814 12.0312 89.1507 12.1174C89.22 12.2036 89.3132 12.2676 89.4186 12.3013C89.5239 12.335 89.6369 12.337 89.7434 12.3071C89.8499 12.2771 89.9452 12.2165 90.0176 12.1328C90.09 12.0491 90.1361 11.946 90.1504 11.8363C90.1646 11.7266 90.1463 11.6151 90.0977 11.5157C90.0491 11.4163 89.9723 11.3334 89.877 11.2773C89.7817 11.2211 89.6719 11.1943 89.5614 11.2C89.4094 11.2121 89.2683 11.2836 89.1686 11.3989C89.0689 11.5143 89.0186 11.6642 89.0286 11.8164Z" fill="#F28F8F"/>
<path id="Vector_115" d="M90.0684 7.04545L90.9986 7.49702C91.0565 7.36952 91.0633 7.22463 91.0175 7.09228C90.9717 6.95993 90.8768 6.85022 90.7525 6.7858C90.6908 6.75629 90.6237 6.73961 90.5554 6.73677C90.487 6.73392 90.4188 6.74497 90.3549 6.76924C90.2909 6.79351 90.2325 6.8305 90.1833 6.87798C90.1341 6.92546 90.095 6.98243 90.0684 7.04545Z" fill="#263238"/>
<path id="Vector_116" d="M86.0196 7.43766L86.8121 6.76031C86.7708 6.70628 86.7189 6.66126 86.6595 6.62803C86.6002 6.5948 86.5346 6.57406 86.467 6.56709C86.3993 6.56011 86.3309 6.56704 86.266 6.58745C86.2011 6.60787 86.1411 6.64134 86.0896 6.6858C85.9839 6.77833 85.9177 6.90789 85.9047 7.04778C85.8917 7.18766 85.9328 7.32721 86.0196 7.43766Z" fill="#263238"/>
<path id="Vector_117" d="M86.2603 8.46189C86.2657 8.54541 86.2958 8.62545 86.3466 8.69196C86.3974 8.75846 86.4667 8.80846 86.5459 8.83567C86.6251 8.86287 86.7105 8.86607 86.7915 8.84485C86.8724 8.82364 86.9453 8.77896 87.0009 8.71644C87.0566 8.65392 87.0925 8.57634 87.1042 8.49346C87.1159 8.41058 87.1028 8.3261 87.0666 8.25064C87.0304 8.17517 86.9727 8.1121 86.9007 8.06934C86.8288 8.02658 86.7458 8.00605 86.6622 8.01032C86.5494 8.01788 86.444 8.06944 86.3689 8.1539C86.2937 8.23836 86.2547 8.34896 86.2603 8.46189Z" fill="#263238"/>
<path id="Vector_118" d="M88.3508 7.96094L88.3372 10.632L86.9238 10.2256L88.3508 7.96094Z" fill="#F28F8F"/>
<path id="Vector_119" d="M84.8101 11.6983C84.8232 11.6954 84.8355 11.6899 84.8463 11.6822C84.8572 11.6744 84.8664 11.6646 84.8734 11.6532C84.8814 11.642 84.8871 11.6293 84.89 11.6159C84.893 11.6025 84.8933 11.5886 84.8907 11.5751C84.8882 11.5616 84.883 11.5488 84.8753 11.5373C84.8677 11.5259 84.8578 11.5162 84.8463 11.5087L83.618 10.6913C83.6066 10.6837 83.5938 10.6784 83.5804 10.6758C83.5669 10.6731 83.5531 10.6732 83.5396 10.6759C83.5262 10.6786 83.5134 10.684 83.5021 10.6917C83.4907 10.6994 83.481 10.7092 83.4735 10.7207C83.4656 10.732 83.46 10.7448 83.4572 10.7583C83.4544 10.7718 83.4544 10.7857 83.4571 10.7992C83.4599 10.8128 83.4653 10.8256 83.4732 10.8369C83.4811 10.8483 83.4911 10.8579 83.5028 10.8652L84.7289 11.6825C84.7404 11.691 84.7537 11.6968 84.7677 11.6995C84.7818 11.7023 84.7963 11.7018 84.8101 11.6983Z" fill="#E0E0E0"/>
<path id="Vector_120" d="M84.6744 12.2261C84.6935 12.2213 84.7109 12.2114 84.7248 12.1975C84.7388 12.1836 84.7486 12.1661 84.7534 12.147C84.7595 12.1198 84.7546 12.0913 84.7398 12.0676C84.725 12.0439 84.7015 12.027 84.6744 12.0206L83.2384 11.6887C83.225 11.6853 83.2111 11.6847 83.1975 11.6867C83.1839 11.6888 83.1709 11.6935 83.1591 11.7006C83.1473 11.7078 83.1371 11.7172 83.129 11.7283C83.1209 11.7394 83.1151 11.7521 83.1119 11.7655C83.1058 11.7927 83.1107 11.8212 83.1255 11.8449C83.1403 11.8686 83.1638 11.8854 83.191 11.8919L84.627 12.2261C84.6427 12.2283 84.6586 12.2283 84.6744 12.2261Z" fill="#E0E0E0"/>
<path id="Vector_121" d="M83.3397 13.1813H83.3533L84.7373 12.6755C84.7634 12.6659 84.7846 12.6464 84.7962 12.6212C84.8079 12.596 84.809 12.5672 84.7994 12.5412C84.7899 12.5151 84.7703 12.494 84.7451 12.4823C84.7199 12.4707 84.6911 12.4695 84.6651 12.4791L83.281 12.9848C83.268 12.9896 83.2561 12.9969 83.246 13.0063C83.2359 13.0158 83.2277 13.0271 83.222 13.0398C83.2164 13.0524 83.2133 13.066 83.2129 13.0798C83.2126 13.0937 83.215 13.1074 83.2201 13.1203C83.2296 13.143 83.2468 13.1616 83.2687 13.1727C83.2906 13.1839 83.3158 13.1869 83.3397 13.1813Z" fill="#E0E0E0"/>
<path id="Vector_122" d="M71.635 24.012C71.6636 24.0692 71.7083 24.1169 71.7636 24.1491C71.819 24.1812 71.8825 24.1964 71.9465 24.1928C72.0104 24.1892 72.0718 24.1669 72.1232 24.1288C72.1746 24.0906 72.2137 24.0382 72.2356 23.9781L73.2652 21.438C73.2819 21.3973 73.2902 21.3536 73.2897 21.3096C73.2891 21.2656 73.2797 21.2221 73.262 21.1819C73.2442 21.1416 73.2186 21.1053 73.1865 21.0751C73.1544 21.045 73.1166 21.0216 73.0753 21.0064C73.034 20.9912 72.99 20.9845 72.946 20.9867C72.9021 20.9889 72.859 20.9999 72.8194 21.0192C72.7798 21.0384 72.7445 21.0654 72.7156 21.0985C72.6866 21.1317 72.6647 21.1704 72.651 21.2122L71.6192 23.7523C71.604 23.7944 71.5975 23.8391 71.6002 23.8838C71.6029 23.9284 71.6148 23.9721 71.635 24.012Z" fill="#E0E0E0"/>
<path id="Vector_123" d="M69.9385 23.9989C69.9714 24.0655 70.0259 24.1189 70.0931 24.1504C70.1604 24.1819 70.2363 24.1896 70.3085 24.1723C70.3807 24.155 70.4448 24.1136 70.4904 24.055C70.536 23.9964 70.5603 23.9241 70.5594 23.8499L70.5256 20.6889C70.5187 20.6071 70.4814 20.5308 70.421 20.4751C70.3606 20.4195 70.2814 20.3887 70.1993 20.3887C70.1172 20.3887 70.038 20.4195 69.9776 20.4751C69.9172 20.5308 69.8799 20.6071 69.873 20.6889L69.9047 23.8499C69.904 23.9015 69.9156 23.9526 69.9385 23.9989Z" fill="#E0E0E0"/>
<path id="Vector_124" d="M67.0596 22.2409L67.08 22.2793L68.6356 24.5371C68.6838 24.6086 68.7583 24.6582 68.8428 24.6751C68.9274 24.692 69.0152 24.6749 69.0872 24.6274C69.1574 24.5781 69.2057 24.5036 69.2221 24.4194C69.2386 24.3352 69.2218 24.2479 69.1752 24.1759L67.6196 21.918C67.5743 21.848 67.5038 21.7981 67.4227 21.7786C67.3416 21.759 67.2561 21.7714 67.1838 21.8132C67.1116 21.855 67.0582 21.9229 67.0347 22.0029C67.0112 22.0829 67.0193 22.169 67.0574 22.2432L67.0596 22.2409Z" fill="#E0E0E0"/>
</g>
</g>
</g>
</svg>
