<svg width="16" height="16" viewBox="0 0 16 16" fill="none" xmlns="http://www.w3.org/2000/svg">
<path opacity="0.4" d="M10.5194 6.19216L10.5194 6.19215L10.5171 6.19342L8.47042 7.30007L8.46881 7.30095C8.32307 7.38044 8.16551 7.41991 8.00157 7.41991C7.83762 7.41991 7.68007 7.38044 7.53433 7.30094L7.53212 7.29975L3.34032 5.04057C3.34012 5.04047 3.33992 5.04036 3.33973 5.04025C3.19794 4.96291 3.10156 4.80716 3.10156 4.62657C3.10156 4.44603 3.19789 4.2903 3.33957 4.21294L4.65181 3.50686L4.65181 3.50687L4.65294 3.50625L5.69852 2.94019L5.69961 2.9396L7.53185 1.95354L7.53186 1.95355L7.53433 1.9522C7.82509 1.7936 8.17804 1.7936 8.46881 1.9522L8.4688 1.95221L8.47102 1.9534L12.6628 4.21253C12.663 4.21264 12.6632 4.21275 12.6634 4.21286C12.8052 4.29019 12.9016 4.44597 12.9016 4.62657C12.9016 4.80725 12.8051 4.96306 12.6632 5.04036C12.6631 5.04043 12.6629 5.0405 12.6628 5.04057L11.5061 5.66547L11.5039 5.66664L10.5194 6.19216Z" fill="#007AFF" stroke="#007AFF"/>
<path opacity="0.4" d="M6.59916 8.52659L2.69916 6.57326C2.39916 6.41993 2.0525 6.43992 1.76583 6.61326C1.47916 6.78659 1.3125 7.09328 1.3125 7.42661V11.1133C1.3125 11.7533 1.66582 12.3266 2.23916 12.6133L6.13916 14.56C6.27249 14.6266 6.41917 14.6599 6.56584 14.6599C6.73917 14.6599 6.9125 14.6133 7.06584 14.5133C7.3525 14.3399 7.51917 14.0333 7.51917 13.6999V10.0133C7.52583 9.38661 7.1725 8.81325 6.59916 8.52659Z" fill="#007AFF"/>
<path opacity="0.4" d="M14.686 7.43327V11.1199C14.686 11.7533 14.3327 12.3266 13.7593 12.6132L9.85933 14.5666C9.726 14.6332 9.57932 14.6666 9.43266 14.6666C9.25932 14.6666 9.08601 14.6199 8.92601 14.5199C8.64601 14.3466 8.47266 14.0399 8.47266 13.7066V10.0266C8.47266 9.38658 8.826 8.81324 9.39933 8.52658L10.8327 7.81324L11.8327 7.31324L13.2993 6.57992C13.5993 6.42659 13.946 6.43992 14.2327 6.61992C14.5127 6.79325 14.686 7.09994 14.686 7.43327Z" fill="#007AFF"/>
<path d="M11.7407 6.10665L10.7541 6.63334L4.41406 3.06665L5.46073 2.5L11.5807 5.95333C11.6474 5.99333 11.7007 6.04665 11.7407 6.10665Z" fill="#007AFF"/>
<path d="M11.832 7.31323V8.82658C11.832 9.09991 11.6054 9.32658 11.332 9.32658C11.0587 9.32658 10.832 9.09991 10.832 8.82658V7.81323L11.832 7.31323Z" fill="#007AFF"/>
</svg>
