<svg width="16" height="16" viewBox="0 0 16 16" fill="none" xmlns="http://www.w3.org/2000/svg">
<path opacity="0.4" d="M12.3516 4.22012H12.4458H12.5587H12.8254C13.1392 4.22012 13.4696 4.22927 13.7259 4.37102C13.8405 4.43436 13.9416 4.5261 14.0187 4.67275C14.0983 4.82419 14.1654 5.05977 14.1654 5.42679C14.1654 5.93056 14.0683 6.19735 13.9702 6.33996C13.8817 6.46849 13.758 6.54634 13.5683 6.59241C13.4296 6.62159 13.2759 6.63345 13.092 6.63345H2.90536C2.70973 6.63345 2.55413 6.62581 2.42268 6.59408L2.4227 6.59403L2.41549 6.5924C2.27565 6.56082 2.18032 6.51121 2.10606 6.43385L2.10613 6.43378L2.09892 6.42657C1.95542 6.28307 1.83203 6.01691 1.83203 5.42679C1.83203 5.05975 1.89909 4.82425 1.97871 4.6729C2.05579 4.52637 2.15701 4.43463 2.2719 4.37124C2.52917 4.2293 2.86119 4.22012 3.1787 4.22012H3.44536H3.55159H3.65291H4.7587H11.2387H12.3516Z" fill="#FF3B2F" stroke="#FF3B2F"/>
<path d="M2.90702 7.63324C2.90754 7.63324 2.90807 7.63324 2.90859 7.63324H13.0777L12.1977 12.185L12.1974 12.1864C12.0781 12.8129 11.9365 13.2793 11.6326 13.6042C11.3491 13.9073 10.8434 14.1666 9.80193 14.1666H6.06193C5.05852 14.1666 4.52735 13.8732 4.21665 13.5285C3.88781 13.1637 3.73406 12.6644 3.64182 12.1179C3.64176 12.1175 3.6417 12.1172 3.64163 12.1168L2.90702 7.63324ZM8.92859 12.5732C9.17944 12.5732 9.43418 12.4798 9.63245 12.2831C10.0361 11.8898 10.0264 11.2573 9.63548 10.8664L9.42237 10.6532L9.61548 10.4601C10.0041 10.0715 10.0041 9.43495 9.61548 9.04636C9.22689 8.65776 8.5903 8.65776 8.20171 9.04636L8.00859 9.23947L7.79548 9.02636C7.40689 8.63776 6.7703 8.63776 6.38171 9.02636C5.99311 9.41495 5.99311 10.0515 6.38171 10.4401L6.59482 10.6532L6.36171 10.8864C5.97311 11.275 5.97311 11.9115 6.36171 12.3001C6.56042 12.4988 6.81648 12.5932 7.06859 12.5932C7.32071 12.5932 7.57677 12.4988 7.77548 12.3001L8.00859 12.067L8.22171 12.2801C8.42042 12.4788 8.67647 12.5732 8.92859 12.5732Z" fill="#FF3B2F" stroke="#FF3B2F"/>
</svg>
