<svg width="16" height="16" viewBox="0 0 16 16" fill="none" xmlns="http://www.w3.org/2000/svg">
<path opacity="0.4" d="M7.99932 7.70227L2.67769 4.6235C2.86705 4.37982 3.08362 4.1847 3.30157 4.06398L3.30173 4.0639L6.86173 2.09056L6.86173 2.09057L6.86409 2.08924C7.15097 1.92819 7.56118 1.83325 7.99932 1.83325C8.43746 1.83325 8.84768 1.92819 9.13455 2.08924L9.13455 2.08925L9.13692 2.09056L12.6969 4.0639L12.6971 4.06398C12.915 4.1847 13.1316 4.37982 13.321 4.6235L7.99932 7.70227Z" fill="#FF7201" stroke="#FF7201"/>
<path opacity="0.6" d="M7.50042 14.1239C7.2576 14.0813 7.03881 14.008 6.86519 13.9105L6.86282 13.9092L3.30282 11.9359L3.30262 11.9358C2.99598 11.766 2.68798 11.448 2.45528 11.0534C2.22257 10.6587 2.09375 10.2358 2.09375 9.88655V6.11321C2.09375 5.92731 2.13189 5.71964 2.20436 5.50428L7.50042 8.56826V14.1239Z" fill="#FF7201" stroke="#FF7201"/>
<path d="M14.4067 6.11321V9.88655C14.4067 10.8065 13.7467 11.9265 12.94 12.3732L9.38 14.3465C9 14.5599 8.5 14.6665 8 14.6665V8.27988L14.0267 4.79321C14.26 5.21988 14.4067 5.68655 14.4067 6.11321Z" fill="#FF7201"/>
</svg>
