<svg width="16" height="16" viewBox="0 0 16 16" fill="none" xmlns="http://www.w3.org/2000/svg">
<g id="vuesax/twotone/box-add">
<g id="box-add">
<path id="Vector" d="M15.3333 12.0007C15.3333 12.5007 15.1933 12.974 14.9467 13.374C14.8067 13.614 14.6267 13.8273 14.42 14.0007C13.9533 14.4207 13.34 14.6673 12.6667 14.6673C11.8533 14.6673 11.1267 14.3007 10.6467 13.7273C10.6333 13.7073 10.6133 13.694 10.6 13.674C10.52 13.5807 10.4467 13.4806 10.3867 13.374C10.14 12.974 10 12.5007 10 12.0007C10 11.1607 10.3867 10.4073 11 9.92065C11.46 9.55399 12.04 9.33398 12.6667 9.33398C13.3333 9.33398 13.9333 9.57396 14.4 9.98063C14.48 10.0406 14.5533 10.114 14.62 10.1873C15.06 10.6673 15.3333 11.3007 15.3333 12.0007Z" stroke="#008172" stroke-width="1.2" stroke-miterlimit="10" stroke-linecap="round" stroke-linejoin="round"/>
<g id="Group">
<path id="Vector_2" d="M13.6605 11.9863H11.6738" stroke="#008172" stroke-width="1.2" stroke-miterlimit="10" stroke-linecap="round" stroke-linejoin="round"/>
<path id="Vector_3" d="M12.668 11.0137V13.007" stroke="#008172" stroke-width="1.2" stroke-miterlimit="10" stroke-linecap="round" stroke-linejoin="round"/>
</g>
<g id="Group 143" opacity="0.4">
<path id="Vector_4" d="M2.11328 4.96094L7.99995 8.36759L13.8466 4.98092" stroke="#008172" stroke-width="1.5" stroke-linecap="round" stroke-linejoin="round"/>
<path id="Vector_5" d="M8 14.408V8.36133" stroke="#008172" stroke-width="1.5" stroke-linecap="round" stroke-linejoin="round"/>
<path id="Vector_6" d="M14.4071 6.11399V9.88734C14.4071 9.92068 14.4071 9.94731 14.4004 9.98064C13.9338 9.57398 13.3337 9.334 12.6671 9.334C12.0404 9.334 11.4604 9.554 11.0004 9.92067C10.3871 10.4073 10.0004 11.1607 10.0004 12.0007C10.0004 12.5007 10.1404 12.974 10.3871 13.374C10.4471 13.4807 10.5204 13.5807 10.6004 13.674L9.38042 14.3473C8.62042 14.774 7.38041 14.774 6.62041 14.3473L3.06041 12.374C2.25375 11.9273 1.59375 10.8073 1.59375 9.88734V6.11399C1.59375 5.19399 2.25375 4.074 3.06041 3.62733L6.62041 1.65398C7.38041 1.22732 8.62042 1.22732 9.38042 1.65398L12.9404 3.62733C13.7471 4.074 14.4071 5.19399 14.4071 6.11399Z" stroke="#008172" stroke-width="1.5" stroke-linecap="round" stroke-linejoin="round"/>
</g>
</g>
</g>
</svg>
