<svg width="16" height="16" viewBox="0 0 16 16" fill="none" xmlns="http://www.w3.org/2000/svg">
<path d="M14.1033 10.5699L14.1033 10.5699L14.1052 10.5718C14.5867 11.0482 14.8313 11.6795 14.8338 12.3077L14.8056 12.6178C14.7561 13.162 14.52 13.6861 14.1033 14.1028L14.1032 14.1027L14.0964 14.1098C13.9611 14.2505 13.8124 14.3667 13.657 14.4547L13.6569 14.4546L13.6463 14.461C13.4202 14.5966 13.1792 14.697 12.9356 14.7579L12.9348 14.7581C12.1187 14.9636 11.2146 14.747 10.5704 14.1028L10.5704 14.1028L10.5681 14.1005C10.154 13.6919 9.92392 13.1782 9.87018 12.6457V12.4426L9.848 12.4204C9.83367 12.1929 9.85556 11.9657 9.91388 11.743L9.91393 11.743L9.91563 11.7361C10.0223 11.3038 10.2396 10.8952 10.5674 10.5729L10.5674 10.5729L10.5704 10.5699C11.0498 10.0905 11.6772 9.84187 12.3013 9.83634L12.3013 9.83636L12.3054 9.83629C12.9522 9.82523 13.6075 10.0741 14.1033 10.5699ZM14.8102 12.6364V12.643C14.8102 12.6482 14.8099 12.6451 14.8102 12.6364ZM9.85833 12.5814C9.86034 12.5959 9.8621 12.6109 9.86316 12.6244L9.60062 12.6485L9.85833 12.5814ZM9.51941 12.6697H9.8598C9.85436 12.7162 9.84273 12.7821 9.82741 12.8296C9.79972 12.8875 9.70353 13.0096 9.63073 13.0657C9.58896 13.0885 9.512 13.1156 9.45044 13.1311C9.41437 12.9918 9.38888 12.8502 9.37391 12.7076L9.51941 12.6697ZM12.43 13.8299L12.4299 13.83L12.436 13.8359C12.8265 14.2133 13.4519 14.2218 13.8437 13.8299C14.239 13.4347 14.239 12.8047 13.8437 12.4095L13.8438 12.4095L13.841 12.4068L13.7628 12.3298L13.8276 12.266L13.8277 12.2661L13.8363 12.2572C14.217 11.8634 14.217 11.2426 13.8363 10.8488L13.8304 10.8427L13.8244 10.8369C13.4306 10.4562 12.8098 10.4562 12.416 10.8369L12.4159 10.8367L12.4072 10.8456L12.3434 10.9104L12.2664 10.8322L12.2664 10.8322L12.2637 10.8295C11.8685 10.4342 11.2386 10.4342 10.8433 10.8295C10.4515 11.2213 10.4599 11.8468 10.8374 12.2372L10.8373 12.2373L10.8433 12.2433L10.9297 12.3297L10.83 12.4295L10.83 12.4295C10.44 12.8194 10.4294 13.4497 10.8299 13.8433C11.2235 14.2438 11.8538 14.2332 12.2437 13.8432L12.3435 13.7435L12.43 13.8299Z" fill="#FF7201" stroke="#FF7201"/>
<path opacity="0.4" d="M12.9016 3.77591L8.70823 1.51594C8.26823 1.27594 7.7349 1.27594 7.28823 1.51594L3.09491 3.77591C2.78824 3.94257 2.60156 4.26926 2.60156 4.62926C2.60156 4.98926 2.78824 5.3159 3.09491 5.48257L7.28823 7.74258C7.50823 7.86258 7.75489 7.92259 7.99489 7.92259C8.23489 7.92259 8.48156 7.86258 8.70156 7.74258L12.8949 5.48257C13.2016 5.3159 13.3882 4.98926 13.3882 4.62926C13.4016 4.26926 13.2082 3.94257 12.9016 3.77591Z" fill="#FF7201"/>
<path opacity="0.4" d="M6.59916 8.52561L2.69916 6.57228C2.39916 6.41895 2.0525 6.43895 1.76583 6.61228C1.47916 6.78561 1.3125 7.0923 1.3125 7.42563V11.1123C1.3125 11.7523 1.66582 12.3256 2.23916 12.6123L6.13916 14.559C6.27249 14.6256 6.41917 14.659 6.56584 14.659C6.73917 14.659 6.9125 14.6123 7.06584 14.5123C7.3525 14.339 7.51917 14.0323 7.51917 13.699V10.0123C7.52583 9.38564 7.1725 8.81228 6.59916 8.52561Z" fill="#FF7201"/>
<path opacity="0.4" d="M14.6899 7.43572V10.4957C14.6832 10.489 14.6766 10.4757 14.6699 10.469C14.6699 10.4624 14.6632 10.4557 14.6566 10.449C14.6299 10.409 14.5966 10.369 14.5632 10.3357C14.5566 10.329 14.5499 10.3157 14.5432 10.309C14.0032 9.70905 13.2099 9.3357 12.3366 9.3357C11.4966 9.3357 10.7299 9.68236 10.1832 10.2424C9.65656 10.7824 9.33657 11.5224 9.33657 12.3357C9.33657 12.8957 9.49656 13.429 9.7699 13.8824C9.88323 14.0757 10.0232 14.249 10.1766 14.409L9.86324 14.569C9.72991 14.6357 9.58323 14.669 9.43656 14.669C9.26323 14.669 9.08991 14.6224 8.92991 14.5224C8.64991 14.3491 8.47656 14.0424 8.47656 13.709V10.029C8.47656 9.38902 8.82991 8.81569 9.40324 8.52902L13.3032 6.58236C13.6032 6.42903 13.9499 6.44236 14.2366 6.62236C14.5166 6.79569 14.6899 7.10238 14.6899 7.43572Z" fill="#FF7201"/>
</svg>
