<svg width="20" height="20" viewBox="0 0 20 20" fill="none" xmlns="http://www.w3.org/2000/svg">
<path opacity="0.4" d="M13.4885 1.66406H6.51354C3.48021 1.66406 1.67188 3.47239 1.67188 6.50573V13.4807C1.67188 16.5141 3.48021 18.3224 6.51354 18.3224H13.4885C16.5219 18.3224 18.3302 16.5141 18.3302 13.4807V6.50573C18.3302 3.47239 16.5219 1.66406 13.4885 1.66406Z" fill="#777777"/>
<path d="M10.5944 15.858C10.4027 15.858 10.2527 15.808 10.1694 15.7664C9.97774 15.6747 9.52772 15.3747 9.52772 14.558V11.708L7.0944 13.9414C6.8444 14.1747 6.4444 14.158 6.21107 13.8997C5.97774 13.6414 5.99439 13.2497 6.25273 13.0164L9.52772 10.0164V9.94971L6.25273 6.98304C5.99439 6.74971 5.97774 6.35805 6.21107 6.09971C6.4444 5.84971 6.8444 5.82471 7.0944 6.05804L9.52772 8.29137V5.44137C9.52772 4.62471 9.97774 4.32471 10.1694 4.23304C10.3611 4.14137 10.8777 3.99137 11.5027 4.51637L13.5194 6.19971C13.7944 6.42471 13.9527 6.75804 13.9611 7.09971C13.9694 7.44138 13.8277 7.7747 13.5611 8.01637L11.3861 10.008L13.5611 11.9997C13.8194 12.2414 13.9694 12.5747 13.9611 12.9164C13.9527 13.258 13.7944 13.583 13.5194 13.8164L11.5027 15.4997C11.1527 15.783 10.8361 15.858 10.5944 15.858ZM10.7777 11.083V14.4664L12.7194 12.8414L10.7777 11.083ZM10.7777 5.53304V8.86637L12.7194 7.08304L10.7777 5.53304Z" fill="#777777"/>
</svg>
