<svg width="17" height="16" viewBox="0 0 17 16" fill="none" xmlns="http://www.w3.org/2000/svg">
<g id="vuesax/twotone/box-time">
<g id="box-time">
<g id="Group 140" opacity="0.4">
<path id="Vector" d="M2.11719 4.96094L8.00385 8.36759L13.8505 4.98092" stroke="#008172" stroke-width="1.5" stroke-linecap="round" stroke-linejoin="round"/>
<path id="Vector_2" d="M8 14.408V8.36133" stroke="#008172" stroke-width="1.5" stroke-linecap="round" stroke-linejoin="round"/>
<path id="Vector_3" d="M14.4071 6.11399V9.88734C14.4071 9.92068 14.4071 9.94731 14.4004 9.98064C13.9337 9.57398 13.3337 9.334 12.6671 9.334C12.0404 9.334 11.4604 9.554 11.0004 9.92067C10.3871 10.4073 10.0004 11.1607 10.0004 12.0007C10.0004 12.5007 10.1404 12.974 10.3871 13.374C10.4471 13.4807 10.5204 13.5807 10.6004 13.674L9.38041 14.3473C8.62041 14.774 7.3804 14.774 6.6204 14.3473L3.0604 12.374C2.25374 11.9273 1.59375 10.8073 1.59375 9.88734V6.11399C1.59375 5.19399 2.25374 4.074 3.0604 3.62733L6.6204 1.65398C7.3804 1.22732 8.62041 1.22732 9.38041 1.65398L12.9404 3.62733C13.7471 4.074 14.4071 5.19399 14.4071 6.11399Z" stroke="#008172" stroke-width="1.5" stroke-linecap="round" stroke-linejoin="round"/>
</g>
<g id="Group">
<path id="Vector_4" d="M15.3333 12.0007C15.3333 12.8007 14.98 13.514 14.4267 14.0007C13.9533 14.414 13.34 14.6673 12.6667 14.6673C11.1933 14.6673 10 13.474 10 12.0007C10 11.1607 10.3867 10.4073 11 9.92065C11.46 9.55399 12.04 9.33398 12.6667 9.33398C14.14 9.33398 15.3333 10.5273 15.3333 12.0007Z" stroke="#008172" stroke-width="1.5" stroke-miterlimit="10" stroke-linecap="round" stroke-linejoin="round"/>
<path id="Vector_5" d="M12.8333 11.168V12.168L12 12.668" stroke="#008172" stroke-width="1.5" stroke-miterlimit="10" stroke-linecap="round" stroke-linejoin="round"/>
</g>
</g>
</g>
</svg>
