<svg width="41" height="41" viewBox="0 0 41 41" fill="none" xmlns="http://www.w3.org/2000/svg">
<rect x="0.5" y="0.5" width="40" height="40" rx="20" fill="#DCF8F5"/>
<path opacity="0.4" d="M24.6878 10.5H16.3178C12.6778 10.5 10.5078 12.67 10.5078 16.31V24.68C10.5078 28.32 12.6778 30.49 16.3178 30.49H24.6878C28.3278 30.49 30.4978 28.32 30.4978 24.68V16.31C30.4978 12.67 28.3278 10.5 24.6878 10.5Z" fill="#008172"/>
<path d="M21.207 27.5296C20.977 27.5296 20.797 27.4696 20.697 27.4196C20.467 27.3096 19.927 26.9496 19.927 25.9696V22.5497L17.007 25.2296C16.707 25.5096 16.227 25.4896 15.947 25.1796C15.667 24.8696 15.687 24.3996 15.997 24.1196L19.927 20.5197V20.4396L15.997 16.8797C15.687 16.5997 15.667 16.1297 15.947 15.8197C16.227 15.5197 16.707 15.4897 17.007 15.7697L19.927 18.4496V15.0296C19.927 14.0496 20.467 13.6896 20.697 13.5796C20.927 13.4696 21.547 13.2896 22.297 13.9196L24.717 15.9396C25.047 16.2096 25.237 16.6097 25.247 17.0197C25.257 17.4297 25.087 17.8296 24.767 18.1196L22.157 20.5096L24.767 22.8996C25.077 23.1896 25.257 23.5896 25.247 23.9996C25.237 24.4096 25.047 24.7996 24.717 25.0796L22.297 27.0997C21.877 27.4397 21.497 27.5296 21.207 27.5296ZM21.427 21.7997V25.8596L23.757 23.9097L21.427 21.7997ZM21.427 15.1396V19.1396L23.757 16.9996L21.427 15.1396Z" fill="#008172"/>
</svg>
