<svg width="16" height="16" viewBox="0 0 16 16" fill="none" xmlns="http://www.w3.org/2000/svg">
<path opacity="0.4" d="M12.3516 4.22012H12.4458H12.5587H12.8254C13.1392 4.22012 13.4696 4.22927 13.7259 4.37102C13.8405 4.43436 13.9416 4.5261 14.0187 4.67275C14.0983 4.82419 14.1654 5.05977 14.1654 5.42679C14.1654 5.93056 14.0683 6.19735 13.9702 6.33996C13.8817 6.46849 13.758 6.54634 13.5683 6.59241C13.4296 6.62159 13.2759 6.63345 13.092 6.63345H2.90536C2.70973 6.63345 2.55413 6.62581 2.42268 6.59408L2.4227 6.59403L2.41549 6.5924C2.27565 6.56082 2.18032 6.51121 2.10606 6.43385L2.10613 6.43378L2.09892 6.42657C1.95542 6.28307 1.83203 6.01691 1.83203 5.42679C1.83203 5.05975 1.89909 4.82425 1.97871 4.6729C2.05579 4.52637 2.15701 4.43463 2.2719 4.37124C2.52917 4.2293 2.86119 4.22012 3.1787 4.22012H3.44536H3.55159H3.65291H4.7587H11.2387H12.3516Z" fill="#FF7201" stroke="#FF7201"/>
<path d="M2.90606 7.63341C2.90691 7.63341 2.90775 7.63341 2.90859 7.63341H13.0722L12.191 12.185L12.1908 12.1865C12.0714 12.8131 11.9299 13.2795 11.626 13.6043C11.3424 13.9075 10.8368 14.1667 9.79526 14.1667H6.05526C5.05171 14.1667 4.52084 13.8733 4.21114 13.529C3.88327 13.1646 3.73093 12.6654 3.6421 12.1197L3.642 12.1191L2.90606 7.63341ZM6.60859 12.4067C7.14474 12.4067 7.57526 11.9762 7.57526 11.4401V9.24008C7.57526 8.70394 7.14474 8.27341 6.60859 8.27341C6.07245 8.27341 5.64193 8.70394 5.64193 9.24008V11.4401C5.64193 11.9762 6.07245 12.4067 6.60859 12.4067ZM9.46193 12.4067C9.99807 12.4067 10.4286 11.9762 10.4286 11.4401V9.24008C10.4286 8.70393 9.99807 8.27341 9.46193 8.27341C8.92579 8.27341 8.49526 8.70394 8.49526 9.24008V11.4401C8.49526 11.9762 8.92578 12.4067 9.46193 12.4067Z" fill="#FF7201" stroke="#FF7201"/>
</svg>
