<svg width="25" height="24" viewBox="0 0 25 24" fill="none" xmlns="http://www.w3.org/2000/svg">
<path opacity="0.4" d="M7.20303 19.499C8.13303 20 9.24703 20 11.474 20H14.111C17.986 20 19.924 20 21.128 18.828C22.332 17.656 22.332 15.771 22.332 12C22.332 8.229 22.332 6.343 21.128 5.172C19.924 4.001 17.986 4 14.112 4H11.475C9.24803 4 8.13403 4 7.20503 4.501C6.27503 5.003 5.68503 5.921 4.50403 7.76L3.82203 8.82C2.82903 10.366 2.33203 11.14 2.33203 12C2.33203 12.86 2.82903 13.634 3.82203 15.18L4.50203 16.24C5.68303 18.078 6.27303 18.997 7.20303 19.499Z" fill="#777777"/>
<path d="M11.3612 8.97015C11.2925 8.89647 11.2097 8.83736 11.1177 8.79637C11.0257 8.75538 10.9264 8.73334 10.8257 8.73156C10.725 8.72979 10.625 8.74831 10.5316 8.78603C10.4382 8.82375 10.3534 8.8799 10.2822 8.95112C10.211 9.02233 10.1548 9.10717 10.1171 9.20056C10.0794 9.29394 10.0608 9.39397 10.0626 9.49468C10.0644 9.59538 10.0864 9.69469 10.1274 9.78669C10.1684 9.87869 10.2275 9.96149 10.3012 10.0302L12.2712 12.0002L10.3012 13.9702C10.2275 14.0388 10.1684 14.1216 10.1274 14.2136C10.0864 14.3056 10.0644 14.4049 10.0626 14.5056C10.0608 14.6063 10.0794 14.7064 10.1171 14.7998C10.1548 14.8931 10.211 14.978 10.2822 15.0492C10.3534 15.1204 10.4382 15.1766 10.5316 15.2143C10.625 15.252 10.725 15.2705 10.8257 15.2687C10.9264 15.267 11.0257 15.2449 11.1177 15.2039C11.2097 15.1629 11.2925 15.1038 11.3612 15.0302L13.3312 13.0602L15.3012 15.0302C15.4434 15.1626 15.6314 15.2348 15.8257 15.2313C16.02 15.2279 16.2054 15.1492 16.3428 15.0118C16.4802 14.8744 16.559 14.689 16.5624 14.4947C16.5658 14.3004 16.4937 14.1123 16.3612 13.9702L14.3912 12.0002L16.3612 10.0302C16.4937 9.88798 16.5658 9.69993 16.5624 9.50563C16.559 9.31133 16.4802 9.12595 16.3428 8.98853C16.2054 8.85112 16.02 8.77241 15.8257 8.76898C15.6314 8.76555 15.4434 8.83767 15.3012 8.97015L13.3312 10.9402L11.3612 8.97015Z" fill="#777777"/>
</svg>
