<svg width="16" height="16" viewBox="0 0 16 16" fill="none" xmlns="http://www.w3.org/2000/svg">
<path opacity="0.34" d="M3.33398 6.66536H4.66732C6.00065 6.66536 6.66732 5.9987 6.66732 4.66536V3.33203C6.66732 1.9987 6.00065 1.33203 4.66732 1.33203H3.33398C2.00065 1.33203 1.33398 1.9987 1.33398 3.33203V4.66536C1.33398 5.9987 2.00065 6.66536 3.33398 6.66536Z" stroke="#110D17" stroke-width="1.5" stroke-miterlimit="10" stroke-linecap="round" stroke-linejoin="round"/>
<path d="M11.334 6.66536H12.6673C14.0007 6.66536 14.6673 5.9987 14.6673 4.66536V3.33203C14.6673 1.9987 14.0007 1.33203 12.6673 1.33203H11.334C10.0007 1.33203 9.33398 1.9987 9.33398 3.33203V4.66536C9.33398 5.9987 10.0007 6.66536 11.334 6.66536Z" stroke="#110D17" stroke-width="1.5" stroke-miterlimit="10" stroke-linecap="round" stroke-linejoin="round"/>
<path opacity="0.34" d="M11.334 14.6654H12.6673C14.0007 14.6654 14.6673 13.9987 14.6673 12.6654V11.332C14.6673 9.9987 14.0007 9.33203 12.6673 9.33203H11.334C10.0007 9.33203 9.33398 9.9987 9.33398 11.332V12.6654C9.33398 13.9987 10.0007 14.6654 11.334 14.6654Z" stroke="#110D17" stroke-width="1.5" stroke-miterlimit="10" stroke-linecap="round" stroke-linejoin="round"/>
<path d="M3.33398 14.6654H4.66732C6.00065 14.6654 6.66732 13.9987 6.66732 12.6654V11.332C6.66732 9.9987 6.00065 9.33203 4.66732 9.33203H3.33398C2.00065 9.33203 1.33398 9.9987 1.33398 11.332V12.6654C1.33398 13.9987 2.00065 14.6654 3.33398 14.6654Z" stroke="#110D17" stroke-width="1.5" stroke-miterlimit="10" stroke-linecap="round" stroke-linejoin="round"/>
</svg>
