<svg width="16" height="17" viewBox="0 0 16 17" fill="none" xmlns="http://www.w3.org/2000/svg">
<path opacity="0.4" d="M8.00065 15.1654C11.6825 15.1654 14.6673 12.1806 14.6673 8.4987C14.6673 4.8168 11.6825 1.83203 8.00065 1.83203C4.31875 1.83203 1.33398 4.8168 1.33398 8.4987C1.33398 12.1806 4.31875 15.1654 8.00065 15.1654Z" fill="#98949E"/>
<path d="M8.7069 8.49828L10.2402 6.96495C10.4336 6.77161 10.4336 6.45161 10.2402 6.25828C10.0469 6.06495 9.7269 6.06495 9.53357 6.25828L8.00023 7.79161L6.4669 6.25828C6.27357 6.06495 5.95357 6.06495 5.76023 6.25828C5.5669 6.45161 5.5669 6.77161 5.76023 6.96495L7.29357 8.49828L5.76023 10.0316C5.5669 10.2249 5.5669 10.5449 5.76023 10.7383C5.86023 10.8383 5.9869 10.8849 6.11357 10.8849C6.24023 10.8849 6.3669 10.8383 6.4669 10.7383L8.00023 9.20495L9.53357 10.7383C9.63357 10.8383 9.76023 10.8849 9.8869 10.8849C10.0136 10.8849 10.1402 10.8383 10.2402 10.7383C10.4336 10.5449 10.4336 10.2249 10.2402 10.0316L8.7069 8.49828Z" fill="#98949E"/>
</svg>
