<svg width="20" height="20" viewBox="0 0 20 20" fill="none" xmlns="http://www.w3.org/2000/svg">
<path opacity="0.4" d="M18.3307 7.5V13.7167C18.3307 15.625 16.7807 17.1667 14.8724 17.1667H5.1224C3.21406 17.1667 1.66406 15.625 1.66406 13.7167L1.66406 7.5L18.3307 7.5Z" fill="#2396AB"/>
<path d="M18.3307 6.28325V7.49992L1.66406 7.49992V6.28325C1.66406 4.37492 3.21406 2.83325 5.1224 2.83325L14.8724 2.83325C16.7807 2.83325 18.3307 4.37492 18.3307 6.28325Z" fill="#2396AB"/>
<path d="M6.66667 14.375H5C4.65833 14.375 4.375 14.0917 4.375 13.75C4.375 13.4083 4.65833 13.125 5 13.125H6.66667C7.00833 13.125 7.29167 13.4083 7.29167 13.75C7.29167 14.0917 7.00833 14.375 6.66667 14.375Z" fill="#2396AB"/>
<path d="M12.0833 14.375H8.75C8.40833 14.375 8.125 14.0917 8.125 13.75C8.125 13.4083 8.40833 13.125 8.75 13.125H12.0833C12.425 13.125 12.7083 13.4083 12.7083 13.75C12.7083 14.0917 12.425 14.375 12.0833 14.375Z" fill="#2396AB"/>
</svg>
