<svg width="16" height="16" viewBox="0 0 16 16" fill="none" xmlns="http://www.w3.org/2000/svg">
<path d="M6.54066 3.54974H6.54065V3.55203V4.8187C6.54065 5.4615 6.37206 5.87018 6.1221 6.12014C5.87214 6.3701 5.46345 6.5387 4.82065 6.5387H3.55398C2.91118 6.5387 2.5025 6.3701 2.25254 6.12014C2.00258 5.87018 1.83398 5.4615 1.83398 4.8187V3.55203C1.83398 2.90924 2.00256 2.50083 2.25298 2.25098C2.50357 2.00094 2.91393 1.83203 3.56065 1.83203H4.82732C5.4703 1.83203 5.87861 2.00071 6.12754 2.25019C6.37626 2.49947 6.5436 2.90736 6.54066 3.54974Z" fill="url(#paint0_linear_13358_118971)" stroke="url(#paint1_linear_13358_118971)"/>
<path opacity="0.4" d="M11.1809 1.83203H12.4476C13.0904 1.83203 13.4991 2.00062 13.7491 2.25058C13.999 2.50054 14.1676 2.90923 14.1676 3.55203V4.8187C14.1676 5.4615 13.999 5.87018 13.7491 6.12014C13.4991 6.3701 13.0904 6.5387 12.4476 6.5387H11.1809C10.5381 6.5387 10.1295 6.3701 9.87949 6.12014C9.62953 5.87018 9.46094 5.4615 9.46094 4.8187V3.55203C9.46094 2.90923 9.62953 2.50054 9.87949 2.25058C10.1295 2.00062 10.5381 1.83203 11.1809 1.83203Z" fill="url(#paint2_linear_13358_118971)" stroke="url(#paint3_linear_13358_118971)"/>
<path d="M11.1809 9.45312H12.4476C13.0904 9.45312 13.4991 9.62172 13.7491 9.87168C13.999 10.1216 14.1676 10.5303 14.1676 11.1731V12.4398C14.1676 13.0826 13.999 13.4913 13.7491 13.7412C13.4991 13.9912 13.0904 14.1598 12.4476 14.1598H11.1809C10.5381 14.1598 10.1295 13.9912 9.87949 13.7412C9.62953 13.4913 9.46094 13.0826 9.46094 12.4398V11.1731C9.46094 10.5303 9.62953 10.1216 9.87949 9.87168C10.1295 9.62172 10.5381 9.45312 11.1809 9.45312Z" fill="url(#paint4_linear_13358_118971)" stroke="url(#paint5_linear_13358_118971)"/>
<path opacity="0.4" d="M4.82732 8.95312H3.56065C2.10065 8.95312 1.33398 9.71979 1.33398 11.1731V12.4398C1.33398 13.8998 2.10065 14.6665 3.55398 14.6665H4.82065C6.27398 14.6665 7.04065 13.8998 7.04065 12.4465V11.1798C7.04732 9.71979 6.28065 8.95312 4.82732 8.95312Z" fill="#292D32"/>
<defs>
<linearGradient id="paint0_linear_13358_118971" x1="3.72993" y1="-2.20026" x2="14.0233" y2="8.20201" gradientUnits="userSpaceOnUse">
<stop stop-color="#005B41"/>
<stop offset="1" stop-color="#008170"/>
<stop offset="1" stop-color="#008170"/>
</linearGradient>
<linearGradient id="paint1_linear_13358_118971" x1="3.72993" y1="-2.20026" x2="14.0233" y2="8.20201" gradientUnits="userSpaceOnUse">
<stop stop-color="#005B41"/>
<stop offset="1" stop-color="#008170"/>
<stop offset="1" stop-color="#008170"/>
</linearGradient>
<linearGradient id="paint2_linear_13358_118971" x1="11.3569" y1="-2.20026" x2="21.6502" y2="8.20194" gradientUnits="userSpaceOnUse">
<stop stop-color="#005B41"/>
<stop offset="1" stop-color="#008170"/>
<stop offset="1" stop-color="#008170"/>
</linearGradient>
<linearGradient id="paint3_linear_13358_118971" x1="11.3569" y1="-2.20026" x2="21.6502" y2="8.20194" gradientUnits="userSpaceOnUse">
<stop stop-color="#005B41"/>
<stop offset="1" stop-color="#008170"/>
<stop offset="1" stop-color="#008170"/>
</linearGradient>
<linearGradient id="paint4_linear_13358_118971" x1="11.3569" y1="5.42084" x2="21.6502" y2="15.823" gradientUnits="userSpaceOnUse">
<stop stop-color="#005B41"/>
<stop offset="1" stop-color="#008170"/>
<stop offset="1" stop-color="#008170"/>
</linearGradient>
<linearGradient id="paint5_linear_13358_118971" x1="11.3569" y1="5.42084" x2="21.6502" y2="15.823" gradientUnits="userSpaceOnUse">
<stop stop-color="#005B41"/>
<stop offset="1" stop-color="#008170"/>
<stop offset="1" stop-color="#008170"/>
</linearGradient>
</defs>
</svg>
