<svg width="20" height="18" viewBox="0 0 20 18" fill="none" xmlns="http://www.w3.org/2000/svg">
<path fill-rule="evenodd" clip-rule="evenodd" d="M19.5759 0.218205C19.6882 0.303497 19.7826 0.410108 19.8537 0.531937C19.9248 0.653765 19.9712 0.788418 19.9902 0.928191C20.0092 1.06796 20.0005 1.21011 19.9645 1.3465C19.9285 1.48288 19.8659 1.61083 19.7804 1.72302L8.33697 16.7425C8.24415 16.8642 8.12637 16.9646 7.99155 17.037C7.85672 17.1094 7.70797 17.1521 7.55528 17.1623C7.40259 17.1724 7.2495 17.1498 7.10627 17.0959C6.96304 17.042 6.833 16.9581 6.72487 16.8498L0.287934 10.4129C0.0984306 10.2095 -0.00473669 9.94053 0.000167142 9.6626C0.00507097 9.38466 0.117663 9.11948 0.314223 8.92292C0.510783 8.72636 0.775963 8.61377 1.0539 8.60886C1.33183 8.60396 1.60082 8.70713 1.80419 8.89663L7.37429 14.4653L18.0739 0.422757C18.2461 0.19668 18.501 0.0481674 18.7826 0.00981724C19.0642 -0.0285329 19.3495 0.0464134 19.5759 0.218205Z" fill="url(#paint0_linear_8178_131)"/>
<defs>
<linearGradient id="paint0_linear_8178_131" x1="8.39695" y1="-10.6245" x2="38.9505" y2="25.3525" gradientUnits="userSpaceOnUse">
<stop stop-color="#005B41"/>
<stop offset="1" stop-color="#008170"/>
<stop offset="1" stop-color="#008170"/>
</linearGradient>
</defs>
</svg>
