<svg width="48" height="49" viewBox="0 0 48 49" fill="none" xmlns="http://www.w3.org/2000/svg">
<rect y="0.5" width="48" height="48" rx="24" fill="#FFEBEA"/>
<path opacity="0.4" d="M33.7624 28.42L27.3624 16.9C26.5024 15.35 25.3124 14.5 24.0024 14.5C22.6924 14.5 21.5024 15.35 20.6424 16.9L14.2424 28.42C13.4324 29.89 13.3424 31.3 13.9924 32.41C14.6424 33.52 15.9224 34.13 17.6024 34.13H30.4024C32.0824 34.13 33.3624 33.52 34.0124 32.41C34.6624 31.3 34.5724 29.88 33.7624 28.42Z" fill="#FF6259"/>
<path d="M24 27.25C23.59 27.25 23.25 26.91 23.25 26.5V21.5C23.25 21.09 23.59 20.75 24 20.75C24.41 20.75 24.75 21.09 24.75 21.5V26.5C24.75 26.91 24.41 27.25 24 27.25Z" fill="#FF3B2F"/>
<path d="M24 30.4986C23.94 30.4986 23.87 30.4886 23.8 30.4786C23.74 30.4686 23.68 30.4486 23.62 30.4186C23.56 30.3986 23.5 30.3686 23.44 30.3286C23.39 30.2886 23.34 30.2486 23.29 30.2086C23.11 30.0186 23 29.7586 23 29.4986C23 29.2386 23.11 28.9786 23.29 28.7886C23.34 28.7486 23.39 28.7086 23.44 28.6686C23.5 28.6286 23.56 28.5986 23.62 28.5786C23.68 28.5486 23.74 28.5286 23.8 28.5186C23.93 28.4886 24.07 28.4886 24.19 28.5186C24.26 28.5286 24.32 28.5486 24.38 28.5786C24.44 28.5986 24.5 28.6286 24.56 28.6686C24.61 28.7086 24.66 28.7486 24.71 28.7886C24.89 28.9786 25 29.2386 25 29.4986C25 29.7586 24.89 30.0186 24.71 30.2086C24.66 30.2486 24.61 30.2886 24.56 30.3286C24.5 30.3686 24.44 30.3986 24.38 30.4186C24.32 30.4486 24.26 30.4686 24.19 30.4786C24.13 30.4886 24.06 30.4986 24 30.4986Z" fill="#FF3B2F"/>
</svg>
