<svg width="16" height="16" viewBox="0 0 16 16" fill="none" xmlns="http://www.w3.org/2000/svg">
<g opacity="0.4">
<path d="M5.78125 9.55453C5.78125 10.4145 6.44125 11.1079 7.26125 11.1079H8.93458C9.64792 11.1079 10.2279 10.5012 10.2279 9.75453C10.2279 8.9412 9.87458 8.65453 9.34792 8.46786L6.66125 7.53453C6.13458 7.34786 5.78125 7.0612 5.78125 6.24786C5.78125 5.5012 6.36125 4.89453 7.07458 4.89453H8.74792C9.56792 4.89453 10.2279 5.58786 10.2279 6.44786" stroke="#777777" stroke-width="1.5" stroke-linecap="round" stroke-linejoin="round"/>
<path d="M8 4V12" stroke="#777777" stroke-width="1.5" stroke-linecap="round" stroke-linejoin="round"/>
</g>
<path d="M8.0026 14.6654C11.6845 14.6654 14.6693 11.6806 14.6693 7.9987C14.6693 4.3168 11.6845 1.33203 8.0026 1.33203C4.32071 1.33203 1.33594 4.3168 1.33594 7.9987C1.33594 11.6806 4.32071 14.6654 8.0026 14.6654Z" stroke="#777777" stroke-width="1.5" stroke-linecap="round" stroke-linejoin="round"/>
</svg>
