<svg width="64" height="64" viewBox="0 0 64 64" fill="none" xmlns="http://www.w3.org/2000/svg">
<rect x="0.5" y="0.5" width="63" height="63" rx="31.5" fill="#F5F5F5"/>
<rect x="0.5" y="0.5" width="63" height="63" rx="31.5" stroke="#FBFDF6"/>
<path opacity="0.4" d="M44 25.3332V38.6665C44 42.6665 42 45.3332 37.3333 45.3332H26.6667C22 45.3332 20 42.6665 20 38.6665V25.3332C20 21.3332 22 18.6665 26.6667 18.6665H37.3333C42 18.6665 44 21.3332 44 25.3332Z" fill="#110D17"/>
<path d="M40.6663 28.3333H37.9997C35.973 28.3333 34.333 26.6933 34.333 24.6667V22C34.333 21.4533 34.7863 21 35.333 21C35.8797 21 36.333 21.4533 36.333 22V24.6667C36.333 25.5867 37.0797 26.3333 37.9997 26.3333H40.6663C41.213 26.3333 41.6663 26.7867 41.6663 27.3333C41.6663 27.88 41.213 28.3333 40.6663 28.3333Z" fill="#110D17"/>
<path d="M32.0003 34.3335H26.667C26.1203 34.3335 25.667 33.8802 25.667 33.3335C25.667 32.7868 26.1203 32.3335 26.667 32.3335H32.0003C32.547 32.3335 33.0003 32.7868 33.0003 33.3335C33.0003 33.8802 32.547 34.3335 32.0003 34.3335Z" fill="#110D17"/>
<path d="M37.3337 39.6665H26.667C26.1203 39.6665 25.667 39.2132 25.667 38.6665C25.667 38.1198 26.1203 37.6665 26.667 37.6665H37.3337C37.8803 37.6665 38.3337 38.1198 38.3337 38.6665C38.3337 39.2132 37.8803 39.6665 37.3337 39.6665Z" fill="#110D17"/>
</svg>
