<svg width="24" height="24" viewBox="0 0 24 24" fill="none" xmlns="http://www.w3.org/2000/svg">
<path d="M16 1C16.2652 1 16.5196 1.10536 16.7071 1.29289C16.8946 1.48043 17 1.73478 17 2V2.999L22 3V9L19.98 8.999L22.747 16.595C22.9346 17.1029 23.017 17.6436 22.9895 18.1843C22.9619 18.725 22.8249 19.2545 22.5867 19.7407C22.3484 20.2269 22.014 20.6596 21.6036 21.0128C21.1932 21.3659 20.7153 21.632 20.1991 21.795C19.6828 21.9581 19.1388 22.0146 18.6 21.9611C18.0612 21.9077 17.5389 21.7455 17.0647 21.4842C16.5904 21.223 16.1742 20.8682 15.8411 20.4414C15.5081 20.0145 15.2651 19.5245 15.127 19.001H10.874C10.6464 19.8786 10.1276 20.6529 9.40248 21.1972C8.67736 21.7414 7.78893 22.0233 6.88269 21.9967C5.97644 21.9701 5.10608 21.6366 4.41415 21.0507C3.72221 20.4649 3.2497 19.6614 3.074 18.772C2.75009 18.6031 2.4787 18.3485 2.28934 18.0361C2.09998 17.7237 1.99991 17.3653 2 17V4C2 3.73478 2.10536 3.48043 2.29289 3.29289C2.48043 3.10536 2.73478 3 3 3H10C10.2652 3 10.5196 3.10536 10.7071 3.29289C10.8946 3.48043 11 3.73478 11 4V12C11 12.2449 11.09 12.4813 11.2527 12.6644C11.4155 12.8474 11.6397 12.9643 11.883 12.993L12 13H14C14.2449 13 14.4813 12.91 14.6644 12.7473C14.8474 12.5845 14.9643 12.3603 14.993 12.117L15 12V3H12V1H16ZM7 16C6.46957 16 5.96086 16.2107 5.58579 16.5858C5.21071 16.9609 5 17.4696 5 18C5 18.5304 5.21071 19.0391 5.58579 19.4142C5.96086 19.7893 6.46957 20 7 20C7.53043 20 8.03914 19.7893 8.41421 19.4142C8.78929 19.0391 9 18.5304 9 18C9 17.4696 8.78929 16.9609 8.41421 16.5858C8.03914 16.2107 7.53043 16 7 16ZM19 15.999C18.4696 15.999 17.9609 16.2097 17.5858 16.5848C17.2107 16.9599 17 17.4686 17 17.999C17 18.5294 17.2107 19.0381 17.5858 19.4132C17.9609 19.7883 18.4696 19.999 19 19.999C19.5304 19.999 20.0391 19.7883 20.4142 19.4132C20.7893 19.0381 21 18.5294 21 17.999C21 17.4686 20.7893 16.9599 20.4142 16.5848C20.0391 16.2097 19.5304 15.999 19 15.999ZM17.852 8.999H17V12C17 12.7956 16.6839 13.5587 16.1213 14.1213C15.5587 14.6839 14.7956 15 14 15H12C11.3796 15 10.7744 14.8076 10.2677 14.4495C9.76111 14.0913 9.37795 13.5849 9.171 13H4V15.354C4.48084 14.8095 5.10081 14.4062 5.79345 14.1872C6.48608 13.9682 7.22524 13.9419 7.93169 14.1111C8.63813 14.2802 9.28522 14.6385 9.80355 15.1474C10.3219 15.6564 10.6919 16.2968 10.874 17H15.126C15.378 16.0248 15.9884 15.1804 16.8355 14.6355C17.6826 14.0905 18.7041 13.885 19.696 14.06L17.852 8.999ZM9 8H4V11H9V8ZM20 5H17V7H20V5ZM9 5H4V6H9V5Z" fill="black"/>
</svg>
