<svg width="17" height="16" viewBox="0 0 17 16" fill="none" xmlns="http://www.w3.org/2000/svg">
<path opacity="0.4" d="M14.3307 11.868V12.1613C14.3307 13.2652 13.4279 14.168 12.3241 14.168H4.67073C3.56687 14.168 2.66406 13.2652 2.66406 12.1613V7.67464C2.66406 6.57078 3.56687 5.66797 4.67073 5.66797H12.3241C13.4279 5.66797 14.3307 6.57078 14.3307 7.67464V8.13464H13.4841C12.979 8.13464 12.5113 8.33341 12.1703 8.68128C11.7911 9.05399 11.5722 9.59094 11.626 10.1657C11.7123 11.1808 12.6244 11.868 13.5641 11.868H14.3307Z" fill="#FF7201" stroke="#FF7201"/>
<path d="M10.3974 2.63439V5.16772H4.67073C3.29073 5.16772 2.16406 6.29439 2.16406 7.67439V5.22774C2.16406 4.4344 2.65073 3.72771 3.39073 3.44771L8.68406 1.44771C9.51073 1.14104 10.3974 1.74773 10.3974 2.63439Z" fill="#FF7201"/>
<path d="M15.5366 9.31278V10.6862C15.5366 11.0528 15.2433 11.3528 14.8699 11.3661H13.5633C12.8433 11.3661 12.1833 10.8395 12.1233 10.1195C12.0833 9.69947 12.2433 9.30613 12.5233 9.0328C12.7699 8.77946 13.1099 8.63281 13.4833 8.63281H14.8699C15.2433 8.64615 15.5366 8.94612 15.5366 9.31278Z" fill="#FF7201"/>
<path d="M9.83073 8.5H5.16406C4.89073 8.5 4.66406 8.27333 4.66406 8C4.66406 7.72667 4.89073 7.5 5.16406 7.5H9.83073C10.1041 7.5 10.3307 7.72667 10.3307 8C10.3307 8.27333 10.1041 8.5 9.83073 8.5Z" fill="#FF7201"/>
</svg>
