<svg width="191" height="178" viewBox="0 0 191 178" fill="none" xmlns="http://www.w3.org/2000/svg">
<path d="M95.5001 178C147.726 178 190.063 153.556 190.063 123.402C190.063 93.2485 147.726 68.8042 95.5001 68.8042C43.2746 68.8042 0.9375 93.2485 0.9375 123.402C0.9375 153.556 43.2746 178 95.5001 178Z" fill="#F5F5F5"/>
<path d="M157.85 150.177C172.666 150.177 184.677 143.242 184.677 134.687C184.677 126.133 172.666 119.198 157.85 119.198C143.034 119.198 131.023 126.133 131.023 134.687C131.023 143.242 143.034 150.177 157.85 150.177Z" fill="#E0E0E0"/>
<path d="M89.9583 143.043L59.6953 125.564L94.2867 105.594L124.554 123.068L89.9583 143.043Z" fill="#E0E0E0"/>
<path d="M7.55469 137.637L46.587 160.171L79.3257 141.274L40.2933 118.739L7.55469 137.637Z" fill="#E0E0E0"/>
<path d="M65.2647 31.7181V29.4996C65.248 29.3714 65.1986 29.2497 65.1211 29.1462C65.0437 29.0427 64.9409 28.9609 64.8226 28.9088L51.4273 21.2245C51.1081 21.064 50.7558 20.9805 50.3985 20.9805C50.0412 20.9805 49.6888 21.064 49.3696 21.2245L10.8718 43.3289C10.7535 43.3811 10.6507 43.4628 10.5732 43.5663C10.4958 43.6698 10.4464 43.7915 10.4297 43.9197V46.1382C10.446 46.2665 10.4953 46.3884 10.5728 46.4919C10.6502 46.5955 10.7533 46.6772 10.8718 46.729L24.263 54.4012C24.5823 54.5617 24.9346 54.6453 25.2919 54.6453C25.6492 54.6453 26.0015 54.5617 26.3207 54.4012L64.8186 32.2968C64.9371 32.245 65.0401 32.1633 65.1176 32.0598C65.1951 31.9562 65.2444 31.8343 65.2607 31.706L65.2647 31.7181Z" fill="#F0F0F0"/>
<path d="M10.8703 44.4984L24.2616 52.1827C24.5802 52.3451 24.9328 52.4297 25.2904 52.4297C25.6481 52.4297 26.0006 52.3451 26.3193 52.1827L64.8171 30.0783C65.3838 29.7528 65.3838 29.2263 64.8171 28.8967L51.4259 21.2245C51.1066 21.064 50.7543 20.9805 50.397 20.9805C50.0397 20.9805 49.6874 21.064 49.3682 21.2245L10.8703 43.3289C10.3036 43.6464 10.3036 44.1729 10.8703 44.4984Z" fill="#FAFAFA"/>
<path d="M25.2919 52.4318V54.6463C24.9339 54.6515 24.5802 54.5672 24.263 54.4011L10.8718 46.7369C10.7533 46.6851 10.6502 46.6034 10.5728 46.4999C10.4953 46.3963 10.446 46.2744 10.4297 46.1461V43.9236C10.4376 43.8338 10.4665 43.747 10.5141 43.6704C10.3573 43.9558 10.4739 44.2853 10.8718 44.5144L24.263 52.1866C24.5793 52.3551 24.9336 52.4395 25.2919 52.4318Z" fill="#E0E0E0"/>
<path d="M32.4922 33.688L43.8378 40.1546L62.5783 29.3998L51.2367 22.9292L32.4922 33.688Z" fill="#E0E0E0"/>
<path d="M43.9649 39.6635L33.0212 33.3818C33.3056 32.454 33.2845 31.4594 32.9609 30.5444L43.8363 36.7578C43.8363 36.7578 44.0453 37.445 43.9649 39.6635Z" fill="white"/>
<path d="M43.2787 35.8864C43.5841 36.0838 43.8387 36.3504 44.0216 36.6647C44.2046 36.9789 44.3108 37.3319 44.3317 37.695V39.809C44.3317 40.4761 43.8574 40.7454 43.2787 40.4158L32.5078 34.2105V33.688L43.1501 39.7567C43.4997 39.9577 43.7811 39.7929 43.7811 39.395V37.4337C43.769 37.2159 43.7055 37.004 43.5958 36.8154C43.4862 36.6268 43.3334 36.4669 43.1501 36.3486L32.5078 30.2598V29.665L43.2787 35.8864Z" fill="#EBEBEB"/>
<path d="M32.5078 29.6846L51.2363 18.9258L62.0192 25.115C62.3254 25.3125 62.5804 25.5797 62.7635 25.8948C62.9465 26.2098 63.0523 26.5638 63.0722 26.9276V29.0536C63.0864 29.1836 63.0652 29.3151 63.0107 29.434C62.9562 29.5529 62.8705 29.6547 62.7627 29.7288L44.0222 40.4876C44.128 40.4119 44.212 40.3096 44.2656 40.1911C44.3192 40.0725 44.3406 39.9419 44.3276 39.8124V37.6944C44.3081 37.3311 44.2024 36.9776 44.0193 36.6631C43.8362 36.3487 43.581 36.0823 43.2747 35.8859L32.5078 29.6846Z" fill="#FAFAFA"/>
<path d="M44.0234 36.6537C44.2145 36.9638 44.3212 37.3185 44.3329 37.6826V39.8006C44.3459 39.9301 44.3245 40.0607 44.2709 40.1792C44.2172 40.2978 44.1333 40.4001 44.0275 40.4758L62.768 29.717C62.8758 29.6429 62.9615 29.541 63.016 29.4221C63.0705 29.3032 63.0917 29.1718 63.0774 29.0418V26.9278C63.0657 26.5637 62.959 26.2091 62.768 25.8989L44.0234 36.6537Z" fill="#F0F0F0"/>
<path d="M20.9523 17.5913L20.8438 19.0221L33.5116 25.8182L33.7969 24.9822L20.9523 17.5913Z" fill="#EBEBEB"/>
<path d="M33.6306 25.3158L21.3606 18.2344L19.2266 19.4642L31.7377 26.7828L33.6306 25.3158Z" fill="white"/>
<path d="M29.4401 26.0225L28.2344 40.2416C28.2403 40.4021 28.2846 40.5589 28.3637 40.6988C28.4427 40.8386 28.5541 40.9575 28.6885 41.0454L35.8061 45.1649C35.9197 45.2277 36.0462 45.2634 36.1759 45.2694L31.755 27.2603C31.6261 27.2532 31.5 27.219 31.3853 27.1598L30.8748 26.8624L29.4401 26.0225Z" fill="#E0E0E0"/>
<path d="M32.281 27.144L33.551 26.0548L34.4793 25.251C34.5758 25.0983 34.6883 24.9858 34.628 24.8491L38.9927 42.7256C39.0529 42.8501 39.069 43.1275 38.8962 43.2319L36.6978 45.1128C36.5314 45.201 36.3425 45.2374 36.1553 45.2173L31.7344 27.2083C31.919 27.2401 32.1088 27.2178 32.281 27.144Z" fill="#F0F0F0"/>
<path d="M34.481 24.7331C34.7302 24.8778 34.6699 25.0385 34.481 25.2556L32.2786 27.1405C32.1384 27.2137 31.9826 27.252 31.8245 27.252C31.6663 27.252 31.5105 27.2137 31.3703 27.1405L29.4332 26.0232C29.18 25.8785 29.1358 25.6695 29.3327 25.557C29.4621 25.5045 29.6018 25.4823 29.7411 25.492C29.8804 25.5018 30.0157 25.5432 30.1365 25.6132L31.6637 26.4974C31.7104 26.5211 31.7621 26.5334 31.8144 26.5334C31.8668 26.5334 31.9184 26.5211 31.9651 26.4974L33.5727 25.0988C33.6571 25.0506 33.6571 24.9742 33.5727 24.926L20.9531 17.5914L21.556 17.2417L34.481 24.7331Z" fill="#FAFAFA"/>
<path d="M17.2969 18.2783L29.3659 25.2472V48.2117L17.2969 41.2388V18.2783Z" fill="#EBEBEB"/>
<path d="M28.9768 25.6285L17.2976 18.9248C16.5833 19.6821 15.6479 20.1942 14.625 20.3877L26.2077 27.0632C26.2077 27.0632 26.9552 26.8864 28.9768 25.6285Z" fill="white"/>
<path d="M25.0847 27.0433C25.4328 27.2177 25.8167 27.3084 26.206 27.3084C26.5953 27.3084 26.9792 27.2177 27.3273 27.0433L29.2886 25.8939C29.9075 25.5362 29.9075 24.9615 29.2886 24.6038L17.7822 17.9966L17.2959 18.2779L28.6174 24.8168C28.7009 24.8411 28.7742 24.8919 28.8264 24.9615C28.8785 25.031 28.9067 25.1157 28.9067 25.2026C28.9067 25.2896 28.8785 25.3742 28.8264 25.4438C28.7742 25.5133 28.7009 25.5641 28.6174 25.5884L26.7887 26.6414C26.5799 26.7464 26.3493 26.8011 26.1156 26.8011C25.8818 26.8011 25.6513 26.7464 25.4424 26.6414L14.1249 20.0985L13.5703 20.416L25.0847 27.0433Z" fill="#FAFAFA"/>
<path d="M13.5703 20.4165V43.377L25.0807 49.9842C25.4287 50.1585 25.8127 50.2493 26.202 50.2493C26.5913 50.2493 26.9752 50.1585 27.3233 49.9842L29.2926 48.8548C29.4206 48.7984 29.531 48.7085 29.6123 48.5946C29.6937 48.4808 29.7429 48.3472 29.7548 48.2078V25.2473C29.7423 25.3871 29.6919 25.5209 29.609 25.6342C29.5262 25.7475 29.414 25.8361 29.2845 25.8904L27.3233 27.0438C26.9752 27.2181 26.5913 27.3089 26.202 27.3089C25.8127 27.3089 25.4287 27.2181 25.0807 27.0438L13.5703 20.4165Z" fill="#EBEBEB"/>
<path d="M26.2034 27.2887C26.5935 27.2964 26.9793 27.2051 27.3246 27.0235L29.2859 25.8901C29.4139 25.8347 29.5244 25.7456 29.6058 25.6324C29.6872 25.5192 29.7363 25.386 29.7481 25.2471V48.2075C29.7362 48.3469 29.687 48.4805 29.6057 48.5944C29.5244 48.7082 29.4139 48.7981 29.2859 48.8546L27.3166 49.9839C26.9712 50.1656 26.5855 50.2568 26.1953 50.2492L26.2034 27.2887Z" fill="#F0F0F0"/>
<path d="M123.159 110.638C123.098 109.621 122.962 108.404 122.797 106.989C122.182 101.62 121.342 94.2648 123.569 87.2195C124.923 82.9313 128.187 77.8473 133.283 76.4366C134.416 76.1231 137.157 75.6609 138.21 78.0924C138.358 78.4437 138.446 78.8173 138.471 79.1977C138.58 80.7409 137.884 82.1034 137.113 83.3452C136.224 84.7881 135.196 86.1585 134.199 87.4928C133.258 88.7548 132.282 90.0569 131.43 91.4073C130.51 92.8746 129.703 94.4103 129.018 96.001L128.693 95.8604C129.377 94.2536 130.183 92.7017 131.104 91.2184C131.96 89.856 132.941 88.5458 133.889 87.2798C134.878 85.9536 135.899 84.5871 136.783 83.1604C137.523 81.9547 138.19 80.6646 138.089 79.2218C138.067 78.8815 137.989 78.5473 137.856 78.2331C136.916 76.0588 134.392 76.4929 133.351 76.7782C128.391 78.1527 125.204 83.1282 123.878 87.324C121.676 94.301 122.512 101.612 123.123 106.949C123.283 108.367 123.424 109.593 123.484 110.618L123.159 110.638Z" fill="#18CBB5"/>
<path d="M123.522 116.482C123.495 116.486 123.468 116.486 123.442 116.482C123.364 116.467 123.292 116.434 123.23 116.386C123.168 116.338 123.118 116.276 123.084 116.205C123.014 116.006 123.014 115.789 123.084 115.59C123.141 115.205 123.141 114.813 123.084 114.428C123.084 114.211 123.048 113.982 123.048 113.777V111.281C123.369 106.798 124.682 102.442 126.894 98.5291C128.855 95.117 131.025 92.8463 133.726 91.3753C135.182 90.5753 136.779 90.0636 138.428 89.8682C139.885 89.7073 141.349 90.0941 142.536 90.9533C143.762 91.9219 144.312 93.5817 143.85 94.8959C143.524 95.8163 142.781 96.5035 142.021 97.1265C140.667 98.2317 139.188 99.2204 137.761 100.177C136.576 100.981 135.35 101.784 134.204 102.669C130.7 105.373 127.76 108.739 125.552 112.575C125.19 113.198 124.848 113.841 124.535 114.484L124.406 114.738C124.281 114.967 124.171 115.205 124.077 115.449C124.056 115.501 124.036 115.61 124.008 115.734C123.988 115.964 123.915 116.185 123.795 116.381C123.72 116.448 123.622 116.484 123.522 116.482ZM139.007 90.2018C138.826 90.2018 138.645 90.2018 138.461 90.2259C136.859 90.4127 135.31 90.9096 133.899 91.6888C131.263 93.1236 129.136 95.3541 127.207 98.7059C125.026 102.57 123.728 106.871 123.409 111.297V113.769C123.409 113.962 123.409 114.171 123.446 114.392C123.51 114.813 123.51 115.241 123.446 115.662C123.402 115.793 123.402 115.933 123.446 116.064C123.456 116.084 123.471 116.102 123.489 116.116C123.507 116.13 123.528 116.14 123.55 116.144C123.622 115.996 123.671 115.837 123.695 115.674C123.714 115.563 123.741 115.452 123.775 115.345C123.873 115.086 123.989 114.835 124.121 114.593L124.245 114.344C124.567 113.693 124.913 113.046 125.274 112.415C126.026 111.114 126.859 109.863 127.77 108.669C129.571 106.316 131.672 104.21 134.02 102.403C135.177 101.519 136.407 100.695 137.596 99.8996C139.019 98.9471 140.486 97.9624 141.832 96.8693C142.548 96.2865 143.251 95.6314 143.549 94.7955C143.95 93.6179 143.456 92.1269 142.343 91.2467C141.382 90.5301 140.205 90.1616 139.007 90.2018Z" fill="#18CBB5"/>
<path d="M123.218 113.05H123.173C123.151 113.044 123.129 113.035 123.111 113.021C123.092 113.008 123.076 112.99 123.064 112.97C123.052 112.951 123.044 112.928 123.041 112.905C123.038 112.882 123.039 112.859 123.045 112.837C126.361 99.6141 135.528 93.7143 140.423 92.3116C140.468 92.2992 140.516 92.3049 140.556 92.3274C140.597 92.35 140.627 92.3876 140.64 92.4322C140.653 92.4775 140.647 92.5259 140.624 92.5671C140.602 92.6084 140.564 92.6393 140.519 92.6532C135.697 94.0318 126.666 99.8553 123.391 112.921C123.379 112.958 123.356 112.991 123.325 113.014C123.294 113.037 123.256 113.05 123.218 113.05Z" fill="#18CBB5"/>
<path d="M123.196 102.198C123.149 102.194 123.105 102.171 123.075 102.135C123.044 102.099 123.028 102.052 123.032 102.005C124.089 87.7255 133.429 79.9006 134.49 79.0606C134.508 79.0455 134.529 79.0342 134.551 79.0274C134.574 79.0206 134.597 79.0185 134.62 79.0211C134.644 79.0237 134.666 79.0311 134.687 79.0427C134.707 79.0543 134.725 79.07 134.739 79.0887C134.754 79.1069 134.764 79.1278 134.771 79.1502C134.777 79.1726 134.779 79.196 134.777 79.2192C134.774 79.2423 134.767 79.2647 134.756 79.2851C134.744 79.3055 134.729 79.3234 134.711 79.3379C133.662 80.1698 124.43 87.9023 123.389 102.033C123.384 102.08 123.362 102.123 123.326 102.154C123.29 102.184 123.244 102.2 123.196 102.198Z" fill="#18CBB5"/>
<path d="M122.094 52.4L99.7441 39.5031C99.5713 39.3791 99.3687 39.3029 99.157 39.2824C98.9452 39.262 98.7318 39.2979 98.5384 39.3866L96.9309 40.315C96.7541 40.438 96.6135 40.6062 96.5238 40.802C96.434 40.9977 96.3983 41.214 96.4204 41.4282V102.601C96.4533 103.197 96.6261 103.777 96.925 104.294C97.2238 104.811 97.6403 105.25 98.1406 105.575L120.486 118.456C120.659 118.581 120.861 118.658 121.073 118.679C121.284 118.7 121.498 118.665 121.692 118.577L123.299 117.644C123.474 117.521 123.613 117.353 123.701 117.158C123.789 116.963 123.824 116.748 123.802 116.535V55.3741C123.771 54.7791 123.6 54.1997 123.303 53.683C123.006 53.1663 122.592 52.7268 122.094 52.4Z" fill="#263238"/>
<path d="M101.233 103.65L99.625 104.578V109.666C99.6331 109.815 99.6763 109.96 99.751 110.09C99.8258 110.219 99.9299 110.328 100.055 110.41L100.807 110.844C100.94 110.911 101.087 110.946 101.237 110.946C101.386 110.946 101.533 110.911 101.667 110.844L102.418 110.41C102.685 110.237 102.892 109.986 103.009 109.69L104.46 105.511L101.233 103.65Z" fill="#263238"/>
<path d="M99.625 109.667C99.6331 109.816 99.6763 109.961 99.751 110.09C99.8258 110.219 99.9299 110.329 100.055 110.41L100.807 110.844C100.859 110.876 100.917 110.895 100.977 110.901C101.038 110.906 101.099 110.898 101.156 110.877C101.212 110.856 101.264 110.822 101.306 110.778C101.347 110.734 101.379 110.681 101.397 110.623L102.84 106.439L99.625 104.579V109.667Z" fill="#37474F"/>
<path d="M117.358 112.93L115.75 113.862V118.946C115.757 119.095 115.8 119.241 115.874 119.371C115.948 119.501 116.051 119.611 116.176 119.694L116.932 120.128C117.064 120.195 117.211 120.23 117.36 120.23C117.508 120.23 117.655 120.195 117.788 120.128L118.543 119.694C118.81 119.521 119.017 119.27 119.134 118.974L120.581 114.79L117.358 112.93Z" fill="#263238"/>
<path d="M115.75 118.945C115.757 119.095 115.8 119.24 115.874 119.37C115.948 119.5 116.051 119.61 116.176 119.693L116.932 120.127C116.984 120.158 117.042 120.178 117.102 120.183C117.163 120.189 117.224 120.181 117.281 120.16C117.337 120.138 117.389 120.104 117.431 120.06C117.472 120.017 117.504 119.964 117.522 119.906L118.973 115.722L115.758 113.861L115.75 118.945Z" fill="#37474F"/>
<path d="M98.2443 40.4788L120.59 53.3396C121.09 53.6661 121.507 54.1059 121.805 54.6233C122.104 55.1406 122.277 55.7211 122.31 56.3177V117.491C122.352 117.705 122.327 117.928 122.236 118.128C122.146 118.327 121.995 118.493 121.805 118.603C121.616 118.712 121.396 118.76 121.178 118.738C120.96 118.717 120.755 118.628 120.59 118.483L98.2443 105.598C97.7445 105.273 97.3287 104.833 97.0305 104.317C96.7324 103.8 96.5602 103.22 96.5282 102.624V41.4675C96.4852 41.253 96.5106 41.0305 96.6008 40.8312C96.6911 40.6319 96.8416 40.466 97.0311 40.3568C97.2207 40.2476 97.4397 40.2006 97.6574 40.2225C97.875 40.2444 98.0803 40.3341 98.2443 40.4788Z" fill="#37474F"/>
<path d="M65.7891 124.094L89.9592 138.048L123.799 118.512L122.187 117.579L98.0173 103.625L65.7891 122.233V124.094Z" fill="#455A64"/>
<path d="M89.9609 138.048V136.188L123.801 116.651V118.512L89.9609 138.048Z" fill="#263238"/>
<path d="M90.1202 135.339L89.875 135.174C94.1633 128.683 94.1351 117.47 93.7855 114.657C93.7573 114.468 93.7372 114.352 93.7332 114.308L94.0266 114.259C94.0266 114.348 94.0588 114.452 94.0748 114.577C94.3883 116.566 96.1607 127.373 98.2586 130.653L98.0094 130.813C96.3496 128.237 94.9309 121.284 94.2195 117.274C94.2637 121.827 93.6006 130.102 90.1202 135.339Z" fill="#FAFAFA"/>
<path d="M104.229 125.428C103.863 125.32 95.319 122.731 94.5312 118.962L94.8246 118.901C95.5722 122.498 104.225 125.119 104.313 125.147L104.229 125.428Z" fill="#FAFAFA"/>
<path d="M95.6046 123.901L95.3875 122.981C95.3578 122.812 95.2717 122.658 95.1433 122.544C95.0148 122.43 94.8516 122.363 94.6802 122.354C94.5387 122.333 94.3942 122.356 94.2663 122.42C94.1384 122.484 94.0332 122.586 93.9648 122.712L93.6875 122.595C93.7805 122.411 93.9283 122.261 94.1103 122.164C94.2924 122.068 94.4999 122.03 94.7043 122.057C94.8522 122.066 94.9964 122.106 95.1273 122.176C95.2583 122.245 95.373 122.341 95.4639 122.458C95.5121 122.077 95.7067 121.73 96.0065 121.49C96.1201 121.43 96.2472 121.401 96.3754 121.406C96.5035 121.41 96.6284 121.447 96.7379 121.514L96.6053 121.779C96.5383 121.736 96.4614 121.711 96.3819 121.706C96.3024 121.701 96.2229 121.717 96.1511 121.751C95.8095 121.944 95.6769 122.688 95.6568 122.957L95.6046 123.901Z" fill="#FAFAFA"/>
<path d="M96.4469 126.968L96.1816 126.132C95.8802 125.188 95.3778 124.645 94.783 124.609C94.5345 124.604 94.29 124.672 94.0794 124.804C93.8688 124.936 93.7013 125.127 93.5974 125.352L93.3281 125.224C93.4553 124.942 93.6633 124.704 93.9259 124.54C94.1885 124.376 94.4937 124.294 94.8031 124.303C95.1608 124.324 95.7757 124.517 96.2338 125.449C96.3343 124.713 96.6357 123.532 97.4114 123.038C97.6898 122.885 98.0029 122.807 98.3203 122.81C98.6378 122.814 98.949 122.899 99.224 123.058L99.0994 123.327C98.8692 123.191 98.6079 123.116 98.3405 123.11C98.0731 123.103 97.8086 123.166 97.5722 123.291C96.5393 123.934 96.471 126.06 96.471 126.084L96.4469 126.968Z" fill="#FAFAFA"/>
<path d="M92.8199 129.009L92.5547 128.873C93.1495 127.727 94.4557 126.903 95.589 126.96C95.8295 126.962 96.0662 127.019 96.2818 127.126C96.4974 127.232 96.6864 127.385 96.8349 127.575C96.944 126.996 97.169 126.446 97.4964 125.957C97.8238 125.468 98.2468 125.05 98.7399 124.729C99.269 124.378 99.8797 124.168 100.513 124.121C101.147 124.074 101.782 124.191 102.357 124.46L102.24 124.729C101.71 124.484 101.127 124.378 100.544 124.421C99.9618 124.465 99.4002 124.657 98.9127 124.978C98.3915 125.316 97.9564 125.771 97.6424 126.307C97.3284 126.843 97.1441 127.445 97.1042 128.065V128.824L96.8228 128.117C96.7297 127.866 96.562 127.649 96.3423 127.495C96.1225 127.341 95.8612 127.258 95.593 127.257C94.5521 127.205 93.3665 127.96 92.8199 129.009Z" fill="#FAFAFA"/>
<path d="M91.1831 133.447L90.9219 133.302C91.2836 132.643 93.2087 129.332 95.4874 128.733C95.8091 128.641 96.1466 128.618 96.4777 128.665C96.8088 128.713 97.1261 128.831 97.4085 129.01L97.2558 129.263C97.0068 129.106 96.7274 129.003 96.4359 128.96C96.1444 128.918 95.8472 128.938 95.5638 129.018C93.8919 129.46 92.1637 131.679 91.1831 133.447Z" fill="#FAFAFA"/>
<path d="M120.576 98.0438V99.9045L89.9592 117.58L65.7891 103.626V101.765L96.4057 84.0898L120.576 98.0438Z" fill="#263238"/>
<path d="M120.576 98.0438L89.9592 115.719L65.7891 101.765L96.4057 84.0898L120.576 98.0438Z" fill="#455A64"/>
<path d="M120.576 77.5785V79.4353L89.9592 97.1148L65.7891 83.1569V81.3001L96.4057 63.6206L120.576 77.5785Z" fill="#263238"/>
<path d="M120.576 77.5785L89.9592 95.254L65.7891 81.3001L96.4057 63.6206L120.576 77.5785Z" fill="#455A64"/>
<path d="M89.8672 70.9821L67.5216 58.1013C67.3492 57.9766 67.1468 57.8997 66.935 57.8785C66.7233 57.8574 66.5097 57.8926 66.3159 57.9807C66.0266 58.1455 64.9977 58.7443 64.7084 58.9091C64.5323 59.0326 64.3926 59.201 64.3035 59.3968C64.2145 59.5925 64.1794 59.8085 64.202 60.0224V121.179C64.2348 121.775 64.4076 122.355 64.7065 122.872C65.0054 123.389 65.4218 123.828 65.9221 124.153L88.2676 137.038C88.4401 137.163 88.6425 137.24 88.8542 137.261C89.066 137.282 89.2796 137.247 89.4733 137.159C89.7627 136.99 90.7996 136.395 91.0809 136.222C91.2578 136.1 91.3987 135.933 91.4892 135.738C91.5796 135.543 91.6163 135.327 91.5953 135.113V73.9602C91.5622 73.3628 91.3884 72.7816 91.0881 72.2641C90.7878 71.7465 90.3695 71.3073 89.8672 70.9821Z" fill="#263238"/>
<path opacity="0.2" d="M89.965 80.3713L91.5806 79.4389V73.8525L89.9609 74.7849L89.965 80.3713Z" fill="#1F1F1F"/>
<path opacity="0.2" d="M122.199 61.7633L123.815 60.8349V55.2485L122.195 56.1809L122.199 61.7633Z" fill="#1F1F1F"/>
<path d="M69.0217 122.233L67.4141 123.161V128.249C67.4222 128.398 67.4654 128.543 67.5401 128.673C67.6148 128.802 67.719 128.911 67.8441 128.993L68.5956 129.427C68.729 129.494 68.8763 129.529 69.0257 129.529C69.1751 129.529 69.3224 129.494 69.4557 129.427L70.2073 128.993C70.4732 128.821 70.6796 128.571 70.798 128.277L72.2489 124.094L69.0217 122.233Z" fill="#263238"/>
<path d="M67.4062 128.249C67.4144 128.398 67.4576 128.543 67.5323 128.672C67.607 128.802 67.7112 128.911 67.8363 128.993L68.5878 129.427C68.6398 129.458 68.6981 129.477 68.7586 129.483C68.819 129.489 68.8799 129.481 68.9368 129.459C68.9936 129.438 69.0449 129.404 69.0868 129.36C69.1287 129.316 69.1601 129.263 69.1786 129.206L70.6295 125.022L67.4143 123.161L67.4062 128.249Z" fill="#37474F"/>
<path d="M85.131 131.537L83.5234 132.465V137.553C83.5308 137.702 83.5732 137.847 83.6473 137.976C83.7213 138.105 83.8249 138.215 83.9495 138.297L84.705 138.731C84.8376 138.798 84.9843 138.833 85.133 138.833C85.2818 138.833 85.4285 138.798 85.5611 138.731L86.3166 138.297C86.5816 138.124 86.7876 137.874 86.9074 137.581L88.3543 133.397L85.131 131.537Z" fill="#263238"/>
<path d="M83.5234 137.533C83.5308 137.682 83.5732 137.826 83.6473 137.956C83.7213 138.085 83.8249 138.195 83.9495 138.276L84.705 138.71C84.7569 138.742 84.8153 138.761 84.8758 138.767C84.9362 138.772 84.9971 138.764 85.054 138.743C85.1108 138.722 85.1621 138.688 85.204 138.644C85.2459 138.6 85.2773 138.547 85.2958 138.489L86.7426 134.306L83.5275 132.445L83.5234 137.533Z" fill="#37474F"/>
<path d="M65.9005 59.0345L88.2501 71.9154C88.7499 72.2421 89.1657 72.682 89.4639 73.1994C89.762 73.7168 89.9341 74.2971 89.9662 74.8934V138.048C89.9662 138.048 88.7243 137.312 88.2501 137.039L65.9046 124.154C65.4043 123.828 64.9878 123.389 64.689 122.873C64.3901 122.356 64.2173 121.776 64.1844 121.18V60.0232C64.1415 59.8087 64.1669 59.5861 64.2571 59.3869C64.3473 59.1876 64.4978 59.0217 64.6874 58.9125C64.8769 58.8033 65.096 58.7563 65.3136 58.7782C65.5313 58.8001 65.7365 58.8898 65.9005 59.0345Z" fill="#37474F"/>
<path opacity="0.2" d="M88.2501 71.9154L65.9005 59.0345C65.7365 58.8898 65.5313 58.8001 65.3136 58.7782C65.096 58.7563 64.8769 58.8033 64.6874 58.9125C64.4978 59.0217 64.3473 59.1876 64.2571 59.3869C64.1669 59.5861 64.1415 59.8087 64.1844 60.0232V65.485L89.9662 80.3552V74.8934C89.9341 74.2971 89.762 73.7168 89.4639 73.1994C89.1657 72.682 88.7499 72.2421 88.2501 71.9154Z" fill="#1F1F1F"/>
<path d="M118.967 77.7268C118.928 77.7258 118.891 77.7098 118.863 77.6821C118.836 77.6544 118.82 77.6172 118.819 77.5781V59.2274L101.316 69.3311C101.3 69.3418 101.281 69.3489 101.262 69.352C101.243 69.3551 101.223 69.3542 101.204 69.3493C101.185 69.3444 101.167 69.3356 101.152 69.3234C101.137 69.3113 101.124 69.2961 101.115 69.2789C101.105 69.262 101.098 69.2433 101.095 69.2238C101.092 69.2044 101.093 69.1845 101.098 69.1655C101.103 69.1464 101.112 69.1285 101.124 69.1128C101.135 69.0971 101.15 69.0838 101.167 69.0739L118.915 58.8416C118.937 58.8277 118.963 58.8203 118.989 58.8203C119.016 58.8203 119.041 58.8277 119.064 58.8416C119.086 58.8549 119.104 58.8737 119.117 58.8963C119.13 58.9188 119.136 58.9443 119.136 58.9702V77.5781C119.136 77.5994 119.132 77.6205 119.123 77.64C119.115 77.6595 119.102 77.6769 119.086 77.691C119.07 77.7051 119.051 77.7156 119.03 77.7218C119.01 77.728 118.989 77.7297 118.967 77.7268Z" fill="#FAFAFA"/>
<path d="M115.744 73.0738H115.699C115.661 73.0652 115.628 73.0417 115.607 73.0086C115.586 72.9754 115.578 72.9353 115.587 72.897L118.585 59.9116L112.637 70.2123C112.628 70.2295 112.615 70.2446 112.6 70.2568C112.585 70.269 112.567 70.278 112.548 70.2832C112.53 70.2885 112.51 70.2899 112.491 70.2874C112.471 70.2848 112.453 70.2784 112.436 70.2685C112.419 70.2589 112.403 70.246 112.391 70.2304C112.379 70.2148 112.37 70.197 112.365 70.1779C112.359 70.1588 112.358 70.1389 112.361 70.1192C112.363 70.0996 112.37 70.0807 112.38 70.0636L118.81 58.8988C118.828 58.8682 118.857 58.8449 118.891 58.8332C118.925 58.8214 118.961 58.8219 118.995 58.8345C119.028 58.848 119.055 58.8728 119.071 58.9045C119.087 58.9363 119.092 58.9727 119.083 59.0074L115.868 72.9653C115.861 72.9939 115.845 73.0197 115.823 73.0391C115.801 73.0585 115.773 73.0706 115.744 73.0738Z" fill="#FAFAFA"/>
<path d="M109.308 68.439C109.287 68.4391 109.267 68.4349 109.248 68.4266C109.23 68.4182 109.213 68.4061 109.199 68.3908C109.172 68.363 109.156 68.3254 109.156 68.2863C109.156 68.2472 109.172 68.2096 109.199 68.1818L118.869 58.8779C118.897 58.8504 118.934 58.835 118.973 58.835C119.012 58.835 119.05 58.8504 119.078 58.8779C119.106 58.9064 119.121 58.9446 119.121 58.9844C119.121 59.0241 119.106 59.0624 119.078 59.0909L109.408 68.3908C109.395 68.4051 109.38 68.4167 109.363 68.425C109.345 68.4333 109.327 68.438 109.308 68.439Z" fill="#FAFAFA"/>
<path d="M118.967 74.7573C118.928 74.7563 118.891 74.7403 118.863 74.7126C118.836 74.6849 118.82 74.6477 118.819 74.6086C118.819 72.1731 116.102 72.0083 115.985 72.0043C115.963 72.0027 115.942 71.9965 115.923 71.9861C115.903 71.9757 115.886 71.9614 115.873 71.944C115.86 71.9269 115.851 71.9072 115.847 71.8864C115.843 71.8656 115.844 71.8441 115.849 71.8234C115.948 71.3259 115.914 70.811 115.751 70.3306C115.588 69.8501 115.302 69.4211 114.92 69.0865C114.781 68.9474 114.613 68.8397 114.429 68.7704C114.245 68.7011 114.048 68.6718 113.851 68.6846C113.746 68.7024 113.647 68.7424 113.559 68.802C113.47 68.8617 113.396 68.9395 113.341 69.0302C113.324 69.0596 113.298 69.0823 113.266 69.0947C113.235 69.1071 113.2 69.1085 113.168 69.0986C113.136 69.0887 113.108 69.0682 113.089 69.0404C113.07 69.0127 113.061 68.9793 113.064 68.9458C113.064 68.8534 113.228 66.6872 111.323 66.4742C111.299 66.4712 111.275 66.4623 111.255 66.4483C111.235 66.4343 111.218 66.4156 111.207 66.3938C111.196 66.3727 111.19 66.3492 111.19 66.3255C111.19 66.3017 111.196 66.2783 111.207 66.2571C111.207 66.2571 112.051 64.6777 111.725 63.902C111.688 63.8109 111.629 63.73 111.554 63.6657C111.48 63.6015 111.391 63.5558 111.295 63.5323C111.276 63.5272 111.258 63.5183 111.243 63.5062C111.227 63.494 111.214 63.4788 111.205 63.4615C111.196 63.4442 111.19 63.4251 111.188 63.4055C111.186 63.3859 111.189 63.3661 111.195 63.3474C111.207 63.3101 111.233 63.2789 111.267 63.2602C111.301 63.2415 111.342 63.2368 111.38 63.2469C111.518 63.2825 111.646 63.3502 111.754 63.4444C111.861 63.5387 111.945 63.6569 111.998 63.7895C112.308 64.5249 111.785 65.7427 111.56 66.2009C113.039 66.4862 113.313 67.8808 113.353 68.5721C113.485 68.4782 113.636 68.4138 113.795 68.3832C114.037 68.3598 114.28 68.3914 114.508 68.4756C114.735 68.5598 114.941 68.6945 115.109 68.8695C115.509 69.2216 115.814 69.6674 115.999 70.1669C116.183 70.6663 116.241 71.2038 116.166 71.731C116.817 71.8154 119.116 72.2695 119.112 74.6166C119.11 74.654 119.094 74.6892 119.067 74.7152C119.04 74.7413 119.005 74.7563 118.967 74.7573Z" fill="#FAFAFA"/>
<path d="M118.966 70.7462C118.929 70.7464 118.892 70.7324 118.865 70.707C118.837 70.6817 118.82 70.6469 118.817 70.6096C118.753 69.7576 118.259 68.6564 117.636 68.3831C117.512 68.3279 117.375 68.31 117.242 68.3314C117.109 68.3528 116.984 68.4127 116.884 68.5037C116.86 68.5194 116.831 68.5278 116.802 68.5278C116.773 68.5278 116.744 68.5194 116.719 68.5037C116.694 68.4896 116.673 68.4685 116.66 68.4428C116.646 68.417 116.64 68.3879 116.643 68.359C116.643 68.359 116.776 66.8518 116.096 66.2289C115.949 66.1059 115.774 66.0198 115.587 65.9778C115.4 65.9359 115.205 65.9393 115.019 65.9878C114.994 65.9932 114.967 65.9916 114.942 65.9831C114.918 65.9746 114.896 65.9596 114.879 65.9395C114.862 65.9193 114.85 65.895 114.845 65.8689C114.84 65.8428 114.842 65.8159 114.851 65.7908C114.987 65.4171 115.252 64.3681 114.895 63.9944C114.726 63.8215 114.417 63.8055 113.97 63.9501C113.94 63.9602 113.907 63.9602 113.877 63.95C113.846 63.9399 113.82 63.9202 113.802 63.8939C113.783 63.868 113.773 63.8371 113.773 63.8055C113.773 63.7738 113.783 63.7429 113.802 63.717C114.051 63.4036 114.666 62.4872 114.513 62.0492C114.488 61.9887 114.447 61.9359 114.395 61.8964C114.342 61.8568 114.281 61.8319 114.216 61.8241C114.197 61.8194 114.179 61.811 114.163 61.7993C114.147 61.7877 114.134 61.773 114.124 61.7562C114.114 61.7394 114.107 61.7208 114.104 61.7014C114.101 61.682 114.102 61.6622 114.107 61.6432C114.111 61.6241 114.118 61.6059 114.13 61.5899C114.141 61.5738 114.155 61.5603 114.172 61.5501C114.188 61.5399 114.207 61.5332 114.226 61.5306C114.245 61.5279 114.265 61.5294 114.284 61.5347C114.397 61.5512 114.503 61.5969 114.593 61.6675C114.682 61.738 114.752 61.8308 114.794 61.9366C114.959 62.4149 114.557 63.1423 114.276 63.5442C114.421 63.5098 114.572 63.5111 114.716 63.5483C114.86 63.5854 114.993 63.6571 115.104 63.7572C115.546 64.2154 115.333 65.184 115.2 65.6381C115.396 65.6147 115.595 65.633 115.783 65.6919C115.972 65.7508 116.146 65.8489 116.293 65.9797C116.892 66.5263 116.957 67.5873 116.948 68.0736C117.074 68.0145 117.211 67.9838 117.35 67.9838C117.489 67.9838 117.627 68.0145 117.752 68.0736C118.512 68.4072 119.038 69.5928 119.115 70.5533C119.116 70.5727 119.114 70.5921 119.108 70.6106C119.102 70.629 119.092 70.646 119.08 70.6607C119.067 70.6753 119.051 70.6872 119.034 70.6957C119.016 70.7042 118.997 70.7091 118.978 70.7101L118.966 70.7462Z" fill="#FAFAFA"/>
<path d="M127.623 52.461C127.604 52.2476 127.528 52.0432 127.404 51.8687C127.28 51.6942 127.111 51.556 126.915 51.4683L102.958 37.635C102.426 37.3655 101.837 37.2251 101.24 37.2251C100.643 37.2251 100.055 37.3655 99.5221 37.635L62.6761 58.9115C62.4806 58.9992 62.3121 59.1374 62.1877 59.3118C62.0634 59.4863 61.9878 59.6908 61.9688 59.9042V61.7649C61.9878 61.9783 62.0634 62.1828 62.1877 62.3573C62.3121 62.5317 62.4806 62.6699 62.6761 62.7576L86.6332 76.587C87.1653 76.8583 87.7541 76.9998 88.3514 76.9998C88.9486 76.9998 89.5374 76.8583 90.0695 76.587L126.915 55.3145C127.111 55.2268 127.28 55.0886 127.404 54.9141C127.528 54.7396 127.604 54.5352 127.623 54.3218V52.461Z" fill="#37474F"/>
<path d="M86.6373 74.7262L62.6801 60.8968C61.7316 60.3462 61.7316 59.458 62.6801 58.9115L99.5261 37.635C100.059 37.3655 100.647 37.2251 101.244 37.2251C101.841 37.2251 102.43 37.3655 102.962 37.635L126.92 51.4683C127.872 52.0189 127.872 52.9031 126.92 53.4537L90.0735 74.7262C89.5414 74.9975 88.9526 75.139 88.3554 75.139C87.7581 75.139 87.1693 74.9975 86.6373 74.7262Z" fill="#455A64"/>
<path opacity="0.1" d="M122.195 58.0396L110.917 71.9975L91.5821 83.1622L91.5781 75.7191L122.195 58.0396Z" fill="#1F1F1F"/>
<path opacity="0.1" d="M120.579 79.436L110.913 92.4616L91.5781 103.63V96.1831L120.579 79.436Z" fill="#1F1F1F"/>
<path opacity="0.1" d="M120.579 99.9053L110.913 112.931L91.5781 124.1V116.652L120.579 99.9053Z" fill="#1F1F1F"/>
<path d="M76.221 140.553L46.577 157.67L13.1953 138.351L42.8393 121.238L76.221 140.553Z" fill="#18CBB5"/>
<path opacity="0.5" d="M76.221 140.553L46.577 157.67L13.1953 138.351L42.8393 121.238L76.221 140.553Z" fill="#1F1F1F"/>
<path d="M42.8393 98.0361V121.238L13.1953 138.351V115.153L42.8393 98.0361Z" fill="#18CBB5"/>
<path opacity="0.23" d="M42.8393 98.0361V121.238L13.1953 138.351V115.153L42.8393 98.0361Z" fill="#1F1F1F"/>
<path d="M46.577 134.468V157.67L13.1953 138.35V115.153L46.577 134.468Z" fill="#18CBB5"/>
<path opacity="0.38" d="M46.577 134.468V157.67L13.1953 138.35V115.153L46.577 134.468Z" fill="#1F1F1F"/>
<path d="M76.2254 117.351V140.553L42.8438 121.238V98.0361L76.2254 117.351Z" fill="#18CBB5"/>
<path opacity="0.4" d="M76.2254 117.351V140.553L42.8438 121.238V98.0361L76.2254 117.351Z" fill="#1F1F1F"/>
<path d="M76.2221 140.553V117.352L46.5781 134.468V157.67L76.2221 140.553Z" fill="#18CBB5"/>
<path opacity="0.23" d="M76.2221 140.553V117.352L46.5781 134.468V157.67L76.2221 140.553Z" fill="#1F1F1F"/>
<path d="M42.8438 98.0366L42.8839 85.1919L76.1852 104.531L76.2254 117.352L42.8438 98.0366Z" fill="#18CBB5"/>
<path opacity="0.2" d="M42.8438 98.0366L42.8839 85.1919L76.1852 104.531L76.2254 117.352L42.8438 98.0366Z" fill="#1F1F1F"/>
<path d="M46.5781 134.468L49.3593 123.231L78.734 106.271L76.2221 117.351L46.5781 134.468Z" fill="#18CBB5"/>
<path opacity="0.3" d="M46.5781 134.468L49.3593 123.231L78.734 106.271L76.2221 117.351L46.5781 134.468Z" fill="#1F1F1F"/>
<path d="M13.2008 115.153L9.66406 103.498L39.3081 86.3853L42.8448 98.0363L13.2008 115.153Z" fill="#18CBB5"/>
<path opacity="0.1" d="M13.2008 115.153L9.66406 103.498L39.3081 86.3853L42.8448 98.0363L13.2008 115.153Z" fill="#1F1F1F"/>
<path d="M13.1957 115.154L6.21875 105.52L39.6044 124.835L46.5774 134.469L13.1957 115.154Z" fill="#18CBB5"/>
<path opacity="0.45" d="M13.1957 115.154L6.21875 105.52L39.6044 124.835L46.5774 134.469L13.1957 115.154Z" fill="#1F1F1F"/>
<g opacity="0.7">
<path d="M55.3021 150.769C55.2537 150.769 55.2073 150.75 55.1727 150.717C55.1382 150.683 55.1182 150.637 55.1172 150.588V146.505C55.1182 146.456 55.138 146.41 55.1725 146.376C55.2069 146.341 55.2534 146.321 55.3021 146.32C55.3504 146.321 55.3964 146.341 55.4302 146.376C55.464 146.41 55.4829 146.457 55.4829 146.505V150.588C55.4829 150.636 55.4639 150.682 55.4299 150.716C55.396 150.75 55.35 150.769 55.3021 150.769Z" fill="white"/>
<path d="M54.768 147.921C54.7441 147.925 54.7197 147.925 54.6957 147.921C54.6518 147.901 54.6174 147.864 54.5994 147.82C54.5815 147.775 54.5814 147.725 54.5992 147.68L55.2503 146.181L55.9737 147.017C55.9996 147.054 56.0108 147.1 56.0051 147.145C55.9995 147.19 55.9773 147.231 55.943 147.261C55.9087 147.291 55.8645 147.307 55.819 147.307C55.7735 147.306 55.7299 147.289 55.6964 147.258L55.3548 146.856L54.9529 147.82C54.9355 147.854 54.9087 147.881 54.8758 147.899C54.8428 147.917 54.8053 147.924 54.768 147.921Z" fill="white"/>
<path d="M56.9855 149.808C56.9372 149.807 56.8912 149.787 56.8574 149.753C56.8236 149.718 56.8047 149.672 56.8047 149.623V145.544C56.8047 145.496 56.8237 145.45 56.8577 145.416C56.8916 145.382 56.9376 145.363 56.9855 145.363C57.0335 145.363 57.0795 145.382 57.1134 145.416C57.1473 145.45 57.1664 145.496 57.1664 145.544V149.619C57.1669 149.644 57.1627 149.668 57.1539 149.69C57.1451 149.713 57.1319 149.734 57.1151 149.751C57.0983 149.769 57.0782 149.783 57.056 149.793C57.0338 149.802 57.0098 149.808 56.9855 149.808Z" fill="white"/>
<path d="M56.4468 146.96C56.4228 146.963 56.3984 146.963 56.3745 146.96C56.3524 146.95 56.3325 146.936 56.3158 146.919C56.2992 146.901 56.2862 146.881 56.2776 146.858C56.269 146.836 56.265 146.812 56.2657 146.788C56.2665 146.764 56.272 146.74 56.282 146.718L56.9291 145.199L57.6525 146.031C57.6859 146.066 57.7046 146.112 57.7046 146.16C57.7046 146.208 57.6859 146.254 57.6525 146.288C57.6357 146.305 57.6156 146.319 57.5936 146.328C57.5715 146.337 57.5478 146.342 57.5239 146.342C57.5 146.342 57.4763 146.337 57.4542 146.328C57.4321 146.319 57.4121 146.305 57.3953 146.288L57.0537 145.886L56.6518 146.851C56.6351 146.89 56.6057 146.922 56.5684 146.941C56.5311 146.961 56.4882 146.968 56.4468 146.96Z" fill="white"/>
</g>
<g opacity="0.7">
<path d="M50.4503 153.539C50.3816 153.54 50.3138 153.523 50.2534 153.491C50.1807 153.444 50.1218 153.379 50.083 153.302C50.0441 153.225 50.0266 153.139 50.0323 153.053V152.55C50.0334 152.502 50.0533 152.456 50.0879 152.422C50.1224 152.388 50.1688 152.369 50.2172 152.369C50.2652 152.369 50.3112 152.388 50.3451 152.422C50.379 152.456 50.398 152.502 50.398 152.55V153.053C50.398 153.125 50.398 153.165 50.4342 153.173C50.4704 153.181 50.4905 153.173 50.5508 153.141C50.6639 153.037 50.753 152.909 50.812 152.767C50.8709 152.624 50.8984 152.471 50.8924 152.317V150.227C50.8924 150.179 50.9114 150.133 50.9453 150.099C50.9793 150.065 51.0253 150.046 51.0732 150.046C51.1212 150.046 51.1672 150.065 51.2011 150.099C51.235 150.133 51.2541 150.179 51.2541 150.227V152.317C51.2631 152.534 51.2208 152.75 51.1307 152.948C51.0407 153.145 50.9053 153.319 50.7356 153.454C50.6497 153.508 50.5512 153.537 50.4503 153.539Z" fill="white"/>
<path d="M48.5312 151.854V151.541C48.579 150.736 48.8143 149.953 49.2183 149.255C49.6224 148.557 50.1839 147.964 50.8582 147.522C51.5174 147.144 52.1443 147.088 52.6266 147.369C52.8838 147.545 53.0889 147.788 53.2204 148.07C53.3519 148.353 53.405 148.666 53.3741 148.976V149.081L48.5312 151.854ZM51.9514 147.538C51.6296 147.552 51.3169 147.649 51.0431 147.819C50.4653 148.199 49.976 148.699 49.6085 149.285C49.241 149.871 49.0038 150.529 48.9131 151.215L53.0004 148.852C53.0178 148.619 52.9748 148.386 52.8755 148.175C52.7762 147.963 52.624 147.781 52.4337 147.646C52.2852 147.568 52.1189 147.531 51.9514 147.538Z" fill="white"/>
</g>
<path opacity="0.7" d="M6.21875 105.52L39.6044 124.835L46.5774 134.469L39.2347 125.177L6.21875 105.52Z" fill="white"/>
<path opacity="0.7" d="M76.2221 117.352L46.5781 134.468V157.67L47.1327 134.935L76.2221 117.352Z" fill="white"/>
<path d="M32.7209 108.072C35.7794 107.63 38.5726 105.661 40.357 103.185C41.1892 102.029 41.8021 100.729 42.1655 99.3512C42.5515 98.0627 42.6149 96.6991 42.3504 95.3804C41.7998 93.174 39.7582 91.8678 37.6 91.5945C36.5048 91.4504 35.3913 91.559 34.3446 91.912C33.2593 92.2845 32.3178 92.9871 31.6519 93.9215C31.2344 94.4193 30.9717 95.0284 30.8963 95.6738C30.8899 95.9265 30.979 96.1724 31.1459 96.3624C31.3127 96.5523 31.5451 96.6724 31.7966 96.6986C32.4437 96.7531 33.0904 96.589 33.6332 96.2324C34.2951 95.8612 34.8781 95.3643 35.3493 94.7695C36.3602 93.5219 37.1167 92.0882 37.5759 90.5496C37.8981 89.2293 37.8981 87.8509 37.5759 86.5306C37.3311 85.1495 36.6998 83.866 35.7553 82.8291C34.6724 81.8444 33.2983 81.2391 31.8408 81.105C30.3902 80.9057 28.9132 81.0432 27.5244 81.5069C26.9143 81.6918 26.3492 82.0011 25.8646 82.4152C25.5189 82.7367 25.1251 83.2672 25.2657 83.7896C25.4064 84.3121 26.17 84.5452 26.6884 84.4769C27.4558 84.3331 28.1586 83.9522 28.6979 83.3877C29.299 82.796 29.8095 82.1189 30.2131 81.3783C30.5129 80.846 30.6694 80.2449 30.6672 79.634C30.615 77.086 27.7977 75.4382 25.5913 74.972C24.9956 74.8476 24.3856 74.807 23.7787 74.8514C23.5737 74.8514 23.6983 75.189 23.8631 75.177C25.0504 75.123 26.2304 75.3895 27.2792 75.9486C28.314 76.4242 29.1831 77.1981 29.775 78.1711C30.0388 78.6508 30.169 79.1925 30.152 79.7396C30.1351 80.2868 29.9716 80.8194 29.6786 81.2818C29.285 81.9672 28.7951 82.5925 28.2237 83.1386C27.7454 83.5726 27.018 84.075 26.3468 84.0268C26.236 84.0265 26.1275 83.9951 26.0337 83.9361C25.9399 83.8771 25.8646 83.793 25.8163 83.6932C25.7961 83.5612 25.807 83.4263 25.8481 83.2993C25.8893 83.1723 25.9596 83.0567 26.0534 82.9617C26.4083 82.5795 26.8472 82.2851 27.3355 82.1017C28.5412 81.6005 29.8468 81.3858 31.1495 81.4747C32.492 81.499 33.7977 81.9184 34.9032 82.6804C35.8664 83.4801 36.5504 84.5652 36.8565 85.779C37.2442 87.0121 37.3648 88.3137 37.2101 89.5971C36.9715 90.8884 36.4753 92.1186 35.7512 93.2142C35.0077 94.444 34.0753 95.6256 32.6767 96.1078C32.3311 96.2324 31.6077 96.4133 31.471 95.9109C31.3344 95.4085 31.7282 94.7896 31.9814 94.3998C32.5413 93.5186 33.3576 92.8299 34.3205 92.4264C35.2496 92.054 36.2527 91.9027 37.2503 91.9844C39.1433 92.125 41.0643 93.1137 41.7235 94.9946C42.0541 96.1187 42.0901 97.3089 41.8279 98.4509C41.5915 99.7027 41.1415 100.904 40.4977 102.004C39.1127 104.339 37.0153 106.169 34.5134 107.224C33.9186 107.482 33.3077 107.699 32.6848 107.9C32.6205 107.924 32.6486 108.084 32.7209 108.072Z" fill="#E0E0E0"/>
<path d="M19.9486 73.1797C18.3411 73.0632 16.1266 74.3292 16.9143 75.2535C17.702 76.1779 19.7919 74.6828 19.7919 74.6828C19.7919 74.6828 19.595 76.5517 20.2782 76.7647C20.9614 76.9777 21.8858 75.1932 21.2026 74.0518C21.5321 74.1817 21.889 74.2263 22.2403 74.1813C22.5917 74.1363 22.9259 74.0033 23.2121 73.7946C24.1847 73.0793 23.1558 72.4041 21.7853 72.5246C21.7853 72.5246 22.766 69.3094 20.7846 69.9244C19.7919 70.2258 19.4423 71.3873 19.9486 73.1797Z" fill="#18CBB5"/>
<path opacity="0.65" d="M19.9486 73.1797C18.3411 73.0632 16.1266 74.3292 16.9143 75.2535C17.702 76.1779 19.7919 74.6828 19.7919 74.6828C19.7919 74.6828 19.595 76.5517 20.2782 76.7647C20.9614 76.9777 21.8858 75.1932 21.2026 74.0518C21.5321 74.1817 21.889 74.2263 22.2403 74.1813C22.5917 74.1363 22.9259 74.0033 23.2121 73.7946C24.1847 73.0793 23.1558 72.4041 21.7853 72.5246C21.7853 72.5246 22.766 69.3094 20.7846 69.9244C19.7919 70.2258 19.4423 71.3873 19.9486 73.1797Z" fill="white"/>
<path d="M21.4413 73.8628C21.3524 73.7757 21.2584 73.6938 21.16 73.6176C21.0193 73.5091 20.8706 73.4046 20.73 73.3001C20.593 73.2006 20.4493 73.1106 20.2999 73.0309C20.2139 72.9832 20.1254 72.9402 20.0347 72.9023C19.9094 72.8435 19.7701 72.8212 19.6328 72.838C19.5968 72.839 19.5617 72.8496 19.5313 72.8688C19.5008 72.8881 19.4761 72.9151 19.4596 72.9471C19.4432 72.9792 19.4357 73.015 19.4379 73.051C19.44 73.0869 19.4518 73.1216 19.472 73.1514C19.5825 73.2711 19.7204 73.3622 19.8739 73.4167L20.0909 73.5332C20.2396 73.6217 20.3723 73.7221 20.4928 73.8226C20.6134 73.9231 20.7742 74.0195 20.8947 74.12C21.1021 74.2882 21.3338 74.4237 21.582 74.5219C21.5931 74.5279 21.6055 74.531 21.6182 74.531C21.6308 74.531 21.6432 74.5279 21.6543 74.5219C21.8593 74.3612 21.5579 73.9794 21.4413 73.8628Z" fill="#455A64"/>
<path d="M149.576 28.9684C147.82 31.3315 145.468 44.3249 144.58 48.4926C140.308 48.368 134.593 48.167 132.431 47.942C130.02 47.6888 124.871 47.1945 122.343 47.5401C116.07 48.3439 116.315 52.4674 116.468 53.5444C116.632 54.7743 117.512 55.3369 120.888 54.5693C121.644 54.4033 122.414 54.3131 123.187 54.3C123.513 54.3 124.2 54.1352 124.457 54.4125C124.859 54.8144 123.698 55.4896 123.408 55.6745C122.962 55.9639 122.496 56.3296 122.404 56.8521C122.377 56.9476 122.378 57.0487 122.408 57.1435C122.437 57.2382 122.493 57.3226 122.568 57.3866C122.732 57.4534 122.915 57.4534 123.079 57.3866C124.62 57.0209 126.106 56.4548 127.5 55.7026C128.025 55.3858 128.578 55.1168 129.151 54.8988C130.024 54.6175 130.924 54.7823 131.8 54.7823C133.685 54.7823 143.648 55.771 148.077 56.2211C151.143 56.5306 151.469 53.5043 152.526 50.4378C153.824 46.6358 156.898 26.6414 156.898 26.6414C153.796 26.1912 151.666 26.1631 149.576 28.9684Z" fill="#FFA8A7"/>
<path d="M156.951 26.3274C155.468 26.0541 152.128 25.6402 150.312 27.6697C148.495 29.6993 148.065 31.8294 147.265 34.9039C146.466 37.9784 145.047 43.4845 145.047 43.4845C145.047 43.4845 147.39 46.8483 154.725 45.8958L156.951 26.3274Z" fill="#37474F"/>
<path d="M175.366 132.597L170.21 132.601L168.727 121.408L175.233 121.151L175.366 132.597Z" fill="#FFA8A7"/>
<path d="M158.243 127.007C157.367 128.53 154.55 128.406 152.215 127.867L151.945 116.863L158.838 116.59L158.243 127.007Z" fill="#FFA8A7"/>
<path d="M175.015 61.8712C175.199 66.6337 174.568 94.7947 174.568 94.7947C174.741 96.1611 176.156 98.5444 176.449 103.476C176.879 110.638 175.421 125.91 175.421 125.91C175.421 125.91 172.467 127.453 169.284 126.271C169.284 126.271 166.044 104.167 164.863 97.1016C163.842 90.9525 162.532 74.4586 162.532 74.4586L159.988 95.5985C160.454 98.1008 160.647 100.646 160.562 103.19C160.458 106.478 158.585 122.441 158.585 122.441C156.448 123.14 154.153 123.195 151.986 122.598C151.986 122.598 150.451 97.825 150.274 94.8228C150.073 91.3986 150.209 61.1719 150.209 61.1719L175.015 61.8712Z" fill="#18CBB5"/>
<path opacity="0.2" d="M162.545 74.4672C162.545 74.4672 158.039 73.1892 154.969 70.4482C154.969 70.4482 156.408 72.9038 160.483 75.0821L160.25 93.5333L162.545 74.4672Z" fill="#1F1F1F"/>
<path d="M164.334 141.934C164.169 142.103 164.265 143.216 164.466 143.505C164.667 143.795 165.897 144.775 168.031 144.848C170.069 144.912 171.869 144.566 173.031 143.762C174.192 142.959 174.739 142.103 174.807 140.949C174.876 139.796 174.703 138.674 175.209 137.762C175.687 136.922 176.463 135.962 176.62 135.507C176.969 134.523 176.543 133.152 176.543 133.152L164.334 141.934Z" fill="#263238"/>
<path d="M169.475 131.617C169.478 132.057 169.415 132.494 169.29 132.915C168.854 134.286 168.199 135.577 167.349 136.737C166.762 137.489 166.023 138.12 165.4 138.847C164.733 139.537 164.325 140.436 164.242 141.391C164.218 142.999 165.971 143.461 167.309 143.646C168.76 143.837 170.235 143.7 171.625 143.244C172.358 143.023 173.011 142.596 173.506 142.012C174 141.429 174.316 140.715 174.414 139.957C174.471 139.511 174.414 139.06 174.463 138.614C174.599 137.59 174.987 136.615 175.592 135.777C175.942 135.292 176.241 134.772 176.484 134.226C176.858 133.221 176.484 132.124 176.179 131.155C175.918 130.315 175.62 129.363 175.327 129.455C175.327 129.901 175.327 129.941 175.041 130.259C174.64 130.661 174.66 131.219 174.238 131.569C174.36 131.198 174.443 130.816 174.487 130.428C174.507 130.269 174.468 130.109 174.378 129.977C174.233 129.86 174.063 129.777 173.88 129.736C173.244 129.548 172.591 129.426 171.931 129.371C171.302 129.288 170.664 129.308 170.042 129.431C169.858 129.474 169.694 129.577 169.576 129.724C169.472 129.889 169.42 130.081 169.427 130.275C169.427 130.536 169.471 131.191 169.475 131.617Z" fill="#455A64"/>
<path d="M167.953 135.848C168.532 135.382 169.858 135.322 170.59 135.374C171.331 135.408 172.051 135.629 172.683 136.017C172.777 136.079 172.889 136.106 173 136.093C173.111 136.08 173.214 136.027 173.29 135.945C173.335 135.898 173.368 135.842 173.389 135.781C173.41 135.72 173.417 135.655 173.41 135.59C173.403 135.526 173.382 135.464 173.349 135.409C173.316 135.353 173.271 135.306 173.218 135.27C172.52 134.796 171.702 134.529 170.859 134.498C169.066 134.446 168.556 134.771 168.556 134.771C168.556 134.771 167.756 135.326 167.953 135.848Z" fill="#F5F5F5"/>
<path d="M166.648 137.536C167.376 137.066 168.843 137.07 169.57 137.134C170.299 137.181 171.003 137.418 171.612 137.822C171.704 137.883 171.816 137.91 171.927 137.897C172.037 137.884 172.139 137.831 172.215 137.749C172.26 137.703 172.295 137.647 172.316 137.586C172.337 137.525 172.345 137.46 172.338 137.396C172.332 137.331 172.311 137.269 172.278 137.213C172.245 137.158 172.2 137.11 172.146 137.074C171.436 136.576 170.601 136.286 169.735 136.238C167.939 136.182 167.488 136.564 167.488 136.564C167.284 136.652 167.103 136.786 166.957 136.954C166.812 137.122 166.706 137.321 166.648 137.536Z" fill="#F5F5F5"/>
<path d="M171.5 132.762C170.742 132.658 169.969 132.753 169.258 133.035C168.952 133.224 168.764 133.731 168.969 133.839C169.591 133.56 170.273 133.438 170.954 133.485C171.626 133.525 172.287 133.68 172.907 133.944C173.064 134.004 173.249 134.092 173.409 134.173C173.461 134.199 173.517 134.215 173.575 134.218C173.633 134.222 173.69 134.214 173.745 134.195C173.799 134.176 173.849 134.146 173.892 134.107C173.934 134.068 173.969 134.02 173.992 133.968C174.03 133.876 174.033 133.774 174.001 133.681C173.968 133.587 173.902 133.509 173.815 133.461C173.103 133.065 172.313 132.826 171.5 132.762Z" fill="#F5F5F5"/>
<path d="M140.434 133.871C140.251 134.331 140.251 134.842 140.434 135.302C140.611 135.732 142.741 137.066 145.699 137.01C147.898 136.957 150.044 136.315 151.912 135.153C153.074 134.462 154.251 134.378 155.714 134.349C157.177 134.321 159.13 133.698 159.484 133.031C159.837 132.364 159.524 131.17 159.524 131.17L140.434 133.871Z" fill="#263238"/>
<path d="M152.774 125.23L152.545 125.17C152.415 125.131 152.278 125.118 152.143 125.134C151.998 125.169 151.868 125.247 151.769 125.359C151.465 125.716 151.196 126.1 150.965 126.508C150.302 127.485 148.956 128.261 147.509 128.956C146.52 129.426 145.56 129.784 144.543 130.182C143.526 130.58 142.132 130.805 141.328 131.303C140.122 132.031 139.893 133.98 141.171 134.816C142.28 135.539 145.238 136.403 148.405 135.664C150.137 135.262 152.123 133.526 154.373 133.457C155.808 133.413 158.525 133.14 159.494 132.099C159.859 131.637 159.494 130.089 159.168 128.755C158.831 127.3 158.983 125.138 158.332 125.138L158.292 125.865C158.232 126.082 157.721 126.295 157.561 126.464L156.982 127.075C156.745 127.358 156.455 127.593 156.13 127.766C155.555 128.024 154.884 127.871 154.269 127.71C154.245 127.71 154.578 126.593 154.615 126.484C154.651 126.4 154.662 126.306 154.647 126.215C154.616 126.126 154.555 126.051 154.474 126.002C153.967 125.63 153.388 125.368 152.774 125.23Z" fill="#455A64"/>
<path d="M148.883 128.241C148.995 128.05 149.154 127.89 149.344 127.775C149.534 127.661 149.75 127.596 149.972 127.586C150.627 127.498 151.748 128.028 152.436 128.651C152.5 128.71 152.55 128.783 152.58 128.865C152.61 128.947 152.619 129.035 152.607 129.121C152.595 129.208 152.563 129.29 152.512 129.361C152.461 129.432 152.393 129.489 152.315 129.527C152.217 129.576 152.106 129.593 151.998 129.576C151.89 129.558 151.79 129.508 151.712 129.431C150.96 128.682 149.945 128.255 148.883 128.241Z" fill="#F5F5F5"/>
<path d="M146.812 129.274C146.963 129.081 147.158 128.928 147.38 128.826C147.603 128.725 147.846 128.678 148.091 128.691C148.091 128.691 149.787 128.82 150.787 129.848C150.849 129.905 150.896 129.975 150.925 130.054C150.954 130.133 150.963 130.217 150.952 130.3C150.941 130.383 150.91 130.462 150.861 130.53C150.813 130.599 150.749 130.654 150.675 130.692C150.58 130.739 150.473 130.755 150.369 130.738C150.265 130.722 150.168 130.673 150.092 130.6C149.68 130.147 149.171 129.792 148.604 129.562C148.036 129.333 147.424 129.234 146.812 129.274Z" fill="#F5F5F5"/>
<path d="M144.539 130.182C144.71 130.005 144.917 129.867 145.146 129.778C145.374 129.688 145.62 129.649 145.865 129.663C146.826 129.769 147.729 130.176 148.446 130.825C148.507 130.882 148.554 130.953 148.583 131.031C148.612 131.11 148.621 131.195 148.61 131.278C148.599 131.361 148.568 131.441 148.52 131.509C148.471 131.578 148.407 131.634 148.333 131.673C148.238 131.72 148.131 131.736 148.026 131.718C147.922 131.701 147.825 131.652 147.75 131.576C147.36 131.111 146.867 130.742 146.309 130.5C145.752 130.258 145.146 130.149 144.539 130.182Z" fill="#F5F5F5"/>
<path d="M165.539 26.4162C167.436 26.6332 169.679 26.7498 171.491 26.9869C173.826 27.2923 175.647 29.7078 176.217 33.4454C176.844 37.5608 174.208 49.3606 174.208 49.3606L175.048 63.2743C171.628 65.7942 157.063 67.1164 149.805 61.8757C149.805 61.8757 149.973 38.1958 150.54 34.5466C151.32 29.543 152.55 26.4363 158.176 26.0786L165.539 26.4162Z" fill="#455A64"/>
<path d="M178.511 56.5586C177.896 57.5875 177.277 58.6164 176.642 59.6332C176.409 60.011 176.172 60.3847 175.927 60.7545C175.794 60.9354 175.638 61.0988 175.464 61.2408C175.159 61.4497 174.524 61.3171 174.154 61.3292C172.338 61.3908 170.526 61.5248 168.721 61.7311C168.569 61.7263 168.419 61.7549 168.28 61.8146C168.141 61.8743 168.017 61.9638 167.917 62.0767C167.842 62.2323 167.828 62.4097 167.875 62.5755C167.922 62.7413 168.029 62.884 168.174 62.977C168.47 63.1545 168.806 63.2541 169.151 63.2663L170.718 63.4512C170.942 63.4587 171.159 63.5283 171.345 63.6521C171.916 64.1143 170.826 64.6689 170.501 64.894C169.846 65.3488 169.147 65.7366 168.415 66.0515C165.148 67.426 164.75 68.4227 165.353 69.556C165.875 70.5407 168.134 74.1216 173.873 71.039C176.184 69.7972 179.7 65.8746 181.304 63.9777C183.611 61.2408 187.513 55.1359 187.513 55.1359C189.732 52.0895 190.017 50.8396 190.069 49.5737C190.122 48.3077 183.237 38.5697 180.898 35.1495C178.559 31.7294 177.446 27.5697 171.494 26.999C171.494 26.999 169.227 34.185 172.981 38.8349L181.65 50.928C181.65 50.928 179.355 55.148 178.511 56.5586Z" fill="#FFA8A7"/>
<path d="M184.803 39.7865C183.69 38.1789 182.529 36.523 181.407 34.8833C176.685 27.9907 177.083 26.7288 170.275 26.6323C169.672 27.5567 169.314 31.5355 170.223 35.5304C170.982 38.8862 173.84 41.2534 173.84 41.2534L177.248 45.8712C177.248 45.8712 179.334 45.8069 181.833 43.9742C183.277 42.9629 184.326 41.4833 184.803 39.7865Z" fill="#37474F"/>
<path d="M170.025 8.30193C169.683 7.79195 169.208 7.38433 168.653 7.12247C168.097 6.86061 167.481 6.75432 166.87 6.81491L166.516 15.4437L165.938 18.6307L166.038 22.1795C166.374 22.132 166.692 22.0002 166.964 21.7964C167.235 21.5926 167.45 21.3234 167.589 21.014C168.12 19.9932 169.599 15.0578 169.599 15.0578C170.925 11.0027 170.644 9.17003 170.025 8.30193Z" fill="#263238"/>
<path d="M166.114 15.4843C166.263 14.9599 166.55 14.4851 166.945 14.1098C167.44 13.5793 169.409 13.0046 170.305 14.6765C171.202 16.3484 169.69 18.5548 168.525 19.23C167.034 20.0981 166.158 18.9165 166.158 18.9165L166.194 26.862C165.499 28.4696 162.36 29.9004 160.491 29.6753C159.004 29.4864 157.633 28.3169 158.964 26.6129L158.855 24.3461C158.855 24.3461 156.866 24.748 155.881 24.6476C154.245 24.4788 153.156 23.2449 152.578 21.5087C151.645 18.7196 151.231 16.4529 151.625 10.8584C152.059 4.72949 159.145 4.31554 163.095 6.53402C167.046 8.7525 166.114 15.4843 166.114 15.4843Z" fill="#FFA8A7"/>
<path d="M149.381 4.49227C149.2 3.15395 149.662 1.71917 151.065 1.24493C151.579 1.02961 152.144 0.964035 152.695 1.05576C153.245 1.14748 153.758 1.39277 154.175 1.76338C154.351 1.29123 154.655 0.877483 155.053 0.568632C155.451 0.259782 155.928 0.0680713 156.429 0.0150454C156.93 -0.0379806 157.436 0.0497797 157.889 0.268464C158.343 0.487148 158.727 0.82809 158.998 1.25297C159.371 0.687088 159.946 0.285727 160.606 0.131673C161.012 0.0408472 161.433 0.0324616 161.843 0.107013C162.253 0.181564 162.644 0.337538 162.993 0.565722C163.564 0.987716 164.235 1.77142 164.066 2.78822C165.195 2.33408 166.373 2.71186 167.213 3.70857C167.713 4.31891 167.995 5.07813 168.017 5.86676C168.046 6.27639 167.987 6.68749 167.844 7.07246C167.683 7.43818 167.354 7.67932 167.257 8.09328C167.117 8.45749 167.045 8.84437 167.044 9.23467C167.136 9.90986 167.285 10.585 167.374 11.2442C167.469 11.9007 167.524 12.5623 167.538 13.2255C167.517 13.3815 167.463 13.5311 167.379 13.6643C167.295 13.7974 167.184 13.9109 167.052 13.9972C166.677 14.3253 166.386 14.7388 166.204 15.2029C166.063 15.4922 165.927 16.2076 165.649 16.4086C164.793 17.0074 164.697 15.0702 164.657 14.6965C164.602 13.8386 164.602 12.9781 164.657 12.1203C164.225 12.1147 163.799 12.0189 163.407 11.8389C163.014 11.659 162.664 11.3989 162.378 11.0754C162.081 10.7118 161.886 10.2766 161.811 9.8134C161.765 9.54805 161.743 9.27895 161.747 9.00961C161.188 9.93397 159.89 10.3118 158.966 10.2153C157.415 10.0746 156.88 9.4115 156.631 8.92521C156.533 9.40455 156.322 9.85366 156.016 10.2354C155.62 10.6078 155.142 10.883 154.621 11.0392C154.172 11.1591 153.699 11.1543 153.252 11.0255C152.805 10.8966 152.402 10.6485 152.085 10.3077C151.454 11.212 149.855 10.8101 149.501 10.5569C148.697 9.97416 148.436 9.27888 148.348 8.28619C148.259 7.2935 148.661 6.16015 149.762 5.77031C149.564 5.3689 149.435 4.93678 149.381 4.49227Z" fill="#263238"/>
<path d="M158.859 24.3342C158.859 24.3342 162.452 23.4259 163.682 22.6864C164.41 22.2605 164.991 21.6244 165.35 20.8618C165.195 21.6141 164.89 22.3275 164.454 22.9597C163.586 24.1936 158.9 25.3028 158.9 25.3028L158.859 24.3342Z" fill="#F28F8F"/>
<path d="M159.064 15.219C159.077 15.3712 159.135 15.5161 159.231 15.6357C159.326 15.7552 159.454 15.8441 159.6 15.8913C159.745 15.9386 159.901 15.942 160.048 15.9013C160.196 15.8606 160.328 15.7774 160.428 15.6622C160.529 15.547 160.593 15.4049 160.613 15.2534C160.634 15.1019 160.609 14.9478 160.542 14.8102C160.476 14.6726 160.37 14.5577 160.239 14.4796C160.107 14.4015 159.956 14.3637 159.803 14.371C159.594 14.3875 159.399 14.4855 159.26 14.644C159.122 14.8026 159.052 15.009 159.064 15.219Z" fill="#263238"/>
<path d="M157.862 21.035C157.88 21.2311 157.956 21.4175 158.079 21.5709C158.202 21.7244 158.368 21.8382 158.556 21.8982C158.743 21.9582 158.944 21.9618 159.134 21.9085C159.324 21.8552 159.493 21.7473 159.622 21.5984C159.751 21.4494 159.833 21.2658 159.858 21.0705C159.884 20.8752 159.851 20.6768 159.765 20.4999C159.678 20.323 159.541 20.1754 159.372 20.0755C159.202 19.9755 159.007 19.9277 158.81 19.9379C158.54 19.9595 158.288 20.0867 158.111 20.292C157.933 20.4973 157.844 20.7642 157.862 21.035Z" fill="#F28F8F"/>
<path d="M159.711 12.5424L161.367 13.3462C161.47 13.1193 161.482 12.8614 161.4 12.6258C161.319 12.3902 161.15 12.1949 160.929 12.0802C160.819 12.0277 160.699 11.998 160.578 11.993C160.456 11.9879 160.335 12.0076 160.221 12.0508C160.107 12.094 160.003 12.1598 159.916 12.2443C159.828 12.3288 159.758 12.4302 159.711 12.5424Z" fill="#263238"/>
<path d="M152.506 13.2374L153.916 12.0317C153.843 11.9356 153.75 11.8554 153.645 11.7963C153.539 11.7371 153.422 11.7002 153.302 11.6878C153.181 11.6754 153.06 11.6877 152.944 11.724C152.829 11.7604 152.722 11.82 152.63 11.8991C152.442 12.0638 152.324 12.2944 152.301 12.5434C152.278 12.7924 152.351 13.0408 152.506 13.2374Z" fill="#263238"/>
<path d="M152.931 15.0621C152.94 15.2108 152.994 15.3533 153.084 15.4716C153.175 15.59 153.298 15.679 153.439 15.7274C153.58 15.7759 153.732 15.7816 153.876 15.7438C154.02 15.706 154.15 15.6265 154.249 15.5152C154.348 15.4039 154.412 15.2658 154.433 15.1183C154.454 14.9708 154.43 14.8204 154.366 14.6861C154.301 14.5517 154.199 14.4395 154.071 14.3634C153.943 14.2873 153.795 14.2507 153.646 14.2583C153.445 14.2718 153.258 14.3635 153.124 14.5139C152.99 14.6642 152.921 14.8611 152.931 15.0621Z" fill="#263238"/>
<path d="M156.657 14.1704L156.633 18.9249L154.117 18.2014L156.657 14.1704Z" fill="#F28F8F"/>
<path d="M150.342 20.8212C150.365 20.816 150.387 20.8062 150.406 20.7924C150.425 20.7786 150.442 20.7611 150.454 20.7408C150.469 20.7209 150.479 20.6984 150.484 20.6745C150.489 20.6506 150.49 20.6259 150.485 20.6019C150.481 20.5778 150.471 20.5549 150.458 20.5346C150.444 20.5143 150.427 20.4969 150.406 20.4836L148.22 19.0287C148.199 19.0151 148.177 19.0057 148.153 19.001C148.129 18.9963 148.104 18.9964 148.08 19.0013C148.056 19.0061 148.034 19.0157 148.013 19.0293C147.993 19.043 147.976 19.0606 147.962 19.0809C147.948 19.1011 147.939 19.1238 147.933 19.1479C147.928 19.1719 147.928 19.1967 147.933 19.2208C147.938 19.2449 147.948 19.2677 147.962 19.2879C147.976 19.308 147.994 19.3251 148.015 19.3382L150.197 20.793C150.218 20.8081 150.241 20.8184 150.266 20.8233C150.291 20.8282 150.317 20.8274 150.342 20.8212Z" fill="#E0E0E0"/>
<path d="M150.106 21.7624C150.14 21.754 150.171 21.7364 150.196 21.7116C150.221 21.6868 150.238 21.6558 150.247 21.6217C150.258 21.5733 150.249 21.5225 150.223 21.4804C150.196 21.4382 150.154 21.4082 150.106 21.3967L147.55 20.8059C147.526 20.7999 147.501 20.7987 147.477 20.8024C147.453 20.806 147.43 20.8144 147.409 20.8271C147.388 20.8399 147.37 20.8566 147.355 20.8764C147.341 20.8962 147.331 20.9187 147.325 20.9425C147.314 20.991 147.323 21.0418 147.349 21.0839C147.375 21.1261 147.417 21.1561 147.466 21.1676L150.022 21.7624C150.05 21.7664 150.078 21.7664 150.106 21.7624Z" fill="#E0E0E0"/>
<path d="M147.734 23.4615H147.758L150.221 22.5613C150.268 22.5442 150.305 22.5095 150.326 22.4646C150.347 22.4198 150.349 22.3685 150.332 22.3222C150.315 22.2758 150.28 22.2381 150.235 22.2174C150.19 22.1967 150.139 22.1946 150.093 22.2116L147.629 23.1119C147.606 23.1204 147.585 23.1334 147.567 23.1502C147.549 23.1669 147.534 23.1872 147.524 23.2096C147.514 23.2321 147.508 23.2564 147.508 23.281C147.507 23.3056 147.512 23.3301 147.521 23.353C147.538 23.3934 147.568 23.4265 147.607 23.4464C147.646 23.4662 147.691 23.4716 147.734 23.4615Z" fill="#E0E0E0"/>
<path d="M126.891 42.7411C126.942 42.8431 127.022 42.9279 127.12 42.9851C127.219 43.0424 127.332 43.0694 127.446 43.063C127.559 43.0566 127.669 43.017 127.76 42.9491C127.852 42.8811 127.921 42.7879 127.96 42.6808L129.793 38.1595C129.823 38.087 129.837 38.0093 129.836 37.9309C129.835 37.8526 129.819 37.7752 129.787 37.7035C129.756 37.6318 129.71 37.5672 129.653 37.5135C129.596 37.4599 129.528 37.4183 129.455 37.3913C129.381 37.3642 129.303 37.3523 129.225 37.3562C129.147 37.3601 129.07 37.3797 128.999 37.4139C128.929 37.4481 128.866 37.4962 128.815 37.5552C128.763 37.6143 128.724 37.6831 128.7 37.7576L126.863 42.2789C126.836 42.3538 126.824 42.4335 126.829 42.5129C126.834 42.5924 126.855 42.6701 126.891 42.7411Z" fill="#E0E0E0"/>
<path d="M123.874 42.7172C123.933 42.8357 124.03 42.9308 124.15 42.9869C124.269 43.043 124.404 43.0567 124.533 43.0259C124.661 42.995 124.776 42.9214 124.857 42.8172C124.938 42.7129 124.981 42.5841 124.98 42.452L124.919 36.8254C124.907 36.6797 124.841 36.5439 124.733 36.4449C124.626 36.346 124.485 36.291 124.339 36.291C124.192 36.291 124.052 36.346 123.944 36.4449C123.836 36.5439 123.77 36.6797 123.758 36.8254L123.814 42.452C123.813 42.5439 123.834 42.6348 123.874 42.7172Z" fill="#E0E0E0"/>
<path d="M118.755 39.5861L118.792 39.6545L121.561 43.6734C121.646 43.8007 121.779 43.8889 121.93 43.919C122.08 43.9491 122.236 43.9186 122.364 43.8342C122.489 43.7464 122.575 43.6137 122.605 43.4639C122.634 43.314 122.604 43.1587 122.521 43.0304L119.752 39.0114C119.671 38.8867 119.546 38.7979 119.402 38.7631C119.257 38.7284 119.105 38.7505 118.977 38.8248C118.848 38.8992 118.753 39.02 118.711 39.1625C118.669 39.3049 118.684 39.4581 118.751 39.5901L118.755 39.5861Z" fill="#E0E0E0"/>
</svg>
