<svg width="24" height="24" viewBox="0 0 24 24" fill="none" xmlns="http://www.w3.org/2000/svg">
<path opacity="0.4" d="M15.5799 12C15.5799 13.98 13.9799 15.58 11.9999 15.58C10.0199 15.58 8.41992 13.98 8.41992 12C8.41992 10.02 10.0199 8.42 11.9999 8.42C13.9799 8.42 15.5799 10.02 15.5799 12Z" stroke="url(#paint0_linear_8158_18364)" stroke-width="1.5" stroke-linecap="round" stroke-linejoin="round"/>
<path d="M11.9998 20.27C15.5298 20.27 18.8198 18.19 21.1098 14.59C22.0098 13.18 22.0098 10.81 21.1098 9.4C18.8198 5.8 15.5298 3.72 11.9998 3.72C8.46984 3.72 5.17984 5.8 2.88984 9.4C1.98984 10.81 1.98984 13.18 2.88984 14.59C5.17984 18.19 8.46984 20.27 11.9998 20.27Z" stroke="url(#paint1_linear_8158_18364)" stroke-width="1.5" stroke-linecap="round" stroke-linejoin="round"/>
<defs>
<linearGradient id="paint0_linear_8158_18364" x1="11.426" y1="3.98813" x2="24.3408" y2="17.0395" gradientUnits="userSpaceOnUse">
<stop stop-color="#005B41"/>
<stop offset="1" stop-color="#008170"/>
<stop offset="1" stop-color="#008170"/>
</linearGradient>
<linearGradient id="paint1_linear_8158_18364" x1="10.4313" y1="-6.52405" x2="39.8174" y2="28.5918" gradientUnits="userSpaceOnUse">
<stop stop-color="#005B41"/>
<stop offset="1" stop-color="#008170"/>
<stop offset="1" stop-color="#008170"/>
</linearGradient>
</defs>
</svg>
