<svg width="24" height="24" viewBox="0 0 24 24" fill="none" xmlns="http://www.w3.org/2000/svg">
<path d="M14.5299 9.47L9.46992 14.53C8.81992 13.88 8.41992 12.99 8.41992 12C8.41992 10.02 10.0199 8.42 11.9999 8.42C12.9899 8.42 13.8799 8.82 14.5299 9.47Z" stroke="url(#paint0_linear_8158_18365)" stroke-width="1.5" stroke-linecap="round" stroke-linejoin="round"/>
<path d="M17.8198 5.77C16.0698 4.45 14.0698 3.73 11.9998 3.73C8.46984 3.73 5.17984 5.81 2.88984 9.41C1.98984 10.82 1.98984 13.19 2.88984 14.6C3.67984 15.84 4.59984 16.91 5.59984 17.77" stroke="url(#paint1_linear_8158_18365)" stroke-width="1.5" stroke-linecap="round" stroke-linejoin="round"/>
<path opacity="0.4" d="M8.41992 19.53C9.55992 20.01 10.7699 20.27 11.9999 20.27C15.5299 20.27 18.8199 18.19 21.1099 14.59C22.0099 13.18 22.0099 10.81 21.1099 9.39999C20.7799 8.87999 20.4199 8.38999 20.0499 7.92999" stroke="url(#paint2_linear_8158_18365)" stroke-width="1.5" stroke-linecap="round" stroke-linejoin="round"/>
<path opacity="0.4" d="M15.5099 12.7C15.2499 14.11 14.0999 15.26 12.6899 15.52" stroke="url(#paint3_linear_8158_18365)" stroke-width="1.5" stroke-linecap="round" stroke-linejoin="round"/>
<path d="M9.47 14.53L2 22" stroke="url(#paint4_linear_8158_18365)" stroke-width="1.5" stroke-linecap="round" stroke-linejoin="round"/>
<path d="M21.9998 2L14.5298 9.47" stroke="url(#paint5_linear_8158_18365)" stroke-width="1.5" stroke-linecap="round" stroke-linejoin="round"/>
<defs>
<linearGradient id="paint0_linear_8158_18365" x1="10.9852" y1="4.63806" x2="22.0061" y2="15.7754" gradientUnits="userSpaceOnUse">
<stop stop-color="#005B41"/>
<stop offset="1" stop-color="#008170"/>
<stop offset="1" stop-color="#008170"/>
</linearGradient>
<linearGradient id="paint1_linear_8158_18365" x1="8.76656" y1="-4.96043" x2="33.9225" y2="23.2952" gradientUnits="userSpaceOnUse">
<stop stop-color="#005B41"/>
<stop offset="1" stop-color="#008170"/>
<stop offset="1" stop-color="#008170"/>
</linearGradient>
<linearGradient id="paint2_linear_8158_18365" x1="14.0312" y1="0.29183" x2="36.2001" y2="24.5561" gradientUnits="userSpaceOnUse">
<stop stop-color="#005B41"/>
<stop offset="1" stop-color="#008170"/>
<stop offset="1" stop-color="#008170"/>
</linearGradient>
<linearGradient id="paint3_linear_8158_18365" x1="13.8739" y1="10.9545" x2="18.9605" y2="16.0948" gradientUnits="userSpaceOnUse">
<stop stop-color="#005B41"/>
<stop offset="1" stop-color="#008170"/>
<stop offset="1" stop-color="#008170"/>
</linearGradient>
<linearGradient id="paint4_linear_8158_18365" x1="5.13626" y1="9.90625" x2="18.6102" y2="23.5227" gradientUnits="userSpaceOnUse">
<stop stop-color="#005B41"/>
<stop offset="1" stop-color="#008170"/>
<stop offset="1" stop-color="#008170"/>
</linearGradient>
<linearGradient id="paint5_linear_8158_18365" x1="17.666" y1="-2.62375" x2="31.14" y2="10.9927" gradientUnits="userSpaceOnUse">
<stop stop-color="#005B41"/>
<stop offset="1" stop-color="#008170"/>
<stop offset="1" stop-color="#008170"/>
</linearGradient>
</defs>
</svg>
