<svg width="17" height="16" viewBox="0 0 17 16" fill="none" xmlns="http://www.w3.org/2000/svg">
<path d="M5.25586 13.9051V13.9047V7.29598L10.0968 8.1488L14.9999 11.5135V13.9047L14.9999 13.9051C14.9999 13.9176 14.9974 13.93 14.9926 13.9416C14.9878 13.9532 14.9808 13.9637 14.9719 13.9725C14.9631 13.9813 14.9525 13.9883 14.941 13.9931C14.9294 13.9978 14.917 14.0003 14.9045 14.0002H14.9024L5.35236 14.0002L5.3511 14.0002C5.33859 14.0002 5.32621 13.9978 5.31465 13.993C5.3031 13.9883 5.29259 13.9813 5.28374 13.9724C5.27489 13.9636 5.26788 13.9531 5.26309 13.9416C5.25831 13.93 5.25585 13.9176 5.25586 13.9051Z" fill="#185C37" stroke="#008170"/>
<path d="M10.2904 1.5H5.35236M10.2904 1.5L10.0257 1.92422L10.1472 2M10.2904 1.5V2H10.1472M10.2904 1.5L10.4982 7.54219M5.35236 1.5L5.00905 4.31884L5.25586 4.46378M5.35236 1.5V1.50001V1.5ZM10.1472 2H5.35236H5.3511V2C5.3386 1.99997 5.32621 2.00241 5.31465 2.00717C5.30309 2.01194 5.29259 2.01894 5.28374 2.02777C5.27489 2.0366 5.26788 2.04709 5.26309 2.05865C5.25831 2.0702 5.25585 2.08258 5.25586 2.09508L5.25586 2.0955L5.25586 4.46378M10.1472 2L14.9999 5.02739V7.67008L13.1987 8.44067L10.4982 7.54219M5.25586 4.46378L10.4982 7.54219M5.25586 4.46378L10.4982 7.54219" fill="#21A366" stroke="#008170"/>
<path d="M5.25586 5.25H9.79036V7.5H5.25586V5.25Z" fill="#107C41" stroke="#008170"/>
<path opacity="0.1" d="M5.25586 11.7251V4.6001H8.71509C8.74114 4.60041 8.76604 4.61088 8.7845 4.62929C8.80287 4.64762 8.81339 4.67235 8.81386 4.69827V11.6269C8.81339 11.6528 8.80287 11.6776 8.7845 11.6959C8.76604 11.7143 8.74114 11.7248 8.7151 11.7251H5.25586Z" fill="black" stroke="#008170"/>
<path opacity="0.2" d="M5.25586 12.0498V4.9248H8.38959C8.41564 4.92512 8.44054 4.93559 8.459 4.954C8.47736 4.97232 8.48788 4.99705 8.48836 5.02296V11.9516C8.48788 11.9776 8.47736 12.0023 8.459 12.0206C8.44054 12.039 8.41564 12.0495 8.3896 12.0498H5.25586Z" fill="black" stroke="#008170"/>
<path opacity="0.2" d="M8.39136 4.4248H4.75586V11.8998H8.39136C8.54919 11.899 8.70036 11.8361 8.81211 11.7246C8.92385 11.6131 8.98718 11.4621 8.98836 11.3043V5.0203C8.98718 4.86247 8.92385 4.71147 8.81211 4.6C8.70036 4.48853 8.54919 4.42559 8.39136 4.4248Z" fill="black"/>
<path opacity="0.2" d="M8.06586 4.4248H4.75586V11.8998H8.06586C8.22369 11.899 8.37486 11.8361 8.48661 11.7246C8.59835 11.6131 8.66168 11.4621 8.66286 11.3043V5.0203C8.66168 4.86247 8.59835 4.71147 8.48661 4.6C8.37486 4.48853 8.22369 4.42559 8.06586 4.4248Z" fill="black"/>
<path d="M2.097 4.42481H8.066C8.22412 4.42468 8.37581 4.48732 8.48776 4.59899C8.5997 4.71065 8.66274 4.86219 8.663 5.02031V10.9793C8.66274 11.1374 8.5997 11.289 8.48776 11.4006C8.37581 11.5123 8.22412 11.5749 8.066 11.5748H2.097C2.01865 11.5751 1.94103 11.5599 1.86857 11.53C1.79612 11.5002 1.73027 11.4564 1.6748 11.4011C1.61933 11.3457 1.57534 11.28 1.54534 11.2076C1.51534 11.1352 1.49993 11.0577 1.5 10.9793V5.02031C1.49993 4.94196 1.51534 4.86437 1.54534 4.79199C1.57534 4.71962 1.61933 4.65388 1.6748 4.59855C1.73027 4.54322 1.79612 4.49939 1.86857 4.46957C1.94103 4.43976 2.01865 4.42454 2.097 4.42481Z" fill="url(#paint0_linear_11447_32551)"/>
<path d="M3.3501 9.93648L4.6056 7.99448L3.4556 6.06348H4.3791L5.0066 7.29998C5.0646 7.41698 5.1066 7.50398 5.1256 7.56198H5.1341C5.1751 7.46831 5.21843 7.37731 5.2641 7.28898L5.9351 6.06548H6.7851L5.6056 7.98548L6.8151 9.93798H5.9106L5.1856 8.58248C5.15203 8.52415 5.12343 8.4631 5.1001 8.39998H5.0881C5.06691 8.4615 5.03872 8.52038 5.0041 8.57548L4.2576 9.93648H3.3501Z" fill="white"/>
<path d="M14.903 1.5H10.2905V4.75H15.5V2.0955C15.5001 2.01716 15.4847 1.93957 15.4547 1.86719C15.4247 1.79481 15.3807 1.72907 15.3252 1.67374C15.2698 1.61841 15.2039 1.57458 15.1315 1.54477C15.059 1.51495 14.9814 1.49974 14.903 1.5Z" fill="#33C481"/>
<path d="M10.2905 8H15.5V11.25H10.2905V8Z" fill="#107C41"/>
<defs>
<linearGradient id="paint0_linear_11447_32551" x1="2.747" y1="3.95681" x2="7.416" y2="12.0428" gradientUnits="userSpaceOnUse">
<stop stop-color="#18884F"/>
<stop offset="0.5" stop-color="#117E43"/>
<stop offset="1" stop-color="#0B6631"/>
</linearGradient>
</defs>
</svg>
