<svg width="17" height="16" viewBox="0 0 17 16" fill="none" xmlns="http://www.w3.org/2000/svg">
<path d="M5.25598 13.9049V13.9045V7.29573L10.097 8.14856L15 11.5132V13.9045L15 13.9049C15 13.9174 14.9975 13.9298 14.9927 13.9413C14.9879 13.9529 14.9809 13.9634 14.972 13.9722C14.9632 13.9811 14.9527 13.9881 14.9411 13.9928C14.9295 13.9976 14.9171 14 14.9046 14H14.9025L5.35248 14L5.35122 14C5.33872 14 5.32633 13.9975 5.31477 13.9928C5.30322 13.988 5.29271 13.981 5.28386 13.9722C5.27501 13.9634 5.268 13.9529 5.26321 13.9413C5.25843 13.9298 5.25597 13.9174 5.25598 13.9049Z" fill="#185C37" stroke="#008170"/>
<path d="M10.2905 1.5H5.35248M10.2905 1.5L10.0258 1.92422L10.1473 2M10.2905 1.5V2H10.1473M10.2905 1.5L10.4983 7.54219M5.35248 1.5L5.00917 4.31884L5.25598 4.46378M5.35248 1.5V1.50001V1.5ZM10.1473 2H5.35248H5.35122V2C5.33872 1.99997 5.32633 2.00241 5.31477 2.00717C5.30322 2.01194 5.29271 2.01894 5.28386 2.02777C5.27501 2.0366 5.268 2.04709 5.26321 2.05865C5.25843 2.0702 5.25597 2.08258 5.25598 2.09508L5.25598 2.0955L5.25598 4.46378M10.1473 2L15 5.02739V7.67008L13.1988 8.44067L10.4983 7.54219M5.25598 4.46378L10.4983 7.54219M5.25598 4.46378L10.4983 7.54219" fill="#21A366" stroke="#008170"/>
<path d="M5.25598 5.25H9.79048V7.5H5.25598V5.25Z" fill="#107C41" stroke="#008170"/>
<path opacity="0.1" d="M5.25598 11.7251V4.6001H8.71522C8.74126 4.60041 8.76617 4.61088 8.78462 4.62929C8.80299 4.64762 8.81351 4.67235 8.81398 4.69827V11.6269C8.81351 11.6528 8.80299 11.6776 8.78462 11.6959C8.76617 11.7143 8.74126 11.7248 8.71522 11.7251H5.25598Z" fill="black" stroke="#008170"/>
<path opacity="0.2" d="M5.25598 12.05V4.92505H8.38972C8.41576 4.92537 8.44067 4.93583 8.45912 4.95424C8.47749 4.97256 8.48801 4.99729 8.48848 5.0232V11.9519C8.48801 11.9778 8.47749 12.0025 8.45912 12.0209C8.44067 12.0393 8.41576 12.0497 8.38972 12.05H5.25598Z" fill="black" stroke="#008170"/>
<path opacity="0.2" d="M8.39148 4.42505H4.75598V11.9H8.39148C8.54931 11.8993 8.70048 11.8363 8.81223 11.7249C8.92398 11.6134 8.9873 11.4624 8.98848 11.3045V5.02055C8.9873 4.86272 8.92398 4.71171 8.81223 4.60024C8.70048 4.48878 8.54931 4.42583 8.39148 4.42505Z" fill="black"/>
<path opacity="0.2" d="M8.06598 4.42505H4.75598V11.9H8.06598C8.22381 11.8993 8.37498 11.8363 8.48673 11.7249C8.59847 11.6134 8.6618 11.4624 8.66298 11.3045V5.02055C8.6618 4.86272 8.59847 4.71171 8.48673 4.60024C8.37498 4.48878 8.22381 4.42583 8.06598 4.42505Z" fill="black"/>
<path d="M2.097 4.42505H8.066C8.22412 4.42492 8.37581 4.48757 8.48776 4.59923C8.5997 4.7109 8.66274 4.86244 8.663 5.02055V10.9796C8.66274 11.1377 8.5997 11.2892 8.48776 11.4009C8.37581 11.5125 8.22412 11.5752 8.066 11.5751H2.097C2.01865 11.5753 1.94103 11.5601 1.86857 11.5303C1.79612 11.5005 1.73027 11.4566 1.6748 11.4013C1.61933 11.346 1.57534 11.2802 1.54534 11.2079C1.51534 11.1355 1.49993 11.0579 1.5 10.9796V5.02055C1.49993 4.9422 1.51534 4.86462 1.54534 4.79224C1.57534 4.71986 1.61933 4.65412 1.6748 4.59879C1.73027 4.54346 1.79612 4.49963 1.86857 4.46982C1.94103 4.44 2.01865 4.42479 2.097 4.42505Z" fill="url(#paint0_linear_11709_3493)"/>
<path d="M3.34998 9.93648L4.60548 7.99448L3.45548 6.06348H4.37898L5.00648 7.29998C5.06448 7.41698 5.10648 7.50398 5.12548 7.56198H5.13398C5.17498 7.46831 5.21831 7.37731 5.26398 7.28898L5.93498 6.06548H6.78498L5.60548 7.98548L6.81498 9.93798H5.91048L5.18548 8.58248C5.15191 8.52415 5.12331 8.4631 5.09998 8.39998H5.08798C5.06679 8.4615 5.0386 8.52038 5.00398 8.57548L4.25748 9.93648H3.34998Z" fill="white"/>
<path d="M14.903 1.5H10.2905V4.75H15.5V2.0955C15.5001 2.01716 15.4847 1.93957 15.4547 1.86719C15.4247 1.79481 15.3807 1.72907 15.3252 1.67374C15.2698 1.61841 15.2039 1.57458 15.1315 1.54477C15.059 1.51495 14.9814 1.49974 14.903 1.5Z" fill="#33C481"/>
<path d="M10.2905 8H15.5V11.25H10.2905V8Z" fill="#107C41"/>
<defs>
<linearGradient id="paint0_linear_11709_3493" x1="2.747" y1="3.95705" x2="7.416" y2="12.0431" gradientUnits="userSpaceOnUse">
<stop stop-color="#18884F"/>
<stop offset="0.5" stop-color="#117E43"/>
<stop offset="1" stop-color="#0B6631"/>
</linearGradient>
</defs>
</svg>
