<svg width="16" height="16" viewBox="0 0 16 16" fill="none" xmlns="http://www.w3.org/2000/svg">
<mask id="path-1-inside-1_11447_33678" fill="white">
<path d="M12.05 1.03613L14.832 3.93613V14.9641H4.43945V15.0001H14.8675V3.97263L12.05 1.03613Z"/>
</mask>
<path d="M12.05 1.03613L14.832 3.93613V14.9641H4.43945V15.0001H14.8675V3.97263L12.05 1.03613Z" fill="#909090"/>
<path d="M12.05 1.03613L12.7715 0.343798L11.3283 1.72841L12.05 1.03613ZM14.832 3.93613H15.832V3.53403L15.5536 3.24386L14.832 3.93613ZM14.832 14.9641V15.9641H15.832V14.9641H14.832ZM4.43945 14.9641V13.9641H3.43945V14.9641H4.43945ZM4.43945 15.0001H3.43945V16.0001H4.43945V15.0001ZM14.8675 15.0001V16.0001H15.8675V15.0001H14.8675ZM14.8675 3.97263H15.8675V3.57048L15.589 3.2803L14.8675 3.97263ZM11.3283 1.72841L14.1103 4.62841L15.5536 3.24386L12.7716 0.34386L11.3283 1.72841ZM13.832 3.93613V14.9641H15.832V3.93613H13.832ZM14.832 13.9641H4.43945V15.9641H14.832V13.9641ZM3.43945 14.9641V15.0001H5.43945V14.9641H3.43945ZM4.43945 16.0001H14.8675V14.0001H4.43945V16.0001ZM15.8675 15.0001V3.97263H13.8675V15.0001H15.8675ZM15.589 3.2803L12.7715 0.343798L11.3284 1.72847L14.1459 4.66497L15.589 3.2803Z" fill="#008170" mask="url(#path-1-inside-1_11447_33678)"/>
<path d="M12.0156 1H4.40405V14.964H14.8321V3.9365L12.0156 1Z" fill="#F4F4F4"/>
<path d="M1.63257 4.6635V2.25H4.32757H10.6826V4.6635H1.63257Z" fill="#7A7B7C" stroke="#008170"/>
<path d="M11.236 5.10545H1.19751V1.68945H11.236V5.10545Z" fill="#DD2025"/>
<mask id="path-6-inside-2_11447_33678" fill="white">
<path d="M4.52606 2.26684H3.87256V4.66684H4.38656V3.85734L4.50006 3.86384C4.61038 3.86232 4.71969 3.84255 4.82356 3.80534C4.91487 3.77433 4.99879 3.7248 5.07006 3.65984C5.14314 3.59856 5.20056 3.52074 5.23756 3.43284C5.28818 3.28719 5.30611 3.13219 5.29006 2.97884C5.28721 2.86926 5.268 2.76073 5.23306 2.65684C5.20157 2.58174 5.15476 2.51405 5.09561 2.45808C5.03646 2.40212 4.96628 2.35912 4.88956 2.33184C4.82342 2.30734 4.75487 2.28991 4.68506 2.27984C4.63232 2.27125 4.57899 2.2669 4.52556 2.26684M4.43106 3.41384H4.38656V2.67384H4.48306C4.52565 2.67077 4.56838 2.6773 4.60811 2.69297C4.64783 2.70863 4.68353 2.73302 4.71256 2.76434C4.77272 2.84484 4.80486 2.94284 4.80406 3.04334C4.80406 3.16634 4.80406 3.27784 4.69306 3.35634C4.61311 3.40037 4.52207 3.42068 4.43106 3.41384ZM6.26656 2.26034C6.21106 2.26034 6.15706 2.26434 6.11906 2.26584L6.00006 2.26884H5.61006V4.66884H6.06906C6.24445 4.67335 6.41904 4.64363 6.58306 4.58134C6.71512 4.52919 6.83201 4.44478 6.92306 4.33584C7.01228 4.22641 7.07599 4.09848 7.10956 3.96134C7.14899 3.8063 7.16815 3.6468 7.16656 3.48684C7.17635 3.29792 7.16173 3.10852 7.12306 2.92334C7.08604 2.78718 7.01753 2.66164 6.92306 2.55684C6.84896 2.47209 6.7578 2.40394 6.65556 2.35684C6.56797 2.31624 6.47581 2.28635 6.38106 2.26784C6.34338 2.26166 6.30523 2.25882 6.26706 2.25934M6.17606 4.22784H6.12606V2.69584H6.13256C6.23564 2.68392 6.33995 2.70252 6.43256 2.74934C6.50039 2.8035 6.55566 2.87174 6.59456 2.94934C6.63654 3.03101 6.66073 3.12064 6.66556 3.21234C6.67006 3.32234 6.66556 3.41234 6.66556 3.48684C6.66741 3.57265 6.66189 3.65847 6.64906 3.74334C6.63333 3.83037 6.60486 3.91461 6.56456 3.99334C6.51903 4.06676 6.45686 4.12842 6.38306 4.17334C6.32141 4.21334 6.24833 4.23196 6.17506 4.22634M8.71506 2.26884H7.50006V4.66884H8.01406V3.71684H8.66406V3.27084H8.01406V2.71484H8.71406V2.26884"/>
</mask>
<path d="M4.52606 2.26684H3.87256V4.66684H4.38656V3.85734L4.50006 3.86384C4.61038 3.86232 4.71969 3.84255 4.82356 3.80534C4.91487 3.77433 4.99879 3.7248 5.07006 3.65984C5.14314 3.59856 5.20056 3.52074 5.23756 3.43284C5.28818 3.28719 5.30611 3.13219 5.29006 2.97884C5.28721 2.86926 5.268 2.76073 5.23306 2.65684C5.20157 2.58174 5.15476 2.51405 5.09561 2.45808C5.03646 2.40212 4.96628 2.35912 4.88956 2.33184C4.82342 2.30734 4.75487 2.28991 4.68506 2.27984C4.63232 2.27125 4.57899 2.2669 4.52556 2.26684M4.43106 3.41384H4.38656V2.67384H4.48306C4.52565 2.67077 4.56838 2.6773 4.60811 2.69297C4.64783 2.70863 4.68353 2.73302 4.71256 2.76434C4.77272 2.84484 4.80486 2.94284 4.80406 3.04334C4.80406 3.16634 4.80406 3.27784 4.69306 3.35634C4.61311 3.40037 4.52207 3.42068 4.43106 3.41384ZM6.26656 2.26034C6.21106 2.26034 6.15706 2.26434 6.11906 2.26584L6.00006 2.26884H5.61006V4.66884H6.06906C6.24445 4.67335 6.41904 4.64363 6.58306 4.58134C6.71512 4.52919 6.83201 4.44478 6.92306 4.33584C7.01228 4.22641 7.07599 4.09848 7.10956 3.96134C7.14899 3.8063 7.16815 3.6468 7.16656 3.48684C7.17635 3.29792 7.16173 3.10852 7.12306 2.92334C7.08604 2.78718 7.01753 2.66164 6.92306 2.55684C6.84896 2.47209 6.7578 2.40394 6.65556 2.35684C6.56797 2.31624 6.47581 2.28635 6.38106 2.26784C6.34338 2.26166 6.30523 2.25882 6.26706 2.25934M6.17606 4.22784H6.12606V2.69584H6.13256C6.23564 2.68392 6.33995 2.70252 6.43256 2.74934C6.50039 2.8035 6.55566 2.87174 6.59456 2.94934C6.63654 3.03101 6.66073 3.12064 6.66556 3.21234C6.67006 3.32234 6.66556 3.41234 6.66556 3.48684C6.66741 3.57265 6.66189 3.65847 6.64906 3.74334C6.63333 3.83037 6.60486 3.91461 6.56456 3.99334C6.51903 4.06676 6.45686 4.12842 6.38306 4.17334C6.32141 4.21334 6.24833 4.23196 6.17506 4.22634M8.71506 2.26884H7.50006V4.66884H8.01406V3.71684H8.66406V3.27084H8.01406V2.71484H8.71406V2.26884" fill="#464648"/>
<path d="M3.87256 2.26684V1.26684H2.87256V2.26684H3.87256ZM3.87256 4.66684H2.87256V5.66684H3.87256V4.66684ZM4.38656 4.66684V5.66684H5.38656V4.66684H4.38656ZM4.38656 3.85734L4.44373 2.85897L3.38656 2.79843V3.85734H4.38656ZM4.50006 3.86384L4.44288 4.8622L4.47833 4.86423L4.51384 4.86374L4.50006 3.86384ZM4.82356 3.80534L4.50205 2.85843L4.49414 2.86112L4.48628 2.86393L4.82356 3.80534ZM5.07006 3.65984L4.42754 2.89357L4.41169 2.90686L4.39641 2.92079L5.07006 3.65984ZM5.23756 3.43284L6.15925 3.82077L6.17164 3.79133L6.18213 3.76115L5.23756 3.43284ZM5.29006 2.97884L4.2904 3.00485L4.29141 3.04398L4.29549 3.08291L5.29006 2.97884ZM5.23306 2.65684L6.1809 2.3381L6.16933 2.30368L6.15529 2.27019L5.23306 2.65684ZM4.88956 2.33184L4.54222 3.26967L4.55451 3.27404L4.88956 2.33184ZM4.68506 2.27984L4.52433 3.26684L4.53328 3.26829L4.54225 3.26959L4.68506 2.27984ZM4.43106 3.41384L4.50603 2.41665L4.4686 2.41384H4.43106V3.41384ZM4.38656 3.41384H3.38656V4.41384H4.38656V3.41384ZM4.38656 2.67384V1.67384H3.38656V2.67384H4.38656ZM4.48306 2.67384V3.67384H4.51907L4.55499 3.67125L4.48306 2.67384ZM4.71256 2.76434L5.51361 2.16575L5.48191 2.12332L5.4459 2.08447L4.71256 2.76434ZM4.80406 3.04334L3.80406 3.03541V3.04334H4.80406ZM4.69306 3.35634L5.17553 4.23225L5.22467 4.20518L5.27046 4.1728L4.69306 3.35634ZM6.11906 2.26584L6.14426 3.26552L6.15138 3.26534L6.1585 3.26506L6.11906 2.26584ZM6.00006 2.26884V3.26884H6.01266L6.02526 3.26852L6.00006 2.26884ZM5.61006 2.26884V1.26884H4.61006V2.26884H5.61006ZM5.61006 4.66884H4.61006V5.66884H5.61006V4.66884ZM6.06906 4.66884L6.09477 3.66917L6.08192 3.66884H6.06906V4.66884ZM6.58306 4.58134L6.93812 5.51627L6.95037 5.51144L6.58306 4.58134ZM6.92306 4.33584L7.69043 4.97716L7.69807 4.96778L6.92306 4.33584ZM7.10956 3.96134L6.14038 3.71481L6.13823 3.72361L7.10956 3.96134ZM7.16656 3.48684L6.1679 3.4351L6.1663 3.46594L6.16661 3.49681L7.16656 3.48684ZM7.12306 2.92334L8.10195 2.71894L8.09585 2.68976L8.08803 2.66099L7.12306 2.92334ZM6.92306 2.55684L6.17026 3.21509L6.17524 3.22079L6.18031 3.2264L6.92306 2.55684ZM6.65556 2.35684L6.235 3.26411L6.23714 3.26509L6.65556 2.35684ZM6.38106 2.26784L6.57287 1.2864L6.55788 1.28348L6.54282 1.28101L6.38106 2.26784ZM6.12606 4.22784H5.12606V5.22784H6.12606V4.22784ZM6.12606 2.69584V1.69584H5.12606V2.69584H6.12606ZM6.13256 2.69584V3.69584H6.19018L6.24743 3.68922L6.13256 2.69584ZM6.43256 2.74934L7.05654 1.9679L6.97586 1.90348L6.88373 1.8569L6.43256 2.74934ZM6.59456 2.94934L5.70053 3.39747L5.70517 3.40649L6.59456 2.94934ZM6.66556 3.21234L7.66479 3.17146L7.66418 3.1598L6.66556 3.21234ZM6.66556 3.48684H5.66556V3.49761L5.66579 3.50838L6.66556 3.48684ZM6.64906 3.74334L7.63312 3.92119L7.63568 3.90703L7.63783 3.8928L6.64906 3.74334ZM6.56456 3.99334L7.41445 4.5203L7.43605 4.48546L7.45473 4.44897L6.56456 3.99334ZM6.38306 4.17334L5.86317 3.3191L5.85083 3.32662L5.83871 3.33448L6.38306 4.17334ZM7.50006 2.26884V1.26884H6.50006V2.26884H7.50006ZM7.50006 4.66884H6.50006V5.66884H7.50006V4.66884ZM8.01406 4.66884V5.66884H9.01406V4.66884H8.01406ZM8.01406 3.71684V2.71684H7.01406V3.71684H8.01406ZM8.66406 3.71684V4.71684H9.66406V3.71684H8.66406ZM8.66406 3.27084H9.66406V2.27084H8.66406V3.27084ZM8.01406 3.27084H7.01406V4.27084H8.01406V3.27084ZM8.01406 2.71484V1.71484H7.01406V2.71484H8.01406ZM8.71406 2.71484V3.71484H9.71406V2.71484H8.71406ZM4.52606 1.26684H3.87256V3.26684H4.52606V1.26684ZM2.87256 2.26684V4.66684H4.87256V2.26684H2.87256ZM3.87256 5.66684H4.38656V3.66684H3.87256V5.66684ZM5.38656 4.66684V3.85734H3.38656V4.66684H5.38656ZM4.32938 4.8557L4.44288 4.8622L4.55723 2.86547L4.44373 2.85897L4.32938 4.8557ZM4.51384 4.86374C4.73448 4.8607 4.9531 4.82117 5.16084 4.74674L4.48628 2.86393L4.48628 2.86393L4.51384 4.86374ZM5.14507 4.75224C5.36682 4.67695 5.57063 4.55665 5.74371 4.39889L4.39641 2.92079C4.42695 2.89295 4.46292 2.87172 4.50205 2.85843L5.14507 4.75224ZM5.71258 4.42611C5.90746 4.2627 6.06058 4.05518 6.15925 3.82077L4.31587 3.0449C4.34054 2.9863 4.37882 2.93442 4.42754 2.89357L5.71258 4.42611ZM6.18213 3.76115C6.28096 3.4768 6.31596 3.17417 6.28463 2.87477L4.29549 3.08291C4.29625 3.09021 4.2954 3.09759 4.29299 3.10453L6.18213 3.76115ZM6.28972 2.95283C6.28428 2.74364 6.2476 2.53644 6.1809 2.3381L4.28521 2.97557C4.28839 2.98502 4.29014 2.99489 4.2904 3.00485L6.28972 2.95283ZM6.15529 2.27019C6.06999 2.06673 5.94315 1.88332 5.78289 1.73169L4.40834 3.18448C4.36637 3.14478 4.33316 3.09675 4.31083 3.04348L6.15529 2.27019ZM5.78289 1.73169C5.62263 1.58006 5.43248 1.46356 5.22461 1.38964L4.55451 3.27404C4.50008 3.25468 4.4503 3.22418 4.40834 3.18448L5.78289 1.73169ZM5.23687 1.39409C5.10459 1.34509 4.96749 1.31023 4.82787 1.29009L4.54225 3.26959L4.54225 3.26959L5.23687 1.39409ZM4.84578 1.29284C4.74032 1.27566 4.63364 1.26697 4.52678 1.26684L4.52433 3.26684L4.52433 3.26684L4.84578 1.29284ZM4.43106 2.41384H4.38656V4.41384H4.43106V2.41384ZM5.38656 3.41384V2.67384H3.38656V3.41384H5.38656ZM4.38656 3.67384H4.48306V1.67384H4.38656V3.67384ZM4.55499 3.67125C4.44814 3.67895 4.34092 3.66255 4.24126 3.62325L4.97495 1.76269C4.79585 1.69206 4.60316 1.66258 4.41113 1.67643L4.55499 3.67125ZM4.24126 3.62325C4.14161 3.58395 4.05206 3.52277 3.97922 3.4442L5.4459 2.08447C5.315 1.94328 5.15405 1.83331 4.97495 1.76269L4.24126 3.62325ZM3.9115 3.36293C3.84088 3.26842 3.80315 3.15338 3.80409 3.03541L5.80403 3.05127C5.80656 2.7323 5.70456 2.42127 5.51361 2.16575L3.9115 3.36293ZM3.80406 3.04334C3.80406 3.08002 3.80374 3.0795 3.80411 3.07335C3.80466 3.06413 3.80743 3.02198 3.82271 2.96355C3.83902 2.90116 3.86945 2.82051 3.92518 2.73691C3.98169 2.65214 4.04928 2.58682 4.11565 2.53988L5.27046 4.1728C5.85818 3.75716 5.80406 3.08948 5.80406 3.04334H3.80406ZM4.21058 2.48043C4.29742 2.43259 4.39966 2.40865 4.50603 2.41665L4.35609 4.41102C4.64449 4.43271 4.9288 4.36816 5.17553 4.23225L4.21058 2.48043ZM6.26656 1.26034C6.21609 1.26034 6.17096 1.26214 6.13915 1.26363C6.092 1.26586 6.09755 1.26591 6.07962 1.26662L6.1585 3.26506C6.17498 3.26441 6.1912 3.26357 6.20224 3.263C6.21508 3.26233 6.22383 3.26186 6.23334 3.26142C6.25191 3.26054 6.26153 3.26034 6.26656 3.26034V1.26034ZM6.09386 1.26616L5.97486 1.26916L6.02526 3.26852L6.14426 3.26552L6.09386 1.26616ZM6.00006 1.26884H5.61006V3.26884H6.00006V1.26884ZM4.61006 2.26884V4.66884H6.61006V2.26884H4.61006ZM5.61006 5.66884H6.06906V3.66884H5.61006V5.66884ZM6.04335 5.66851C6.34866 5.67636 6.65257 5.62462 6.93809 5.51619L6.22803 3.64648C6.1855 3.66263 6.14024 3.67034 6.09477 3.66917L6.04335 5.66851ZM6.95037 5.51144C7.23779 5.39793 7.4922 5.21423 7.69037 4.97711L6.15575 3.69456C6.17181 3.67534 6.19244 3.66044 6.21575 3.65124L6.95037 5.51144ZM7.69807 4.96778C7.88122 4.74317 8.01199 4.48057 8.08089 4.19907L6.13823 3.72361C6.13999 3.71639 6.14335 3.70965 6.14804 3.70389L7.69807 4.96778ZM8.0787 4.20785C8.13945 3.96901 8.16897 3.7233 8.16651 3.47686L6.16661 3.49681C6.16734 3.57031 6.15854 3.64359 6.14042 3.71482L8.0787 4.20785ZM8.16522 3.53858C8.17946 3.26378 8.15819 2.9883 8.10195 2.71894L6.14417 3.12774C6.16526 3.22874 6.17324 3.33205 6.1679 3.4351L8.16522 3.53858ZM8.08803 2.66099C8.00989 2.37355 7.86525 2.10852 7.66581 1.88727L6.18031 3.2264C6.16981 3.21476 6.1622 3.20081 6.15808 3.18568L8.08803 2.66099ZM7.67586 1.89858C7.50913 1.70791 7.30403 1.55457 7.07398 1.44859L6.23714 3.26509C6.21158 3.25331 6.18879 3.23628 6.17026 3.21509L7.67586 1.89858ZM7.07612 1.44957C6.91554 1.37514 6.74657 1.32035 6.57287 1.2864L6.18925 3.24927C6.20504 3.25236 6.2204 3.25734 6.235 3.2641L7.07612 1.44957ZM6.54282 1.28101C6.44718 1.26533 6.35034 1.25811 6.25343 1.25943L6.28068 3.25924C6.26013 3.25952 6.23959 3.25799 6.2193 3.25467L6.54282 1.28101ZM6.17606 3.22784H6.12606V5.22784H6.17606V3.22784ZM7.12606 4.22784V2.69584H5.12606V4.22784H7.12606ZM6.12606 3.69584H6.13256V1.69584H6.12606V3.69584ZM6.24743 3.68922C6.15601 3.69979 6.06351 3.68329 5.98139 3.64178L6.88373 1.8569C6.61639 1.72175 6.31527 1.66805 6.01769 1.70246L6.24743 3.68922ZM5.80858 3.53078C5.76336 3.49467 5.72651 3.44918 5.70058 3.39744L7.48854 2.50123C7.38481 2.2943 7.23742 2.11233 7.05654 1.9679L5.80858 3.53078ZM5.70517 3.40649C5.68257 3.36252 5.66954 3.31425 5.66694 3.26488L7.66418 3.1598C7.65193 2.92703 7.59051 2.69949 7.48395 2.49218L5.70517 3.40649ZM5.66639 3.25321C5.66764 3.28354 5.66777 3.31407 5.66732 3.35056C5.66708 3.37021 5.66674 3.38724 5.66634 3.41095C5.66597 3.43232 5.66556 3.45912 5.66556 3.48684H7.66556C7.66556 3.47749 7.67013 3.30373 7.66472 3.17146L5.66639 3.25321ZM5.66579 3.50838C5.66641 3.53698 5.66457 3.56559 5.66029 3.59388L7.63783 3.8928C7.65921 3.75135 7.66841 3.60832 7.66533 3.4653L5.66579 3.50838ZM5.665 3.56548C5.66675 3.55581 5.66991 3.54645 5.67439 3.5377L7.45473 4.44897C7.5398 4.28277 7.59991 4.10493 7.63312 3.92119L5.665 3.56548ZM5.71467 3.46638C5.75192 3.40631 5.80279 3.35585 5.86317 3.3191L6.90295 5.02757C7.11092 4.901 7.28615 4.72721 7.41445 4.5203L5.71467 3.46638ZM5.83871 3.33448C5.96107 3.25507 6.10616 3.21811 6.2516 3.22927L6.09851 5.2234C6.3905 5.24582 6.68176 5.17161 6.92741 5.01219L5.83871 3.33448ZM8.71506 1.26884H7.50006V3.26884H8.71506V1.26884ZM6.50006 2.26884V4.66884H8.50006V2.26884H6.50006ZM7.50006 5.66884H8.01406V3.66884H7.50006V5.66884ZM9.01406 4.66884V3.71684H7.01406V4.66884H9.01406ZM8.01406 4.71684H8.66406V2.71684H8.01406V4.71684ZM9.66406 3.71684V3.27084H7.66406V3.71684H9.66406ZM8.66406 2.27084H8.01406V4.27084H8.66406V2.27084ZM9.01406 3.27084V2.71484H7.01406V3.27084H9.01406ZM8.01406 3.71484H8.71406V1.71484H8.01406V3.71484ZM9.71406 2.71484V2.26884H7.71406V2.71484H9.71406Z" fill="#008170" mask="url(#path-6-inside-2_11447_33678)"/>
<path d="M10.8906 10.1273C10.8906 10.1273 12.4846 9.83826 12.4846 10.3828C12.4846 10.9273 11.4971 10.7058 10.8906 10.1273ZM9.71209 10.1688C9.45879 10.2246 9.21197 10.3065 8.97559 10.4133L9.17559 9.96326C9.37559 9.51326 9.58309 8.89976 9.58309 8.89976C9.82115 9.30182 10.0989 9.67904 10.4121 10.0258C10.1763 10.0609 9.94261 10.109 9.71209 10.1698V10.1688ZM9.08109 6.91876C9.08109 6.44426 9.23459 6.31476 9.35409 6.31476C9.47359 6.31476 9.60809 6.37226 9.61259 6.78426C9.5736 7.19853 9.48686 7.60691 9.35409 8.00126C9.1716 7.67039 9.07741 7.2981 9.08059 6.92026L9.08109 6.91876ZM6.75659 12.1768C6.26759 11.8843 7.78209 10.9838 8.05659 10.9548C8.05509 10.9553 7.26859 12.4828 6.75659 12.1768ZM12.9501 10.4473C12.9451 10.3973 12.9001 9.84376 11.9151 9.86726C11.5045 9.86006 11.0941 9.88901 10.6886 9.95376C10.2955 9.55813 9.95719 9.11166 9.68259 8.62626C9.85549 8.12591 9.96026 7.60456 9.99409 7.07626C9.97959 6.47626 9.83609 6.13226 9.37609 6.13726C8.91609 6.14226 8.84909 6.54476 8.90959 7.14376C8.9688 7.5463 9.08059 7.93932 9.24209 8.31276C9.24209 8.31276 9.02959 8.97426 8.74859 9.63226C8.46759 10.2903 8.27559 10.6353 8.27559 10.6353C7.78688 10.7942 7.32686 11.0305 6.91309 11.3353C6.50109 11.7188 6.33359 12.0133 6.55059 12.3078C6.73759 12.5618 7.39209 12.6193 7.97709 11.8528C8.28738 11.4565 8.57133 11.0402 8.82709 10.6068C8.82709 10.6068 9.71909 10.3623 9.99659 10.2953C10.2741 10.2283 10.6096 10.1753 10.6096 10.1753C10.6096 10.1753 11.4241 10.9948 12.2096 10.9658C12.9951 10.9368 12.9571 10.4963 12.9521 10.4483" fill="#DD2025"/>
<path d="M11.9771 1.03857V3.97507H14.7936L11.9771 1.03857Z" fill="#909090"/>
<path d="M12.0154 1V3.9365H14.8319L12.0154 1Z" fill="#F4F4F4"/>
<path d="M4.48748 2.22826H3.83398V4.62826H4.34998V3.81926L4.46398 3.82576C4.57431 3.82424 4.68362 3.80448 4.78748 3.76726C4.8788 3.73626 4.96272 3.68672 5.03398 3.62176C5.10652 3.56032 5.16341 3.48251 5.19998 3.39476C5.25061 3.24912 5.26853 3.09412 5.25248 2.94076C5.24963 2.83119 5.23042 2.72266 5.19548 2.61876C5.164 2.54367 5.11719 2.47597 5.05804 2.42001C4.99889 2.36405 4.92871 2.32105 4.85198 2.29376C4.78554 2.26903 4.71665 2.25143 4.64648 2.24126C4.59375 2.23268 4.54041 2.22833 4.48698 2.22826M4.39248 3.37526H4.34798V2.63526H4.44498C4.48757 2.63219 4.53031 2.63873 4.57003 2.65439C4.60976 2.67006 4.64545 2.69445 4.67448 2.72576C4.73464 2.80627 4.76678 2.90427 4.76598 3.00476C4.76598 3.12776 4.76598 3.23926 4.65498 3.31776C4.57504 3.3618 4.484 3.38161 4.39298 3.37476M6.22798 2.22176C6.17248 2.22176 6.11848 2.22576 6.08048 2.22726L5.96298 2.23026H5.57298V4.63026H6.03198C6.20738 4.63477 6.38196 4.60505 6.54598 4.54276C6.67804 4.49061 6.79493 4.40621 6.88598 4.29726C6.97521 4.18784 7.03892 4.0599 7.07248 3.92276C7.11192 3.76773 7.13108 3.60823 7.12948 3.44826C7.13927 3.25934 7.12465 3.06995 7.08598 2.88476C7.04897 2.74861 6.98046 2.62306 6.88598 2.51826C6.81188 2.43352 6.72073 2.36537 6.61848 2.31826C6.5309 2.27766 6.43873 2.24778 6.34398 2.22926C6.30631 2.22309 6.26816 2.22024 6.22998 2.22076M6.13898 4.18926H6.08898V2.65726H6.09548C6.19857 2.64534 6.30288 2.66395 6.39548 2.71076C6.46332 2.76493 6.51859 2.83316 6.55748 2.91076C6.59946 2.99243 6.62366 3.08207 6.62848 3.17376C6.63298 3.28376 6.62848 3.37376 6.62848 3.44826C6.63033 3.53408 6.62481 3.61989 6.61198 3.70476C6.59625 3.7918 6.56778 3.87603 6.52748 3.95476C6.48196 4.02819 6.41978 4.08985 6.34598 4.13476C6.28434 4.17477 6.21125 4.19339 6.13798 4.18776M8.67648 2.23026H7.46148V4.63026H7.97548V3.67826H8.62548V3.23226H7.97548V2.67626H8.67548V2.23026" fill="white"/>
</svg>
