<svg width="14" height="14" viewBox="0 0 14 14" fill="none" xmlns="http://www.w3.org/2000/svg">
<path opacity="0.4" d="M6.41406 1.16675H5.2474C2.33073 1.16675 1.16406 2.33341 1.16406 5.25008V8.75008C1.16406 11.6667 2.33073 12.8334 5.2474 12.8334H8.7474C11.6641 12.8334 12.8307 11.6667 12.8307 8.75008V7.58341" stroke="#1F1F1F" stroke-width="1.5" stroke-linecap="round" stroke-linejoin="round"/>
<path d="M9.35415 1.76157L4.75749 6.35824C4.58249 6.53324 4.40749 6.8774 4.37249 7.12824L4.12165 8.88407C4.02832 9.5199 4.47749 9.96324 5.11332 9.87574L6.86915 9.6249C7.11415 9.5899 7.45832 9.4149 7.63915 9.2399L12.2358 4.64324C13.0292 3.8499 13.4025 2.92824 12.2358 1.76157C11.0692 0.594903 10.1475 0.968237 9.35415 1.76157Z" stroke="#1F1F1F" stroke-width="1.5" stroke-miterlimit="10" stroke-linecap="round" stroke-linejoin="round"/>
<path opacity="0.4" d="M8.69531 2.4209C9.08615 3.81507 10.177 4.9059 11.577 5.30257" stroke="#1F1F1F" stroke-width="1.5" stroke-miterlimit="10" stroke-linecap="round" stroke-linejoin="round"/>
</svg>
