<svg width="16" height="16" viewBox="0 0 16 16" fill="none" xmlns="http://www.w3.org/2000/svg">
<g id="vuesax/bulk/filter">
<g id="filter">
<path id="Vector" opacity="0.4" d="M13.7344 2.73372V4.20039C13.7344 4.73372 13.401 5.40039 13.0677 5.73372L10.201 8.26706C9.80104 8.60039 9.53438 9.26706 9.53438 9.80039V12.6671C9.53438 13.0671 9.26771 13.6004 8.93437 13.8004L8.00104 14.4004C7.13438 14.9337 5.93437 14.3337 5.93437 13.2671V9.73372C5.93437 9.26706 5.66771 8.66706 5.40104 8.33372L4.73438 7.63372L8.61438 1.40039H12.401C13.1344 1.40039 13.7344 2.00039 13.7344 2.73372Z" fill="#008172"/>
<path id="Vector_2" d="M7.53229 1.40039L4.07896 6.94039L2.86563 5.66706C2.53229 5.33372 2.26562 4.73372 2.26562 4.33372V2.80039C2.26562 2.00039 2.86562 1.40039 3.59896 1.40039H7.53229Z" fill="#008172"/>
</g>
</g>
</svg>
