<svg width="16" height="16" viewBox="0 0 16 16" fill="none" xmlns="http://www.w3.org/2000/svg">
<path opacity="0.4" d="M13.7344 2.73177V4.19844C13.7344 4.73177 13.401 5.39844 13.0677 5.73177L10.201 8.2651C9.80104 8.59844 9.53438 9.2651 9.53438 9.79844V12.6651C9.53438 13.0651 9.26771 13.5984 8.93437 13.7984L8.00104 14.3984C7.13438 14.9318 5.93437 14.3318 5.93437 13.2651V9.73177C5.93437 9.2651 5.66771 8.6651 5.40104 8.33177L4.73438 7.63177L8.61438 1.39844H12.401C13.1344 1.39844 13.7344 1.99844 13.7344 2.73177Z" fill="#949494"/>
<path d="M7.53229 1.39844L4.07896 6.93844L2.86563 5.6651C2.53229 5.33177 2.26562 4.73177 2.26562 4.33177V2.79844C2.26562 1.99844 2.86562 1.39844 3.59896 1.39844H7.53229Z" fill="#949494"/>
</svg>
