<svg width="21" height="20" viewBox="0 0 21 20" fill="none" xmlns="http://www.w3.org/2000/svg">
<g clip-path="url(#clip0_397_22766)">
<path d="M6.98283 0.657779C4.98452 1.35101 3.26118 2.66679 2.06595 4.41184C0.870707 6.1569 0.266571 8.23925 0.342276 10.353C0.41798 12.4668 1.16953 14.5006 2.48655 16.1557C3.80356 17.8108 5.61661 18.9999 7.6594 19.5484C9.31553 19.9757 11.0507 19.9945 12.7156 19.6031C14.224 19.2643 15.6184 18.5396 16.7625 17.5C17.9533 16.3849 18.8176 14.9663 19.2625 13.3968C19.7461 11.6901 19.8322 9.89517 19.5141 8.14997H10.2141V12.0078H15.6C15.4924 12.6231 15.2617 13.2103 14.9218 13.7344C14.5819 14.2585 14.1398 14.7086 13.6219 15.0578C12.9642 15.4928 12.2228 15.7855 11.4453 15.9172C10.6656 16.0621 9.86573 16.0621 9.08596 15.9172C8.29563 15.7538 7.54799 15.4276 6.89065 14.9593C5.83463 14.2118 5.0417 13.1498 4.62502 11.925C4.20129 10.6771 4.20129 9.32435 4.62502 8.07653C4.92162 7.20187 5.41195 6.40549 6.0594 5.74684C6.80032 4.97926 7.73835 4.43059 8.77058 4.16102C9.8028 3.89146 10.8893 3.91142 11.911 4.21872C12.709 4.4637 13.4388 4.89174 14.0422 5.46872C14.6495 4.86455 15.2558 4.25882 15.861 3.65153C16.1735 3.32497 16.5141 3.01403 16.8219 2.67965C15.9009 1.82259 14.8198 1.15568 13.6406 0.717154C11.4933 -0.0625494 9.14374 -0.0835031 6.98283 0.657779Z" fill="white"/>
<path d="M6.98125 0.657806C9.14197 -0.08398 11.4915 -0.0635778 13.6391 0.715618C14.8185 1.15712 15.899 1.82724 16.8188 2.68749C16.5063 3.02187 16.1766 3.33437 15.8578 3.65937C15.2516 4.26458 14.6458 4.8677 14.0406 5.46874C13.4373 4.89177 12.7075 4.46373 11.9094 4.21874C10.8881 3.91037 9.80159 3.88926 8.76909 4.15772C7.73659 4.42618 6.79799 4.97384 6.05625 5.74062C5.4088 6.39927 4.91848 7.19564 4.62187 8.07031L1.38281 5.56249C2.5422 3.26337 4.54961 1.50472 6.98125 0.657806Z" fill="#FF3B2F"/>
<path d="M0.521871 8.04688C0.695966 7.18405 0.985001 6.34848 1.38125 5.5625L4.62031 8.07656C4.19658 9.32438 4.19658 10.6772 4.62031 11.925C3.54114 12.7583 2.46145 13.5958 1.38125 14.4375C0.389293 12.463 0.0867653 10.2133 0.521871 8.04688Z" fill="#F8BD00"/>
<path d="M10.2116 8.14844H19.5116C19.8298 9.89365 19.7437 11.6885 19.2601 13.3953C18.8151 14.9648 17.9508 16.3834 16.7601 17.4984C15.7148 16.6828 14.6648 15.8734 13.6194 15.0578C14.1377 14.7082 14.58 14.2576 14.9199 13.733C15.2598 13.2084 15.4903 12.6205 15.5976 12.0047H10.2116C10.2101 10.7203 10.2116 9.43437 10.2116 8.14844Z" fill="#587DBD"/>
<path d="M1.38281 14.4375C2.46302 13.6042 3.54271 12.7667 4.62187 11.925C5.03939 13.1504 5.83345 14.2124 6.89062 14.9594C7.55001 15.4255 8.29927 15.749 9.09063 15.9094C9.8704 16.0544 10.6702 16.0544 11.45 15.9094C12.2275 15.7778 12.9689 15.4851 13.6266 15.05C14.6719 15.8657 15.7219 16.675 16.7672 17.4907C15.6233 18.5309 14.2288 19.2561 12.7203 19.5954C11.0553 19.9868 9.32019 19.968 7.66406 19.5407C6.35422 19.1909 5.13074 18.5744 4.07031 17.7297C2.94791 16.8386 2.03118 15.7156 1.38281 14.4375Z" fill="#319F43"/>
</g>
<defs>
<clipPath id="clip0_397_22766">
<rect width="20" height="20" fill="white" transform="translate(0.015625)"/>
</clipPath>
</defs>
</svg>
