<svg width="61" height="61" viewBox="0 0 61 61" fill="none" xmlns="http://www.w3.org/2000/svg">
<path opacity="0.4" d="M55.5 20.025V35.25L51.425 31.75C49.475 30.075 46.325 30.075 44.375 31.75L33.975 40.675C32.025 42.35 28.875 42.35 26.925 40.675L26.075 39.975C24.3 38.425 21.475 38.275 19.475 39.625L7.175 47.875L6.9 48.075C5.975 46.075 5.5 43.7 5.5 40.975V20.025C5.5 10.925 10.925 5.5 20.025 5.5H40.975C50.075 5.5 55.5 10.925 55.5 20.025Z" fill="#DFDFDF"/>
<path d="M22.9969 26.4498C26.283 26.4498 28.9469 23.7859 28.9469 20.4998C28.9469 17.2137 26.283 14.5498 22.9969 14.5498C19.7108 14.5498 17.0469 17.2137 17.0469 20.4998C17.0469 23.7859 19.7108 26.4498 22.9969 26.4498Z" fill="#DFDFDF"/>
<path d="M55.4984 35.2499V40.9749C55.4984 50.0749 50.0734 55.4999 40.9734 55.4999H20.0234C13.6484 55.4999 9.04844 52.8249 6.89844 48.0749L7.17344 47.8749L19.4734 39.6249C21.4734 38.2749 24.2984 38.4249 26.0734 39.9749L26.9234 40.6749C28.8734 42.3499 32.0234 42.3499 33.9734 40.6749L44.3734 31.7499C46.3234 30.0749 49.4734 30.0749 51.4234 31.7499L55.4984 35.2499Z" fill="#DFDFDF"/>
</svg>
