<svg width="48" height="48" viewBox="0 0 48 48" fill="none" xmlns="http://www.w3.org/2000/svg">
<rect width="48" height="48" rx="24" fill="#DAEBFF"/>
<path opacity="0.4" d="M24 34C29.5228 34 34 29.5228 34 24C34 18.4772 29.5228 14 24 14C18.4772 14 14 18.4772 14 24C14 29.5228 18.4772 34 24 34Z" fill="#007AFF"/>
<path d="M24 25.75C24.41 25.75 24.75 25.41 24.75 25V20C24.75 19.59 24.41 19.25 24 19.25C23.59 19.25 23.25 19.59 23.25 20V25C23.25 25.41 23.59 25.75 24 25.75Z" fill="#007AFF"/>
<path d="M24.92 27.6228C24.87 27.5028 24.8 27.3928 24.71 27.2928C24.61 27.2028 24.5 27.1328 24.38 27.0828C24.14 26.9828 23.86 26.9828 23.62 27.0828C23.5 27.1328 23.39 27.2028 23.29 27.2928C23.2 27.3928 23.13 27.5028 23.08 27.6228C23.03 27.7428 23 27.8728 23 28.0028C23 28.1328 23.03 28.2628 23.08 28.3828C23.13 28.5128 23.2 28.6128 23.29 28.7128C23.39 28.8028 23.5 28.8728 23.62 28.9228C23.74 28.9728 23.87 29.0028 24 29.0028C24.13 29.0028 24.26 28.9728 24.38 28.9228C24.5 28.8728 24.61 28.8028 24.71 28.7128C24.8 28.6128 24.87 28.5128 24.92 28.3828C24.97 28.2628 25 28.1328 25 28.0028C25 27.8728 24.97 27.7428 24.92 27.6228Z" fill="#007AFF"/>
</svg>
