<svg width="48" height="48" viewBox="0 0 48 48" fill="none" xmlns="http://www.w3.org/2000/svg">
<rect width="48" height="48" rx="24" fill="#FFFAD9"/>
<path opacity="0.4" d="M24 34C29.5228 34 34 29.5228 34 24C34 18.4772 29.5228 14 24 14C18.4772 14 14 18.4772 14 24C14 29.5228 18.4772 34 24 34Z" fill="#FF7201"/>
<path d="M24 25.75C24.41 25.75 24.75 25.41 24.75 25V20C24.75 19.59 24.41 19.25 24 19.25C23.59 19.25 23.25 19.59 23.25 20V25C23.25 25.41 23.59 25.75 24 25.75Z" fill="#FF7201"/>
<path d="M24.92 27.6199C24.87 27.4999 24.8 27.3899 24.71 27.2899C24.61 27.1999 24.5 27.1299 24.38 27.0799C24.14 26.9799 23.86 26.9799 23.62 27.0799C23.5 27.1299 23.39 27.1999 23.29 27.2899C23.2 27.3899 23.13 27.4999 23.08 27.6199C23.03 27.7399 23 27.8699 23 27.9999C23 28.1299 23.03 28.2599 23.08 28.3799C23.13 28.5099 23.2 28.6099 23.29 28.7099C23.39 28.7999 23.5 28.8699 23.62 28.9199C23.74 28.9699 23.87 28.9999 24 28.9999C24.13 28.9999 24.26 28.9699 24.38 28.9199C24.5 28.8699 24.61 28.7999 24.71 28.7099C24.8 28.6099 24.87 28.5099 24.92 28.3799C24.97 28.2599 25 28.1299 25 27.9999C25 27.8699 24.97 27.7399 24.92 27.6199Z" fill="#FF7201"/>
</svg>
