<svg width="28" height="28" viewBox="0 0 28 28" fill="none" xmlns="http://www.w3.org/2000/svg">
<path d="M7.06 2C6.076 2 5.242 2.738 5.14 3.725C4.992 5.133 4.75 7.682 4.75 9.25C4.75 10.73 5.428 12.052 6.487 12.922C6.835 13.208 7 13.522 7 13.786V14.448L6.999 14.495C6.958 15.094 6.5 21.782 6.5 23C6.5 23.394 6.5776 23.7841 6.72836 24.1481C6.87913 24.512 7.1001 24.8427 7.37868 25.1213C7.65726 25.3999 7.98797 25.6209 8.35195 25.7716C8.71593 25.9224 9.10603 26 9.5 26C9.89397 26 10.2841 25.9224 10.6481 25.7716C11.012 25.6209 11.3427 25.3999 11.6213 25.1213C11.8999 24.8427 12.1209 24.512 12.2716 24.1481C12.4224 23.7841 12.5 23.394 12.5 23C12.5 21.782 12.043 15.094 12.001 14.495L12 14.448V13.786C12 13.521 12.165 13.208 12.513 12.922C13.0566 12.4769 13.4944 11.9166 13.7948 11.2815C14.0952 10.6464 14.2507 9.95254 14.25 9.25C14.25 7.682 14.008 5.133 13.86 3.725C13.81 3.25091 13.5861 2.81216 13.2315 2.49356C12.8769 2.17496 12.4167 1.99911 11.94 2C11.483 2 11.062 2.158 10.73 2.423C10.3786 2.1489 9.94568 2.00002 9.5 2C9.05432 2.00002 8.62142 2.1489 8.27 2.423C7.92664 2.14827 7.49974 1.99904 7.06 2ZM9 4C9 3.8674 9.05268 3.74022 9.14645 3.64645C9.24021 3.55268 9.36739 3.5 9.5 3.5C9.63261 3.5 9.75979 3.55268 9.85355 3.64645C9.94732 3.74022 10 3.8674 10 4V9.25C10 9.44892 10.079 9.63968 10.2197 9.78033C10.3603 9.92099 10.5511 10 10.75 10C10.9489 10 11.1397 9.92099 11.2803 9.78033C11.421 9.63968 11.5 9.44892 11.5 9.25V3.94C11.5 3.82331 11.5464 3.71139 11.6289 3.62888C11.7114 3.54636 11.8233 3.5 11.94 3.5C12.165 3.5 12.347 3.667 12.369 3.881C12.517 5.301 12.75 7.773 12.75 9.25C12.7507 9.73086 12.6444 10.2059 12.4387 10.6405C12.2331 11.0752 11.9332 11.4586 11.561 11.763C11.023 12.205 10.5 12.903 10.5 13.786V14.448C10.5 14.498 10.501 14.544 10.505 14.598C10.549 15.243 11 21.849 11 23C11 23.3978 10.842 23.7794 10.5607 24.0607C10.2794 24.342 9.89782 24.5 9.5 24.5C9.10218 24.5 8.72064 24.342 8.43934 24.0607C8.15804 23.7794 8 23.3978 8 23C8 21.85 8.45 15.243 8.495 14.598C8.499 14.544 8.5 14.498 8.5 14.448V13.786C8.5 12.902 7.977 12.205 7.439 11.763C7.06675 11.4586 6.76692 11.0752 6.56127 10.6405C6.35561 10.2059 6.24929 9.73086 6.25 9.25C6.25 7.773 6.483 5.302 6.631 3.881C6.64242 3.77556 6.69267 3.67814 6.77197 3.60771C6.85127 3.53729 6.95395 3.49889 7.06 3.5C7.1767 3.5 7.28861 3.54636 7.37113 3.62888C7.45364 3.71139 7.5 3.82331 7.5 3.94V9.25C7.5 9.44892 7.57902 9.63968 7.71967 9.78033C7.86032 9.92099 8.05109 10 8.25 10C8.44891 10 8.63968 9.92099 8.78033 9.78033C8.92098 9.63968 9 9.44892 9 9.25V4ZM22.5 3.506V13.25C22.5 13.6 22.594 15.247 22.698 17.06L22.704 17.165C22.844 19.601 23 22.33 23 23C23 23.3978 22.842 23.7794 22.5607 24.0607C22.2794 24.342 21.8978 24.5 21.5 24.5C21.1022 24.5 20.7206 24.342 20.4393 24.0607C20.158 23.7794 20 23.3978 20 23C20 22.405 20.123 19.997 20.249 17.7C20.3228 16.3539 20.3988 15.0079 20.477 13.662L20.499 13.294L20.5 13.25C20.5 13.0511 20.421 12.8603 20.2803 12.7197C20.1397 12.579 19.9489 12.5 19.75 12.5H17.75C17.6837 12.5 17.6201 12.4737 17.5732 12.4268C17.5263 12.3799 17.5 12.3163 17.5 12.25V8.75C17.5 7.40091 18.0194 6.10359 18.9503 5.12719C19.8813 4.15079 21.1524 3.57025 22.5 3.506ZM18.955 14L18.923 14.556C18.876 15.373 18.813 16.476 18.751 17.618C18.627 19.885 18.5 22.352 18.5 23C18.5 23.394 18.5776 23.7841 18.7284 24.1481C18.8791 24.512 19.1001 24.8427 19.3787 25.1213C19.6573 25.3999 19.988 25.6209 20.3519 25.7716C20.7159 25.9224 21.106 26 21.5 26C21.894 26 22.2841 25.9224 22.6481 25.7716C23.012 25.6209 23.3427 25.3999 23.6213 25.1213C23.8999 24.8427 24.1209 24.512 24.2716 24.1481C24.4224 23.7841 24.5 23.394 24.5 23C24.5 22.279 24.342 19.526 24.206 17.145L24.202 17.079C24.093 15.18 24 13.55 24 13.25V2.75C24 2.55109 23.921 2.36033 23.7803 2.21967C23.6397 2.07902 23.4489 2 23.25 2H22.75C20.9598 2 19.2429 2.71116 17.977 3.97703C16.7112 5.2429 16 6.95979 16 8.75V12.25C16 13.216 16.784 14 17.75 14H18.955Z" fill="black"/>
</svg>
