<svg width="28" height="28" viewBox="0 0 28 28" fill="none" xmlns="http://www.w3.org/2000/svg">
<path d="M5.492 2.79001C5.51351 2.56387 5.62154 2.35477 5.79355 2.20637C5.96555 2.05798 6.18823 1.98176 6.41508 1.99364C6.64194 2.00551 6.85545 2.10455 7.01102 2.27009C7.16659 2.43562 7.25221 2.65486 7.25 2.88201V8.74901C7.25 8.94793 7.32902 9.13869 7.46967 9.27934C7.61032 9.42 7.80109 9.49901 8 9.49901C8.19891 9.49901 8.38968 9.42 8.53033 9.27934C8.67098 9.13869 8.75 8.94793 8.75 8.74901V2.75001C8.75 2.5511 8.82902 2.36034 8.96967 2.21968C9.11032 2.07903 9.30109 2.00001 9.5 2.00001C9.69891 2.00001 9.88968 2.07903 10.0303 2.21968C10.171 2.36034 10.25 2.5511 10.25 2.75001V8.74901C10.25 8.94793 10.329 9.13869 10.4697 9.27934C10.6103 9.42 10.8011 9.49901 11 9.49901C11.1989 9.49901 11.3897 9.42 11.5303 9.27934C11.671 9.13869 11.75 8.94793 11.75 8.74901V2.88201C11.7526 2.65785 11.8404 2.44308 11.9957 2.28137C12.151 2.11966 12.362 2.02313 12.5858 2.01142C12.8097 1.9997 13.0297 2.07367 13.2009 2.2183C13.3722 2.36292 13.482 2.56734 13.508 2.79001C13.584 3.51201 14 7.57501 14 9.50001C14 10.838 13.415 12.04 12.49 12.864C12.156 13.16 12 13.465 12 13.721V14.448L12.001 14.495C12.043 15.094 12.5 21.782 12.5 23C12.5 23.394 12.4224 23.7841 12.2716 24.1481C12.1209 24.512 11.8999 24.8428 11.6213 25.1213C11.3427 25.3999 11.012 25.6209 10.6481 25.7717C10.2841 25.9224 9.89397 26 9.5 26C9.10603 26 8.71593 25.9224 8.35195 25.7717C7.98797 25.6209 7.65726 25.3999 7.37868 25.1213C7.1001 24.8428 6.87913 24.512 6.72836 24.1481C6.5776 23.7841 6.5 23.394 6.5 23C6.5 21.782 6.958 15.094 6.999 14.495L7 14.448V13.721C7 13.466 6.844 13.161 6.51 12.864C6.03502 12.4417 5.65489 11.9236 5.39462 11.3438C5.13435 10.764 4.99986 10.1356 5 9.50001C5 7.57501 5.416 3.51201 5.492 2.79001ZM18.955 14L18.923 14.556C18.876 15.373 18.813 16.476 18.751 17.618C18.627 19.885 18.5 22.352 18.5 23C18.5 23.394 18.5776 23.7841 18.7284 24.1481C18.8791 24.512 19.1001 24.8428 19.3787 25.1213C19.6573 25.3999 19.988 25.6209 20.3519 25.7717C20.7159 25.9224 21.106 26 21.5 26C21.894 26 22.2841 25.9224 22.6481 25.7717C23.012 25.6209 23.3427 25.3999 23.6213 25.1213C23.8999 24.8428 24.1209 24.512 24.2716 24.1481C24.4224 23.7841 24.5 23.394 24.5 23C24.5 22.279 24.342 19.526 24.206 17.145L24.202 17.079C24.093 15.18 24 13.55 24 13.25V2.75001C24 2.5511 23.921 2.36034 23.7803 2.21968C23.6397 2.07903 23.4489 2.00001 23.25 2.00001H22.75C20.9598 2.00001 19.2429 2.71117 17.977 3.97704C16.7112 5.24291 16 6.9598 16 8.75001V12.25C16 13.216 16.784 14 17.75 14H18.955Z" fill="black"/>
</svg>
