<svg width="20" height="20" viewBox="0 0 20 20" fill="none" xmlns="http://www.w3.org/2000/svg">
<path d="M16.4917 12.4416C14.775 14.1499 12.3167 14.6749 10.1583 13.9999L6.23334 17.9166C5.95001 18.2083 5.39168 18.3833 4.99168 18.3249L3.17501 18.0749C2.57501 17.9916 2.01668 17.4249 1.92501 16.8249L1.67501 15.0083C1.61668 14.6083 1.80834 14.0499 2.08334 13.7666L6.00001 9.84994C5.33334 7.68327 5.85001 5.22494 7.56668 3.5166C10.025 1.05827 14.0167 1.05827 16.4833 3.5166C18.95 5.97494 18.95 9.98327 16.4917 12.4416Z" stroke="url(#paint0_linear_8149_8354)" stroke-miterlimit="10" stroke-linecap="round" stroke-linejoin="round"/>
<path opacity="0.4" d="M5.74167 14.5752L7.65833 16.4919" stroke="url(#paint1_linear_8149_8354)" stroke-miterlimit="10" stroke-linecap="round" stroke-linejoin="round"/>
<path opacity="0.4" d="M12.0833 9.1665C12.7737 9.1665 13.3333 8.60686 13.3333 7.9165C13.3333 7.22615 12.7737 6.6665 12.0833 6.6665C11.393 6.6665 10.8333 7.22615 10.8333 7.9165C10.8333 8.60686 11.393 9.1665 12.0833 9.1665Z" stroke="url(#paint2_linear_8149_8354)" stroke-linecap="round" stroke-linejoin="round"/>
<defs>
<linearGradient id="paint0_linear_8149_8354" x1="8.66332" y1="-8.64131" x2="38.7195" y2="21.7446" gradientUnits="userSpaceOnUse">
<stop stop-color="#005B41"/>
<stop offset="1" stop-color="#008170"/>
<stop offset="1" stop-color="#008170"/>
</linearGradient>
<linearGradient id="paint1_linear_8149_8354" x1="6.54638" y1="13.3888" x2="10.0036" y2="16.8826" gradientUnits="userSpaceOnUse">
<stop stop-color="#005B41"/>
<stop offset="1" stop-color="#008170"/>
<stop offset="1" stop-color="#008170"/>
</linearGradient>
<linearGradient id="paint2_linear_8149_8354" x1="11.8829" y1="5.11906" x2="16.3923" y2="9.6761" gradientUnits="userSpaceOnUse">
<stop stop-color="#005B41"/>
<stop offset="1" stop-color="#008170"/>
<stop offset="1" stop-color="#008170"/>
</linearGradient>
</defs>
</svg>
