<svg width="24" height="24" viewBox="0 0 24 24" fill="none" xmlns="http://www.w3.org/2000/svg">
<g opacity="0.4">
<path d="M16.9897 8.96002H7.00977" stroke="url(#paint0_linear_8363_18707)" stroke-width="1.5" stroke-linecap="round" stroke-linejoin="round"/>
<path d="M12 7.28003V8.96002" stroke="url(#paint1_linear_8363_18707)" stroke-width="1.5" stroke-linecap="round" stroke-linejoin="round"/>
<path d="M14.5 8.94C14.5 13.24 11.14 16.72 7 16.72" stroke="url(#paint2_linear_8363_18707)" stroke-width="1.5" stroke-linecap="round" stroke-linejoin="round"/>
<path d="M17.0002 16.72C15.2002 16.72 13.6002 15.76 12.4502 14.25" stroke="url(#paint3_linear_8363_18707)" stroke-width="1.5" stroke-linecap="round" stroke-linejoin="round"/>
</g>
<path d="M9 22H15C20 22 22 20 22 15V9C22 4 20 2 15 2H9C4 2 2 4 2 9V15C2 20 4 22 9 22Z" stroke="url(#paint4_linear_8363_18707)" stroke-width="1.5" stroke-linecap="round" stroke-linejoin="round"/>
<defs>
<linearGradient id="paint0_linear_8363_18707" x1="11.1998" y1="8.34105" x2="11.5541" y2="11.9136" gradientUnits="userSpaceOnUse">
<stop stop-color="#005B41"/>
<stop offset="1" stop-color="#008170"/>
<stop offset="1" stop-color="#008170"/>
</linearGradient>
<linearGradient id="paint1_linear_8363_18707" x1="12.4198" y1="6.24015" x2="15.097" y2="7.85054" gradientUnits="userSpaceOnUse">
<stop stop-color="#005B41"/>
<stop offset="1" stop-color="#008170"/>
<stop offset="1" stop-color="#008170"/>
</linearGradient>
<linearGradient id="paint2_linear_8363_18707" x1="10.1489" y1="4.12439" x2="24.1779" y2="17.7916" gradientUnits="userSpaceOnUse">
<stop stop-color="#005B41"/>
<stop offset="1" stop-color="#008170"/>
<stop offset="1" stop-color="#008170"/>
</linearGradient>
<linearGradient id="paint3_linear_8363_18707" x1="14.3605" y1="12.7211" x2="18.0753" y2="19.6366" gradientUnits="userSpaceOnUse">
<stop stop-color="#005B41"/>
<stop offset="1" stop-color="#008170"/>
<stop offset="1" stop-color="#008170"/>
</linearGradient>
<linearGradient id="paint4_linear_8363_18707" x1="10.3969" y1="-10.3795" x2="46.4718" y2="26.0768" gradientUnits="userSpaceOnUse">
<stop stop-color="#005B41"/>
<stop offset="1" stop-color="#008170"/>
<stop offset="1" stop-color="#008170"/>
</linearGradient>
</defs>
</svg>
