<svg width="40" height="41" viewBox="0 0 40 41" fill="none" xmlns="http://www.w3.org/2000/svg">
<rect y="0.5" width="40" height="40" rx="20" fill="#DCF8F5"/>
<path opacity="0.4" d="M28.6172 16.95C27.5672 12.33 23.5372 10.25 19.9972 10.25C19.9972 10.25 19.9972 10.25 19.9872 10.25C16.4572 10.25 12.4172 12.32 11.3672 16.94C10.1972 22.1 13.3572 26.47 16.2172 29.22C17.2772 30.24 18.6372 30.75 19.9972 30.75C21.3572 30.75 22.7172 30.24 23.7672 29.22C26.6272 26.47 29.7872 22.11 28.6172 16.95Z" fill="#008172"/>
<path d="M20.0016 21.9599C21.7413 21.9599 23.1516 20.5496 23.1516 18.8099C23.1516 17.0702 21.7413 15.6599 20.0016 15.6599C18.2619 15.6599 16.8516 17.0702 16.8516 18.8099C16.8516 20.5496 18.2619 21.9599 20.0016 21.9599Z" fill="#008172"/>
</svg>
