<svg width="24" height="24" viewBox="0 0 24 24" fill="none" xmlns="http://www.w3.org/2000/svg">
<path opacity="0.4" d="M11.9999 13.43C13.723 13.43 15.1199 12.0331 15.1199 10.31C15.1199 8.58687 13.723 7.19 11.9999 7.19C10.2768 7.19 8.87988 8.58687 8.87988 10.31C8.87988 12.0331 10.2768 13.43 11.9999 13.43Z" stroke="url(#paint0_linear_8156_8416)" stroke-width="1.5"/>
<path d="M3.6202 8.49C5.5902 -0.17 18.4202 -0.159999 20.3802 8.5C21.5302 13.58 18.3702 17.88 15.6002 20.54C13.5902 22.48 10.4102 22.48 8.3902 20.54C5.6302 17.88 2.4702 13.57 3.6202 8.49Z" stroke="url(#paint1_linear_8156_8416)" stroke-width="1.5"/>
<defs>
<linearGradient id="paint0_linear_8156_8416" x1="11.4997" y1="3.32759" x2="22.7551" y2="14.702" gradientUnits="userSpaceOnUse">
<stop stop-color="#005B41"/>
<stop offset="1" stop-color="#008170"/>
<stop offset="1" stop-color="#008170"/>
</linearGradient>
<linearGradient id="paint1_linear_8156_8416" x1="10.6179" y1="-10.3764" x2="46.3479" y2="20.7661" gradientUnits="userSpaceOnUse">
<stop stop-color="#005B41"/>
<stop offset="1" stop-color="#008170"/>
<stop offset="1" stop-color="#008170"/>
</linearGradient>
</defs>
</svg>
