<svg width="20" height="20" viewBox="0 0 20 20" fill="none" xmlns="http://www.w3.org/2000/svg">
<path opacity="0.4" d="M13.4885 1.66406H6.51354C3.48021 1.66406 1.67188 3.47239 1.67188 6.50573V13.4807C1.67188 16.5141 3.48021 18.3224 6.51354 18.3224H13.4885C16.5219 18.3224 18.3302 16.5141 18.3302 13.4807V6.50573C18.3302 3.47239 16.5219 1.66406 13.4885 1.66406Z" fill="#777777"/>
<path d="M14.1698 13.3047C13.0781 13.3047 12.0365 12.8047 11.2031 11.8797C12.0281 10.8214 12.5615 9.51304 12.6781 8.07971H14.1615C14.5031 8.07971 14.7865 7.79637 14.7865 7.45471C14.7865 7.11304 14.5031 6.82971 14.1615 6.82971H12.1365C12.1198 6.82971 12.1031 6.82137 12.0865 6.82137C12.0698 6.82137 12.0531 6.82971 12.0365 6.82971H10.6281V6.05469C10.6281 5.71302 10.3448 5.42969 10.0031 5.42969C9.66147 5.42969 9.37813 5.71302 9.37813 6.05469V6.82971H5.84481C5.50314 6.82971 5.21981 7.11304 5.21981 7.45471C5.21981 7.79637 5.50314 8.07971 5.84481 8.07971H10.0031H11.4198C11.1115 11.013 8.72813 13.3047 5.82812 13.3047C5.48646 13.3047 5.20312 13.588 5.20312 13.9297C5.20312 14.2714 5.48646 14.5547 5.82812 14.5547C7.55313 14.5547 9.12813 13.888 10.3365 12.7964C11.3948 13.9297 12.7365 14.5547 14.1615 14.5547C14.5031 14.5547 14.7865 14.2714 14.7865 13.9297C14.7865 13.588 14.5115 13.3047 14.1698 13.3047Z" fill="#777777"/>
</svg>
