<svg width="16" height="16" viewBox="0 0 16 16" fill="none" xmlns="http://www.w3.org/2000/svg">
<g id="vuesax/bulk/money-recive">
<g id="money-recive">
<g id="Group">
<g id="Vector" opacity="0.4">
<mask id="path-1-inside-1_1093_26642" fill="white">
<path d="M12.5391 4.16567H13.4457C13.3191 3.98567 13.1857 3.81901 13.0457 3.65234L12.5391 4.16567Z"/>
</mask>
<path d="M12.5391 4.16567H13.4457C13.3191 3.98567 13.1857 3.81901 13.0457 3.65234L12.5391 4.16567Z" fill="#0BAE54"/>
<path d="M12.5391 4.16567L11.8274 3.4632L10.147 5.16567H12.5391V4.16567ZM13.4457 4.16567V5.16567H15.3722L14.2635 3.59018L13.4457 4.16567ZM13.0457 3.65234L13.8114 3.00915L13.1053 2.16848L12.334 2.94987L13.0457 3.65234ZM12.5391 5.16567H13.4457V3.16567H12.5391V5.16567ZM14.2635 3.59018C14.1142 3.37794 13.961 3.18724 13.8114 3.00915L12.28 4.29554C12.4104 4.45078 12.524 4.59341 12.6279 4.74117L14.2635 3.59018ZM12.334 2.94987L11.8274 3.4632L13.2508 4.86815L13.7574 4.35482L12.334 2.94987Z" fill="#0BAE54" mask="url(#path-1-inside-1_1093_26642)"/>
</g>
<path id="Vector_2" opacity="0.4" d="M12.3493 2.94687C12.1826 2.80687 12.0159 2.67354 11.8359 2.54688V3.45354L12.3493 2.94687Z" fill="#0BAE54"/>
<path id="Vector_3" opacity="0.4" d="M11.3359 5.16536C11.2693 5.16536 11.2093 5.15203 11.1426 5.12537C11.0226 5.07203 10.9226 4.9787 10.8693 4.85203C10.8426 4.79203 10.8293 4.72536 10.8293 4.6587V1.99203C10.8293 1.98536 10.8359 1.9787 10.8359 1.96536C9.97594 1.56536 9.01594 1.33203 8.0026 1.33203C4.3226 1.33203 1.33594 4.3187 1.33594 7.9987C1.33594 11.6787 4.3226 14.6654 8.0026 14.6654C11.6826 14.6654 14.6693 11.6787 14.6693 7.9987C14.6693 6.98536 14.4359 6.02536 14.0293 5.1587C14.0226 5.1587 14.0159 5.16536 14.0026 5.16536H11.3359Z" fill="#0BAE54"/>
</g>
<path id="Vector_4" d="M13.0504 3.65427L15.0171 1.6876C15.2104 1.49427 15.2104 1.17427 15.0171 0.980937C14.8238 0.787604 14.5038 0.787604 14.3104 0.980937L12.3438 2.9476C12.5971 3.1676 12.8304 3.40761 13.0504 3.65427Z" fill="#0BAE54"/>
<path id="Vector_5" d="M11.8371 2C11.8371 1.72667 11.6104 1.5 11.3371 1.5C11.0704 1.5 10.8571 1.71333 10.8438 1.97333C11.1904 2.14 11.5237 2.32667 11.8371 2.54667V2Z" fill="#0BAE54"/>
<path id="Vector_6" d="M14.4986 4.66797C14.4986 4.39464 14.272 4.16797 13.9986 4.16797H13.4453C13.6653 4.4813 13.8586 4.81463 14.0186 5.1613C14.2853 5.14797 14.4986 4.93464 14.4986 4.66797Z" fill="#0BAE54"/>
<path id="Vector_7" d="M9.16927 7.88L8.5026 7.64667V6.16667H8.55593C8.89593 6.16667 9.16927 6.46667 9.16927 6.83333C9.16927 7.10667 9.39594 7.33333 9.66927 7.33333C9.9426 7.33333 10.1693 7.10667 10.1693 6.83333C10.1693 5.91333 9.44926 5.16667 8.55593 5.16667H8.5026V5C8.5026 4.72667 8.27594 4.5 8.0026 4.5C7.72927 4.5 7.5026 4.72667 7.5026 5V5.16667H7.30261C6.49595 5.16667 5.83594 5.84667 5.83594 6.68667C5.83594 7.66 6.4026 7.97334 6.83594 8.12667L7.5026 8.36V9.84H7.44928C7.10928 9.84 6.83594 9.54 6.83594 9.17334C6.83594 8.9 6.60927 8.67334 6.33594 8.67334C6.0626 8.67334 5.83594 8.9 5.83594 9.17334C5.83594 10.0933 6.55595 10.84 7.44928 10.84H7.5026V11.0067C7.5026 11.28 7.72927 11.5067 8.0026 11.5067C8.27594 11.5067 8.5026 11.28 8.5026 11.0067V10.84H8.7026C9.50926 10.84 10.1693 10.16 10.1693 9.32C10.1693 8.34 9.6026 8.02667 9.16927 7.88ZM7.1626 7.17333C6.93593 7.09333 6.83594 7.04666 6.83594 6.68C6.83594 6.39333 7.04928 6.16 7.30261 6.16H7.5026V7.28667L7.1626 7.17333ZM8.7026 9.83333H8.5026V8.70667L8.84261 8.82667C9.06928 8.90667 9.16927 8.95334 9.16927 9.32C9.16927 9.6 8.95593 9.83333 8.7026 9.83333Z" fill="#0BAE54"/>
</g>
</g>
</svg>
