<svg width="24" height="25" viewBox="0 0 24 25" fill="none" xmlns="http://www.w3.org/2000/svg">
<g id="vuesax/bulk/minus-square">
<g id="minus-square">
<path id="Vector" d="M16.19 2.5H7.81C4.17 2.5 2 4.67 2 8.31V16.68C2 20.33 4.17 22.5 7.81 22.5H16.18C19.82 22.5 21.99 20.33 21.99 16.69V8.31C22 4.67 19.83 2.5 16.19 2.5Z" fill="white"/>
<path id="Vector_2" d="M16 13.25H8C7.59 13.25 7.25 12.91 7.25 12.5C7.25 12.09 7.59 11.75 8 11.75H16C16.41 11.75 16.75 12.09 16.75 12.5C16.75 12.91 16.41 13.25 16 13.25Z" fill="#1F1F1F"/>
</g>
</g>
</svg>
