<svg width="20" height="20" viewBox="0 0 20 20" fill="none" xmlns="http://www.w3.org/2000/svg">
<path opacity="0.4" d="M15.8307 7.4974C15.8307 8.70573 15.4724 9.81407 14.8557 10.7391C13.9557 12.0724 12.5307 13.0141 10.8724 13.2557C10.5891 13.3057 10.2974 13.3307 9.9974 13.3307C9.6974 13.3307 9.40573 13.3057 9.1224 13.2557C7.46406 13.0141 6.03906 12.0724 5.13906 10.7391C4.5224 9.81407 4.16406 8.70573 4.16406 7.4974C4.16406 4.2724 6.7724 1.66406 9.9974 1.66406C13.2224 1.66406 15.8307 4.2724 15.8307 7.4974Z" fill="#777777"/>
<path d="M17.7073 15.3917L16.3323 15.7167C16.0239 15.7917 15.7823 16.025 15.7156 16.3333L15.4239 17.5583C15.2656 18.225 14.4156 18.425 13.9739 17.9L9.99893 13.3333L6.02393 17.9083C5.58226 18.4333 4.73226 18.2333 4.57393 17.5667L4.28226 16.3417C4.20726 16.0333 3.96559 15.7917 3.66559 15.725L2.29059 15.4C1.65726 15.25 1.43226 14.4583 1.89059 14L5.14059 10.75C6.04059 12.0833 7.46559 13.025 9.12393 13.2667C9.40726 13.3167 9.69893 13.3417 9.99893 13.3417C10.2989 13.3417 10.5906 13.3167 10.8739 13.2667C12.5323 13.025 13.9573 12.0833 14.8573 10.75L18.1073 14C18.5656 14.45 18.3406 15.2417 17.7073 15.3917Z" fill="#777777"/>
<path d="M10.4797 4.98594L10.9714 5.96926C11.0381 6.1026 11.2131 6.23594 11.3714 6.26094L12.2631 6.41093C12.8297 6.5026 12.9631 6.91927 12.5547 7.3276L11.8631 8.01926C11.7464 8.13592 11.6797 8.36094 11.7214 8.5276L11.9214 9.38594C12.0797 10.0609 11.7214 10.3276 11.1214 9.96925L10.2881 9.47759C10.1381 9.38592 9.88806 9.38592 9.73806 9.47759L8.90473 9.96925C8.30473 10.3193 7.9464 10.0609 8.10473 9.38594L8.30473 8.5276C8.33806 8.36927 8.27973 8.13592 8.16306 8.01926L7.4714 7.3276C7.06306 6.91927 7.1964 6.51093 7.76306 6.41093L8.65473 6.26094C8.80473 6.23594 8.97973 6.1026 9.0464 5.96926L9.53806 4.98594C9.77973 4.4526 10.2131 4.4526 10.4797 4.98594Z" fill="#777777"/>
</svg>
