<svg width="19" height="19" viewBox="0 0 19 19" fill="none" xmlns="http://www.w3.org/2000/svg">
<path d="M12.3346 0.832031C12.5556 0.832031 12.7676 0.919829 12.9239 1.07611C13.0802 1.23239 13.168 1.44435 13.168 1.66536V2.49786L17.3346 2.4987V7.4987L15.6513 7.49786L17.9571 13.8279C18.1134 14.2511 18.1822 14.7017 18.1592 15.1523C18.1362 15.6029 18.022 16.0441 17.8235 16.4493C17.625 16.8544 17.3463 17.2151 17.0043 17.5093C16.6623 17.8036 16.2641 18.0254 15.8338 18.1612C15.4036 18.2971 14.9503 18.3442 14.5013 18.2996C14.0523 18.2551 13.617 18.1199 13.2219 17.9022C12.8267 17.6845 12.4798 17.3889 12.2022 17.0332C11.9247 16.6775 11.7222 16.2691 11.6071 15.8329H8.06297C7.87332 16.5642 7.44096 17.2095 6.8367 17.663C6.23244 18.1165 5.49208 18.3515 4.73688 18.3293C3.98167 18.3071 3.25637 18.0292 2.67976 17.541C2.10314 17.0528 1.70939 16.3832 1.56297 15.642C1.29304 15.5012 1.06688 15.2891 0.909086 15.0288C0.751289 14.7684 0.667893 14.4698 0.667969 14.1654V3.33203C0.667969 3.11102 0.755766 2.89906 0.912046 2.74278C1.06833 2.5865 1.28029 2.4987 1.5013 2.4987H7.33464C7.55565 2.4987 7.76761 2.5865 7.92389 2.74278C8.08017 2.89906 8.16797 3.11102 8.16797 3.33203V9.9987C8.168 10.2028 8.24293 10.3998 8.37856 10.5523C8.5142 10.7049 8.70109 10.8023 8.9038 10.8262L9.0013 10.832H10.668C10.8721 10.832 11.0691 10.7571 11.2216 10.6214C11.3741 10.4858 11.4716 10.2989 11.4955 10.0962L11.5013 9.9987V2.4987H9.0013V0.832031H12.3346ZM4.83464 13.332C4.39261 13.332 3.96868 13.5076 3.65612 13.8202C3.34356 14.1327 3.16797 14.5567 3.16797 14.9987C3.16797 15.4407 3.34356 15.8646 3.65612 16.1772C3.96868 16.4898 4.39261 16.6654 4.83464 16.6654C5.27666 16.6654 5.70059 16.4898 6.01315 16.1772C6.32571 15.8646 6.5013 15.4407 6.5013 14.9987C6.5013 14.5567 6.32571 14.1327 6.01315 13.8202C5.70059 13.5076 5.27666 13.332 4.83464 13.332ZM14.8346 13.3312C14.3926 13.3312 13.9687 13.5068 13.6561 13.8194C13.3436 14.1319 13.168 14.5558 13.168 14.9979C13.168 15.4399 13.3436 15.8638 13.6561 16.1764C13.9687 16.4889 14.3926 16.6645 14.8346 16.6645C15.2767 16.6645 15.7006 16.4889 16.0131 16.1764C16.3257 15.8638 16.5013 15.4399 16.5013 14.9979C16.5013 14.5558 16.3257 14.1319 16.0131 13.8194C15.7006 13.5068 15.2767 13.3312 14.8346 13.3312ZM13.878 7.49786H13.168V9.9987C13.168 10.6617 12.9046 11.2976 12.4357 11.7665C11.9669 12.2353 11.331 12.4987 10.668 12.4987H9.0013C8.48426 12.4987 7.97994 12.3384 7.55775 12.0399C7.13556 11.7415 6.81626 11.3195 6.6438 10.832H2.33464V12.7937C2.73534 12.34 3.25198 12.0038 3.82917 11.8214C4.40637 11.6389 5.02234 11.617 5.61104 11.7579C6.19975 11.8989 6.73898 12.1974 7.17093 12.6216C7.60288 13.0457 7.91124 13.5793 8.06297 14.1654H11.6063C11.8163 13.3527 12.325 12.6491 13.0309 12.1949C13.7368 11.7408 14.588 11.5695 15.4146 11.7154L13.878 7.49786ZM6.5013 6.66536H2.33464V9.16536H6.5013V6.66536ZM15.668 4.16536H13.168V5.83203H15.668V4.16536ZM6.5013 4.16536H2.33464V4.9987H6.5013V4.16536Z" fill="#98949E"/>
</svg>
