<svg width="20" height="20" viewBox="0 0 20 20" fill="none" xmlns="http://www.w3.org/2000/svg">
<path opacity="0.4" d="M18.3307 5.20573V9.45571C18.3307 10.514 17.9807 11.4057 17.3557 12.0224C16.7391 12.6474 15.8474 12.9974 14.7891 12.9974V14.5057C14.7891 15.0724 14.1557 15.4141 13.6891 15.0974L12.8807 14.564C12.9557 14.3057 12.9891 14.0224 12.9891 13.7224V10.3307C12.9891 8.63075 11.8557 7.4974 10.1557 7.4974H4.49739C4.38072 7.4974 4.2724 7.50575 4.16406 7.51408V5.20573C4.16406 3.08073 5.58073 1.66406 7.70573 1.66406H14.7891C16.9141 1.66406 18.3307 3.08073 18.3307 5.20573Z" fill="#777777"/>
<path d="M12.9891 10.3334V13.725C12.9891 14.025 12.9557 14.3083 12.8807 14.5667C12.5724 15.7917 11.5557 16.5583 10.1557 16.5583H7.88906L5.37239 18.2333C4.99739 18.4917 4.49739 18.2167 4.49739 17.7667V16.5583C3.64739 16.5583 2.93906 16.275 2.4474 15.7833C1.9474 15.2833 1.66406 14.575 1.66406 13.725V10.3334C1.66406 8.75002 2.6474 7.65835 4.16406 7.51668C4.2724 7.50835 4.38072 7.5 4.49739 7.5H10.1557C11.8557 7.5 12.9891 8.63335 12.9891 10.3334Z" fill="#777777"/>
</svg>
