<svg width="20" height="20" viewBox="0 0 20 20" fill="none" xmlns="http://www.w3.org/2000/svg">
<path d="M18.3335 11.6834L18.3335 12.5C18.3335 16.6667 16.6668 18.3334 12.5002 18.3334L7.50016 18.3334C3.3335 18.3334 1.66683 16.6667 1.66683 12.5L1.66683 7.50004C1.66683 3.33337 3.3335 1.66671 7.50016 1.66671L8.3335 1.66671" stroke="#110D17" stroke-width="1.25" stroke-linecap="round" stroke-linejoin="round"/>
<g opacity="0.4">
<path d="M9.1665 10.8329L4.9915 15.0162L8.33317 15.0162" stroke="#110D17" stroke-width="1.25" stroke-linecap="round" stroke-linejoin="round"/>
<path d="M4.9917 15.0162L4.9917 11.6746" stroke="#110D17" stroke-width="1.25" stroke-linecap="round" stroke-linejoin="round"/>
</g>
<path d="M10.8335 6.54163L10.8335 4.29163C10.8335 2.41663 11.5835 1.66663 13.4585 1.66663L15.7085 1.66663C17.5835 1.66663 18.3335 2.41663 18.3335 4.29163L18.3335 6.54163C18.3335 8.41663 17.5835 9.16663 15.7085 9.16663L13.4585 9.16663C11.5835 9.16663 10.8335 8.41663 10.8335 6.54163Z" stroke="#110D17" stroke-width="1.25" stroke-linecap="round" stroke-linejoin="round"/>
</svg>
