<svg width="24" height="24" viewBox="0 0 24 24" fill="none" xmlns="http://www.w3.org/2000/svg">
<path d="M22 9V15C22 17.5 21.5 19.25 20.38 20.38L14 14L21.73 6.27C21.91 7.06 22 7.96 22 9Z" stroke="url(#paint0_linear_8156_8407)" stroke-width="1.5" stroke-linecap="round" stroke-linejoin="round"/>
<path d="M21.73 6.27L6.26999 21.73C3.25999 21.04 2 18.96 2 15V9C2 4 4 2 9 2H15C18.96 2 21.04 3.26 21.73 6.27Z" stroke="url(#paint1_linear_8156_8407)" stroke-width="1.5" stroke-linecap="round" stroke-linejoin="round"/>
<path d="M20.38 20.38C19.25 21.5 17.5 22 15 22H9.00003C7.96003 22 7.06002 21.91 6.27002 21.73L14 14L20.38 20.38Z" stroke="url(#paint2_linear_8156_8407)" stroke-width="1.5" stroke-linecap="round" stroke-linejoin="round"/>
<path opacity="0.4" d="M6.23977 7.98C6.91977 5.05 11.3198 5.05 11.9998 7.98C12.3898 9.7 11.3098 11.16 10.3598 12.06C9.66977 12.72 8.57979 12.72 7.87979 12.06C6.92979 11.16 5.83977 9.7 6.23977 7.98Z" stroke="url(#paint3_linear_8156_8407)" stroke-width="1.5"/>
<path opacity="0.4" d="M9.0946 8.70001H9.10359" stroke="url(#paint4_linear_8156_8407)" stroke-width="2" stroke-linecap="round" stroke-linejoin="round"/>
<defs>
<linearGradient id="paint0_linear_8156_8407" x1="17.3588" y1="-2.46375" x2="39.3168" y2="10.1175" gradientUnits="userSpaceOnUse">
<stop stop-color="#005B41"/>
<stop offset="1" stop-color="#008170"/>
<stop offset="1" stop-color="#008170"/>
</linearGradient>
<linearGradient id="paint1_linear_8156_8407" x1="10.2836" y1="-10.2124" x2="45.8715" y2="25.7518" gradientUnits="userSpaceOnUse">
<stop stop-color="#005B41"/>
<stop offset="1" stop-color="#008170"/>
<stop offset="1" stop-color="#008170"/>
</linearGradient>
<linearGradient id="paint2_linear_8156_8407" x1="12.1941" y1="9.04819" x2="24.5099" y2="31" gradientUnits="userSpaceOnUse">
<stop stop-color="#005B41"/>
<stop offset="1" stop-color="#008170"/>
<stop offset="1" stop-color="#008170"/>
</linearGradient>
<linearGradient id="paint3_linear_8156_8407" x1="8.64314" y1="1.59049" x2="20.768" y2="12.3135" gradientUnits="userSpaceOnUse">
<stop stop-color="#005B41"/>
<stop offset="1" stop-color="#008170"/>
<stop offset="1" stop-color="#008170"/>
</linearGradient>
<linearGradient id="paint4_linear_8156_8407" x1="9.0191" y1="7.58104" x2="10.8229" y2="9.40023" gradientUnits="userSpaceOnUse">
<stop stop-color="#005B41"/>
<stop offset="1" stop-color="#008170"/>
<stop offset="1" stop-color="#008170"/>
</linearGradient>
</defs>
</svg>
