<svg width="16" height="16" viewBox="0 0 16 16" fill="none" xmlns="http://www.w3.org/2000/svg">
<path opacity="0.4" d="M14.1654 6.00008V10.0001C14.1654 11.0714 13.8618 11.7544 13.4085 12.1754C12.9485 12.6025 12.2554 12.8334 11.332 12.8334H7.12985C7.15336 12.6703 7.16536 12.5036 7.16536 12.3334C7.16536 10.4047 5.60223 8.83341 3.66536 8.83341C2.9948 8.83341 2.36552 9.02505 1.83203 9.35474V6.00008C1.83203 4.92871 2.13562 4.24574 2.58892 3.82481C3.04893 3.39766 3.74201 3.16675 4.66536 3.16675H11.332C12.2554 3.16675 12.9485 3.39766 13.4085 3.82481C13.8618 4.24574 14.1654 4.92871 14.1654 6.00008Z" fill="#19918B" stroke="#19918B"/>
<path d="M7.9987 9.66659C8.91917 9.66659 9.66536 8.92039 9.66536 7.99992C9.66536 7.07944 8.91917 6.33325 7.9987 6.33325C7.07822 6.33325 6.33203 7.07944 6.33203 7.99992C6.33203 8.92039 7.07822 9.66659 7.9987 9.66659Z" fill="#19918B"/>
<path d="M12.332 9.83341C12.0587 9.83341 11.832 9.60675 11.832 9.33341V6.66675C11.832 6.39341 12.0587 6.16675 12.332 6.16675C12.6054 6.16675 12.832 6.39341 12.832 6.66675V9.33341C12.832 9.60675 12.6054 9.83341 12.332 9.83341Z" fill="#19918B"/>
<path d="M3.66797 9.33325C2.72797 9.33325 1.8813 9.77325 1.33464 10.4532C0.914635 10.9666 0.667969 11.6199 0.667969 12.3333C0.667969 13.9933 2.01464 15.3333 3.66797 15.3333C4.97464 15.3333 6.08796 14.4999 6.49463 13.3333C6.60796 13.0199 6.66797 12.6866 6.66797 12.3333C6.66797 10.6799 5.32797 9.33325 3.66797 9.33325ZM5.44128 13.6399C5.42128 13.6799 5.39462 13.7266 5.36129 13.7599L4.82129 14.2933C4.75462 14.3666 4.66129 14.3999 4.56795 14.3999C4.46795 14.3999 4.37465 14.3666 4.30798 14.2933C4.18798 14.1799 4.17463 13.9999 4.24797 13.8666H2.74129C2.26129 13.8666 1.86796 13.4732 1.86796 12.9866V12.9132C1.86796 12.7066 2.03462 12.5466 2.23462 12.5466C2.43462 12.5466 2.60132 12.7066 2.60132 12.9132V12.9866C2.60132 13.0666 2.66129 13.1333 2.74129 13.1333H4.24797C4.17463 12.9933 4.18798 12.8199 4.30798 12.6999C4.44798 12.5599 4.68129 12.5599 4.82129 12.6999L5.36129 13.2399C5.39462 13.2732 5.42128 13.3132 5.44128 13.3599C5.47462 13.4466 5.47462 13.5466 5.44128 13.6399ZM5.46798 11.7533C5.46798 11.9599 5.30132 12.1199 5.10132 12.1199C4.90132 12.1199 4.73462 11.9599 4.73462 11.7533V11.6799C4.73462 11.5999 4.67465 11.5332 4.59465 11.5332H3.08797C3.16131 11.6732 3.14795 11.8466 3.02795 11.9666C2.96129 12.0333 2.86799 12.0732 2.76799 12.0732C2.67465 12.0732 2.58132 12.0333 2.51465 11.9666L1.97465 11.4266C1.94132 11.3933 1.91465 11.3533 1.89465 11.3066C1.86132 11.2199 1.86132 11.1199 1.89465 11.0266C1.91465 10.9866 1.94132 10.9399 1.97465 10.9066L2.51465 10.3733C2.65465 10.2266 2.88795 10.2266 3.02795 10.3733C3.14795 10.4866 3.16131 10.6666 3.08797 10.7999H4.59465C5.07465 10.7999 5.46798 11.1933 5.46798 11.6799V11.7533Z" fill="#19918B"/>
</svg>
