<svg width="20" height="20" viewBox="0 0 20 20" fill="none" xmlns="http://www.w3.org/2000/svg">
<path d="M1.66797 9.16683V7.50016C1.66797 4.5835 3.33464 3.3335 5.83464 3.3335H14.168C16.668 3.3335 18.3346 4.5835 18.3346 7.50016V12.5002C18.3346 15.4168 16.668 16.6668 14.168 16.6668H10.0013" stroke="#008172" stroke-width="1.5" stroke-miterlimit="10" stroke-linecap="round" stroke-linejoin="round"/>
<path opacity="0.4" d="M10.0013 12.0832C11.1519 12.0832 12.0846 11.1504 12.0846 9.99984C12.0846 8.84924 11.1519 7.9165 10.0013 7.9165C8.85071 7.9165 7.91797 8.84924 7.91797 9.99984C7.91797 11.1504 8.85071 12.0832 10.0013 12.0832Z" stroke="#008172" stroke-width="1.5" stroke-miterlimit="10" stroke-linecap="round" stroke-linejoin="round"/>
<path opacity="0.4" d="M15.418 7.9165V12.0832" stroke="#008172" stroke-width="1.5" stroke-miterlimit="10" stroke-linecap="round" stroke-linejoin="round"/>
<path d="M1.66797 12.9165H6.11799C6.65132 12.9165 7.08464 13.3498 7.08464 13.8831V14.9498" stroke="#008172" stroke-width="1.5" stroke-miterlimit="10" stroke-linecap="round" stroke-linejoin="round"/>
<path d="M2.68461 11.8999L1.66797 12.9165L2.68461 13.9332" stroke="#008172" stroke-width="1.5" stroke-miterlimit="10" stroke-linecap="round" stroke-linejoin="round"/>
<path d="M7.08464 17.3165H2.63461C2.10128 17.3165 1.66797 16.8832 1.66797 16.3498V15.2832" stroke="#008172" stroke-width="1.5" stroke-miterlimit="10" stroke-linecap="round" stroke-linejoin="round"/>
<path d="M6.06641 18.3331L7.08305 17.3165L6.06641 16.2998" stroke="#008172" stroke-width="1.5" stroke-miterlimit="10" stroke-linecap="round" stroke-linejoin="round"/>
</svg>
