<svg width="18" height="18" viewBox="0 0 18 18" fill="none" xmlns="http://www.w3.org/2000/svg">
<g id="vuesax/bulk/presention-chart">
<g id="presention-chart">
<path id="Vector" opacity="0.4" d="M15.25 2V10.575C15.25 11.2039 15.0854 11.6012 14.8433 11.8433C14.6012 12.0854 14.2039 12.25 13.575 12.25H4.425C3.79607 12.25 3.39877 12.0854 3.15668 11.8433C2.91458 11.6012 2.75 11.2039 2.75 10.575V2H15.25Z" fill="#008172" stroke="#008172"/>
<g id="Group">
<path id="Vector_2" d="M16.5 1.5625H1.5C1.48694 1.5625 1.47128 1.5573 1.45699 1.54301C1.4427 1.52872 1.4375 1.51306 1.4375 1.5C1.4375 1.48694 1.4427 1.47128 1.45699 1.45699C1.47128 1.4427 1.48694 1.4375 1.5 1.4375H16.5C16.5131 1.4375 16.5287 1.4427 16.543 1.45699C16.5573 1.47128 16.5625 1.48694 16.5625 1.5C16.5625 1.51306 16.5573 1.52872 16.543 1.54301C16.5287 1.5573 16.5131 1.5625 16.5 1.5625Z" fill="#008172" stroke="#008172"/>
</g>
<path id="Vector_3" d="M11.9758 16.5553L11.9753 16.5551L9.22283 15.1825L8.99971 15.0713L8.77659 15.1825L6.02408 16.5551L6.02359 16.5553C6.02261 16.5558 6.02051 16.5568 6.01741 16.5579C6.01433 16.559 6.01096 16.56 6.00756 16.5609C6.00415 16.5617 6.00142 16.5622 5.99963 16.5624C5.9978 16.5626 5.99779 16.5625 5.99971 16.5625C5.98997 16.5625 5.97694 16.5594 5.96498 16.5523C5.95401 16.5458 5.94787 16.5383 5.94441 16.5314C5.93321 16.509 5.93437 16.4911 5.93841 16.4791C5.9423 16.4675 5.94999 16.4571 5.96626 16.4494L5.96631 16.4495L5.97583 16.4447L8.66082 15.1022L8.93721 14.964V14.655V13.25H9.06221V14.655V14.964L9.33861 15.1022L12.0236 16.4447L12.0235 16.4448L12.0332 16.4494C12.0494 16.4571 12.0571 16.4675 12.061 16.4791C12.0651 16.4911 12.0662 16.509 12.055 16.5314C12.0516 16.5383 12.0454 16.5458 12.0344 16.5523C12.0225 16.5594 12.0095 16.5625 11.9997 16.5625C12.0016 16.5625 12.0016 16.5626 11.9998 16.5624C11.998 16.5622 11.9953 16.5617 11.9919 16.5609C11.9885 16.56 11.9851 16.559 11.982 16.5579C11.9789 16.5568 11.9768 16.5558 11.9758 16.5553Z" fill="#008172" stroke="#008172"/>
<g id="Group_2">
<path id="Vector_4" d="M5.6247 8.8122C5.4672 8.8122 5.30221 8.74471 5.18971 8.60971C4.98721 8.36971 5.02469 8.01721 5.26469 7.81471L7.62721 5.84221C7.84471 5.66221 8.12219 5.58721 8.38469 5.63221C8.65469 5.67721 8.88721 5.84219 9.02971 6.08219L9.8172 7.39469L12.0147 5.56471C12.2547 5.36221 12.6072 5.39969 12.8097 5.63969C13.0122 5.87969 12.9747 6.23219 12.7347 6.43469L10.3722 8.40719C10.1547 8.58719 9.87721 8.66219 9.61471 8.61719C9.34471 8.57219 9.11219 8.40721 8.96969 8.16721L8.1822 6.85471L5.98471 8.68469C5.87971 8.76719 5.7522 8.8122 5.6247 8.8122Z" fill="#008172"/>
</g>
</g>
</g>
</svg>
