<svg width="16" height="16" viewBox="0 0 16 16" fill="none" xmlns="http://www.w3.org/2000/svg">
<mask id="path-1-inside-1_11709_11056" fill="white">
<path d="M12.05 1.03589L14.832 3.93589V14.9639H4.43951V14.9999H14.8675V3.97239L12.05 1.03589Z"/>
</mask>
<path d="M12.05 1.03589L14.832 3.93589V14.9639H4.43951V14.9999H14.8675V3.97239L12.05 1.03589Z" fill="#909090"/>
<path d="M12.05 1.03589L12.7716 0.343554L11.3284 1.72816L12.05 1.03589ZM14.832 3.93589H15.832V3.53379L15.5537 3.24362L14.832 3.93589ZM14.832 14.9639V15.9639H15.832V14.9639H14.832ZM4.43951 14.9639V13.9639H3.43951V14.9639H4.43951ZM4.43951 14.9999H3.43951V15.9999H4.43951V14.9999ZM14.8675 14.9999V15.9999H15.8675V14.9999H14.8675ZM14.8675 3.97239H15.8675V3.57024L15.5891 3.28005L14.8675 3.97239ZM11.3284 1.72816L14.1104 4.62816L15.5537 3.24362L12.7717 0.343616L11.3284 1.72816ZM13.832 3.93589V14.9639H15.832V3.93589H13.832ZM14.832 13.9639H4.43951V15.9639H14.832V13.9639ZM3.43951 14.9639V14.9999H5.43951V14.9639H3.43951ZM4.43951 15.9999H14.8675V13.9999H4.43951V15.9999ZM15.8675 14.9999V3.97239H13.8675V14.9999H15.8675ZM15.5891 3.28005L12.7716 0.343554L11.3284 1.72822L14.1459 4.66472L15.5891 3.28005Z" fill="#008170" mask="url(#path-1-inside-1_11709_11056)"/>
<path d="M12.0155 1H4.40399V14.964H14.832V3.9365L12.0155 1Z" fill="#F4F4F4"/>
<path d="M1.63251 4.6635V2.25H4.32751H10.6825V4.6635H1.63251Z" fill="#7A7B7C" stroke="#008170"/>
<path d="M11.236 5.10545H1.19751V1.68945H11.236V5.10545Z" fill="#DD2025"/>
<mask id="path-6-inside-2_11709_11056" fill="white">
<path d="M4.526 2.26708H3.8725V4.66708H4.3865V3.85758L4.5 3.86408C4.61032 3.86256 4.71963 3.84279 4.8235 3.80558C4.91481 3.77458 4.99873 3.72504 5.07 3.66008C5.14308 3.5988 5.2005 3.52099 5.2375 3.43308C5.28812 3.28744 5.30604 3.13243 5.29 2.97908C5.28715 2.86951 5.26793 2.76098 5.233 2.65708C5.20151 2.58199 5.1547 2.51429 5.09555 2.45833C5.0364 2.40236 4.96622 2.35936 4.8895 2.33208C4.82336 2.30759 4.75481 2.29015 4.685 2.28008C4.63226 2.27149 4.57893 2.26715 4.5255 2.26708M4.431 3.41408H4.3865V2.67408H4.483C4.52559 2.67101 4.56832 2.67755 4.60805 2.69321C4.64777 2.70888 4.68347 2.73327 4.7125 2.76458C4.77266 2.84509 4.80479 2.94308 4.804 3.04358C4.804 3.16658 4.804 3.27808 4.693 3.35658C4.61305 3.40062 4.52201 3.42092 4.431 3.41408ZM6.2665 2.26058C6.211 2.26058 6.157 2.26458 6.119 2.26608L6 2.26908H5.61V4.66908H6.069C6.24439 4.67359 6.41898 4.64387 6.583 4.58158C6.71506 4.52943 6.83195 4.44503 6.923 4.33608C7.01222 4.22666 7.07593 4.09872 7.1095 3.96158C7.14893 3.80654 7.16809 3.64705 7.1665 3.48708C7.17629 3.29816 7.16166 3.10876 7.123 2.92358C7.08598 2.78743 7.01747 2.66188 6.923 2.55708C6.8489 2.47234 6.75774 2.40419 6.6555 2.35708C6.56791 2.31648 6.47574 2.2866 6.381 2.26808C6.34332 2.26191 6.30517 2.25906 6.267 2.25958M6.176 4.22808H6.126V2.69608H6.1325C6.23558 2.68416 6.33989 2.70276 6.4325 2.74958C6.50033 2.80375 6.5556 2.87198 6.5945 2.94958C6.63648 3.03125 6.66067 3.12088 6.6655 3.21258C6.67 3.32258 6.6655 3.41258 6.6655 3.48708C6.66735 3.5729 6.66183 3.65871 6.649 3.74358C6.63327 3.83061 6.60479 3.91485 6.5645 3.99358C6.51897 4.067 6.45679 4.12867 6.383 4.17358C6.32135 4.21358 6.24827 4.23221 6.175 4.22658M8.715 2.26908H7.5V4.66908H8.014V3.71708H8.664V3.27108H8.014V2.71508H8.714V2.26908"/>
</mask>
<path d="M4.526 2.26708H3.8725V4.66708H4.3865V3.85758L4.5 3.86408C4.61032 3.86256 4.71963 3.84279 4.8235 3.80558C4.91481 3.77458 4.99873 3.72504 5.07 3.66008C5.14308 3.5988 5.2005 3.52099 5.2375 3.43308C5.28812 3.28744 5.30604 3.13243 5.29 2.97908C5.28715 2.86951 5.26793 2.76098 5.233 2.65708C5.20151 2.58199 5.1547 2.51429 5.09555 2.45833C5.0364 2.40236 4.96622 2.35936 4.8895 2.33208C4.82336 2.30759 4.75481 2.29015 4.685 2.28008C4.63226 2.27149 4.57893 2.26715 4.5255 2.26708M4.431 3.41408H4.3865V2.67408H4.483C4.52559 2.67101 4.56832 2.67755 4.60805 2.69321C4.64777 2.70888 4.68347 2.73327 4.7125 2.76458C4.77266 2.84509 4.80479 2.94308 4.804 3.04358C4.804 3.16658 4.804 3.27808 4.693 3.35658C4.61305 3.40062 4.52201 3.42092 4.431 3.41408ZM6.2665 2.26058C6.211 2.26058 6.157 2.26458 6.119 2.26608L6 2.26908H5.61V4.66908H6.069C6.24439 4.67359 6.41898 4.64387 6.583 4.58158C6.71506 4.52943 6.83195 4.44503 6.923 4.33608C7.01222 4.22666 7.07593 4.09872 7.1095 3.96158C7.14893 3.80654 7.16809 3.64705 7.1665 3.48708C7.17629 3.29816 7.16166 3.10876 7.123 2.92358C7.08598 2.78743 7.01747 2.66188 6.923 2.55708C6.8489 2.47234 6.75774 2.40419 6.6555 2.35708C6.56791 2.31648 6.47574 2.2866 6.381 2.26808C6.34332 2.26191 6.30517 2.25906 6.267 2.25958M6.176 4.22808H6.126V2.69608H6.1325C6.23558 2.68416 6.33989 2.70276 6.4325 2.74958C6.50033 2.80375 6.5556 2.87198 6.5945 2.94958C6.63648 3.03125 6.66067 3.12088 6.6655 3.21258C6.67 3.32258 6.6655 3.41258 6.6655 3.48708C6.66735 3.5729 6.66183 3.65871 6.649 3.74358C6.63327 3.83061 6.60479 3.91485 6.5645 3.99358C6.51897 4.067 6.45679 4.12867 6.383 4.17358C6.32135 4.21358 6.24827 4.23221 6.175 4.22658M8.715 2.26908H7.5V4.66908H8.014V3.71708H8.664V3.27108H8.014V2.71508H8.714V2.26908" fill="#464648"/>
<path d="M3.8725 2.26708V1.26708H2.8725V2.26708H3.8725ZM3.8725 4.66708H2.8725V5.66708H3.8725V4.66708ZM4.3865 4.66708V5.66708H5.3865V4.66708H4.3865ZM4.3865 3.85758L4.44367 2.85922L3.3865 2.79867V3.85758H4.3865ZM4.5 3.86408L4.44282 4.86245L4.47827 4.86448L4.51378 4.86399L4.5 3.86408ZM4.8235 3.80558L4.50199 2.85867L4.49408 2.86136L4.48622 2.86418L4.8235 3.80558ZM5.07 3.66008L4.42748 2.89381L4.41163 2.9071L4.39635 2.92103L5.07 3.66008ZM5.2375 3.43308L6.15918 3.82102L6.17158 3.79157L6.18207 3.76139L5.2375 3.43308ZM5.29 2.97908L4.29034 3.00509L4.29135 3.04422L4.29543 3.08315L5.29 2.97908ZM5.233 2.65708L6.18084 2.33835L6.16927 2.30393L6.15523 2.27044L5.233 2.65708ZM4.8895 2.33208L4.54216 3.26991L4.55445 3.27428L4.8895 2.33208ZM4.685 2.28008L4.52427 3.26708L4.53322 3.26854L4.54219 3.26983L4.685 2.28008ZM4.431 3.41408L4.50597 2.4169L4.46854 2.41408H4.431V3.41408ZM4.3865 3.41408H3.3865V4.41408H4.3865V3.41408ZM4.3865 2.67408V1.67408H3.3865V2.67408H4.3865ZM4.483 2.67408V3.67408H4.51901L4.55492 3.67149L4.483 2.67408ZM4.7125 2.76458L5.51355 2.16599L5.48185 2.12356L5.44583 2.08472L4.7125 2.76458ZM4.804 3.04358L3.804 3.03565V3.04358H4.804ZM4.693 3.35658L5.17547 4.23249L5.22461 4.20543L5.2704 4.17304L4.693 3.35658ZM6.119 2.26608L6.1442 3.26576L6.15132 3.26558L6.15844 3.2653L6.119 2.26608ZM6 2.26908V3.26908H6.0126L6.0252 3.26876L6 2.26908ZM5.61 2.26908V1.26908H4.61V2.26908H5.61ZM5.61 4.66908H4.61V5.66908H5.61V4.66908ZM6.069 4.66908L6.09471 3.66941L6.08185 3.66908H6.069V4.66908ZM6.583 4.58158L6.93806 5.51652L6.95031 5.51168L6.583 4.58158ZM6.923 4.33608L7.69037 4.9774L7.69801 4.96802L6.923 4.33608ZM7.1095 3.96158L6.14032 3.71506L6.13817 3.72385L7.1095 3.96158ZM7.1665 3.48708L6.16784 3.43534L6.16624 3.46618L6.16655 3.49706L7.1665 3.48708ZM7.123 2.92358L8.10189 2.71918L8.09579 2.69L8.08797 2.66124L7.123 2.92358ZM6.923 2.55708L6.1702 3.21533L6.17518 3.22103L6.18025 3.22665L6.923 2.55708ZM6.6555 2.35708L6.23494 3.26435L6.23708 3.26533L6.6555 2.35708ZM6.381 2.26808L6.57281 1.28665L6.55782 1.28372L6.54276 1.28125L6.381 2.26808ZM6.126 4.22808H5.126V5.22808H6.126V4.22808ZM6.126 2.69608V1.69608H5.126V2.69608H6.126ZM6.1325 2.69608V3.69608H6.19012L6.24736 3.68946L6.1325 2.69608ZM6.4325 2.74958L7.05648 1.96814L6.9758 1.90372L6.88367 1.85714L6.4325 2.74958ZM6.5945 2.94958L5.70047 3.39771L5.70511 3.40673L6.5945 2.94958ZM6.6655 3.21258L7.66473 3.1717L7.66412 3.16004L6.6655 3.21258ZM6.6655 3.48708H5.6655V3.49785L5.66573 3.50862L6.6655 3.48708ZM6.649 3.74358L7.63305 3.92144L7.63561 3.90727L7.63777 3.89304L6.649 3.74358ZM6.5645 3.99358L7.41439 4.52054L7.43599 4.4857L7.45467 4.44921L6.5645 3.99358ZM6.383 4.17358L5.86311 3.31935L5.85077 3.32686L5.83865 3.33472L6.383 4.17358ZM7.5 2.26908V1.26908H6.5V2.26908H7.5ZM7.5 4.66908H6.5V5.66908H7.5V4.66908ZM8.014 4.66908V5.66908H9.014V4.66908H8.014ZM8.014 3.71708V2.71708H7.014V3.71708H8.014ZM8.664 3.71708V4.71708H9.664V3.71708H8.664ZM8.664 3.27108H9.664V2.27108H8.664V3.27108ZM8.014 3.27108H7.014V4.27108H8.014V3.27108ZM8.014 2.71508V1.71508H7.014V2.71508H8.014ZM8.714 2.71508V3.71508H9.714V2.71508H8.714ZM4.526 1.26708H3.8725V3.26708H4.526V1.26708ZM2.8725 2.26708V4.66708H4.8725V2.26708H2.8725ZM3.8725 5.66708H4.3865V3.66708H3.8725V5.66708ZM5.3865 4.66708V3.85758H3.3865V4.66708H5.3865ZM4.32932 4.85595L4.44282 4.86245L4.55717 2.86572L4.44367 2.85922L4.32932 4.85595ZM4.51378 4.86399C4.73442 4.86095 4.95304 4.82141 5.16078 4.74699L4.48622 2.86418L4.48622 2.86418L4.51378 4.86399ZM5.14501 4.75249C5.36676 4.67719 5.57057 4.55689 5.74365 4.39913L4.39635 2.92103C4.42689 2.89319 4.46286 2.87196 4.50199 2.85867L5.14501 4.75249ZM5.71252 4.42635C5.9074 4.26294 6.06052 4.05543 6.15918 3.82102L4.31581 3.04515C4.34048 2.98654 4.37876 2.93467 4.42748 2.89381L5.71252 4.42635ZM6.18207 3.76139C6.2809 3.47704 6.3159 3.17441 6.28457 2.87501L4.29543 3.08315C4.29619 3.09046 4.29534 3.09784 4.29293 3.10477L6.18207 3.76139ZM6.28966 2.95307C6.28422 2.74389 6.24754 2.53669 6.18084 2.33835L4.28515 2.97582C4.28833 2.98526 4.29008 2.99513 4.29034 3.00509L6.28966 2.95307ZM6.15523 2.27044C6.06992 2.06698 5.94309 1.88356 5.78283 1.73193L4.40827 3.18472C4.36631 3.14502 4.3331 3.097 4.31077 3.04373L6.15523 2.27044ZM5.78283 1.73193C5.62257 1.5803 5.43242 1.4638 5.22455 1.38988L4.55445 3.27428C4.50002 3.25493 4.45024 3.22443 4.40827 3.18472L5.78283 1.73193ZM5.23681 1.39433C5.10452 1.34534 4.96743 1.31048 4.82781 1.29033L4.54219 3.26983L4.54219 3.26983L5.23681 1.39433ZM4.84572 1.29308C4.74025 1.27591 4.63358 1.26721 4.52672 1.26708L4.52427 3.26708L4.52427 3.26708L4.84572 1.29308ZM4.431 2.41408H4.3865V4.41408H4.431V2.41408ZM5.3865 3.41408V2.67408H3.3865V3.41408H5.3865ZM4.3865 3.67408H4.483V1.67408H4.3865V3.67408ZM4.55492 3.67149C4.44808 3.6792 4.34086 3.66279 4.2412 3.6235L4.97489 1.76293C4.79578 1.6923 4.6031 1.66282 4.41107 1.67667L4.55492 3.67149ZM4.2412 3.6235C4.14155 3.5842 4.052 3.52301 3.97916 3.44445L5.44583 2.08472C5.31494 1.94353 5.15399 1.83356 4.97489 1.76293L4.2412 3.6235ZM3.91144 3.36317C3.84082 3.26866 3.80309 3.15363 3.80403 3.03565L5.80397 3.05151C5.8065 2.73254 5.70449 2.42152 5.51355 2.16599L3.91144 3.36317ZM3.804 3.04358C3.804 3.08026 3.80368 3.07974 3.80405 3.07359C3.8046 3.06437 3.80737 3.02223 3.82265 2.96379C3.83896 2.90141 3.86938 2.82076 3.92512 2.73715C3.98163 2.65239 4.04921 2.58707 4.11559 2.54012L5.2704 4.17304C5.85812 3.7574 5.804 3.08972 5.804 3.04358H3.804ZM4.21052 2.48067C4.29736 2.43284 4.3996 2.4089 4.50597 2.4169L4.35603 4.41127C4.64443 4.43295 4.92874 4.3684 5.17547 4.23249L4.21052 2.48067ZM6.2665 1.26058C6.21602 1.26058 6.1709 1.26238 6.13909 1.26388C6.09194 1.2661 6.09749 1.26615 6.07955 1.26686L6.15844 3.2653C6.17492 3.26465 6.19114 3.26382 6.20218 3.26324C6.21502 3.26257 6.22377 3.26211 6.23328 3.26166C6.25185 3.26078 6.26147 3.26058 6.2665 3.26058V1.26058ZM6.0938 1.2664L5.9748 1.2694L6.0252 3.26876L6.1442 3.26576L6.0938 1.2664ZM6 1.26908H5.61V3.26908H6V1.26908ZM4.61 2.26908V4.66908H6.61V2.26908H4.61ZM5.61 5.66908H6.069V3.66908H5.61V5.66908ZM6.04329 5.66875C6.3486 5.6766 6.65251 5.62487 6.93803 5.51644L6.22797 3.64673C6.18544 3.66288 6.14018 3.67058 6.09471 3.66941L6.04329 5.66875ZM6.95031 5.51168C7.23773 5.39817 7.49214 5.21447 7.69031 4.97736L6.15569 3.69481C6.17175 3.67558 6.19238 3.66069 6.21569 3.65148L6.95031 5.51168ZM7.69801 4.96802C7.88115 4.74342 8.01193 4.48081 8.08083 4.19931L6.13817 3.72385C6.13993 3.71663 6.14329 3.7099 6.14798 3.70414L7.69801 4.96802ZM8.07864 4.20809C8.13939 3.96925 8.16891 3.72354 8.16645 3.47711L6.16655 3.49706C6.16728 3.57055 6.15848 3.64383 6.14036 3.71507L8.07864 4.20809ZM8.16516 3.53882C8.1794 3.26402 8.15813 2.98854 8.10189 2.71918L6.14411 3.12798C6.1652 3.22899 6.17318 3.33229 6.16784 3.43534L8.16516 3.53882ZM8.08797 2.66124C8.00983 2.3738 7.86519 2.10876 7.66575 1.88752L6.18025 3.22665C6.16975 3.215 6.16214 3.20106 6.15802 3.18593L8.08797 2.66124ZM7.67579 1.89883C7.50906 1.70815 7.30397 1.55481 7.07392 1.44883L6.23708 3.26533C6.21151 3.25356 6.18873 3.23652 6.1702 3.21533L7.67579 1.89883ZM7.07606 1.44982C6.91548 1.37538 6.74651 1.3206 6.57281 1.28665L6.18919 3.24951C6.20498 3.2526 6.22034 3.25758 6.23494 3.26435L7.07606 1.44982ZM6.54276 1.28125C6.44711 1.26557 6.35028 1.25835 6.25337 1.25967L6.28062 3.25949C6.26007 3.25977 6.23953 3.25824 6.21924 3.25491L6.54276 1.28125ZM6.176 3.22808H6.126V5.22808H6.176V3.22808ZM7.126 4.22808V2.69608H5.126V4.22808H7.126ZM6.126 3.69608H6.1325V1.69608H6.126V3.69608ZM6.24736 3.68946C6.15595 3.70003 6.06345 3.68354 5.98133 3.64202L6.88367 1.85714C6.61633 1.72199 6.3152 1.66829 6.01763 1.7027L6.24736 3.68946ZM5.80852 3.53102C5.7633 3.49491 5.72645 3.44942 5.70052 3.39769L7.48848 2.50147C7.38475 2.29454 7.23736 2.11258 7.05648 1.96814L5.80852 3.53102ZM5.70511 3.40673C5.68251 3.36276 5.66948 3.3145 5.66688 3.26512L7.66412 3.16004C7.65187 2.92727 7.59044 2.69974 7.48389 2.49243L5.70511 3.40673ZM5.66633 3.25346C5.66757 3.28378 5.66771 3.31431 5.66726 3.3508C5.66702 3.37045 5.66668 3.38749 5.66628 3.41119C5.66591 3.43256 5.6655 3.45937 5.6655 3.48708H7.6655C7.6655 3.47773 7.67007 3.30398 7.66466 3.17171L5.66633 3.25346ZM5.66573 3.50862C5.66635 3.53723 5.66451 3.56583 5.66023 3.59412L7.63777 3.89304C7.65915 3.75159 7.66835 3.60856 7.66527 3.46554L5.66573 3.50862ZM5.66494 3.56573C5.66669 3.55605 5.66985 3.54669 5.67433 3.53795L7.45467 4.44921C7.53974 4.28301 7.59985 4.10517 7.63305 3.92144L5.66494 3.56573ZM5.71461 3.46662C5.75185 3.40655 5.80273 3.3561 5.86311 3.31935L6.90289 5.02782C7.11086 4.90124 7.28609 4.72746 7.41439 4.52054L5.71461 3.46662ZM5.83865 3.33472C5.96101 3.25532 6.1061 3.21835 6.25154 3.22952L6.09845 5.22365C6.39044 5.24606 6.68169 5.17185 6.92735 5.01244L5.83865 3.33472ZM8.715 1.26908H7.5V3.26908H8.715V1.26908ZM6.5 2.26908V4.66908H8.5V2.26908H6.5ZM7.5 5.66908H8.014V3.66908H7.5V5.66908ZM9.014 4.66908V3.71708H7.014V4.66908H9.014ZM8.014 4.71708H8.664V2.71708H8.014V4.71708ZM9.664 3.71708V3.27108H7.664V3.71708H9.664ZM8.664 2.27108H8.014V4.27108H8.664V2.27108ZM9.014 3.27108V2.71508H7.014V3.27108H9.014ZM8.014 3.71508H8.714V1.71508H8.014V3.71508ZM9.714 2.71508V2.26908H7.714V2.71508H9.714Z" fill="#008170" mask="url(#path-6-inside-2_11709_11056)"/>
<path d="M10.8905 10.1275C10.8905 10.1275 12.4845 9.83851 12.4845 10.383C12.4845 10.9275 11.497 10.706 10.8905 10.1275ZM9.712 10.169C9.4587 10.2248 9.21188 10.3068 8.9755 10.4135L9.1755 9.96351C9.3755 9.51351 9.583 8.9 9.583 8.9C9.82106 9.30207 10.0988 9.67928 10.412 10.026C10.1762 10.0611 9.94251 10.1092 9.712 10.17V10.169ZM9.081 6.91901C9.081 6.44451 9.2345 6.31501 9.354 6.31501C9.4735 6.31501 9.608 6.37251 9.6125 6.78451C9.57351 7.19878 9.48677 7.60715 9.354 8.00151C9.17151 7.67064 9.07732 7.29835 9.0805 6.9205L9.081 6.91901ZM6.7565 12.177C6.2675 11.8845 7.782 10.984 8.0565 10.955C8.055 10.9555 7.2685 12.483 6.7565 12.177ZM12.95 10.4475C12.945 10.3975 12.9 9.84401 11.915 9.86751C11.5044 9.86031 11.094 9.88925 10.6885 9.95401C10.2954 9.55837 9.9571 9.11191 9.6825 8.62651C9.8554 8.12615 9.96017 7.60481 9.994 7.07651C9.9795 6.47651 9.836 6.1325 9.376 6.1375C8.916 6.1425 8.849 6.54501 8.9095 7.14401C8.96871 7.54654 9.0805 7.93956 9.242 8.313C9.242 8.313 9.0295 8.9745 8.7485 9.6325C8.4675 10.2905 8.2755 10.6355 8.2755 10.6355C7.78679 10.7944 7.32677 11.0307 6.913 11.3355C6.501 11.719 6.3335 12.0135 6.5505 12.308C6.7375 12.562 7.392 12.6195 7.977 11.853C8.28729 11.4567 8.57124 11.0405 8.827 10.607C8.827 10.607 9.719 10.3625 9.9965 10.2955C10.274 10.2285 10.6095 10.1755 10.6095 10.1755C10.6095 10.1755 11.424 10.995 12.2095 10.966C12.995 10.937 12.957 10.4965 12.952 10.4485" fill="#DD2025"/>
<path d="M11.977 1.03857V3.97507H14.7935L11.977 1.03857Z" fill="#909090"/>
<path d="M12.0155 1V3.9365H14.832L12.0155 1Z" fill="#F4F4F4"/>
<path d="M4.48751 2.22851H3.83401V4.62851H4.35001V3.81951L4.46402 3.82601C4.57434 3.82449 4.68365 3.80472 4.78751 3.76751C4.87883 3.7365 4.96275 3.68697 5.03401 3.62201C5.10655 3.56056 5.16345 3.48276 5.20001 3.39501C5.25064 3.24936 5.26856 3.09436 5.25251 2.94101C5.24966 2.83143 5.23045 2.7229 5.19551 2.61901C5.16403 2.54391 5.11722 2.47622 5.05807 2.42025C4.99892 2.36429 4.92874 2.32129 4.85202 2.29401C4.78557 2.26927 4.71668 2.25167 4.64651 2.24151C4.59378 2.23292 4.54044 2.22857 4.48701 2.22851M4.39251 3.37551H4.34801V2.63551H4.44501C4.4876 2.63244 4.53034 2.63897 4.57006 2.65464C4.60979 2.6703 4.64548 2.69469 4.67451 2.72601C4.73467 2.80652 4.76681 2.90451 4.76601 3.00501C4.76601 3.12801 4.76601 3.23951 4.65501 3.31801C4.57507 3.36204 4.48403 3.38185 4.39301 3.37501M6.22801 2.22201C6.17251 2.22201 6.11851 2.22601 6.08051 2.22751L5.96301 2.23051H5.57301V4.63051H6.03201C6.20741 4.63502 6.382 4.6053 6.54601 4.54301C6.67807 4.49086 6.79496 4.40645 6.88601 4.29751C6.97524 4.18808 7.03895 4.06015 7.07252 3.92301C7.11195 3.76797 7.13111 3.60847 7.12951 3.44851C7.1393 3.25959 7.12468 3.07019 7.08601 2.88501C7.049 2.74885 6.98049 2.62331 6.88601 2.51851C6.81191 2.43376 6.72076 2.36561 6.61852 2.31851C6.53093 2.27791 6.43876 2.24802 6.34401 2.22951C6.30634 2.22333 6.26819 2.22049 6.23001 2.22101M6.13901 4.18951H6.08902V2.65751H6.09551C6.1986 2.64559 6.30291 2.66419 6.39551 2.71101C6.46335 2.76517 6.51862 2.83341 6.55751 2.91101C6.59949 2.99268 6.62369 3.08231 6.62851 3.17401C6.63301 3.28401 6.62851 3.37401 6.62851 3.44851C6.63036 3.53432 6.62484 3.62014 6.61201 3.70501C6.59628 3.79204 6.56781 3.87628 6.52751 3.95501C6.48199 4.02843 6.41981 4.09009 6.34601 4.13501C6.28437 4.17501 6.21128 4.19363 6.13801 4.18801M8.67652 2.23051H7.46151V4.63051H7.97551V3.67851H8.62551V3.23251H7.97551V2.67651H8.67551V2.23051" fill="white"/>
</svg>
