<svg width="65" height="64" viewBox="0 0 65 64" fill="none" xmlns="http://www.w3.org/2000/svg">
<rect x="0.5" width="64" height="64" rx="32" fill="#E8E8E8"/>
<path opacity="0.4" d="M24.5 25.3335C21.8333 25.3335 20.5 26.6668 20.5 29.3335V36.0002C20.5 38.6668 21.8333 40.0002 24.5 40.0002L27.1667 37.3335V36.0002H28.5L39.1667 25.3335H24.5ZM25.8333 31.6668C25.2867 31.6668 24.8333 31.2135 24.8333 30.6668C24.8333 30.1202 25.2867 29.6668 25.8333 29.6668H28.5C29.0467 29.6668 29.5 30.1202 29.5 30.6668C29.5 31.2135 29.0467 31.6668 28.5 31.6668H25.8333Z" fill="#949494"/>
<path d="M28.5013 36L27.168 37.3333V36H28.5013Z" fill="#949494"/>
<path d="M39.1654 22.6665V25.3332H25.832V22.6665C25.832 20.4532 27.6187 18.6665 29.832 18.6665H35.1654C37.3787 18.6665 39.1654 20.4532 39.1654 22.6665Z" fill="#949494"/>
<path fill-rule="evenodd" clip-rule="evenodd" d="M46.5417 17.9594C46.9323 18.3499 46.9323 18.9831 46.5417 19.3736L19.8751 46.0403C19.4846 46.4308 18.8514 46.4308 18.4609 46.0403C18.0703 45.6498 18.0703 45.0166 18.4609 44.6261L45.1275 17.9594C45.5181 17.5689 46.1512 17.5689 46.5417 17.9594Z" fill="#949494"/>
<path d="M29.4987 30.6665C29.4987 31.2132 29.0454 31.6665 28.4987 31.6665H25.832C25.2854 31.6665 24.832 31.2132 24.832 30.6665C24.832 30.1198 25.2854 29.6665 25.832 29.6665H28.4987C29.0454 29.6665 29.4987 30.1198 29.4987 30.6665Z" fill="#949494"/>
<path d="M40.1667 36C40.1667 36.5467 39.7133 37 39.1667 37H31.5L33.5 35H39.1667C39.7133 35 40.1667 35.4533 40.1667 36Z" fill="#949494"/>
<path d="M37.8346 36V41.3333C37.8346 43.5467 36.048 45.3333 33.8346 45.3333H31.168C28.9546 45.3333 27.168 43.5467 27.168 41.3333L32.5013 36H37.8346Z" fill="#949494"/>
<path opacity="0.4" d="M44.5 29.3334V36.0001C44.5 38.6668 43.1667 40.0001 40.5 40.0001H37.8333V36.0001H32.5L42.7267 25.7734C43.9133 26.3734 44.5 27.5601 44.5 29.3334Z" fill="#949494"/>
</svg>
