<svg width="16" height="16" viewBox="0 0 16 16" fill="none" xmlns="http://www.w3.org/2000/svg">
<mask id="path-1-inside-1_13358_114592" fill="white">
<path d="M4.036 2.48948L10.647 5.32248L8 6.45648L1.427 3.63948C1.575 3.48848 1.756 3.36648 1.962 3.28748L4.036 2.48948ZM5.374 1.97548L6.924 1.37948C7.61695 1.11309 8.38405 1.11309 9.077 1.37948L14.039 3.28748C14.244 3.36748 14.425 3.48748 14.573 3.63948L11.917 4.77748L5.374 1.97548ZM14.994 4.54748L8.5 7.33048V14.7805C8.69667 14.7471 8.889 14.6945 9.077 14.6225L14.039 12.7135C14.3219 12.6046 14.5651 12.4125 14.7367 12.1626C14.9082 11.9126 15 11.6166 15 11.3135V4.68748C15 4.64082 14.9977 4.59415 14.993 4.54748M7.5 14.7805V7.33048L1.007 4.54748C1.00303 4.59405 1.0007 4.64075 1 4.68748V11.3135C1.00004 11.6167 1.09199 11.9128 1.26373 12.1628C1.43547 12.4127 1.67893 12.6047 1.962 12.7135L6.923 14.6225C7.111 14.6945 7.30333 14.7471 7.5 14.7805Z"/>
</mask>
<path d="M4.036 2.48948L10.647 5.32248L8 6.45648L1.427 3.63948C1.575 3.48848 1.756 3.36648 1.962 3.28748L4.036 2.48948ZM5.374 1.97548L6.924 1.37948C7.61695 1.11309 8.38405 1.11309 9.077 1.37948L14.039 3.28748C14.244 3.36748 14.425 3.48748 14.573 3.63948L11.917 4.77748L5.374 1.97548ZM14.994 4.54748L8.5 7.33048V14.7805C8.69667 14.7471 8.889 14.6945 9.077 14.6225L14.039 12.7135C14.3219 12.6046 14.5651 12.4125 14.7367 12.1626C14.9082 11.9126 15 11.6166 15 11.3135V4.68748C15 4.64082 14.9977 4.59415 14.993 4.54748M7.5 14.7805V7.33048L1.007 4.54748C1.00303 4.59405 1.0007 4.64075 1 4.68748V11.3135C1.00004 11.6167 1.09199 11.9128 1.26373 12.1628C1.43547 12.4127 1.67893 12.6047 1.962 12.7135L6.923 14.6225C7.111 14.6945 7.30333 14.7471 7.5 14.7805Z" fill="url(#paint0_linear_13358_114592)"/>
<path d="M4.036 2.48948L4.42989 1.57032L4.05627 1.41022L3.6769 1.55618L4.036 2.48948ZM10.647 5.32248L11.0408 6.24168L13.1861 5.32261L11.0409 4.40332L10.647 5.32248ZM8 6.45648L7.60608 7.37563L7.99993 7.54442L8.39379 7.37568L8 6.45648ZM1.427 3.63948L0.712835 2.93951L-0.309964 3.98304L1.03308 4.55863L1.427 3.63948ZM1.962 3.28748L2.32007 4.22118L2.3211 4.22078L1.962 3.28748ZM5.374 1.97548L5.0151 1.04211L2.71735 1.92563L4.98034 2.89474L5.374 1.97548ZM6.924 1.37948L6.56517 0.446081L6.5651 0.446106L6.924 1.37948ZM9.077 1.37948L9.4359 0.446108L9.43583 0.446081L9.077 1.37948ZM14.039 3.28748L14.4025 2.35589L14.3979 2.35411L14.039 3.28748ZM14.573 3.63948L14.9668 4.55866L16.3053 3.98517L15.2895 2.94187L14.573 3.63948ZM11.917 4.77748L11.5233 5.69674L11.9171 5.86536L12.3108 5.69666L11.917 4.77748ZM8.5 7.33048L8.1061 6.41133L7.5 6.67107V7.33048H8.5ZM8.5 14.7805H7.5V15.9642L8.66711 15.7664L8.5 14.7805ZM9.077 14.6225L9.43465 15.5563L9.43607 15.5558L9.077 14.6225ZM14.039 12.7135L14.3981 13.6468L14.3983 13.6467L14.039 12.7135ZM15 11.3135L14 11.3135L14 11.3136L15 11.3135ZM7.5 14.7805L7.33289 15.7664L8.5 15.9642V14.7805H7.5ZM7.5 7.33048H8.5V6.67111L7.89395 6.41135L7.5 7.33048ZM1.007 4.54748L1.40095 3.62835L0.128186 3.08282L0.0106111 4.46258L1.007 4.54748ZM1 4.68748L0.000111115 4.67258L0 4.68003V4.68748H1ZM1 11.3135L-8.76156e-09 11.3135L8.76156e-09 11.3136L1 11.3135ZM1.962 12.7135L2.32113 11.7802L2.32067 11.78L1.962 12.7135ZM6.923 14.6225L6.56387 15.5558L6.56535 15.5563L6.923 14.6225ZM3.64211 3.40864L10.2531 6.24164L11.0409 4.40332L4.42989 1.57032L3.64211 3.40864ZM10.2532 4.40328L7.60621 5.53728L8.39379 7.37568L11.0408 6.24168L10.2532 4.40328ZM8.39392 5.53734L1.82092 2.72034L1.03308 4.55863L7.60608 7.37563L8.39392 5.53734ZM2.14117 4.33946C2.19244 4.28714 2.25317 4.24683 2.32007 4.22118L1.60393 2.35379C1.25883 2.48613 0.957557 2.68982 0.712835 2.93951L2.14117 4.33946ZM2.3211 4.22078L4.3951 3.42278L3.6769 1.55618L1.6029 2.35418L2.3211 4.22078ZM5.7329 2.90886L7.2829 2.31286L6.5651 0.446106L5.0151 1.04211L5.7329 2.90886ZM7.28283 2.31288C7.7448 2.13529 8.2562 2.13529 8.71817 2.31288L9.43583 0.446081C8.51191 0.0908897 7.48909 0.0908897 6.56517 0.446081L7.28283 2.31288ZM8.7181 2.31286L13.6801 4.22086L14.3979 2.35411L9.4359 0.446108L8.7181 2.31286ZM13.6755 4.21906C13.7499 4.24812 13.81 4.28926 13.8565 4.3371L15.2895 2.94187C15.04 2.6857 14.7381 2.48684 14.4025 2.3559L13.6755 4.21906ZM14.1792 2.7203L11.5232 3.8583L12.3108 5.69666L14.9668 4.55866L14.1792 2.7203ZM12.3107 3.85823L5.76767 1.05623L4.98034 2.89474L11.5233 5.69674L12.3107 3.85823ZM14.6001 3.62833L8.1061 6.41133L8.8939 8.24963L15.3879 5.46663L14.6001 3.62833ZM7.5 7.33048V14.7805H9.5V7.33048H7.5ZM8.66711 15.7664C8.92945 15.722 9.18558 15.6517 9.43465 15.5563L8.71935 13.6886C8.59242 13.7372 8.46388 13.7723 8.33289 13.7945L8.66711 15.7664ZM9.43607 15.5558L14.3981 13.6468L13.6799 11.7802L8.71793 13.6892L9.43607 15.5558ZM14.3983 13.6467C14.8698 13.4652 15.2752 13.145 15.5611 12.7285L13.9122 11.5966C13.855 11.6799 13.774 11.744 13.6797 11.7803L14.3983 13.6467ZM15.5611 12.7285C15.8471 12.312 16.0001 11.8186 16 11.3134L14 11.3136C14 11.4147 13.9694 11.5133 13.9122 11.5966L15.5611 12.7285ZM16 11.3135V4.68748H14V11.3135H16ZM16 4.68748C16 4.60742 15.996 4.52755 15.988 4.44798L13.998 4.64699C13.9993 4.66075 14 4.67421 14 4.68748H16ZM8.5 14.7805V7.33048H6.5V14.7805H8.5ZM7.89395 6.41135L1.40095 3.62835L0.613047 5.46661L7.10605 8.24961L7.89395 6.41135ZM0.0106111 4.46258C0.00465832 4.53243 0.00115622 4.60247 0.000111115 4.67258L1.99989 4.70239C2.00024 4.67902 2.0014 4.65567 2.00339 4.63239L0.0106111 4.46258ZM0 4.68748V11.3135H2V4.68748H0ZM8.76156e-09 11.3136C6.69129e-05 11.819 0.153321 12.3126 0.439552 12.7291L2.08791 11.5964C2.03066 11.5131 2.00001 11.4144 2 11.3134L8.76156e-09 11.3136ZM0.439552 12.7291C0.725783 13.1457 1.13155 13.4657 1.60333 13.6469L2.32067 11.78C2.22631 11.7438 2.14516 11.6798 2.08791 11.5964L0.439552 12.7291ZM1.60287 13.6468L6.56387 15.5558L7.28213 13.6892L2.32113 11.7802L1.60287 13.6468ZM6.56535 15.5563C6.81442 15.6517 7.07055 15.722 7.33289 15.7664L7.66711 13.7945C7.53612 13.7723 7.40758 13.7372 7.28065 13.6886L6.56535 15.5563Z" fill="url(#paint1_linear_13358_114592)" mask="url(#path-1-inside-1_13358_114592)"/>
<defs>
<linearGradient id="paint0_linear_13358_114592" x1="6.87786" y1="-7.23888" x2="31.3925" y2="18.2621" gradientUnits="userSpaceOnUse">
<stop stop-color="#005B41"/>
<stop offset="1" stop-color="#008170"/>
<stop offset="1" stop-color="#008170"/>
</linearGradient>
<linearGradient id="paint1_linear_13358_114592" x1="6.87786" y1="-7.23888" x2="31.3925" y2="18.2621" gradientUnits="userSpaceOnUse">
<stop stop-color="#005B41"/>
<stop offset="1" stop-color="#008170"/>
<stop offset="1" stop-color="#008170"/>
</linearGradient>
</defs>
</svg>
