<svg width="24" height="24" viewBox="0 0 24 24" fill="none" xmlns="http://www.w3.org/2000/svg">
<path d="M10.3845 2.06695C11.4244 1.66697 12.5756 1.66697 13.6155 2.06695L21.0585 4.92895C21.4828 5.09234 21.8477 5.38045 22.105 5.75533C22.3623 6.13021 22.5001 6.57425 22.5 7.02895V16.9679C22.5001 17.4226 22.3623 17.8667 22.105 18.2416C21.8477 18.6164 21.4828 18.9046 21.0585 19.0679L13.6155 21.9314C12.5756 22.3314 11.4244 22.3314 10.3845 21.9314L2.943 19.0679C2.51839 18.9048 2.1532 18.6168 1.8956 18.2419C1.63799 17.867 1.50006 17.4228 1.5 16.9679V7.02895C1.50006 6.57408 1.63799 6.1299 1.8956 5.75501C2.1532 5.38011 2.51839 5.0921 2.943 4.92895L10.3845 2.06695ZM13.077 3.46645C12.3838 3.1998 11.6162 3.1998 10.923 3.46645L8.847 4.26595L17.232 7.43995L20.154 6.18895L13.077 3.46645ZM21 7.45645L12.75 10.9949V20.6369C12.86 20.6089 12.969 20.5739 13.077 20.5319L20.52 17.6699C20.6614 17.6154 20.783 17.5192 20.8687 17.3942C20.9544 17.2691 21.0002 17.121 21 16.9694V7.45645ZM11.25 20.6354V10.9949L3 7.45795V16.9679C2.99984 17.1195 3.04562 17.2676 3.13131 17.3927C3.217 17.5177 3.33857 17.6139 3.48 17.6684L10.923 20.5304C11.03 20.5724 11.139 20.6074 11.25 20.6354ZM3.846 6.18895L12 9.68395L15.246 8.29195L6.7455 5.07295L3.846 6.18895Z" fill="black"/>
</svg>
