<svg width="65" height="64" viewBox="0 0 65 64" fill="none" xmlns="http://www.w3.org/2000/svg">
<rect x="0.5" width="64" height="64" rx="32" fill="#F1FFF4"/>
<path d="M37.8346 36V41.3333C37.8346 43.5467 36.048 45.3333 33.8346 45.3333H31.168C28.9546 45.3333 27.168 43.5467 27.168 41.3333V36H37.8346Z" fill="#0C9787"/>
<path d="M25.832 25.3332V22.6665C25.832 20.4532 27.6187 18.6665 29.832 18.6665H35.1654C37.3787 18.6665 39.1654 20.4532 39.1654 22.6665V25.3332H25.832Z" fill="#0C9787"/>
<path opacity="0.4" d="M40.5 25.3335H24.5C21.8333 25.3335 20.5 26.6668 20.5 29.3335V36.0002C20.5 38.6668 21.8333 40.0002 24.5 40.0002H27.1667V36.0002H37.8333V40.0002H40.5C43.1667 40.0002 44.5 38.6668 44.5 36.0002V29.3335C44.5 26.6668 43.1667 25.3335 40.5 25.3335ZM29.8333 31.6668H25.8333C25.2867 31.6668 24.8333 31.2135 24.8333 30.6668C24.8333 30.1202 25.2867 29.6668 25.8333 29.6668H29.8333C30.38 29.6668 30.8333 30.1202 30.8333 30.6668C30.8333 31.2135 30.38 31.6668 29.8333 31.6668Z" fill="#0C9787"/>
<path d="M30.832 30.6665C30.832 31.2132 30.3787 31.6665 29.832 31.6665H25.832C25.2854 31.6665 24.832 31.2132 24.832 30.6665C24.832 30.1198 25.2854 29.6665 25.832 29.6665H29.832C30.3787 29.6665 30.832 30.1198 30.832 30.6665Z" fill="#0C9787"/>
<path d="M39.1654 37H25.832C25.2854 37 24.832 36.5467 24.832 36C24.832 35.4533 25.2854 35 25.832 35H39.1654C39.712 35 40.1654 35.4533 40.1654 36C40.1654 36.5467 39.712 37 39.1654 37Z" fill="#0C9787"/>
<path d="M47 46.75C50.4518 46.75 53.25 43.9518 53.25 40.5C53.25 37.0482 50.4518 34.25 47 34.25C43.5482 34.25 40.75 37.0482 40.75 40.5C40.75 43.9518 43.5482 46.75 47 46.75Z" fill="#A5E5B3"/>
<path d="M49.6324 38.7027L49.6323 38.7027L49.6324 38.7027ZM44.3199 40.5223L44.0109 40.8312L44.3199 40.5223Z" stroke="#0BAE54"/>
</svg>
