<svg width="49" height="18" viewBox="0 0 49 18" fill="none" xmlns="http://www.w3.org/2000/svg">
<g clip-path="url(#clip0_7383_61392)">
<path d="M47.0026 11.0323V9.4831V6.3871H42.3574H39.2614V4.83794H47.0026V1.74194H39.2614H34.6163V4.83794V6.3871V9.4831H39.2614H42.3574V11.0323H34.6163V14.1283H42.3574H47.0026V11.0323ZM48.2266 10.0637V15.0968C48.2266 15.199 48.1848 15.2988 48.1128 15.3708C48.0408 15.4428 47.9409 15.4846 47.8387 15.4846H42.8057V16.2581H48.6122C48.7143 16.2581 48.8142 16.2163 48.8862 16.1443C48.9582 16.0723 49 15.9724 49 15.8702V10.0637H48.2266ZM6.42015 0H0.613701C0.511508 0 0.411637 0.0418065 0.339637 0.113806C0.267637 0.185806 0.22583 0.285677 0.22583 0.387871V6.19432H0.999249V1.16129C0.999249 1.0591 1.04106 0.959226 1.11306 0.887226C1.18506 0.815226 1.28493 0.773419 1.38712 0.773419H6.42015V0ZM11.3905 18H14.4865V11.0323H11.3905V18ZM14.1009 1.74194H6.74531V4.83794H11.3905V9.4831H14.4865V2.12748C14.4865 2.02529 14.4447 1.92542 14.3727 1.85342C14.3007 1.78142 14.2008 1.73961 14.0986 1.73961L14.1009 1.74194ZM5.19848 1.74194H2.48802C2.38583 1.74194 2.28596 1.78374 2.21396 1.85574C2.14196 1.92774 2.10015 2.02761 2.10015 2.12981V13.7427C2.10015 13.8449 2.14196 13.9448 2.21396 14.0168C2.28596 14.0888 2.38583 14.1306 2.48802 14.1306H9.84364V11.0346H5.19848V1.74426V1.74194ZM6.74764 9.4831H9.84364V6.3871H6.74764V9.4831ZM7.52106 7.16052H9.07022V8.70968H7.52106V7.16052ZM16.038 1.74194V4.83794H25.3283V6.3871H19.134H16.038V9.4831V14.1283H19.134V9.52955L23.7791 14.1283H28.4243L23.5771 9.4831H25.326H28.422V6.3871V4.83794V1.74194H25.326H16.0356H16.038ZM29.9734 14.1283H33.0694V1.74194H29.9734V14.1283Z" fill="black"/>
</g>
<defs>
<clipPath id="clip0_7383_61392">
<rect width="48.7742" height="18" fill="white" transform="translate(0.22583)"/>
</clipPath>
</defs>
</svg>
