<svg width="16" height="16" viewBox="0 0 16 16" fill="none" xmlns="http://www.w3.org/2000/svg">
<g id="octicon:question-16">
<g clip-path="url(#clip0_12736_358212)">
<rect width="16" height="16" rx="8" fill="#2AA8FB"/>
<path id="Vector" fill-rule="evenodd" clip-rule="evenodd" d="M6.48759 6.46135C6.67625 6.39834 6.83115 6.26296 6.92 6.085C6.99598 5.9245 7.11334 5.78712 7.26 5.687C7.405 5.59 7.631 5.5 8 5.5C8.26338 5.49665 8.52129 5.57528 8.738 5.725C8.82228 5.78343 8.89047 5.86217 8.93627 5.95393C8.98206 6.04569 9.00398 6.14752 9 6.25C9 6.427 8.96 6.514 8.923 6.568C8.8467 6.66618 8.75276 6.74926 8.646 6.813C8.5819 6.85601 8.51354 6.8976 8.43371 6.94617C8.41888 6.95519 8.40366 6.96445 8.388 6.974L8.381 6.978C8.275 7.04133 8.17067 7.10633 8.068 7.173C7.796 7.345 7.56 7.57 7.376 7.834C7.26827 7.99951 7.23016 8.20083 7.26996 8.39427C7.30975 8.5877 7.42423 8.75763 7.58855 8.86718C7.75287 8.97672 7.95376 9.01704 8.14762 8.97937C8.34148 8.94171 8.51266 8.8291 8.624 8.666C8.7 8.56792 8.7936 8.48484 8.9 8.421C8.9853 8.36547 9.07199 8.31212 9.16 8.261L9.166 8.257C9.1858 8.24487 9.20641 8.23233 9.22764 8.21941C9.30616 8.17163 9.3932 8.11867 9.479 8.062C9.701 7.913 9.966 7.707 10.171 7.4C10.385 7.08 10.5 6.698 10.5 6.25C10.5 5.49 10.14 4.902 9.637 4.525C9.16114 4.18019 8.58764 3.99626 8 4C7.369 4 6.845 4.16 6.428 4.438C6.015 4.714 5.748 5.076 5.579 5.415C5.49015 5.59296 5.47564 5.79893 5.53865 5.98759C5.60166 6.17625 5.73704 6.33215 5.915 6.421C6.09296 6.50985 6.29893 6.52436 6.48759 6.46135ZM8.70711 11.7071C8.89464 11.5196 9 11.2652 9 11C9 10.7348 8.89464 10.4804 8.70711 10.2929C8.51957 10.1054 8.26522 10 8 10C7.73478 10 7.48043 10.1054 7.29289 10.2929C7.10536 10.4804 7 10.7348 7 11C7 11.2652 7.10536 11.5196 7.29289 11.7071C7.48043 11.8946 7.73478 12 8 12C8.26522 12 8.51957 11.8946 8.70711 11.7071Z" fill="white"/>
</g>
</g>
<defs>
<clipPath id="clip0_12736_358212">
<rect width="16" height="16" rx="8" fill="white"/>
</clipPath>
</defs>
</svg>
