<svg width="24" height="24" viewBox="0 0 24 24" fill="none" xmlns="http://www.w3.org/2000/svg">
<path d="M21.9688 18V19C21.9688 20.65 21.9688 22 18.9688 22H4.96875C1.96875 22 1.96875 20.65 1.96875 19V18C1.96875 17.45 2.41875 17 2.96875 17H20.9688C21.5187 17 21.9688 17.45 21.9688 18Z" fill="white"/>
<path opacity="0.4" d="M20.7234 13V17H3.27344V13C3.27344 9.16 5.98344 5.95 9.59344 5.18C10.1334 5.06 10.6934 5 11.2734 5H12.7234C13.3034 5 13.8734 5.06 14.4134 5.18C18.0234 5.96 20.7234 9.16 20.7234 13Z" fill="white"/>
<path d="M14.5 4.5C14.5 4.74 14.47 4.96 14.41 5.18C13.87 5.06 13.3 5 12.72 5H11.27C10.69 5 10.13 5.06 9.59 5.18C9.53 4.96 9.5 4.74 9.5 4.5C9.5 3.12 10.62 2 12 2C13.38 2 14.5 3.12 14.5 4.5Z" fill="white"/>
<path d="M15 11.75H9C8.59 11.75 8.25 11.41 8.25 11C8.25 10.59 8.59 10.25 9 10.25H15C15.41 10.25 15.75 10.59 15.75 11C15.75 11.41 15.41 11.75 15 11.75Z" fill="white"/>
</svg>
