<svg width="64" height="64" viewBox="0 0 64 64" fill="none" xmlns="http://www.w3.org/2000/svg">
<rect x="0.5" y="0.5" width="63" height="63" rx="31.5" fill="#F2FFDC"/>
<rect x="0.5" y="0.5" width="63" height="63" rx="31.5" stroke="#FBFDF6"/>
<path opacity="0.4" d="M30.3333 19.2668C31.2533 18.4801 32.76 18.4801 33.6933 19.2668L35.8 21.0801C36.2 21.4268 36.9467 21.7068 37.48 21.7068H39.7467C41.16 21.7068 42.32 22.8668 42.32 24.2801V26.5468C42.32 27.0668 42.6 27.8268 42.9467 28.2268L44.76 30.3334C45.5467 31.2534 45.5467 32.7601 44.76 33.6934L42.9467 35.8001C42.6 36.2001 42.32 36.9468 42.32 37.4801V39.7468C42.32 41.1601 41.16 42.3201 39.7467 42.3201H37.48C36.96 42.3201 36.2 42.6001 35.8 42.9468L33.6933 44.7601C32.7733 45.5468 31.2667 45.5468 30.3333 44.7601L28.2267 42.9468C27.8267 42.6001 27.08 42.3201 26.5467 42.3201H24.24C22.8267 42.3201 21.6667 41.1601 21.6667 39.7468V37.4668C21.6667 36.9468 21.3867 36.2001 21.0533 35.8001L19.2533 33.6801C18.48 32.7601 18.48 31.2668 19.2533 30.3468L21.0533 28.2268C21.3867 27.8268 21.6667 27.0801 21.6667 26.5601V24.2668C21.6667 22.8534 22.8267 21.6934 24.24 21.6934H26.5467C27.0667 21.6934 27.8267 21.4134 28.2267 21.0668L30.3333 19.2668Z" fill="#588118"/>
<path d="M30.3867 36.2267C30.12 36.2267 29.8667 36.12 29.68 35.9334L26.4533 32.7067C26.0667 32.32 26.0667 31.68 26.4533 31.2934C26.84 30.9067 27.48 30.9067 27.8667 31.2934L30.3867 33.8134L36.12 28.08C36.5067 27.6934 37.1467 27.6934 37.5333 28.08C37.92 28.4667 37.92 29.1067 37.5333 29.4934L31.0933 35.9334C30.9067 36.12 30.6533 36.2267 30.3867 36.2267Z" fill="#588118"/>
</svg>
