<svg width="18" height="18" viewBox="0 0 18 18" fill="none" xmlns="http://www.w3.org/2000/svg">
<path d="M14.2266 16.5H3.72656C1.47656 16.5 1.47656 15.4875 1.47656 14.25V13.5C1.47656 13.0875 1.81406 12.75 2.22656 12.75H15.7266C16.1391 12.75 16.4766 13.0875 16.4766 13.5V14.25C16.4766 15.4875 16.4766 16.5 14.2266 16.5Z" stroke="#949494" stroke-width="1.5" stroke-linecap="round" stroke-linejoin="round"/>
<path d="M15.5406 9.75V12.75H2.45312V9.75C2.45312 6.87 4.48563 4.4625 7.19313 3.885C7.59813 3.795 8.01813 3.75 8.45312 3.75H9.54063C9.97563 3.75 10.4031 3.795 10.8081 3.885C13.5156 4.47 15.5406 6.87 15.5406 9.75Z" stroke="#949494" stroke-width="1.5" stroke-linecap="round" stroke-linejoin="round"/>
<path opacity="0.34" d="M10.875 3.375C10.875 3.555 10.8525 3.72 10.8075 3.885C10.4025 3.795 9.975 3.75 9.54 3.75H8.4525C8.0175 3.75 7.5975 3.795 7.1925 3.885C7.1475 3.72 7.125 3.555 7.125 3.375C7.125 2.34 7.965 1.5 9 1.5C10.035 1.5 10.875 2.34 10.875 3.375Z" stroke="#949494" stroke-width="1.5" stroke-linecap="round" stroke-linejoin="round"/>
<path opacity="0.34" d="M11.25 8.25H6.75" stroke="#949494" stroke-width="1.5" stroke-linecap="round" stroke-linejoin="round"/>
</svg>
