<svg width="16" height="16" viewBox="0 0 16 16" fill="none" xmlns="http://www.w3.org/2000/svg">
<g id="vuesax/bulk/reserve">
<g id="reserve">
<path id="Vector" d="M14.1458 11.9987V12.6654C14.1458 12.9483 14.145 13.1765 14.1188 13.3771C14.0932 13.5733 14.0474 13.7024 13.9842 13.794C13.8783 13.9476 13.5977 14.1654 12.6458 14.1654H3.3125C2.36063 14.1654 2.08003 13.9476 1.97411 13.794C1.91093 13.7024 1.86517 13.5733 1.83953 13.3771C1.8133 13.1765 1.8125 12.9483 1.8125 12.6654V11.9987C1.8125 11.9082 1.88864 11.832 1.97917 11.832H13.9792C14.0697 11.832 14.1458 11.9082 14.1458 11.9987Z" fill="#FF7201" stroke="#FF7201"/>
<path id="Vector_2" opacity="0.4" d="M13.313 8.66536V10.832H2.67969V8.66536C2.67969 6.34618 4.31661 4.40617 6.49732 3.94103L6.49733 3.94105L6.50149 3.94012C6.82419 3.86841 7.16107 3.83203 7.51302 3.83203H8.47969C8.83228 3.83203 9.17578 3.86854 9.49789 3.94012L9.49789 3.94013L9.50076 3.94075C11.6826 4.41219 13.313 6.34626 13.313 8.66536Z" fill="#FF7201" stroke="#FF7201"/>
<path id="Vector_3" d="M9.66927 2.9987C9.66927 3.1587 9.64927 3.30536 9.60927 3.45203C9.24927 3.37203 8.86927 3.33203 8.4826 3.33203H7.51594C7.12927 3.33203 6.75594 3.37203 6.39594 3.45203C6.35594 3.30536 6.33594 3.1587 6.33594 2.9987C6.33594 2.0787 7.0826 1.33203 8.0026 1.33203C8.9226 1.33203 9.66927 2.0787 9.66927 2.9987Z" fill="#FF7201"/>
<g id="Vector_4">
<mask id="path-4-inside-1_1093_26674" fill="white">
<path d="M10 7.83203H6C5.72667 7.83203 5.5 7.60536 5.5 7.33203C5.5 7.0587 5.72667 6.83203 6 6.83203H10C10.2733 6.83203 10.5 7.0587 10.5 7.33203C10.5 7.60536 10.2733 7.83203 10 7.83203Z"/>
</mask>
<path d="M10 7.83203H6C5.72667 7.83203 5.5 7.60536 5.5 7.33203C5.5 7.0587 5.72667 6.83203 6 6.83203H10C10.2733 6.83203 10.5 7.0587 10.5 7.33203C10.5 7.60536 10.2733 7.83203 10 7.83203Z" fill="#FF7201"/>
<path d="M10 6.83203H6V8.83203H10V6.83203ZM6 6.83203C6.27895 6.83203 6.5 7.05308 6.5 7.33203H4.5C4.5 8.15765 5.17438 8.83203 6 8.83203V6.83203ZM6.5 7.33203C6.5 7.61098 6.27895 7.83203 6 7.83203V5.83203C5.17438 5.83203 4.5 6.50641 4.5 7.33203H6.5ZM6 7.83203H10V5.83203H6V7.83203ZM10 7.83203C9.72105 7.83203 9.5 7.61098 9.5 7.33203H11.5C11.5 6.50641 10.8256 5.83203 10 5.83203V7.83203ZM9.5 7.33203C9.5 7.05308 9.72105 6.83203 10 6.83203V8.83203C10.8256 8.83203 11.5 8.15765 11.5 7.33203H9.5Z" fill="#FF7201" mask="url(#path-4-inside-1_1093_26674)"/>
</g>
</g>
</g>
</svg>
