<svg width="14" height="14" viewBox="0 0 14 14" fill="none" xmlns="http://www.w3.org/2000/svg">
<path d="M5.24984 12.8333H8.74984C11.6665 12.8333 12.8332 11.6666 12.8332 8.74996V5.24996C12.8332 2.33329 11.6665 1.16663 8.74984 1.16663H5.24984C2.33317 1.16663 1.1665 2.33329 1.1665 5.24996V8.74996C1.1665 11.6666 2.33317 12.8333 5.24984 12.8333Z" stroke="#110D17" stroke-width="0.5" stroke-linecap="round" stroke-linejoin="round"/>
<path opacity="0.4" d="M10.2082 6.99996C10.2082 8.77329 8.77317 10.2083 6.99984 10.2083C5.2265 10.2083 4.14733 8.42329 4.14733 8.42329M4.14733 8.42329H5.594M4.14733 8.42329V10.0275M3.7915 6.99996C3.7915 5.22663 5.21484 3.79163 6.99984 3.79163C9.14067 3.79163 10.2082 5.57662 10.2082 5.57662M10.2082 5.57662V3.97246M10.2082 5.57662H8.78484" stroke="#110D17" stroke-width="0.5" stroke-linecap="round" stroke-linejoin="round"/>
</svg>
