<svg width="24" height="24" viewBox="0 0 24 24" fill="none" xmlns="http://www.w3.org/2000/svg">
<path opacity="0.4" d="M2.07006 4.6C2.87006 1.14 8.08006 1.14 8.87006 4.6C9.34006 6.63 8.05006 8.35 6.93006 9.42C6.11006 10.2 4.82006 10.19 4.00006 9.42C2.89006 8.35 1.60006 6.63 2.07006 4.6Z" stroke="url(#paint0_linear_8156_8417)" stroke-width="1.5"/>
<path opacity="0.4" d="M15.07 16.6C15.87 13.14 21.11 13.14 21.91 16.6C22.38 18.63 21.09 20.35 19.96 21.42C19.14 22.2 17.84 22.19 17.02 21.42C15.89 20.35 14.6 18.63 15.07 16.6Z" stroke="url(#paint1_linear_8156_8417)" stroke-width="1.5"/>
<path d="M12.0002 5H14.6802C16.5302 5 17.3902 7.29 16.0002 8.51L8.01019 15.5C6.62019 16.71 7.48019 19 9.32019 19H12.0002" stroke="url(#paint2_linear_8156_8417)" stroke-width="1.5" stroke-linecap="round" stroke-linejoin="round"/>
<path d="M5.48622 5.5H5.49777" stroke="url(#paint3_linear_8156_8417)" stroke-width="2" stroke-linecap="round" stroke-linejoin="round"/>
<path d="M18.4862 17.5H18.4978" stroke="url(#paint4_linear_8156_8417)" stroke-width="2" stroke-linecap="round" stroke-linejoin="round"/>
<defs>
<linearGradient id="paint0_linear_8156_8417" x1="4.90908" y1="-2.94449" x2="19.2251" y2="9.71801" gradientUnits="userSpaceOnUse">
<stop stop-color="#005B41"/>
<stop offset="1" stop-color="#008170"/>
<stop offset="1" stop-color="#008170"/>
</linearGradient>
<linearGradient id="paint1_linear_8156_8417" x1="17.9258" y1="9.05551" x2="32.2516" y2="21.7989" gradientUnits="userSpaceOnUse">
<stop stop-color="#005B41"/>
<stop offset="1" stop-color="#008170"/>
<stop offset="1" stop-color="#008170"/>
</linearGradient>
<linearGradient id="paint2_linear_8156_8417" x1="11.2544" y1="-3.66566" x2="34.6882" y2="12.1747" gradientUnits="userSpaceOnUse">
<stop stop-color="#005B41"/>
<stop offset="1" stop-color="#008170"/>
<stop offset="1" stop-color="#008170"/>
</linearGradient>
<linearGradient id="paint3_linear_8156_8417" x1="5.38909" y1="4.38102" x2="7.13349" y2="6.64414" gradientUnits="userSpaceOnUse">
<stop stop-color="#005B41"/>
<stop offset="1" stop-color="#008170"/>
<stop offset="1" stop-color="#008170"/>
</linearGradient>
<linearGradient id="paint4_linear_8156_8417" x1="18.3891" y1="16.381" x2="20.1335" y2="18.6441" gradientUnits="userSpaceOnUse">
<stop stop-color="#005B41"/>
<stop offset="1" stop-color="#008170"/>
<stop offset="1" stop-color="#008170"/>
</linearGradient>
</defs>
</svg>
