<svg width="16" height="16" viewBox="0 0 16 16" fill="none" xmlns="http://www.w3.org/2000/svg">
<path opacity="0.4" d="M6.74537 12.9333L6.74572 12.9337L7.41735 13.8315C7.41761 13.8318 7.41787 13.8322 7.41813 13.8325C7.60773 14.0824 7.82114 14.1683 7.99536 14.1683C8.16959 14.1683 8.383 14.0824 8.5726 13.8325C8.57286 13.8322 8.57312 13.8318 8.57338 13.8315L9.24501 12.9337L9.24536 12.9333C9.56776 12.5034 10.0287 12.2509 10.5232 12.224C11.0177 12.1971 11.5035 12.398 11.8708 12.7919M6.74537 12.9333L11.8712 12.7924C11.871 12.7922 11.8709 12.7921 11.8708 12.7919M6.74537 12.9333C6.42297 12.5034 5.96201 12.2509 5.46755 12.224C4.97287 12.1971 4.48689 12.3982 4.11956 12.7924L4.48534 13.1332L4.12042 12.7915C3.85401 13.0759 3.62655 13.2356 3.45353 13.31C3.2853 13.3823 3.20029 13.363 3.16398 13.3474C3.12423 13.3302 3.04243 13.2739 2.96563 13.0853C2.88814 12.895 2.83203 12.6048 2.83203 12.1999V4.69325C2.83203 3.34229 3.00182 2.69332 3.32549 2.34734C3.63807 2.01323 4.2197 1.83325 5.4787 1.83325H10.5187C11.7779 1.83325 12.3591 2.01331 12.6708 2.34702C12.9934 2.69249 13.1621 3.34099 13.1587 4.69201V4.69325V12.2066C13.1587 12.61 13.103 12.8995 13.0258 13.0896C12.9493 13.2781 12.8679 13.334 12.8289 13.3509C12.7935 13.3661 12.7091 13.3858 12.5404 13.3131C12.3671 13.2383 12.1388 13.078 11.8708 12.7919M6.74537 12.9333L11.8708 12.7919" fill="#AF52DE" stroke="#AF52DE"/>
<mask id="path-2-inside-1_1231_132594" fill="white">
<path d="M10.6654 5.16675H5.33203C5.0587 5.16675 4.83203 4.94008 4.83203 4.66675C4.83203 4.39341 5.0587 4.16675 5.33203 4.16675H10.6654C10.9387 4.16675 11.1654 4.39341 11.1654 4.66675C11.1654 4.94008 10.9387 5.16675 10.6654 5.16675Z"/>
</mask>
<path d="M10.6654 5.16675H5.33203C5.0587 5.16675 4.83203 4.94008 4.83203 4.66675C4.83203 4.39341 5.0587 4.16675 5.33203 4.16675H10.6654C10.9387 4.16675 11.1654 4.39341 11.1654 4.66675C11.1654 4.94008 10.9387 5.16675 10.6654 5.16675Z" fill="#AF52DE"/>
<path d="M10.6654 4.16675H5.33203V6.16675H10.6654V4.16675ZM5.33203 4.16675C5.61098 4.16675 5.83203 4.3878 5.83203 4.66675H3.83203C3.83203 5.49237 4.50641 6.16675 5.33203 6.16675V4.16675ZM5.83203 4.66675C5.83203 4.9457 5.61098 5.16675 5.33203 5.16675V3.16675C4.50641 3.16675 3.83203 3.84113 3.83203 4.66675H5.83203ZM5.33203 5.16675H10.6654V3.16675H5.33203V5.16675ZM10.6654 5.16675C10.3864 5.16675 10.1654 4.9457 10.1654 4.66675H12.1654C12.1654 3.84113 11.491 3.16675 10.6654 3.16675V5.16675ZM10.1654 4.66675C10.1654 4.3878 10.3864 4.16675 10.6654 4.16675V6.16675C11.491 6.16675 12.1654 5.49237 12.1654 4.66675H10.1654Z" fill="#AF52DE" mask="url(#path-2-inside-1_1231_132594)"/>
<path d="M10 7.83325H6C5.72667 7.83325 5.5 7.60659 5.5 7.33325C5.5 7.05992 5.72667 6.83325 6 6.83325H10C10.2733 6.83325 10.5 7.05992 10.5 7.33325C10.5 7.60659 10.2733 7.83325 10 7.83325Z" fill="#AF52DE"/>
</svg>
