<svg width="16" height="16" viewBox="0 0 16 16" fill="none" xmlns="http://www.w3.org/2000/svg">
<path opacity="0.4" d="M7.30719 1.37322L3.64052 2.74656C2.94052 3.01322 2.36719 3.83989 2.36719 4.59322V9.99322C2.36719 10.5332 2.72052 11.2466 3.15385 11.5666L6.82052 14.3066C7.46719 14.7932 8.52719 14.7932 9.17385 14.3066L12.8405 11.5666C13.2739 11.2399 13.6272 10.5332 13.6272 9.99322V4.59322C13.6272 3.84656 13.0539 3.01322 12.3539 2.75322L8.68719 1.37989C8.31385 1.23322 7.68719 1.23322 7.30719 1.37322Z" fill="#0BAE54"/>
<path d="M7.10292 9.48658C6.97625 9.48658 6.84958 9.43992 6.74958 9.33992L5.67625 8.26658C5.48292 8.07325 5.48292 7.75325 5.67625 7.55992C5.86958 7.36658 6.18958 7.36658 6.38292 7.55992L7.10292 8.27992L9.61625 5.76658C9.80958 5.57325 10.1296 5.57325 10.3229 5.76658C10.5162 5.95992 10.5162 6.27992 10.3229 6.47325L7.45625 9.33992C7.35625 9.43992 7.22958 9.48658 7.10292 9.48658Z" fill="#0BAE54"/>
</svg>
