<svg width="14" height="14" viewBox="0 0 14 14" fill="none" xmlns="http://www.w3.org/2000/svg">
<path opacity="0.34" d="M7 8.75C7.9665 8.75 8.75 7.9665 8.75 7C8.75 6.0335 7.9665 5.25 7 5.25C6.0335 5.25 5.25 6.0335 5.25 7C5.25 7.9665 6.0335 8.75 7 8.75Z" stroke="#110D17" stroke-width="0.5" stroke-miterlimit="10" stroke-linecap="round" stroke-linejoin="round"/>
<path d="M1.1665 7.51338V6.48671C1.1665 5.88004 1.66234 5.37838 2.27484 5.37838C3.33067 5.37838 3.76234 4.63171 3.2315 3.71588C2.92817 3.19088 3.109 2.50838 3.63984 2.20504L4.649 1.62754C5.10984 1.35338 5.70484 1.51671 5.979 1.97754L6.04317 2.08838C6.56817 3.00421 7.4315 3.00421 7.96234 2.08838L8.0265 1.97754C8.30067 1.51671 8.89567 1.35338 9.3565 1.62754L10.3657 2.20504C10.8965 2.50838 11.0773 3.19088 10.774 3.71588C10.2432 4.63171 10.6748 5.37838 11.7307 5.37838C12.3373 5.37838 12.839 5.87421 12.839 6.48671V7.51338C12.839 8.12004 12.3432 8.62171 11.7307 8.62171C10.6748 8.62171 10.2432 9.36838 10.774 10.2842C11.0773 10.815 10.8965 11.4917 10.3657 11.795L9.3565 12.3725C8.89567 12.6467 8.30067 12.4834 8.0265 12.0225L7.96234 11.9117C7.43734 10.9959 6.574 10.9959 6.04317 11.9117L5.979 12.0225C5.70484 12.4834 5.10984 12.6467 4.649 12.3725L3.63984 11.795C3.109 11.4917 2.92817 10.8092 3.2315 10.2842C3.76234 9.36838 3.33067 8.62171 2.27484 8.62171C1.66234 8.62171 1.1665 8.12004 1.1665 7.51338Z" stroke="#110D17" stroke-width="0.5" stroke-miterlimit="10" stroke-linecap="round" stroke-linejoin="round"/>
</svg>
