<svg width="40" height="41" viewBox="0 0 40 41" fill="none" xmlns="http://www.w3.org/2000/svg">
<rect y="0.5" width="40" height="40" rx="20" fill="#DCF8F5"/>
<path opacity="0.4" d="M24.19 12.5H15.81C12.17 12.5 10 14.67 10 18.31V24.68C10 28.33 12.17 30.5 15.81 30.5H24.18C27.82 30.5 29.99 28.33 29.99 24.69V18.31C30 14.67 27.83 12.5 24.19 12.5Z" fill="#008172"/>
<path d="M29.3 20.73H25.82C24.84 20.73 23.97 21.27 23.53 22.15L22.69 23.81C22.49 24.21 22.09 24.46 21.65 24.46H18.37C18.06 24.46 17.62 24.39 17.33 23.81L16.49 22.16C16.05 21.29 15.17 20.74 14.2 20.74H10.7C10.31 20.74 10 21.05 10 21.44V24.7C10 28.33 12.18 30.5 15.82 30.5H24.2C27.63 30.5 29.74 28.62 30 25.28V21.43C30 21.05 29.69 20.73 29.3 20.73Z" fill="#008172"/>
<path d="M22.5275 14.97C22.2375 14.68 21.7575 14.68 21.4675 14.97L20.7475 15.69V10.5C20.7475 10.09 20.4075 9.75 19.9975 9.75C19.5875 9.75 19.2475 10.09 19.2475 10.5V15.69L18.5275 14.97C18.2375 14.68 17.7575 14.68 17.4675 14.97C17.1775 15.26 17.1775 15.74 17.4675 16.03L19.4675 18.03C19.4775 18.04 19.4875 18.04 19.4875 18.05C19.5475 18.11 19.6275 18.16 19.7075 18.2C19.8075 18.23 19.8975 18.25 19.9975 18.25C20.0975 18.25 20.1875 18.23 20.2775 18.19C20.3675 18.15 20.4475 18.1 20.5275 18.03L22.5275 16.03C22.8175 15.74 22.8175 15.26 22.5275 14.97Z" fill="#008172"/>
</svg>
