<svg width="21" height="20" viewBox="0 0 21 20" fill="none" xmlns="http://www.w3.org/2000/svg">
<g id="vuesax/twotone/share">
<g id="share">
<path id="Vector" opacity="0.34" d="M14.6328 5.14062C16.2995 6.29896 17.4495 8.14062 17.6828 10.2656" stroke="#008170" stroke-linecap="round" stroke-linejoin="round"/>
<path id="Vector_2" opacity="0.34" d="M3.4082 10.3086C3.62487 8.19193 4.7582 6.35026 6.4082 5.18359" stroke="#008170" stroke-linecap="round" stroke-linejoin="round"/>
<path id="Vector_3" opacity="0.34" d="M7.32422 17.4492C8.29089 17.9409 9.39089 18.2159 10.5492 18.2159C11.6659 18.2159 12.7159 17.9659 13.6576 17.5076" stroke="#008170" stroke-linecap="round" stroke-linejoin="round"/>
<path id="Vector_4" d="M10.5491 6.41849C11.8285 6.41849 12.8658 5.38128 12.8658 4.10182C12.8658 2.82236 11.8285 1.78516 10.5491 1.78516C9.26963 1.78516 8.23242 2.82236 8.23242 4.10182C8.23242 5.38128 9.26963 6.41849 10.5491 6.41849Z" stroke="#008170" stroke-linecap="round" stroke-linejoin="round"/>
<path id="Vector_5" d="M4.52565 16.5982C5.80511 16.5982 6.84232 15.561 6.84232 14.2815C6.84232 13.0021 5.80511 11.9648 4.52565 11.9648C3.24619 11.9648 2.20898 13.0021 2.20898 14.2815C2.20898 15.561 3.24619 16.5982 4.52565 16.5982Z" stroke="#008170" stroke-linecap="round" stroke-linejoin="round"/>
<path id="Vector_6" d="M16.4749 16.5982C17.7543 16.5982 18.7915 15.561 18.7915 14.2815C18.7915 13.0021 17.7543 11.9648 16.4749 11.9648C15.1954 11.9648 14.1582 13.0021 14.1582 14.2815C14.1582 15.561 15.1954 16.5982 16.4749 16.5982Z" stroke="#008170" stroke-linecap="round" stroke-linejoin="round"/>
</g>
</g>
</svg>
