<svg width="24" height="24" viewBox="0 0 24 24" fill="none" xmlns="http://www.w3.org/2000/svg">
<path d="M12 12C13.83 12 15.18 10.51 15 8.68L14.34 2H9.66999L8.99999 8.68C8.81999 10.51 10.17 12 12 12Z" stroke="url(#paint0_linear_8156_8397)" stroke-width="1.5" stroke-linecap="round" stroke-linejoin="round"/>
<path d="M18.3098 12C20.3298 12 21.8098 10.36 21.6098 8.35L21.3298 5.6C20.9698 3 19.9698 2 17.3498 2H14.2998L14.9998 9.01C15.1698 10.66 16.6598 12 18.3098 12Z" stroke="url(#paint1_linear_8156_8397)" stroke-width="1.5" stroke-linecap="round" stroke-linejoin="round"/>
<path d="M5.63988 12C7.28988 12 8.77988 10.66 8.93988 9.01L9.15988 6.8L9.63988 2H6.58988C3.96988 2 2.96988 3 2.60988 5.6L2.33988 8.35C2.13988 10.36 3.61988 12 5.63988 12Z" stroke="url(#paint2_linear_8156_8397)" stroke-width="1.5" stroke-linecap="round" stroke-linejoin="round"/>
<g opacity="0.4">
<path d="M3.00977 11.2197V15.7097C3.00977 20.1997 4.80977 21.9997 9.29977 21.9997H14.6898C19.1798 21.9997 20.9798 20.1997 20.9798 15.7097V11.2197" stroke="url(#paint3_linear_8156_8397)" stroke-width="1.5" stroke-linecap="round" stroke-linejoin="round"/>
<path d="M12 17C10.33 17 9.5 17.83 9.5 19.5V22H14.5V19.5C14.5 17.83 13.67 17 12 17Z" stroke="url(#paint4_linear_8156_8397)" stroke-width="1.5" stroke-linecap="round" stroke-linejoin="round"/>
</g>
<defs>
<linearGradient id="paint0_linear_8156_8397" x1="11.5165" y1="-4.18976" x2="27.5505" y2="5.58454" gradientUnits="userSpaceOnUse">
<stop stop-color="#005B41"/>
<stop offset="1" stop-color="#008170"/>
<stop offset="1" stop-color="#008170"/>
</linearGradient>
<linearGradient id="paint1_linear_8156_8397" x1="17.3765" y1="-4.18976" x2="34.6308" y2="8.58806" gradientUnits="userSpaceOnUse">
<stop stop-color="#005B41"/>
<stop offset="1" stop-color="#008170"/>
<stop offset="1" stop-color="#008170"/>
</linearGradient>
<linearGradient id="paint2_linear_8156_8397" x1="5.39426" y1="-4.18976" x2="22.6417" y2="8.56553" gradientUnits="userSpaceOnUse">
<stop stop-color="#005B41"/>
<stop offset="1" stop-color="#008170"/>
<stop offset="1" stop-color="#008170"/>
</linearGradient>
<linearGradient id="paint3_linear_8156_8397" x1="10.5544" y1="4.54717" x2="27.6252" y2="33.3046" gradientUnits="userSpaceOnUse">
<stop stop-color="#005B41"/>
<stop offset="1" stop-color="#008170"/>
<stop offset="1" stop-color="#008170"/>
</linearGradient>
<linearGradient id="paint4_linear_8156_8397" x1="11.5992" y1="13.9051" x2="20.618" y2="23.0192" gradientUnits="userSpaceOnUse">
<stop stop-color="#005B41"/>
<stop offset="1" stop-color="#008170"/>
<stop offset="1" stop-color="#008170"/>
</linearGradient>
</defs>
</svg>
