<svg width="241" height="227" viewBox="0 0 241 227" fill="none" xmlns="http://www.w3.org/2000/svg">
<path d="M120.5 226.441C186.774 226.441 240.5 195.421 240.5 157.156C240.5 118.891 186.774 87.8711 120.5 87.8711C54.2258 87.8711 0.5 118.891 0.5 157.156C0.5 195.421 54.2258 226.441 120.5 226.441Z" fill="#F5F5F5"/>
<path d="M199.621 191.128C218.423 191.128 233.664 182.328 233.664 171.472C233.664 160.617 218.423 151.816 199.621 151.816C180.82 151.816 165.578 160.617 165.578 171.472C165.578 182.328 180.82 191.128 199.621 191.128Z" fill="#E0E0E0"/>
<path d="M113.466 182.077L75.0625 159.897L118.959 134.555L157.368 156.73L113.466 182.077Z" fill="#E0E0E0"/>
<path d="M8.89453 175.215L58.4266 203.811L99.9719 179.831L50.4399 151.234L8.89453 175.215Z" fill="#E0E0E0"/>
<path d="M82.1325 40.8057V37.9905C82.1114 37.8278 82.0486 37.6733 81.9503 37.542C81.8521 37.4107 81.7216 37.3069 81.5715 37.2407L64.5729 27.4894C64.1678 27.2857 63.7207 27.1797 63.2673 27.1797C62.8139 27.1797 62.3667 27.2857 61.9616 27.4894L13.1079 55.5399C12.9578 55.606 12.8273 55.7098 12.729 55.8411C12.6308 55.9725 12.568 56.1269 12.5469 56.2896V59.1048C12.5675 59.2676 12.6301 59.4223 12.7284 59.5537C12.8268 59.6851 12.9575 59.7888 13.1079 59.8545L30.1014 69.5906C30.5065 69.7943 30.9536 69.9003 31.407 69.9003C31.8604 69.9003 32.3075 69.7943 32.7126 69.5906L81.5664 41.5401C81.7168 41.4744 81.8475 41.3707 81.9458 41.2393C82.0442 41.1079 82.1067 40.9532 82.1274 40.7904L82.1325 40.8057Z" fill="#F0F0F0"/>
<path d="M13.1096 57.024L30.1031 66.7754C30.5075 66.9814 30.9549 67.0887 31.4088 67.0887C31.8626 67.0887 32.31 66.9814 32.7144 66.7754L81.5681 38.7249C82.2873 38.3118 82.2873 37.6437 81.5681 37.2254L64.5746 27.4894C64.1695 27.2857 63.7224 27.1797 63.269 27.1797C62.8156 27.1797 62.3685 27.2857 61.9634 27.4894L13.1096 55.5399C12.3905 55.9428 12.3905 56.6109 13.1096 57.024Z" fill="#FAFAFA"/>
<path d="M31.407 67.0909V69.901C30.9527 69.9076 30.5039 69.8007 30.1014 69.5899L13.1079 59.864C12.9575 59.7983 12.8268 59.6946 12.7284 59.5632C12.6301 59.4318 12.5675 59.2771 12.5469 59.1143V56.294C12.5569 56.1799 12.5936 56.0699 12.654 55.9727C12.4551 56.3348 12.603 56.753 13.1079 57.0437L30.1014 66.7797C30.5028 66.9935 30.9523 67.1006 31.407 67.0909Z" fill="#E0E0E0"/>
<path d="M40.5352 43.3014L54.9327 51.5074L78.7144 37.8596L64.322 29.6484L40.5352 43.3014Z" fill="#E0E0E0"/>
<path d="M55.0969 50.8807L41.2093 42.9093C41.5702 41.7318 41.5434 40.4696 41.1328 39.3086L54.9337 47.1933C54.9337 47.1933 55.1989 48.0654 55.0969 50.8807Z" fill="white"/>
<path d="M54.2268 46.0942C54.6144 46.3446 54.9374 46.683 55.1696 47.0818C55.4018 47.4805 55.5366 47.9285 55.5631 48.3892V51.0718C55.5631 51.9185 54.9612 52.2602 54.2268 51.842L40.5586 43.9674V43.3044L54.0636 51.0055C54.5073 51.2606 54.8643 51.0514 54.8643 50.5465V48.0577C54.849 47.7813 54.7684 47.5124 54.6293 47.2731C54.4901 47.0337 54.2963 46.8307 54.0636 46.6807L40.5586 38.954V38.1992L54.2268 46.0942Z" fill="#EBEBEB"/>
<path d="M40.5586 38.2193L64.325 24.5664L78.0085 32.4205C78.3971 32.6712 78.7208 33.0103 78.953 33.4101C79.1853 33.8099 79.3195 34.259 79.3448 34.7207V37.4186C79.3629 37.5836 79.3359 37.7504 79.2668 37.9013C79.1976 38.0522 79.0889 38.1815 78.9521 38.2754L55.1704 51.9284C55.3046 51.8323 55.4112 51.7025 55.4792 51.552C55.5473 51.4016 55.5744 51.2359 55.558 51.0716V48.3838C55.5331 47.9227 55.399 47.4742 55.1667 47.0751C54.9344 46.6761 54.6105 46.338 54.2217 46.0888L40.5586 38.2193Z" fill="#FAFAFA"/>
<path d="M55.168 47.0658C55.4104 47.4594 55.5458 47.9094 55.5607 48.3714V51.0592C55.5772 51.2235 55.55 51.3892 55.4819 51.5396C55.4139 51.6901 55.3073 51.8199 55.1731 51.916L78.9548 38.2631C79.0916 38.1691 79.2003 38.0398 79.2695 37.8889C79.3386 37.738 79.3656 37.5712 79.3475 37.4062V34.7236C79.3326 34.2616 79.1972 33.8115 78.9548 33.418L55.168 47.0658Z" fill="#F0F0F0"/>
<path d="M25.8994 22.8789L25.7617 24.6945L41.8372 33.3188L42.1993 32.258L25.8994 22.8789Z" fill="#EBEBEB"/>
<path d="M41.9858 32.6817L26.4152 23.6953L23.707 25.2559L39.5836 34.5432L41.9858 32.6817Z" fill="white"/>
<path d="M36.6628 33.5781L35.1328 51.6222C35.1403 51.8259 35.1966 52.0249 35.2969 52.2024C35.3972 52.3798 35.5385 52.5307 35.7091 52.6423L44.7414 57.8698C44.8855 57.9495 45.0461 57.9949 45.2106 58.0025L39.6005 35.149C39.4369 35.14 39.277 35.0965 39.1313 35.0215L38.4836 34.644L36.6628 33.5781Z" fill="#E0E0E0"/>
<path d="M40.2717 35.002L41.8834 33.6199L43.0615 32.5999C43.1839 32.406 43.3267 32.2632 43.2502 32.0898L48.7889 54.775C48.8654 54.9331 48.8858 55.285 48.6665 55.4177L45.8767 57.8045C45.6656 57.9163 45.4258 57.9625 45.1882 57.9371L39.5781 35.0836C39.8124 35.124 40.0533 35.0957 40.2717 35.002Z" fill="#F0F0F0"/>
<path d="M43.0692 31.9402C43.3855 32.1238 43.3089 32.3278 43.0692 32.6032L40.2744 34.9951C40.0965 35.0881 39.8988 35.1366 39.6981 35.1366C39.4974 35.1366 39.2997 35.0881 39.1218 34.9951L36.6635 33.5773C36.3422 33.3937 36.2861 33.1285 36.536 32.9857C36.7003 32.9191 36.8775 32.8909 37.0543 32.9032C37.2311 32.9156 37.4027 32.9682 37.556 33.0571L39.4941 34.1791C39.5534 34.2091 39.6189 34.2248 39.6853 34.2248C39.7518 34.2248 39.8173 34.2091 39.8766 34.1791L41.9166 32.4043C42.0237 32.3431 42.0237 32.2462 41.9166 32.185L25.9023 22.8773L26.6674 22.4336L43.0692 31.9402Z" fill="#FAFAFA"/>
<path d="M21.2578 23.7539L36.5734 32.5975V61.7394L21.2578 52.8907V23.7539Z" fill="#EBEBEB"/>
<path d="M36.0796 33.0851L21.2587 24.5781C20.3523 25.5391 19.1652 26.1889 17.8672 26.4346L32.5656 34.9058C32.5656 34.9058 33.5143 34.6814 36.0796 33.0851Z" fill="white"/>
<path d="M31.143 34.8787C31.5847 35.1 32.0719 35.2152 32.5659 35.2152C33.0599 35.2152 33.5472 35.1 33.9889 34.8787L36.4777 33.4201C37.2631 32.9662 37.2631 32.2369 36.4777 31.783L21.8761 23.3984L21.259 23.7554L35.626 32.0533C35.7319 32.0842 35.825 32.1486 35.8912 32.2369C35.9574 32.3252 35.9932 32.4325 35.9932 32.5429C35.9932 32.6532 35.9574 32.7606 35.8912 32.8489C35.825 32.9372 35.7319 33.0016 35.626 33.0325L33.3054 34.3687C33.0404 34.5019 32.7478 34.5713 32.4512 34.5713C32.1545 34.5713 31.862 34.5019 31.5969 34.3687L17.2351 26.0658L16.5312 26.4687L31.143 34.8787Z" fill="#FAFAFA"/>
<path d="M16.5391 26.4688V55.6056L31.1457 63.9901C31.5874 64.2113 32.0746 64.3265 32.5686 64.3265C33.0627 64.3265 33.5499 64.2113 33.9916 63.9901L36.4906 62.557C36.6531 62.4853 36.7932 62.3713 36.8964 62.2268C36.9996 62.0823 37.062 61.9128 37.0771 61.7359V32.5991C37.0613 32.7765 36.9974 32.9462 36.8922 33.09C36.7871 33.2338 36.6447 33.3462 36.4804 33.4151L33.9916 34.8788C33.5499 35.1 33.0627 35.2152 32.5686 35.2152C32.0746 35.2152 31.5874 35.1 31.1457 34.8788L16.5391 26.4688Z" fill="#EBEBEB"/>
<path d="M32.5649 35.1885C33.06 35.1982 33.5495 35.0824 33.9878 34.8519L36.4767 33.4137C36.639 33.3433 36.7793 33.2303 36.8826 33.0866C36.9858 32.943 37.0483 32.774 37.0632 32.5977V61.7345C37.0481 61.9114 36.9856 62.0809 36.8825 62.2254C36.7793 62.3699 36.6391 62.4839 36.4767 62.5556L33.9776 63.9887C33.5393 64.2193 33.0498 64.3351 32.5547 64.3253L32.5649 35.1885Z" fill="#F0F0F0"/>
<path d="M155.603 140.964C155.527 139.673 155.353 138.128 155.144 136.333C154.364 129.519 153.298 120.186 156.123 111.245C157.842 105.804 161.983 99.352 168.45 97.5618C169.888 97.164 173.367 96.5775 174.703 99.6631C174.891 100.109 175.003 100.583 175.034 101.066C175.172 103.024 174.29 104.753 173.311 106.329C172.183 108.16 170.878 109.899 169.613 111.592C168.42 113.194 167.18 114.846 166.099 116.56C164.931 118.422 163.908 120.37 163.039 122.389L162.626 122.211C163.493 120.172 164.516 118.202 165.686 116.32C166.772 114.591 168.017 112.928 169.22 111.322C170.475 109.639 171.77 107.905 172.892 106.094C173.831 104.564 174.677 102.927 174.55 101.096C174.522 100.664 174.422 100.24 174.254 99.8416C173.061 97.0824 169.858 97.6332 168.537 97.9953C162.243 99.7396 158.199 106.053 156.516 111.378C153.721 120.232 154.782 129.509 155.557 136.282C155.761 138.082 155.94 139.638 156.016 140.938L155.603 140.964Z" fill="#92E3A9"/>
<path d="M156.064 148.381C156.03 148.385 155.996 148.385 155.962 148.381C155.864 148.362 155.772 148.32 155.693 148.259C155.614 148.198 155.551 148.119 155.508 148.029C155.419 147.776 155.419 147.501 155.508 147.248C155.58 146.76 155.58 146.263 155.508 145.774C155.508 145.499 155.462 145.208 155.462 144.948V141.781C155.87 136.092 157.537 130.564 160.343 125.598C162.832 121.268 165.586 118.387 169.013 116.52C170.861 115.505 172.887 114.856 174.98 114.608C176.828 114.404 178.686 114.894 180.193 115.985C181.748 117.214 182.447 119.32 181.86 120.988C181.447 122.156 180.504 123.028 179.54 123.819C177.821 125.221 175.944 126.476 174.134 127.69C172.629 128.71 171.074 129.73 169.62 130.852C165.173 134.284 161.443 138.555 158.64 143.423C158.181 144.214 157.747 145.03 157.349 145.846L157.186 146.167C157.027 146.459 156.887 146.76 156.768 147.07C156.742 147.136 156.717 147.274 156.681 147.432C156.655 147.723 156.563 148.004 156.411 148.253C156.315 148.337 156.192 148.383 156.064 148.381ZM175.715 115.031C175.485 115.031 175.256 115.031 175.021 115.062C172.989 115.299 171.023 115.929 169.233 116.918C165.887 118.739 163.189 121.569 160.741 125.823C157.972 130.727 156.326 136.184 155.921 141.801V144.938C155.921 145.183 155.921 145.448 155.967 145.729C156.049 146.263 156.049 146.806 155.967 147.34C155.912 147.506 155.912 147.685 155.967 147.85C155.98 147.876 155.999 147.899 156.022 147.916C156.045 147.934 156.071 147.946 156.1 147.952C156.191 147.764 156.253 147.562 156.283 147.355C156.308 147.214 156.342 147.074 156.385 146.937C156.51 146.61 156.656 146.291 156.824 145.984L156.982 145.667C157.39 144.841 157.829 144.02 158.288 143.219C159.241 141.569 160.299 139.981 161.455 138.466C163.74 135.481 166.406 132.808 169.386 130.515C170.854 129.393 172.415 128.347 173.925 127.338C175.73 126.129 177.592 124.879 179.3 123.492C180.208 122.753 181.1 121.921 181.478 120.86C181.988 119.366 181.361 117.474 179.948 116.357C178.728 115.448 177.235 114.98 175.715 115.031Z" fill="#92E3A9"/>
<path d="M155.68 144.024H155.624C155.595 144.017 155.568 144.005 155.544 143.988C155.52 143.971 155.5 143.949 155.485 143.923C155.469 143.898 155.459 143.87 155.455 143.841C155.451 143.812 155.453 143.782 155.461 143.754C159.668 126.974 171.301 119.487 177.513 117.707C177.57 117.692 177.631 117.699 177.682 117.727C177.734 117.756 177.772 117.804 177.789 117.86C177.805 117.918 177.798 117.979 177.769 118.032C177.74 118.084 177.693 118.123 177.636 118.141C171.516 119.89 160.056 127.28 155.899 143.861C155.885 143.908 155.856 143.949 155.816 143.978C155.777 144.008 155.729 144.024 155.68 144.024Z" fill="#92E3A9"/>
<path d="M155.655 130.256C155.595 130.251 155.539 130.223 155.5 130.177C155.461 130.131 155.442 130.072 155.446 130.012C156.787 111.891 168.64 101.961 169.986 100.895C170.009 100.876 170.035 100.862 170.064 100.853C170.092 100.845 170.122 100.842 170.152 100.845C170.182 100.848 170.21 100.858 170.236 100.873C170.262 100.887 170.285 100.907 170.302 100.931C170.321 100.954 170.335 100.981 170.343 101.009C170.351 101.037 170.354 101.067 170.35 101.096C170.347 101.126 170.338 101.154 170.324 101.18C170.309 101.206 170.29 101.229 170.267 101.247C168.936 102.303 157.221 112.115 155.9 130.047C155.893 130.107 155.864 130.162 155.819 130.201C155.773 130.239 155.715 130.259 155.655 130.256Z" fill="#92E3A9"/>
<path d="M154.236 67.0557L125.874 50.6895C125.655 50.532 125.398 50.4354 125.129 50.4094C124.86 50.3835 124.59 50.4291 124.344 50.5416L122.304 51.7197C122.08 51.8759 121.902 52.0893 121.788 52.3377C121.674 52.5861 121.628 52.8606 121.657 53.1324V130.761C121.698 131.517 121.918 132.253 122.297 132.909C122.676 133.565 123.205 134.122 123.839 134.535L152.196 150.881C152.415 151.039 152.672 151.137 152.94 151.163C153.209 151.19 153.48 151.146 153.726 151.034L155.766 149.851C155.988 149.694 156.163 149.48 156.275 149.233C156.387 148.986 156.432 148.713 156.403 148.443V70.8297C156.364 70.0746 156.147 69.3395 155.77 68.6838C155.394 68.0281 154.868 67.4703 154.236 67.0557Z" fill="#263238"/>
<path d="M127.767 132.094L125.727 133.272V139.729C125.737 139.918 125.792 140.102 125.887 140.266C125.981 140.43 126.113 140.569 126.272 140.672L127.226 141.223C127.395 141.309 127.582 141.353 127.772 141.353C127.961 141.353 128.148 141.309 128.317 141.223L129.271 140.672C129.61 140.453 129.872 140.134 130.021 139.759L131.862 134.455L127.767 132.094Z" fill="#263238"/>
<path d="M125.727 139.734C125.737 139.923 125.792 140.107 125.887 140.271C125.981 140.435 126.113 140.574 126.272 140.678L127.226 141.228C127.292 141.268 127.366 141.293 127.443 141.3C127.519 141.307 127.597 141.297 127.669 141.27C127.741 141.243 127.806 141.2 127.859 141.144C127.912 141.088 127.952 141.021 127.976 140.948L129.807 135.639L125.727 133.277V139.734Z" fill="#37474F"/>
<path d="M148.228 143.871L146.188 145.054V151.506C146.197 151.695 146.251 151.88 146.345 152.045C146.439 152.21 146.57 152.35 146.728 152.455L147.687 153.005C147.855 153.091 148.041 153.135 148.23 153.135C148.419 153.135 148.605 153.091 148.773 153.005L149.732 152.455C150.071 152.236 150.333 151.917 150.482 151.542L152.318 146.232L148.228 143.871Z" fill="#263238"/>
<path d="M146.188 151.51C146.197 151.7 146.251 151.884 146.345 152.049C146.439 152.214 146.57 152.354 146.728 152.459L147.687 153.01C147.753 153.05 147.827 153.074 147.904 153.081C147.98 153.088 148.058 153.078 148.13 153.051C148.202 153.024 148.267 152.981 148.32 152.925C148.373 152.87 148.413 152.802 148.437 152.729L150.278 147.42L146.198 145.059L146.188 151.51Z" fill="#37474F"/>
<path d="M123.973 51.9335L152.33 68.2538C152.965 68.6681 153.493 69.2262 153.872 69.8827C154.251 70.5393 154.471 71.2759 154.512 72.0329V149.661C154.566 149.934 154.534 150.217 154.419 150.47C154.304 150.723 154.113 150.934 153.872 151.073C153.631 151.212 153.353 151.272 153.076 151.244C152.8 151.217 152.539 151.104 152.33 150.921L123.973 134.57C123.339 134.157 122.811 133.599 122.433 132.944C122.054 132.288 121.836 131.552 121.795 130.796V53.1881C121.741 52.9159 121.773 52.6335 121.888 52.3806C122.002 52.1277 122.193 51.9172 122.434 51.7786C122.674 51.64 122.952 51.5804 123.228 51.6082C123.504 51.636 123.765 51.7498 123.973 51.9335Z" fill="#37474F"/>
<path d="M82.793 158.037L113.465 175.745L156.408 150.953L154.363 149.77L123.691 132.062L82.793 155.676V158.037Z" fill="#455A64"/>
<path d="M113.465 175.747V173.385L156.408 148.594V150.955L113.465 175.747Z" fill="#263238"/>
<path d="M113.659 172.312L113.348 172.103C118.789 163.867 118.754 149.637 118.31 146.067C118.274 145.828 118.249 145.68 118.244 145.624L118.616 145.562C118.616 145.675 118.657 145.807 118.677 145.965C119.075 148.49 121.324 162.204 123.986 166.366L123.67 166.57C121.564 163.301 119.764 154.477 118.861 149.388C118.917 155.166 118.075 165.667 113.659 172.312Z" fill="#FAFAFA"/>
<path d="M131.568 159.736C131.104 159.598 120.261 156.314 119.262 151.53L119.634 151.453C120.583 156.018 131.563 159.343 131.675 159.379L131.568 159.736Z" fill="#FAFAFA"/>
<path d="M120.628 157.792L120.353 156.624C120.315 156.41 120.206 156.215 120.043 156.07C119.88 155.926 119.673 155.841 119.455 155.829C119.275 155.803 119.092 155.832 118.93 155.913C118.768 155.994 118.634 156.123 118.547 156.283L118.195 156.135C118.313 155.902 118.501 155.711 118.732 155.588C118.963 155.466 119.226 155.418 119.486 155.451C119.673 155.463 119.856 155.515 120.022 155.603C120.189 155.691 120.334 155.813 120.45 155.961C120.511 155.478 120.758 155.037 121.138 154.732C121.282 154.657 121.444 154.62 121.606 154.626C121.769 154.631 121.927 154.678 122.066 154.763L121.898 155.1C121.813 155.045 121.715 155.013 121.614 155.007C121.514 155 121.413 155.02 121.322 155.064C120.888 155.309 120.72 156.252 120.694 156.594L120.628 157.792Z" fill="#FAFAFA"/>
<path d="M121.692 161.691L121.355 160.63C120.973 159.431 120.335 158.743 119.581 158.697C119.265 158.691 118.955 158.777 118.688 158.944C118.42 159.112 118.208 159.354 118.076 159.64L117.734 159.477C117.896 159.119 118.16 158.817 118.493 158.609C118.826 158.401 119.214 158.297 119.606 158.309C120.06 158.335 120.84 158.58 121.422 159.763C121.549 158.829 121.932 157.33 122.916 156.703C123.269 156.509 123.667 156.41 124.069 156.414C124.472 156.419 124.867 156.527 125.216 156.728L125.058 157.07C124.766 156.897 124.434 156.802 124.095 156.794C123.756 156.786 123.42 156.865 123.12 157.024C121.809 157.84 121.723 160.538 121.723 160.569L121.692 161.691Z" fill="#FAFAFA"/>
<path d="M117.087 164.279L116.75 164.105C117.505 162.652 119.162 161.606 120.601 161.678C120.906 161.681 121.206 161.753 121.48 161.888C121.753 162.023 121.993 162.218 122.182 162.458C122.32 161.724 122.606 161.026 123.021 160.405C123.437 159.785 123.973 159.255 124.599 158.847C125.271 158.401 126.045 158.135 126.849 158.075C127.653 158.016 128.459 158.164 129.189 158.505L129.041 158.847C128.369 158.536 127.628 158.401 126.889 158.457C126.15 158.512 125.437 158.755 124.818 159.163C124.157 159.592 123.605 160.169 123.206 160.85C122.808 161.53 122.574 162.294 122.523 163.08V164.044L122.166 163.146C122.048 162.827 121.835 162.552 121.556 162.357C121.278 162.162 120.946 162.057 120.606 162.055C119.285 161.989 117.78 162.948 117.087 164.279Z" fill="#FAFAFA"/>
<path d="M115.015 169.907L114.684 169.724C115.143 168.887 117.586 164.685 120.477 163.925C120.885 163.808 121.314 163.779 121.734 163.839C122.154 163.9 122.557 164.049 122.915 164.277L122.721 164.598C122.405 164.398 122.051 164.267 121.681 164.214C121.311 164.16 120.934 164.185 120.574 164.287C118.453 164.848 116.26 167.663 115.015 169.907Z" fill="#FAFAFA"/>
<path d="M152.317 124.985V127.346L113.465 149.776L82.793 132.069V129.708L121.645 107.277L152.317 124.985Z" fill="#263238"/>
<path d="M152.317 124.985L113.465 147.415L82.793 129.708L121.645 107.277L152.317 124.985Z" fill="#455A64"/>
<path d="M152.317 99.0095V101.366L113.465 123.801L82.793 106.088V103.732L121.645 81.2969L152.317 99.0095Z" fill="#263238"/>
<path d="M152.317 99.0095L113.465 121.44L82.793 103.732L121.645 81.2969L152.317 99.0095Z" fill="#455A64"/>
<path d="M113.335 90.6478L84.9789 74.302C84.7601 74.1437 84.5033 74.0462 84.2345 74.0193C83.9658 73.9924 83.6947 74.0372 83.4489 74.149C83.0817 74.3581 81.7761 75.118 81.4089 75.3271C81.1855 75.4839 81.0081 75.6975 80.8951 75.9459C80.7821 76.1943 80.7376 76.4684 80.7662 76.7398V154.348C80.8079 155.104 81.0273 155.84 81.4065 156.496C81.7858 157.152 82.3142 157.709 82.9491 158.122L111.306 174.473C111.524 174.631 111.781 174.729 112.05 174.756C112.319 174.782 112.59 174.738 112.836 174.626C113.203 174.412 114.519 173.657 114.876 173.438C115.1 173.282 115.279 173.07 115.394 172.823C115.509 172.575 115.555 172.301 115.528 172.03V94.4269C115.486 93.6688 115.266 92.9313 114.885 92.2746C114.504 91.6178 113.973 91.0604 113.335 90.6478Z" fill="#263238"/>
<path opacity="0.2" d="M113.466 102.565L115.516 101.382V94.293L113.461 95.4762L113.466 102.565Z" fill="black"/>
<path opacity="0.2" d="M154.368 78.9469L156.419 77.7688V70.6797L154.363 71.8629L154.368 78.9469Z" fill="black"/>
<path d="M86.8838 155.688L84.8438 156.866V163.322C84.8541 163.511 84.9089 163.695 85.0037 163.859C85.0985 164.023 85.2307 164.163 85.3895 164.266L86.3432 164.817C86.5124 164.902 86.6993 164.947 86.8889 164.947C87.0785 164.947 87.2654 164.902 87.4346 164.817L88.3883 164.266C88.7259 164.048 88.9877 163.731 89.138 163.358L90.9792 158.049L86.8838 155.688Z" fill="#263238"/>
<path d="M84.8398 163.316C84.8502 163.505 84.905 163.689 84.9998 163.853C85.0946 164.017 85.2268 164.156 85.3855 164.26L86.3393 164.81C86.4052 164.85 86.4792 164.875 86.5559 164.882C86.6326 164.889 86.7099 164.879 86.7821 164.852C86.8542 164.825 86.9193 164.782 86.9725 164.726C87.0256 164.67 87.0655 164.603 87.089 164.53L88.9301 159.221L84.85 156.859L84.8398 163.316Z" fill="#37474F"/>
<path d="M107.333 167.492L105.293 168.67V175.127C105.302 175.316 105.356 175.5 105.45 175.664C105.544 175.828 105.675 175.967 105.834 176.071L106.792 176.621C106.961 176.707 107.147 176.751 107.336 176.751C107.524 176.751 107.71 176.707 107.879 176.621L108.838 176.071C109.174 175.851 109.435 175.534 109.587 175.163L111.423 169.854L107.333 167.492Z" fill="#263238"/>
<path d="M105.293 175.097C105.302 175.286 105.356 175.47 105.45 175.634C105.544 175.798 105.675 175.937 105.834 176.041L106.792 176.592C106.858 176.632 106.932 176.656 107.009 176.663C107.086 176.67 107.163 176.66 107.235 176.633C107.307 176.606 107.372 176.563 107.426 176.507C107.479 176.452 107.519 176.384 107.542 176.311L109.378 171.002L105.298 168.641L105.293 175.097Z" fill="#37474F"/>
<path d="M82.9262 75.4882L111.288 91.834C111.922 92.2486 112.45 92.8068 112.828 93.4634C113.206 94.12 113.425 94.8564 113.466 95.6131V175.756C113.466 175.756 111.89 174.823 111.288 174.476L82.9313 158.125C82.2965 157.712 81.768 157.155 81.3888 156.499C81.0095 155.843 80.7902 155.107 80.7485 154.351V76.7428C80.694 76.4706 80.7262 76.1882 80.8407 75.9353C80.9552 75.6824 81.1462 75.4719 81.3867 75.3333C81.6273 75.1947 81.9052 75.1351 82.1814 75.1629C82.4576 75.1907 82.7181 75.3045 82.9262 75.4882Z" fill="#37474F"/>
<path opacity="0.2" d="M111.288 91.834L82.9262 75.4882C82.7181 75.3045 82.4576 75.1907 82.1814 75.1629C81.9052 75.1351 81.6273 75.1947 81.3867 75.3333C81.1462 75.4719 80.9552 75.6824 80.8407 75.9353C80.7262 76.1882 80.694 76.4706 80.7485 76.7428V83.6738L113.466 102.544V95.6131C113.425 94.8564 113.206 94.12 112.828 93.4634C112.45 92.8068 111.922 92.2486 111.288 91.834Z" fill="black"/>
<path d="M150.271 99.1993C150.222 99.198 150.175 99.1777 150.139 99.1426C150.104 99.1075 150.084 99.0603 150.083 99.0106V75.7236L127.872 88.5452C127.851 88.5587 127.828 88.5678 127.803 88.5717C127.779 88.5757 127.754 88.5745 127.73 88.5683C127.706 88.562 127.683 88.5509 127.664 88.5355C127.644 88.5201 127.628 88.5008 127.617 88.4789C127.604 88.4575 127.595 88.4338 127.592 88.4091C127.588 88.3844 127.59 88.3592 127.596 88.335C127.602 88.3108 127.613 88.2881 127.628 88.2682C127.643 88.2482 127.662 88.2315 127.683 88.2188L150.205 75.234C150.233 75.2164 150.266 75.207 150.3 75.207C150.333 75.207 150.366 75.2164 150.394 75.234C150.422 75.2509 150.445 75.2748 150.461 75.3034C150.478 75.332 150.486 75.3644 150.486 75.3972V99.0106C150.486 99.0377 150.48 99.0645 150.469 99.0892C150.458 99.114 150.442 99.136 150.422 99.1539C150.401 99.1719 150.377 99.1852 150.352 99.193C150.326 99.2008 150.298 99.203 150.271 99.1993Z" fill="#FAFAFA"/>
<path d="M146.181 93.2891H146.125C146.077 93.2782 146.034 93.2484 146.007 93.2064C145.981 93.1643 145.972 93.1134 145.982 93.0647L149.787 76.5863L142.239 89.6579C142.227 89.6797 142.211 89.6989 142.192 89.7143C142.173 89.7298 142.15 89.7412 142.127 89.7479C142.103 89.7545 142.078 89.7563 142.053 89.7531C142.029 89.7499 142.005 89.7418 141.984 89.7293C141.962 89.7171 141.943 89.7006 141.927 89.6809C141.912 89.6611 141.9 89.6384 141.893 89.6142C141.887 89.59 141.885 89.5647 141.888 89.5398C141.892 89.5149 141.9 89.4909 141.912 89.4692L150.073 75.3011C150.096 75.2622 150.132 75.2327 150.175 75.2178C150.218 75.2029 150.265 75.2035 150.307 75.2195C150.349 75.2366 150.383 75.2681 150.404 75.3083C150.425 75.3486 150.43 75.3949 150.419 75.4388L146.339 93.1514C146.33 93.1878 146.31 93.2204 146.282 93.2451C146.254 93.2697 146.218 93.2851 146.181 93.2891Z" fill="#FAFAFA"/>
<path d="M138.009 87.4141C137.983 87.4142 137.957 87.4088 137.933 87.3983C137.909 87.3877 137.888 87.3723 137.871 87.3529C137.836 87.3176 137.816 87.27 137.816 87.2203C137.816 87.1707 137.836 87.123 137.871 87.0877L150.142 75.281C150.177 75.2461 150.225 75.2266 150.274 75.2266C150.324 75.2266 150.372 75.2461 150.407 75.281C150.442 75.3172 150.462 75.3657 150.462 75.4162C150.462 75.4666 150.442 75.5151 150.407 75.5513L138.136 87.3529C138.12 87.371 138.1 87.3858 138.078 87.3963C138.057 87.4068 138.033 87.4128 138.009 87.4141Z" fill="#FAFAFA"/>
<path d="M150.275 95.4258C150.225 95.4245 150.178 95.4042 150.143 95.3691C150.108 95.334 150.088 95.2867 150.086 95.2371C150.086 92.1464 146.639 91.9373 146.491 91.9322C146.463 91.9302 146.436 91.9223 146.411 91.9092C146.387 91.896 146.365 91.8778 146.348 91.8557C146.332 91.834 146.321 91.8091 146.316 91.7826C146.31 91.7562 146.311 91.7289 146.317 91.7027C146.443 91.0713 146.401 90.4179 146.194 89.8083C145.987 89.1986 145.623 88.6541 145.139 88.2296C144.962 88.0531 144.75 87.9163 144.516 87.8284C144.282 87.7404 144.032 87.7033 143.783 87.7195C143.65 87.7421 143.523 87.7929 143.411 87.8686C143.299 87.9442 143.205 88.043 143.135 88.1581C143.114 88.1954 143.08 88.2242 143.04 88.24C143.001 88.2557 142.957 88.2575 142.916 88.2448C142.875 88.2323 142.84 88.2063 142.815 88.1711C142.791 88.1359 142.78 88.0936 142.783 88.051C142.783 87.9337 142.992 85.1848 140.575 84.9145C140.544 84.9107 140.514 84.8994 140.488 84.8817C140.462 84.8639 140.441 84.8402 140.427 84.8125C140.413 84.7857 140.406 84.756 140.406 84.7258C140.406 84.6956 140.413 84.6659 140.427 84.6391C140.427 84.6391 141.498 82.6348 141.085 81.6504C141.037 81.5348 140.963 81.4321 140.868 81.3506C140.773 81.2691 140.66 81.211 140.539 81.1812C140.515 81.1748 140.492 81.1636 140.473 81.1481C140.453 81.1327 140.437 81.1134 140.425 81.0914C140.413 81.0694 140.405 81.0453 140.403 81.0204C140.401 80.9955 140.404 80.9704 140.411 80.9466C140.427 80.8993 140.46 80.8598 140.503 80.836C140.547 80.8123 140.598 80.8062 140.646 80.8191C140.822 80.8643 140.984 80.9502 141.121 81.0698C141.257 81.1894 141.364 81.3393 141.431 81.5076C141.824 82.4409 141.161 83.9863 140.876 84.5677C142.752 84.9298 143.099 86.6995 143.15 87.5767C143.318 87.4576 143.509 87.3759 143.711 87.337C144.018 87.3073 144.327 87.3474 144.616 87.4543C144.905 87.5612 145.166 87.7321 145.379 87.9541C145.886 88.401 146.274 88.9668 146.508 89.6006C146.742 90.2344 146.815 90.9164 146.72 91.5854C147.546 91.6925 150.464 92.2688 150.459 95.2473C150.456 95.2947 150.436 95.3393 150.402 95.3724C150.368 95.4055 150.322 95.4246 150.275 95.4258Z" fill="#FAFAFA"/>
<path d="M150.273 90.3408C150.225 90.341 150.18 90.3232 150.145 90.2911C150.11 90.2589 150.088 90.2148 150.084 90.1674C150.003 89.0862 149.375 87.6888 148.585 87.342C148.428 87.272 148.255 87.2492 148.085 87.2764C147.916 87.3036 147.758 87.3795 147.631 87.495C147.6 87.515 147.564 87.5256 147.527 87.5256C147.49 87.5256 147.453 87.515 147.422 87.495C147.39 87.4772 147.363 87.4503 147.346 87.4177C147.329 87.3851 147.322 87.3481 147.325 87.3114C147.325 87.3114 147.493 85.3988 146.632 84.6083C146.445 84.4522 146.223 84.343 145.985 84.2897C145.747 84.2365 145.5 84.2408 145.265 84.3023C145.232 84.3092 145.198 84.3072 145.167 84.2964C145.136 84.2856 145.108 84.2665 145.086 84.2411C145.064 84.2155 145.05 84.1846 145.043 84.1515C145.037 84.1184 145.04 84.0843 145.051 84.0524C145.224 83.5781 145.561 82.247 145.107 81.7727C144.892 81.5534 144.5 81.533 143.934 81.7166C143.895 81.7294 143.853 81.7293 143.815 81.7165C143.776 81.7036 143.743 81.6786 143.719 81.6452C143.696 81.6124 143.684 81.5732 143.684 81.533C143.684 81.4928 143.696 81.4536 143.719 81.4208C144.036 81.023 144.816 79.8602 144.622 79.3042C144.59 79.2275 144.538 79.1606 144.472 79.1104C144.406 79.0602 144.327 79.0285 144.245 79.0186C144.221 79.0127 144.198 79.002 144.178 78.9872C144.158 78.9724 144.141 78.9539 144.128 78.9325C144.115 78.9112 144.107 78.8875 144.103 78.8629C144.1 78.8383 144.101 78.8132 144.107 78.7891C144.112 78.7648 144.121 78.7418 144.136 78.7214C144.15 78.701 144.168 78.6838 144.189 78.6709C144.21 78.6579 144.234 78.6495 144.258 78.6462C144.283 78.6428 144.308 78.6446 144.331 78.6514C144.475 78.6723 144.61 78.7304 144.723 78.8199C144.837 78.9094 144.925 79.0272 144.979 79.1614C145.188 79.7684 144.678 80.6915 144.321 81.2015C144.505 81.1577 144.697 81.1595 144.88 81.2066C145.063 81.2537 145.232 81.3447 145.372 81.4718C145.933 82.0532 145.663 83.2823 145.494 83.8586C145.743 83.8289 145.995 83.8522 146.234 83.9269C146.473 84.0016 146.694 84.1261 146.881 84.2921C147.641 84.9857 147.723 86.3322 147.713 86.9493C147.872 86.8742 148.046 86.8354 148.223 86.8354C148.399 86.8354 148.573 86.8742 148.733 86.9493C149.697 87.3726 150.365 88.8771 150.462 90.096C150.464 90.1206 150.461 90.1453 150.453 90.1687C150.446 90.1921 150.433 90.2137 150.417 90.2322C150.401 90.2508 150.381 90.2659 150.359 90.2767C150.337 90.2874 150.313 90.2937 150.288 90.2949L150.273 90.3408Z" fill="#FAFAFA"/>
<path d="M161.26 67.139C161.236 66.8683 161.14 66.6088 160.982 66.3874C160.825 66.166 160.611 65.9906 160.363 65.8793L129.961 48.3248C129.285 47.9829 128.538 47.8047 127.781 47.8047C127.023 47.8047 126.276 47.9829 125.601 48.3248L78.8429 75.3247C78.5949 75.436 78.381 75.6114 78.2232 75.8328C78.0654 76.0542 77.9695 76.3136 77.9453 76.5844V78.9457C77.9695 79.2165 78.0654 79.476 78.2232 79.6974C78.381 79.9188 78.5949 80.0942 78.8429 80.2055L109.245 97.7549C109.92 98.0992 110.667 98.2787 111.425 98.2787C112.183 98.2787 112.93 98.0992 113.605 97.7549L160.363 70.7601C160.611 70.6488 160.825 70.4734 160.982 70.252C161.14 70.0306 161.236 69.7712 161.26 69.5004V67.139Z" fill="#37474F"/>
<path d="M109.242 95.3935L78.8402 77.8441C77.6366 77.1454 77.6366 76.0183 78.8402 75.3247L125.598 48.3248C126.274 47.9829 127.021 47.8047 127.778 47.8047C128.536 47.8047 129.282 47.9829 129.958 48.3248L160.36 65.8793C161.569 66.578 161.569 67.7001 160.36 68.3988L113.602 95.3935C112.927 95.7379 112.18 95.9174 111.422 95.9174C110.664 95.9174 109.917 95.7379 109.242 95.3935Z" fill="#455A64"/>
<path opacity="0.1" d="M154.364 74.2148L140.053 91.9275L115.517 106.096L115.512 96.6501L154.364 74.2148Z" fill="black"/>
<path opacity="0.1" d="M152.322 101.371L140.056 117.9L115.52 132.074V122.623L152.322 101.371Z" fill="black"/>
<path opacity="0.1" d="M152.322 127.348L140.056 143.877L115.52 158.05V148.6L152.322 127.348Z" fill="black"/>
<path d="M96.0343 178.913L58.416 200.635L16.0547 176.119L53.6729 154.402L96.0343 178.913Z" fill="#92E3A9"/>
<path opacity="0.5" d="M96.0343 178.913L58.416 200.635L16.0547 176.119L53.6729 154.402L96.0343 178.913Z" fill="black"/>
<path d="M53.6729 124.961V154.404L16.0547 176.12V146.682L53.6729 124.961Z" fill="#92E3A9"/>
<path opacity="0.23" d="M53.6729 124.961V154.404L16.0547 176.12V146.682L53.6729 124.961Z" fill="black"/>
<path d="M58.416 171.195V200.637L16.0547 176.121V146.684L58.416 171.195Z" fill="#92E3A9"/>
<path opacity="0.38" d="M58.416 171.195V200.637L16.0547 176.121V146.684L58.416 171.195Z" fill="black"/>
<path d="M96.0371 149.472V178.915L53.6758 154.404V124.961L96.0371 149.472Z" fill="#92E3A9"/>
<path opacity="0.4" d="M96.0371 149.472V178.915L53.6758 154.404V124.961L96.0371 149.472Z" fill="black"/>
<path d="M96.0362 178.915V149.473L58.418 171.194V200.637L96.0362 178.915Z" fill="#92E3A9"/>
<path opacity="0.23" d="M96.0362 178.915V149.473L58.418 171.194V200.637L96.0362 178.915Z" fill="black"/>
<path d="M53.6758 124.96L53.7268 108.66L95.9861 133.202L96.0371 149.471L53.6758 124.96Z" fill="#92E3A9"/>
<path opacity="0.2" d="M53.6758 124.96L53.7268 108.66L95.9861 133.202L96.0371 149.471L53.6758 124.96Z" fill="black"/>
<path d="M58.418 171.192L61.9472 156.933L99.2238 135.41L96.0362 149.471L58.418 171.192Z" fill="#92E3A9"/>
<path opacity="0.3" d="M58.418 171.192L61.9472 156.933L99.2238 135.41L96.0362 149.471L58.418 171.192Z" fill="black"/>
<path d="M16.0584 146.686L11.5703 131.896L49.1886 110.18L53.6766 124.965L16.0584 146.686Z" fill="#92E3A9"/>
<path opacity="0.1" d="M16.0584 146.686L11.5703 131.896L49.1886 110.18L53.6766 124.965L16.0584 146.686Z" fill="black"/>
<path d="M16.0569 146.686L7.20312 134.461L49.5696 158.972L58.4182 171.197L16.0569 146.686Z" fill="#92E3A9"/>
<path opacity="0.45" d="M16.0569 146.686L7.20312 134.461L49.5696 158.972L58.4182 171.197L16.0569 146.686Z" fill="black"/>
<g opacity="0.7">
<path d="M69.4963 191.88C69.435 191.88 69.3761 191.856 69.3322 191.813C69.2884 191.77 69.2631 191.712 69.2617 191.651V186.469C69.263 186.407 69.2882 186.348 69.3319 186.305C69.3756 186.261 69.4345 186.236 69.4963 186.234C69.5577 186.236 69.616 186.261 69.6589 186.305C69.7018 186.349 69.7258 186.408 69.7258 186.469V191.651C69.7258 191.712 69.7016 191.77 69.6586 191.813C69.6156 191.856 69.5572 191.88 69.4963 191.88Z" fill="white"/>
<path d="M68.817 188.259C68.7866 188.264 68.7556 188.264 68.7252 188.259C68.6696 188.233 68.6258 188.187 68.6031 188.13C68.5803 188.074 68.5802 188.01 68.6028 187.953L69.429 186.051L70.347 187.112C70.3799 187.159 70.3941 187.217 70.3869 187.274C70.3797 187.332 70.3516 187.384 70.308 187.422C70.2645 187.46 70.2085 187.48 70.1507 187.48C70.093 187.479 70.0376 187.457 69.9951 187.418L69.5616 186.908L69.0516 188.132C69.0296 188.174 68.9955 188.208 68.9537 188.231C68.9119 188.254 68.8644 188.264 68.817 188.259Z" fill="white"/>
<path d="M71.6358 190.66C71.5744 190.659 71.5161 190.634 71.4732 190.59C71.4303 190.546 71.4062 190.487 71.4063 190.426V185.249C71.4063 185.188 71.4304 185.13 71.4735 185.087C71.5165 185.044 71.5749 185.02 71.6358 185.02C71.6966 185.02 71.755 185.044 71.798 185.087C71.8411 185.13 71.8653 185.188 71.8653 185.249V190.421C71.8659 190.451 71.8605 190.482 71.8494 190.511C71.8382 190.539 71.8215 190.566 71.8002 190.588C71.7789 190.61 71.7534 190.628 71.7252 190.64C71.6969 190.653 71.6666 190.66 71.6358 190.66Z" fill="white"/>
<path d="M70.9526 187.042C70.9222 187.047 70.8912 187.047 70.8608 187.042C70.8328 187.03 70.8075 187.013 70.7864 186.991C70.7653 186.969 70.7488 186.943 70.7379 186.914C70.7269 186.886 70.7218 186.855 70.7228 186.825C70.7237 186.794 70.7308 186.764 70.7435 186.736L71.5646 184.809L72.4826 185.864C72.525 185.908 72.5487 185.967 72.5487 186.028C72.5487 186.088 72.525 186.147 72.4826 186.191C72.4613 186.212 72.4358 186.229 72.4078 186.241C72.3798 186.253 72.3497 186.259 72.3194 186.259C72.289 186.259 72.259 186.253 72.231 186.241C72.2029 186.229 72.1775 186.212 72.1562 186.191L71.7227 185.681L71.2127 186.905C71.1915 186.954 71.1542 186.994 71.1069 187.019C71.0596 187.044 71.0051 187.053 70.9526 187.042Z" fill="white"/>
</g>
<g opacity="0.7">
<path d="M63.3325 195.397C63.2454 195.398 63.1593 195.377 63.0826 195.336C62.9904 195.277 62.9157 195.194 62.8664 195.096C62.8171 194.998 62.7949 194.889 62.8021 194.78V194.142C62.8035 194.081 62.8288 194.023 62.8726 193.98C62.9165 193.937 62.9754 193.913 63.0367 193.913C63.0976 193.913 63.156 193.937 63.199 193.98C63.2421 194.023 63.2662 194.081 63.2662 194.142V194.78C63.2662 194.872 63.2662 194.923 63.3121 194.933C63.358 194.943 63.3835 194.933 63.46 194.892C63.6036 194.759 63.7167 194.597 63.7915 194.417C63.8663 194.236 63.9012 194.042 63.8935 193.846V191.194C63.8935 191.133 63.9177 191.075 63.9608 191.032C64.0038 190.989 64.0622 190.965 64.1231 190.965C64.1839 190.965 64.2423 190.989 64.2853 191.032C64.3284 191.075 64.3526 191.133 64.3526 191.194V193.846C64.364 194.122 64.3103 194.396 64.196 194.647C64.0817 194.897 63.91 195.118 63.6946 195.29C63.5856 195.357 63.4606 195.394 63.3325 195.397Z" fill="white"/>
<path d="M60.8984 193.256V192.858C60.9591 191.837 61.2576 190.844 61.7704 189.958C62.2831 189.073 62.9957 188.319 63.8514 187.758C64.6878 187.279 65.4834 187.207 66.0954 187.564C66.4219 187.788 66.6821 188.096 66.849 188.455C67.0159 188.814 67.0832 189.211 67.044 189.605V189.737L60.8984 193.256ZM65.2386 187.779C64.8302 187.797 64.4335 187.92 64.086 188.136C63.3528 188.618 62.7319 189.253 62.2655 189.996C61.7991 190.74 61.4981 191.575 61.3829 192.445L66.5697 189.446C66.5919 189.151 66.5373 188.855 66.4113 188.587C66.2853 188.319 66.0922 188.088 65.8506 187.916C65.6622 187.818 65.4512 187.77 65.2386 187.779Z" fill="white"/>
</g>
<path opacity="0.7" d="M7.20312 134.461L49.5696 158.972L58.4182 171.197L49.1004 159.405L7.20312 134.461Z" fill="white"/>
<path opacity="0.7" d="M96.0362 149.473L58.418 171.194V200.637L59.1218 171.786L96.0362 149.473Z" fill="white"/>
<path d="M40.8348 137.699C44.716 137.138 48.2606 134.639 50.525 131.497C51.581 130.029 52.3589 128.38 52.82 126.632C53.3098 124.997 53.3903 123.266 53.0546 121.593C52.3559 118.793 49.7651 117.135 47.0263 116.789C45.6366 116.606 44.2235 116.744 42.8953 117.192C41.5181 117.664 40.3232 118.556 39.4782 119.742C38.9484 120.373 38.6151 121.146 38.5194 121.965C38.5112 122.286 38.6243 122.598 38.8361 122.839C39.0478 123.08 39.3427 123.232 39.6618 123.266C40.483 123.335 41.3037 123.127 41.9925 122.674C42.8325 122.203 43.5723 121.572 44.1703 120.818C45.4531 119.235 46.413 117.415 46.9957 115.463C47.4046 113.787 47.4046 112.038 46.9957 110.363C46.6851 108.61 45.884 106.981 44.6854 105.665C43.3112 104.416 41.5675 103.648 39.7179 103.477C37.8771 103.225 36.0028 103.399 34.2404 103.987C33.4663 104.222 32.7491 104.615 32.1341 105.14C31.6955 105.548 31.1957 106.221 31.3742 106.884C31.5527 107.547 32.5217 107.843 33.1796 107.756C34.1533 107.574 35.0452 107.09 35.7296 106.374C36.4924 105.623 37.1403 104.764 37.6524 103.824C38.0328 103.149 38.2314 102.386 38.2287 101.611C38.1624 98.3773 34.5872 96.2863 31.7873 95.6947C31.0314 95.5368 30.2572 95.4853 29.4871 95.5417C29.227 95.5417 29.3851 95.9701 29.5942 95.9548C31.1009 95.8863 32.5983 96.2245 33.9293 96.934C35.2425 97.5375 36.3453 98.5197 37.0965 99.7543C37.4312 100.363 37.5964 101.05 37.5749 101.745C37.5534 102.439 37.3459 103.115 36.9741 103.702C36.4747 104.572 35.8529 105.365 35.1278 106.058C34.5209 106.609 33.5978 107.246 32.7461 107.185C32.6055 107.185 32.4678 107.145 32.3487 107.07C32.2297 106.995 32.1341 106.888 32.0729 106.762C32.0472 106.594 32.061 106.423 32.1132 106.262C32.1655 106.101 32.2547 105.954 32.3738 105.834C32.8241 105.349 33.3811 104.975 34.0007 104.742C35.5308 104.106 37.1875 103.834 38.8407 103.947C40.5444 103.977 42.2012 104.51 43.6042 105.477C44.8264 106.491 45.6944 107.868 46.0828 109.409C46.5749 110.974 46.7279 112.625 46.5316 114.254C46.2287 115.893 45.5991 117.454 44.6803 118.844C43.7368 120.405 42.5536 121.904 40.7787 122.516C40.3401 122.674 39.4221 122.904 39.2487 122.266C39.0753 121.629 39.5751 120.843 39.8964 120.349C40.6069 119.23 41.6427 118.356 42.8647 117.844C44.0438 117.372 45.3166 117.18 46.5826 117.283C48.9848 117.462 51.4226 118.716 52.259 121.103C52.6786 122.53 52.7242 124.04 52.3916 125.489C52.0916 127.078 51.5206 128.603 50.7035 129.998C48.946 132.962 46.2843 135.284 43.1095 136.623C42.3546 136.949 41.5794 137.225 40.7889 137.48C40.7073 137.51 40.743 137.714 40.8348 137.699Z" fill="#E0E0E0"/>
<path d="M24.6216 93.4178C22.5815 93.2699 19.7714 94.8764 20.771 96.0494C21.7706 97.2224 24.4227 95.3252 24.4227 95.3252C24.4227 95.3252 24.1728 97.6967 25.0398 97.967C25.9068 98.2373 27.0798 95.9729 26.2128 94.5245C26.6309 94.6893 27.0839 94.7458 27.5298 94.6888C27.9756 94.6317 28.3997 94.4629 28.7629 94.1981C29.9971 93.2903 28.6915 92.4334 26.9523 92.5864C26.9523 92.5864 28.1967 88.5064 25.6824 89.2867C24.4227 89.6692 23.979 91.1431 24.6216 93.4178Z" fill="#92E3A9"/>
<path opacity="0.65" d="M24.6216 93.4178C22.5815 93.2699 19.7714 94.8764 20.771 96.0494C21.7706 97.2224 24.4227 95.3252 24.4227 95.3252C24.4227 95.3252 24.1728 97.6967 25.0398 97.967C25.9068 98.2373 27.0798 95.9729 26.2128 94.5245C26.6309 94.6893 27.0839 94.7458 27.5298 94.6888C27.9756 94.6317 28.3997 94.4629 28.7629 94.1981C29.9971 93.2903 28.6915 92.4334 26.9523 92.5864C26.9523 92.5864 28.1967 88.5064 25.6824 89.2867C24.4227 89.6692 23.979 91.1431 24.6216 93.4178Z" fill="white"/>
<path d="M26.5194 94.2879C26.4065 94.1774 26.2873 94.0735 26.1624 93.9768C25.9839 93.8391 25.7952 93.7065 25.6167 93.5739C25.4429 93.4475 25.2606 93.3333 25.071 93.2322C24.9619 93.1716 24.8495 93.1171 24.7344 93.069C24.5754 92.9943 24.3987 92.9661 24.2244 92.9874C24.1787 92.9887 24.1342 93.0022 24.0956 93.0266C24.0569 93.0509 24.0255 93.0853 24.0047 93.1259C23.9838 93.1666 23.9743 93.2121 23.977 93.2577C23.9798 93.3033 23.9948 93.3473 24.0204 93.3852C24.1606 93.5371 24.3356 93.6526 24.5304 93.7218L24.8058 93.8697C24.9945 93.9819 25.1628 94.1094 25.3158 94.2369C25.4688 94.3644 25.6728 94.4868 25.8258 94.6143C26.0889 94.8277 26.383 94.9996 26.6979 95.1243C26.712 95.1319 26.7278 95.1359 26.7438 95.1359C26.7598 95.1359 26.7756 95.1319 26.7897 95.1243C27.0498 94.9203 26.6673 94.4358 26.5194 94.2879Z" fill="#455A64"/>
<path d="M189.114 37.3183C186.885 40.3171 183.901 56.8057 182.774 62.0945C177.353 61.9364 170.1 61.6814 167.357 61.3958C164.297 61.0745 157.763 60.4472 154.555 60.8858C146.594 61.9058 146.905 67.1385 147.099 68.5053C147.308 70.066 148.425 70.78 152.709 69.8059C153.668 69.5952 154.645 69.4807 155.626 69.4642C156.04 69.4642 156.912 69.2551 157.238 69.607C157.748 70.117 156.274 70.9738 155.907 71.2084C155.341 71.5756 154.749 72.0397 154.632 72.7027C154.598 72.8239 154.6 72.9523 154.637 73.0725C154.674 73.1927 154.745 73.2998 154.841 73.381C155.049 73.4658 155.281 73.4658 155.489 73.381C157.444 72.917 159.33 72.1985 161.099 71.2441C161.766 70.8421 162.467 70.5007 163.195 70.2241C164.302 69.8671 165.444 70.0762 166.556 70.0762C168.948 70.0762 181.591 71.3308 187.211 71.902C191.103 72.2947 191.516 68.4543 192.857 64.563C194.504 59.7383 198.406 34.3653 198.406 34.3653C194.469 33.7941 191.766 33.7584 189.114 37.3183Z" fill="#FFA8A7"/>
<path d="M198.47 33.9686C196.588 33.6218 192.35 33.0965 190.044 35.672C187.739 38.2476 187.193 40.9506 186.179 44.8522C185.164 48.7537 183.363 55.7409 183.363 55.7409C183.363 55.7409 186.337 60.0096 195.644 58.8009L198.47 33.9686Z" fill="#37474F"/>
<path d="M221.839 168.826L215.296 168.831L213.414 154.627L221.671 154.301L221.839 168.826Z" fill="#FFA8A7"/>
<path d="M200.113 161.735C199.001 163.668 195.426 163.51 192.463 162.826L192.121 148.862L200.868 148.516L200.113 161.735Z" fill="#FFA8A7"/>
<path d="M221.399 79.0788C221.633 85.1224 220.833 120.859 220.833 120.859C221.052 122.593 222.847 125.617 223.219 131.875C223.765 140.963 221.914 160.344 221.914 160.344C221.914 160.344 218.165 162.302 214.126 160.803C214.126 160.803 210.015 132.752 208.516 123.786C207.22 115.983 205.558 95.0523 205.558 95.0523L202.329 121.879C202.921 125.054 203.166 128.285 203.059 131.513C202.926 135.685 200.549 155.942 200.549 155.942C197.838 156.829 194.926 156.898 192.175 156.141C192.175 156.141 190.227 124.704 190.002 120.894C189.747 116.549 189.921 78.1914 189.921 78.1914L221.399 79.0788Z" fill="#92E3A9"/>
<path opacity="0.2" d="M205.567 95.0571C205.567 95.0571 199.85 93.4353 195.953 89.957C195.953 89.957 197.779 93.0732 202.95 95.8374L202.655 119.252L205.567 95.0571Z" fill="black"/>
<path d="M207.841 180.671C207.632 180.885 207.754 182.298 208.009 182.665C208.264 183.032 209.825 184.277 212.533 184.369C215.118 184.45 217.403 184.012 218.877 182.992C220.351 181.972 221.045 180.885 221.131 179.422C221.218 177.958 220.999 176.535 221.641 175.377C222.248 174.311 223.233 173.092 223.432 172.516C223.875 171.266 223.335 169.527 223.335 169.527L207.841 180.671Z" fill="#263238"/>
<path d="M214.367 167.578C214.37 168.136 214.291 168.691 214.133 169.226C213.579 170.965 212.747 172.603 211.669 174.076C210.925 175.029 209.986 175.83 209.196 176.753C208.35 177.629 207.831 178.769 207.727 179.982C207.696 182.022 209.92 182.608 211.618 182.843C213.459 183.086 215.331 182.911 217.096 182.333C218.025 182.053 218.854 181.51 219.482 180.77C220.11 180.029 220.51 179.124 220.635 178.161C220.707 177.595 220.635 177.024 220.696 176.457C220.869 175.157 221.362 173.92 222.13 172.857C222.574 172.241 222.953 171.582 223.262 170.888C223.736 169.613 223.262 168.221 222.874 166.992C222.543 165.926 222.165 164.717 221.793 164.834C221.793 165.4 221.793 165.451 221.431 165.854C220.921 166.364 220.946 167.073 220.411 167.517C220.566 167.046 220.672 166.561 220.727 166.069C220.752 165.868 220.703 165.665 220.589 165.497C220.405 165.348 220.189 165.243 219.957 165.191C219.15 164.953 218.321 164.797 217.483 164.727C216.685 164.622 215.876 164.648 215.086 164.804C214.853 164.858 214.644 164.989 214.495 165.176C214.363 165.385 214.298 165.628 214.306 165.875C214.306 166.206 214.362 167.038 214.367 167.578Z" fill="#455A64"/>
<path d="M212.434 172.955C213.169 172.364 214.852 172.287 215.78 172.353C216.72 172.396 217.635 172.677 218.437 173.169C218.555 173.248 218.698 173.283 218.839 173.266C218.98 173.249 219.111 173.182 219.207 173.078C219.263 173.018 219.306 172.947 219.332 172.869C219.359 172.792 219.368 172.709 219.359 172.628C219.35 172.547 219.324 172.468 219.282 172.398C219.24 172.327 219.183 172.267 219.115 172.221C218.229 171.62 217.192 171.281 216.121 171.242C213.847 171.175 213.199 171.588 213.199 171.588C213.199 171.588 212.184 172.292 212.434 172.955Z" fill="#F5F5F5"/>
<path d="M210.777 175.096C211.7 174.499 213.562 174.504 214.485 174.586C215.41 174.645 216.304 174.945 217.076 175.458C217.193 175.537 217.335 175.571 217.475 175.554C217.616 175.537 217.745 175.47 217.841 175.366C217.898 175.307 217.942 175.237 217.969 175.159C217.996 175.082 218.006 174.999 217.998 174.918C217.99 174.836 217.964 174.757 217.921 174.686C217.879 174.616 217.822 174.555 217.754 174.509C216.853 173.877 215.793 173.51 214.694 173.449C212.414 173.377 211.843 173.862 211.843 173.862C211.584 173.974 211.354 174.143 211.169 174.357C210.985 174.571 210.851 174.823 210.777 175.096Z" fill="#F5F5F5"/>
<path d="M216.935 169.036C215.972 168.905 214.992 169.024 214.089 169.383C213.702 169.623 213.462 170.265 213.722 170.403C214.512 170.048 215.378 169.894 216.241 169.954C217.095 170.004 217.933 170.201 218.72 170.536C218.919 170.612 219.154 170.724 219.358 170.826C219.423 170.86 219.494 170.88 219.567 170.884C219.641 170.889 219.714 170.879 219.783 170.855C219.852 170.831 219.916 170.793 219.97 170.743C220.024 170.693 220.067 170.633 220.097 170.566C220.145 170.45 220.149 170.321 220.108 170.202C220.066 170.083 219.983 169.984 219.873 169.924C218.969 169.42 217.967 169.118 216.935 169.036Z" fill="#F5F5F5"/>
<path d="M177.51 170.443C177.278 171.026 177.278 171.675 177.51 172.259C177.734 172.804 180.437 174.497 184.191 174.426C186.982 174.358 189.705 173.545 192.076 172.07C193.549 171.193 195.044 171.085 196.9 171.05C198.757 171.014 201.235 170.224 201.684 169.377C202.133 168.53 201.735 167.016 201.735 167.016L177.51 170.443Z" fill="#263238"/>
<path d="M193.169 159.478L192.878 159.402C192.713 159.352 192.54 159.336 192.368 159.356C192.185 159.4 192.019 159.5 191.894 159.642C191.508 160.094 191.166 160.582 190.874 161.1C190.032 162.34 188.324 163.324 186.488 164.206C185.233 164.803 184.014 165.257 182.724 165.762C181.434 166.267 179.664 166.552 178.644 167.185C177.114 168.108 176.823 170.581 178.445 171.642C179.853 172.56 183.606 173.657 187.625 172.718C189.823 172.208 192.343 170.005 195.199 169.918C197.02 169.862 200.467 169.515 201.696 168.194C202.16 167.608 201.696 165.644 201.283 163.951C200.855 162.105 201.049 159.361 200.222 159.361L200.171 160.284C200.095 160.56 199.447 160.83 199.243 161.044L198.509 161.819C198.208 162.178 197.841 162.476 197.428 162.697C196.698 163.023 195.847 162.829 195.066 162.625C195.036 162.625 195.459 161.207 195.505 161.07C195.551 160.962 195.565 160.843 195.546 160.728C195.507 160.615 195.429 160.519 195.326 160.458C194.683 159.986 193.948 159.652 193.169 159.478Z" fill="#455A64"/>
<path d="M188.23 163.297C188.373 163.054 188.574 162.851 188.816 162.705C189.057 162.56 189.331 162.478 189.613 162.465C190.444 162.353 191.867 163.026 192.739 163.817C192.821 163.891 192.884 163.984 192.922 164.088C192.96 164.192 192.972 164.304 192.957 164.413C192.942 164.523 192.9 164.627 192.835 164.717C192.771 164.807 192.685 164.88 192.586 164.929C192.462 164.99 192.321 165.012 192.184 164.99C192.047 164.968 191.92 164.904 191.821 164.806C190.866 163.855 189.578 163.314 188.23 163.297Z" fill="#F5F5F5"/>
<path d="M185.609 164.605C185.801 164.361 186.048 164.166 186.33 164.037C186.612 163.909 186.921 163.85 187.231 163.866C187.231 163.866 189.383 164.029 190.653 165.335C190.732 165.406 190.792 165.496 190.828 165.595C190.864 165.695 190.876 165.802 190.862 165.907C190.848 166.013 190.809 166.113 190.747 166.2C190.686 166.286 190.605 166.357 190.511 166.406C190.39 166.464 190.255 166.485 190.122 166.464C189.99 166.443 189.867 166.381 189.771 166.288C189.248 165.713 188.603 165.263 187.882 164.972C187.162 164.68 186.385 164.555 185.609 164.605Z" fill="#F5F5F5"/>
<path d="M182.727 165.763C182.943 165.539 183.206 165.364 183.496 165.25C183.787 165.137 184.098 165.087 184.41 165.105C185.629 165.24 186.775 165.755 187.684 166.579C187.762 166.651 187.822 166.741 187.858 166.841C187.895 166.941 187.906 167.049 187.892 167.154C187.878 167.26 187.839 167.36 187.778 167.448C187.717 167.535 187.636 167.606 187.541 167.655C187.42 167.715 187.284 167.735 187.152 167.713C187.019 167.691 186.896 167.628 186.802 167.533C186.307 166.941 185.68 166.474 184.973 166.166C184.266 165.859 183.497 165.721 182.727 165.763Z" fill="#F5F5F5"/>
<path d="M209.373 34.0808C211.78 34.3562 214.626 34.5041 216.926 34.805C219.889 35.1926 222.2 38.2577 222.924 43.0008C223.72 48.2233 220.374 63.1972 220.374 63.1972L221.44 80.8537C217.1 84.0514 198.617 85.7294 189.406 79.0788C189.406 79.0788 189.62 49.0291 190.34 44.3982C191.329 38.0486 192.89 34.1063 200.03 33.6523L209.373 34.0808Z" fill="#455A64"/>
<path d="M225.832 72.3315C225.052 73.6371 224.267 74.9427 223.461 76.233C223.165 76.7124 222.864 77.1868 222.553 77.656C222.384 77.8856 222.187 78.093 221.966 78.2731C221.579 78.5383 220.773 78.37 220.304 78.3853C217.999 78.4635 215.7 78.6335 213.409 78.8953C213.217 78.8893 213.026 78.9255 212.85 79.0012C212.674 79.077 212.516 79.1906 212.389 79.3339C212.294 79.5314 212.276 79.7565 212.336 79.9668C212.396 80.1772 212.531 80.3584 212.715 80.4763C213.09 80.7017 213.517 80.828 213.954 80.8435L215.943 81.0781C216.227 81.0877 216.502 81.176 216.739 81.3331C217.463 81.9196 216.081 82.6234 215.668 82.909C214.837 83.4862 213.95 83.9783 213.021 84.3779C208.875 86.1221 208.37 87.3869 209.135 88.8252C209.798 90.0747 212.664 94.6189 219.947 90.7071C222.879 89.1312 227.342 84.1535 229.377 81.7462C232.304 78.2731 237.257 70.526 237.257 70.526C240.072 66.6602 240.434 65.074 240.5 63.4675C240.567 61.861 231.83 49.5035 228.862 45.1633C225.894 40.8231 224.481 35.5445 216.928 34.8203C216.928 34.8203 214.051 43.9393 218.815 49.8401L229.816 65.1862C229.816 65.1862 226.903 70.5413 225.832 72.3315Z" fill="#FFA8A7"/>
<path d="M233.811 51.052C232.399 49.0119 230.925 46.9107 229.502 44.8299C223.509 36.0832 224.014 34.4818 215.374 34.3594C214.609 35.5324 214.156 40.5815 215.308 45.651C216.272 49.9095 219.898 52.9135 219.898 52.9135L224.223 58.7735C224.223 58.7735 226.87 58.6919 230.042 56.3663C231.874 55.0829 233.206 53.2053 233.811 51.052Z" fill="#37474F"/>
<path d="M215.07 11.0995C214.635 10.4523 214.034 9.93502 213.329 9.60273C212.624 9.27043 211.842 9.13554 211.066 9.21243L210.617 20.1623L209.883 24.2067L210.01 28.7101C210.437 28.6498 210.841 28.4825 211.185 28.2239C211.529 27.9653 211.802 27.6237 211.979 27.231C212.652 25.9356 214.529 19.6727 214.529 19.6727C216.212 14.5267 215.855 12.2011 215.07 11.0995Z" fill="#263238"/>
<path d="M210.106 20.2076C210.295 19.5421 210.659 18.9397 211.161 18.4634C211.789 17.7902 214.288 17.0608 215.425 19.1825C216.562 21.3041 214.645 24.1041 213.166 24.9609C211.273 26.0625 210.162 24.5631 210.162 24.5631L210.208 34.646C209.325 36.686 205.342 38.5016 202.971 38.216C201.083 37.9763 199.344 36.4922 201.032 34.3297L200.895 31.4533C200.895 31.4533 198.37 31.9633 197.121 31.8358C195.045 31.6216 193.663 30.0559 192.928 27.8526C191.745 24.3132 191.22 21.4367 191.72 14.3374C192.271 6.55976 201.262 6.03445 206.275 8.8497C211.289 11.665 210.106 20.2076 210.106 20.2076Z" fill="#FFA8A7"/>
<path d="M188.861 6.25928C188.631 4.56095 189.218 2.74022 190.998 2.13841C191.651 1.86517 192.368 1.78195 193.066 1.89835C193.765 2.01474 194.416 2.32602 194.945 2.79632C195.168 2.19717 195.554 1.67212 196.059 1.28019C196.565 0.888257 197.169 0.644976 197.805 0.577686C198.441 0.510396 199.083 0.621764 199.659 0.899275C200.235 1.17678 200.722 1.60944 201.065 2.14861C201.538 1.43051 202.268 0.921181 203.105 0.725687C203.622 0.610429 204.156 0.599787 204.676 0.694393C205.196 0.788998 205.692 0.98693 206.135 1.2765C206.859 1.812 207.711 2.80652 207.497 4.09685C208.93 3.52054 210.424 3.99994 211.49 5.26476C212.124 6.03929 212.483 7.00274 212.51 8.00351C212.547 8.52333 212.472 9.04502 212.291 9.53354C212.087 9.99765 211.668 10.3037 211.546 10.829C211.368 11.2911 211.276 11.7821 211.276 12.2774C211.393 13.1342 211.582 13.991 211.694 14.8274C211.815 15.6605 211.885 16.5002 211.903 17.3418C211.876 17.5397 211.808 17.7296 211.701 17.8986C211.595 18.0675 211.453 18.2116 211.286 18.321C210.81 18.7374 210.441 19.2622 210.21 19.851C210.031 20.2182 209.858 21.126 209.506 21.3811C208.42 22.141 208.297 19.6827 208.246 19.2084C208.176 18.1198 208.176 17.0279 208.246 15.9393C207.698 15.9322 207.158 15.8105 206.66 15.5822C206.162 15.3538 205.717 15.0237 205.355 14.6132C204.978 14.1519 204.73 13.5995 204.635 13.0118C204.577 12.6751 204.549 12.3336 204.554 11.9918C203.845 13.1648 202.198 13.6442 201.025 13.5218C199.056 13.3433 198.378 12.5018 198.061 11.8847C197.937 12.493 197.669 13.0629 197.281 13.5473C196.778 14.0199 196.172 14.3691 195.511 14.5673C194.941 14.7195 194.34 14.7134 193.773 14.5499C193.206 14.3864 192.695 14.0715 192.293 13.6391C191.493 14.7866 189.463 14.2766 189.014 13.9553C187.994 13.2158 187.662 12.3335 187.55 11.0738C187.438 9.81405 187.948 8.37582 189.345 7.88111C189.093 7.37173 188.93 6.82336 188.861 6.25928Z" fill="#263238"/>
<path d="M200.898 31.4416C200.898 31.4416 205.458 30.289 207.019 29.3506C207.942 28.8101 208.679 28.0029 209.135 27.0352C208.938 27.9898 208.551 28.8951 207.998 29.6974C206.896 31.2631 200.949 32.6708 200.949 32.6708L200.898 31.4416Z" fill="#F28F8F"/>
<path d="M201.15 19.8741C201.167 20.0673 201.241 20.2512 201.362 20.4029C201.483 20.5545 201.645 20.6674 201.83 20.7273C202.014 20.7872 202.212 20.7916 202.399 20.7399C202.586 20.6882 202.754 20.5828 202.881 20.4366C203.009 20.2904 203.091 20.11 203.116 19.9178C203.142 19.7255 203.111 19.53 203.026 19.3554C202.942 19.1808 202.808 19.0349 202.641 18.9358C202.474 18.8367 202.282 18.7888 202.089 18.798C201.822 18.8189 201.575 18.9433 201.4 19.1445C201.224 19.3457 201.135 19.6076 201.15 19.8741Z" fill="#263238"/>
<path d="M199.624 27.2534C199.647 27.5022 199.743 27.7387 199.9 27.9334C200.056 28.1282 200.267 28.2726 200.505 28.3488C200.743 28.4249 200.998 28.4295 201.239 28.3618C201.479 28.2942 201.694 28.1573 201.858 27.9682C202.021 27.7792 202.126 27.5463 202.158 27.2984C202.19 27.0506 202.149 26.7988 202.039 26.5743C201.929 26.3498 201.756 26.1625 201.54 26.0357C201.325 25.9089 201.077 25.8482 200.828 25.8611C200.484 25.8885 200.165 26.0499 199.94 26.3105C199.715 26.571 199.601 26.9097 199.624 27.2534Z" fill="#F28F8F"/>
<path d="M201.973 16.4756L204.074 17.4956C204.205 17.2076 204.22 16.8803 204.117 16.5814C204.013 16.2824 203.799 16.0346 203.518 15.8891C203.379 15.8224 203.227 15.7848 203.073 15.7783C202.918 15.7719 202.764 15.7969 202.62 15.8517C202.475 15.9065 202.344 15.9901 202.232 16.0973C202.121 16.2046 202.033 16.3332 201.973 16.4756Z" fill="#263238"/>
<path d="M192.835 17.3552L194.625 15.8252C194.532 15.7032 194.415 15.6015 194.281 15.5264C194.147 15.4514 193.999 15.4045 193.846 15.3888C193.693 15.373 193.538 15.3887 193.392 15.4348C193.245 15.4809 193.11 15.5565 192.993 15.6569C192.755 15.8659 192.605 16.1586 192.576 16.4746C192.546 16.7905 192.639 17.1057 192.835 17.3552Z" fill="#263238"/>
<path d="M193.368 19.6736C193.381 19.8623 193.449 20.0431 193.563 20.1933C193.678 20.3435 193.835 20.4565 194.014 20.5179C194.192 20.5794 194.385 20.5866 194.568 20.5387C194.751 20.4908 194.916 20.3898 195.041 20.2486C195.167 20.1074 195.248 19.9321 195.275 19.7449C195.301 19.5577 195.271 19.3669 195.19 19.1964C195.108 19.026 194.978 18.8835 194.815 18.7869C194.652 18.6903 194.465 18.6439 194.276 18.6536C194.021 18.6707 193.783 18.7871 193.614 18.9779C193.444 19.1687 193.356 19.4185 193.368 19.6736Z" fill="#263238"/>
<path d="M198.102 18.5391L198.072 24.5725L194.879 23.6545L198.102 18.5391Z" fill="#F28F8F"/>
<path d="M190.088 26.986C190.118 26.9795 190.145 26.9671 190.17 26.9496C190.195 26.932 190.215 26.9098 190.231 26.884C190.249 26.8588 190.262 26.8302 190.269 26.7999C190.275 26.7696 190.276 26.7382 190.27 26.7077C190.265 26.6772 190.253 26.6482 190.235 26.6224C190.218 26.5966 190.196 26.5746 190.17 26.5576L187.395 24.7114C187.37 24.6942 187.341 24.6823 187.31 24.6763C187.28 24.6703 187.249 24.6704 187.218 24.6766C187.188 24.6827 187.159 24.6948 187.134 24.7122C187.108 24.7296 187.086 24.7518 187.069 24.7777C187.051 24.8032 187.039 24.8321 187.032 24.8626C187.026 24.8931 187.026 24.9246 187.032 24.9551C187.038 24.9857 187.051 25.0146 187.068 25.0403C187.086 25.0659 187.109 25.0876 187.135 25.1041L189.905 26.9503C189.931 26.9694 189.961 26.9826 189.992 26.9887C190.024 26.9949 190.057 26.994 190.088 26.986Z" fill="#E0E0E0"/>
<path d="M189.793 28.1741C189.836 28.1633 189.875 28.141 189.907 28.1096C189.938 28.0781 189.961 28.0387 189.971 27.9956C189.985 27.934 189.974 27.8696 189.941 27.8161C189.907 27.7627 189.854 27.7245 189.793 27.7099L186.549 26.9602C186.519 26.9526 186.488 26.9511 186.457 26.9557C186.426 26.9604 186.397 26.9711 186.37 26.9872C186.344 27.0033 186.32 27.0246 186.302 27.0497C186.284 27.0749 186.271 27.1034 186.264 27.1336C186.25 27.1952 186.261 27.2596 186.294 27.3131C186.328 27.3665 186.381 27.4047 186.442 27.4192L189.686 28.1741C189.721 28.1791 189.757 28.1791 189.793 28.1741Z" fill="#E0E0E0"/>
<path d="M186.779 30.335H186.809L189.936 29.1926C189.995 29.171 190.042 29.1268 190.069 29.0699C190.095 29.013 190.098 28.948 190.076 28.8892C190.054 28.8303 190.01 28.7825 189.953 28.7562C189.896 28.7299 189.831 28.7273 189.772 28.7489L186.646 29.8913C186.617 29.9021 186.59 29.9186 186.567 29.9399C186.544 29.9612 186.526 29.9868 186.513 30.0153C186.5 30.0439 186.493 30.0746 186.492 30.1059C186.491 30.1371 186.497 30.1682 186.508 30.1973C186.53 30.2486 186.569 30.2905 186.618 30.3157C186.668 30.341 186.725 30.3478 186.779 30.335Z" fill="#E0E0E0"/>
<path d="M160.33 54.7992C160.394 54.9286 160.495 55.0363 160.621 55.1089C160.746 55.1815 160.889 55.2159 161.033 55.2077C161.178 55.1996 161.317 55.1493 161.433 55.0631C161.549 54.9769 161.637 54.8586 161.687 54.7227L164.012 48.9851C164.05 48.8932 164.069 48.7945 164.068 48.6951C164.066 48.5957 164.045 48.4975 164.005 48.4065C163.965 48.3155 163.907 48.2335 163.835 48.1654C163.762 48.0973 163.677 48.0446 163.583 48.0103C163.49 47.976 163.391 47.9608 163.291 47.9658C163.192 47.9707 163.095 47.9956 163.005 48.039C162.916 48.0824 162.836 48.1434 162.771 48.2183C162.705 48.2933 162.656 48.3806 162.625 48.4751L160.294 54.2127C160.26 54.3077 160.245 54.4088 160.251 54.5097C160.258 54.6106 160.284 54.7091 160.33 54.7992Z" fill="#E0E0E0"/>
<path d="M156.499 54.7682C156.574 54.9185 156.697 55.0392 156.849 55.1103C157.001 55.1815 157.172 55.1989 157.335 55.1598C157.498 55.1207 157.643 55.0273 157.746 54.895C157.849 54.7626 157.904 54.5992 157.902 54.4316L157.825 47.2914C157.81 47.1066 157.726 46.9342 157.589 46.8086C157.453 46.683 157.274 46.6133 157.089 46.6133C156.903 46.6133 156.724 46.683 156.588 46.8086C156.451 46.9342 156.367 47.1066 156.352 47.2914L156.423 54.4316C156.422 54.5482 156.448 54.6636 156.499 54.7682Z" fill="#E0E0E0"/>
<path d="M150.008 50.7913L150.054 50.878L153.568 55.9781C153.677 56.1396 153.845 56.2516 154.036 56.2898C154.227 56.328 154.425 56.2893 154.588 56.1821C154.746 56.0707 154.856 55.9023 154.893 55.7122C154.93 55.522 154.892 55.3249 154.787 55.1621L151.273 50.062C151.171 49.9038 151.011 49.791 150.828 49.7469C150.645 49.7029 150.452 49.7309 150.289 49.8252C150.126 49.9196 150.005 50.073 149.952 50.2537C149.899 50.4345 149.917 50.6288 150.003 50.7964L150.008 50.7913Z" fill="#E0E0E0"/>
</svg>
