<svg width="24" height="25" viewBox="0 0 24 25" fill="none" xmlns="http://www.w3.org/2000/svg">
<mask id="path-1-outside-1_8626_16499" maskUnits="userSpaceOnUse" x="0" y="0.5" width="24" height="19" fill="black">
<rect fill="white" y="0.5" width="24" height="19"/>
<path d="M2 2.5H3.74001C4.82001 2.5 5.67 3.43 5.58 4.5L4.75 14.46C4.61 16.09 5.89999 17.49 7.53999 17.49H18.19C19.63 17.49 20.89 16.31 21 14.88L21.54 7.38C21.66 5.72001 20.4 4.37 18.73 4.37H5.82001"/>
</mask>
<path d="M2 1C1.17157 1 0.5 1.67157 0.5 2.5C0.5 3.32843 1.17157 4 2 4V1ZM5.58 4.5L4.08528 4.37428L4.08518 4.37543L5.58 4.5ZM4.75 14.46L6.2445 14.5884L6.24482 14.5846L4.75 14.46ZM21 14.88L22.4956 14.9951L22.4961 14.9877L21 14.88ZM21.54 7.38L20.0439 7.27185L20.0439 7.27228L21.54 7.38ZM5.82001 2.87C4.99158 2.87 4.32001 3.54157 4.32001 4.37C4.32001 5.19842 4.99158 5.87 5.82001 5.87V2.87ZM2 4H3.74001V1H2V4ZM3.74001 4C3.93985 4 4.10187 4.17708 4.08528 4.37428L7.07472 4.62572C7.23814 2.68292 5.70016 1 3.74001 1V4ZM4.08518 4.37543L3.25518 14.3354L6.24482 14.5846L7.07482 4.62457L4.08518 4.37543ZM3.2555 14.3316C3.03984 16.8426 5.02605 18.99 7.53999 18.99V15.99C6.77394 15.99 6.18016 15.3374 6.2445 14.5884L3.2555 14.3316ZM7.53999 18.99H18.19V15.99H7.53999V18.99ZM18.19 18.99C20.4214 18.99 22.326 17.199 22.4956 14.995L19.5044 14.765C19.454 15.421 18.8386 15.99 18.19 15.99V18.99ZM22.4961 14.9877L23.0361 7.48772L20.0439 7.27228L19.5039 14.7723L22.4961 14.9877ZM23.0361 7.48816C23.2192 4.95445 21.266 2.87 18.73 2.87V5.87C19.5339 5.87 20.1007 6.48556 20.0439 7.27185L23.0361 7.48816ZM18.73 2.87H5.82001V5.87H18.73V2.87Z" fill="#110D17" mask="url(#path-1-outside-1_8626_16499)"/>
<path opacity="0.4" d="M16.25 22.5C16.9404 22.5 17.5 21.9404 17.5 21.25C17.5 20.5596 16.9404 20 16.25 20C15.5596 20 15 20.5596 15 21.25C15 21.9404 15.5596 22.5 16.25 22.5Z" stroke="#110D17" stroke-width="1.5" stroke-miterlimit="10" stroke-linecap="round" stroke-linejoin="round"/>
<path opacity="0.4" d="M8.25 22.5C8.94036 22.5 9.5 21.9404 9.5 21.25C9.5 20.5596 8.94036 20 8.25 20C7.55964 20 7 20.5596 7 21.25C7 21.9404 7.55964 22.5 8.25 22.5Z" stroke="#110D17" stroke-width="1.5" stroke-miterlimit="10" stroke-linecap="round" stroke-linejoin="round"/>
<path opacity="0.4" d="M9 8.5H21" stroke="#110D17" stroke-width="1.5" stroke-miterlimit="10" stroke-linecap="round" stroke-linejoin="round"/>
</svg>
