<svg width="20" height="20" viewBox="0 0 20 20" fill="none" xmlns="http://www.w3.org/2000/svg">
<path opacity="0.4" d="M17.0089 5.80313V8.16979L6.16719 16.1198L3.97552 14.4781C3.43385 14.0698 2.99219 13.1948 2.99219 12.5198V5.80313C2.99219 4.86979 3.70885 3.83646 4.58385 3.51146L9.14219 1.80313C9.61719 1.62813 10.3839 1.62813 10.8589 1.80313L15.4172 3.51146C16.2922 3.83646 17.0089 4.86979 17.0089 5.80313Z" fill="#777777"/>
<path d="M17.0047 9.30469V12.513C17.0047 13.188 16.563 14.063 16.0214 14.4714L11.463 17.8797C11.063 18.1797 10.5297 18.3297 9.99635 18.3297C9.46302 18.3297 8.92969 18.1797 8.52969 17.8797L6.92969 16.688L17.0047 9.30469Z" fill="#777777"/>
</svg>
