<svg width="25" height="25" viewBox="0 0 25 25" fill="none" xmlns="http://www.w3.org/2000/svg">
<path d="M14.2289 3.995L15.9889 7.515C16.2289 8.005 16.8689 8.475 17.4089 8.565L20.5989 9.095C22.6389 9.435 23.1189 10.915 21.6489 12.375L19.1689 14.855C18.7489 15.275 18.5189 16.085 18.6489 16.665L19.3589 19.735C19.9189 22.165 18.6289 23.105 16.4789 21.835L13.4889 20.065C12.9489 19.745 12.0589 19.745 11.5089 20.065L8.51893 21.835C6.37893 23.105 5.07893 22.155 5.63893 19.735L6.34893 16.665C6.47893 16.085 6.24893 15.275 5.82893 14.855L3.34893 12.375C1.88893 10.915 2.35893 9.435 4.39893 9.095L7.58893 8.565C8.11893 8.475 8.75893 8.005 8.99893 7.515L10.7589 3.995C11.7189 2.085 13.2789 2.085 14.2289 3.995Z" fill="#41B4A6" stroke="#41B4A6" stroke-width="1.5" stroke-linecap="round" stroke-linejoin="round"/>
</svg>
