<svg width="25" height="24" viewBox="0 0 25 24" fill="none" xmlns="http://www.w3.org/2000/svg">
<path d="M14.2289 3.51063L15.9889 7.03063C16.2289 7.52063 16.8689 7.99063 17.4089 8.08063L20.5989 8.61062C22.6389 8.95062 23.1189 10.4306 21.6489 11.8906L19.1689 14.3706C18.7489 14.7906 18.5189 15.6006 18.6489 16.1806L19.3589 19.2506C19.9189 21.6806 18.6289 22.6206 16.4789 21.3506L13.4889 19.5806C12.9489 19.2606 12.0589 19.2606 11.5089 19.5806L8.51893 21.3506C6.37893 22.6206 5.07893 21.6706 5.63893 19.2506L6.34893 16.1806C6.47893 15.6006 6.24893 14.7906 5.82893 14.3706L3.34893 11.8906C1.88893 10.4306 2.35893 8.95062 4.39893 8.61062L7.58893 8.08063C8.11893 7.99063 8.75893 7.52063 8.99893 7.03063L10.7589 3.51063C11.7189 1.60063 13.2789 1.60063 14.2289 3.51063Z" stroke="#C8C8C8" stroke-width="1.5" stroke-linecap="round" stroke-linejoin="round"/>
</svg>
