<svg width="20" height="20" viewBox="0 0 20 20" fill="none" xmlns="http://www.w3.org/2000/svg">
<g opacity="0.4">
<path d="M7.08325 11.875C7.08325 13.475 8.39992 14.7917 9.99992 14.7917C11.5999 14.7917 12.9166 13.475 12.9166 11.875" stroke="url(#paint0_linear_7780_11247)" stroke-width="1.5" stroke-miterlimit="10" stroke-linecap="round" stroke-linejoin="round"/>
<path d="M7.34113 1.66663L4.32446 4.69163" stroke="url(#paint1_linear_7780_11247)" stroke-width="1.5" stroke-miterlimit="10" stroke-linecap="round" stroke-linejoin="round"/>
<path d="M12.6577 1.66663L15.6744 4.69163" stroke="url(#paint2_linear_7780_11247)" stroke-width="1.5" stroke-miterlimit="10" stroke-linecap="round" stroke-linejoin="round"/>
</g>
<path d="M1.66675 6.54167C1.66675 5 2.49175 4.875 3.51675 4.875H16.4834C17.5084 4.875 18.3334 5 18.3334 6.54167C18.3334 8.33333 17.5084 8.20833 16.4834 8.20833H3.51675C2.49175 8.20833 1.66675 8.33333 1.66675 6.54167Z" stroke="url(#paint3_linear_7780_11247)" stroke-width="1.5"/>
<path d="M2.91675 8.33337L4.09175 15.5334C4.35841 17.15 5.00008 18.3334 7.38341 18.3334H12.4084C15.0001 18.3334 15.3834 17.2 15.6834 15.6334L17.0834 8.33337" stroke="url(#paint4_linear_7780_11247)" stroke-width="1.5" stroke-linecap="round"/>
<defs>
<linearGradient id="paint0_linear_7780_11247" x1="7.08325" y1="11.875" x2="9.41659" y2="16.5417" gradientUnits="userSpaceOnUse">
<stop stop-color="#56CCF2"/>
<stop offset="1" stop-color="#2F80ED"/>
</linearGradient>
<linearGradient id="paint1_linear_7780_11247" x1="4.32446" y1="1.66663" x2="7.34945" y2="4.68328" gradientUnits="userSpaceOnUse">
<stop stop-color="#56CCF2"/>
<stop offset="1" stop-color="#2F80ED"/>
</linearGradient>
<linearGradient id="paint2_linear_7780_11247" x1="12.6577" y1="1.66663" x2="15.6827" y2="4.68328" gradientUnits="userSpaceOnUse">
<stop stop-color="#56CCF2"/>
<stop offset="1" stop-color="#2F80ED"/>
</linearGradient>
<linearGradient id="paint3_linear_7780_11247" x1="1.66675" y1="4.875" x2="2.95019" y2="11.2886" gradientUnits="userSpaceOnUse">
<stop stop-color="#56CCF2"/>
<stop offset="1" stop-color="#2F80ED"/>
</linearGradient>
<linearGradient id="paint4_linear_7780_11247" x1="2.91675" y1="8.33337" x2="12.3394" y2="21.6821" gradientUnits="userSpaceOnUse">
<stop stop-color="#56CCF2"/>
<stop offset="1" stop-color="#2F80ED"/>
</linearGradient>
</defs>
</svg>
