<svg width="36" height="36" viewBox="0 0 36 36" fill="none" xmlns="http://www.w3.org/2000/svg">
<rect width="36" height="36" rx="18" fill="#DCF8F5"/>
<path opacity="0.4" d="M27.3728 17.3901V23.3801C27.3728 26.1401 25.1328 28.3801 22.3728 28.3801H13.6328C10.8728 28.3801 8.63281 26.1401 8.63281 23.3801V17.4601C9.39281 18.2801 10.4728 18.7501 11.6428 18.7501C12.9028 18.7501 14.1128 18.1201 14.8728 17.1101C15.5528 18.1201 16.7128 18.7501 18.0028 18.7501C19.2828 18.7501 20.4228 18.1501 21.1128 17.1501C21.8828 18.1401 23.0728 18.7501 24.3128 18.7501C25.5228 18.7501 26.6228 18.2601 27.3728 17.3901Z" fill="#0C9787"/>
<path d="M20.9913 7.25H14.9913L14.2513 14.61C14.1913 15.29 14.2913 15.93 14.5413 16.51C15.1213 17.87 16.4813 18.75 18.0013 18.75C19.5413 18.75 20.8713 17.89 21.4713 16.52C21.6513 16.09 21.7613 15.59 21.7713 15.08V14.89L20.9913 7.25Z" fill="#0C9787"/>
<path opacity="0.6" d="M28.3578 14.27L28.0678 11.5C27.6478 8.48 26.2778 7.25 23.3478 7.25H19.5078L20.2478 14.75C20.2578 14.85 20.2678 14.96 20.2678 15.15C20.3278 15.67 20.4878 16.15 20.7278 16.58C21.4478 17.9 22.8478 18.75 24.3078 18.75C25.6378 18.75 26.8378 18.16 27.5878 17.12C28.1878 16.32 28.4578 15.31 28.3578 14.27Z" fill="#0C9787"/>
<path opacity="0.6" d="M12.5897 7.25C9.64965 7.25 8.28965 8.48 7.85965 11.53L7.58965 14.28C7.48965 15.35 7.77965 16.39 8.40965 17.2C9.16965 18.19 10.3396 18.75 11.6396 18.75C13.0996 18.75 14.4997 17.9 15.2097 16.6C15.4697 16.15 15.6396 15.63 15.6896 15.09L16.4697 7.26H12.5897V7.25Z" fill="#0C9787"/>
<path d="M17.3472 22.66C16.0772 22.79 15.1172 23.87 15.1172 25.15V28.38H20.8672V25.5C20.8772 23.41 19.6472 22.42 17.3472 22.66Z" fill="#0C9787"/>
</svg>
