<svg width="24" height="24" viewBox="0 0 24 24" fill="none" xmlns="http://www.w3.org/2000/svg">
<path opacity="0.4" d="M21.3728 11.3901V17.3801C21.3728 20.1401 19.1328 22.3801 16.3728 22.3801H7.63281C4.87281 22.3801 2.63281 20.1401 2.63281 17.3801V11.4601C3.39281 12.2801 4.47281 12.7501 5.64281 12.7501C6.90281 12.7501 8.11281 12.1201 8.87281 11.1101C9.55281 12.1201 10.7128 12.7501 12.0028 12.7501C13.2828 12.7501 14.4228 12.1501 15.1128 11.1501C15.8828 12.1401 17.0728 12.7501 18.3128 12.7501C19.5228 12.7501 20.6228 12.2601 21.3728 11.3901Z" fill="#0C9787"/>
<path d="M14.9913 1.25H8.99132L8.25132 8.61C8.19132 9.29 8.29132 9.93 8.54132 10.51C9.12132 11.87 10.4813 12.75 12.0013 12.75C13.5413 12.75 14.8713 11.89 15.4713 10.52C15.6513 10.09 15.7613 9.59 15.7713 9.08V8.89L14.9913 1.25Z" fill="#0C9787"/>
<path opacity="0.6" d="M22.3578 8.27L22.0678 5.5C21.6478 2.48 20.2778 1.25 17.3478 1.25H13.5078L14.2478 8.75C14.2578 8.85 14.2678 8.96 14.2678 9.15C14.3278 9.67 14.4878 10.15 14.7278 10.58C15.4478 11.9 16.8478 12.75 18.3078 12.75C19.6378 12.75 20.8378 12.16 21.5878 11.12C22.1878 10.32 22.4578 9.31 22.3578 8.27Z" fill="#0C9787"/>
<path opacity="0.6" d="M6.58965 1.25C3.64965 1.25 2.28965 2.48 1.85965 5.53L1.58965 8.28C1.48965 9.35 1.77965 10.39 2.40965 11.2C3.16965 12.19 4.33965 12.75 5.63965 12.75C7.09965 12.75 8.49965 11.9 9.20965 10.6C9.46965 10.15 9.63965 9.63 9.68965 9.09L10.4697 1.26H6.58965V1.25Z" fill="#0C9787"/>
<path d="M11.3472 16.66C10.0772 16.79 9.11719 17.87 9.11719 19.15V22.38H14.8672V19.5C14.8772 17.41 13.6472 16.42 11.3472 16.66Z" fill="#0C9787"/>
</svg>
