<svg width="25" height="19" viewBox="0 0 25 19" fill="none" xmlns="http://www.w3.org/2000/svg">
<path d="M3.77344 15.2188H7.67527" stroke="#110D17" stroke-width="2" stroke-linecap="round"/>
<path d="M12.202 2.84766H2.01822C1.68006 2.87367 1.00374 3.11298 1.00374 3.86213V16.5041C0.964725 16.8942 1.21444 17.6746 2.52546 17.6746H20.3178C20.708 17.7136 21.4884 17.5341 21.4884 16.5041V10.8464M1.1208 5.53992H12.202" stroke="#110D17" stroke-width="1.5" stroke-linecap="round"/>
<path d="M24.2504 5.85275C24.2504 8.67091 21.9658 10.9555 19.1477 10.9555C16.3295 10.9555 14.0449 8.67091 14.0449 5.85275C14.0449 3.03458 16.3295 0.75 19.1477 0.75C21.9658 0.75 24.2504 3.03458 24.2504 5.85275Z" stroke="#110D17" stroke-width="1.5"/>
<path d="M19.1074 2.06641V5.81216H21.9948" stroke="#110D17" stroke-width="1.5" stroke-linecap="round"/>
</svg>
