<svg width="24" height="25" viewBox="0 0 24 25" fill="none" xmlns="http://www.w3.org/2000/svg">
<path opacity="0.4" d="M12 22.5C17.5228 22.5 22 18.0228 22 12.5C22 6.97715 17.5228 2.5 12 2.5C6.47715 2.5 2 6.97715 2 12.5C2 18.0228 6.47715 22.5 12 22.5Z" fill="#0BAE54"/>
<path d="M10.5775 16.0801C10.3775 16.0801 10.1875 16.0001 10.0475 15.8601L7.2175 13.0301C6.9275 12.7401 6.9275 12.2601 7.2175 11.9701C7.5075 11.6801 7.9875 11.6801 8.2775 11.9701L10.5775 14.2701L15.7175 9.1301C16.0075 8.8401 16.4875 8.8401 16.7775 9.1301C17.0675 9.4201 17.0675 9.9001 16.7775 10.1901L11.1075 15.8601C10.9675 16.0001 10.7775 16.0801 10.5775 16.0801Z" fill="#0BAE54"/>
</svg>
