<svg width="25" height="25" viewBox="0 0 25 25" fill="none" xmlns="http://www.w3.org/2000/svg">
<path opacity="0.4" d="M12.5 22.5C18.0228 22.5 22.5 18.0228 22.5 12.5C22.5 6.97715 18.0228 2.5 12.5 2.5C6.97715 2.5 2.5 6.97715 2.5 12.5C2.5 18.0228 6.97715 22.5 12.5 22.5Z" fill="#C8C8C8"/>
<path d="M11.0775 16.0801C10.8775 16.0801 10.6875 16.0001 10.5475 15.8601L7.7175 13.0301C7.4275 12.7401 7.4275 12.2601 7.7175 11.9701C8.0075 11.6801 8.4875 11.6801 8.7775 11.9701L11.0775 14.2701L16.2175 9.1301C16.5075 8.8401 16.9875 8.8401 17.2775 9.1301C17.5675 9.4201 17.5675 9.9001 17.2775 10.1901L11.6075 15.8601C11.4675 16.0001 11.2775 16.0801 11.0775 16.0801Z" fill="#C8C8C8"/>
</svg>
