<svg width="20" height="20" viewBox="0 0 20 20" fill="none" xmlns="http://www.w3.org/2000/svg">
<g opacity="0.4">
<path d="M7.91675 11.4583C7.91675 12.2666 8.54176 12.9166 9.30843 12.9166H10.8751C11.5417 12.9166 12.0834 12.3499 12.0834 11.6416C12.0834 10.8833 11.7501 10.6083 11.2584 10.4333L8.75008 9.55828C8.25841 9.38328 7.92509 9.11662 7.92509 8.34995C7.92509 7.64995 8.46674 7.07495 9.13341 7.07495H10.7001C11.4667 7.07495 12.0918 7.72495 12.0918 8.53328" stroke="url(#paint0_linear_7780_11253)" stroke-width="1.5" stroke-linecap="round" stroke-linejoin="round"/>
<path d="M10 6.25V13.75" stroke="url(#paint1_linear_7780_11253)" stroke-width="1.5" stroke-linecap="round" stroke-linejoin="round"/>
</g>
<path d="M18.3334 9.99996C18.3334 14.6 14.6001 18.3333 10.0001 18.3333C5.40008 18.3333 1.66675 14.6 1.66675 9.99996C1.66675 5.39996 5.40008 1.66663 10.0001 1.66663" stroke="url(#paint2_linear_7780_11253)" stroke-width="1.5" stroke-linecap="round" stroke-linejoin="round"/>
<path d="M18.3333 4.99996V1.66663H15" stroke="url(#paint3_linear_7780_11253)" stroke-width="1.5" stroke-linecap="round" stroke-linejoin="round"/>
<path d="M14.1667 5.83329L18.3334 1.66663" stroke="#292D32" stroke-width="1.5" stroke-linecap="round" stroke-linejoin="round"/>
<defs>
<linearGradient id="paint0_linear_7780_11253" x1="7.91675" y1="7.07495" x2="13.4437" y2="11.025" gradientUnits="userSpaceOnUse">
<stop stop-color="#E100FF"/>
<stop offset="1" stop-color="#7F00FF"/>
</linearGradient>
<linearGradient id="paint1_linear_7780_11253" x1="10" y1="6.25" x2="11.9651" y2="6.51201" gradientUnits="userSpaceOnUse">
<stop stop-color="#E100FF"/>
<stop offset="1" stop-color="#7F00FF"/>
</linearGradient>
<linearGradient id="paint2_linear_7780_11253" x1="1.66675" y1="1.66663" x2="18.3334" y2="18.3333" gradientUnits="userSpaceOnUse">
<stop stop-color="#E100FF"/>
<stop offset="1" stop-color="#7F00FF"/>
</linearGradient>
<linearGradient id="paint3_linear_7780_11253" x1="15" y1="1.66663" x2="18.3333" y2="4.99996" gradientUnits="userSpaceOnUse">
<stop stop-color="#E100FF"/>
<stop offset="1" stop-color="#7F00FF"/>
</linearGradient>
</defs>
</svg>
