<svg width="16" height="16" viewBox="0 0 16 16" fill="none" xmlns="http://www.w3.org/2000/svg">
<path opacity="0.2" d="M13 8C13 8.39556 12.8827 8.78224 12.6629 9.11114C12.4432 9.44004 12.1308 9.69638 11.7654 9.84776C11.3999 9.99913 10.9978 10.0387 10.6098 9.96157C10.2219 9.8844 9.86549 9.69392 9.58579 9.41421C9.30608 9.13451 9.1156 8.77814 9.03843 8.39018C8.96126 8.00222 9.00087 7.60009 9.15224 7.23463C9.30362 6.86918 9.55996 6.55682 9.88886 6.33706C10.2178 6.1173 10.6044 6 11 6C11.5304 6 12.0391 6.21071 12.4142 6.58579C12.7893 6.96086 13 7.46957 13 8Z" fill="url(#paint0_linear_8241_18758)"/>
<path d="M11 3.5H5C3.80653 3.5 2.66193 3.97411 1.81802 4.81802C0.974106 5.66193 0.5 6.80653 0.5 8C0.5 9.19347 0.974106 10.3381 1.81802 11.182C2.66193 12.0259 3.80653 12.5 5 12.5H11C12.1935 12.5 13.3381 12.0259 14.182 11.182C15.0259 10.3381 15.5 9.19347 15.5 8C15.5 6.80653 15.0259 5.66193 14.182 4.81802C13.3381 3.97411 12.1935 3.5 11 3.5ZM11 11.5H5C4.07174 11.5 3.1815 11.1313 2.52513 10.4749C1.86875 9.8185 1.5 8.92826 1.5 8C1.5 7.07174 1.86875 6.1815 2.52513 5.52513C3.1815 4.86875 4.07174 4.5 5 4.5H11C11.9283 4.5 12.8185 4.86875 13.4749 5.52513C14.1313 6.1815 14.5 7.07174 14.5 8C14.5 8.92826 14.1313 9.8185 13.4749 10.4749C12.8185 11.1313 11.9283 11.5 11 11.5ZM11 5.5C10.5055 5.5 10.0222 5.64662 9.61107 5.92133C9.19995 6.19603 8.87952 6.58648 8.6903 7.04329C8.50108 7.50011 8.45157 8.00277 8.54804 8.48773C8.6445 8.97268 8.8826 9.41814 9.23223 9.76777C9.58186 10.1174 10.0273 10.3555 10.5123 10.452C10.9972 10.5484 11.4999 10.4989 11.9567 10.3097C12.4135 10.1205 12.804 9.80005 13.0787 9.38893C13.3534 8.9778 13.5 8.49445 13.5 8C13.5 7.33696 13.2366 6.70107 12.7678 6.23223C12.2989 5.76339 11.663 5.5 11 5.5ZM11 9.5C10.7033 9.5 10.4133 9.41203 10.1666 9.2472C9.91997 9.08238 9.72771 8.84811 9.61418 8.57403C9.50065 8.29994 9.47094 7.99834 9.52882 7.70736C9.5867 7.41639 9.72956 7.14912 9.93934 6.93934C10.1491 6.72956 10.4164 6.5867 10.7074 6.52882C10.9983 6.47094 11.2999 6.50065 11.574 6.61418C11.8481 6.72771 12.0824 6.91997 12.2472 7.16664C12.412 7.41332 12.5 7.70333 12.5 8C12.5 8.39782 12.342 8.77936 12.0607 9.06066C11.7794 9.34196 11.3978 9.5 11 9.5Z" fill="url(#paint1_linear_8241_18758)"/>
<defs>
<linearGradient id="paint0_linear_8241_18758" x1="10.6794" y1="3.5241" x2="17.8944" y2="10.8154" gradientUnits="userSpaceOnUse">
<stop stop-color="#005B41"/>
<stop offset="1" stop-color="#008170"/>
<stop offset="1" stop-color="#008170"/>
</linearGradient>
<linearGradient id="paint1_linear_8241_18758" x1="6.79771" y1="-2.07078" x2="21.051" y2="21.9359" gradientUnits="userSpaceOnUse">
<stop stop-color="#005B41"/>
<stop offset="1" stop-color="#008170"/>
<stop offset="1" stop-color="#008170"/>
</linearGradient>
</defs>
</svg>
