<svg width="15" height="18" viewBox="0 0 15 18" fill="none" xmlns="http://www.w3.org/2000/svg">
<path d="M2.04453 0.429691C1.34167 0.429691 0.74596 0.956834 0.673103 1.66183C0.567388 2.66755 0.394531 4.48826 0.394531 5.60826C0.394531 6.66541 0.878817 7.60969 1.63525 8.23112C1.88382 8.43541 2.00167 8.65969 2.00167 8.84826V9.32112L2.00096 9.35469C1.97167 9.78255 1.64453 14.5597 1.64453 15.4297C1.64453 15.7111 1.69996 15.9897 1.80765 16.2497C1.91534 16.5097 2.07318 16.7459 2.27216 16.9449C2.47114 17.1439 2.70737 17.3017 2.96735 17.4094C3.22734 17.5171 3.50598 17.5725 3.78739 17.5725C4.06879 17.5725 4.34744 17.5171 4.60742 17.4094C4.86741 17.3017 5.10363 17.1439 5.30262 16.9449C5.5016 16.7459 5.65944 16.5097 5.76713 16.2497C5.87482 15.9897 5.93025 15.7111 5.93025 15.4297C5.93025 14.5597 5.60382 9.78255 5.57382 9.35469L5.5731 9.32112V8.84826C5.5731 8.65898 5.69096 8.43541 5.93953 8.23112C6.32779 7.9132 6.64052 7.51295 6.85509 7.05934C7.06967 6.60572 7.18074 6.11007 7.18025 5.60826C7.18025 4.48826 7.00739 2.66755 6.90167 1.66183C6.86598 1.32319 6.70603 1.0098 6.45273 0.78223C6.19943 0.554656 5.87076 0.429052 5.53025 0.429691C5.20382 0.429691 4.9031 0.542548 4.66596 0.731834C4.41495 0.536043 4.10573 0.429702 3.78739 0.429691C3.46905 0.429702 3.15983 0.536043 2.90882 0.731834C2.66356 0.535598 2.35863 0.429001 2.04453 0.429691ZM3.43025 1.85826C3.43025 1.76354 3.46787 1.6727 3.53485 1.60572C3.60183 1.53875 3.69267 1.50112 3.78739 1.50112C3.88211 1.50112 3.97295 1.53875 4.03993 1.60572C4.1069 1.6727 4.14453 1.76354 4.14453 1.85826V5.60826C4.14453 5.75034 4.20097 5.8866 4.30144 5.98707C4.4019 6.08754 4.53817 6.14398 4.68025 6.14398C4.82233 6.14398 4.95859 6.08754 5.05905 5.98707C5.15952 5.8866 5.21596 5.75034 5.21596 5.60826V1.81541C5.21596 1.73205 5.24907 1.65211 5.30801 1.59317C5.36695 1.53423 5.44689 1.50112 5.53025 1.50112C5.69096 1.50112 5.82096 1.62041 5.83667 1.77326C5.94239 2.78755 6.10882 4.55326 6.10882 5.60826C6.10933 5.95173 6.03338 6.29101 5.88648 6.60148C5.73959 6.91195 5.52542 7.18584 5.25953 7.40326C4.87525 7.71898 4.50167 8.21755 4.50167 8.84826V9.32112C4.50167 9.35683 4.50239 9.38969 4.50525 9.42826C4.53667 9.88898 4.85882 14.6075 4.85882 15.4297C4.85882 15.7139 4.74593 15.9864 4.545 16.1873C4.34407 16.3882 4.07155 16.5011 3.78739 16.5011C3.50323 16.5011 3.23071 16.3882 3.02977 16.1873C2.82884 15.9864 2.71596 15.7139 2.71596 15.4297C2.71596 14.6083 3.03739 9.88898 3.06953 9.42826C3.07239 9.38969 3.0731 9.35683 3.0731 9.32112V8.84826C3.0731 8.21683 2.69953 7.71898 2.31525 7.40326C2.04935 7.18584 1.83519 6.91195 1.6883 6.60148C1.5414 6.29101 1.46545 5.95173 1.46596 5.60826C1.46596 4.55326 1.63239 2.78826 1.7381 1.77326C1.74626 1.69795 1.78215 1.62836 1.8388 1.57805C1.89544 1.52775 1.96878 1.50032 2.04453 1.50112C2.12788 1.50112 2.20782 1.53423 2.26676 1.59317C2.3257 1.65211 2.35882 1.73205 2.35882 1.81541V5.60826C2.35882 5.75034 2.41526 5.8866 2.51572 5.98707C2.61619 6.08754 2.75245 6.14398 2.89453 6.14398C3.03661 6.14398 3.17287 6.08754 3.27334 5.98707C3.3738 5.8866 3.43025 5.75034 3.43025 5.60826V1.85826ZM13.0731 1.50541V8.46541C13.0731 8.71541 13.1402 9.89183 13.2145 11.1868L13.2188 11.2618C13.3188 13.0018 13.4302 14.9511 13.4302 15.4297C13.4302 15.7139 13.3174 15.9864 13.1164 16.1873C12.9155 16.3882 12.643 16.5011 12.3588 16.5011C12.0747 16.5011 11.8021 16.3882 11.6012 16.1873C11.4003 15.9864 11.2874 15.7139 11.2874 15.4297C11.2874 15.0047 11.3752 13.2847 11.4652 11.644C11.5179 10.6825 11.5722 9.72103 11.6281 8.75969L11.6438 8.49683L11.6445 8.46541C11.6445 8.32333 11.5881 8.18706 11.4876 8.0866C11.3872 7.98613 11.2509 7.92969 11.1088 7.92969H9.68025C9.63289 7.92969 9.58747 7.91088 9.55398 7.87739C9.52049 7.8439 9.50167 7.79848 9.50167 7.75112V5.25112C9.50168 4.28748 9.87266 3.36082 10.5376 2.66339C11.2026 1.96596 12.1106 1.55129 13.0731 1.50541ZM10.541 9.00112L10.5181 9.39826C10.4845 9.98183 10.4395 10.7697 10.3952 11.5854C10.3067 13.2047 10.216 14.9668 10.216 15.4297C10.216 15.7111 10.2714 15.9897 10.3791 16.2497C10.4868 16.5097 10.6446 16.7459 10.8436 16.9449C11.0426 17.1439 11.2788 17.3017 11.5388 17.4094C11.7988 17.5171 12.0774 17.5725 12.3588 17.5725C12.6402 17.5725 12.9189 17.5171 13.1789 17.4094C13.4388 17.3017 13.6751 17.1439 13.874 16.9449C14.073 16.7459 14.2309 16.5097 14.3386 16.2497C14.4462 15.9897 14.5017 15.7111 14.5017 15.4297C14.5017 14.9147 14.3888 12.9483 14.2917 11.2475L14.2888 11.2004C14.211 9.84398 14.1445 8.67969 14.1445 8.46541V0.965405C14.1445 0.823325 14.0881 0.687064 13.9876 0.586598C13.8872 0.486132 13.7509 0.429691 13.6088 0.429691H13.2517C11.973 0.429691 10.7466 0.937661 9.84241 1.84185C8.93822 2.74605 8.43025 3.9724 8.43025 5.25112V7.75112C8.43025 8.44112 8.99025 9.00112 9.68025 9.00112H10.541Z" fill="#98949E"/>
</svg>
