<svg width="30" height="30" viewBox="0 0 30 30" fill="none" xmlns="http://www.w3.org/2000/svg">
<path opacity="0.4" d="M13.4391 3.06289C14.3016 2.32539 15.7141 2.32539 16.5891 3.06289L18.5641 4.76289C18.9391 5.08789 19.6391 5.35039 20.1391 5.35039H22.2641C23.5891 5.35039 24.6766 6.43789 24.6766 7.76289V9.88789C24.6766 10.3754 24.9391 11.0879 25.2641 11.4629L26.9641 13.4379C27.7016 14.3004 27.7016 15.7129 26.9641 16.5879L25.2641 18.5629C24.9391 18.9379 24.6766 19.6379 24.6766 20.1379V22.2629C24.6766 23.5879 23.5891 24.6754 22.2641 24.6754H20.1391C19.6516 24.6754 18.9391 24.9379 18.5641 25.2629L16.5891 26.9629C15.7266 27.7004 14.3141 27.7004 13.4391 26.9629L11.4641 25.2629C11.0891 24.9379 10.3891 24.6754 9.88906 24.6754H7.72656C6.40156 24.6754 5.31406 23.5879 5.31406 22.2629V20.1254C5.31406 19.6379 5.05156 18.9379 4.73906 18.5629L3.05156 16.5754C2.32656 15.7129 2.32656 14.3129 3.05156 13.4504L4.73906 11.4629C5.05156 11.0879 5.31406 10.3879 5.31406 9.90039V7.75039C5.31406 6.42539 6.40156 5.33789 7.72656 5.33789H9.88906C10.3766 5.33789 11.0891 5.07539 11.4641 4.75039L13.4391 3.06289Z" fill="#0BAE54"/>
<path d="M13.4867 18.9621C13.2367 18.9621 12.9992 18.8621 12.8242 18.6871L9.79922 15.6621C9.43672 15.2996 9.43672 14.6996 9.79922 14.3371C10.1617 13.9746 10.7617 13.9746 11.1242 14.3371L13.4867 16.6996L18.8617 11.3246C19.2242 10.9621 19.8242 10.9621 20.1867 11.3246C20.5492 11.6871 20.5492 12.2871 20.1867 12.6496L14.1492 18.6871C13.9742 18.8621 13.7367 18.9621 13.4867 18.9621Z" fill="#0BAE54"/>
</svg>
