<svg width="49" height="48" viewBox="0 0 49 48" fill="none" xmlns="http://www.w3.org/2000/svg">
<rect x="0.5" width="48" height="48" rx="24" fill="#D6FDDF"/>
<path opacity="0.4" d="M23.2528 14.4493C23.9428 13.8593 25.0728 13.8593 25.7728 14.4493L27.3528 15.8093C27.6528 16.0693 28.2128 16.2793 28.6128 16.2793H30.3128C31.3728 16.2793 32.2428 17.1493 32.2428 18.2093V19.9093C32.2428 20.2993 32.4528 20.8693 32.7128 21.1693L34.0728 22.7493C34.6628 23.4393 34.6628 24.5693 34.0728 25.2693L32.7128 26.8493C32.4528 27.1493 32.2428 27.7093 32.2428 28.1093V29.8093C32.2428 30.8693 31.3728 31.7393 30.3128 31.7393H28.6128C28.2228 31.7393 27.6528 31.9493 27.3528 32.2093L25.7728 33.5693C25.0828 34.1593 23.9528 34.1593 23.2528 33.5693L21.6728 32.2093C21.3728 31.9493 20.8128 31.7393 20.4128 31.7393H18.6828C17.6228 31.7393 16.7528 30.8693 16.7528 29.8093V28.0993C16.7528 27.7093 16.5428 27.1493 16.2928 26.8493L14.9428 25.2593C14.3628 24.5693 14.3628 23.4493 14.9428 22.7593L16.2928 21.1693C16.5428 20.8693 16.7528 20.3093 16.7528 19.9193V18.1993C16.7528 17.1393 17.6228 16.2693 18.6828 16.2693H20.4128C20.8028 16.2693 21.3728 16.0593 21.6728 15.7993L23.2528 14.4493Z" fill="#0BAE54"/>
<path d="M23.2847 27.1708C23.0847 27.1708 22.8947 27.0908 22.7547 26.9508L20.3347 24.5308C20.0447 24.2408 20.0447 23.7608 20.3347 23.4708C20.6247 23.1808 21.1047 23.1808 21.3947 23.4708L23.2847 25.3608L27.5847 21.0608C27.8747 20.7708 28.3547 20.7708 28.6447 21.0608C28.9347 21.3508 28.9347 21.8308 28.6447 22.1208L23.8147 26.9508C23.6747 27.0908 23.4847 27.1708 23.2847 27.1708Z" fill="#0BAE54"/>
</svg>
