<svg width="17" height="16" viewBox="0 0 17 16" fill="none" xmlns="http://www.w3.org/2000/svg">
<path d="M1.98045 13.7844L1.98051 13.7844L1.97632 13.7776C1.77774 13.4555 1.66406 13.0729 1.66406 12.6667C1.66406 11.4695 2.63354 10.5 3.83073 10.5C5.02792 10.5 5.9974 11.4695 5.9974 12.6667C5.9974 13.0729 5.88372 13.4555 5.68514 13.7776L5.68509 13.7775L5.681 13.7844C5.3078 14.4118 4.62131 14.8333 3.83073 14.8333C3.04015 14.8333 2.35366 14.4118 1.98045 13.7844ZM5.48356 12.8137L5.48357 12.8137L5.48522 12.8122C5.88401 12.44 5.91421 11.8038 5.53626 11.3988C5.16433 11.0003 4.52884 10.9699 4.12387 11.3469L3.4106 12.0067C3.02045 11.638 2.39906 11.6446 2.01718 12.0265L2.37073 12.38L2.01718 12.0265C1.62858 12.415 1.62858 13.0516 2.01718 13.4402L2.36625 13.0911L2.01718 13.4402L2.67718 14.1002C2.87585 14.2989 3.13189 14.3934 3.38406 14.3934C3.62571 14.3934 3.8749 14.302 4.06379 14.1269C4.06396 14.1267 4.06412 14.1266 4.06429 14.1264L5.48356 12.8137Z" fill="#007AFF" stroke="#007AFF"/>
<path d="M12.3317 4.69868C12.1717 4.67201 12.005 4.66535 11.8317 4.66535H5.165C4.97833 4.66535 4.79833 4.67868 4.625 4.70535C4.71833 4.51868 4.85167 4.34537 5.01167 4.18537L7.17833 2.01203C8.09167 1.10536 9.57167 1.10536 10.485 2.01203L11.6517 3.192C12.0783 3.612 12.305 4.14534 12.3317 4.69868Z" fill="#007AFF"/>
<path opacity="0.4" d="M15.1693 8.0013V11.3346C15.1693 13.3346 13.8359 14.668 11.8359 14.668H5.58927C5.79594 14.4946 5.97594 14.2813 6.11594 14.0413C6.3626 13.6413 6.5026 13.168 6.5026 12.668C6.5026 11.1946 5.30927 10.0013 3.83594 10.0013C3.03594 10.0013 2.3226 10.3546 1.83594 10.908V8.0013C1.83594 6.18797 2.92927 4.9213 4.62927 4.70797C4.8026 4.6813 4.9826 4.66797 5.16927 4.66797H11.8359C12.0093 4.66797 12.1759 4.67463 12.3359 4.70129C14.0559 4.90129 15.1693 6.17464 15.1693 8.0013Z" fill="#007AFF"/>
<path d="M15.1693 8.33203H13.1693C12.4359 8.33203 11.8359 8.93203 11.8359 9.66536C11.8359 10.3987 12.4359 10.9987 13.1693 10.9987H15.1693" fill="#007AFF"/>
</svg>
