<svg width="17" height="17" viewBox="0 0 17 17" fill="none" xmlns="http://www.w3.org/2000/svg">
<path d="M13.0241 9.03316C12.7441 9.3065 12.5841 9.69983 12.6241 10.1198C12.6841 10.8398 13.3441 11.3665 14.0641 11.3665H15.3307V12.1598C15.3307 13.5398 14.2041 14.6665 12.8241 14.6665H6.09073C6.64406 14.1798 6.9974 13.4665 6.9974 12.6665C6.9974 11.1932 5.80406 9.99984 4.33073 9.99984C3.70406 9.99984 3.12406 10.2198 2.66406 10.5865V7.67318C2.66406 6.29318 3.79073 5.1665 5.17073 5.1665H12.8241C14.2041 5.1665 15.3307 6.29318 15.3307 7.67318V8.63318H13.9841C13.6107 8.63318 13.2707 8.77983 13.0241 9.03316Z" stroke="#949494" stroke-width="1.5" stroke-linecap="round" stroke-linejoin="round"/>
<path opacity="0.4" d="M2.66406 7.67341V5.22676C2.66406 4.43343 3.15073 3.72673 3.89073 3.44673L9.18406 1.44673C10.0107 1.14006 10.8974 1.74675 10.8974 2.63342V5.16674" stroke="#949494" stroke-width="1.5" stroke-linecap="round" stroke-linejoin="round"/>
<path d="M16.0366 9.31327V10.6866C16.0366 11.0533 15.7433 11.3533 15.3699 11.3666H14.0633C13.3433 11.3666 12.6833 10.84 12.6233 10.12C12.5833 9.69995 12.7433 9.30662 13.0233 9.03328C13.2699 8.77995 13.6099 8.6333 13.9833 8.6333H15.3699C15.7433 8.64663 16.0366 8.94661 16.0366 9.31327Z" stroke="#949494" stroke-width="1.5" stroke-linecap="round" stroke-linejoin="round"/>
<path opacity="0.4" d="M5.66406 8H10.3307" stroke="#949494" stroke-width="1.5" stroke-linecap="round" stroke-linejoin="round"/>
<path d="M6.9974 12.6667C6.9974 13.4667 6.64406 14.18 6.09073 14.6667C5.6174 15.08 5.00406 15.3333 4.33073 15.3333C2.8574 15.3333 1.66406 14.14 1.66406 12.6667C1.66406 11.8267 2.05073 11.0733 2.66406 10.5867C3.12406 10.22 3.70406 10 4.33073 10C5.80406 10 6.9974 11.1933 6.9974 12.6667Z" stroke="#949494" stroke-width="1.5" stroke-miterlimit="10" stroke-linecap="round" stroke-linejoin="round"/>
<path d="M4.4974 11.8335V12.8335L3.66406 13.3335" stroke="#949494" stroke-width="1.5" stroke-miterlimit="10" stroke-linecap="round" stroke-linejoin="round"/>
</svg>
