<svg width="30" height="31" viewBox="0 0 30 31" fill="none" xmlns="http://www.w3.org/2000/svg">
<g id="vuesax/bulk/warning-2">
<g id="warning-2">
<path id="Vector" opacity="0.4" d="M26.3532 11.225V19.775C26.3532 21.175 25.6032 22.4751 24.3907 23.1876L16.9657 27.475C15.7532 28.175 14.2531 28.175 13.0281 27.475L5.60313 23.1876C4.39063 22.4876 3.64062 21.1875 3.64062 19.775V11.225C3.64062 9.82504 4.39063 8.52499 5.60313 7.81249L13.0281 3.525C14.2406 2.825 15.7407 2.825 16.9657 3.525L24.3907 7.81249C25.6032 8.52499 26.3532 9.81254 26.3532 11.225Z" fill="#FF7201"/>
<g id="Group">
<path id="Vector_2" d="M15 17.6875C14.4875 17.6875 14.0625 17.2625 14.0625 16.75V10.1875C14.0625 9.675 14.4875 9.25 15 9.25C15.5125 9.25 15.9375 9.675 15.9375 10.1875V16.75C15.9375 17.2625 15.5125 17.6875 15 17.6875Z" fill="#FF7201"/>
</g>
<g id="Group_2">
<path id="Vector_3" d="M15 22.0611C14.8375 22.0611 14.675 22.0236 14.525 21.9611C14.3625 21.8986 14.2375 21.8111 14.1125 21.6986C14 21.5736 13.9125 21.4361 13.8375 21.2861C13.775 21.1361 13.75 20.9736 13.75 20.8111C13.75 20.4861 13.875 20.1611 14.1125 19.9236C14.2375 19.8111 14.3625 19.7236 14.525 19.6611C14.9875 19.4611 15.5375 19.5736 15.8875 19.9236C16 20.0486 16.0875 20.1736 16.15 20.3361C16.2125 20.4861 16.25 20.6486 16.25 20.8111C16.25 20.9736 16.2125 21.1361 16.15 21.2861C16.0875 21.4361 16 21.5736 15.8875 21.6986C15.65 21.9361 15.3375 22.0611 15 22.0611Z" fill="#FF7201"/>
</g>
</g>
</g>
</svg>
