<svg width="20" height="20" viewBox="0 0 20 20" fill="none" xmlns="http://www.w3.org/2000/svg">
<path opacity="0.4" d="M18.3307 9.99992V14.1666C18.3307 16.6666 16.6641 18.3333 14.1641 18.3333H5.83073C3.33073 18.3333 1.66406 16.6666 1.66406 14.1666L1.66406 9.99992C1.66406 7.73325 3.03073 6.14992 5.15573 5.88325C5.3724 5.84992 5.5974 5.83325 5.83073 5.83325L14.1641 5.83325C14.3807 5.83325 14.5891 5.84158 14.7891 5.87491C16.9391 6.12491 18.3307 7.71659 18.3307 9.99992Z" fill="#0BAE54"/>
<path d="M14.7896 5.87508C14.5896 5.84175 14.3813 5.83342 14.1646 5.83342H5.83125C5.59792 5.83342 5.37292 5.85009 5.15625 5.88342C5.27292 5.65009 5.43958 5.43342 5.63958 5.23342L8.34792 2.51675C9.48958 1.38341 11.3396 1.38341 12.4812 2.51675L13.9396 3.99176C14.4729 4.51676 14.7563 5.18341 14.7896 5.87508Z" fill="#0BAE54"/>
<path d="M18.3307 10.4167H15.8307C14.9141 10.4167 14.1641 11.1667 14.1641 12.0834C14.1641 13.0001 14.9141 13.7501 15.8307 13.7501H18.3307" fill="#0BAE54"/>
</svg>
