<svg width="18" height="18" viewBox="0 0 18 18" fill="none" xmlns="http://www.w3.org/2000/svg">
<g id="vuesax/bulk/empty-wallet-time">
<g id="empty-wallet-time">
<path id="Vector" d="M3.75 11.25C3.045 11.25 2.3925 11.4975 1.875 11.91C1.185 12.4575 0.75 13.305 0.75 14.25C0.75 15.9075 2.0925 17.25 3.75 17.25C4.5075 17.25 5.1975 16.965 5.73 16.5C6.3525 15.9525 6.75 15.15 6.75 14.25C6.75 12.5925 5.4075 11.25 3.75 11.25ZM4.5 14.4375C4.5 14.6325 4.395 14.82 4.23 14.9175L3.2925 15.48C3.2025 15.5325 3.105 15.5625 3 15.5625C2.8125 15.5625 2.625 15.465 2.52 15.2925C2.3625 15.0225 2.445 14.6775 2.715 14.52L3.3825 14.1225V13.3125C3.3825 13.005 3.6375 12.75 3.945 12.75C4.2525 12.75 4.5075 13.005 4.5075 13.3125V14.4375H4.5Z" fill="#008172"/>
<path id="Vector_2" opacity="0.4" d="M14.61 9.71251H16.125V8.63251C16.125 7.08001 14.8575 5.8125 13.305 5.8125H4.695C3.1425 5.8125 1.875 7.08001 1.875 8.63251V11.91C2.3925 11.4975 3.045 11.25 3.75 11.25C5.4075 11.25 6.75 12.5925 6.75 14.25C6.75 14.8125 6.5925 15.345 6.315 15.795C6.1575 16.065 5.955 16.305 5.7225 16.5H13.305C14.8575 16.5 16.125 15.2325 16.125 13.68V12.7875H14.7C13.89 12.7875 13.1475 12.195 13.08 11.385C13.035 10.9125 13.215 10.47 13.53 10.1625C13.8075 9.87749 14.19 9.71251 14.61 9.71251Z" fill="#008172"/>
<path id="Vector_3" d="M11.1375 2.96271V5.81271H4.695C3.1425 5.81271 1.875 7.08021 1.875 8.63271V5.88023C1.875 4.98773 2.4225 4.19269 3.255 3.87769L9.21 1.62769C10.14 1.28269 11.1375 1.96521 11.1375 2.96271Z" fill="#008172"/>
<path id="Vector_4" d="M16.9191 10.4779V12.0229C16.9191 12.4354 16.5891 12.7729 16.1691 12.7879H14.6991C13.8891 12.7879 13.1466 12.1954 13.0791 11.3854C13.0341 10.9129 13.2141 10.4704 13.5291 10.1629C13.8066 9.87787 14.1891 9.71289 14.6091 9.71289H16.1691C16.5891 9.72789 16.9191 10.0654 16.9191 10.4779Z" fill="#008172"/>
<g id="Group">
<path id="Vector_5" d="M10.5 9.5625H5.25C4.9425 9.5625 4.6875 9.3075 4.6875 9C4.6875 8.6925 4.9425 8.4375 5.25 8.4375H10.5C10.8075 8.4375 11.0625 8.6925 11.0625 9C11.0625 9.3075 10.8075 9.5625 10.5 9.5625Z" fill="#008172"/>
</g>
</g>
</g>
</svg>
