<svg width="32" height="32" viewBox="0 0 32 32" fill="none" xmlns="http://www.w3.org/2000/svg">
<path opacity="0.4" d="M28.1076 11.4413V20.5613C28.1076 22.0546 27.3076 23.4414 26.0142 24.2014L18.0942 28.7747C16.8009 29.5213 15.2009 29.5213 13.8942 28.7747L5.9742 24.2014C4.68087 23.4547 3.88086 22.068 3.88086 20.5613V11.4413C3.88086 9.94801 4.68087 8.56129 5.9742 7.80129L13.8942 3.22797C15.1875 2.4813 16.7876 2.4813 18.0942 3.22797L26.0142 7.80129C27.3076 8.56129 28.1076 9.93468 28.1076 11.4413Z" fill="#F17300"/>
<path d="M16 18.332C15.4533 18.332 15 17.8787 15 17.332V10.332C15 9.78536 15.4533 9.33203 16 9.33203C16.5467 9.33203 17 9.78536 17 10.332V17.332C17 17.8787 16.5467 18.332 16 18.332Z" fill="#F17300"/>
<path d="M15.9993 23.0011C15.826 23.0011 15.6527 22.9611 15.4927 22.8944C15.3193 22.8278 15.186 22.7345 15.0527 22.6145C14.9327 22.4811 14.8394 22.3345 14.7594 22.1745C14.6927 22.0145 14.666 21.8411 14.666 21.6678C14.666 21.3211 14.7993 20.9744 15.0527 20.7211C15.186 20.6011 15.3193 20.5078 15.4927 20.4411C15.986 20.2278 16.5727 20.3478 16.946 20.7211C17.066 20.8544 17.1593 20.9878 17.226 21.1611C17.2927 21.3211 17.3327 21.4944 17.3327 21.6678C17.3327 21.8411 17.2927 22.0145 17.226 22.1745C17.1593 22.3345 17.066 22.4811 16.946 22.6145C16.6927 22.8678 16.3593 23.0011 15.9993 23.0011Z" fill="#F17300"/>
</svg>
